<?xml version="1.0" encoding="utf-8"?>
<svg xmlns="http://www.w3.org/2000/svg" xmlns:xlink="http://www.w3.org/1999/xlink" width="600" height="400" viewBox="0 0 2400 1600">
<defs>
  <clipPath id="clip720">
    <rect x="0" y="0" width="2400" height="1600"/>
  </clipPath>
</defs>
<path clip-path="url(#clip720)" d="
M0 1600 L2400 1600 L2400 0 L0 0  Z
  " fill="#ffffff" fill-rule="evenodd" fill-opacity="1"/>
<defs>
  <clipPath id="clip721">
    <rect x="480" y="0" width="1681" height="1600"/>
  </clipPath>
</defs>
<path clip-path="url(#clip720)" d="
M204.45 1423.18 L2352.76 1423.18 L2352.76 123.472 L204.45 123.472  Z
  " fill="#ffffff" fill-rule="evenodd" fill-opacity="1"/>
<defs>
  <clipPath id="clip722">
    <rect x="204" y="123" width="2149" height="1301"/>
  </clipPath>
</defs>
<polyline clip-path="url(#clip722)" style="stroke:#000000; stroke-linecap:butt; stroke-linejoin:round; stroke-width:2; stroke-opacity:0.1; fill:none" points="
  523.872,1423.18 523.872,123.472 
  "/>
<polyline clip-path="url(#clip722)" style="stroke:#000000; stroke-linecap:butt; stroke-linejoin:round; stroke-width:2; stroke-opacity:0.1; fill:none" points="
  1027.03,1423.18 1027.03,123.472 
  "/>
<polyline clip-path="url(#clip722)" style="stroke:#000000; stroke-linecap:butt; stroke-linejoin:round; stroke-width:2; stroke-opacity:0.1; fill:none" points="
  1530.18,1423.18 1530.18,123.472 
  "/>
<polyline clip-path="url(#clip722)" style="stroke:#000000; stroke-linecap:butt; stroke-linejoin:round; stroke-width:2; stroke-opacity:0.1; fill:none" points="
  2033.33,1423.18 2033.33,123.472 
  "/>
<polyline clip-path="url(#clip720)" style="stroke:#000000; stroke-linecap:butt; stroke-linejoin:round; stroke-width:4; stroke-opacity:1; fill:none" points="
  204.45,1423.18 2352.76,1423.18 
  "/>
<polyline clip-path="url(#clip720)" style="stroke:#000000; stroke-linecap:butt; stroke-linejoin:round; stroke-width:4; stroke-opacity:1; fill:none" points="
  523.872,1423.18 523.872,1404.28 
  "/>
<polyline clip-path="url(#clip720)" style="stroke:#000000; stroke-linecap:butt; stroke-linejoin:round; stroke-width:4; stroke-opacity:1; fill:none" points="
  1027.03,1423.18 1027.03,1404.28 
  "/>
<polyline clip-path="url(#clip720)" style="stroke:#000000; stroke-linecap:butt; stroke-linejoin:round; stroke-width:4; stroke-opacity:1; fill:none" points="
  1530.18,1423.18 1530.18,1404.28 
  "/>
<polyline clip-path="url(#clip720)" style="stroke:#000000; stroke-linecap:butt; stroke-linejoin:round; stroke-width:4; stroke-opacity:1; fill:none" points="
  2033.33,1423.18 2033.33,1404.28 
  "/>
<path clip-path="url(#clip720)" d="M313.873 1450.43 L313.873 1454.99 Q311.211 1453.71 308.85 1453.09 Q306.489 1452.46 304.29 1452.46 Q300.47 1452.46 298.387 1453.94 Q296.327 1455.43 296.327 1458.16 Q296.327 1460.45 297.693 1461.63 Q299.081 1462.79 302.924 1463.5 L305.748 1464.08 Q310.98 1465.08 313.456 1467.6 Q315.956 1470.1 315.956 1474.31 Q315.956 1479.34 312.577 1481.93 Q309.22 1484.52 302.716 1484.52 Q300.262 1484.52 297.484 1483.97 Q294.73 1483.41 291.767 1482.32 L291.767 1477.51 Q294.614 1479.11 297.345 1479.92 Q300.077 1480.73 302.716 1480.73 Q306.72 1480.73 308.896 1479.15 Q311.072 1477.58 311.072 1474.66 Q311.072 1472.12 309.498 1470.68 Q307.947 1469.25 304.382 1468.53 L301.535 1467.97 Q296.304 1466.93 293.966 1464.71 Q291.628 1462.49 291.628 1458.53 Q291.628 1453.94 294.845 1451.31 Q298.086 1448.67 303.757 1448.67 Q306.188 1448.67 308.711 1449.11 Q311.234 1449.55 313.873 1450.43 Z" fill="#000000" fill-rule="evenodd" fill-opacity="1" /><path clip-path="url(#clip720)" d="M334.845 1470.82 Q329.683 1470.82 327.692 1472 Q325.702 1473.18 325.702 1476.03 Q325.702 1478.3 327.183 1479.64 Q328.688 1480.96 331.257 1480.96 Q334.799 1480.96 336.928 1478.46 Q339.081 1475.94 339.081 1471.77 L339.081 1470.82 L334.845 1470.82 M343.34 1469.06 L343.34 1483.85 L339.081 1483.85 L339.081 1479.92 Q337.623 1482.28 335.447 1483.41 Q333.271 1484.52 330.123 1484.52 Q326.141 1484.52 323.78 1482.3 Q321.442 1480.06 321.442 1476.31 Q321.442 1471.93 324.359 1469.71 Q327.299 1467.49 333.109 1467.49 L339.081 1467.49 L339.081 1467.07 Q339.081 1464.13 337.137 1462.53 Q335.216 1460.91 331.72 1460.91 Q329.498 1460.91 327.391 1461.44 Q325.285 1461.98 323.341 1463.04 L323.341 1459.11 Q325.679 1458.2 327.878 1457.76 Q330.077 1457.3 332.16 1457.3 Q337.785 1457.3 340.563 1460.22 Q343.34 1463.13 343.34 1469.06 Z" fill="#000000" fill-rule="evenodd" fill-opacity="1" /><path clip-path="url(#clip720)" d="M352.114 1447.83 L356.373 1447.83 L356.373 1483.85 L352.114 1483.85 L352.114 1447.83 Z" fill="#000000" fill-rule="evenodd" fill-opacity="1" /><path clip-path="url(#clip720)" d="M385.47 1462.9 Q387.067 1460.03 389.289 1458.67 Q391.512 1457.3 394.521 1457.3 Q398.572 1457.3 400.771 1460.15 Q402.97 1462.97 402.97 1468.2 L402.97 1483.85 L398.687 1483.85 L398.687 1468.34 Q398.687 1464.62 397.368 1462.81 Q396.049 1461 393.34 1461 Q390.03 1461 388.109 1463.2 Q386.187 1465.4 386.187 1469.2 L386.187 1483.85 L381.905 1483.85 L381.905 1468.34 Q381.905 1464.59 380.586 1462.81 Q379.266 1461 376.512 1461 Q373.248 1461 371.326 1463.23 Q369.405 1465.43 369.405 1469.2 L369.405 1483.85 L365.123 1483.85 L365.123 1457.93 L369.405 1457.93 L369.405 1461.95 Q370.863 1459.57 372.901 1458.44 Q374.938 1457.3 377.738 1457.3 Q380.562 1457.3 382.53 1458.74 Q384.521 1460.17 385.47 1462.9 Z" fill="#000000" fill-rule="evenodd" fill-opacity="1" /><path clip-path="url(#clip720)" d="M421.511 1460.91 Q418.085 1460.91 416.095 1463.6 Q414.104 1466.26 414.104 1470.91 Q414.104 1475.56 416.072 1478.25 Q418.062 1480.91 421.511 1480.91 Q424.914 1480.91 426.905 1478.23 Q428.896 1475.54 428.896 1470.91 Q428.896 1466.31 426.905 1463.62 Q424.914 1460.91 421.511 1460.91 M421.511 1457.3 Q427.067 1457.3 430.238 1460.91 Q433.409 1464.52 433.409 1470.91 Q433.409 1477.28 430.238 1480.91 Q427.067 1484.52 421.511 1484.52 Q415.933 1484.52 412.761 1480.91 Q409.613 1477.28 409.613 1470.91 Q409.613 1464.52 412.761 1460.91 Q415.933 1457.3 421.511 1457.3 Z" fill="#000000" fill-rule="evenodd" fill-opacity="1" /><path clip-path="url(#clip720)" d="M462.02 1468.2 L462.02 1483.85 L457.761 1483.85 L457.761 1468.34 Q457.761 1464.66 456.326 1462.83 Q454.891 1461 452.02 1461 Q448.571 1461 446.581 1463.2 Q444.59 1465.4 444.59 1469.2 L444.59 1483.85 L440.308 1483.85 L440.308 1457.93 L444.59 1457.93 L444.59 1461.95 Q446.118 1459.62 448.178 1458.46 Q450.261 1457.3 452.97 1457.3 Q457.437 1457.3 459.729 1460.08 Q462.02 1462.83 462.02 1468.2 Z" fill="#000000" fill-rule="evenodd" fill-opacity="1" /><path clip-path="url(#clip720)" d="M492.692 1469.82 L492.692 1471.91 L473.108 1471.91 Q473.386 1476.31 475.747 1478.62 Q478.131 1480.91 482.368 1480.91 Q484.821 1480.91 487.113 1480.31 Q489.428 1479.71 491.696 1478.5 L491.696 1482.53 Q489.405 1483.5 486.997 1484.01 Q484.59 1484.52 482.113 1484.52 Q475.909 1484.52 472.275 1480.91 Q468.664 1477.3 468.664 1471.14 Q468.664 1464.78 472.09 1461.05 Q475.539 1457.3 481.372 1457.3 Q486.604 1457.3 489.636 1460.68 Q492.692 1464.04 492.692 1469.82 M488.432 1468.57 Q488.386 1465.08 486.465 1463 Q484.567 1460.91 481.418 1460.91 Q477.854 1460.91 475.701 1462.93 Q473.571 1464.94 473.247 1468.6 L488.432 1468.57 Z" fill="#000000" fill-rule="evenodd" fill-opacity="1" /><path clip-path="url(#clip720)" d="M499.682 1447.83 L503.941 1447.83 L503.941 1483.85 L499.682 1483.85 L499.682 1447.83 Z" fill="#000000" fill-rule="evenodd" fill-opacity="1" /><path clip-path="url(#clip720)" d="M512.853 1447.83 L517.113 1447.83 L517.113 1483.85 L512.853 1483.85 L512.853 1447.83 Z" fill="#000000" fill-rule="evenodd" fill-opacity="1" /><path clip-path="url(#clip720)" d="M537.807 1470.82 Q532.645 1470.82 530.654 1472 Q528.664 1473.18 528.664 1476.03 Q528.664 1478.3 530.145 1479.64 Q531.65 1480.96 534.219 1480.96 Q537.761 1480.96 539.89 1478.46 Q542.043 1475.94 542.043 1471.77 L542.043 1470.82 L537.807 1470.82 M546.302 1469.06 L546.302 1483.85 L542.043 1483.85 L542.043 1479.92 Q540.585 1482.28 538.409 1483.41 Q536.233 1484.52 533.085 1484.52 Q529.103 1484.52 526.742 1482.3 Q524.404 1480.06 524.404 1476.31 Q524.404 1471.93 527.321 1469.71 Q530.261 1467.49 536.071 1467.49 L542.043 1467.49 L542.043 1467.07 Q542.043 1464.13 540.099 1462.53 Q538.177 1460.91 534.682 1460.91 Q532.46 1460.91 530.353 1461.44 Q528.247 1461.98 526.302 1463.04 L526.302 1459.11 Q528.64 1458.2 530.839 1457.76 Q533.039 1457.3 535.122 1457.3 Q540.747 1457.3 543.525 1460.22 Q546.302 1463.13 546.302 1469.06 Z" fill="#000000" fill-rule="evenodd" fill-opacity="1" /><path clip-path="url(#clip720)" d="M592.321 1469.82 L592.321 1471.91 L572.737 1471.91 Q573.015 1476.31 575.376 1478.62 Q577.761 1480.91 581.997 1480.91 Q584.45 1480.91 586.742 1480.31 Q589.057 1479.71 591.325 1478.5 L591.325 1482.53 Q589.034 1483.5 586.626 1484.01 Q584.219 1484.52 581.742 1484.52 Q575.538 1484.52 571.904 1480.91 Q568.293 1477.3 568.293 1471.14 Q568.293 1464.78 571.719 1461.05 Q575.168 1457.3 581.001 1457.3 Q586.233 1457.3 589.265 1460.68 Q592.321 1464.04 592.321 1469.82 M588.061 1468.57 Q588.015 1465.08 586.094 1463 Q584.196 1460.91 581.048 1460.91 Q577.483 1460.91 575.33 1462.93 Q573.2 1464.94 572.876 1468.6 L588.061 1468.57 Z" fill="#000000" fill-rule="evenodd" fill-opacity="1" /><path clip-path="url(#clip720)" d="M620.862 1468.2 L620.862 1483.85 L616.603 1483.85 L616.603 1468.34 Q616.603 1464.66 615.168 1462.83 Q613.733 1461 610.862 1461 Q607.413 1461 605.422 1463.2 Q603.432 1465.4 603.432 1469.2 L603.432 1483.85 L599.149 1483.85 L599.149 1457.93 L603.432 1457.93 L603.432 1461.95 Q604.959 1459.62 607.02 1458.46 Q609.103 1457.3 611.811 1457.3 Q616.279 1457.3 618.57 1460.08 Q620.862 1462.83 620.862 1468.2 Z" fill="#000000" fill-rule="evenodd" fill-opacity="1" /><path clip-path="url(#clip720)" d="M633.57 1450.56 L633.57 1457.93 L642.344 1457.93 L642.344 1461.24 L633.57 1461.24 L633.57 1475.31 Q633.57 1478.48 634.427 1479.38 Q635.307 1480.29 637.969 1480.29 L642.344 1480.29 L642.344 1483.85 L637.969 1483.85 Q633.038 1483.85 631.163 1482.02 Q629.288 1480.17 629.288 1475.31 L629.288 1461.24 L626.163 1461.24 L626.163 1457.93 L629.288 1457.93 L629.288 1450.56 L633.57 1450.56 Z" fill="#000000" fill-rule="evenodd" fill-opacity="1" /><path clip-path="url(#clip720)" d="M670.121 1469.82 L670.121 1471.91 L650.538 1471.91 Q650.816 1476.31 653.177 1478.62 Q655.561 1480.91 659.797 1480.91 Q662.251 1480.91 664.542 1480.31 Q666.857 1479.71 669.126 1478.5 L669.126 1482.53 Q666.834 1483.5 664.427 1484.01 Q662.019 1484.52 659.542 1484.52 Q653.339 1484.52 649.705 1480.91 Q646.093 1477.3 646.093 1471.14 Q646.093 1464.78 649.519 1461.05 Q652.968 1457.3 658.802 1457.3 Q664.033 1457.3 667.066 1460.68 Q670.121 1464.04 670.121 1469.82 M665.862 1468.57 Q665.816 1465.08 663.894 1463 Q661.996 1460.91 658.848 1460.91 Q655.283 1460.91 653.13 1462.93 Q651.001 1464.94 650.677 1468.6 L665.862 1468.57 Z" fill="#000000" fill-rule="evenodd" fill-opacity="1" /><path clip-path="url(#clip720)" d="M692.135 1461.91 Q691.417 1461.49 690.561 1461.31 Q689.728 1461.1 688.709 1461.1 Q685.098 1461.1 683.153 1463.46 Q681.232 1465.8 681.232 1470.19 L681.232 1483.85 L676.95 1483.85 L676.95 1457.93 L681.232 1457.93 L681.232 1461.95 Q682.575 1459.59 684.728 1458.46 Q686.88 1457.3 689.959 1457.3 Q690.399 1457.3 690.931 1457.37 Q691.464 1457.42 692.112 1457.53 L692.135 1461.91 Z" fill="#000000" fill-rule="evenodd" fill-opacity="1" /><path clip-path="url(#clip720)" d="M696.602 1457.93 L700.862 1457.93 L700.862 1483.85 L696.602 1483.85 L696.602 1457.93 M696.602 1447.83 L700.862 1447.83 L700.862 1453.23 L696.602 1453.23 L696.602 1447.83 Z" fill="#000000" fill-rule="evenodd" fill-opacity="1" /><path clip-path="url(#clip720)" d="M728.431 1458.92 L728.431 1462.9 Q726.625 1461.91 724.797 1461.42 Q722.991 1460.91 721.139 1460.91 Q716.996 1460.91 714.704 1463.55 Q712.413 1466.17 712.413 1470.91 Q712.413 1475.66 714.704 1478.3 Q716.996 1480.91 721.139 1480.91 Q722.991 1480.91 724.797 1480.43 Q726.625 1479.92 728.431 1478.92 L728.431 1482.86 Q726.649 1483.69 724.727 1484.11 Q722.829 1484.52 720.676 1484.52 Q714.82 1484.52 711.371 1480.84 Q707.922 1477.16 707.922 1470.91 Q707.922 1464.57 711.394 1460.94 Q714.889 1457.3 720.954 1457.3 Q722.922 1457.3 724.797 1457.72 Q726.672 1458.11 728.431 1458.92 Z" fill="#000000" fill-rule="evenodd" fill-opacity="1" /><path clip-path="url(#clip720)" d="M747.621 1470.82 Q742.459 1470.82 740.468 1472 Q738.477 1473.18 738.477 1476.03 Q738.477 1478.3 739.959 1479.64 Q741.463 1480.96 744.033 1480.96 Q747.574 1480.96 749.704 1478.46 Q751.857 1475.94 751.857 1471.77 L751.857 1470.82 L747.621 1470.82 M756.116 1469.06 L756.116 1483.85 L751.857 1483.85 L751.857 1479.92 Q750.398 1482.28 748.223 1483.41 Q746.047 1484.52 742.899 1484.52 Q738.917 1484.52 736.556 1482.3 Q734.218 1480.06 734.218 1476.31 Q734.218 1471.93 737.135 1469.71 Q740.074 1467.49 745.885 1467.49 L751.857 1467.49 L751.857 1467.07 Q751.857 1464.13 749.912 1462.53 Q747.991 1460.91 744.496 1460.91 Q742.274 1460.91 740.167 1461.44 Q738.061 1461.98 736.116 1463.04 L736.116 1459.11 Q738.454 1458.2 740.653 1457.76 Q742.852 1457.3 744.936 1457.3 Q750.561 1457.3 753.338 1460.22 Q756.116 1463.13 756.116 1469.06 Z" fill="#000000" fill-rule="evenodd" fill-opacity="1" /><path clip-path="url(#clip720)" d="M944.63 1449.29 L949.306 1449.29 L949.306 1479.92 L966.135 1479.92 L966.135 1483.85 L944.63 1483.85 L944.63 1449.29 Z" fill="#000000" fill-rule="evenodd" fill-opacity="1" /><path clip-path="url(#clip720)" d="M970.857 1457.93 L975.116 1457.93 L975.116 1483.85 L970.857 1483.85 L970.857 1457.93 M970.857 1447.83 L975.116 1447.83 L975.116 1453.23 L970.857 1453.23 L970.857 1447.83 Z" fill="#000000" fill-rule="evenodd" fill-opacity="1" /><path clip-path="url(#clip720)" d="M1000.56 1458.69 L1000.56 1462.72 Q998.751 1461.79 996.806 1461.33 Q994.862 1460.87 992.778 1460.87 Q989.607 1460.87 988.01 1461.84 Q986.436 1462.81 986.436 1464.75 Q986.436 1466.24 987.57 1467.09 Q988.704 1467.93 992.13 1468.69 L993.589 1469.01 Q998.126 1469.99 1000.02 1471.77 Q1001.94 1473.53 1001.94 1476.7 Q1001.94 1480.31 999.075 1482.42 Q996.227 1484.52 991.227 1484.52 Q989.144 1484.52 986.876 1484.11 Q984.63 1483.71 982.13 1482.9 L982.13 1478.5 Q984.491 1479.73 986.783 1480.36 Q989.075 1480.96 991.32 1480.96 Q994.329 1480.96 995.95 1479.94 Q997.57 1478.9 997.57 1477.02 Q997.57 1475.29 996.389 1474.36 Q995.232 1473.44 991.274 1472.58 L989.792 1472.23 Q985.834 1471.4 984.075 1469.69 Q982.315 1467.95 982.315 1464.94 Q982.315 1461.28 984.908 1459.29 Q987.501 1457.3 992.269 1457.3 Q994.63 1457.3 996.713 1457.65 Q998.797 1458 1000.56 1458.69 Z" fill="#000000" fill-rule="evenodd" fill-opacity="1" /><path clip-path="url(#clip720)" d="M1012.94 1450.56 L1012.94 1457.93 L1021.71 1457.93 L1021.71 1461.24 L1012.94 1461.24 L1012.94 1475.31 Q1012.94 1478.48 1013.8 1479.38 Q1014.68 1480.29 1017.34 1480.29 L1021.71 1480.29 L1021.71 1483.85 L1017.34 1483.85 Q1012.41 1483.85 1010.53 1482.02 Q1008.66 1480.17 1008.66 1475.31 L1008.66 1461.24 L1005.53 1461.24 L1005.53 1457.93 L1008.66 1457.93 L1008.66 1450.56 L1012.94 1450.56 Z" fill="#000000" fill-rule="evenodd" fill-opacity="1" /><path clip-path="url(#clip720)" d="M1049.49 1469.82 L1049.49 1471.91 L1029.91 1471.91 Q1030.19 1476.31 1032.55 1478.62 Q1034.93 1480.91 1039.17 1480.91 Q1041.62 1480.91 1043.91 1480.31 Q1046.23 1479.71 1048.5 1478.5 L1048.5 1482.53 Q1046.2 1483.5 1043.8 1484.01 Q1041.39 1484.52 1038.91 1484.52 Q1032.71 1484.52 1029.07 1480.91 Q1025.46 1477.3 1025.46 1471.14 Q1025.46 1464.78 1028.89 1461.05 Q1032.34 1457.3 1038.17 1457.3 Q1043.4 1457.3 1046.44 1460.68 Q1049.49 1464.04 1049.49 1469.82 M1045.23 1468.57 Q1045.19 1465.08 1043.26 1463 Q1041.37 1460.91 1038.22 1460.91 Q1034.65 1460.91 1032.5 1462.93 Q1030.37 1464.94 1030.05 1468.6 L1045.23 1468.57 Z" fill="#000000" fill-rule="evenodd" fill-opacity="1" /><path clip-path="url(#clip720)" d="M1071.5 1461.91 Q1070.79 1461.49 1069.93 1461.31 Q1069.1 1461.1 1068.08 1461.1 Q1064.47 1461.1 1062.52 1463.46 Q1060.6 1465.8 1060.6 1470.19 L1060.6 1483.85 L1056.32 1483.85 L1056.32 1457.93 L1060.6 1457.93 L1060.6 1461.95 Q1061.94 1459.59 1064.1 1458.46 Q1066.25 1457.3 1069.33 1457.3 Q1069.77 1457.3 1070.3 1457.37 Q1070.83 1457.42 1071.48 1457.53 L1071.5 1461.91 Z" fill="#000000" fill-rule="evenodd" fill-opacity="1" /><path clip-path="url(#clip720)" d="M1075.97 1457.93 L1080.23 1457.93 L1080.23 1483.85 L1075.97 1483.85 L1075.97 1457.93 M1075.97 1447.83 L1080.23 1447.83 L1080.23 1453.23 L1075.97 1453.23 L1075.97 1447.83 Z" fill="#000000" fill-rule="evenodd" fill-opacity="1" /><path clip-path="url(#clip720)" d="M1100.93 1470.82 Q1095.76 1470.82 1093.77 1472 Q1091.78 1473.18 1091.78 1476.03 Q1091.78 1478.3 1093.26 1479.64 Q1094.77 1480.96 1097.34 1480.96 Q1100.88 1480.96 1103.01 1478.46 Q1105.16 1475.94 1105.16 1471.77 L1105.16 1470.82 L1100.93 1470.82 M1109.42 1469.06 L1109.42 1483.85 L1105.16 1483.85 L1105.16 1479.92 Q1103.7 1482.28 1101.53 1483.41 Q1099.35 1484.52 1096.2 1484.52 Q1092.22 1484.52 1089.86 1482.3 Q1087.52 1480.06 1087.52 1476.31 Q1087.52 1471.93 1090.44 1469.71 Q1093.38 1467.49 1099.19 1467.49 L1105.16 1467.49 L1105.16 1467.07 Q1105.16 1464.13 1103.22 1462.53 Q1101.3 1460.91 1097.8 1460.91 Q1095.58 1460.91 1093.47 1461.44 Q1091.37 1461.98 1089.42 1463.04 L1089.42 1459.11 Q1091.76 1458.2 1093.96 1457.76 Q1096.16 1457.3 1098.24 1457.3 Q1103.87 1457.3 1106.64 1460.22 Q1109.42 1463.13 1109.42 1469.06 Z" fill="#000000" fill-rule="evenodd" fill-opacity="1" /><path clip-path="url(#clip720)" d="M1361.06 1467.35 L1361.06 1480.01 L1368.56 1480.01 Q1372.33 1480.01 1374.14 1478.46 Q1375.97 1476.88 1375.97 1473.67 Q1375.97 1470.43 1374.14 1468.9 Q1372.33 1467.35 1368.56 1467.35 L1361.06 1467.35 M1361.06 1453.13 L1361.06 1463.55 L1367.98 1463.55 Q1371.41 1463.55 1373.07 1462.28 Q1374.76 1460.98 1374.76 1458.34 Q1374.76 1455.73 1373.07 1454.43 Q1371.41 1453.13 1367.98 1453.13 L1361.06 1453.13 M1356.38 1449.29 L1368.33 1449.29 Q1373.68 1449.29 1376.57 1451.51 Q1379.46 1453.74 1379.46 1457.83 Q1379.46 1461 1377.98 1462.88 Q1376.5 1464.75 1373.63 1465.22 Q1377.08 1465.96 1378.98 1468.32 Q1380.9 1470.66 1380.9 1474.18 Q1380.9 1478.81 1377.75 1481.33 Q1374.6 1483.85 1368.79 1483.85 L1356.38 1483.85 L1356.38 1449.29 Z" fill="#000000" fill-rule="evenodd" fill-opacity="1" /><path clip-path="url(#clip720)" d="M1400.5 1470.82 Q1395.34 1470.82 1393.35 1472 Q1391.36 1473.18 1391.36 1476.03 Q1391.36 1478.3 1392.84 1479.64 Q1394.35 1480.96 1396.92 1480.96 Q1400.46 1480.96 1402.59 1478.46 Q1404.74 1475.94 1404.74 1471.77 L1404.74 1470.82 L1400.5 1470.82 M1409 1469.06 L1409 1483.85 L1404.74 1483.85 L1404.74 1479.92 Q1403.28 1482.28 1401.11 1483.41 Q1398.93 1484.52 1395.78 1484.52 Q1391.8 1484.52 1389.44 1482.3 Q1387.1 1480.06 1387.1 1476.31 Q1387.1 1471.93 1390.02 1469.71 Q1392.96 1467.49 1398.77 1467.49 L1404.74 1467.49 L1404.74 1467.07 Q1404.74 1464.13 1402.8 1462.53 Q1400.87 1460.91 1397.38 1460.91 Q1395.16 1460.91 1393.05 1461.44 Q1390.94 1461.98 1389 1463.04 L1389 1459.11 Q1391.34 1458.2 1393.54 1457.76 Q1395.74 1457.3 1397.82 1457.3 Q1403.44 1457.3 1406.22 1460.22 Q1409 1463.13 1409 1469.06 Z" fill="#000000" fill-rule="evenodd" fill-opacity="1" /><path clip-path="url(#clip720)" d="M1436.43 1458.92 L1436.43 1462.9 Q1434.62 1461.91 1432.8 1461.42 Q1430.99 1460.91 1429.14 1460.91 Q1425 1460.91 1422.7 1463.55 Q1420.41 1466.17 1420.41 1470.91 Q1420.41 1475.66 1422.7 1478.3 Q1425 1480.91 1429.14 1480.91 Q1430.99 1480.91 1432.8 1480.43 Q1434.62 1479.92 1436.43 1478.92 L1436.43 1482.86 Q1434.65 1483.69 1432.73 1484.11 Q1430.83 1484.52 1428.68 1484.52 Q1422.82 1484.52 1419.37 1480.84 Q1415.92 1477.16 1415.92 1470.91 Q1415.92 1464.57 1419.39 1460.94 Q1422.89 1457.3 1428.95 1457.3 Q1430.92 1457.3 1432.8 1457.72 Q1434.67 1458.11 1436.43 1458.92 Z" fill="#000000" fill-rule="evenodd" fill-opacity="1" /><path clip-path="url(#clip720)" d="M1443.84 1457.93 L1448.1 1457.93 L1448.1 1483.85 L1443.84 1483.85 L1443.84 1457.93 M1443.84 1447.83 L1448.1 1447.83 L1448.1 1453.23 L1443.84 1453.23 L1443.84 1447.83 Z" fill="#000000" fill-rule="evenodd" fill-opacity="1" /><path clip-path="url(#clip720)" d="M1457.01 1447.83 L1461.27 1447.83 L1461.27 1483.85 L1457.01 1483.85 L1457.01 1447.83 Z" fill="#000000" fill-rule="evenodd" fill-opacity="1" /><path clip-path="url(#clip720)" d="M1470.18 1447.83 L1474.44 1447.83 L1474.44 1483.85 L1470.18 1483.85 L1470.18 1447.83 Z" fill="#000000" fill-rule="evenodd" fill-opacity="1" /><path clip-path="url(#clip720)" d="M1482.91 1473.62 L1482.91 1457.93 L1487.17 1457.93 L1487.17 1473.46 Q1487.17 1477.14 1488.61 1478.99 Q1490.04 1480.82 1492.91 1480.82 Q1496.36 1480.82 1498.35 1478.62 Q1500.37 1476.42 1500.37 1472.63 L1500.37 1457.93 L1504.62 1457.93 L1504.62 1483.85 L1500.37 1483.85 L1500.37 1479.87 Q1498.81 1482.23 1496.75 1483.39 Q1494.72 1484.52 1492.01 1484.52 Q1487.54 1484.52 1485.23 1481.75 Q1482.91 1478.97 1482.91 1473.62 M1493.63 1457.3 L1493.63 1457.3 Z" fill="#000000" fill-rule="evenodd" fill-opacity="1" /><path clip-path="url(#clip720)" d="M1529.93 1458.69 L1529.93 1462.72 Q1528.12 1461.79 1526.18 1461.33 Q1524.23 1460.87 1522.15 1460.87 Q1518.98 1460.87 1517.38 1461.84 Q1515.8 1462.81 1515.8 1464.75 Q1515.8 1466.24 1516.94 1467.09 Q1518.07 1467.93 1521.5 1468.69 L1522.96 1469.01 Q1527.49 1469.99 1529.39 1471.77 Q1531.31 1473.53 1531.31 1476.7 Q1531.31 1480.31 1528.44 1482.42 Q1525.6 1484.52 1520.6 1484.52 Q1518.51 1484.52 1516.24 1484.11 Q1514 1483.71 1511.5 1482.9 L1511.5 1478.5 Q1513.86 1479.73 1516.15 1480.36 Q1518.44 1480.96 1520.69 1480.96 Q1523.7 1480.96 1525.32 1479.94 Q1526.94 1478.9 1526.94 1477.02 Q1526.94 1475.29 1525.76 1474.36 Q1524.6 1473.44 1520.64 1472.58 L1519.16 1472.23 Q1515.2 1471.4 1513.44 1469.69 Q1511.68 1467.95 1511.68 1464.94 Q1511.68 1461.28 1514.28 1459.29 Q1516.87 1457.3 1521.64 1457.3 Q1524 1457.3 1526.08 1457.65 Q1528.17 1458 1529.93 1458.69 Z" fill="#000000" fill-rule="evenodd" fill-opacity="1" /><path clip-path="url(#clip720)" d="M1571.82 1458.92 L1571.82 1462.9 Q1570.02 1461.91 1568.19 1461.42 Q1566.38 1460.91 1564.53 1460.91 Q1560.39 1460.91 1558.1 1463.55 Q1555.8 1466.17 1555.8 1470.91 Q1555.8 1475.66 1558.1 1478.3 Q1560.39 1480.91 1564.53 1480.91 Q1566.38 1480.91 1568.19 1480.43 Q1570.02 1479.92 1571.82 1478.92 L1571.82 1482.86 Q1570.04 1483.69 1568.12 1484.11 Q1566.22 1484.52 1564.07 1484.52 Q1558.21 1484.52 1554.76 1480.84 Q1551.31 1477.16 1551.31 1470.91 Q1551.31 1464.57 1554.79 1460.94 Q1558.28 1457.3 1564.35 1457.3 Q1566.31 1457.3 1568.19 1457.72 Q1570.06 1458.11 1571.82 1458.92 Z" fill="#000000" fill-rule="evenodd" fill-opacity="1" /><path clip-path="url(#clip720)" d="M1601.41 1469.82 L1601.41 1471.91 L1581.82 1471.91 Q1582.1 1476.31 1584.46 1478.62 Q1586.85 1480.91 1591.08 1480.91 Q1593.54 1480.91 1595.83 1480.31 Q1598.14 1479.71 1600.41 1478.5 L1600.41 1482.53 Q1598.12 1483.5 1595.71 1484.01 Q1593.3 1484.52 1590.83 1484.52 Q1584.62 1484.52 1580.99 1480.91 Q1577.38 1477.3 1577.38 1471.14 Q1577.38 1464.78 1580.8 1461.05 Q1584.25 1457.3 1590.09 1457.3 Q1595.32 1457.3 1598.35 1460.68 Q1601.41 1464.04 1601.41 1469.82 M1597.15 1468.57 Q1597.1 1465.08 1595.18 1463 Q1593.28 1460.91 1590.13 1460.91 Q1586.57 1460.91 1584.42 1462.93 Q1582.29 1464.94 1581.96 1468.6 L1597.15 1468.57 Z" fill="#000000" fill-rule="evenodd" fill-opacity="1" /><path clip-path="url(#clip720)" d="M1623.42 1461.91 Q1622.7 1461.49 1621.85 1461.31 Q1621.01 1461.1 1619.99 1461.1 Q1616.38 1461.1 1614.44 1463.46 Q1612.52 1465.8 1612.52 1470.19 L1612.52 1483.85 L1608.23 1483.85 L1608.23 1457.93 L1612.52 1457.93 L1612.52 1461.95 Q1613.86 1459.59 1616.01 1458.46 Q1618.17 1457.3 1621.24 1457.3 Q1621.68 1457.3 1622.22 1457.37 Q1622.75 1457.42 1623.4 1457.53 L1623.42 1461.91 Z" fill="#000000" fill-rule="evenodd" fill-opacity="1" /><path clip-path="url(#clip720)" d="M1649.02 1469.82 L1649.02 1471.91 L1629.44 1471.91 Q1629.72 1476.31 1632.08 1478.62 Q1634.46 1480.91 1638.7 1480.91 Q1641.15 1480.91 1643.44 1480.31 Q1645.76 1479.71 1648.03 1478.5 L1648.03 1482.53 Q1645.73 1483.5 1643.33 1484.01 Q1640.92 1484.52 1638.44 1484.52 Q1632.24 1484.52 1628.61 1480.91 Q1624.99 1477.3 1624.99 1471.14 Q1624.99 1464.78 1628.42 1461.05 Q1631.87 1457.3 1637.7 1457.3 Q1642.93 1457.3 1645.97 1460.68 Q1649.02 1464.04 1649.02 1469.82 M1644.76 1468.57 Q1644.72 1465.08 1642.79 1463 Q1640.9 1460.91 1637.75 1460.91 Q1634.18 1460.91 1632.03 1462.93 Q1629.9 1464.94 1629.58 1468.6 L1644.76 1468.57 Z" fill="#000000" fill-rule="evenodd" fill-opacity="1" /><path clip-path="url(#clip720)" d="M1655.57 1473.62 L1655.57 1457.93 L1659.83 1457.93 L1659.83 1473.46 Q1659.83 1477.14 1661.27 1478.99 Q1662.7 1480.82 1665.57 1480.82 Q1669.02 1480.82 1671.01 1478.62 Q1673.03 1476.42 1673.03 1472.63 L1673.03 1457.93 L1677.29 1457.93 L1677.29 1483.85 L1673.03 1483.85 L1673.03 1479.87 Q1671.48 1482.23 1669.42 1483.39 Q1667.38 1484.52 1664.67 1484.52 Q1660.2 1484.52 1657.89 1481.75 Q1655.57 1478.97 1655.57 1473.62 M1666.29 1457.3 L1666.29 1457.3 Z" fill="#000000" fill-rule="evenodd" fill-opacity="1" /><path clip-path="url(#clip720)" d="M1702.59 1458.69 L1702.59 1462.72 Q1700.78 1461.79 1698.84 1461.33 Q1696.89 1460.87 1694.81 1460.87 Q1691.64 1460.87 1690.04 1461.84 Q1688.47 1462.81 1688.47 1464.75 Q1688.47 1466.24 1689.6 1467.09 Q1690.73 1467.93 1694.16 1468.69 L1695.62 1469.01 Q1700.16 1469.99 1702.05 1471.77 Q1703.98 1473.53 1703.98 1476.7 Q1703.98 1480.31 1701.1 1482.42 Q1698.26 1484.52 1693.26 1484.52 Q1691.17 1484.52 1688.91 1484.11 Q1686.66 1483.71 1684.16 1482.9 L1684.16 1478.5 Q1686.52 1479.73 1688.81 1480.36 Q1691.1 1480.96 1693.35 1480.96 Q1696.36 1480.96 1697.98 1479.94 Q1699.6 1478.9 1699.6 1477.02 Q1699.6 1475.29 1698.42 1474.36 Q1697.26 1473.44 1693.3 1472.58 L1691.82 1472.23 Q1687.86 1471.4 1686.1 1469.69 Q1684.35 1467.95 1684.35 1464.94 Q1684.35 1461.28 1686.94 1459.29 Q1689.53 1457.3 1694.3 1457.3 Q1696.66 1457.3 1698.74 1457.65 Q1700.83 1458 1702.59 1458.69 Z" fill="#000000" fill-rule="evenodd" fill-opacity="1" /><path clip-path="url(#clip720)" d="M1718.12 1467.35 L1718.12 1480.01 L1725.62 1480.01 Q1729.39 1480.01 1731.19 1478.46 Q1733.02 1476.88 1733.02 1473.67 Q1733.02 1470.43 1731.19 1468.9 Q1729.39 1467.35 1725.62 1467.35 L1718.12 1467.35 M1718.12 1453.13 L1718.12 1463.55 L1725.04 1463.55 Q1728.46 1463.55 1730.13 1462.28 Q1731.82 1460.98 1731.82 1458.34 Q1731.82 1455.73 1730.13 1454.43 Q1728.46 1453.13 1725.04 1453.13 L1718.12 1453.13 M1713.44 1449.29 L1725.38 1449.29 Q1730.73 1449.29 1733.62 1451.51 Q1736.52 1453.74 1736.52 1457.83 Q1736.52 1461 1735.04 1462.88 Q1733.56 1464.75 1730.68 1465.22 Q1734.13 1465.96 1736.03 1468.32 Q1737.95 1470.66 1737.95 1474.18 Q1737.95 1478.81 1734.81 1481.33 Q1731.66 1483.85 1725.85 1483.85 L1713.44 1483.85 L1713.44 1449.29 Z" fill="#000000" fill-rule="evenodd" fill-opacity="1" /><path clip-path="url(#clip720)" d="M1760.8 1461.91 Q1760.08 1461.49 1759.23 1461.31 Q1758.39 1461.1 1757.37 1461.1 Q1753.76 1461.1 1751.82 1463.46 Q1749.9 1465.8 1749.9 1470.19 L1749.9 1483.85 L1745.62 1483.85 L1745.62 1457.93 L1749.9 1457.93 L1749.9 1461.95 Q1751.24 1459.59 1753.39 1458.46 Q1755.55 1457.3 1758.62 1457.3 Q1759.06 1457.3 1759.6 1457.37 Q1760.13 1457.42 1760.78 1457.53 L1760.8 1461.91 Z" fill="#000000" fill-rule="evenodd" fill-opacity="1" /><path clip-path="url(#clip720)" d="M1774.27 1460.91 Q1770.85 1460.91 1768.86 1463.6 Q1766.87 1466.26 1766.87 1470.91 Q1766.87 1475.56 1768.83 1478.25 Q1770.82 1480.91 1774.27 1480.91 Q1777.68 1480.91 1779.67 1478.23 Q1781.66 1475.54 1781.66 1470.91 Q1781.66 1466.31 1779.67 1463.62 Q1777.68 1460.91 1774.27 1460.91 M1774.27 1457.3 Q1779.83 1457.3 1783 1460.91 Q1786.17 1464.52 1786.17 1470.91 Q1786.17 1477.28 1783 1480.91 Q1779.83 1484.52 1774.27 1484.52 Q1768.69 1484.52 1765.52 1480.91 Q1762.37 1477.28 1762.37 1470.91 Q1762.37 1464.52 1765.52 1460.91 Q1768.69 1457.3 1774.27 1457.3 Z" fill="#000000" fill-rule="evenodd" fill-opacity="1" /><path clip-path="url(#clip720)" d="M1811.89 1458.92 L1811.89 1462.9 Q1810.08 1461.91 1808.25 1461.42 Q1806.45 1460.91 1804.6 1460.91 Q1800.45 1460.91 1798.16 1463.55 Q1795.87 1466.17 1795.87 1470.91 Q1795.87 1475.66 1798.16 1478.3 Q1800.45 1480.91 1804.6 1480.91 Q1806.45 1480.91 1808.25 1480.43 Q1810.08 1479.92 1811.89 1478.92 L1811.89 1482.86 Q1810.11 1483.69 1808.18 1484.11 Q1806.29 1484.52 1804.13 1484.52 Q1798.28 1484.52 1794.83 1480.84 Q1791.38 1477.16 1791.38 1470.91 Q1791.38 1464.57 1794.85 1460.94 Q1798.35 1457.3 1804.41 1457.3 Q1806.38 1457.3 1808.25 1457.72 Q1810.13 1458.11 1811.89 1458.92 Z" fill="#000000" fill-rule="evenodd" fill-opacity="1" /><path clip-path="url(#clip720)" d="M1840.85 1468.2 L1840.85 1483.85 L1836.59 1483.85 L1836.59 1468.34 Q1836.59 1464.66 1835.15 1462.83 Q1833.72 1461 1830.85 1461 Q1827.4 1461 1825.41 1463.2 Q1823.42 1465.4 1823.42 1469.2 L1823.42 1483.85 L1819.13 1483.85 L1819.13 1447.83 L1823.42 1447.83 L1823.42 1461.95 Q1824.94 1459.62 1827 1458.46 Q1829.09 1457.3 1831.8 1457.3 Q1836.26 1457.3 1838.55 1460.08 Q1840.85 1462.83 1840.85 1468.2 Z" fill="#000000" fill-rule="evenodd" fill-opacity="1" /><path clip-path="url(#clip720)" d="M1859.39 1460.91 Q1855.96 1460.91 1853.97 1463.6 Q1851.98 1466.26 1851.98 1470.91 Q1851.98 1475.56 1853.95 1478.25 Q1855.94 1480.91 1859.39 1480.91 Q1862.79 1480.91 1864.78 1478.23 Q1866.77 1475.54 1866.77 1470.91 Q1866.77 1466.31 1864.78 1463.62 Q1862.79 1460.91 1859.39 1460.91 M1859.39 1457.3 Q1864.94 1457.3 1868.11 1460.91 Q1871.29 1464.52 1871.29 1470.91 Q1871.29 1477.28 1868.11 1480.91 Q1864.94 1484.52 1859.39 1484.52 Q1853.81 1484.52 1850.64 1480.91 Q1847.49 1477.28 1847.49 1470.91 Q1847.49 1464.52 1850.64 1460.91 Q1853.81 1457.3 1859.39 1457.3 Z" fill="#000000" fill-rule="evenodd" fill-opacity="1" /><path clip-path="url(#clip720)" d="M1882.56 1450.56 L1882.56 1457.93 L1891.33 1457.93 L1891.33 1461.24 L1882.56 1461.24 L1882.56 1475.31 Q1882.56 1478.48 1883.42 1479.38 Q1884.3 1480.29 1886.96 1480.29 L1891.33 1480.29 L1891.33 1483.85 L1886.96 1483.85 Q1882.03 1483.85 1880.15 1482.02 Q1878.28 1480.17 1878.28 1475.31 L1878.28 1461.24 L1875.15 1461.24 L1875.15 1457.93 L1878.28 1457.93 L1878.28 1450.56 L1882.56 1450.56 Z" fill="#000000" fill-rule="evenodd" fill-opacity="1" /><path clip-path="url(#clip720)" d="M1918.48 1468.2 L1918.48 1483.85 L1914.23 1483.85 L1914.23 1468.34 Q1914.23 1464.66 1912.79 1462.83 Q1911.36 1461 1908.48 1461 Q1905.04 1461 1903.05 1463.2 Q1901.05 1465.4 1901.05 1469.2 L1901.05 1483.85 L1896.77 1483.85 L1896.77 1447.83 L1901.05 1447.83 L1901.05 1461.95 Q1902.58 1459.62 1904.64 1458.46 Q1906.73 1457.3 1909.43 1457.3 Q1913.9 1457.3 1916.19 1460.08 Q1918.48 1462.83 1918.48 1468.2 Z" fill="#000000" fill-rule="evenodd" fill-opacity="1" /><path clip-path="url(#clip720)" d="M1942 1461.91 Q1941.29 1461.49 1940.43 1461.31 Q1939.6 1461.1 1938.58 1461.1 Q1934.97 1461.1 1933.02 1463.46 Q1931.1 1465.8 1931.1 1470.19 L1931.1 1483.85 L1926.82 1483.85 L1926.82 1457.93 L1931.1 1457.93 L1931.1 1461.95 Q1932.44 1459.59 1934.6 1458.46 Q1936.75 1457.3 1939.83 1457.3 Q1940.27 1457.3 1940.8 1457.37 Q1941.33 1457.42 1941.98 1457.53 L1942 1461.91 Z" fill="#000000" fill-rule="evenodd" fill-opacity="1" /><path clip-path="url(#clip720)" d="M1946.47 1457.93 L1950.73 1457.93 L1950.73 1483.85 L1946.47 1483.85 L1946.47 1457.93 M1946.47 1447.83 L1950.73 1447.83 L1950.73 1453.23 L1946.47 1453.23 L1946.47 1447.83 Z" fill="#000000" fill-rule="evenodd" fill-opacity="1" /><path clip-path="url(#clip720)" d="M1981.19 1457.93 L1971.82 1470.54 L1981.68 1483.85 L1976.66 1483.85 L1969.11 1473.67 L1961.56 1483.85 L1956.54 1483.85 L1966.61 1470.29 L1957.4 1457.93 L1962.42 1457.93 L1969.29 1467.16 L1976.17 1457.93 L1981.19 1457.93 Z" fill="#000000" fill-rule="evenodd" fill-opacity="1" /><path clip-path="url(#clip720)" d="M2006.98 1450.56 L2006.98 1457.93 L2015.75 1457.93 L2015.75 1461.24 L2006.98 1461.24 L2006.98 1475.31 Q2006.98 1478.48 2007.84 1479.38 Q2008.72 1480.29 2011.38 1480.29 L2015.75 1480.29 L2015.75 1483.85 L2011.38 1483.85 Q2006.45 1483.85 2004.57 1482.02 Q2002.7 1480.17 2002.7 1475.31 L2002.7 1461.24 L1999.57 1461.24 L1999.57 1457.93 L2002.7 1457.93 L2002.7 1450.56 L2006.98 1450.56 Z" fill="#000000" fill-rule="evenodd" fill-opacity="1" /><path clip-path="url(#clip720)" d="M2042.91 1468.2 L2042.91 1483.85 L2038.65 1483.85 L2038.65 1468.34 Q2038.65 1464.66 2037.21 1462.83 Q2035.78 1461 2032.91 1461 Q2029.46 1461 2027.47 1463.2 Q2025.47 1465.4 2025.47 1469.2 L2025.47 1483.85 L2021.19 1483.85 L2021.19 1447.83 L2025.47 1447.83 L2025.47 1461.95 Q2027 1459.62 2029.06 1458.46 Q2031.15 1457.3 2033.85 1457.3 Q2038.32 1457.3 2040.61 1460.08 Q2042.91 1462.83 2042.91 1468.2 Z" fill="#000000" fill-rule="evenodd" fill-opacity="1" /><path clip-path="url(#clip720)" d="M2073.58 1469.82 L2073.58 1471.91 L2053.99 1471.91 Q2054.27 1476.31 2056.63 1478.62 Q2059.02 1480.91 2063.25 1480.91 Q2065.71 1480.91 2068 1480.31 Q2070.31 1479.71 2072.58 1478.5 L2072.58 1482.53 Q2070.29 1483.5 2067.88 1484.01 Q2065.47 1484.52 2063 1484.52 Q2056.79 1484.52 2053.16 1480.91 Q2049.55 1477.3 2049.55 1471.14 Q2049.55 1464.78 2052.97 1461.05 Q2056.42 1457.3 2062.26 1457.3 Q2067.49 1457.3 2070.52 1460.68 Q2073.58 1464.04 2073.58 1469.82 M2069.32 1468.57 Q2069.27 1465.08 2067.35 1463 Q2065.45 1460.91 2062.3 1460.91 Q2058.74 1460.91 2056.59 1462.93 Q2054.46 1464.94 2054.13 1468.6 L2069.32 1468.57 Z" fill="#000000" fill-rule="evenodd" fill-opacity="1" /><path clip-path="url(#clip720)" d="M2095.59 1461.91 Q2094.87 1461.49 2094.02 1461.31 Q2093.18 1461.1 2092.16 1461.1 Q2088.55 1461.1 2086.61 1463.46 Q2084.69 1465.8 2084.69 1470.19 L2084.69 1483.85 L2080.41 1483.85 L2080.41 1457.93 L2084.69 1457.93 L2084.69 1461.95 Q2086.03 1459.59 2088.18 1458.46 Q2090.34 1457.3 2093.41 1457.3 Q2093.85 1457.3 2094.39 1457.37 Q2094.92 1457.42 2095.57 1457.53 L2095.59 1461.91 Z" fill="#000000" fill-rule="evenodd" fill-opacity="1" /><path clip-path="url(#clip720)" d="M2119.41 1462.9 Q2121.01 1460.03 2123.23 1458.67 Q2125.45 1457.3 2128.46 1457.3 Q2132.51 1457.3 2134.71 1460.15 Q2136.91 1462.97 2136.91 1468.2 L2136.91 1483.85 L2132.63 1483.85 L2132.63 1468.34 Q2132.63 1464.62 2131.31 1462.81 Q2129.99 1461 2127.28 1461 Q2123.97 1461 2122.05 1463.2 Q2120.13 1465.4 2120.13 1469.2 L2120.13 1483.85 L2115.84 1483.85 L2115.84 1468.34 Q2115.84 1464.59 2114.53 1462.81 Q2113.21 1461 2110.45 1461 Q2107.19 1461 2105.27 1463.23 Q2103.34 1465.43 2103.34 1469.2 L2103.34 1483.85 L2099.06 1483.85 L2099.06 1457.93 L2103.34 1457.93 L2103.34 1461.95 Q2104.8 1459.57 2106.84 1458.44 Q2108.88 1457.3 2111.68 1457.3 Q2114.5 1457.3 2116.47 1458.74 Q2118.46 1460.17 2119.41 1462.9 Z" fill="#000000" fill-rule="evenodd" fill-opacity="1" /><path clip-path="url(#clip720)" d="M2155.45 1460.91 Q2152.03 1460.91 2150.03 1463.6 Q2148.04 1466.26 2148.04 1470.91 Q2148.04 1475.56 2150.01 1478.25 Q2152 1480.91 2155.45 1480.91 Q2158.85 1480.91 2160.84 1478.23 Q2162.84 1475.54 2162.84 1470.91 Q2162.84 1466.31 2160.84 1463.62 Q2158.85 1460.91 2155.45 1460.91 M2155.45 1457.3 Q2161.01 1457.3 2164.18 1460.91 Q2167.35 1464.52 2167.35 1470.91 Q2167.35 1477.28 2164.18 1480.91 Q2161.01 1484.52 2155.45 1484.52 Q2149.87 1484.52 2146.7 1480.91 Q2143.55 1477.28 2143.55 1470.91 Q2143.55 1464.52 2146.7 1460.91 Q2149.87 1457.3 2155.45 1457.3 Z" fill="#000000" fill-rule="evenodd" fill-opacity="1" /><path clip-path="url(#clip720)" d="M2190.94 1458.69 L2190.94 1462.72 Q2189.13 1461.79 2187.19 1461.33 Q2185.24 1460.87 2183.16 1460.87 Q2179.99 1460.87 2178.39 1461.84 Q2176.82 1462.81 2176.82 1464.75 Q2176.82 1466.24 2177.95 1467.09 Q2179.09 1467.93 2182.51 1468.69 L2183.97 1469.01 Q2188.51 1469.99 2190.4 1471.77 Q2192.33 1473.53 2192.33 1476.7 Q2192.33 1480.31 2189.46 1482.42 Q2186.61 1484.52 2181.61 1484.52 Q2179.53 1484.52 2177.26 1484.11 Q2175.01 1483.71 2172.51 1482.9 L2172.51 1478.5 Q2174.87 1479.73 2177.16 1480.36 Q2179.46 1480.96 2181.7 1480.96 Q2184.71 1480.96 2186.33 1479.94 Q2187.95 1478.9 2187.95 1477.02 Q2187.95 1475.29 2186.77 1474.36 Q2185.61 1473.44 2181.65 1472.58 L2180.17 1472.23 Q2176.21 1471.4 2174.46 1469.69 Q2172.7 1467.95 2172.7 1464.94 Q2172.7 1461.28 2175.29 1459.29 Q2177.88 1457.3 2182.65 1457.3 Q2185.01 1457.3 2187.09 1457.65 Q2189.18 1458 2190.94 1458.69 Z" fill="#000000" fill-rule="evenodd" fill-opacity="1" /><path clip-path="url(#clip720)" d="M2203.23 1479.96 L2203.23 1493.71 L2198.95 1493.71 L2198.95 1457.93 L2203.23 1457.93 L2203.23 1461.86 Q2204.57 1459.55 2206.61 1458.44 Q2208.67 1457.3 2211.52 1457.3 Q2216.24 1457.3 2219.18 1461.05 Q2222.14 1464.8 2222.14 1470.91 Q2222.14 1477.02 2219.18 1480.77 Q2216.24 1484.52 2211.52 1484.52 Q2208.67 1484.52 2206.61 1483.41 Q2204.57 1482.28 2203.23 1479.96 M2217.72 1470.91 Q2217.72 1466.21 2215.77 1463.55 Q2213.85 1460.87 2210.47 1460.87 Q2207.09 1460.87 2205.15 1463.55 Q2203.23 1466.21 2203.23 1470.91 Q2203.23 1475.61 2205.15 1478.3 Q2207.09 1480.96 2210.47 1480.96 Q2213.85 1480.96 2215.77 1478.3 Q2217.72 1475.61 2217.72 1470.91 Z" fill="#000000" fill-rule="evenodd" fill-opacity="1" /><path clip-path="url(#clip720)" d="M2250.75 1468.2 L2250.75 1483.85 L2246.49 1483.85 L2246.49 1468.34 Q2246.49 1464.66 2245.06 1462.83 Q2243.62 1461 2240.75 1461 Q2237.3 1461 2235.31 1463.2 Q2233.32 1465.4 2233.32 1469.2 L2233.32 1483.85 L2229.04 1483.85 L2229.04 1447.83 L2233.32 1447.83 L2233.32 1461.95 Q2234.85 1459.62 2236.91 1458.46 Q2238.99 1457.3 2241.7 1457.3 Q2246.17 1457.3 2248.46 1460.08 Q2250.75 1462.83 2250.75 1468.2 Z" fill="#000000" fill-rule="evenodd" fill-opacity="1" /><path clip-path="url(#clip720)" d="M2271.03 1470.82 Q2265.87 1470.82 2263.88 1472 Q2261.89 1473.18 2261.89 1476.03 Q2261.89 1478.3 2263.37 1479.64 Q2264.87 1480.96 2267.44 1480.96 Q2270.98 1480.96 2273.11 1478.46 Q2275.27 1475.94 2275.27 1471.77 L2275.27 1470.82 L2271.03 1470.82 M2279.52 1469.06 L2279.52 1483.85 L2275.27 1483.85 L2275.27 1479.92 Q2273.81 1482.28 2271.63 1483.41 Q2269.46 1484.52 2266.31 1484.52 Q2262.33 1484.52 2259.96 1482.3 Q2257.63 1480.06 2257.63 1476.31 Q2257.63 1471.93 2260.54 1469.71 Q2263.48 1467.49 2269.29 1467.49 L2275.27 1467.49 L2275.27 1467.07 Q2275.27 1464.13 2273.32 1462.53 Q2271.4 1460.91 2267.9 1460.91 Q2265.68 1460.91 2263.58 1461.44 Q2261.47 1461.98 2259.52 1463.04 L2259.52 1459.11 Q2261.86 1458.2 2264.06 1457.76 Q2266.26 1457.3 2268.34 1457.3 Q2273.97 1457.3 2276.75 1460.22 Q2279.52 1463.13 2279.52 1469.06 Z" fill="#000000" fill-rule="evenodd" fill-opacity="1" /><path clip-path="url(#clip720)" d="M2306.95 1458.92 L2306.95 1462.9 Q2305.15 1461.91 2303.32 1461.42 Q2301.52 1460.91 2299.66 1460.91 Q2295.52 1460.91 2293.23 1463.55 Q2290.94 1466.17 2290.94 1470.91 Q2290.94 1475.66 2293.23 1478.3 Q2295.52 1480.91 2299.66 1480.91 Q2301.52 1480.91 2303.32 1480.43 Q2305.15 1479.92 2306.95 1478.92 L2306.95 1482.86 Q2305.17 1483.69 2303.25 1484.11 Q2301.35 1484.52 2299.2 1484.52 Q2293.34 1484.52 2289.89 1480.84 Q2286.45 1477.16 2286.45 1470.91 Q2286.45 1464.57 2289.92 1460.94 Q2293.41 1457.3 2299.48 1457.3 Q2301.45 1457.3 2303.32 1457.72 Q2305.2 1458.11 2306.95 1458.92 Z" fill="#000000" fill-rule="evenodd" fill-opacity="1" /><path clip-path="url(#clip720)" d="M2318.58 1450.56 L2318.58 1457.93 L2327.35 1457.93 L2327.35 1461.24 L2318.58 1461.24 L2318.58 1475.31 Q2318.58 1478.48 2319.43 1479.38 Q2320.31 1480.29 2322.97 1480.29 L2327.35 1480.29 L2327.35 1483.85 L2322.97 1483.85 Q2318.04 1483.85 2316.17 1482.02 Q2314.29 1480.17 2314.29 1475.31 L2314.29 1461.24 L2311.17 1461.24 L2311.17 1457.93 L2314.29 1457.93 L2314.29 1450.56 L2318.58 1450.56 Z" fill="#000000" fill-rule="evenodd" fill-opacity="1" /><path clip-path="url(#clip720)" d="M2344.73 1470.82 Q2339.57 1470.82 2337.58 1472 Q2335.59 1473.18 2335.59 1476.03 Q2335.59 1478.3 2337.07 1479.64 Q2338.58 1480.96 2341.14 1480.96 Q2344.69 1480.96 2346.82 1478.46 Q2348.97 1475.94 2348.97 1471.77 L2348.97 1470.82 L2344.73 1470.82 M2353.23 1469.06 L2353.23 1483.85 L2348.97 1483.85 L2348.97 1479.92 Q2347.51 1482.28 2345.33 1483.41 Q2343.16 1484.52 2340.01 1484.52 Q2336.03 1484.52 2333.67 1482.3 Q2331.33 1480.06 2331.33 1476.31 Q2331.33 1471.93 2334.25 1469.71 Q2337.19 1467.49 2343 1467.49 L2348.97 1467.49 L2348.97 1467.07 Q2348.97 1464.13 2347.02 1462.53 Q2345.1 1460.91 2341.61 1460.91 Q2339.39 1460.91 2337.28 1461.44 Q2335.17 1461.98 2333.23 1463.04 L2333.23 1459.11 Q2335.57 1458.2 2337.76 1457.76 Q2339.96 1457.3 2342.05 1457.3 Q2347.67 1457.3 2350.45 1460.22 Q2353.23 1463.13 2353.23 1469.06 Z" fill="#000000" fill-rule="evenodd" fill-opacity="1" /><path clip-path="url(#clip720)" d="M1069.23 1545.35 L1069.23 1562.76 L1079.55 1562.76 Q1084.74 1562.76 1087.22 1560.63 Q1089.73 1558.46 1089.73 1554.04 Q1089.73 1549.58 1087.22 1547.48 Q1084.74 1545.35 1079.55 1545.35 L1069.23 1545.35 M1069.23 1525.81 L1069.23 1540.13 L1078.75 1540.13 Q1083.46 1540.13 1085.75 1538.38 Q1088.08 1536.6 1088.08 1532.97 Q1088.08 1529.37 1085.75 1527.59 Q1083.46 1525.81 1078.75 1525.81 L1069.23 1525.81 M1062.81 1520.52 L1079.23 1520.52 Q1086.58 1520.52 1090.56 1523.58 Q1094.54 1526.63 1094.54 1532.27 Q1094.54 1536.63 1092.5 1539.21 Q1090.46 1541.79 1086.52 1542.42 Q1091.26 1543.44 1093.87 1546.69 Q1096.51 1549.9 1096.51 1554.74 Q1096.51 1561.11 1092.18 1564.57 Q1087.85 1568.04 1079.87 1568.04 L1062.81 1568.04 L1062.81 1520.52 Z" fill="#000000" fill-rule="evenodd" fill-opacity="1" /><path clip-path="url(#clip720)" d="M1123.47 1550.12 Q1116.37 1550.12 1113.64 1551.75 Q1110.9 1553.37 1110.9 1557.29 Q1110.9 1560.4 1112.94 1562.25 Q1115 1564.07 1118.54 1564.07 Q1123.41 1564.07 1126.34 1560.63 Q1129.3 1557.16 1129.3 1551.43 L1129.3 1550.12 L1123.47 1550.12 M1135.15 1547.71 L1135.15 1568.04 L1129.3 1568.04 L1129.3 1562.63 Q1127.29 1565.88 1124.3 1567.44 Q1121.31 1568.97 1116.98 1568.97 Q1111.5 1568.97 1108.26 1565.91 Q1105.04 1562.82 1105.04 1557.67 Q1105.04 1551.65 1109.05 1548.6 Q1113.09 1545.54 1121.08 1545.54 L1129.3 1545.54 L1129.3 1544.97 Q1129.3 1540.93 1126.62 1538.73 Q1123.98 1536.5 1119.17 1536.5 Q1116.12 1536.5 1113.22 1537.23 Q1110.33 1537.97 1107.65 1539.43 L1107.65 1534.02 Q1110.87 1532.78 1113.89 1532.17 Q1116.91 1531.54 1119.78 1531.54 Q1127.51 1531.54 1131.33 1535.55 Q1135.15 1539.56 1135.15 1547.71 Z" fill="#000000" fill-rule="evenodd" fill-opacity="1" /><path clip-path="url(#clip720)" d="M1172.87 1533.76 L1172.87 1539.24 Q1170.39 1537.87 1167.87 1537.2 Q1165.39 1536.5 1162.84 1536.5 Q1157.15 1536.5 1153.99 1540.13 Q1150.84 1543.73 1150.84 1550.25 Q1150.84 1556.78 1153.99 1560.4 Q1157.15 1564 1162.84 1564 Q1165.39 1564 1167.87 1563.33 Q1170.39 1562.63 1172.87 1561.26 L1172.87 1566.68 Q1170.42 1567.82 1167.78 1568.39 Q1165.17 1568.97 1162.21 1568.97 Q1154.15 1568.97 1149.41 1563.91 Q1144.67 1558.85 1144.67 1550.25 Q1144.67 1541.53 1149.44 1536.53 Q1154.25 1531.54 1162.59 1531.54 Q1165.29 1531.54 1167.87 1532.11 Q1170.45 1532.65 1172.87 1533.76 Z" fill="#000000" fill-rule="evenodd" fill-opacity="1" /><path clip-path="url(#clip720)" d="M1188.85 1522.27 L1188.85 1532.4 L1200.91 1532.4 L1200.91 1536.95 L1188.85 1536.95 L1188.85 1556.3 Q1188.85 1560.66 1190.02 1561.9 Q1191.23 1563.14 1194.89 1563.14 L1200.91 1563.14 L1200.91 1568.04 L1194.89 1568.04 Q1188.11 1568.04 1185.54 1565.53 Q1182.96 1562.98 1182.96 1556.3 L1182.96 1536.95 L1178.66 1536.95 L1178.66 1532.4 L1182.96 1532.4 L1182.96 1522.27 L1188.85 1522.27 Z" fill="#000000" fill-rule="evenodd" fill-opacity="1" /><path clip-path="url(#clip720)" d="M1239.1 1548.76 L1239.1 1551.62 L1212.18 1551.62 Q1212.56 1557.67 1215.81 1560.85 Q1219.08 1564 1224.91 1564 Q1228.28 1564 1231.43 1563.17 Q1234.62 1562.35 1237.73 1560.69 L1237.73 1566.23 Q1234.58 1567.57 1231.27 1568.27 Q1227.96 1568.97 1224.56 1568.97 Q1216.03 1568.97 1211.03 1564 Q1206.07 1559.04 1206.07 1550.57 Q1206.07 1541.82 1210.78 1536.69 Q1215.52 1531.54 1223.54 1531.54 Q1230.73 1531.54 1234.9 1536.18 Q1239.1 1540.8 1239.1 1548.76 M1233.25 1547.04 Q1233.18 1542.23 1230.54 1539.37 Q1227.93 1536.5 1223.6 1536.5 Q1218.7 1536.5 1215.74 1539.27 Q1212.81 1542.04 1212.37 1547.07 L1233.25 1547.04 Z" fill="#000000" fill-rule="evenodd" fill-opacity="1" /><path clip-path="url(#clip720)" d="M1269.37 1537.87 Q1268.39 1537.3 1267.21 1537.04 Q1266.06 1536.76 1264.66 1536.76 Q1259.7 1536.76 1257.02 1540 Q1254.38 1543.22 1254.38 1549.27 L1254.38 1568.04 L1248.49 1568.04 L1248.49 1532.4 L1254.38 1532.4 L1254.38 1537.93 Q1256.23 1534.69 1259.19 1533.13 Q1262.15 1531.54 1266.38 1531.54 Q1266.99 1531.54 1267.72 1531.63 Q1268.45 1531.7 1269.34 1531.85 L1269.37 1537.87 Z" fill="#000000" fill-rule="evenodd" fill-opacity="1" /><path clip-path="url(#clip720)" d="M1275.52 1532.4 L1281.37 1532.4 L1281.37 1568.04 L1275.52 1568.04 L1275.52 1532.4 M1275.52 1518.52 L1281.37 1518.52 L1281.37 1525.93 L1275.52 1525.93 L1275.52 1518.52 Z" fill="#000000" fill-rule="evenodd" fill-opacity="1" /><path clip-path="url(#clip720)" d="M1309.83 1550.12 Q1302.73 1550.12 1299.99 1551.75 Q1297.25 1553.37 1297.25 1557.29 Q1297.25 1560.4 1299.29 1562.25 Q1301.36 1564.07 1304.89 1564.07 Q1309.76 1564.07 1312.69 1560.63 Q1315.65 1557.16 1315.65 1551.43 L1315.65 1550.12 L1309.83 1550.12 M1321.51 1547.71 L1321.51 1568.04 L1315.65 1568.04 L1315.65 1562.63 Q1313.65 1565.88 1310.65 1567.44 Q1307.66 1568.97 1303.33 1568.97 Q1297.86 1568.97 1294.61 1565.91 Q1291.4 1562.82 1291.4 1557.67 Q1291.4 1551.65 1295.41 1548.6 Q1299.45 1545.54 1307.44 1545.54 L1315.65 1545.54 L1315.65 1544.97 Q1315.65 1540.93 1312.98 1538.73 Q1310.34 1536.5 1305.53 1536.5 Q1302.47 1536.5 1299.58 1537.23 Q1296.68 1537.97 1294.01 1539.43 L1294.01 1534.02 Q1297.22 1532.78 1300.25 1532.17 Q1303.27 1531.54 1306.13 1531.54 Q1313.87 1531.54 1317.69 1535.55 Q1321.51 1539.56 1321.51 1547.71 Z" fill="#000000" fill-rule="evenodd" fill-opacity="1" /><path clip-path="url(#clip720)" d="M1347.96 1520.52 L1388.16 1520.52 L1388.16 1525.93 L1371.29 1525.93 L1371.29 1568.04 L1364.83 1568.04 L1364.83 1525.93 L1347.96 1525.93 L1347.96 1520.52 Z" fill="#000000" fill-rule="evenodd" fill-opacity="1" /><path clip-path="url(#clip720)" d="M1398.79 1571.35 Q1396.3 1577.72 1393.95 1579.66 Q1391.59 1581.6 1387.65 1581.6 L1382.97 1581.6 L1382.97 1576.7 L1386.41 1576.7 Q1388.83 1576.7 1390.16 1575.56 Q1391.5 1574.41 1393.12 1570.14 L1394.17 1567.47 L1379.75 1532.4 L1385.96 1532.4 L1397.1 1560.28 L1408.24 1532.4 L1414.45 1532.4 L1398.79 1571.35 Z" fill="#000000" fill-rule="evenodd" fill-opacity="1" /><path clip-path="url(#clip720)" d="M1428.2 1562.7 L1428.2 1581.6 L1422.31 1581.6 L1422.31 1532.4 L1428.2 1532.4 L1428.2 1537.81 Q1430.04 1534.62 1432.84 1533.1 Q1435.68 1531.54 1439.59 1531.54 Q1446.08 1531.54 1450.13 1536.69 Q1454.2 1541.85 1454.2 1550.25 Q1454.2 1558.65 1450.13 1563.81 Q1446.08 1568.97 1439.59 1568.97 Q1435.68 1568.97 1432.84 1567.44 Q1430.04 1565.88 1428.2 1562.7 M1448.12 1550.25 Q1448.12 1543.79 1445.45 1540.13 Q1442.81 1536.44 1438.16 1536.44 Q1433.51 1536.44 1430.84 1540.13 Q1428.2 1543.79 1428.2 1550.25 Q1428.2 1556.71 1430.84 1560.4 Q1433.51 1564.07 1438.16 1564.07 Q1442.81 1564.07 1445.45 1560.4 Q1448.12 1556.71 1448.12 1550.25 Z" fill="#000000" fill-rule="evenodd" fill-opacity="1" /><path clip-path="url(#clip720)" d="M1494.4 1548.76 L1494.4 1551.62 L1467.47 1551.62 Q1467.86 1557.67 1471.1 1560.85 Q1474.38 1564 1480.2 1564 Q1483.58 1564 1486.73 1563.17 Q1489.91 1562.35 1493.03 1560.69 L1493.03 1566.23 Q1489.88 1567.57 1486.57 1568.27 Q1483.26 1568.97 1479.85 1568.97 Q1471.32 1568.97 1466.33 1564 Q1461.36 1559.04 1461.36 1550.57 Q1461.36 1541.82 1466.07 1536.69 Q1470.82 1531.54 1478.84 1531.54 Q1486.03 1531.54 1490.2 1536.18 Q1494.4 1540.8 1494.4 1548.76 M1488.54 1547.04 Q1488.48 1542.23 1485.84 1539.37 Q1483.23 1536.5 1478.9 1536.5 Q1474 1536.5 1471.04 1539.27 Q1468.11 1542.04 1467.66 1547.07 L1488.54 1547.04 Z" fill="#000000" fill-rule="evenodd" fill-opacity="1" /><polyline clip-path="url(#clip722)" style="stroke:#000000; stroke-linecap:butt; stroke-linejoin:round; stroke-width:2; stroke-opacity:0.1; fill:none" points="
  204.45,1423.18 2352.76,1423.18 
  "/>
<polyline clip-path="url(#clip722)" style="stroke:#000000; stroke-linecap:butt; stroke-linejoin:round; stroke-width:2; stroke-opacity:0.1; fill:none" points="
  204.45,1336.53 2352.76,1336.53 
  "/>
<polyline clip-path="url(#clip722)" style="stroke:#000000; stroke-linecap:butt; stroke-linejoin:round; stroke-width:2; stroke-opacity:0.1; fill:none" points="
  204.45,1249.89 2352.76,1249.89 
  "/>
<polyline clip-path="url(#clip722)" style="stroke:#000000; stroke-linecap:butt; stroke-linejoin:round; stroke-width:2; stroke-opacity:0.1; fill:none" points="
  204.45,1163.24 2352.76,1163.24 
  "/>
<polyline clip-path="url(#clip722)" style="stroke:#000000; stroke-linecap:butt; stroke-linejoin:round; stroke-width:2; stroke-opacity:0.1; fill:none" points="
  204.45,1076.59 2352.76,1076.59 
  "/>
<polyline clip-path="url(#clip722)" style="stroke:#000000; stroke-linecap:butt; stroke-linejoin:round; stroke-width:2; stroke-opacity:0.1; fill:none" points="
  204.45,989.944 2352.76,989.944 
  "/>
<polyline clip-path="url(#clip722)" style="stroke:#000000; stroke-linecap:butt; stroke-linejoin:round; stroke-width:2; stroke-opacity:0.1; fill:none" points="
  204.45,903.297 2352.76,903.297 
  "/>
<polyline clip-path="url(#clip722)" style="stroke:#000000; stroke-linecap:butt; stroke-linejoin:round; stroke-width:2; stroke-opacity:0.1; fill:none" points="
  204.45,816.65 2352.76,816.65 
  "/>
<polyline clip-path="url(#clip722)" style="stroke:#000000; stroke-linecap:butt; stroke-linejoin:round; stroke-width:2; stroke-opacity:0.1; fill:none" points="
  204.45,730.002 2352.76,730.002 
  "/>
<polyline clip-path="url(#clip722)" style="stroke:#000000; stroke-linecap:butt; stroke-linejoin:round; stroke-width:2; stroke-opacity:0.1; fill:none" points="
  204.45,643.355 2352.76,643.355 
  "/>
<polyline clip-path="url(#clip722)" style="stroke:#000000; stroke-linecap:butt; stroke-linejoin:round; stroke-width:2; stroke-opacity:0.1; fill:none" points="
  204.45,556.708 2352.76,556.708 
  "/>
<polyline clip-path="url(#clip722)" style="stroke:#000000; stroke-linecap:butt; stroke-linejoin:round; stroke-width:2; stroke-opacity:0.1; fill:none" points="
  204.45,470.061 2352.76,470.061 
  "/>
<polyline clip-path="url(#clip722)" style="stroke:#000000; stroke-linecap:butt; stroke-linejoin:round; stroke-width:2; stroke-opacity:0.1; fill:none" points="
  204.45,383.414 2352.76,383.414 
  "/>
<polyline clip-path="url(#clip722)" style="stroke:#000000; stroke-linecap:butt; stroke-linejoin:round; stroke-width:2; stroke-opacity:0.1; fill:none" points="
  204.45,296.766 2352.76,296.766 
  "/>
<polyline clip-path="url(#clip722)" style="stroke:#000000; stroke-linecap:butt; stroke-linejoin:round; stroke-width:2; stroke-opacity:0.1; fill:none" points="
  204.45,210.119 2352.76,210.119 
  "/>
<polyline clip-path="url(#clip722)" style="stroke:#000000; stroke-linecap:butt; stroke-linejoin:round; stroke-width:2; stroke-opacity:0.1; fill:none" points="
  204.45,123.472 2352.76,123.472 
  "/>
<polyline clip-path="url(#clip720)" style="stroke:#000000; stroke-linecap:butt; stroke-linejoin:round; stroke-width:4; stroke-opacity:1; fill:none" points="
  204.45,1423.18 204.45,123.472 
  "/>
<polyline clip-path="url(#clip720)" style="stroke:#000000; stroke-linecap:butt; stroke-linejoin:round; stroke-width:4; stroke-opacity:1; fill:none" points="
  204.45,1423.18 223.347,1423.18 
  "/>
<polyline clip-path="url(#clip720)" style="stroke:#000000; stroke-linecap:butt; stroke-linejoin:round; stroke-width:4; stroke-opacity:1; fill:none" points="
  204.45,1336.53 223.347,1336.53 
  "/>
<polyline clip-path="url(#clip720)" style="stroke:#000000; stroke-linecap:butt; stroke-linejoin:round; stroke-width:4; stroke-opacity:1; fill:none" points="
  204.45,1249.89 223.347,1249.89 
  "/>
<polyline clip-path="url(#clip720)" style="stroke:#000000; stroke-linecap:butt; stroke-linejoin:round; stroke-width:4; stroke-opacity:1; fill:none" points="
  204.45,1163.24 223.347,1163.24 
  "/>
<polyline clip-path="url(#clip720)" style="stroke:#000000; stroke-linecap:butt; stroke-linejoin:round; stroke-width:4; stroke-opacity:1; fill:none" points="
  204.45,1076.59 223.347,1076.59 
  "/>
<polyline clip-path="url(#clip720)" style="stroke:#000000; stroke-linecap:butt; stroke-linejoin:round; stroke-width:4; stroke-opacity:1; fill:none" points="
  204.45,989.944 223.347,989.944 
  "/>
<polyline clip-path="url(#clip720)" style="stroke:#000000; stroke-linecap:butt; stroke-linejoin:round; stroke-width:4; stroke-opacity:1; fill:none" points="
  204.45,903.297 223.347,903.297 
  "/>
<polyline clip-path="url(#clip720)" style="stroke:#000000; stroke-linecap:butt; stroke-linejoin:round; stroke-width:4; stroke-opacity:1; fill:none" points="
  204.45,816.65 223.347,816.65 
  "/>
<polyline clip-path="url(#clip720)" style="stroke:#000000; stroke-linecap:butt; stroke-linejoin:round; stroke-width:4; stroke-opacity:1; fill:none" points="
  204.45,730.002 223.347,730.002 
  "/>
<polyline clip-path="url(#clip720)" style="stroke:#000000; stroke-linecap:butt; stroke-linejoin:round; stroke-width:4; stroke-opacity:1; fill:none" points="
  204.45,643.355 223.347,643.355 
  "/>
<polyline clip-path="url(#clip720)" style="stroke:#000000; stroke-linecap:butt; stroke-linejoin:round; stroke-width:4; stroke-opacity:1; fill:none" points="
  204.45,556.708 223.347,556.708 
  "/>
<polyline clip-path="url(#clip720)" style="stroke:#000000; stroke-linecap:butt; stroke-linejoin:round; stroke-width:4; stroke-opacity:1; fill:none" points="
  204.45,470.061 223.347,470.061 
  "/>
<polyline clip-path="url(#clip720)" style="stroke:#000000; stroke-linecap:butt; stroke-linejoin:round; stroke-width:4; stroke-opacity:1; fill:none" points="
  204.45,383.414 223.347,383.414 
  "/>
<polyline clip-path="url(#clip720)" style="stroke:#000000; stroke-linecap:butt; stroke-linejoin:round; stroke-width:4; stroke-opacity:1; fill:none" points="
  204.45,296.766 223.347,296.766 
  "/>
<polyline clip-path="url(#clip720)" style="stroke:#000000; stroke-linecap:butt; stroke-linejoin:round; stroke-width:4; stroke-opacity:1; fill:none" points="
  204.45,210.119 223.347,210.119 
  "/>
<polyline clip-path="url(#clip720)" style="stroke:#000000; stroke-linecap:butt; stroke-linejoin:round; stroke-width:4; stroke-opacity:1; fill:none" points="
  204.45,123.472 223.347,123.472 
  "/>
<path clip-path="url(#clip720)" d="M156.505 1408.98 Q152.894 1408.98 151.066 1412.54 Q149.26 1416.08 149.26 1423.21 Q149.26 1430.32 151.066 1433.89 Q152.894 1437.43 156.505 1437.43 Q160.14 1437.43 161.945 1433.89 Q163.774 1430.32 163.774 1423.21 Q163.774 1416.08 161.945 1412.54 Q160.14 1408.98 156.505 1408.98 M156.505 1405.27 Q162.315 1405.27 165.371 1409.88 Q168.45 1414.46 168.45 1423.21 Q168.45 1431.94 165.371 1436.55 Q162.315 1441.13 156.505 1441.13 Q150.695 1441.13 147.616 1436.55 Q144.561 1431.94 144.561 1423.21 Q144.561 1414.46 147.616 1409.88 Q150.695 1405.27 156.505 1405.27 Z" fill="#000000" fill-rule="evenodd" fill-opacity="1" /><path clip-path="url(#clip720)" d="M152.13 1349.88 L168.45 1349.88 L168.45 1353.81 L146.505 1353.81 L146.505 1349.88 Q149.167 1347.12 153.751 1342.49 Q158.357 1337.84 159.538 1336.5 Q161.783 1333.97 162.663 1332.24 Q163.565 1330.48 163.565 1328.79 Q163.565 1326.04 161.621 1324.3 Q159.7 1322.56 156.598 1322.56 Q154.399 1322.56 151.945 1323.33 Q149.515 1324.09 146.737 1325.64 L146.737 1320.92 Q149.561 1319.79 152.015 1319.21 Q154.468 1318.63 156.505 1318.63 Q161.876 1318.63 165.07 1321.31 Q168.264 1324 168.264 1328.49 Q168.264 1330.62 167.454 1332.54 Q166.667 1334.44 164.561 1337.03 Q163.982 1337.7 160.88 1340.92 Q157.778 1344.11 152.13 1349.88 Z" fill="#000000" fill-rule="evenodd" fill-opacity="1" /><path clip-path="url(#clip720)" d="M158.866 1236.68 L147.061 1255.13 L158.866 1255.13 L158.866 1236.68 M157.64 1232.61 L163.519 1232.61 L163.519 1255.13 L168.45 1255.13 L168.45 1259.02 L163.519 1259.02 L163.519 1267.17 L158.866 1267.17 L158.866 1259.02 L143.265 1259.02 L143.265 1254.5 L157.64 1232.61 Z" fill="#000000" fill-rule="evenodd" fill-opacity="1" /><path clip-path="url(#clip720)" d="M156.922 1161.37 Q153.774 1161.37 151.922 1163.53 Q150.093 1165.68 150.093 1169.43 Q150.093 1173.16 151.922 1175.33 Q153.774 1177.49 156.922 1177.49 Q160.07 1177.49 161.899 1175.33 Q163.751 1173.16 163.751 1169.43 Q163.751 1165.68 161.899 1163.53 Q160.07 1161.37 156.922 1161.37 M166.204 1146.72 L166.204 1150.98 Q164.445 1150.15 162.64 1149.71 Q160.857 1149.27 159.098 1149.27 Q154.468 1149.27 152.015 1152.39 Q149.584 1155.52 149.237 1161.84 Q150.603 1159.82 152.663 1158.76 Q154.723 1157.67 157.2 1157.67 Q162.408 1157.67 165.417 1160.84 Q168.45 1163.99 168.45 1169.43 Q168.45 1174.75 165.302 1177.97 Q162.153 1181.19 156.922 1181.19 Q150.927 1181.19 147.755 1176.61 Q144.584 1172 144.584 1163.27 Q144.584 1155.08 148.473 1150.22 Q152.362 1145.33 158.913 1145.33 Q160.672 1145.33 162.454 1145.68 Q164.26 1146.03 166.204 1146.72 Z" fill="#000000" fill-rule="evenodd" fill-opacity="1" /><path clip-path="url(#clip720)" d="M156.598 1077.46 Q153.265 1077.46 151.343 1079.24 Q149.445 1081.02 149.445 1084.15 Q149.445 1087.27 151.343 1089.06 Q153.265 1090.84 156.598 1090.84 Q159.931 1090.84 161.852 1089.06 Q163.774 1087.25 163.774 1084.15 Q163.774 1081.02 161.852 1079.24 Q159.954 1077.46 156.598 1077.46 M151.922 1075.47 Q148.913 1074.73 147.223 1072.67 Q145.556 1070.61 145.556 1067.64 Q145.556 1063.5 148.496 1061.09 Q151.459 1058.69 156.598 1058.69 Q161.76 1058.69 164.7 1061.09 Q167.64 1063.5 167.64 1067.64 Q167.64 1070.61 165.95 1072.67 Q164.283 1074.73 161.297 1075.47 Q164.677 1076.26 166.552 1078.55 Q168.45 1080.84 168.45 1084.15 Q168.45 1089.17 165.371 1091.86 Q162.315 1094.54 156.598 1094.54 Q150.88 1094.54 147.802 1091.86 Q144.746 1089.17 144.746 1084.15 Q144.746 1080.84 146.644 1078.55 Q148.542 1076.26 151.922 1075.47 M150.209 1068.08 Q150.209 1070.77 151.876 1072.27 Q153.566 1073.78 156.598 1073.78 Q159.607 1073.78 161.297 1072.27 Q163.01 1070.77 163.01 1068.08 Q163.01 1065.4 161.297 1063.89 Q159.607 1062.39 156.598 1062.39 Q153.566 1062.39 151.876 1063.89 Q150.209 1065.4 150.209 1068.08 Z" fill="#000000" fill-rule="evenodd" fill-opacity="1" /><path clip-path="url(#clip720)" d="M117.154 1003.29 L124.793 1003.29 L124.793 976.923 L116.482 978.59 L116.482 974.331 L124.746 972.664 L129.422 972.664 L129.422 1003.29 L137.061 1003.29 L137.061 1007.22 L117.154 1007.22 L117.154 1003.29 Z" fill="#000000" fill-rule="evenodd" fill-opacity="1" /><path clip-path="url(#clip720)" d="M156.505 975.743 Q152.894 975.743 151.066 979.307 Q149.26 982.849 149.26 989.979 Q149.26 997.085 151.066 1000.65 Q152.894 1004.19 156.505 1004.19 Q160.14 1004.19 161.945 1000.65 Q163.774 997.085 163.774 989.979 Q163.774 982.849 161.945 979.307 Q160.14 975.743 156.505 975.743 M156.505 972.039 Q162.315 972.039 165.371 976.645 Q168.45 981.229 168.45 989.979 Q168.45 998.705 165.371 1003.31 Q162.315 1007.9 156.505 1007.9 Q150.695 1007.9 147.616 1003.31 Q144.561 998.705 144.561 989.979 Q144.561 981.229 147.616 976.645 Q150.695 972.039 156.505 972.039 Z" fill="#000000" fill-rule="evenodd" fill-opacity="1" /><path clip-path="url(#clip720)" d="M118.751 916.642 L126.39 916.642 L126.39 890.276 L118.08 891.943 L118.08 887.683 L126.343 886.017 L131.019 886.017 L131.019 916.642 L138.658 916.642 L138.658 920.577 L118.751 920.577 L118.751 916.642 Z" fill="#000000" fill-rule="evenodd" fill-opacity="1" /><path clip-path="url(#clip720)" d="M152.13 916.642 L168.45 916.642 L168.45 920.577 L146.505 920.577 L146.505 916.642 Q149.167 913.887 153.751 909.257 Q158.357 904.605 159.538 903.262 Q161.783 900.739 162.663 899.003 Q163.565 897.244 163.565 895.554 Q163.565 892.799 161.621 891.063 Q159.7 889.327 156.598 889.327 Q154.399 889.327 151.945 890.091 Q149.515 890.855 146.737 892.406 L146.737 887.683 Q149.561 886.549 152.015 885.97 Q154.468 885.392 156.505 885.392 Q161.876 885.392 165.07 888.077 Q168.264 890.762 168.264 895.253 Q168.264 897.382 167.454 899.304 Q166.667 901.202 164.561 903.794 Q163.982 904.466 160.88 907.683 Q157.778 910.878 152.13 916.642 Z" fill="#000000" fill-rule="evenodd" fill-opacity="1" /><path clip-path="url(#clip720)" d="M116.668 829.994 L124.306 829.994 L124.306 803.629 L115.996 805.295 L115.996 801.036 L124.26 799.37 L128.936 799.37 L128.936 829.994 L136.575 829.994 L136.575 833.93 L116.668 833.93 L116.668 829.994 Z" fill="#000000" fill-rule="evenodd" fill-opacity="1" /><path clip-path="url(#clip720)" d="M158.866 803.444 L147.061 821.893 L158.866 821.893 L158.866 803.444 M157.64 799.37 L163.519 799.37 L163.519 821.893 L168.45 821.893 L168.45 825.781 L163.519 825.781 L163.519 833.93 L158.866 833.93 L158.866 825.781 L143.265 825.781 L143.265 821.268 L157.64 799.37 Z" fill="#000000" fill-rule="evenodd" fill-opacity="1" /><path clip-path="url(#clip720)" d="M116.992 743.347 L124.63 743.347 L124.63 716.982 L116.32 718.648 L116.32 714.389 L124.584 712.722 L129.26 712.722 L129.26 743.347 L136.899 743.347 L136.899 747.282 L116.992 747.282 L116.992 743.347 Z" fill="#000000" fill-rule="evenodd" fill-opacity="1" /><path clip-path="url(#clip720)" d="M156.922 728.139 Q153.774 728.139 151.922 730.292 Q150.093 732.445 150.093 736.194 Q150.093 739.921 151.922 742.097 Q153.774 744.25 156.922 744.25 Q160.07 744.25 161.899 742.097 Q163.751 739.921 163.751 736.194 Q163.751 732.445 161.899 730.292 Q160.07 728.139 156.922 728.139 M166.204 713.486 L166.204 717.746 Q164.445 716.912 162.64 716.472 Q160.857 716.033 159.098 716.033 Q154.468 716.033 152.015 719.158 Q149.584 722.283 149.237 728.602 Q150.603 726.588 152.663 725.523 Q154.723 724.435 157.2 724.435 Q162.408 724.435 165.417 727.607 Q168.45 730.755 168.45 736.194 Q168.45 741.519 165.302 744.736 Q162.153 747.954 156.922 747.954 Q150.927 747.954 147.755 743.37 Q144.584 738.764 144.584 730.037 Q144.584 721.843 148.473 716.982 Q152.362 712.097 158.913 712.097 Q160.672 712.097 162.454 712.445 Q164.26 712.792 166.204 713.486 Z" fill="#000000" fill-rule="evenodd" fill-opacity="1" /><path clip-path="url(#clip720)" d="M117.246 656.7 L124.885 656.7 L124.885 630.334 L116.575 632.001 L116.575 627.742 L124.839 626.075 L129.515 626.075 L129.515 656.7 L137.154 656.7 L137.154 660.635 L117.246 660.635 L117.246 656.7 Z" fill="#000000" fill-rule="evenodd" fill-opacity="1" /><path clip-path="url(#clip720)" d="M156.598 644.223 Q153.265 644.223 151.343 646.006 Q149.445 647.788 149.445 650.913 Q149.445 654.038 151.343 655.82 Q153.265 657.603 156.598 657.603 Q159.931 657.603 161.852 655.82 Q163.774 654.015 163.774 650.913 Q163.774 647.788 161.852 646.006 Q159.954 644.223 156.598 644.223 M151.922 642.233 Q148.913 641.492 147.223 639.432 Q145.556 637.371 145.556 634.409 Q145.556 630.265 148.496 627.858 Q151.459 625.45 156.598 625.45 Q161.76 625.45 164.7 627.858 Q167.64 630.265 167.64 634.409 Q167.64 637.371 165.95 639.432 Q164.283 641.492 161.297 642.233 Q164.677 643.02 166.552 645.311 Q168.45 647.603 168.45 650.913 Q168.45 655.936 165.371 658.621 Q162.315 661.307 156.598 661.307 Q150.88 661.307 147.802 658.621 Q144.746 655.936 144.746 650.913 Q144.746 647.603 146.644 645.311 Q148.542 643.02 151.922 642.233 M150.209 634.848 Q150.209 637.533 151.876 639.038 Q153.566 640.543 156.598 640.543 Q159.607 640.543 161.297 639.038 Q163.01 637.533 163.01 634.848 Q163.01 632.163 161.297 630.659 Q159.607 629.154 156.598 629.154 Q153.566 629.154 151.876 630.659 Q150.209 632.163 150.209 634.848 Z" fill="#000000" fill-rule="evenodd" fill-opacity="1" /><path clip-path="url(#clip720)" d="M120.371 570.053 L136.691 570.053 L136.691 573.988 L114.746 573.988 L114.746 570.053 Q117.408 567.298 121.992 562.669 Q126.598 558.016 127.779 556.673 Q130.024 554.15 130.904 552.414 Q131.806 550.655 131.806 548.965 Q131.806 546.21 129.862 544.474 Q127.941 542.738 124.839 542.738 Q122.64 542.738 120.186 543.502 Q117.756 544.266 114.978 545.817 L114.978 541.095 Q117.802 539.96 120.255 539.382 Q122.709 538.803 124.746 538.803 Q130.117 538.803 133.311 541.488 Q136.505 544.173 136.505 548.664 Q136.505 550.794 135.695 552.715 Q134.908 554.613 132.802 557.206 Q132.223 557.877 129.121 561.095 Q126.019 564.289 120.371 570.053 Z" fill="#000000" fill-rule="evenodd" fill-opacity="1" /><path clip-path="url(#clip720)" d="M156.505 542.507 Q152.894 542.507 151.066 546.072 Q149.26 549.613 149.26 556.743 Q149.26 563.849 151.066 567.414 Q152.894 570.956 156.505 570.956 Q160.14 570.956 161.945 567.414 Q163.774 563.849 163.774 556.743 Q163.774 549.613 161.945 546.072 Q160.14 542.507 156.505 542.507 M156.505 538.803 Q162.315 538.803 165.371 543.409 Q168.45 547.993 168.45 556.743 Q168.45 565.47 165.371 570.076 Q162.315 574.659 156.505 574.659 Q150.695 574.659 147.616 570.076 Q144.561 565.47 144.561 556.743 Q144.561 547.993 147.616 543.409 Q150.695 538.803 156.505 538.803 Z" fill="#000000" fill-rule="evenodd" fill-opacity="1" /><path clip-path="url(#clip720)" d="M121.968 483.406 L138.288 483.406 L138.288 487.341 L116.343 487.341 L116.343 483.406 Q119.006 480.651 123.589 476.021 Q128.195 471.369 129.376 470.026 Q131.621 467.503 132.501 465.767 Q133.404 464.008 133.404 462.318 Q133.404 459.563 131.459 457.827 Q129.538 456.091 126.436 456.091 Q124.237 456.091 121.783 456.855 Q119.353 457.619 116.575 459.17 L116.575 454.448 Q119.399 453.313 121.853 452.735 Q124.306 452.156 126.343 452.156 Q131.714 452.156 134.908 454.841 Q138.103 457.526 138.103 462.017 Q138.103 464.147 137.292 466.068 Q136.505 467.966 134.399 470.559 Q133.82 471.23 130.718 474.447 Q127.617 477.642 121.968 483.406 Z" fill="#000000" fill-rule="evenodd" fill-opacity="1" /><path clip-path="url(#clip720)" d="M152.13 483.406 L168.45 483.406 L168.45 487.341 L146.505 487.341 L146.505 483.406 Q149.167 480.651 153.751 476.021 Q158.357 471.369 159.538 470.026 Q161.783 467.503 162.663 465.767 Q163.565 464.008 163.565 462.318 Q163.565 459.563 161.621 457.827 Q159.7 456.091 156.598 456.091 Q154.399 456.091 151.945 456.855 Q149.515 457.619 146.737 459.17 L146.737 454.448 Q149.561 453.313 152.015 452.735 Q154.468 452.156 156.505 452.156 Q161.876 452.156 165.07 454.841 Q168.264 457.526 168.264 462.017 Q168.264 464.147 167.454 466.068 Q166.667 467.966 164.561 470.559 Q163.982 471.23 160.88 474.447 Q157.778 477.642 152.13 483.406 Z" fill="#000000" fill-rule="evenodd" fill-opacity="1" /><path clip-path="url(#clip720)" d="M119.885 396.759 L136.204 396.759 L136.204 400.694 L114.26 400.694 L114.26 396.759 Q116.922 394.004 121.505 389.374 Q126.112 384.722 127.292 383.379 Q129.538 380.856 130.417 379.12 Q131.32 377.36 131.32 375.671 Q131.32 372.916 129.376 371.18 Q127.455 369.444 124.353 369.444 Q122.154 369.444 119.7 370.208 Q117.269 370.972 114.492 372.523 L114.492 367.8 Q117.316 366.666 119.769 366.087 Q122.223 365.509 124.26 365.509 Q129.63 365.509 132.825 368.194 Q136.019 370.879 136.019 375.37 Q136.019 377.499 135.209 379.421 Q134.422 381.319 132.316 383.911 Q131.737 384.583 128.635 387.8 Q125.533 390.995 119.885 396.759 Z" fill="#000000" fill-rule="evenodd" fill-opacity="1" /><path clip-path="url(#clip720)" d="M158.866 370.208 L147.061 388.657 L158.866 388.657 L158.866 370.208 M157.64 366.134 L163.519 366.134 L163.519 388.657 L168.45 388.657 L168.45 392.546 L163.519 392.546 L163.519 400.694 L158.866 400.694 L158.866 392.546 L143.265 392.546 L143.265 388.032 L157.64 366.134 Z" fill="#000000" fill-rule="evenodd" fill-opacity="1" /><path clip-path="url(#clip720)" d="M120.209 310.111 L136.529 310.111 L136.529 314.046 L114.584 314.046 L114.584 310.111 Q117.246 307.357 121.83 302.727 Q126.436 298.074 127.617 296.732 Q129.862 294.209 130.742 292.473 Q131.644 290.713 131.644 289.023 Q131.644 286.269 129.7 284.533 Q127.779 282.797 124.677 282.797 Q122.478 282.797 120.024 283.561 Q117.593 284.324 114.816 285.875 L114.816 281.153 Q117.64 280.019 120.093 279.44 Q122.547 278.861 124.584 278.861 Q129.955 278.861 133.149 281.547 Q136.343 284.232 136.343 288.723 Q136.343 290.852 135.533 292.773 Q134.746 294.672 132.64 297.264 Q132.061 297.935 128.959 301.153 Q125.857 304.347 120.209 310.111 Z" fill="#000000" fill-rule="evenodd" fill-opacity="1" /><path clip-path="url(#clip720)" d="M156.922 294.903 Q153.774 294.903 151.922 297.056 Q150.093 299.209 150.093 302.959 Q150.093 306.685 151.922 308.861 Q153.774 311.014 156.922 311.014 Q160.07 311.014 161.899 308.861 Q163.751 306.685 163.751 302.959 Q163.751 299.209 161.899 297.056 Q160.07 294.903 156.922 294.903 M166.204 280.25 L166.204 284.51 Q164.445 283.676 162.64 283.236 Q160.857 282.797 159.098 282.797 Q154.468 282.797 152.015 285.922 Q149.584 289.047 149.237 295.366 Q150.603 293.352 152.663 292.287 Q154.723 291.199 157.2 291.199 Q162.408 291.199 165.417 294.371 Q168.45 297.519 168.45 302.959 Q168.45 308.283 165.302 311.5 Q162.153 314.718 156.922 314.718 Q150.927 314.718 147.755 310.134 Q144.584 305.528 144.584 296.801 Q144.584 288.607 148.473 283.746 Q152.362 278.861 158.913 278.861 Q160.672 278.861 162.454 279.209 Q164.26 279.556 166.204 280.25 Z" fill="#000000" fill-rule="evenodd" fill-opacity="1" /><path clip-path="url(#clip720)" d="M120.464 223.464 L136.783 223.464 L136.783 227.399 L114.839 227.399 L114.839 223.464 Q117.501 220.71 122.084 216.08 Q126.691 211.427 127.871 210.085 Q130.117 207.561 130.996 205.825 Q131.899 204.066 131.899 202.376 Q131.899 199.622 129.955 197.886 Q128.033 196.149 124.931 196.149 Q122.732 196.149 120.279 196.913 Q117.848 197.677 115.07 199.228 L115.07 194.506 Q117.894 193.372 120.348 192.793 Q122.802 192.214 124.839 192.214 Q130.209 192.214 133.404 194.899 Q136.598 197.585 136.598 202.075 Q136.598 204.205 135.788 206.126 Q135.001 208.024 132.894 210.617 Q132.316 211.288 129.214 214.506 Q126.112 217.7 120.464 223.464 Z" fill="#000000" fill-rule="evenodd" fill-opacity="1" /><path clip-path="url(#clip720)" d="M156.598 210.987 Q153.265 210.987 151.343 212.77 Q149.445 214.552 149.445 217.677 Q149.445 220.802 151.343 222.585 Q153.265 224.367 156.598 224.367 Q159.931 224.367 161.852 222.585 Q163.774 220.779 163.774 217.677 Q163.774 214.552 161.852 212.77 Q159.954 210.987 156.598 210.987 M151.922 208.997 Q148.913 208.256 147.223 206.196 Q145.556 204.136 145.556 201.173 Q145.556 197.029 148.496 194.622 Q151.459 192.214 156.598 192.214 Q161.76 192.214 164.7 194.622 Q167.64 197.029 167.64 201.173 Q167.64 204.136 165.95 206.196 Q164.283 208.256 161.297 208.997 Q164.677 209.784 166.552 212.075 Q168.45 214.367 168.45 217.677 Q168.45 222.7 165.371 225.385 Q162.315 228.071 156.598 228.071 Q150.88 228.071 147.802 225.385 Q144.746 222.7 144.746 217.677 Q144.746 214.367 146.644 212.075 Q148.542 209.784 151.922 208.997 M150.209 201.612 Q150.209 204.298 151.876 205.802 Q153.566 207.307 156.598 207.307 Q159.607 207.307 161.297 205.802 Q163.01 204.298 163.01 201.612 Q163.01 198.927 161.297 197.423 Q159.607 195.918 156.598 195.918 Q153.566 195.918 151.876 197.423 Q150.209 198.927 150.209 201.612 Z" fill="#000000" fill-rule="evenodd" fill-opacity="1" /><path clip-path="url(#clip720)" d="M130.51 122.118 Q133.867 122.836 135.742 125.104 Q137.64 127.373 137.64 130.706 Q137.64 135.822 134.121 138.623 Q130.603 141.423 124.121 141.423 Q121.945 141.423 119.63 140.984 Q117.339 140.567 114.885 139.71 L114.885 135.197 Q116.83 136.331 119.144 136.91 Q121.459 137.488 123.982 137.488 Q128.38 137.488 130.672 135.752 Q132.987 134.016 132.987 130.706 Q132.987 127.65 130.834 125.937 Q128.705 124.201 124.885 124.201 L120.857 124.201 L120.857 120.359 L125.07 120.359 Q128.519 120.359 130.348 118.993 Q132.177 117.604 132.177 115.012 Q132.177 112.35 130.279 110.937 Q128.404 109.502 124.885 109.502 Q122.964 109.502 120.765 109.919 Q118.566 110.336 115.927 111.215 L115.927 107.049 Q118.589 106.308 120.904 105.937 Q123.242 105.567 125.302 105.567 Q130.626 105.567 133.728 107.998 Q136.829 110.405 136.829 114.525 Q136.829 117.396 135.186 119.386 Q133.542 121.354 130.51 122.118 Z" fill="#000000" fill-rule="evenodd" fill-opacity="1" /><path clip-path="url(#clip720)" d="M156.505 109.271 Q152.894 109.271 151.066 112.836 Q149.26 116.377 149.26 123.507 Q149.26 130.613 151.066 134.178 Q152.894 137.72 156.505 137.72 Q160.14 137.72 161.945 134.178 Q163.774 130.613 163.774 123.507 Q163.774 116.377 161.945 112.836 Q160.14 109.271 156.505 109.271 M156.505 105.567 Q162.315 105.567 165.371 110.174 Q168.45 114.757 168.45 123.507 Q168.45 132.234 165.371 136.84 Q162.315 141.423 156.505 141.423 Q150.695 141.423 147.616 136.84 Q144.561 132.234 144.561 123.507 Q144.561 114.757 147.616 110.174 Q150.695 105.567 156.505 105.567 Z" fill="#000000" fill-rule="evenodd" fill-opacity="1" /><path clip-path="url(#clip720)" d="M16.4842 901.054 L16.4842 892.397 L56.238 871.326 L16.4842 871.326 L16.4842 865.088 L64.0042 865.088 L64.0042 873.745 L24.2503 894.815 L64.0042 894.815 L64.0042 901.054 L16.4842 901.054 Z" fill="#000000" fill-rule="evenodd" fill-opacity="1" /><path clip-path="url(#clip720)" d="M49.9359 853.152 L28.3562 853.152 L28.3562 847.295 L49.7131 847.295 Q54.7739 847.295 57.3202 845.322 Q59.8346 843.349 59.8346 839.402 Q59.8346 834.66 56.8109 831.922 Q53.7872 829.153 48.5673 829.153 L28.3562 829.153 L28.3562 823.297 L64.0042 823.297 L64.0042 829.153 L58.5296 829.153 Q61.7762 831.286 63.3676 834.118 Q64.9272 836.919 64.9272 840.643 Q64.9272 846.786 61.1078 849.969 Q57.2883 853.152 49.9359 853.152 M27.4968 838.415 L27.4968 838.415 Z" fill="#000000" fill-rule="evenodd" fill-opacity="1" /><path clip-path="url(#clip720)" d="M35.1993 783.479 Q31.2526 781.283 29.3747 778.228 Q27.4968 775.172 27.4968 771.034 Q27.4968 765.464 31.4117 762.441 Q35.2948 759.417 42.4881 759.417 L64.0042 759.417 L64.0042 765.305 L42.679 765.305 Q37.5546 765.305 35.072 767.119 Q32.5894 768.934 32.5894 772.658 Q32.5894 777.209 35.6131 779.851 Q38.6368 782.493 43.8567 782.493 L64.0042 782.493 L64.0042 788.381 L42.679 788.381 Q37.5228 788.381 35.072 790.195 Q32.5894 792.009 32.5894 795.797 Q32.5894 800.285 35.6449 802.927 Q38.6686 805.568 43.8567 805.568 L64.0042 805.568 L64.0042 811.457 L28.3562 811.457 L28.3562 805.568 L33.8944 805.568 Q30.616 803.563 29.0564 800.762 Q27.4968 797.961 27.4968 794.11 Q27.4968 790.227 29.4702 787.522 Q31.4436 784.784 35.1993 783.479 Z" fill="#000000" fill-rule="evenodd" fill-opacity="1" /><path clip-path="url(#clip720)" d="M46.212 722.146 Q39.7508 722.146 36.0905 724.819 Q32.3984 727.461 32.3984 732.108 Q32.3984 736.755 36.0905 739.429 Q39.7508 742.07 46.212 742.07 Q52.6732 742.07 56.3653 739.429 Q60.0256 736.755 60.0256 732.108 Q60.0256 727.461 56.3653 724.819 Q52.6732 722.146 46.212 722.146 M33.7671 742.07 Q30.5842 740.224 29.0564 737.423 Q27.4968 734.591 27.4968 730.676 Q27.4968 724.183 32.6531 720.141 Q37.8093 716.066 46.212 716.066 Q54.6147 716.066 59.771 720.141 Q64.9272 724.183 64.9272 730.676 Q64.9272 734.591 63.3994 737.423 Q61.8398 740.224 58.657 742.07 L64.0042 742.07 L64.0042 747.959 L14.479 747.959 L14.479 742.07 L33.7671 742.07 Z" fill="#000000" fill-rule="evenodd" fill-opacity="1" /><path clip-path="url(#clip720)" d="M44.7161 675.867 L47.5806 675.867 L47.5806 702.794 Q53.6281 702.412 56.8109 699.166 Q59.9619 695.887 59.9619 690.063 Q59.9619 686.689 59.1344 683.538 Q58.3069 680.355 56.6518 677.236 L62.1899 677.236 Q63.5267 680.387 64.227 683.697 Q64.9272 687.007 64.9272 690.413 Q64.9272 698.943 59.9619 703.94 Q54.9967 708.905 46.5303 708.905 Q37.7774 708.905 32.6531 704.194 Q27.4968 699.452 27.4968 691.431 Q27.4968 684.238 32.1438 680.068 Q36.7589 675.867 44.7161 675.867 M42.9973 681.723 Q38.1912 681.787 35.3266 684.429 Q32.4621 687.039 32.4621 691.368 Q32.4621 696.269 35.2312 699.229 Q38.0002 702.157 43.0292 702.603 L42.9973 681.723 Z" fill="#000000" fill-rule="evenodd" fill-opacity="1" /><path clip-path="url(#clip720)" d="M33.8307 645.598 Q33.2578 646.585 33.0032 647.762 Q32.7167 648.908 32.7167 650.309 Q32.7167 655.274 35.9632 657.948 Q39.1779 660.589 45.2253 660.589 L64.0042 660.589 L64.0042 666.478 L28.3562 666.478 L28.3562 660.589 L33.8944 660.589 Q30.6479 658.743 29.0883 655.783 Q27.4968 652.823 27.4968 648.59 Q27.4968 647.985 27.5923 647.253 Q27.656 646.521 27.8151 645.63 L33.8307 645.598 Z" fill="#000000" fill-rule="evenodd" fill-opacity="1" /><path clip-path="url(#clip720)" d="M873.715 12.096 L884.733 12.096 L911.55 62.6918 L911.55 12.096 L919.49 12.096 L919.49 72.576 L908.472 72.576 L881.655 21.9802 L881.655 72.576 L873.715 72.576 L873.715 12.096 Z" fill="#000000" fill-rule="evenodd" fill-opacity="1" /><path clip-path="url(#clip720)" d="M934.681 54.671 L934.681 27.2059 L942.135 27.2059 L942.135 54.3874 Q942.135 60.8284 944.646 64.0691 Q947.158 67.2693 952.181 67.2693 Q958.217 67.2693 961.701 63.421 Q965.225 59.5726 965.225 52.9291 L965.225 27.2059 L972.679 27.2059 L972.679 72.576 L965.225 72.576 L965.225 65.6084 Q962.511 69.7404 958.905 71.7658 Q955.341 73.7508 950.601 73.7508 Q942.783 73.7508 938.732 68.8897 Q934.681 64.0286 934.681 54.671 M953.437 26.1121 L953.437 26.1121 Z" fill="#000000" fill-rule="evenodd" fill-opacity="1" /><path clip-path="url(#clip720)" d="M1023.36 35.9153 Q1026.15 30.8922 1030.04 28.5022 Q1033.93 26.1121 1039.19 26.1121 Q1046.28 26.1121 1050.13 31.0947 Q1053.98 36.0368 1053.98 45.1919 L1053.98 72.576 L1046.49 72.576 L1046.49 45.4349 Q1046.49 38.913 1044.18 35.7533 Q1041.87 32.5936 1037.13 32.5936 Q1031.34 32.5936 1027.97 36.4419 Q1024.61 40.2903 1024.61 46.9338 L1024.61 72.576 L1017.12 72.576 L1017.12 45.4349 Q1017.12 38.8725 1014.81 35.7533 Q1012.5 32.5936 1007.68 32.5936 Q1001.97 32.5936 998.604 36.4824 Q995.242 40.3308 995.242 46.9338 L995.242 72.576 L987.748 72.576 L987.748 27.2059 L995.242 27.2059 L995.242 34.2544 Q997.794 30.082 1001.36 28.0971 Q1004.92 26.1121 1009.83 26.1121 Q1014.77 26.1121 1018.21 28.6237 Q1021.69 31.1352 1023.36 35.9153 Z" fill="#000000" fill-rule="evenodd" fill-opacity="1" /><path clip-path="url(#clip720)" d="M1101.42 49.9314 Q1101.42 41.7081 1098.01 37.0496 Q1094.65 32.3505 1088.74 32.3505 Q1082.82 32.3505 1079.42 37.0496 Q1076.06 41.7081 1076.06 49.9314 Q1076.06 58.1548 1079.42 62.8538 Q1082.82 67.5124 1088.74 67.5124 Q1094.65 67.5124 1098.01 62.8538 Q1101.42 58.1548 1101.42 49.9314 M1076.06 34.0924 Q1078.41 30.0415 1081.97 28.0971 Q1085.58 26.1121 1090.56 26.1121 Q1098.82 26.1121 1103.97 32.6746 Q1109.15 39.2371 1109.15 49.9314 Q1109.15 60.6258 1103.97 67.1883 Q1098.82 73.7508 1090.56 73.7508 Q1085.58 73.7508 1081.97 71.8063 Q1078.41 69.8214 1076.06 65.7705 L1076.06 72.576 L1068.56 72.576 L1068.56 9.54393 L1076.06 9.54393 L1076.06 34.0924 Z" fill="#000000" fill-rule="evenodd" fill-opacity="1" /><path clip-path="url(#clip720)" d="M1160.32 48.0275 L1160.32 51.6733 L1126.05 51.6733 Q1126.53 59.3701 1130.66 63.421 Q1134.84 67.4314 1142.25 67.4314 Q1146.54 67.4314 1150.55 66.3781 Q1154.6 65.3249 1158.57 63.2184 L1158.57 70.267 Q1154.56 71.9684 1150.35 72.8596 Q1146.14 73.7508 1141.8 73.7508 Q1130.95 73.7508 1124.59 67.4314 Q1118.27 61.1119 1118.27 50.3365 Q1118.27 39.1965 1124.26 32.6746 Q1130.3 26.1121 1140.51 26.1121 Q1149.66 26.1121 1154.97 32.0264 Q1160.32 37.9003 1160.32 48.0275 M1152.86 45.84 Q1152.78 39.7232 1149.42 36.0774 Q1146.1 32.4315 1140.59 32.4315 Q1134.35 32.4315 1130.58 35.9558 Q1126.86 39.4801 1126.29 45.8805 L1152.86 45.84 Z" fill="#000000" fill-rule="evenodd" fill-opacity="1" /><path clip-path="url(#clip720)" d="M1198.84 34.1734 Q1197.58 33.4443 1196.09 33.1202 Q1194.63 32.7556 1192.85 32.7556 Q1186.53 32.7556 1183.12 36.8875 Q1179.76 40.9789 1179.76 48.6757 L1179.76 72.576 L1172.27 72.576 L1172.27 27.2059 L1179.76 27.2059 L1179.76 34.2544 Q1182.11 30.1225 1185.88 28.1376 Q1189.64 26.1121 1195.03 26.1121 Q1195.8 26.1121 1196.73 26.2337 Q1197.67 26.3147 1198.8 26.5172 L1198.84 34.1734 Z" fill="#000000" fill-rule="evenodd" fill-opacity="1" /><path clip-path="url(#clip720)" d="M1257.9 17.6457 Q1248.99 17.6457 1243.72 24.2892 Q1238.5 30.9327 1238.5 42.3968 Q1238.5 53.8203 1243.72 60.4638 Q1248.99 67.1073 1257.9 67.1073 Q1266.81 67.1073 1272 60.4638 Q1277.23 53.8203 1277.23 42.3968 Q1277.23 30.9327 1272 24.2892 Q1266.81 17.6457 1257.9 17.6457 M1257.9 11.0023 Q1270.62 11.0023 1278.24 19.5497 Q1285.85 28.0566 1285.85 42.3968 Q1285.85 56.6965 1278.24 65.2439 Q1270.62 73.7508 1257.9 73.7508 Q1245.14 73.7508 1237.49 65.2439 Q1229.87 56.737 1229.87 42.3968 Q1229.87 28.0566 1237.49 19.5497 Q1245.14 11.0023 1257.9 11.0023 Z" fill="#000000" fill-rule="evenodd" fill-opacity="1" /><path clip-path="url(#clip720)" d="M1321.3 9.54393 L1321.3 15.7418 L1314.17 15.7418 Q1310.16 15.7418 1308.58 17.3622 Q1307.04 18.9825 1307.04 23.1955 L1307.04 27.2059 L1319.31 27.2059 L1319.31 32.9987 L1307.04 32.9987 L1307.04 72.576 L1299.55 72.576 L1299.55 32.9987 L1292.42 32.9987 L1292.42 27.2059 L1299.55 27.2059 L1299.55 24.0462 Q1299.55 16.471 1303.07 13.0277 Q1306.59 9.54393 1314.25 9.54393 L1321.3 9.54393 Z" fill="#000000" fill-rule="evenodd" fill-opacity="1" /><path clip-path="url(#clip720)" d="M1362.42 43.6931 L1362.42 65.8515 L1375.54 65.8515 Q1382.14 65.8515 1385.3 63.1374 Q1388.5 60.3828 1388.5 54.752 Q1388.5 49.0808 1385.3 46.4072 Q1382.14 43.6931 1375.54 43.6931 L1362.42 43.6931 M1362.42 18.8205 L1362.42 37.0496 L1374.53 37.0496 Q1380.52 37.0496 1383.44 34.8216 Q1386.4 32.5531 1386.4 27.935 Q1386.4 23.3575 1383.44 21.089 Q1380.52 18.8205 1374.53 18.8205 L1362.42 18.8205 M1354.23 12.096 L1375.14 12.096 Q1384.49 12.096 1389.56 15.9849 Q1394.62 19.8737 1394.62 27.0438 Q1394.62 32.5936 1392.03 35.8748 Q1389.44 39.156 1384.41 39.9662 Q1390.45 41.2625 1393.77 45.3944 Q1397.13 49.4858 1397.13 55.6432 Q1397.13 63.745 1391.62 68.1605 Q1386.11 72.576 1375.95 72.576 L1354.23 72.576 L1354.23 12.096 Z" fill="#000000" fill-rule="evenodd" fill-opacity="1" /><path clip-path="url(#clip720)" d="M1431.44 49.7694 Q1422.41 49.7694 1418.93 51.8354 Q1415.44 53.9013 1415.44 58.8839 Q1415.44 62.8538 1418.03 65.2034 Q1420.67 67.5124 1425.16 67.5124 Q1431.36 67.5124 1435.09 63.1374 Q1438.86 58.7219 1438.86 51.4303 L1438.86 49.7694 L1431.44 49.7694 M1446.31 46.6907 L1446.31 72.576 L1438.86 72.576 L1438.86 65.6895 Q1436.3 69.8214 1432.5 71.8063 Q1428.69 73.7508 1423.18 73.7508 Q1416.21 73.7508 1412.08 69.8619 Q1407.99 65.9325 1407.99 59.3701 Q1407.99 51.7138 1413.09 47.825 Q1418.24 43.9361 1428.41 43.9361 L1438.86 43.9361 L1438.86 43.2069 Q1438.86 38.0623 1435.45 35.2672 Q1432.09 32.4315 1425.97 32.4315 Q1422.09 32.4315 1418.4 33.3632 Q1414.71 34.295 1411.31 36.1584 L1411.31 29.2718 Q1415.4 27.692 1419.25 26.9223 Q1423.1 26.1121 1426.74 26.1121 Q1436.59 26.1121 1441.45 31.2163 Q1446.31 36.3204 1446.31 46.6907 Z" fill="#000000" fill-rule="evenodd" fill-opacity="1" /><path clip-path="url(#clip720)" d="M1494.31 28.9478 L1494.31 35.9153 Q1491.15 34.1734 1487.95 33.3227 Q1484.79 32.4315 1481.55 32.4315 Q1474.3 32.4315 1470.29 37.0496 Q1466.28 41.6271 1466.28 49.9314 Q1466.28 58.2358 1470.29 62.8538 Q1474.3 67.4314 1481.55 67.4314 Q1484.79 67.4314 1487.95 66.5807 Q1491.15 65.6895 1494.31 63.9476 L1494.31 70.8341 Q1491.19 72.2924 1487.83 73.0216 Q1484.51 73.7508 1480.74 73.7508 Q1470.49 73.7508 1464.46 67.3098 Q1458.42 60.8689 1458.42 49.9314 Q1458.42 38.832 1464.5 32.472 Q1470.62 26.1121 1481.23 26.1121 Q1484.67 26.1121 1487.95 26.8413 Q1491.23 27.5299 1494.31 28.9478 Z" fill="#000000" fill-rule="evenodd" fill-opacity="1" /><path clip-path="url(#clip720)" d="M1514.65 14.324 L1514.65 27.2059 L1530 27.2059 L1530 32.9987 L1514.65 32.9987 L1514.65 57.6282 Q1514.65 63.1779 1516.15 64.7578 Q1517.69 66.3376 1522.35 66.3376 L1530 66.3376 L1530 72.576 L1522.35 72.576 Q1513.72 72.576 1510.44 69.3758 Q1507.15 66.1351 1507.15 57.6282 L1507.15 32.9987 L1501.69 32.9987 L1501.69 27.2059 L1507.15 27.2059 L1507.15 14.324 L1514.65 14.324 Z" fill="#000000" fill-rule="evenodd" fill-opacity="1" /><path clip-path="url(#clip720)" d="M1578.61 48.0275 L1578.61 51.6733 L1544.34 51.6733 Q1544.83 59.3701 1548.96 63.421 Q1553.13 67.4314 1560.55 67.4314 Q1564.84 67.4314 1568.85 66.3781 Q1572.9 65.3249 1576.87 63.2184 L1576.87 70.267 Q1572.86 71.9684 1568.65 72.8596 Q1564.43 73.7508 1560.1 73.7508 Q1549.24 73.7508 1542.88 67.4314 Q1536.56 61.1119 1536.56 50.3365 Q1536.56 39.1965 1542.56 32.6746 Q1548.6 26.1121 1558.8 26.1121 Q1567.96 26.1121 1573.27 32.0264 Q1578.61 37.9003 1578.61 48.0275 M1571.16 45.84 Q1571.08 39.7232 1567.72 36.0774 Q1564.39 32.4315 1558.88 32.4315 Q1552.65 32.4315 1548.88 35.9558 Q1545.15 39.4801 1544.59 45.8805 L1571.16 45.84 Z" fill="#000000" fill-rule="evenodd" fill-opacity="1" /><path clip-path="url(#clip720)" d="M1617.14 34.1734 Q1615.88 33.4443 1614.38 33.1202 Q1612.92 32.7556 1611.14 32.7556 Q1604.82 32.7556 1601.42 36.8875 Q1598.06 40.9789 1598.06 48.6757 L1598.06 72.576 L1590.56 72.576 L1590.56 27.2059 L1598.06 27.2059 L1598.06 34.2544 Q1600.41 30.1225 1604.17 28.1376 Q1607.94 26.1121 1613.33 26.1121 Q1614.1 26.1121 1615.03 26.2337 Q1615.96 26.3147 1617.1 26.5172 L1617.14 34.1734 Z" fill="#000000" fill-rule="evenodd" fill-opacity="1" /><path clip-path="url(#clip720)" d="M1624.96 27.2059 L1632.41 27.2059 L1632.41 72.576 L1624.96 72.576 L1624.96 27.2059 M1624.96 9.54393 L1632.41 9.54393 L1632.41 18.9825 L1624.96 18.9825 L1624.96 9.54393 Z" fill="#000000" fill-rule="evenodd" fill-opacity="1" /><path clip-path="url(#clip720)" d="M1668.62 49.7694 Q1659.59 49.7694 1656.11 51.8354 Q1652.62 53.9013 1652.62 58.8839 Q1652.62 62.8538 1655.22 65.2034 Q1657.85 67.5124 1662.34 67.5124 Q1668.54 67.5124 1672.27 63.1374 Q1676.04 58.7219 1676.04 51.4303 L1676.04 49.7694 L1668.62 49.7694 M1683.49 46.6907 L1683.49 72.576 L1676.04 72.576 L1676.04 65.6895 Q1673.48 69.8214 1669.68 71.8063 Q1665.87 73.7508 1660.36 73.7508 Q1653.39 73.7508 1649.26 69.8619 Q1645.17 65.9325 1645.17 59.3701 Q1645.17 51.7138 1650.27 47.825 Q1655.42 43.9361 1665.59 43.9361 L1676.04 43.9361 L1676.04 43.2069 Q1676.04 38.0623 1672.63 35.2672 Q1669.27 32.4315 1663.16 32.4315 Q1659.27 32.4315 1655.58 33.3632 Q1651.89 34.295 1648.49 36.1584 L1648.49 29.2718 Q1652.58 27.692 1656.43 26.9223 Q1660.28 26.1121 1663.92 26.1121 Q1673.77 26.1121 1678.63 31.2163 Q1683.49 36.3204 1683.49 46.6907 Z" fill="#000000" fill-rule="evenodd" fill-opacity="1" /><path clip-path="url(#clip722)" d="
M322.61 946.62 L322.61 1423.18 L725.133 1423.18 L725.133 946.62 L322.61 946.62 L322.61 946.62  Z
  " fill="#009af9" fill-rule="evenodd" fill-opacity="1"/>
<polyline clip-path="url(#clip722)" style="stroke:#000000; stroke-linecap:butt; stroke-linejoin:round; stroke-width:4; stroke-opacity:1; fill:none" points="
  322.61,946.62 322.61,1423.18 725.133,1423.18 725.133,946.62 322.61,946.62 
  "/>
<path clip-path="url(#clip722)" d="
M825.764 556.708 L825.764 1423.18 L1228.29 1423.18 L1228.29 556.708 L825.764 556.708 L825.764 556.708  Z
  " fill="#009af9" fill-rule="evenodd" fill-opacity="1"/>
<polyline clip-path="url(#clip722)" style="stroke:#000000; stroke-linecap:butt; stroke-linejoin:round; stroke-width:4; stroke-opacity:1; fill:none" points="
  825.764,556.708 825.764,1423.18 1228.29,1423.18 1228.29,556.708 825.764,556.708 
  "/>
<path clip-path="url(#clip722)" d="
M1328.92 253.443 L1328.92 1423.18 L1731.44 1423.18 L1731.44 253.443 L1328.92 253.443 L1328.92 253.443  Z
  " fill="#009af9" fill-rule="evenodd" fill-opacity="1"/>
<polyline clip-path="url(#clip722)" style="stroke:#000000; stroke-linecap:butt; stroke-linejoin:round; stroke-width:4; stroke-opacity:1; fill:none" points="
  1328.92,253.443 1328.92,1423.18 1731.44,1423.18 1731.44,253.443 1328.92,253.443 
  "/>
<path clip-path="url(#clip722)" d="
M1832.07 1206.56 L1832.07 1423.18 L2234.6 1423.18 L2234.6 1206.56 L1832.07 1206.56 L1832.07 1206.56  Z
  " fill="#009af9" fill-rule="evenodd" fill-opacity="1"/>
<polyline clip-path="url(#clip722)" style="stroke:#000000; stroke-linecap:butt; stroke-linejoin:round; stroke-width:4; stroke-opacity:1; fill:none" points="
  1832.07,1206.56 1832.07,1423.18 2234.6,1423.18 2234.6,1206.56 1832.07,1206.56 
  "/>
<circle clip-path="url(#clip722)" style="fill:#009af9; stroke:none; fill-opacity:0" cx="523.872" cy="946.62" r="2"/>
<circle clip-path="url(#clip722)" style="fill:#009af9; stroke:none; fill-opacity:0" cx="1027.03" cy="556.708" r="2"/>
<circle clip-path="url(#clip722)" style="fill:#009af9; stroke:none; fill-opacity:0" cx="1530.18" cy="253.443" r="2"/>
<circle clip-path="url(#clip722)" style="fill:#009af9; stroke:none; fill-opacity:0" cx="2033.33" cy="1206.56" r="2"/>
</svg>
