<?xml version="1.0" encoding="utf-8"?>
<svg xmlns="http://www.w3.org/2000/svg" xmlns:xlink="http://www.w3.org/1999/xlink" width="600" height="400" viewBox="0 0 2400 1600">
<defs>
  <clipPath id="clip370">
    <rect x="0" y="0" width="2400" height="1600"/>
  </clipPath>
</defs>
<path clip-path="url(#clip370)" d="
M0 1600 L2400 1600 L2400 0 L0 0  Z
  " fill="#ffffff" fill-rule="evenodd" fill-opacity="1"/>
<defs>
  <clipPath id="clip371">
    <rect x="480" y="0" width="1681" height="1600"/>
  </clipPath>
</defs>
<path clip-path="url(#clip370)" d="
M219.866 1423.18 L1404.88 1423.18 L1404.88 123.472 L219.866 123.472  Z
  " fill="#ffffff" fill-rule="evenodd" fill-opacity="1"/>
<defs>
  <clipPath id="clip372">
    <rect x="219" y="123" width="1186" height="1301"/>
  </clipPath>
</defs>
<polyline clip-path="url(#clip372)" style="stroke:#000000; stroke-linecap:butt; stroke-linejoin:round; stroke-width:2; stroke-opacity:0.1; fill:none" points="
  219.866,1423.18 219.866,123.472 
  "/>
<polyline clip-path="url(#clip372)" style="stroke:#000000; stroke-linecap:butt; stroke-linejoin:round; stroke-width:2; stroke-opacity:0.1; fill:none" points="
  456.87,1423.18 456.87,123.472 
  "/>
<polyline clip-path="url(#clip372)" style="stroke:#000000; stroke-linecap:butt; stroke-linejoin:round; stroke-width:2; stroke-opacity:0.1; fill:none" points="
  693.873,1423.18 693.873,123.472 
  "/>
<polyline clip-path="url(#clip372)" style="stroke:#000000; stroke-linecap:butt; stroke-linejoin:round; stroke-width:2; stroke-opacity:0.1; fill:none" points="
  930.877,1423.18 930.877,123.472 
  "/>
<polyline clip-path="url(#clip372)" style="stroke:#000000; stroke-linecap:butt; stroke-linejoin:round; stroke-width:2; stroke-opacity:0.1; fill:none" points="
  1167.88,1423.18 1167.88,123.472 
  "/>
<polyline clip-path="url(#clip372)" style="stroke:#000000; stroke-linecap:butt; stroke-linejoin:round; stroke-width:2; stroke-opacity:0.1; fill:none" points="
  1404.88,1423.18 1404.88,123.472 
  "/>
<polyline clip-path="url(#clip370)" style="stroke:#000000; stroke-linecap:butt; stroke-linejoin:round; stroke-width:4; stroke-opacity:1; fill:none" points="
  219.866,1423.18 1404.88,1423.18 
  "/>
<polyline clip-path="url(#clip370)" style="stroke:#000000; stroke-linecap:butt; stroke-linejoin:round; stroke-width:4; stroke-opacity:1; fill:none" points="
  219.866,1423.18 219.866,1404.28 
  "/>
<polyline clip-path="url(#clip370)" style="stroke:#000000; stroke-linecap:butt; stroke-linejoin:round; stroke-width:4; stroke-opacity:1; fill:none" points="
  456.87,1423.18 456.87,1404.28 
  "/>
<polyline clip-path="url(#clip370)" style="stroke:#000000; stroke-linecap:butt; stroke-linejoin:round; stroke-width:4; stroke-opacity:1; fill:none" points="
  693.873,1423.18 693.873,1404.28 
  "/>
<polyline clip-path="url(#clip370)" style="stroke:#000000; stroke-linecap:butt; stroke-linejoin:round; stroke-width:4; stroke-opacity:1; fill:none" points="
  930.877,1423.18 930.877,1404.28 
  "/>
<polyline clip-path="url(#clip370)" style="stroke:#000000; stroke-linecap:butt; stroke-linejoin:round; stroke-width:4; stroke-opacity:1; fill:none" points="
  1167.88,1423.18 1167.88,1404.28 
  "/>
<polyline clip-path="url(#clip370)" style="stroke:#000000; stroke-linecap:butt; stroke-linejoin:round; stroke-width:4; stroke-opacity:1; fill:none" points="
  1404.88,1423.18 1404.88,1404.28 
  "/>
<path clip-path="url(#clip370)" d="M194.554 1479.92 L202.193 1479.92 L202.193 1453.55 L193.883 1455.22 L193.883 1450.96 L202.146 1449.29 L206.822 1449.29 L206.822 1479.92 L214.461 1479.92 L214.461 1483.85 L194.554 1483.85 L194.554 1479.92 Z" fill="#000000" fill-rule="evenodd" fill-opacity="1" /><path clip-path="url(#clip370)" d="M233.906 1452.37 Q230.294 1452.37 228.466 1455.94 Q226.66 1459.48 226.66 1466.61 Q226.66 1473.71 228.466 1477.28 Q230.294 1480.82 233.906 1480.82 Q237.54 1480.82 239.345 1477.28 Q241.174 1473.71 241.174 1466.61 Q241.174 1459.48 239.345 1455.94 Q237.54 1452.37 233.906 1452.37 M233.906 1448.67 Q239.716 1448.67 242.771 1453.27 Q245.85 1457.86 245.85 1466.61 Q245.85 1475.33 242.771 1479.94 Q239.716 1484.52 233.906 1484.52 Q228.095 1484.52 225.017 1479.94 Q221.961 1475.33 221.961 1466.61 Q221.961 1457.86 225.017 1453.27 Q228.095 1448.67 233.906 1448.67 Z" fill="#000000" fill-rule="evenodd" fill-opacity="1" /><path clip-path="url(#clip370)" d="M435.643 1479.92 L451.962 1479.92 L451.962 1483.85 L430.018 1483.85 L430.018 1479.92 Q432.68 1477.16 437.263 1472.53 Q441.87 1467.88 443.05 1466.54 Q445.296 1464.01 446.175 1462.28 Q447.078 1460.52 447.078 1458.83 Q447.078 1456.07 445.134 1454.34 Q443.212 1452.6 440.111 1452.6 Q437.912 1452.6 435.458 1453.37 Q433.027 1454.13 430.25 1455.68 L430.25 1450.96 Q433.074 1449.82 435.527 1449.25 Q437.981 1448.67 440.018 1448.67 Q445.388 1448.67 448.583 1451.35 Q451.777 1454.04 451.777 1458.53 Q451.777 1460.66 450.967 1462.58 Q450.18 1464.48 448.073 1467.07 Q447.495 1467.74 444.393 1470.96 Q441.291 1474.15 435.643 1479.92 Z" fill="#000000" fill-rule="evenodd" fill-opacity="1" /><path clip-path="url(#clip370)" d="M471.777 1452.37 Q468.166 1452.37 466.337 1455.94 Q464.532 1459.48 464.532 1466.61 Q464.532 1473.71 466.337 1477.28 Q468.166 1480.82 471.777 1480.82 Q475.411 1480.82 477.217 1477.28 Q479.046 1473.71 479.046 1466.61 Q479.046 1459.48 477.217 1455.94 Q475.411 1452.37 471.777 1452.37 M471.777 1448.67 Q477.587 1448.67 480.643 1453.27 Q483.721 1457.86 483.721 1466.61 Q483.721 1475.33 480.643 1479.94 Q477.587 1484.52 471.777 1484.52 Q465.967 1484.52 462.888 1479.94 Q459.833 1475.33 459.833 1466.61 Q459.833 1457.86 462.888 1453.27 Q465.967 1448.67 471.777 1448.67 Z" fill="#000000" fill-rule="evenodd" fill-opacity="1" /><path clip-path="url(#clip370)" d="M682.716 1465.22 Q686.072 1465.94 687.947 1468.2 Q689.845 1470.47 689.845 1473.81 Q689.845 1478.92 686.327 1481.72 Q682.808 1484.52 676.327 1484.52 Q674.151 1484.52 671.836 1484.08 Q669.545 1483.67 667.091 1482.81 L667.091 1478.3 Q669.035 1479.43 671.35 1480.01 Q673.665 1480.59 676.188 1480.59 Q680.586 1480.59 682.878 1478.85 Q685.193 1477.12 685.193 1473.81 Q685.193 1470.75 683.04 1469.04 Q680.91 1467.3 677.091 1467.3 L673.063 1467.3 L673.063 1463.46 L677.276 1463.46 Q680.725 1463.46 682.554 1462.09 Q684.383 1460.7 684.383 1458.11 Q684.383 1455.45 682.484 1454.04 Q680.609 1452.6 677.091 1452.6 Q675.17 1452.6 672.971 1453.02 Q670.771 1453.44 668.133 1454.31 L668.133 1450.15 Q670.795 1449.41 673.109 1449.04 Q675.447 1448.67 677.508 1448.67 Q682.832 1448.67 685.933 1451.1 Q689.035 1453.5 689.035 1457.63 Q689.035 1460.5 687.392 1462.49 Q685.748 1464.45 682.716 1465.22 Z" fill="#000000" fill-rule="evenodd" fill-opacity="1" /><path clip-path="url(#clip370)" d="M708.711 1452.37 Q705.1 1452.37 703.271 1455.94 Q701.466 1459.48 701.466 1466.61 Q701.466 1473.71 703.271 1477.28 Q705.1 1480.82 708.711 1480.82 Q712.345 1480.82 714.151 1477.28 Q715.98 1473.71 715.98 1466.61 Q715.98 1459.48 714.151 1455.94 Q712.345 1452.37 708.711 1452.37 M708.711 1448.67 Q714.521 1448.67 717.577 1453.27 Q720.655 1457.86 720.655 1466.61 Q720.655 1475.33 717.577 1479.94 Q714.521 1484.52 708.711 1484.52 Q702.901 1484.52 699.822 1479.94 Q696.767 1475.33 696.767 1466.61 Q696.767 1457.86 699.822 1453.27 Q702.901 1448.67 708.711 1448.67 Z" fill="#000000" fill-rule="evenodd" fill-opacity="1" /><path clip-path="url(#clip370)" d="M919.048 1453.37 L907.243 1471.81 L919.048 1471.81 L919.048 1453.37 M917.821 1449.29 L923.701 1449.29 L923.701 1471.81 L928.631 1471.81 L928.631 1475.7 L923.701 1475.7 L923.701 1483.85 L919.048 1483.85 L919.048 1475.7 L903.446 1475.7 L903.446 1471.19 L917.821 1449.29 Z" fill="#000000" fill-rule="evenodd" fill-opacity="1" /><path clip-path="url(#clip370)" d="M946.363 1452.37 Q942.752 1452.37 940.923 1455.94 Q939.117 1459.48 939.117 1466.61 Q939.117 1473.71 940.923 1477.28 Q942.752 1480.82 946.363 1480.82 Q949.997 1480.82 951.802 1477.28 Q953.631 1473.71 953.631 1466.61 Q953.631 1459.48 951.802 1455.94 Q949.997 1452.37 946.363 1452.37 M946.363 1448.67 Q952.173 1448.67 955.228 1453.27 Q958.307 1457.86 958.307 1466.61 Q958.307 1475.33 955.228 1479.94 Q952.173 1484.52 946.363 1484.52 Q940.553 1484.52 937.474 1479.94 Q934.418 1475.33 934.418 1466.61 Q934.418 1457.86 937.474 1453.27 Q940.553 1448.67 946.363 1448.67 Z" fill="#000000" fill-rule="evenodd" fill-opacity="1" /><path clip-path="url(#clip370)" d="M1142.58 1449.29 L1160.94 1449.29 L1160.94 1453.23 L1146.86 1453.23 L1146.86 1461.7 Q1147.88 1461.35 1148.9 1461.19 Q1149.92 1461 1150.94 1461 Q1156.72 1461 1160.1 1464.18 Q1163.48 1467.35 1163.48 1472.76 Q1163.48 1478.34 1160.01 1481.44 Q1156.54 1484.52 1150.22 1484.52 Q1148.04 1484.52 1145.77 1484.15 Q1143.53 1483.78 1141.12 1483.04 L1141.12 1478.34 Q1143.2 1479.48 1145.43 1480.03 Q1147.65 1480.59 1150.13 1480.59 Q1154.13 1480.59 1156.47 1478.48 Q1158.81 1476.38 1158.81 1472.76 Q1158.81 1469.15 1156.47 1467.05 Q1154.13 1464.94 1150.13 1464.94 Q1148.25 1464.94 1146.38 1465.36 Q1144.52 1465.77 1142.58 1466.65 L1142.58 1449.29 Z" fill="#000000" fill-rule="evenodd" fill-opacity="1" /><path clip-path="url(#clip370)" d="M1182.69 1452.37 Q1179.08 1452.37 1177.26 1455.94 Q1175.45 1459.48 1175.45 1466.61 Q1175.45 1473.71 1177.26 1477.28 Q1179.08 1480.82 1182.69 1480.82 Q1186.33 1480.82 1188.13 1477.28 Q1189.96 1473.71 1189.96 1466.61 Q1189.96 1459.48 1188.13 1455.94 Q1186.33 1452.37 1182.69 1452.37 M1182.69 1448.67 Q1188.51 1448.67 1191.56 1453.27 Q1194.64 1457.86 1194.64 1466.61 Q1194.64 1475.33 1191.56 1479.94 Q1188.51 1484.52 1182.69 1484.52 Q1176.88 1484.52 1173.81 1479.94 Q1170.75 1475.33 1170.75 1466.61 Q1170.75 1457.86 1173.81 1453.27 Q1176.88 1448.67 1182.69 1448.67 Z" fill="#000000" fill-rule="evenodd" fill-opacity="1" /><path clip-path="url(#clip370)" d="M1390.29 1464.71 Q1387.14 1464.71 1385.29 1466.86 Q1383.46 1469.01 1383.46 1472.76 Q1383.46 1476.49 1385.29 1478.67 Q1387.14 1480.82 1390.29 1480.82 Q1393.44 1480.82 1395.27 1478.67 Q1397.12 1476.49 1397.12 1472.76 Q1397.12 1469.01 1395.27 1466.86 Q1393.44 1464.71 1390.29 1464.71 M1399.57 1450.06 L1399.57 1454.31 Q1397.81 1453.48 1396.01 1453.04 Q1394.22 1452.6 1392.46 1452.6 Q1387.84 1452.6 1385.38 1455.73 Q1382.95 1458.85 1382.6 1465.17 Q1383.97 1463.16 1386.03 1462.09 Q1388.09 1461 1390.57 1461 Q1395.77 1461 1398.78 1464.18 Q1401.82 1467.32 1401.82 1472.76 Q1401.82 1478.09 1398.67 1481.31 Q1395.52 1484.52 1390.29 1484.52 Q1384.29 1484.52 1381.12 1479.94 Q1377.95 1475.33 1377.95 1466.61 Q1377.95 1458.41 1381.84 1453.55 Q1385.73 1448.67 1392.28 1448.67 Q1394.04 1448.67 1395.82 1449.01 Q1397.63 1449.36 1399.57 1450.06 Z" fill="#000000" fill-rule="evenodd" fill-opacity="1" /><path clip-path="url(#clip370)" d="M1419.87 1452.37 Q1416.26 1452.37 1414.43 1455.94 Q1412.63 1459.48 1412.63 1466.61 Q1412.63 1473.71 1414.43 1477.28 Q1416.26 1480.82 1419.87 1480.82 Q1423.51 1480.82 1425.31 1477.28 Q1427.14 1473.71 1427.14 1466.61 Q1427.14 1459.48 1425.31 1455.94 Q1423.51 1452.37 1419.87 1452.37 M1419.87 1448.67 Q1425.68 1448.67 1428.74 1453.27 Q1431.82 1457.86 1431.82 1466.61 Q1431.82 1475.33 1428.74 1479.94 Q1425.68 1484.52 1419.87 1484.52 Q1414.06 1484.52 1410.98 1479.94 Q1407.93 1475.33 1407.93 1466.61 Q1407.93 1457.86 1410.98 1453.27 Q1414.06 1448.67 1419.87 1448.67 Z" fill="#000000" fill-rule="evenodd" fill-opacity="1" /><path clip-path="url(#clip370)" d="M607.558 1520.52 L647.758 1520.52 L647.758 1525.93 L630.889 1525.93 L630.889 1568.04 L624.427 1568.04 L624.427 1525.93 L607.558 1525.93 L607.558 1520.52 Z" fill="#000000" fill-rule="evenodd" fill-opacity="1" /><path clip-path="url(#clip370)" d="M673.125 1548.76 L673.125 1551.62 L646.198 1551.62 Q646.58 1557.67 649.827 1560.85 Q653.105 1564 658.93 1564 Q662.303 1564 665.454 1563.17 Q668.637 1562.35 671.756 1560.69 L671.756 1566.23 Q668.605 1567.57 665.295 1568.27 Q661.985 1568.97 658.579 1568.97 Q650.049 1568.97 645.052 1564 Q640.087 1559.04 640.087 1550.57 Q640.087 1541.82 644.798 1536.69 Q649.54 1531.54 657.561 1531.54 Q664.754 1531.54 668.924 1536.18 Q673.125 1540.8 673.125 1548.76 M667.269 1547.04 Q667.205 1542.23 664.563 1539.37 Q661.953 1536.5 657.625 1536.5 Q652.723 1536.5 649.763 1539.27 Q646.835 1542.04 646.389 1547.07 L667.269 1547.04 Z" fill="#000000" fill-rule="evenodd" fill-opacity="1" /><path clip-path="url(#clip370)" d="M710.492 1539.24 Q712.688 1535.29 715.744 1533.41 Q718.799 1531.54 722.937 1531.54 Q728.507 1531.54 731.53 1535.45 Q734.554 1539.33 734.554 1546.53 L734.554 1568.04 L728.666 1568.04 L728.666 1546.72 Q728.666 1541.59 726.852 1539.11 Q725.037 1536.63 721.314 1536.63 Q716.762 1536.63 714.12 1539.65 Q711.478 1542.68 711.478 1547.9 L711.478 1568.04 L705.59 1568.04 L705.59 1546.72 Q705.59 1541.56 703.776 1539.11 Q701.962 1536.63 698.174 1536.63 Q693.686 1536.63 691.045 1539.68 Q688.403 1542.71 688.403 1547.9 L688.403 1568.04 L682.515 1568.04 L682.515 1532.4 L688.403 1532.4 L688.403 1537.93 Q690.408 1534.66 693.209 1533.1 Q696.01 1531.54 699.861 1531.54 Q703.744 1531.54 706.45 1533.51 Q709.187 1535.48 710.492 1539.24 Z" fill="#000000" fill-rule="evenodd" fill-opacity="1" /><path clip-path="url(#clip370)" d="M751.901 1562.7 L751.901 1581.6 L746.012 1581.6 L746.012 1532.4 L751.901 1532.4 L751.901 1537.81 Q753.747 1534.62 756.548 1533.1 Q759.38 1531.54 763.295 1531.54 Q769.788 1531.54 773.831 1536.69 Q777.905 1541.85 777.905 1550.25 Q777.905 1558.65 773.831 1563.81 Q769.788 1568.97 763.295 1568.97 Q759.38 1568.97 756.548 1567.44 Q753.747 1565.88 751.901 1562.7 M771.825 1550.25 Q771.825 1543.79 769.152 1540.13 Q766.51 1536.44 761.863 1536.44 Q757.216 1536.44 754.542 1540.13 Q751.901 1543.79 751.901 1550.25 Q751.901 1556.71 754.542 1560.4 Q757.216 1564.07 761.863 1564.07 Q766.51 1564.07 769.152 1560.4 Q771.825 1556.71 771.825 1550.25 Z" fill="#000000" fill-rule="evenodd" fill-opacity="1" /><path clip-path="url(#clip370)" d="M818.104 1548.76 L818.104 1551.62 L791.177 1551.62 Q791.559 1557.67 794.806 1560.85 Q798.084 1564 803.909 1564 Q807.282 1564 810.433 1563.17 Q813.616 1562.35 816.735 1560.69 L816.735 1566.23 Q813.584 1567.57 810.274 1568.27 Q806.964 1568.97 803.558 1568.97 Q795.028 1568.97 790.031 1564 Q785.066 1559.04 785.066 1550.57 Q785.066 1541.82 789.777 1536.69 Q794.519 1531.54 802.54 1531.54 Q809.733 1531.54 813.903 1536.18 Q818.104 1540.8 818.104 1548.76 M812.248 1547.04 Q812.184 1542.23 809.542 1539.37 Q806.932 1536.5 802.604 1536.5 Q797.702 1536.5 794.742 1539.27 Q791.814 1542.04 791.368 1547.07 L812.248 1547.04 Z" fill="#000000" fill-rule="evenodd" fill-opacity="1" /><path clip-path="url(#clip370)" d="M848.373 1537.87 Q847.386 1537.3 846.209 1537.04 Q845.063 1536.76 843.662 1536.76 Q838.697 1536.76 836.024 1540 Q833.382 1543.22 833.382 1549.27 L833.382 1568.04 L827.493 1568.04 L827.493 1532.4 L833.382 1532.4 L833.382 1537.93 Q835.228 1534.69 838.188 1533.13 Q841.148 1531.54 845.381 1531.54 Q845.986 1531.54 846.718 1531.63 Q847.45 1531.7 848.341 1531.85 L848.373 1537.87 Z" fill="#000000" fill-rule="evenodd" fill-opacity="1" /><path clip-path="url(#clip370)" d="M870.717 1550.12 Q863.619 1550.12 860.882 1551.75 Q858.144 1553.37 858.144 1557.29 Q858.144 1560.4 860.181 1562.25 Q862.25 1564.07 865.783 1564.07 Q870.653 1564.07 873.581 1560.63 Q876.541 1557.16 876.541 1551.43 L876.541 1550.12 L870.717 1550.12 M882.398 1547.71 L882.398 1568.04 L876.541 1568.04 L876.541 1562.63 Q874.536 1565.88 871.544 1567.44 Q868.552 1568.97 864.224 1568.97 Q858.749 1568.97 855.503 1565.91 Q852.288 1562.82 852.288 1557.67 Q852.288 1551.65 856.298 1548.6 Q860.341 1545.54 868.329 1545.54 L876.541 1545.54 L876.541 1544.97 Q876.541 1540.93 873.868 1538.73 Q871.226 1536.5 866.42 1536.5 Q863.364 1536.5 860.468 1537.23 Q857.571 1537.97 854.898 1539.43 L854.898 1534.02 Q858.113 1532.78 861.136 1532.17 Q864.16 1531.54 867.025 1531.54 Q874.759 1531.54 878.578 1535.55 Q882.398 1539.56 882.398 1547.71 Z" fill="#000000" fill-rule="evenodd" fill-opacity="1" /><path clip-path="url(#clip370)" d="M900.254 1522.27 L900.254 1532.4 L912.317 1532.4 L912.317 1536.95 L900.254 1536.95 L900.254 1556.3 Q900.254 1560.66 901.431 1561.9 Q902.641 1563.14 906.301 1563.14 L912.317 1563.14 L912.317 1568.04 L906.301 1568.04 Q899.521 1568.04 896.943 1565.53 Q894.365 1562.98 894.365 1556.3 L894.365 1536.95 L890.068 1536.95 L890.068 1532.4 L894.365 1532.4 L894.365 1522.27 L900.254 1522.27 Z" fill="#000000" fill-rule="evenodd" fill-opacity="1" /><path clip-path="url(#clip370)" d="M919.414 1553.98 L919.414 1532.4 L925.271 1532.4 L925.271 1553.75 Q925.271 1558.81 927.244 1561.36 Q929.217 1563.87 933.164 1563.87 Q937.907 1563.87 940.644 1560.85 Q943.413 1557.83 943.413 1552.61 L943.413 1532.4 L949.269 1532.4 L949.269 1568.04 L943.413 1568.04 L943.413 1562.57 Q941.28 1565.82 938.448 1567.41 Q935.647 1568.97 931.923 1568.97 Q925.78 1568.97 922.597 1565.15 Q919.414 1561.33 919.414 1553.98 M934.151 1531.54 L934.151 1531.54 Z" fill="#000000" fill-rule="evenodd" fill-opacity="1" /><path clip-path="url(#clip370)" d="M981.989 1537.87 Q981.003 1537.3 979.825 1537.04 Q978.679 1536.76 977.279 1536.76 Q972.313 1536.76 969.64 1540 Q966.998 1543.22 966.998 1549.27 L966.998 1568.04 L961.11 1568.04 L961.11 1532.4 L966.998 1532.4 L966.998 1537.93 Q968.844 1534.69 971.804 1533.13 Q974.764 1531.54 978.997 1531.54 Q979.602 1531.54 980.334 1531.63 Q981.066 1531.7 981.957 1531.85 L981.989 1537.87 Z" fill="#000000" fill-rule="evenodd" fill-opacity="1" /><path clip-path="url(#clip370)" d="M1017.19 1548.76 L1017.19 1551.62 L990.265 1551.62 Q990.647 1557.67 993.893 1560.85 Q997.171 1564 1003 1564 Q1006.37 1564 1009.52 1563.17 Q1012.7 1562.35 1015.82 1560.69 L1015.82 1566.23 Q1012.67 1567.57 1009.36 1568.27 Q1006.05 1568.97 1002.65 1568.97 Q994.116 1568.97 989.119 1564 Q984.154 1559.04 984.154 1550.57 Q984.154 1541.82 988.864 1536.69 Q993.607 1531.54 1001.63 1531.54 Q1008.82 1531.54 1012.99 1536.18 Q1017.19 1540.8 1017.19 1548.76 M1011.34 1547.04 Q1011.27 1542.23 1008.63 1539.37 Q1006.02 1536.5 1001.69 1536.5 Q996.789 1536.5 993.829 1539.27 Q990.901 1542.04 990.456 1547.07 L1011.34 1547.04 Z" fill="#000000" fill-rule="evenodd" fill-opacity="1" /><polyline clip-path="url(#clip372)" style="stroke:#000000; stroke-linecap:butt; stroke-linejoin:round; stroke-width:2; stroke-opacity:0.1; fill:none" points="
  219.866,1423.18 1404.88,1423.18 
  "/>
<polyline clip-path="url(#clip372)" style="stroke:#000000; stroke-linecap:butt; stroke-linejoin:round; stroke-width:2; stroke-opacity:0.1; fill:none" points="
  219.866,1126.92 1404.88,1126.92 
  "/>
<polyline clip-path="url(#clip372)" style="stroke:#000000; stroke-linecap:butt; stroke-linejoin:round; stroke-width:2; stroke-opacity:0.1; fill:none" points="
  219.866,830.653 1404.88,830.653 
  "/>
<polyline clip-path="url(#clip372)" style="stroke:#000000; stroke-linecap:butt; stroke-linejoin:round; stroke-width:2; stroke-opacity:0.1; fill:none" points="
  219.866,534.39 1404.88,534.39 
  "/>
<polyline clip-path="url(#clip372)" style="stroke:#000000; stroke-linecap:butt; stroke-linejoin:round; stroke-width:2; stroke-opacity:0.1; fill:none" points="
  219.866,238.126 1404.88,238.126 
  "/>
<polyline clip-path="url(#clip370)" style="stroke:#000000; stroke-linecap:butt; stroke-linejoin:round; stroke-width:4; stroke-opacity:1; fill:none" points="
  219.866,1423.18 219.866,123.472 
  "/>
<polyline clip-path="url(#clip370)" style="stroke:#000000; stroke-linecap:butt; stroke-linejoin:round; stroke-width:4; stroke-opacity:1; fill:none" points="
  219.866,1423.18 230.366,1423.18 
  "/>
<polyline clip-path="url(#clip370)" style="stroke:#000000; stroke-linecap:butt; stroke-linejoin:round; stroke-width:4; stroke-opacity:1; fill:none" points="
  219.866,1126.92 230.366,1126.92 
  "/>
<polyline clip-path="url(#clip370)" style="stroke:#000000; stroke-linecap:butt; stroke-linejoin:round; stroke-width:4; stroke-opacity:1; fill:none" points="
  219.866,830.653 230.366,830.653 
  "/>
<polyline clip-path="url(#clip370)" style="stroke:#000000; stroke-linecap:butt; stroke-linejoin:round; stroke-width:4; stroke-opacity:1; fill:none" points="
  219.866,534.39 230.366,534.39 
  "/>
<polyline clip-path="url(#clip370)" style="stroke:#000000; stroke-linecap:butt; stroke-linejoin:round; stroke-width:4; stroke-opacity:1; fill:none" points="
  219.866,238.126 230.366,238.126 
  "/>
<path clip-path="url(#clip370)" d="M126.691 1408.98 Q123.08 1408.98 121.251 1412.54 Q119.445 1416.08 119.445 1423.21 Q119.445 1430.32 121.251 1433.89 Q123.08 1437.43 126.691 1437.43 Q130.325 1437.43 132.13 1433.89 Q133.959 1430.32 133.959 1423.21 Q133.959 1416.08 132.13 1412.54 Q130.325 1408.98 126.691 1408.98 M126.691 1405.27 Q132.501 1405.27 135.556 1409.88 Q138.635 1414.46 138.635 1423.21 Q138.635 1431.94 135.556 1436.55 Q132.501 1441.13 126.691 1441.13 Q120.88 1441.13 117.802 1436.55 Q114.746 1431.94 114.746 1423.21 Q114.746 1414.46 117.802 1409.88 Q120.88 1405.27 126.691 1405.27 Z" fill="#000000" fill-rule="evenodd" fill-opacity="1" /><path clip-path="url(#clip370)" d="M146.853 1434.58 L151.737 1434.58 L151.737 1440.46 L146.853 1440.46 L146.853 1434.58 Z" fill="#000000" fill-rule="evenodd" fill-opacity="1" /><path clip-path="url(#clip370)" d="M171.922 1408.98 Q168.311 1408.98 166.482 1412.54 Q164.677 1416.08 164.677 1423.21 Q164.677 1430.32 166.482 1433.89 Q168.311 1437.43 171.922 1437.43 Q175.556 1437.43 177.362 1433.89 Q179.19 1430.32 179.19 1423.21 Q179.19 1416.08 177.362 1412.54 Q175.556 1408.98 171.922 1408.98 M171.922 1405.27 Q177.732 1405.27 180.788 1409.88 Q183.866 1414.46 183.866 1423.21 Q183.866 1431.94 180.788 1436.55 Q177.732 1441.13 171.922 1441.13 Q166.112 1441.13 163.033 1436.55 Q159.978 1431.94 159.978 1423.21 Q159.978 1414.46 163.033 1409.88 Q166.112 1405.27 171.922 1405.27 Z" fill="#000000" fill-rule="evenodd" fill-opacity="1" /><path clip-path="url(#clip370)" d="M128.288 1112.72 Q124.677 1112.72 122.848 1116.28 Q121.043 1119.82 121.043 1126.95 Q121.043 1134.06 122.848 1137.62 Q124.677 1141.16 128.288 1141.16 Q131.922 1141.16 133.728 1137.62 Q135.556 1134.06 135.556 1126.95 Q135.556 1119.82 133.728 1116.28 Q131.922 1112.72 128.288 1112.72 M128.288 1109.01 Q134.098 1109.01 137.154 1113.62 Q140.232 1118.2 140.232 1126.95 Q140.232 1135.68 137.154 1140.28 Q134.098 1144.87 128.288 1144.87 Q122.478 1144.87 119.399 1140.28 Q116.343 1135.68 116.343 1126.95 Q116.343 1118.2 119.399 1113.62 Q122.478 1109.01 128.288 1109.01 Z" fill="#000000" fill-rule="evenodd" fill-opacity="1" /><path clip-path="url(#clip370)" d="M148.45 1138.32 L153.334 1138.32 L153.334 1144.2 L148.45 1144.2 L148.45 1138.32 Z" fill="#000000" fill-rule="evenodd" fill-opacity="1" /><path clip-path="url(#clip370)" d="M167.547 1140.26 L183.866 1140.26 L183.866 1144.2 L161.922 1144.2 L161.922 1140.26 Q164.584 1137.51 169.167 1132.88 Q173.774 1128.22 174.954 1126.88 Q177.2 1124.36 178.079 1122.62 Q178.982 1120.86 178.982 1119.17 Q178.982 1116.42 177.038 1114.68 Q175.116 1112.95 172.014 1112.95 Q169.815 1112.95 167.362 1113.71 Q164.931 1114.47 162.153 1116.03 L162.153 1111.3 Q164.977 1110.17 167.431 1109.59 Q169.885 1109.01 171.922 1109.01 Q177.292 1109.01 180.487 1111.7 Q183.681 1114.38 183.681 1118.87 Q183.681 1121 182.871 1122.92 Q182.084 1124.82 179.977 1127.41 Q179.399 1128.09 176.297 1131.3 Q173.195 1134.5 167.547 1140.26 Z" fill="#000000" fill-rule="evenodd" fill-opacity="1" /><path clip-path="url(#clip370)" d="M126.205 816.452 Q122.593 816.452 120.765 820.016 Q118.959 823.558 118.959 830.688 Q118.959 837.794 120.765 841.359 Q122.593 844.901 126.205 844.901 Q129.839 844.901 131.644 841.359 Q133.473 837.794 133.473 830.688 Q133.473 823.558 131.644 820.016 Q129.839 816.452 126.205 816.452 M126.205 812.748 Q132.015 812.748 135.07 817.354 Q138.149 821.938 138.149 830.688 Q138.149 839.414 135.07 844.021 Q132.015 848.604 126.205 848.604 Q120.394 848.604 117.316 844.021 Q114.26 839.414 114.26 830.688 Q114.26 821.938 117.316 817.354 Q120.394 812.748 126.205 812.748 Z" fill="#000000" fill-rule="evenodd" fill-opacity="1" /><path clip-path="url(#clip370)" d="M146.366 842.053 L151.251 842.053 L151.251 847.933 L146.366 847.933 L146.366 842.053 Z" fill="#000000" fill-rule="evenodd" fill-opacity="1" /><path clip-path="url(#clip370)" d="M174.283 817.447 L162.477 835.896 L174.283 835.896 L174.283 817.447 M173.056 813.373 L178.936 813.373 L178.936 835.896 L183.866 835.896 L183.866 839.785 L178.936 839.785 L178.936 847.933 L174.283 847.933 L174.283 839.785 L158.681 839.785 L158.681 835.271 L173.056 813.373 Z" fill="#000000" fill-rule="evenodd" fill-opacity="1" /><path clip-path="url(#clip370)" d="M126.529 520.188 Q122.918 520.188 121.089 523.753 Q119.283 527.295 119.283 534.424 Q119.283 541.531 121.089 545.095 Q122.918 548.637 126.529 548.637 Q130.163 548.637 131.968 545.095 Q133.797 541.531 133.797 534.424 Q133.797 527.295 131.968 523.753 Q130.163 520.188 126.529 520.188 M126.529 516.485 Q132.339 516.485 135.394 521.091 Q138.473 525.674 138.473 534.424 Q138.473 543.151 135.394 547.758 Q132.339 552.341 126.529 552.341 Q120.718 552.341 117.64 547.758 Q114.584 543.151 114.584 534.424 Q114.584 525.674 117.64 521.091 Q120.718 516.485 126.529 516.485 Z" fill="#000000" fill-rule="evenodd" fill-opacity="1" /><path clip-path="url(#clip370)" d="M146.691 545.79 L151.575 545.79 L151.575 551.67 L146.691 551.67 L146.691 545.79 Z" fill="#000000" fill-rule="evenodd" fill-opacity="1" /><path clip-path="url(#clip370)" d="M172.339 532.526 Q169.19 532.526 167.339 534.679 Q165.51 536.832 165.51 540.582 Q165.51 544.308 167.339 546.484 Q169.19 548.637 172.339 548.637 Q175.487 548.637 177.315 546.484 Q179.167 544.308 179.167 540.582 Q179.167 536.832 177.315 534.679 Q175.487 532.526 172.339 532.526 M181.621 517.873 L181.621 522.133 Q179.862 521.299 178.056 520.859 Q176.274 520.42 174.514 520.42 Q169.885 520.42 167.431 523.545 Q165.001 526.67 164.653 532.989 Q166.019 530.975 168.079 529.91 Q170.139 528.822 172.616 528.822 Q177.825 528.822 180.834 531.994 Q183.866 535.142 183.866 540.582 Q183.866 545.906 180.718 549.123 Q177.57 552.341 172.339 552.341 Q166.343 552.341 163.172 547.758 Q160.001 543.151 160.001 534.424 Q160.001 526.23 163.89 521.369 Q167.778 516.485 174.329 516.485 Q176.089 516.485 177.871 516.832 Q179.676 517.179 181.621 517.873 Z" fill="#000000" fill-rule="evenodd" fill-opacity="1" /><path clip-path="url(#clip370)" d="M126.783 223.925 Q123.172 223.925 121.343 227.49 Q119.538 231.031 119.538 238.161 Q119.538 245.267 121.343 248.832 Q123.172 252.374 126.783 252.374 Q130.417 252.374 132.223 248.832 Q134.052 245.267 134.052 238.161 Q134.052 231.031 132.223 227.49 Q130.417 223.925 126.783 223.925 M126.783 220.221 Q132.593 220.221 135.649 224.828 Q138.728 229.411 138.728 238.161 Q138.728 246.888 135.649 251.494 Q132.593 256.077 126.783 256.077 Q120.973 256.077 117.894 251.494 Q114.839 246.888 114.839 238.161 Q114.839 229.411 117.894 224.828 Q120.973 220.221 126.783 220.221 Z" fill="#000000" fill-rule="evenodd" fill-opacity="1" /><path clip-path="url(#clip370)" d="M146.945 249.526 L151.829 249.526 L151.829 255.406 L146.945 255.406 L146.945 249.526 Z" fill="#000000" fill-rule="evenodd" fill-opacity="1" /><path clip-path="url(#clip370)" d="M172.014 238.994 Q168.681 238.994 166.76 240.777 Q164.862 242.559 164.862 245.684 Q164.862 248.809 166.76 250.591 Q168.681 252.374 172.014 252.374 Q175.348 252.374 177.269 250.591 Q179.19 248.786 179.19 245.684 Q179.19 242.559 177.269 240.777 Q175.371 238.994 172.014 238.994 M167.339 237.003 Q164.329 236.263 162.64 234.202 Q160.973 232.142 160.973 229.179 Q160.973 225.036 163.913 222.628 Q166.876 220.221 172.014 220.221 Q177.176 220.221 180.116 222.628 Q183.056 225.036 183.056 229.179 Q183.056 232.142 181.366 234.202 Q179.7 236.263 176.714 237.003 Q180.093 237.79 181.968 240.082 Q183.866 242.374 183.866 245.684 Q183.866 250.707 180.788 253.392 Q177.732 256.077 172.014 256.077 Q166.297 256.077 163.218 253.392 Q160.163 250.707 160.163 245.684 Q160.163 242.374 162.061 240.082 Q163.959 237.79 167.339 237.003 M165.626 229.619 Q165.626 232.304 167.292 233.809 Q168.982 235.314 172.014 235.314 Q175.024 235.314 176.714 233.809 Q178.426 232.304 178.426 229.619 Q178.426 226.934 176.714 225.429 Q175.024 223.925 172.014 223.925 Q168.982 223.925 167.292 225.429 Q165.626 226.934 165.626 229.619 Z" fill="#000000" fill-rule="evenodd" fill-opacity="1" /><path clip-path="url(#clip370)" d="M57.2247 929.158 L44.4614 929.158 L44.4614 939.662 L39.1779 939.662 L39.1779 922.793 L59.58 922.793 Q62.2218 926.517 63.5904 931.005 Q64.9272 935.492 64.9272 940.585 Q64.9272 951.725 58.4342 958.027 Q51.9093 964.297 40.2919 964.297 Q28.6427 964.297 22.1496 958.027 Q15.6248 951.725 15.6248 940.585 Q15.6248 935.938 16.7706 931.768 Q17.9164 927.567 20.1444 924.034 L26.9876 924.034 Q23.9639 927.599 22.4361 931.609 Q20.9083 935.62 20.9083 940.044 Q20.9083 948.765 25.7781 953.157 Q30.6479 957.518 40.2919 957.518 Q49.9041 957.518 54.7739 953.157 Q59.6436 948.765 59.6436 940.044 Q59.6436 936.638 59.0707 933.965 Q58.466 931.291 57.2247 929.158 Z" fill="#000000" fill-rule="evenodd" fill-opacity="1" /><path clip-path="url(#clip370)" d="M33.8307 890.646 Q33.2578 891.633 33.0032 892.81 Q32.7167 893.956 32.7167 895.357 Q32.7167 900.322 35.9632 902.995 Q39.1779 905.637 45.2253 905.637 L64.0042 905.637 L64.0042 911.525 L28.3562 911.525 L28.3562 905.637 L33.8944 905.637 Q30.6479 903.791 29.0883 900.831 Q27.4968 897.871 27.4968 893.638 Q27.4968 893.033 27.5923 892.301 Q27.656 891.569 27.8151 890.678 L33.8307 890.646 Z" fill="#000000" fill-rule="evenodd" fill-opacity="1" /><path clip-path="url(#clip370)" d="M32.4621 872.122 Q32.4621 876.832 36.1542 879.57 Q39.8145 882.307 46.212 882.307 Q52.6095 882.307 56.3017 879.601 Q59.9619 876.864 59.9619 872.122 Q59.9619 867.443 56.2698 864.706 Q52.5777 861.968 46.212 861.968 Q39.8781 861.968 36.186 864.706 Q32.4621 867.443 32.4621 872.122 M27.4968 872.122 Q27.4968 864.483 32.4621 860.122 Q37.4273 855.762 46.212 855.762 Q54.9649 855.762 59.9619 860.122 Q64.9272 864.483 64.9272 872.122 Q64.9272 879.792 59.9619 884.153 Q54.9649 888.482 46.212 888.482 Q37.4273 888.482 32.4621 884.153 Q27.4968 879.792 27.4968 872.122 Z" fill="#000000" fill-rule="evenodd" fill-opacity="1" /><path clip-path="url(#clip370)" d="M28.3562 849.46 L28.3562 843.603 L56.1743 836.283 L28.3562 828.994 L28.3562 822.087 L56.1743 814.767 L28.3562 807.478 L28.3562 801.622 L64.0042 810.947 L64.0042 817.854 L34.7856 825.525 L64.0042 833.227 L64.0042 840.134 L28.3562 849.46 Z" fill="#000000" fill-rule="evenodd" fill-opacity="1" /><path clip-path="url(#clip370)" d="M18.2347 786.949 L28.3562 786.949 L28.3562 774.886 L32.9077 774.886 L32.9077 786.949 L52.2594 786.949 Q56.6199 786.949 57.8613 785.771 Q59.1026 784.561 59.1026 780.901 L59.1026 774.886 L64.0042 774.886 L64.0042 780.901 Q64.0042 787.681 61.4897 790.259 Q58.9434 792.837 52.2594 792.837 L32.9077 792.837 L32.9077 797.134 L28.3562 797.134 L28.3562 792.837 L18.2347 792.837 L18.2347 786.949 Z" fill="#000000" fill-rule="evenodd" fill-opacity="1" /><path clip-path="url(#clip370)" d="M42.4881 737.551 L64.0042 737.551 L64.0042 743.407 L42.679 743.407 Q37.6183 743.407 35.1038 745.381 Q32.5894 747.354 32.5894 751.301 Q32.5894 756.043 35.6131 758.78 Q38.6368 761.518 43.8567 761.518 L64.0042 761.518 L64.0042 767.406 L14.479 767.406 L14.479 761.518 L33.8944 761.518 Q30.6797 759.417 29.0883 756.584 Q27.4968 753.72 27.4968 749.996 Q27.4968 743.853 31.3163 740.702 Q35.1038 737.551 42.4881 737.551 Z" fill="#000000" fill-rule="evenodd" fill-opacity="1" /><path clip-path="url(#clip370)" d="M33.8307 684.493 Q33.2578 685.479 33.0032 686.657 Q32.7167 687.803 32.7167 689.203 Q32.7167 694.168 35.9632 696.842 Q39.1779 699.484 45.2253 699.484 L64.0042 699.484 L64.0042 705.372 L28.3562 705.372 L28.3562 699.484 L33.8944 699.484 Q30.6479 697.638 29.0883 694.678 Q27.4968 691.718 27.4968 687.484 Q27.4968 686.88 27.5923 686.148 Q27.656 685.416 27.8151 684.524 L33.8307 684.493 Z" fill="#000000" fill-rule="evenodd" fill-opacity="1" /><path clip-path="url(#clip370)" d="M46.0847 662.149 Q46.0847 669.247 47.7079 671.984 Q49.3312 674.721 53.2461 674.721 Q56.3653 674.721 58.2114 672.684 Q60.0256 670.615 60.0256 667.082 Q60.0256 662.213 56.5881 659.284 Q53.1188 656.324 47.3897 656.324 L46.0847 656.324 L46.0847 662.149 M43.6657 650.468 L64.0042 650.468 L64.0042 656.324 L58.5933 656.324 Q61.8398 658.329 63.3994 661.321 Q64.9272 664.313 64.9272 668.642 Q64.9272 674.116 61.8716 677.363 Q58.7843 680.578 53.6281 680.578 Q47.6125 680.578 44.5569 676.567 Q41.5014 672.525 41.5014 664.536 L41.5014 656.324 L40.9285 656.324 Q36.8862 656.324 34.6901 658.998 Q32.4621 661.64 32.4621 666.446 Q32.4621 669.501 33.1941 672.398 Q33.9262 675.294 35.3903 677.968 L29.9795 677.968 Q28.7381 674.753 28.1334 671.729 Q27.4968 668.706 27.4968 665.841 Q27.4968 658.107 31.5072 654.287 Q35.5176 650.468 43.6657 650.468 Z" fill="#000000" fill-rule="evenodd" fill-opacity="1" /><path clip-path="url(#clip370)" d="M18.2347 632.612 L28.3562 632.612 L28.3562 620.549 L32.9077 620.549 L32.9077 632.612 L52.2594 632.612 Q56.6199 632.612 57.8613 631.434 Q59.1026 630.225 59.1026 626.565 L59.1026 620.549 L64.0042 620.549 L64.0042 626.565 Q64.0042 633.344 61.4897 635.922 Q58.9434 638.5 52.2594 638.5 L32.9077 638.5 L32.9077 642.797 L28.3562 642.797 L28.3562 638.5 L18.2347 638.5 L18.2347 632.612 Z" fill="#000000" fill-rule="evenodd" fill-opacity="1" /><path clip-path="url(#clip370)" d="M44.7161 582.355 L47.5806 582.355 L47.5806 609.282 Q53.6281 608.9 56.8109 605.653 Q59.9619 602.375 59.9619 596.55 Q59.9619 593.176 59.1344 590.025 Q58.3069 586.843 56.6518 583.723 L62.1899 583.723 Q63.5267 586.874 64.227 590.185 Q64.9272 593.495 64.9272 596.9 Q64.9272 605.43 59.9619 610.428 Q54.9967 615.393 46.5303 615.393 Q37.7774 615.393 32.6531 610.682 Q27.4968 605.94 27.4968 597.919 Q27.4968 590.726 32.1438 586.556 Q36.7589 582.355 44.7161 582.355 M42.9973 588.211 Q38.1912 588.275 35.3266 590.917 Q32.4621 593.527 32.4621 597.855 Q32.4621 602.757 35.2312 605.717 Q38.0002 608.645 43.0292 609.091 L42.9973 588.211 Z" fill="#000000" fill-rule="evenodd" fill-opacity="1" /><path clip-path="url(#clip370)" d="M24.2918 43.6931 L24.2918 65.8515 L37.4167 65.8515 Q44.0197 65.8515 47.1794 63.1374 Q50.3796 60.3828 50.3796 54.752 Q50.3796 49.0808 47.1794 46.4072 Q44.0197 43.6931 37.4167 43.6931 L24.2918 43.6931 M24.2918 18.8205 L24.2918 37.0496 L36.404 37.0496 Q42.3993 37.0496 45.316 34.8216 Q48.2731 32.5531 48.2731 27.935 Q48.2731 23.3575 45.316 21.089 Q42.3993 18.8205 36.404 18.8205 L24.2918 18.8205 M16.1089 12.096 L37.0116 12.096 Q46.3692 12.096 51.4328 15.9849 Q56.4965 19.8737 56.4965 27.0438 Q56.4965 32.5936 53.9039 35.8748 Q51.3113 39.156 46.2882 39.9662 Q52.324 41.2625 55.6458 45.3944 Q59.008 49.4858 59.008 55.6432 Q59.008 63.745 53.4988 68.1605 Q47.9896 72.576 37.8218 72.576 L16.1089 72.576 L16.1089 12.096 Z" fill="#000000" fill-rule="evenodd" fill-opacity="1" /><path clip-path="url(#clip370)" d="M93.3192 49.7694 Q84.2857 49.7694 80.8019 51.8354 Q77.3181 53.9013 77.3181 58.8839 Q77.3181 62.8538 79.9107 65.2034 Q82.5438 67.5124 87.0403 67.5124 Q93.2382 67.5124 96.965 63.1374 Q100.732 58.7219 100.732 51.4303 L100.732 49.7694 L93.3192 49.7694 M108.186 46.6907 L108.186 72.576 L100.732 72.576 L100.732 65.6895 Q98.1803 69.8214 94.3724 71.8063 Q90.5646 73.7508 85.0553 73.7508 Q78.0878 73.7508 73.9559 69.8619 Q69.8644 65.9325 69.8644 59.3701 Q69.8644 51.7138 74.9686 47.825 Q80.1132 43.9361 90.281 43.9361 L100.732 43.9361 L100.732 43.2069 Q100.732 38.0623 97.3296 35.2672 Q93.9673 32.4315 87.8505 32.4315 Q83.9616 32.4315 80.2753 33.3632 Q76.5889 34.295 73.1862 36.1584 L73.1862 29.2718 Q77.2776 27.692 81.126 26.9223 Q84.9743 26.1121 88.6201 26.1121 Q98.4638 26.1121 103.325 31.2163 Q108.186 36.3204 108.186 46.6907 Z" fill="#000000" fill-rule="evenodd" fill-opacity="1" /><path clip-path="url(#clip370)" d="M156.189 28.9478 L156.189 35.9153 Q153.03 34.1734 149.829 33.3227 Q146.67 32.4315 143.429 32.4315 Q136.178 32.4315 132.167 37.0496 Q128.157 41.6271 128.157 49.9314 Q128.157 58.2358 132.167 62.8538 Q136.178 67.4314 143.429 67.4314 Q146.67 67.4314 149.829 66.5807 Q153.03 65.6895 156.189 63.9476 L156.189 70.8341 Q153.07 72.2924 149.708 73.0216 Q146.386 73.7508 142.619 73.7508 Q132.37 73.7508 126.334 67.3098 Q120.298 60.8689 120.298 49.9314 Q120.298 38.832 126.375 32.472 Q132.491 26.1121 143.105 26.1121 Q146.548 26.1121 149.829 26.8413 Q153.111 27.5299 156.189 28.9478 Z" fill="#000000" fill-rule="evenodd" fill-opacity="1" /><path clip-path="url(#clip370)" d="M176.525 14.324 L176.525 27.2059 L191.878 27.2059 L191.878 32.9987 L176.525 32.9987 L176.525 57.6282 Q176.525 63.1779 178.024 64.7578 Q179.563 66.3376 184.221 66.3376 L191.878 66.3376 L191.878 72.576 L184.221 72.576 Q175.593 72.576 172.312 69.3758 Q169.031 66.1351 169.031 57.6282 L169.031 32.9987 L163.562 32.9987 L163.562 27.2059 L169.031 27.2059 L169.031 14.324 L176.525 14.324 Z" fill="#000000" fill-rule="evenodd" fill-opacity="1" /><path clip-path="url(#clip370)" d="M240.489 48.0275 L240.489 51.6733 L206.218 51.6733 Q206.704 59.3701 210.836 63.421 Q215.008 67.4314 222.422 67.4314 Q226.715 67.4314 230.726 66.3781 Q234.777 65.3249 238.747 63.2184 L238.747 70.267 Q234.736 71.9684 230.523 72.8596 Q226.31 73.7508 221.976 73.7508 Q211.119 73.7508 204.76 67.4314 Q198.44 61.1119 198.44 50.3365 Q198.44 39.1965 204.435 32.6746 Q210.471 26.1121 220.68 26.1121 Q229.835 26.1121 235.141 32.0264 Q240.489 37.9003 240.489 48.0275 M233.035 45.84 Q232.954 39.7232 229.592 36.0774 Q226.27 32.4315 220.761 32.4315 Q214.522 32.4315 210.755 35.9558 Q207.028 39.4801 206.461 45.8805 L233.035 45.84 Z" fill="#000000" fill-rule="evenodd" fill-opacity="1" /><path clip-path="url(#clip370)" d="M279.013 34.1734 Q277.757 33.4443 276.258 33.1202 Q274.8 32.7556 273.017 32.7556 Q266.698 32.7556 263.295 36.8875 Q259.933 40.9789 259.933 48.6757 L259.933 72.576 L252.439 72.576 L252.439 27.2059 L259.933 27.2059 L259.933 34.2544 Q262.282 30.1225 266.05 28.1376 Q269.817 26.1121 275.205 26.1121 Q275.974 26.1121 276.906 26.2337 Q277.838 26.3147 278.972 26.5172 L279.013 34.1734 Z" fill="#000000" fill-rule="evenodd" fill-opacity="1" /><path clip-path="url(#clip370)" d="M286.831 27.2059 L294.285 27.2059 L294.285 72.576 L286.831 72.576 L286.831 27.2059 M286.831 9.54393 L294.285 9.54393 L294.285 18.9825 L286.831 18.9825 L286.831 9.54393 Z" fill="#000000" fill-rule="evenodd" fill-opacity="1" /><path clip-path="url(#clip370)" d="M330.5 49.7694 Q321.466 49.7694 317.982 51.8354 Q314.499 53.9013 314.499 58.8839 Q314.499 62.8538 317.091 65.2034 Q319.724 67.5124 324.221 67.5124 Q330.419 67.5124 334.145 63.1374 Q337.913 58.7219 337.913 51.4303 L337.913 49.7694 L330.5 49.7694 M345.366 46.6907 L345.366 72.576 L337.913 72.576 L337.913 65.6895 Q335.361 69.8214 331.553 71.8063 Q327.745 73.7508 322.236 73.7508 Q315.268 73.7508 311.136 69.8619 Q307.045 65.9325 307.045 59.3701 Q307.045 51.7138 312.149 47.825 Q317.294 43.9361 327.461 43.9361 L337.913 43.9361 L337.913 43.2069 Q337.913 38.0623 334.51 35.2672 Q331.148 32.4315 325.031 32.4315 Q321.142 32.4315 317.456 33.3632 Q313.769 34.295 310.367 36.1584 L310.367 29.2718 Q314.458 27.692 318.306 26.9223 Q322.155 26.1121 325.801 26.1121 Q335.644 26.1121 340.505 31.2163 Q345.366 36.3204 345.366 46.6907 Z" fill="#000000" fill-rule="evenodd" fill-opacity="1" /><path clip-path="url(#clip370)" d="M416.946 49.3643 Q416.946 41.2625 413.584 36.8065 Q410.262 32.3505 404.226 32.3505 Q398.231 32.3505 394.868 36.8065 Q391.547 41.2625 391.547 49.3643 Q391.547 57.4256 394.868 61.8816 Q398.231 66.3376 404.226 66.3376 Q410.262 66.3376 413.584 61.8816 Q416.946 57.4256 416.946 49.3643 M424.4 66.9452 Q424.4 78.5308 419.255 84.1616 Q414.11 89.8329 403.497 89.8329 Q399.568 89.8329 396.084 89.2252 Q392.6 88.6581 389.319 87.4428 L389.319 80.1917 Q392.6 81.9741 395.8 82.8248 Q399 83.6755 402.322 83.6755 Q409.654 83.6755 413.3 79.8271 Q416.946 76.0193 416.946 68.282 L416.946 64.5957 Q414.637 68.6061 411.032 70.5911 Q407.426 72.576 402.403 72.576 Q394.058 72.576 388.954 66.2161 Q383.85 59.8562 383.85 49.3643 Q383.85 38.832 388.954 32.472 Q394.058 26.1121 402.403 26.1121 Q407.426 26.1121 411.032 28.0971 Q414.637 30.082 416.946 34.0924 L416.946 27.2059 L424.4 27.2059 L424.4 66.9452 Z" fill="#000000" fill-rule="evenodd" fill-opacity="1" /><path clip-path="url(#clip370)" d="M466.043 34.1734 Q464.787 33.4443 463.288 33.1202 Q461.83 32.7556 460.048 32.7556 Q453.728 32.7556 450.325 36.8875 Q446.963 40.9789 446.963 48.6757 L446.963 72.576 L439.469 72.576 L439.469 27.2059 L446.963 27.2059 L446.963 34.2544 Q449.313 30.1225 453.08 28.1376 Q456.847 26.1121 462.235 26.1121 Q463.005 26.1121 463.936 26.2337 Q464.868 26.3147 466.002 26.5172 L466.043 34.1734 Z" fill="#000000" fill-rule="evenodd" fill-opacity="1" /><path clip-path="url(#clip370)" d="M489.619 32.4315 Q483.624 32.4315 480.14 37.1306 Q476.656 41.7891 476.656 49.9314 Q476.656 58.0738 480.1 62.7728 Q483.583 67.4314 489.619 67.4314 Q495.574 67.4314 499.058 62.7323 Q502.542 58.0333 502.542 49.9314 Q502.542 41.8701 499.058 37.1711 Q495.574 32.4315 489.619 32.4315 M489.619 26.1121 Q499.341 26.1121 504.891 32.4315 Q510.441 38.7509 510.441 49.9314 Q510.441 61.0714 504.891 67.4314 Q499.341 73.7508 489.619 73.7508 Q479.856 73.7508 474.307 67.4314 Q468.797 61.0714 468.797 49.9314 Q468.797 38.7509 474.307 32.4315 Q479.856 26.1121 489.619 26.1121 Z" fill="#000000" fill-rule="evenodd" fill-opacity="1" /><path clip-path="url(#clip370)" d="M518.462 27.2059 L525.915 27.2059 L535.232 62.6108 L544.509 27.2059 L553.299 27.2059 L562.616 62.6108 L571.893 27.2059 L579.347 27.2059 L567.478 72.576 L558.687 72.576 L548.924 35.3887 L539.121 72.576 L530.331 72.576 L518.462 27.2059 Z" fill="#000000" fill-rule="evenodd" fill-opacity="1" /><path clip-path="url(#clip370)" d="M598.021 14.324 L598.021 27.2059 L613.374 27.2059 L613.374 32.9987 L598.021 32.9987 L598.021 57.6282 Q598.021 63.1779 599.52 64.7578 Q601.06 66.3376 605.718 66.3376 L613.374 66.3376 L613.374 72.576 L605.718 72.576 Q597.09 72.576 593.808 69.3758 Q590.527 66.1351 590.527 57.6282 L590.527 32.9987 L585.058 32.9987 L585.058 27.2059 L590.527 27.2059 L590.527 14.324 L598.021 14.324 Z" fill="#000000" fill-rule="evenodd" fill-opacity="1" /><path clip-path="url(#clip370)" d="M660.891 45.1919 L660.891 72.576 L653.438 72.576 L653.438 45.4349 Q653.438 38.994 650.926 35.7938 Q648.415 32.5936 643.391 32.5936 Q637.356 32.5936 633.872 36.4419 Q630.388 40.2903 630.388 46.9338 L630.388 72.576 L622.894 72.576 L622.894 9.54393 L630.388 9.54393 L630.388 34.2544 Q633.062 30.163 636.667 28.1376 Q640.313 26.1121 645.052 26.1121 Q652.871 26.1121 656.881 30.9732 Q660.891 35.7938 660.891 45.1919 Z" fill="#000000" fill-rule="evenodd" fill-opacity="1" /><path clip-path="url(#clip370)" d="M728.42 34.1734 Q727.164 33.4443 725.665 33.1202 Q724.207 32.7556 722.425 32.7556 Q716.105 32.7556 712.702 36.8875 Q709.34 40.9789 709.34 48.6757 L709.34 72.576 L701.846 72.576 L701.846 27.2059 L709.34 27.2059 L709.34 34.2544 Q711.69 30.1225 715.457 28.1376 Q719.224 26.1121 724.612 26.1121 Q725.382 26.1121 726.313 26.2337 Q727.245 26.3147 728.379 26.5172 L728.42 34.1734 Z" fill="#000000" fill-rule="evenodd" fill-opacity="1" /><path clip-path="url(#clip370)" d="M756.857 49.7694 Q747.824 49.7694 744.34 51.8354 Q740.856 53.9013 740.856 58.8839 Q740.856 62.8538 743.449 65.2034 Q746.082 67.5124 750.578 67.5124 Q756.776 67.5124 760.503 63.1374 Q764.27 58.7219 764.27 51.4303 L764.27 49.7694 L756.857 49.7694 M771.724 46.6907 L771.724 72.576 L764.27 72.576 L764.27 65.6895 Q761.718 69.8214 757.911 71.8063 Q754.103 73.7508 748.593 73.7508 Q741.626 73.7508 737.494 69.8619 Q733.403 65.9325 733.403 59.3701 Q733.403 51.7138 738.507 47.825 Q743.651 43.9361 753.819 43.9361 L764.27 43.9361 L764.27 43.2069 Q764.27 38.0623 760.868 35.2672 Q757.505 32.4315 751.389 32.4315 Q747.5 32.4315 743.813 33.3632 Q740.127 34.295 736.724 36.1584 L736.724 29.2718 Q740.816 27.692 744.664 26.9223 Q748.512 26.1121 752.158 26.1121 Q762.002 26.1121 766.863 31.2163 Q771.724 36.3204 771.724 46.6907 Z" fill="#000000" fill-rule="evenodd" fill-opacity="1" /><path clip-path="url(#clip370)" d="M794.45 14.324 L794.45 27.2059 L809.803 27.2059 L809.803 32.9987 L794.45 32.9987 L794.45 57.6282 Q794.45 63.1779 795.949 64.7578 Q797.488 66.3376 802.146 66.3376 L809.803 66.3376 L809.803 72.576 L802.146 72.576 Q793.518 72.576 790.237 69.3758 Q786.956 66.1351 786.956 57.6282 L786.956 32.9987 L781.487 32.9987 L781.487 27.2059 L786.956 27.2059 L786.956 14.324 L794.45 14.324 Z" fill="#000000" fill-rule="evenodd" fill-opacity="1" /><path clip-path="url(#clip370)" d="M858.413 48.0275 L858.413 51.6733 L824.143 51.6733 Q824.629 59.3701 828.761 63.421 Q832.933 67.4314 840.346 67.4314 Q844.64 67.4314 848.651 66.3781 Q852.702 65.3249 856.672 63.2184 L856.672 70.267 Q852.661 71.9684 848.448 72.8596 Q844.235 73.7508 839.901 73.7508 Q829.044 73.7508 822.684 67.4314 Q816.365 61.1119 816.365 50.3365 Q816.365 39.1965 822.36 32.6746 Q828.396 26.1121 838.605 26.1121 Q847.76 26.1121 853.066 32.0264 Q858.413 37.9003 858.413 48.0275 M850.96 45.84 Q850.879 39.7232 847.517 36.0774 Q844.195 32.4315 838.686 32.4315 Q832.447 32.4315 828.68 35.9558 Q824.953 39.4801 824.386 45.8805 L850.96 45.84 Z" fill="#000000" fill-rule="evenodd" fill-opacity="1" /><path clip-path="url(#clip370)" d="M892.684 27.2059 L900.138 27.2059 L909.455 62.6108 L918.731 27.2059 L927.522 27.2059 L936.839 62.6108 L946.116 27.2059 L953.569 27.2059 L941.7 72.576 L932.91 72.576 L923.147 35.3887 L913.344 72.576 L904.553 72.576 L892.684 27.2059 Z" fill="#000000" fill-rule="evenodd" fill-opacity="1" /><path clip-path="url(#clip370)" d="M964.871 27.2059 L972.325 27.2059 L972.325 72.576 L964.871 72.576 L964.871 27.2059 M964.871 9.54393 L972.325 9.54393 L972.325 18.9825 L964.871 18.9825 L964.871 9.54393 Z" fill="#000000" fill-rule="evenodd" fill-opacity="1" /><path clip-path="url(#clip370)" d="M995.294 14.324 L995.294 27.2059 L1010.65 27.2059 L1010.65 32.9987 L995.294 32.9987 L995.294 57.6282 Q995.294 63.1779 996.792 64.7578 Q998.332 66.3376 1002.99 66.3376 L1010.65 66.3376 L1010.65 72.576 L1002.99 72.576 Q994.362 72.576 991.081 69.3758 Q987.799 66.1351 987.799 57.6282 L987.799 32.9987 L982.331 32.9987 L982.331 27.2059 L987.799 27.2059 L987.799 14.324 L995.294 14.324 Z" fill="#000000" fill-rule="evenodd" fill-opacity="1" /><path clip-path="url(#clip370)" d="M1058.16 45.1919 L1058.16 72.576 L1050.71 72.576 L1050.71 45.4349 Q1050.71 38.994 1048.2 35.7938 Q1045.69 32.5936 1040.66 32.5936 Q1034.63 32.5936 1031.14 36.4419 Q1027.66 40.2903 1027.66 46.9338 L1027.66 72.576 L1020.17 72.576 L1020.17 9.54393 L1027.66 9.54393 L1027.66 34.2544 Q1030.33 30.163 1033.94 28.1376 Q1037.58 26.1121 1042.32 26.1121 Q1050.14 26.1121 1054.15 30.9732 Q1058.16 35.7938 1058.16 45.1919 Z" fill="#000000" fill-rule="evenodd" fill-opacity="1" /><path clip-path="url(#clip370)" d="M1106.77 14.324 L1106.77 27.2059 L1122.13 27.2059 L1122.13 32.9987 L1106.77 32.9987 L1106.77 57.6282 Q1106.77 63.1779 1108.27 64.7578 Q1109.81 66.3376 1114.47 66.3376 L1122.13 66.3376 L1122.13 72.576 L1114.47 72.576 Q1105.84 72.576 1102.56 69.3758 Q1099.28 66.1351 1099.28 57.6282 L1099.28 32.9987 L1093.81 32.9987 L1093.81 27.2059 L1099.28 27.2059 L1099.28 14.324 L1106.77 14.324 Z" fill="#000000" fill-rule="evenodd" fill-opacity="1" /><path clip-path="url(#clip370)" d="M1170.74 48.0275 L1170.74 51.6733 L1136.47 51.6733 Q1136.95 59.3701 1141.09 63.421 Q1145.26 67.4314 1152.67 67.4314 Q1156.97 67.4314 1160.98 66.3781 Q1165.03 65.3249 1169 63.2184 L1169 70.267 Q1164.99 71.9684 1160.77 72.8596 Q1156.56 73.7508 1152.23 73.7508 Q1141.37 73.7508 1135.01 67.4314 Q1128.69 61.1119 1128.69 50.3365 Q1128.69 39.1965 1134.69 32.6746 Q1140.72 26.1121 1150.93 26.1121 Q1160.08 26.1121 1165.39 32.0264 Q1170.74 37.9003 1170.74 48.0275 M1163.28 45.84 Q1163.2 39.7232 1159.84 36.0774 Q1156.52 32.4315 1151.01 32.4315 Q1144.77 32.4315 1141 35.9558 Q1137.28 39.4801 1136.71 45.8805 L1163.28 45.84 Z" fill="#000000" fill-rule="evenodd" fill-opacity="1" /><path clip-path="url(#clip370)" d="M1218.3 35.9153 Q1221.09 30.8922 1224.98 28.5022 Q1228.87 26.1121 1234.13 26.1121 Q1241.22 26.1121 1245.07 31.0947 Q1248.92 36.0368 1248.92 45.1919 L1248.92 72.576 L1241.43 72.576 L1241.43 45.4349 Q1241.43 38.913 1239.12 35.7533 Q1236.81 32.5936 1232.07 32.5936 Q1226.28 32.5936 1222.91 36.4419 Q1219.55 40.2903 1219.55 46.9338 L1219.55 72.576 L1212.06 72.576 L1212.06 45.4349 Q1212.06 38.8725 1209.75 35.7533 Q1207.44 32.5936 1202.62 32.5936 Q1196.91 32.5936 1193.54 36.4824 Q1190.18 40.3308 1190.18 46.9338 L1190.18 72.576 L1182.69 72.576 L1182.69 27.2059 L1190.18 27.2059 L1190.18 34.2544 Q1192.73 30.082 1196.3 28.0971 Q1199.86 26.1121 1204.77 26.1121 Q1209.71 26.1121 1213.15 28.6237 Q1216.63 31.1352 1218.3 35.9153 Z" fill="#000000" fill-rule="evenodd" fill-opacity="1" /><path clip-path="url(#clip370)" d="M1271 65.7705 L1271 89.8329 L1263.5 89.8329 L1263.5 27.2059 L1271 27.2059 L1271 34.0924 Q1273.35 30.0415 1276.91 28.0971 Q1280.52 26.1121 1285.5 26.1121 Q1293.76 26.1121 1298.91 32.6746 Q1304.09 39.2371 1304.09 49.9314 Q1304.09 60.6258 1298.91 67.1883 Q1293.76 73.7508 1285.5 73.7508 Q1280.52 73.7508 1276.91 71.8063 Q1273.35 69.8214 1271 65.7705 M1296.36 49.9314 Q1296.36 41.7081 1292.95 37.0496 Q1289.59 32.3505 1283.68 32.3505 Q1277.76 32.3505 1274.36 37.0496 Q1271 41.7081 1271 49.9314 Q1271 58.1548 1274.36 62.8538 Q1277.76 67.5124 1283.68 67.5124 Q1289.59 67.5124 1292.95 62.8538 Q1296.36 58.1548 1296.36 49.9314 Z" fill="#000000" fill-rule="evenodd" fill-opacity="1" /><path clip-path="url(#clip370)" d="M1355.26 48.0275 L1355.26 51.6733 L1320.99 51.6733 Q1321.47 59.3701 1325.6 63.421 Q1329.78 67.4314 1337.19 67.4314 Q1341.48 67.4314 1345.49 66.3781 Q1349.55 65.3249 1353.51 63.2184 L1353.51 70.267 Q1349.5 71.9684 1345.29 72.8596 Q1341.08 73.7508 1336.74 73.7508 Q1325.89 73.7508 1319.53 67.4314 Q1313.21 61.1119 1313.21 50.3365 Q1313.21 39.1965 1319.2 32.6746 Q1325.24 26.1121 1335.45 26.1121 Q1344.6 26.1121 1349.91 32.0264 Q1355.26 37.9003 1355.26 48.0275 M1347.8 45.84 Q1347.72 39.7232 1344.36 36.0774 Q1341.04 32.4315 1335.53 32.4315 Q1329.29 32.4315 1325.52 35.9558 Q1321.8 39.4801 1321.23 45.8805 L1347.8 45.84 Z" fill="#000000" fill-rule="evenodd" fill-opacity="1" /><path clip-path="url(#clip370)" d="M1393.78 34.1734 Q1392.53 33.4443 1391.03 33.1202 Q1389.57 32.7556 1387.79 32.7556 Q1381.47 32.7556 1378.06 36.8875 Q1374.7 40.9789 1374.7 48.6757 L1374.7 72.576 L1367.21 72.576 L1367.21 27.2059 L1374.7 27.2059 L1374.7 34.2544 Q1377.05 30.1225 1380.82 28.1376 Q1384.59 26.1121 1389.97 26.1121 Q1390.74 26.1121 1391.67 26.2337 Q1392.61 26.3147 1393.74 26.5172 L1393.78 34.1734 Z" fill="#000000" fill-rule="evenodd" fill-opacity="1" /><path clip-path="url(#clip370)" d="M1422.22 49.7694 Q1413.18 49.7694 1409.7 51.8354 Q1406.22 53.9013 1406.22 58.8839 Q1406.22 62.8538 1408.81 65.2034 Q1411.44 67.5124 1415.94 67.5124 Q1422.14 67.5124 1425.86 63.1374 Q1429.63 58.7219 1429.63 51.4303 L1429.63 49.7694 L1422.22 49.7694 M1437.09 46.6907 L1437.09 72.576 L1429.63 72.576 L1429.63 65.6895 Q1427.08 69.8214 1423.27 71.8063 Q1419.46 73.7508 1413.95 73.7508 Q1406.99 73.7508 1402.85 69.8619 Q1398.76 65.9325 1398.76 59.3701 Q1398.76 51.7138 1403.87 47.825 Q1409.01 43.9361 1419.18 43.9361 L1429.63 43.9361 L1429.63 43.2069 Q1429.63 38.0623 1426.23 35.2672 Q1422.87 32.4315 1416.75 32.4315 Q1412.86 32.4315 1409.17 33.3632 Q1405.49 34.295 1402.09 36.1584 L1402.09 29.2718 Q1406.18 27.692 1410.03 26.9223 Q1413.87 26.1121 1417.52 26.1121 Q1427.36 26.1121 1432.22 31.2163 Q1437.09 36.3204 1437.09 46.6907 Z" fill="#000000" fill-rule="evenodd" fill-opacity="1" /><path clip-path="url(#clip370)" d="M1459.81 14.324 L1459.81 27.2059 L1475.16 27.2059 L1475.16 32.9987 L1459.81 32.9987 L1459.81 57.6282 Q1459.81 63.1779 1461.31 64.7578 Q1462.85 66.3376 1467.51 66.3376 L1475.16 66.3376 L1475.16 72.576 L1467.51 72.576 Q1458.88 72.576 1455.6 69.3758 Q1452.32 66.1351 1452.32 57.6282 L1452.32 32.9987 L1446.85 32.9987 L1446.85 27.2059 L1452.32 27.2059 L1452.32 14.324 L1459.81 14.324 Z" fill="#000000" fill-rule="evenodd" fill-opacity="1" /><path clip-path="url(#clip370)" d="M1484.2 54.671 L1484.2 27.2059 L1491.65 27.2059 L1491.65 54.3874 Q1491.65 60.8284 1494.16 64.0691 Q1496.67 67.2693 1501.7 67.2693 Q1507.73 67.2693 1511.22 63.421 Q1514.74 59.5726 1514.74 52.9291 L1514.74 27.2059 L1522.19 27.2059 L1522.19 72.576 L1514.74 72.576 L1514.74 65.6084 Q1512.03 69.7404 1508.42 71.7658 Q1504.86 73.7508 1500.12 73.7508 Q1492.3 73.7508 1488.25 68.8897 Q1484.2 64.0286 1484.2 54.671 M1502.95 26.1121 L1502.95 26.1121 Z" fill="#000000" fill-rule="evenodd" fill-opacity="1" /><path clip-path="url(#clip370)" d="M1563.84 34.1734 Q1562.58 33.4443 1561.08 33.1202 Q1559.62 32.7556 1557.84 32.7556 Q1551.52 32.7556 1548.12 36.8875 Q1544.76 40.9789 1544.76 48.6757 L1544.76 72.576 L1537.26 72.576 L1537.26 27.2059 L1544.76 27.2059 L1544.76 34.2544 Q1547.11 30.1225 1550.88 28.1376 Q1554.64 26.1121 1560.03 26.1121 Q1560.8 26.1121 1561.73 26.2337 Q1562.66 26.3147 1563.8 26.5172 L1563.84 34.1734 Z" fill="#000000" fill-rule="evenodd" fill-opacity="1" /><path clip-path="url(#clip370)" d="M1608.64 48.0275 L1608.64 51.6733 L1574.37 51.6733 Q1574.86 59.3701 1578.99 63.421 Q1583.16 67.4314 1590.57 67.4314 Q1594.87 67.4314 1598.88 66.3781 Q1602.93 65.3249 1606.9 63.2184 L1606.9 70.267 Q1602.89 71.9684 1598.68 72.8596 Q1594.46 73.7508 1590.13 73.7508 Q1579.27 73.7508 1572.91 67.4314 Q1566.59 61.1119 1566.59 50.3365 Q1566.59 39.1965 1572.59 32.6746 Q1578.62 26.1121 1588.83 26.1121 Q1597.99 26.1121 1603.29 32.0264 Q1608.64 37.9003 1608.64 48.0275 M1601.19 45.84 Q1601.11 39.7232 1597.74 36.0774 Q1594.42 32.4315 1588.91 32.4315 Q1582.67 32.4315 1578.91 35.9558 Q1575.18 39.4801 1574.61 45.8805 L1601.19 45.84 Z" fill="#000000" fill-rule="evenodd" fill-opacity="1" /><polyline clip-path="url(#clip372)" style="stroke:#0000ff; stroke-linecap:butt; stroke-linejoin:round; stroke-width:4; stroke-opacity:1; fill:none" points="
  303.623,572.608 558.71,147.04 584.544,123.472 864.113,162.075 910.068,223.002 986.335,331.256 1067.96,496.749 1168.33,718.962 1214.05,840.8 1313.33,1119.26 
  1386.85,1336.66 
  "/>
<polyline clip-path="url(#clip372)" style="stroke:#cd5c5c; stroke-linecap:butt; stroke-linejoin:round; stroke-width:4; stroke-opacity:1; fill:none" points="
  250.511,1243.38 305.259,1118.06 464.904,789.754 661.072,497.727 661.333,497.638 701.837,460.709 714.066,446.562 749.024,429.468 794.055,396.775 837.497,379.029 
  870.63,372.185 903.337,381.295 922.795,383.088 985.743,399.901 994.702,412.003 1010.2,423.468 1012,415.129 1083.01,470.515 1116.62,514.199 1180.87,595.049 
  1202.89,621.832 1226.04,663.753 1253.86,707.837 1326.08,826.342 1326.34,834.134 1330.39,839.57 1338.21,848.429 
  "/>
<polyline clip-path="url(#clip372)" style="stroke:#8b008b; stroke-linecap:butt; stroke-linejoin:round; stroke-width:4; stroke-opacity:1; fill:none" points="
  241.931,1016.25 358.561,743.003 511.641,454.961 604.831,341.107 606.229,330.042 682.047,269.323 738.691,244.881 739.496,245.799 760.732,227.446 809.886,230.66 
  900.943,262.746 942.277,294.342 1019.49,379.903 1043.22,403.456 1065.73,433.023 1074.1,443.896 1185.28,647.37 1199.38,675.144 1208.6,693.35 1267.9,822.032 
  
  "/>
<polyline clip-path="url(#clip372)" style="stroke:#008000; stroke-linecap:butt; stroke-linejoin:round; stroke-width:4; stroke-opacity:1; fill:none" points="
  332.893,1157.16 393.495,1081.93 967.778,845.777 1238.18,1037.52 1374.33,1192.42 
  "/>
<path clip-path="url(#clip370)" d="
M1475.98 425.996 L2352.76 425.996 L2352.76 166.796 L1475.98 166.796  Z
  " fill="#ffffff" fill-rule="evenodd" fill-opacity="1"/>
<polyline clip-path="url(#clip370)" style="stroke:#000000; stroke-linecap:butt; stroke-linejoin:round; stroke-width:4; stroke-opacity:1; fill:none" points="
  1475.98,425.996 2352.76,425.996 2352.76,166.796 1475.98,166.796 1475.98,425.996 
  "/>
<polyline clip-path="url(#clip370)" style="stroke:#0000ff; stroke-linecap:butt; stroke-linejoin:round; stroke-width:4; stroke-opacity:1; fill:none" points="
  1499.68,218.636 1641.87,218.636 
  "/>
<path clip-path="url(#clip370)" d="M1687.82 202.49 L1687.82 207.05 Q1685.15 205.777 1682.79 205.152 Q1680.43 204.527 1678.23 204.527 Q1674.41 204.527 1672.33 206.008 Q1670.27 207.49 1670.27 210.221 Q1670.27 212.513 1671.63 213.694 Q1673.02 214.851 1676.87 215.569 L1679.69 216.147 Q1684.92 217.143 1687.4 219.666 Q1689.9 222.166 1689.9 226.379 Q1689.9 231.402 1686.52 233.994 Q1683.16 236.587 1676.66 236.587 Q1674.2 236.587 1671.43 236.031 Q1668.67 235.476 1665.71 234.388 L1665.71 229.573 Q1668.56 231.17 1671.29 231.981 Q1674.02 232.791 1676.66 232.791 Q1680.66 232.791 1682.84 231.217 Q1685.01 229.643 1685.01 226.726 Q1685.01 224.18 1683.44 222.744 Q1681.89 221.309 1678.32 220.592 L1675.48 220.036 Q1670.25 218.995 1667.91 216.772 Q1665.57 214.55 1665.57 210.592 Q1665.57 206.008 1668.79 203.37 Q1672.03 200.731 1677.7 200.731 Q1680.13 200.731 1682.65 201.171 Q1685.18 201.61 1687.82 202.49 Z" fill="#000000" fill-rule="evenodd" fill-opacity="1" /><path clip-path="url(#clip370)" d="M1708.79 222.883 Q1703.63 222.883 1701.63 224.064 Q1699.64 225.244 1699.64 228.092 Q1699.64 230.36 1701.13 231.703 Q1702.63 233.022 1705.2 233.022 Q1708.74 233.022 1710.87 230.522 Q1713.02 227.999 1713.02 223.832 L1713.02 222.883 L1708.79 222.883 M1717.28 221.124 L1717.28 235.916 L1713.02 235.916 L1713.02 231.981 Q1711.57 234.342 1709.39 235.476 Q1707.21 236.587 1704.07 236.587 Q1700.08 236.587 1697.72 234.365 Q1695.38 232.119 1695.38 228.369 Q1695.38 223.994 1698.3 221.772 Q1701.24 219.55 1707.05 219.55 L1713.02 219.55 L1713.02 219.133 Q1713.02 216.194 1711.08 214.596 Q1709.16 212.976 1705.66 212.976 Q1703.44 212.976 1701.33 213.508 Q1699.23 214.041 1697.28 215.106 L1697.28 211.17 Q1699.62 210.268 1701.82 209.828 Q1704.02 209.365 1706.1 209.365 Q1711.73 209.365 1714.51 212.282 Q1717.28 215.198 1717.28 221.124 Z" fill="#000000" fill-rule="evenodd" fill-opacity="1" /><path clip-path="url(#clip370)" d="M1726.06 199.897 L1730.32 199.897 L1730.32 235.916 L1726.06 235.916 L1726.06 199.897 Z" fill="#000000" fill-rule="evenodd" fill-opacity="1" /><path clip-path="url(#clip370)" d="M1759.41 214.967 Q1761.01 212.096 1763.23 210.731 Q1765.45 209.365 1768.46 209.365 Q1772.51 209.365 1774.71 212.212 Q1776.91 215.036 1776.91 220.268 L1776.91 235.916 L1772.63 235.916 L1772.63 220.407 Q1772.63 216.68 1771.31 214.874 Q1769.99 213.069 1767.28 213.069 Q1763.97 213.069 1762.05 215.268 Q1760.13 217.467 1760.13 221.263 L1760.13 235.916 L1755.85 235.916 L1755.85 220.407 Q1755.85 216.657 1754.53 214.874 Q1753.21 213.069 1750.45 213.069 Q1747.19 213.069 1745.27 215.291 Q1743.35 217.49 1743.35 221.263 L1743.35 235.916 L1739.07 235.916 L1739.07 209.99 L1743.35 209.99 L1743.35 214.018 Q1744.81 211.633 1746.84 210.499 Q1748.88 209.365 1751.68 209.365 Q1754.5 209.365 1756.47 210.8 Q1758.46 212.235 1759.41 214.967 Z" fill="#000000" fill-rule="evenodd" fill-opacity="1" /><path clip-path="url(#clip370)" d="M1795.45 212.976 Q1792.03 212.976 1790.04 215.661 Q1788.05 218.323 1788.05 222.976 Q1788.05 227.629 1790.01 230.314 Q1792 232.976 1795.45 232.976 Q1798.86 232.976 1800.85 230.291 Q1802.84 227.606 1802.84 222.976 Q1802.84 218.37 1800.85 215.684 Q1798.86 212.976 1795.45 212.976 M1795.45 209.365 Q1801.01 209.365 1804.18 212.976 Q1807.35 216.587 1807.35 222.976 Q1807.35 229.342 1804.18 232.976 Q1801.01 236.587 1795.45 236.587 Q1789.88 236.587 1786.7 232.976 Q1783.56 229.342 1783.56 222.976 Q1783.56 216.587 1786.7 212.976 Q1789.88 209.365 1795.45 209.365 Z" fill="#000000" fill-rule="evenodd" fill-opacity="1" /><path clip-path="url(#clip370)" d="M1835.96 220.268 L1835.96 235.916 L1831.7 235.916 L1831.7 220.407 Q1831.7 216.726 1830.27 214.897 Q1828.83 213.069 1825.96 213.069 Q1822.51 213.069 1820.52 215.268 Q1818.53 217.467 1818.53 221.263 L1818.53 235.916 L1814.25 235.916 L1814.25 209.99 L1818.53 209.99 L1818.53 214.018 Q1820.06 211.68 1822.12 210.522 Q1824.2 209.365 1826.91 209.365 Q1831.38 209.365 1833.67 212.143 Q1835.96 214.897 1835.96 220.268 Z" fill="#000000" fill-rule="evenodd" fill-opacity="1" /><path clip-path="url(#clip370)" d="M1866.63 221.888 L1866.63 223.971 L1847.05 223.971 Q1847.33 228.369 1849.69 230.684 Q1852.07 232.976 1856.31 232.976 Q1858.76 232.976 1861.06 232.374 Q1863.37 231.772 1865.64 230.569 L1865.64 234.596 Q1863.35 235.568 1860.94 236.078 Q1858.53 236.587 1856.06 236.587 Q1849.85 236.587 1846.22 232.976 Q1842.61 229.365 1842.61 223.207 Q1842.61 216.842 1846.03 213.115 Q1849.48 209.365 1855.31 209.365 Q1860.55 209.365 1863.58 212.745 Q1866.63 216.101 1866.63 221.888 M1862.37 220.638 Q1862.33 217.143 1860.41 215.059 Q1858.51 212.976 1855.36 212.976 Q1851.8 212.976 1849.64 214.99 Q1847.51 217.004 1847.19 220.661 L1862.37 220.638 Z" fill="#000000" fill-rule="evenodd" fill-opacity="1" /><path clip-path="url(#clip370)" d="M1873.62 199.897 L1877.88 199.897 L1877.88 235.916 L1873.62 235.916 L1873.62 199.897 Z" fill="#000000" fill-rule="evenodd" fill-opacity="1" /><path clip-path="url(#clip370)" d="M1886.8 199.897 L1891.06 199.897 L1891.06 235.916 L1886.8 235.916 L1886.8 199.897 Z" fill="#000000" fill-rule="evenodd" fill-opacity="1" /><path clip-path="url(#clip370)" d="M1911.75 222.883 Q1906.59 222.883 1904.6 224.064 Q1902.61 225.244 1902.61 228.092 Q1902.61 230.36 1904.09 231.703 Q1905.59 233.022 1908.16 233.022 Q1911.7 233.022 1913.83 230.522 Q1915.99 227.999 1915.99 223.832 L1915.99 222.883 L1911.75 222.883 M1920.24 221.124 L1920.24 235.916 L1915.99 235.916 L1915.99 231.981 Q1914.53 234.342 1912.35 235.476 Q1910.18 236.587 1907.03 236.587 Q1903.05 236.587 1900.68 234.365 Q1898.35 232.119 1898.35 228.369 Q1898.35 223.994 1901.26 221.772 Q1904.2 219.55 1910.01 219.55 L1915.99 219.55 L1915.99 219.133 Q1915.99 216.194 1914.04 214.596 Q1912.12 212.976 1908.62 212.976 Q1906.4 212.976 1904.3 213.508 Q1902.19 214.041 1900.24 215.106 L1900.24 211.17 Q1902.58 210.268 1904.78 209.828 Q1906.98 209.365 1909.06 209.365 Q1914.69 209.365 1917.47 212.282 Q1920.24 215.198 1920.24 221.124 Z" fill="#000000" fill-rule="evenodd" fill-opacity="1" /><path clip-path="url(#clip370)" d="M1966.26 221.888 L1966.26 223.971 L1946.68 223.971 Q1946.96 228.369 1949.32 230.684 Q1951.7 232.976 1955.94 232.976 Q1958.39 232.976 1960.68 232.374 Q1963 231.772 1965.27 230.569 L1965.27 234.596 Q1962.98 235.568 1960.57 236.078 Q1958.16 236.587 1955.68 236.587 Q1949.48 236.587 1945.85 232.976 Q1942.24 229.365 1942.24 223.207 Q1942.24 216.842 1945.66 213.115 Q1949.11 209.365 1954.94 209.365 Q1960.18 209.365 1963.21 212.745 Q1966.26 216.101 1966.26 221.888 M1962 220.638 Q1961.96 217.143 1960.04 215.059 Q1958.14 212.976 1954.99 212.976 Q1951.43 212.976 1949.27 214.99 Q1947.14 217.004 1946.82 220.661 L1962 220.638 Z" fill="#000000" fill-rule="evenodd" fill-opacity="1" /><path clip-path="url(#clip370)" d="M1994.8 220.268 L1994.8 235.916 L1990.55 235.916 L1990.55 220.407 Q1990.55 216.726 1989.11 214.897 Q1987.67 213.069 1984.8 213.069 Q1981.36 213.069 1979.36 215.268 Q1977.37 217.467 1977.37 221.263 L1977.37 235.916 L1973.09 235.916 L1973.09 209.99 L1977.37 209.99 L1977.37 214.018 Q1978.9 211.68 1980.96 210.522 Q1983.05 209.365 1985.75 209.365 Q1990.22 209.365 1992.51 212.143 Q1994.8 214.897 1994.8 220.268 Z" fill="#000000" fill-rule="evenodd" fill-opacity="1" /><path clip-path="url(#clip370)" d="M2007.51 202.629 L2007.51 209.99 L2016.29 209.99 L2016.29 213.3 L2007.51 213.3 L2007.51 227.374 Q2007.51 230.545 2008.37 231.448 Q2009.25 232.351 2011.91 232.351 L2016.29 232.351 L2016.29 235.916 L2011.91 235.916 Q2006.98 235.916 2005.11 234.087 Q2003.23 232.235 2003.23 227.374 L2003.23 213.3 L2000.11 213.3 L2000.11 209.99 L2003.23 209.99 L2003.23 202.629 L2007.51 202.629 Z" fill="#000000" fill-rule="evenodd" fill-opacity="1" /><path clip-path="url(#clip370)" d="M2044.06 221.888 L2044.06 223.971 L2024.48 223.971 Q2024.76 228.369 2027.12 230.684 Q2029.5 232.976 2033.74 232.976 Q2036.19 232.976 2038.48 232.374 Q2040.8 231.772 2043.07 230.569 L2043.07 234.596 Q2040.78 235.568 2038.37 236.078 Q2035.96 236.587 2033.48 236.587 Q2027.28 236.587 2023.65 232.976 Q2020.04 229.365 2020.04 223.207 Q2020.04 216.842 2023.46 213.115 Q2026.91 209.365 2032.74 209.365 Q2037.98 209.365 2041.01 212.745 Q2044.06 216.101 2044.06 221.888 M2039.8 220.638 Q2039.76 217.143 2037.84 215.059 Q2035.94 212.976 2032.79 212.976 Q2029.23 212.976 2027.07 214.99 Q2024.94 217.004 2024.62 220.661 L2039.8 220.638 Z" fill="#000000" fill-rule="evenodd" fill-opacity="1" /><path clip-path="url(#clip370)" d="M2066.08 213.971 Q2065.36 213.555 2064.5 213.37 Q2063.67 213.161 2062.65 213.161 Q2059.04 213.161 2057.1 215.522 Q2055.17 217.86 2055.17 222.258 L2055.17 235.916 L2050.89 235.916 L2050.89 209.99 L2055.17 209.99 L2055.17 214.018 Q2056.52 211.657 2058.67 210.522 Q2060.82 209.365 2063.9 209.365 Q2064.34 209.365 2064.87 209.434 Q2065.41 209.481 2066.05 209.596 L2066.08 213.971 Z" fill="#000000" fill-rule="evenodd" fill-opacity="1" /><path clip-path="url(#clip370)" d="M2070.54 209.99 L2074.8 209.99 L2074.8 235.916 L2070.54 235.916 L2070.54 209.99 M2070.54 199.897 L2074.8 199.897 L2074.8 205.291 L2070.54 205.291 L2070.54 199.897 Z" fill="#000000" fill-rule="evenodd" fill-opacity="1" /><path clip-path="url(#clip370)" d="M2102.37 210.985 L2102.37 214.967 Q2100.57 213.971 2098.74 213.485 Q2096.93 212.976 2095.08 212.976 Q2090.94 212.976 2088.65 215.615 Q2086.35 218.231 2086.35 222.976 Q2086.35 227.721 2088.65 230.36 Q2090.94 232.976 2095.08 232.976 Q2096.93 232.976 2098.74 232.49 Q2100.57 231.981 2102.37 230.985 L2102.37 234.92 Q2100.59 235.754 2098.67 236.17 Q2096.77 236.587 2094.62 236.587 Q2088.76 236.587 2085.31 232.906 Q2081.86 229.226 2081.86 222.976 Q2081.86 216.633 2085.34 212.999 Q2088.83 209.365 2094.9 209.365 Q2096.86 209.365 2098.74 209.782 Q2100.61 210.175 2102.37 210.985 Z" fill="#000000" fill-rule="evenodd" fill-opacity="1" /><path clip-path="url(#clip370)" d="M2121.56 222.883 Q2116.4 222.883 2114.41 224.064 Q2112.42 225.244 2112.42 228.092 Q2112.42 230.36 2113.9 231.703 Q2115.41 233.022 2117.98 233.022 Q2121.52 233.022 2123.65 230.522 Q2125.8 227.999 2125.8 223.832 L2125.8 222.883 L2121.56 222.883 M2130.06 221.124 L2130.06 235.916 L2125.8 235.916 L2125.8 231.981 Q2124.34 234.342 2122.16 235.476 Q2119.99 236.587 2116.84 236.587 Q2112.86 236.587 2110.5 234.365 Q2108.16 232.119 2108.16 228.369 Q2108.16 223.994 2111.08 221.772 Q2114.02 219.55 2119.83 219.55 L2125.8 219.55 L2125.8 219.133 Q2125.8 216.194 2123.85 214.596 Q2121.93 212.976 2118.44 212.976 Q2116.22 212.976 2114.11 213.508 Q2112 214.041 2110.06 215.106 L2110.06 211.17 Q2112.4 210.268 2114.6 209.828 Q2116.79 209.365 2118.88 209.365 Q2124.5 209.365 2127.28 212.282 Q2130.06 215.198 2130.06 221.124 Z" fill="#000000" fill-rule="evenodd" fill-opacity="1" /><polyline clip-path="url(#clip370)" style="stroke:#cd5c5c; stroke-linecap:butt; stroke-linejoin:round; stroke-width:4; stroke-opacity:1; fill:none" points="
  1499.68,270.476 1641.87,270.476 
  "/>
<path clip-path="url(#clip370)" d="M1670.25 271.251 L1670.25 283.913 L1677.75 283.913 Q1681.52 283.913 1683.32 282.362 Q1685.15 280.788 1685.15 277.571 Q1685.15 274.33 1683.32 272.802 Q1681.52 271.251 1677.75 271.251 L1670.25 271.251 M1670.25 257.038 L1670.25 267.455 L1677.17 267.455 Q1680.59 267.455 1682.26 266.182 Q1683.95 264.885 1683.95 262.247 Q1683.95 259.631 1682.26 258.335 Q1680.59 257.038 1677.17 257.038 L1670.25 257.038 M1665.57 253.196 L1677.51 253.196 Q1682.86 253.196 1685.76 255.418 Q1688.65 257.64 1688.65 261.737 Q1688.65 264.909 1687.17 266.784 Q1685.69 268.659 1682.82 269.122 Q1686.26 269.862 1688.16 272.223 Q1690.08 274.561 1690.08 278.08 Q1690.08 282.709 1686.94 285.233 Q1683.79 287.756 1677.98 287.756 L1665.57 287.756 L1665.57 253.196 Z" fill="#000000" fill-rule="evenodd" fill-opacity="1" /><path clip-path="url(#clip370)" d="M1709.69 274.723 Q1704.53 274.723 1702.54 275.904 Q1700.55 277.084 1700.55 279.932 Q1700.55 282.2 1702.03 283.543 Q1703.53 284.862 1706.1 284.862 Q1709.64 284.862 1711.77 282.362 Q1713.93 279.839 1713.93 275.672 L1713.93 274.723 L1709.69 274.723 M1718.19 272.964 L1718.19 287.756 L1713.93 287.756 L1713.93 283.821 Q1712.47 286.182 1710.29 287.316 Q1708.12 288.427 1704.97 288.427 Q1700.99 288.427 1698.63 286.205 Q1696.29 283.959 1696.29 280.209 Q1696.29 275.834 1699.2 273.612 Q1702.14 271.39 1707.95 271.39 L1713.93 271.39 L1713.93 270.973 Q1713.93 268.034 1711.98 266.436 Q1710.06 264.816 1706.57 264.816 Q1704.34 264.816 1702.24 265.348 Q1700.13 265.881 1698.19 266.946 L1698.19 263.01 Q1700.52 262.108 1702.72 261.668 Q1704.92 261.205 1707.01 261.205 Q1712.63 261.205 1715.41 264.122 Q1718.19 267.038 1718.19 272.964 Z" fill="#000000" fill-rule="evenodd" fill-opacity="1" /><path clip-path="url(#clip370)" d="M1745.62 262.825 L1745.62 266.807 Q1743.81 265.811 1741.98 265.325 Q1740.18 264.816 1738.32 264.816 Q1734.18 264.816 1731.89 267.455 Q1729.6 270.071 1729.6 274.816 Q1729.6 279.561 1731.89 282.2 Q1734.18 284.816 1738.32 284.816 Q1740.18 284.816 1741.98 284.33 Q1743.81 283.821 1745.62 282.825 L1745.62 286.76 Q1743.83 287.594 1741.91 288.01 Q1740.01 288.427 1737.86 288.427 Q1732 288.427 1728.56 284.746 Q1725.11 281.066 1725.11 274.816 Q1725.11 268.473 1728.58 264.839 Q1732.07 261.205 1738.14 261.205 Q1740.11 261.205 1741.98 261.622 Q1743.86 262.015 1745.62 262.825 Z" fill="#000000" fill-rule="evenodd" fill-opacity="1" /><path clip-path="url(#clip370)" d="M1753.02 261.83 L1757.28 261.83 L1757.28 287.756 L1753.02 287.756 L1753.02 261.83 M1753.02 251.737 L1757.28 251.737 L1757.28 257.131 L1753.02 257.131 L1753.02 251.737 Z" fill="#000000" fill-rule="evenodd" fill-opacity="1" /><path clip-path="url(#clip370)" d="M1766.19 251.737 L1770.45 251.737 L1770.45 287.756 L1766.19 287.756 L1766.19 251.737 Z" fill="#000000" fill-rule="evenodd" fill-opacity="1" /><path clip-path="url(#clip370)" d="M1779.37 251.737 L1783.63 251.737 L1783.63 287.756 L1779.37 287.756 L1779.37 251.737 Z" fill="#000000" fill-rule="evenodd" fill-opacity="1" /><path clip-path="url(#clip370)" d="M1792.1 277.524 L1792.1 261.83 L1796.36 261.83 L1796.36 277.362 Q1796.36 281.043 1797.79 282.895 Q1799.23 284.723 1802.1 284.723 Q1805.55 284.723 1807.54 282.524 Q1809.55 280.325 1809.55 276.529 L1809.55 261.83 L1813.81 261.83 L1813.81 287.756 L1809.55 287.756 L1809.55 283.774 Q1808 286.135 1805.94 287.293 Q1803.9 288.427 1801.19 288.427 Q1796.73 288.427 1794.41 285.649 Q1792.1 282.871 1792.1 277.524 M1802.81 261.205 L1802.81 261.205 Z" fill="#000000" fill-rule="evenodd" fill-opacity="1" /><path clip-path="url(#clip370)" d="M1839.11 262.594 L1839.11 266.622 Q1837.31 265.696 1835.36 265.233 Q1833.42 264.77 1831.33 264.77 Q1828.16 264.77 1826.56 265.742 Q1824.99 266.714 1824.99 268.659 Q1824.99 270.14 1826.12 270.997 Q1827.26 271.83 1830.68 272.594 L1832.14 272.918 Q1836.68 273.89 1838.58 275.672 Q1840.5 277.432 1840.5 280.603 Q1840.5 284.214 1837.63 286.321 Q1834.78 288.427 1829.78 288.427 Q1827.7 288.427 1825.43 288.01 Q1823.19 287.617 1820.69 286.807 L1820.69 282.409 Q1823.05 283.635 1825.34 284.26 Q1827.63 284.862 1829.87 284.862 Q1832.88 284.862 1834.5 283.844 Q1836.12 282.802 1836.12 280.927 Q1836.12 279.191 1834.94 278.265 Q1833.79 277.339 1829.83 276.483 L1828.35 276.135 Q1824.39 275.302 1822.63 273.589 Q1820.87 271.853 1820.87 268.844 Q1820.87 265.186 1823.46 263.196 Q1826.06 261.205 1830.82 261.205 Q1833.18 261.205 1835.27 261.552 Q1837.35 261.899 1839.11 262.594 Z" fill="#000000" fill-rule="evenodd" fill-opacity="1" /><path clip-path="url(#clip370)" d="M1881.01 262.825 L1881.01 266.807 Q1879.2 265.811 1877.37 265.325 Q1875.57 264.816 1873.72 264.816 Q1869.57 264.816 1867.28 267.455 Q1864.99 270.071 1864.99 274.816 Q1864.99 279.561 1867.28 282.2 Q1869.57 284.816 1873.72 284.816 Q1875.57 284.816 1877.37 284.33 Q1879.2 283.821 1881.01 282.825 L1881.01 286.76 Q1879.23 287.594 1877.31 288.01 Q1875.41 288.427 1873.25 288.427 Q1867.4 288.427 1863.95 284.746 Q1860.5 281.066 1860.5 274.816 Q1860.5 268.473 1863.97 264.839 Q1867.47 261.205 1873.53 261.205 Q1875.5 261.205 1877.37 261.622 Q1879.25 262.015 1881.01 262.825 Z" fill="#000000" fill-rule="evenodd" fill-opacity="1" /><path clip-path="url(#clip370)" d="M1910.59 273.728 L1910.59 275.811 L1891.01 275.811 Q1891.29 280.209 1893.65 282.524 Q1896.03 284.816 1900.27 284.816 Q1902.72 284.816 1905.01 284.214 Q1907.33 283.612 1909.6 282.409 L1909.6 286.436 Q1907.3 287.408 1904.9 287.918 Q1902.49 288.427 1900.01 288.427 Q1893.81 288.427 1890.18 284.816 Q1886.56 281.205 1886.56 275.047 Q1886.56 268.682 1889.99 264.955 Q1893.44 261.205 1899.27 261.205 Q1904.5 261.205 1907.54 264.585 Q1910.59 267.941 1910.59 273.728 M1906.33 272.478 Q1906.29 268.983 1904.37 266.899 Q1902.47 264.816 1899.32 264.816 Q1895.75 264.816 1893.6 266.83 Q1891.47 268.844 1891.15 272.501 L1906.33 272.478 Z" fill="#000000" fill-rule="evenodd" fill-opacity="1" /><path clip-path="url(#clip370)" d="M1932.61 265.811 Q1931.89 265.395 1931.03 265.21 Q1930.2 265.001 1929.18 265.001 Q1925.57 265.001 1923.62 267.362 Q1921.7 269.7 1921.7 274.098 L1921.7 287.756 L1917.42 287.756 L1917.42 261.83 L1921.7 261.83 L1921.7 265.858 Q1923.05 263.497 1925.2 262.362 Q1927.35 261.205 1930.43 261.205 Q1930.87 261.205 1931.4 261.274 Q1931.93 261.321 1932.58 261.436 L1932.61 265.811 Z" fill="#000000" fill-rule="evenodd" fill-opacity="1" /><path clip-path="url(#clip370)" d="M1958.21 273.728 L1958.21 275.811 L1938.62 275.811 Q1938.9 280.209 1941.26 282.524 Q1943.65 284.816 1947.88 284.816 Q1950.34 284.816 1952.63 284.214 Q1954.94 283.612 1957.21 282.409 L1957.21 286.436 Q1954.92 287.408 1952.51 287.918 Q1950.11 288.427 1947.63 288.427 Q1941.43 288.427 1937.79 284.816 Q1934.18 281.205 1934.18 275.047 Q1934.18 268.682 1937.61 264.955 Q1941.05 261.205 1946.89 261.205 Q1952.12 261.205 1955.15 264.585 Q1958.21 267.941 1958.21 273.728 M1953.95 272.478 Q1953.9 268.983 1951.98 266.899 Q1950.08 264.816 1946.93 264.816 Q1943.37 264.816 1941.22 266.83 Q1939.09 268.844 1938.76 272.501 L1953.95 272.478 Z" fill="#000000" fill-rule="evenodd" fill-opacity="1" /><path clip-path="url(#clip370)" d="M1964.76 277.524 L1964.76 261.83 L1969.02 261.83 L1969.02 277.362 Q1969.02 281.043 1970.45 282.895 Q1971.89 284.723 1974.76 284.723 Q1978.21 284.723 1980.2 282.524 Q1982.21 280.325 1982.21 276.529 L1982.21 261.83 L1986.47 261.83 L1986.47 287.756 L1982.21 287.756 L1982.21 283.774 Q1980.66 286.135 1978.6 287.293 Q1976.56 288.427 1973.86 288.427 Q1969.39 288.427 1967.07 285.649 Q1964.76 282.871 1964.76 277.524 M1975.48 261.205 L1975.48 261.205 Z" fill="#000000" fill-rule="evenodd" fill-opacity="1" /><path clip-path="url(#clip370)" d="M2011.77 262.594 L2011.77 266.622 Q2009.97 265.696 2008.02 265.233 Q2006.08 264.77 2003.99 264.77 Q2000.82 264.77 1999.23 265.742 Q1997.65 266.714 1997.65 268.659 Q1997.65 270.14 1998.79 270.997 Q1999.92 271.83 2003.35 272.594 L2004.8 272.918 Q2009.34 273.89 2011.24 275.672 Q2013.16 277.432 2013.16 280.603 Q2013.16 284.214 2010.29 286.321 Q2007.44 288.427 2002.44 288.427 Q2000.36 288.427 1998.09 288.01 Q1995.85 287.617 1993.35 286.807 L1993.35 282.409 Q1995.71 283.635 1998 284.26 Q2000.29 284.862 2002.54 284.862 Q2005.55 284.862 2007.17 283.844 Q2008.79 282.802 2008.79 280.927 Q2008.79 279.191 2007.61 278.265 Q2006.45 277.339 2002.49 276.483 L2001.01 276.135 Q1997.05 275.302 1995.29 273.589 Q1993.53 271.853 1993.53 268.844 Q1993.53 265.186 1996.12 263.196 Q1998.72 261.205 2003.48 261.205 Q2005.85 261.205 2007.93 261.552 Q2010.01 261.899 2011.77 262.594 Z" fill="#000000" fill-rule="evenodd" fill-opacity="1" /><polyline clip-path="url(#clip370)" style="stroke:#8b008b; stroke-linecap:butt; stroke-linejoin:round; stroke-width:4; stroke-opacity:1; fill:none" points="
  1499.68,322.316 1641.87,322.316 
  "/>
<path clip-path="url(#clip370)" d="M1665.57 305.036 L1670.25 305.036 L1670.25 335.661 L1687.07 335.661 L1687.07 339.596 L1665.57 339.596 L1665.57 305.036 Z" fill="#000000" fill-rule="evenodd" fill-opacity="1" /><path clip-path="url(#clip370)" d="M1691.8 313.67 L1696.06 313.67 L1696.06 339.596 L1691.8 339.596 L1691.8 313.67 M1691.8 303.577 L1696.06 303.577 L1696.06 308.971 L1691.8 308.971 L1691.8 303.577 Z" fill="#000000" fill-rule="evenodd" fill-opacity="1" /><path clip-path="url(#clip370)" d="M1721.5 314.434 L1721.5 318.462 Q1719.69 317.536 1717.75 317.073 Q1715.8 316.61 1713.72 316.61 Q1710.55 316.61 1708.95 317.582 Q1707.38 318.554 1707.38 320.499 Q1707.38 321.98 1708.51 322.837 Q1709.64 323.67 1713.07 324.434 L1714.53 324.758 Q1719.07 325.73 1720.96 327.512 Q1722.88 329.272 1722.88 332.443 Q1722.88 336.054 1720.01 338.161 Q1717.17 340.267 1712.17 340.267 Q1710.08 340.267 1707.82 339.85 Q1705.57 339.457 1703.07 338.647 L1703.07 334.249 Q1705.43 335.475 1707.72 336.1 Q1710.01 336.702 1712.26 336.702 Q1715.27 336.702 1716.89 335.684 Q1718.51 334.642 1718.51 332.767 Q1718.51 331.031 1717.33 330.105 Q1716.17 329.179 1712.21 328.323 L1710.73 327.975 Q1706.77 327.142 1705.01 325.429 Q1703.26 323.693 1703.26 320.684 Q1703.26 317.026 1705.85 315.036 Q1708.44 313.045 1713.21 313.045 Q1715.57 313.045 1717.65 313.392 Q1719.74 313.739 1721.5 314.434 Z" fill="#000000" fill-rule="evenodd" fill-opacity="1" /><path clip-path="url(#clip370)" d="M1733.88 306.309 L1733.88 313.67 L1742.65 313.67 L1742.65 316.98 L1733.88 316.98 L1733.88 331.054 Q1733.88 334.225 1734.74 335.128 Q1735.62 336.031 1738.28 336.031 L1742.65 336.031 L1742.65 339.596 L1738.28 339.596 Q1733.35 339.596 1731.47 337.767 Q1729.6 335.915 1729.6 331.054 L1729.6 316.98 L1726.47 316.98 L1726.47 313.67 L1729.6 313.67 L1729.6 306.309 L1733.88 306.309 Z" fill="#000000" fill-rule="evenodd" fill-opacity="1" /><path clip-path="url(#clip370)" d="M1770.43 325.568 L1770.43 327.651 L1750.85 327.651 Q1751.13 332.049 1753.49 334.364 Q1755.87 336.656 1760.11 336.656 Q1762.56 336.656 1764.85 336.054 Q1767.17 335.452 1769.44 334.249 L1769.44 338.276 Q1767.14 339.248 1764.74 339.758 Q1762.33 340.267 1759.85 340.267 Q1753.65 340.267 1750.01 336.656 Q1746.4 333.045 1746.4 326.887 Q1746.4 320.522 1749.83 316.795 Q1753.28 313.045 1759.11 313.045 Q1764.34 313.045 1767.38 316.425 Q1770.43 319.781 1770.43 325.568 M1766.17 324.318 Q1766.13 320.823 1764.2 318.739 Q1762.31 316.656 1759.16 316.656 Q1755.59 316.656 1753.44 318.67 Q1751.31 320.684 1750.99 324.341 L1766.17 324.318 Z" fill="#000000" fill-rule="evenodd" fill-opacity="1" /><path clip-path="url(#clip370)" d="M1792.44 317.651 Q1791.73 317.235 1790.87 317.05 Q1790.04 316.841 1789.02 316.841 Q1785.41 316.841 1783.46 319.202 Q1781.54 321.54 1781.54 325.938 L1781.54 339.596 L1777.26 339.596 L1777.26 313.67 L1781.54 313.67 L1781.54 317.698 Q1782.88 315.337 1785.04 314.202 Q1787.19 313.045 1790.27 313.045 Q1790.71 313.045 1791.24 313.114 Q1791.77 313.161 1792.42 313.276 L1792.44 317.651 Z" fill="#000000" fill-rule="evenodd" fill-opacity="1" /><path clip-path="url(#clip370)" d="M1796.91 313.67 L1801.17 313.67 L1801.17 339.596 L1796.91 339.596 L1796.91 313.67 M1796.91 303.577 L1801.17 303.577 L1801.17 308.971 L1796.91 308.971 L1796.91 303.577 Z" fill="#000000" fill-rule="evenodd" fill-opacity="1" /><path clip-path="url(#clip370)" d="M1821.87 326.563 Q1816.7 326.563 1814.71 327.744 Q1812.72 328.924 1812.72 331.772 Q1812.72 334.04 1814.2 335.383 Q1815.71 336.702 1818.28 336.702 Q1821.82 336.702 1823.95 334.202 Q1826.1 331.679 1826.1 327.512 L1826.1 326.563 L1821.87 326.563 M1830.36 324.804 L1830.36 339.596 L1826.1 339.596 L1826.1 335.661 Q1824.64 338.022 1822.47 339.156 Q1820.29 340.267 1817.14 340.267 Q1813.16 340.267 1810.8 338.045 Q1808.46 335.799 1808.46 332.049 Q1808.46 327.674 1811.38 325.452 Q1814.32 323.23 1820.13 323.23 L1826.1 323.23 L1826.1 322.813 Q1826.1 319.874 1824.16 318.276 Q1822.24 316.656 1818.74 316.656 Q1816.52 316.656 1814.41 317.188 Q1812.31 317.721 1810.36 318.786 L1810.36 314.85 Q1812.7 313.948 1814.9 313.508 Q1817.1 313.045 1819.18 313.045 Q1824.81 313.045 1827.58 315.962 Q1830.36 318.878 1830.36 324.804 Z" fill="#000000" fill-rule="evenodd" fill-opacity="1" /><polyline clip-path="url(#clip370)" style="stroke:#008000; stroke-linecap:butt; stroke-linejoin:round; stroke-width:4; stroke-opacity:1; fill:none" points="
  1499.68,374.156 1641.87,374.156 
  "/>
<path clip-path="url(#clip370)" d="M1670.25 374.931 L1670.25 387.593 L1677.75 387.593 Q1681.52 387.593 1683.32 386.042 Q1685.15 384.468 1685.15 381.251 Q1685.15 378.01 1683.32 376.482 Q1681.52 374.931 1677.75 374.931 L1670.25 374.931 M1670.25 360.718 L1670.25 371.135 L1677.17 371.135 Q1680.59 371.135 1682.26 369.862 Q1683.95 368.565 1683.95 365.927 Q1683.95 363.311 1682.26 362.015 Q1680.59 360.718 1677.17 360.718 L1670.25 360.718 M1665.57 356.876 L1677.51 356.876 Q1682.86 356.876 1685.76 359.098 Q1688.65 361.32 1688.65 365.417 Q1688.65 368.589 1687.17 370.464 Q1685.69 372.339 1682.82 372.802 Q1686.26 373.542 1688.16 375.903 Q1690.08 378.241 1690.08 381.76 Q1690.08 386.389 1686.94 388.913 Q1683.79 391.436 1677.98 391.436 L1665.57 391.436 L1665.57 356.876 Z" fill="#000000" fill-rule="evenodd" fill-opacity="1" /><path clip-path="url(#clip370)" d="M1712.93 369.491 Q1712.21 369.075 1711.36 368.89 Q1710.52 368.681 1709.51 368.681 Q1705.89 368.681 1703.95 371.042 Q1702.03 373.38 1702.03 377.778 L1702.03 391.436 L1697.75 391.436 L1697.75 365.51 L1702.03 365.51 L1702.03 369.538 Q1703.37 367.177 1705.52 366.042 Q1707.68 364.885 1710.76 364.885 Q1711.19 364.885 1711.73 364.954 Q1712.26 365.001 1712.91 365.116 L1712.93 369.491 Z" fill="#000000" fill-rule="evenodd" fill-opacity="1" /><path clip-path="url(#clip370)" d="M1726.4 368.496 Q1722.98 368.496 1720.99 371.181 Q1719 373.843 1719 378.496 Q1719 383.149 1720.96 385.834 Q1722.95 388.496 1726.4 388.496 Q1729.81 388.496 1731.8 385.811 Q1733.79 383.126 1733.79 378.496 Q1733.79 373.89 1731.8 371.204 Q1729.81 368.496 1726.4 368.496 M1726.4 364.885 Q1731.96 364.885 1735.13 368.496 Q1738.3 372.107 1738.3 378.496 Q1738.3 384.862 1735.13 388.496 Q1731.96 392.107 1726.4 392.107 Q1720.82 392.107 1717.65 388.496 Q1714.51 384.862 1714.51 378.496 Q1714.51 372.107 1717.65 368.496 Q1720.82 364.885 1726.4 364.885 Z" fill="#000000" fill-rule="evenodd" fill-opacity="1" /><path clip-path="url(#clip370)" d="M1764.02 366.505 L1764.02 370.487 Q1762.21 369.491 1760.38 369.005 Q1758.58 368.496 1756.73 368.496 Q1752.58 368.496 1750.29 371.135 Q1748 373.751 1748 378.496 Q1748 383.241 1750.29 385.88 Q1752.58 388.496 1756.73 388.496 Q1758.58 388.496 1760.38 388.01 Q1762.21 387.501 1764.02 386.505 L1764.02 390.44 Q1762.24 391.274 1760.31 391.69 Q1758.42 392.107 1756.26 392.107 Q1750.41 392.107 1746.96 388.426 Q1743.51 384.746 1743.51 378.496 Q1743.51 372.153 1746.98 368.519 Q1750.48 364.885 1756.54 364.885 Q1758.51 364.885 1760.38 365.302 Q1762.26 365.695 1764.02 366.505 Z" fill="#000000" fill-rule="evenodd" fill-opacity="1" /><path clip-path="url(#clip370)" d="M1792.98 375.788 L1792.98 391.436 L1788.72 391.436 L1788.72 375.927 Q1788.72 372.246 1787.28 370.417 Q1785.85 368.589 1782.98 368.589 Q1779.53 368.589 1777.54 370.788 Q1775.55 372.987 1775.55 376.783 L1775.55 391.436 L1771.26 391.436 L1771.26 355.417 L1775.55 355.417 L1775.55 369.538 Q1777.07 367.2 1779.13 366.042 Q1781.22 364.885 1783.93 364.885 Q1788.39 364.885 1790.69 367.663 Q1792.98 370.417 1792.98 375.788 Z" fill="#000000" fill-rule="evenodd" fill-opacity="1" /><path clip-path="url(#clip370)" d="M1811.52 368.496 Q1808.09 368.496 1806.1 371.181 Q1804.11 373.843 1804.11 378.496 Q1804.11 383.149 1806.08 385.834 Q1808.07 388.496 1811.52 388.496 Q1814.92 388.496 1816.91 385.811 Q1818.9 383.126 1818.9 378.496 Q1818.9 373.89 1816.91 371.204 Q1814.92 368.496 1811.52 368.496 M1811.52 364.885 Q1817.07 364.885 1820.25 368.496 Q1823.42 372.107 1823.42 378.496 Q1823.42 384.862 1820.25 388.496 Q1817.07 392.107 1811.52 392.107 Q1805.94 392.107 1802.77 388.496 Q1799.62 384.862 1799.62 378.496 Q1799.62 372.107 1802.77 368.496 Q1805.94 364.885 1811.52 364.885 Z" fill="#000000" fill-rule="evenodd" fill-opacity="1" /><path clip-path="url(#clip370)" d="M1834.69 358.149 L1834.69 365.51 L1843.46 365.51 L1843.46 368.82 L1834.69 368.82 L1834.69 382.894 Q1834.69 386.065 1835.55 386.968 Q1836.43 387.871 1839.09 387.871 L1843.46 387.871 L1843.46 391.436 L1839.09 391.436 Q1834.16 391.436 1832.28 389.607 Q1830.41 387.755 1830.41 382.894 L1830.41 368.82 L1827.28 368.82 L1827.28 365.51 L1830.41 365.51 L1830.41 358.149 L1834.69 358.149 Z" fill="#000000" fill-rule="evenodd" fill-opacity="1" /><path clip-path="url(#clip370)" d="M1870.62 375.788 L1870.62 391.436 L1866.36 391.436 L1866.36 375.927 Q1866.36 372.246 1864.92 370.417 Q1863.49 368.589 1860.62 368.589 Q1857.17 368.589 1855.18 370.788 Q1853.18 372.987 1853.18 376.783 L1853.18 391.436 L1848.9 391.436 L1848.9 355.417 L1853.18 355.417 L1853.18 369.538 Q1854.71 367.2 1856.77 366.042 Q1858.86 364.885 1861.56 364.885 Q1866.03 364.885 1868.32 367.663 Q1870.62 370.417 1870.62 375.788 Z" fill="#000000" fill-rule="evenodd" fill-opacity="1" /><path clip-path="url(#clip370)" d="M1894.13 369.491 Q1893.42 369.075 1892.56 368.89 Q1891.73 368.681 1890.71 368.681 Q1887.1 368.681 1885.15 371.042 Q1883.23 373.38 1883.23 377.778 L1883.23 391.436 L1878.95 391.436 L1878.95 365.51 L1883.23 365.51 L1883.23 369.538 Q1884.57 367.177 1886.73 366.042 Q1888.88 364.885 1891.96 364.885 Q1892.4 364.885 1892.93 364.954 Q1893.46 365.001 1894.11 365.116 L1894.13 369.491 Z" fill="#000000" fill-rule="evenodd" fill-opacity="1" /><path clip-path="url(#clip370)" d="M1898.6 365.51 L1902.86 365.51 L1902.86 391.436 L1898.6 391.436 L1898.6 365.51 M1898.6 355.417 L1902.86 355.417 L1902.86 360.811 L1898.6 360.811 L1898.6 355.417 Z" fill="#000000" fill-rule="evenodd" fill-opacity="1" /><path clip-path="url(#clip370)" d="M1933.32 365.51 L1923.95 378.126 L1933.81 391.436 L1928.79 391.436 L1921.24 381.251 L1913.69 391.436 L1908.67 391.436 L1918.74 377.871 L1909.53 365.51 L1914.55 365.51 L1921.43 374.746 L1928.3 365.51 L1933.32 365.51 Z" fill="#000000" fill-rule="evenodd" fill-opacity="1" /><path clip-path="url(#clip370)" d="M1959.11 358.149 L1959.11 365.51 L1967.88 365.51 L1967.88 368.82 L1959.11 368.82 L1959.11 382.894 Q1959.11 386.065 1959.97 386.968 Q1960.85 387.871 1963.51 387.871 L1967.88 387.871 L1967.88 391.436 L1963.51 391.436 Q1958.58 391.436 1956.7 389.607 Q1954.83 387.755 1954.83 382.894 L1954.83 368.82 L1951.7 368.82 L1951.7 365.51 L1954.83 365.51 L1954.83 358.149 L1959.11 358.149 Z" fill="#000000" fill-rule="evenodd" fill-opacity="1" /><path clip-path="url(#clip370)" d="M1995.04 375.788 L1995.04 391.436 L1990.78 391.436 L1990.78 375.927 Q1990.78 372.246 1989.34 370.417 Q1987.91 368.589 1985.04 368.589 Q1981.59 368.589 1979.6 370.788 Q1977.61 372.987 1977.61 376.783 L1977.61 391.436 L1973.32 391.436 L1973.32 355.417 L1977.61 355.417 L1977.61 369.538 Q1979.13 367.2 1981.19 366.042 Q1983.28 364.885 1985.99 364.885 Q1990.45 364.885 1992.74 367.663 Q1995.04 370.417 1995.04 375.788 Z" fill="#000000" fill-rule="evenodd" fill-opacity="1" /><path clip-path="url(#clip370)" d="M2025.71 377.408 L2025.71 379.491 L2006.12 379.491 Q2006.4 383.889 2008.76 386.204 Q2011.15 388.496 2015.38 388.496 Q2017.84 388.496 2020.13 387.894 Q2022.44 387.292 2024.71 386.089 L2024.71 390.116 Q2022.42 391.088 2020.01 391.598 Q2017.61 392.107 2015.13 392.107 Q2008.92 392.107 2005.29 388.496 Q2001.68 384.885 2001.68 378.727 Q2001.68 372.362 2005.11 368.635 Q2008.55 364.885 2014.39 364.885 Q2019.62 364.885 2022.65 368.265 Q2025.71 371.621 2025.71 377.408 M2021.45 376.158 Q2021.4 372.663 2019.48 370.579 Q2017.58 368.496 2014.43 368.496 Q2010.87 368.496 2008.72 370.51 Q2006.59 372.524 2006.26 376.181 L2021.45 376.158 Z" fill="#000000" fill-rule="evenodd" fill-opacity="1" /><path clip-path="url(#clip370)" d="M2047.72 369.491 Q2047 369.075 2046.15 368.89 Q2045.31 368.681 2044.29 368.681 Q2040.68 368.681 2038.74 371.042 Q2036.82 373.38 2036.82 377.778 L2036.82 391.436 L2032.54 391.436 L2032.54 365.51 L2036.82 365.51 L2036.82 369.538 Q2038.16 367.177 2040.31 366.042 Q2042.47 364.885 2045.54 364.885 Q2045.98 364.885 2046.52 364.954 Q2047.05 365.001 2047.7 365.116 L2047.72 369.491 Z" fill="#000000" fill-rule="evenodd" fill-opacity="1" /><path clip-path="url(#clip370)" d="M2071.54 370.487 Q2073.14 367.616 2075.36 366.251 Q2077.58 364.885 2080.59 364.885 Q2084.64 364.885 2086.84 367.732 Q2089.04 370.556 2089.04 375.788 L2089.04 391.436 L2084.76 391.436 L2084.76 375.927 Q2084.76 372.2 2083.44 370.394 Q2082.12 368.589 2079.41 368.589 Q2076.1 368.589 2074.18 370.788 Q2072.26 372.987 2072.26 376.783 L2072.26 391.436 L2067.98 391.436 L2067.98 375.927 Q2067.98 372.177 2066.66 370.394 Q2065.34 368.589 2062.58 368.589 Q2059.32 368.589 2057.4 370.811 Q2055.48 373.01 2055.48 376.783 L2055.48 391.436 L2051.19 391.436 L2051.19 365.51 L2055.48 365.51 L2055.48 369.538 Q2056.93 367.153 2058.97 366.019 Q2061.01 364.885 2063.81 364.885 Q2066.63 364.885 2068.6 366.32 Q2070.59 367.755 2071.54 370.487 Z" fill="#000000" fill-rule="evenodd" fill-opacity="1" /><path clip-path="url(#clip370)" d="M2107.58 368.496 Q2104.16 368.496 2102.17 371.181 Q2100.17 373.843 2100.17 378.496 Q2100.17 383.149 2102.14 385.834 Q2104.13 388.496 2107.58 388.496 Q2110.98 388.496 2112.98 385.811 Q2114.97 383.126 2114.97 378.496 Q2114.97 373.89 2112.98 371.204 Q2110.98 368.496 2107.58 368.496 M2107.58 364.885 Q2113.14 364.885 2116.31 368.496 Q2119.48 372.107 2119.48 378.496 Q2119.48 384.862 2116.31 388.496 Q2113.14 392.107 2107.58 392.107 Q2102 392.107 2098.83 388.496 Q2095.68 384.862 2095.68 378.496 Q2095.68 372.107 2098.83 368.496 Q2102 364.885 2107.58 364.885 Z" fill="#000000" fill-rule="evenodd" fill-opacity="1" /><path clip-path="url(#clip370)" d="M2143.07 366.274 L2143.07 370.302 Q2141.26 369.376 2139.32 368.913 Q2137.37 368.45 2135.29 368.45 Q2132.12 368.45 2130.52 369.422 Q2128.95 370.394 2128.95 372.339 Q2128.95 373.82 2130.08 374.677 Q2131.22 375.51 2134.64 376.274 L2136.1 376.598 Q2140.64 377.57 2142.54 379.352 Q2144.46 381.112 2144.46 384.283 Q2144.46 387.894 2141.59 390.001 Q2138.74 392.107 2133.74 392.107 Q2131.66 392.107 2129.39 391.69 Q2127.14 391.297 2124.64 390.487 L2124.64 386.089 Q2127 387.315 2129.29 387.94 Q2131.59 388.542 2133.83 388.542 Q2136.84 388.542 2138.46 387.524 Q2140.08 386.482 2140.08 384.607 Q2140.08 382.871 2138.9 381.945 Q2137.74 381.019 2133.79 380.163 L2132.3 379.815 Q2128.35 378.982 2126.59 377.269 Q2124.83 375.533 2124.83 372.524 Q2124.83 368.866 2127.42 366.876 Q2130.01 364.885 2134.78 364.885 Q2137.14 364.885 2139.22 365.232 Q2141.31 365.579 2143.07 366.274 Z" fill="#000000" fill-rule="evenodd" fill-opacity="1" /><path clip-path="url(#clip370)" d="M2155.36 387.547 L2155.36 401.297 L2151.08 401.297 L2151.08 365.51 L2155.36 365.51 L2155.36 369.445 Q2156.7 367.13 2158.74 366.019 Q2160.8 364.885 2163.65 364.885 Q2168.37 364.885 2171.31 368.635 Q2174.27 372.385 2174.27 378.496 Q2174.27 384.607 2171.31 388.357 Q2168.37 392.107 2163.65 392.107 Q2160.8 392.107 2158.74 390.996 Q2156.7 389.862 2155.36 387.547 M2169.85 378.496 Q2169.85 373.797 2167.91 371.135 Q2165.98 368.45 2162.6 368.45 Q2159.22 368.45 2157.28 371.135 Q2155.36 373.797 2155.36 378.496 Q2155.36 383.195 2157.28 385.88 Q2159.22 388.542 2162.6 388.542 Q2165.98 388.542 2167.91 385.88 Q2169.85 383.195 2169.85 378.496 Z" fill="#000000" fill-rule="evenodd" fill-opacity="1" /><path clip-path="url(#clip370)" d="M2202.88 375.788 L2202.88 391.436 L2198.62 391.436 L2198.62 375.927 Q2198.62 372.246 2197.19 370.417 Q2195.75 368.589 2192.88 368.589 Q2189.43 368.589 2187.44 370.788 Q2185.45 372.987 2185.45 376.783 L2185.45 391.436 L2181.17 391.436 L2181.17 355.417 L2185.45 355.417 L2185.45 369.538 Q2186.98 367.2 2189.04 366.042 Q2191.12 364.885 2193.83 364.885 Q2198.3 364.885 2200.59 367.663 Q2202.88 370.417 2202.88 375.788 Z" fill="#000000" fill-rule="evenodd" fill-opacity="1" /><path clip-path="url(#clip370)" d="M2223.16 378.403 Q2218 378.403 2216.01 379.584 Q2214.02 380.764 2214.02 383.612 Q2214.02 385.88 2215.5 387.223 Q2217 388.542 2219.57 388.542 Q2223.11 388.542 2225.24 386.042 Q2227.4 383.519 2227.4 379.352 L2227.4 378.403 L2223.16 378.403 M2231.66 376.644 L2231.66 391.436 L2227.4 391.436 L2227.4 387.501 Q2225.94 389.862 2223.76 390.996 Q2221.59 392.107 2218.44 392.107 Q2214.46 392.107 2212.09 389.885 Q2209.76 387.639 2209.76 383.889 Q2209.76 379.514 2212.67 377.292 Q2215.61 375.07 2221.42 375.07 L2227.4 375.07 L2227.4 374.653 Q2227.4 371.714 2225.45 370.116 Q2223.53 368.496 2220.03 368.496 Q2217.81 368.496 2215.71 369.028 Q2213.6 369.561 2211.66 370.626 L2211.66 366.69 Q2213.99 365.788 2216.19 365.348 Q2218.39 364.885 2220.47 364.885 Q2226.1 364.885 2228.88 367.802 Q2231.66 370.718 2231.66 376.644 Z" fill="#000000" fill-rule="evenodd" fill-opacity="1" /><path clip-path="url(#clip370)" d="M2259.09 366.505 L2259.09 370.487 Q2257.28 369.491 2255.45 369.005 Q2253.65 368.496 2251.79 368.496 Q2247.65 368.496 2245.36 371.135 Q2243.07 373.751 2243.07 378.496 Q2243.07 383.241 2245.36 385.88 Q2247.65 388.496 2251.79 388.496 Q2253.65 388.496 2255.45 388.01 Q2257.28 387.501 2259.09 386.505 L2259.09 390.44 Q2257.3 391.274 2255.38 391.69 Q2253.48 392.107 2251.33 392.107 Q2245.47 392.107 2242.03 388.426 Q2238.58 384.746 2238.58 378.496 Q2238.58 372.153 2242.05 368.519 Q2245.54 364.885 2251.61 364.885 Q2253.58 364.885 2255.45 365.302 Q2257.33 365.695 2259.09 366.505 Z" fill="#000000" fill-rule="evenodd" fill-opacity="1" /><path clip-path="url(#clip370)" d="M2270.71 358.149 L2270.71 365.51 L2279.48 365.51 L2279.48 368.82 L2270.71 368.82 L2270.71 382.894 Q2270.71 386.065 2271.56 386.968 Q2272.44 387.871 2275.1 387.871 L2279.48 387.871 L2279.48 391.436 L2275.1 391.436 Q2270.17 391.436 2268.3 389.607 Q2266.42 387.755 2266.42 382.894 L2266.42 368.82 L2263.3 368.82 L2263.3 365.51 L2266.42 365.51 L2266.42 358.149 L2270.71 358.149 Z" fill="#000000" fill-rule="evenodd" fill-opacity="1" /><path clip-path="url(#clip370)" d="M2296.86 378.403 Q2291.7 378.403 2289.71 379.584 Q2287.72 380.764 2287.72 383.612 Q2287.72 385.88 2289.2 387.223 Q2290.71 388.542 2293.28 388.542 Q2296.82 388.542 2298.95 386.042 Q2301.1 383.519 2301.1 379.352 L2301.1 378.403 L2296.86 378.403 M2305.36 376.644 L2305.36 391.436 L2301.1 391.436 L2301.1 387.501 Q2299.64 389.862 2297.46 390.996 Q2295.29 392.107 2292.14 392.107 Q2288.16 392.107 2285.8 389.885 Q2283.46 387.639 2283.46 383.889 Q2283.46 379.514 2286.38 377.292 Q2289.32 375.07 2295.13 375.07 L2301.1 375.07 L2301.1 374.653 Q2301.1 371.714 2299.15 370.116 Q2297.23 368.496 2293.74 368.496 Q2291.52 368.496 2289.41 369.028 Q2287.3 369.561 2285.36 370.626 L2285.36 366.69 Q2287.7 365.788 2289.9 365.348 Q2292.09 364.885 2294.18 364.885 Q2299.8 364.885 2302.58 367.802 Q2305.36 370.718 2305.36 376.644 Z" fill="#000000" fill-rule="evenodd" fill-opacity="1" /></svg>
