<?xml version="1.0" encoding="utf-8"?>
<svg xmlns="http://www.w3.org/2000/svg" xmlns:xlink="http://www.w3.org/1999/xlink" width="600" height="400" viewBox="0 0 2400 1600">
<defs>
  <clipPath id="clip190">
    <rect x="0" y="0" width="2400" height="1600"/>
  </clipPath>
</defs>
<path clip-path="url(#clip190)" d="
M0 1600 L2400 1600 L2400 0 L0 0  Z
  " fill="#ffffff" fill-rule="evenodd" fill-opacity="1"/>
<defs>
  <clipPath id="clip191">
    <rect x="480" y="0" width="1681" height="1600"/>
  </clipPath>
</defs>
<path clip-path="url(#clip190)" d="
M211.325 1423.18 L2352.76 1423.18 L2352.76 123.472 L211.325 123.472  Z
  " fill="#ffffff" fill-rule="evenodd" fill-opacity="1"/>
<defs>
  <clipPath id="clip192">
    <rect x="211" y="123" width="2142" height="1301"/>
  </clipPath>
</defs>
<polyline clip-path="url(#clip192)" style="stroke:#000000; stroke-linecap:butt; stroke-linejoin:round; stroke-width:2; stroke-opacity:0.1; fill:none" points="
  211.325,1423.18 211.325,123.472 
  "/>
<polyline clip-path="url(#clip192)" style="stroke:#000000; stroke-linecap:butt; stroke-linejoin:round; stroke-width:2; stroke-opacity:0.1; fill:none" points="
  746.682,1423.18 746.682,123.472 
  "/>
<polyline clip-path="url(#clip192)" style="stroke:#000000; stroke-linecap:butt; stroke-linejoin:round; stroke-width:2; stroke-opacity:0.1; fill:none" points="
  1282.04,1423.18 1282.04,123.472 
  "/>
<polyline clip-path="url(#clip192)" style="stroke:#000000; stroke-linecap:butt; stroke-linejoin:round; stroke-width:2; stroke-opacity:0.1; fill:none" points="
  1817.4,1423.18 1817.4,123.472 
  "/>
<polyline clip-path="url(#clip192)" style="stroke:#000000; stroke-linecap:butt; stroke-linejoin:round; stroke-width:2; stroke-opacity:0.1; fill:none" points="
  2352.76,1423.18 2352.76,123.472 
  "/>
<polyline clip-path="url(#clip190)" style="stroke:#000000; stroke-linecap:butt; stroke-linejoin:round; stroke-width:4; stroke-opacity:1; fill:none" points="
  211.325,1423.18 2352.76,1423.18 
  "/>
<polyline clip-path="url(#clip190)" style="stroke:#000000; stroke-linecap:butt; stroke-linejoin:round; stroke-width:4; stroke-opacity:1; fill:none" points="
  211.325,1423.18 211.325,1404.28 
  "/>
<polyline clip-path="url(#clip190)" style="stroke:#000000; stroke-linecap:butt; stroke-linejoin:round; stroke-width:4; stroke-opacity:1; fill:none" points="
  746.682,1423.18 746.682,1404.28 
  "/>
<polyline clip-path="url(#clip190)" style="stroke:#000000; stroke-linecap:butt; stroke-linejoin:round; stroke-width:4; stroke-opacity:1; fill:none" points="
  1282.04,1423.18 1282.04,1404.28 
  "/>
<polyline clip-path="url(#clip190)" style="stroke:#000000; stroke-linecap:butt; stroke-linejoin:round; stroke-width:4; stroke-opacity:1; fill:none" points="
  1817.4,1423.18 1817.4,1404.28 
  "/>
<polyline clip-path="url(#clip190)" style="stroke:#000000; stroke-linecap:butt; stroke-linejoin:round; stroke-width:4; stroke-opacity:1; fill:none" points="
  2352.76,1423.18 2352.76,1404.28 
  "/>
<path clip-path="url(#clip190)" d="M180.225 1467.02 L209.901 1467.02 L209.901 1470.96 L180.225 1470.96 L180.225 1467.02 Z" fill="#000000" fill-rule="evenodd" fill-opacity="1" /><path clip-path="url(#clip190)" d="M232.841 1453.37 L221.035 1471.81 L232.841 1471.81 L232.841 1453.37 M231.614 1449.29 L237.493 1449.29 L237.493 1471.81 L242.424 1471.81 L242.424 1475.7 L237.493 1475.7 L237.493 1483.85 L232.841 1483.85 L232.841 1475.7 L217.239 1475.7 L217.239 1471.19 L231.614 1449.29 Z" fill="#000000" fill-rule="evenodd" fill-opacity="1" /><path clip-path="url(#clip190)" d="M716.625 1467.02 L746.301 1467.02 L746.301 1470.96 L716.625 1470.96 L716.625 1467.02 Z" fill="#000000" fill-rule="evenodd" fill-opacity="1" /><path clip-path="url(#clip190)" d="M760.421 1479.92 L776.74 1479.92 L776.74 1483.85 L754.796 1483.85 L754.796 1479.92 Q757.458 1477.16 762.041 1472.53 Q766.648 1467.88 767.828 1466.54 Q770.074 1464.01 770.953 1462.28 Q771.856 1460.52 771.856 1458.83 Q771.856 1456.07 769.912 1454.34 Q767.99 1452.6 764.888 1452.6 Q762.689 1452.6 760.236 1453.37 Q757.805 1454.13 755.027 1455.68 L755.027 1450.96 Q757.851 1449.82 760.305 1449.25 Q762.759 1448.67 764.796 1448.67 Q770.166 1448.67 773.361 1451.35 Q776.555 1454.04 776.555 1458.53 Q776.555 1460.66 775.745 1462.58 Q774.958 1464.48 772.851 1467.07 Q772.273 1467.74 769.171 1470.96 Q766.069 1474.15 760.421 1479.92 Z" fill="#000000" fill-rule="evenodd" fill-opacity="1" /><path clip-path="url(#clip190)" d="M1282.04 1452.37 Q1278.43 1452.37 1276.6 1455.94 Q1274.79 1459.48 1274.79 1466.61 Q1274.79 1473.71 1276.6 1477.28 Q1278.43 1480.82 1282.04 1480.82 Q1285.67 1480.82 1287.48 1477.28 Q1289.31 1473.71 1289.31 1466.61 Q1289.31 1459.48 1287.48 1455.94 Q1285.67 1452.37 1282.04 1452.37 M1282.04 1448.67 Q1287.85 1448.67 1290.91 1453.27 Q1293.98 1457.86 1293.98 1466.61 Q1293.98 1475.33 1290.91 1479.94 Q1287.85 1484.52 1282.04 1484.52 Q1276.23 1484.52 1273.15 1479.94 Q1270.1 1475.33 1270.1 1466.61 Q1270.1 1457.86 1273.15 1453.27 Q1276.23 1448.67 1282.04 1448.67 Z" fill="#000000" fill-rule="evenodd" fill-opacity="1" /><path clip-path="url(#clip190)" d="M1812.05 1479.92 L1828.37 1479.92 L1828.37 1483.85 L1806.43 1483.85 L1806.43 1479.92 Q1809.09 1477.16 1813.67 1472.53 Q1818.28 1467.88 1819.46 1466.54 Q1821.7 1464.01 1822.58 1462.28 Q1823.49 1460.52 1823.49 1458.83 Q1823.49 1456.07 1821.54 1454.34 Q1819.62 1452.6 1816.52 1452.6 Q1814.32 1452.6 1811.87 1453.37 Q1809.44 1454.13 1806.66 1455.68 L1806.66 1450.96 Q1809.48 1449.82 1811.94 1449.25 Q1814.39 1448.67 1816.43 1448.67 Q1821.8 1448.67 1824.99 1451.35 Q1828.19 1454.04 1828.19 1458.53 Q1828.19 1460.66 1827.37 1462.58 Q1826.59 1464.48 1824.48 1467.07 Q1823.9 1467.74 1820.8 1470.96 Q1817.7 1474.15 1812.05 1479.92 Z" fill="#000000" fill-rule="evenodd" fill-opacity="1" /><path clip-path="url(#clip190)" d="M2355.77 1453.37 L2343.96 1471.81 L2355.77 1471.81 L2355.77 1453.37 M2354.54 1449.29 L2360.42 1449.29 L2360.42 1471.81 L2365.35 1471.81 L2365.35 1475.7 L2360.42 1475.7 L2360.42 1483.85 L2355.77 1483.85 L2355.77 1475.7 L2340.16 1475.7 L2340.16 1471.19 L2354.54 1449.29 Z" fill="#000000" fill-rule="evenodd" fill-opacity="1" /><path clip-path="url(#clip190)" d="M778.99 1537.87 Q778.004 1537.3 776.826 1537.04 Q775.68 1536.76 774.28 1536.76 Q769.314 1536.76 766.641 1540 Q763.999 1543.22 763.999 1549.27 L763.999 1568.04 L758.111 1568.04 L758.111 1532.4 L763.999 1532.4 L763.999 1537.93 Q765.845 1534.69 768.805 1533.13 Q771.765 1531.54 775.998 1531.54 Q776.603 1531.54 777.335 1531.63 Q778.067 1531.7 778.958 1531.85 L778.99 1537.87 Z" fill="#000000" fill-rule="evenodd" fill-opacity="1" /><path clip-path="url(#clip190)" d="M814.193 1548.76 L814.193 1551.62 L787.266 1551.62 Q787.648 1557.67 790.894 1560.85 Q794.173 1564 799.997 1564 Q803.371 1564 806.522 1563.17 Q809.705 1562.35 812.824 1560.69 L812.824 1566.23 Q809.673 1567.57 806.363 1568.27 Q803.053 1568.97 799.647 1568.97 Q791.117 1568.97 786.12 1564 Q781.155 1559.04 781.155 1550.57 Q781.155 1541.82 785.865 1536.69 Q790.608 1531.54 798.629 1531.54 Q805.822 1531.54 809.991 1536.18 Q814.193 1540.8 814.193 1548.76 M808.336 1547.04 Q808.273 1542.23 805.631 1539.37 Q803.021 1536.5 798.692 1536.5 Q793.791 1536.5 790.831 1539.27 Q787.902 1542.04 787.457 1547.07 L808.336 1547.04 Z" fill="#000000" fill-rule="evenodd" fill-opacity="1" /><path clip-path="url(#clip190)" d="M823.805 1518.52 L829.661 1518.52 L829.661 1568.04 L823.805 1568.04 L823.805 1518.52 Z" fill="#000000" fill-rule="evenodd" fill-opacity="1" /><path clip-path="url(#clip190)" d="M858.116 1550.12 Q851.018 1550.12 848.281 1551.75 Q845.544 1553.37 845.544 1557.29 Q845.544 1560.4 847.581 1562.25 Q849.65 1564.07 853.183 1564.07 Q858.052 1564.07 860.981 1560.63 Q863.941 1557.16 863.941 1551.43 L863.941 1550.12 L858.116 1550.12 M869.797 1547.71 L869.797 1568.04 L863.941 1568.04 L863.941 1562.63 Q861.935 1565.88 858.944 1567.44 Q855.952 1568.97 851.623 1568.97 Q846.149 1568.97 842.902 1565.91 Q839.687 1562.82 839.687 1557.67 Q839.687 1551.65 843.698 1548.6 Q847.74 1545.54 855.729 1545.54 L863.941 1545.54 L863.941 1544.97 Q863.941 1540.93 861.267 1538.73 Q858.625 1536.5 853.819 1536.5 Q850.764 1536.5 847.867 1537.23 Q844.971 1537.97 842.297 1539.43 L842.297 1534.02 Q845.512 1532.78 848.536 1532.17 Q851.559 1531.54 854.424 1531.54 Q862.158 1531.54 865.978 1535.55 Q869.797 1539.56 869.797 1547.71 Z" fill="#000000" fill-rule="evenodd" fill-opacity="1" /><path clip-path="url(#clip190)" d="M887.653 1522.27 L887.653 1532.4 L899.716 1532.4 L899.716 1536.95 L887.653 1536.95 L887.653 1556.3 Q887.653 1560.66 888.831 1561.9 Q890.04 1563.14 893.7 1563.14 L899.716 1563.14 L899.716 1568.04 L893.7 1568.04 Q886.921 1568.04 884.343 1565.53 Q881.765 1562.98 881.765 1556.3 L881.765 1536.95 L877.468 1536.95 L877.468 1532.4 L881.765 1532.4 L881.765 1522.27 L887.653 1522.27 Z" fill="#000000" fill-rule="evenodd" fill-opacity="1" /><path clip-path="url(#clip190)" d="M907.418 1532.4 L913.275 1532.4 L913.275 1568.04 L907.418 1568.04 L907.418 1532.4 M907.418 1518.52 L913.275 1518.52 L913.275 1525.93 L907.418 1525.93 L907.418 1518.52 Z" fill="#000000" fill-rule="evenodd" fill-opacity="1" /><path clip-path="url(#clip190)" d="M921.328 1532.4 L927.534 1532.4 L938.674 1562.31 L949.814 1532.4 L956.021 1532.4 L942.653 1568.04 L934.695 1568.04 L921.328 1532.4 Z" fill="#000000" fill-rule="evenodd" fill-opacity="1" /><path clip-path="url(#clip190)" d="M994.597 1548.76 L994.597 1551.62 L967.67 1551.62 Q968.052 1557.67 971.298 1560.85 Q974.577 1564 980.401 1564 Q983.775 1564 986.926 1563.17 Q990.109 1562.35 993.228 1560.69 L993.228 1566.23 Q990.077 1567.57 986.767 1568.27 Q983.457 1568.97 980.051 1568.97 Q971.521 1568.97 966.524 1564 Q961.559 1559.04 961.559 1550.57 Q961.559 1541.82 966.269 1536.69 Q971.012 1531.54 979.033 1531.54 Q986.226 1531.54 990.395 1536.18 Q994.597 1540.8 994.597 1548.76 M988.74 1547.04 Q988.677 1542.23 986.035 1539.37 Q983.425 1536.5 979.096 1536.5 Q974.195 1536.5 971.235 1539.27 Q968.306 1542.04 967.861 1547.07 L988.74 1547.04 Z" fill="#000000" fill-rule="evenodd" fill-opacity="1" /><path clip-path="url(#clip190)" d="M1054.56 1532.4 L1041.67 1549.74 L1055.23 1568.04 L1048.32 1568.04 L1037.95 1554.04 L1027.57 1568.04 L1020.66 1568.04 L1034.51 1549.39 L1021.84 1532.4 L1028.75 1532.4 L1038.2 1545.1 L1047.65 1532.4 L1054.56 1532.4 Z" fill="#000000" fill-rule="evenodd" fill-opacity="1" /><path clip-path="url(#clip190)" d="M1080.02 1532.4 L1086.23 1532.4 L1097.37 1562.31 L1108.51 1532.4 L1114.72 1532.4 L1101.35 1568.04 L1093.39 1568.04 L1080.02 1532.4 Z" fill="#000000" fill-rule="evenodd" fill-opacity="1" /><path clip-path="url(#clip190)" d="M1139 1550.12 Q1131.91 1550.12 1129.17 1551.75 Q1126.43 1553.37 1126.43 1557.29 Q1126.43 1560.4 1128.47 1562.25 Q1130.54 1564.07 1134.07 1564.07 Q1138.94 1564.07 1141.87 1560.63 Q1144.83 1557.16 1144.83 1551.43 L1144.83 1550.12 L1139 1550.12 M1150.68 1547.71 L1150.68 1568.04 L1144.83 1568.04 L1144.83 1562.63 Q1142.82 1565.88 1139.83 1567.44 Q1136.84 1568.97 1132.51 1568.97 Q1127.04 1568.97 1123.79 1565.91 Q1120.57 1562.82 1120.57 1557.67 Q1120.57 1551.65 1124.58 1548.6 Q1128.63 1545.54 1136.62 1545.54 L1144.83 1545.54 L1144.83 1544.97 Q1144.83 1540.93 1142.15 1538.73 Q1139.51 1536.5 1134.71 1536.5 Q1131.65 1536.5 1128.75 1537.23 Q1125.86 1537.97 1123.18 1539.43 L1123.18 1534.02 Q1126.4 1532.78 1129.42 1532.17 Q1132.45 1531.54 1135.31 1531.54 Q1143.05 1531.54 1146.86 1535.55 Q1150.68 1539.56 1150.68 1547.71 Z" fill="#000000" fill-rule="evenodd" fill-opacity="1" /><path clip-path="url(#clip190)" d="M1162.75 1518.52 L1168.6 1518.52 L1168.6 1568.04 L1162.75 1568.04 L1162.75 1518.52 Z" fill="#000000" fill-rule="evenodd" fill-opacity="1" /><path clip-path="url(#clip190)" d="M1180.25 1553.98 L1180.25 1532.4 L1186.11 1532.4 L1186.11 1553.75 Q1186.11 1558.81 1188.08 1561.36 Q1190.06 1563.87 1194 1563.87 Q1198.75 1563.87 1201.48 1560.85 Q1204.25 1557.83 1204.25 1552.61 L1204.25 1532.4 L1210.11 1532.4 L1210.11 1568.04 L1204.25 1568.04 L1204.25 1562.57 Q1202.12 1565.82 1199.29 1567.41 Q1196.49 1568.97 1192.76 1568.97 Q1186.62 1568.97 1183.44 1565.15 Q1180.25 1561.33 1180.25 1553.98 M1194.99 1531.54 L1194.99 1531.54 Z" fill="#000000" fill-rule="evenodd" fill-opacity="1" /><path clip-path="url(#clip190)" d="M1252.66 1548.76 L1252.66 1551.62 L1225.74 1551.62 Q1226.12 1557.67 1229.36 1560.85 Q1232.64 1564 1238.47 1564 Q1241.84 1564 1244.99 1563.17 Q1248.17 1562.35 1251.29 1560.69 L1251.29 1566.23 Q1248.14 1567.57 1244.83 1568.27 Q1241.52 1568.97 1238.12 1568.97 Q1229.59 1568.97 1224.59 1564 Q1219.62 1559.04 1219.62 1550.57 Q1219.62 1541.82 1224.34 1536.69 Q1229.08 1531.54 1237.1 1531.54 Q1244.29 1531.54 1248.46 1536.18 Q1252.66 1540.8 1252.66 1548.76 M1246.81 1547.04 Q1246.74 1542.23 1244.1 1539.37 Q1241.49 1536.5 1237.16 1536.5 Q1232.26 1536.5 1229.3 1539.27 Q1226.37 1542.04 1225.93 1547.07 L1246.81 1547.04 Z" fill="#000000" fill-rule="evenodd" fill-opacity="1" /><path clip-path="url(#clip190)" d="M1301.04 1518.52 L1301.04 1523.39 L1295.44 1523.39 Q1292.29 1523.39 1291.05 1524.66 Q1289.84 1525.93 1289.84 1529.24 L1289.84 1532.4 L1299.48 1532.4 L1299.48 1536.95 L1289.84 1536.95 L1289.84 1568.04 L1283.95 1568.04 L1283.95 1536.95 L1278.35 1536.95 L1278.35 1532.4 L1283.95 1532.4 L1283.95 1529.91 Q1283.95 1523.96 1286.72 1521.26 Q1289.49 1518.52 1295.5 1518.52 L1301.04 1518.52 Z" fill="#000000" fill-rule="evenodd" fill-opacity="1" /><path clip-path="url(#clip190)" d="M1326.6 1537.87 Q1325.61 1537.3 1324.44 1537.04 Q1323.29 1536.76 1321.89 1536.76 Q1316.92 1536.76 1314.25 1540 Q1311.61 1543.22 1311.61 1549.27 L1311.61 1568.04 L1305.72 1568.04 L1305.72 1532.4 L1311.61 1532.4 L1311.61 1537.93 Q1313.46 1534.69 1316.42 1533.13 Q1319.38 1531.54 1323.61 1531.54 Q1324.21 1531.54 1324.95 1531.63 Q1325.68 1531.7 1326.57 1531.85 L1326.6 1537.87 Z" fill="#000000" fill-rule="evenodd" fill-opacity="1" /><path clip-path="url(#clip190)" d="M1345.12 1536.5 Q1340.41 1536.5 1337.68 1540.19 Q1334.94 1543.85 1334.94 1550.25 Q1334.94 1556.65 1337.64 1560.34 Q1340.38 1564 1345.12 1564 Q1349.8 1564 1352.54 1560.31 Q1355.28 1556.62 1355.28 1550.25 Q1355.28 1543.92 1352.54 1540.23 Q1349.8 1536.5 1345.12 1536.5 M1345.12 1531.54 Q1352.76 1531.54 1357.12 1536.5 Q1361.48 1541.47 1361.48 1550.25 Q1361.48 1559 1357.12 1564 Q1352.76 1568.97 1345.12 1568.97 Q1337.45 1568.97 1333.09 1564 Q1328.76 1559 1328.76 1550.25 Q1328.76 1541.47 1333.09 1536.5 Q1337.45 1531.54 1345.12 1531.54 Z" fill="#000000" fill-rule="evenodd" fill-opacity="1" /><path clip-path="url(#clip190)" d="M1398.95 1539.24 Q1401.14 1535.29 1404.2 1533.41 Q1407.25 1531.54 1411.39 1531.54 Q1416.96 1531.54 1419.99 1535.45 Q1423.01 1539.33 1423.01 1546.53 L1423.01 1568.04 L1417.12 1568.04 L1417.12 1546.72 Q1417.12 1541.59 1415.31 1539.11 Q1413.49 1536.63 1409.77 1536.63 Q1405.22 1536.63 1402.57 1539.65 Q1399.93 1542.68 1399.93 1547.9 L1399.93 1568.04 L1394.04 1568.04 L1394.04 1546.72 Q1394.04 1541.56 1392.23 1539.11 Q1390.42 1536.63 1386.63 1536.63 Q1382.14 1536.63 1379.5 1539.68 Q1376.86 1542.71 1376.86 1547.9 L1376.86 1568.04 L1370.97 1568.04 L1370.97 1532.4 L1376.86 1532.4 L1376.86 1537.93 Q1378.86 1534.66 1381.66 1533.1 Q1384.46 1531.54 1388.32 1531.54 Q1392.2 1531.54 1394.9 1533.51 Q1397.64 1535.48 1398.95 1539.24 Z" fill="#000000" fill-rule="evenodd" fill-opacity="1" /><path clip-path="url(#clip190)" d="M1481.06 1533.76 L1481.06 1539.24 Q1478.58 1537.87 1476.07 1537.2 Q1473.58 1536.5 1471.04 1536.5 Q1465.34 1536.5 1462.19 1540.13 Q1459.04 1543.73 1459.04 1550.25 Q1459.04 1556.78 1462.19 1560.4 Q1465.34 1564 1471.04 1564 Q1473.58 1564 1476.07 1563.33 Q1478.58 1562.63 1481.06 1561.26 L1481.06 1566.68 Q1478.61 1567.82 1475.97 1568.39 Q1473.36 1568.97 1470.4 1568.97 Q1462.35 1568.97 1457.61 1563.91 Q1452.86 1558.85 1452.86 1550.25 Q1452.86 1541.53 1457.64 1536.53 Q1462.44 1531.54 1470.78 1531.54 Q1473.49 1531.54 1476.07 1532.11 Q1478.65 1532.65 1481.06 1533.76 Z" fill="#000000" fill-rule="evenodd" fill-opacity="1" /><path clip-path="url(#clip190)" d="M1521.74 1548.76 L1521.74 1551.62 L1494.81 1551.62 Q1495.2 1557.67 1498.44 1560.85 Q1501.72 1564 1507.55 1564 Q1510.92 1564 1514.07 1563.17 Q1517.25 1562.35 1520.37 1560.69 L1520.37 1566.23 Q1517.22 1567.57 1513.91 1568.27 Q1510.6 1568.97 1507.2 1568.97 Q1498.67 1568.97 1493.67 1564 Q1488.7 1559.04 1488.7 1550.57 Q1488.7 1541.82 1493.41 1536.69 Q1498.16 1531.54 1506.18 1531.54 Q1513.37 1531.54 1517.54 1536.18 Q1521.74 1540.8 1521.74 1548.76 M1515.88 1547.04 Q1515.82 1542.23 1513.18 1539.37 Q1510.57 1536.5 1506.24 1536.5 Q1501.34 1536.5 1498.38 1539.27 Q1495.45 1542.04 1495 1547.07 L1515.88 1547.04 Z" fill="#000000" fill-rule="evenodd" fill-opacity="1" /><path clip-path="url(#clip190)" d="M1560.99 1546.53 L1560.99 1568.04 L1555.13 1568.04 L1555.13 1546.72 Q1555.13 1541.66 1553.16 1539.14 Q1551.18 1536.63 1547.24 1536.63 Q1542.49 1536.63 1539.76 1539.65 Q1537.02 1542.68 1537.02 1547.9 L1537.02 1568.04 L1531.13 1568.04 L1531.13 1532.4 L1537.02 1532.4 L1537.02 1537.93 Q1539.12 1534.72 1541.95 1533.13 Q1544.82 1531.54 1548.54 1531.54 Q1554.68 1531.54 1557.83 1535.36 Q1560.99 1539.14 1560.99 1546.53 Z" fill="#000000" fill-rule="evenodd" fill-opacity="1" /><path clip-path="url(#clip190)" d="M1578.46 1522.27 L1578.46 1532.4 L1590.52 1532.4 L1590.52 1536.95 L1578.46 1536.95 L1578.46 1556.3 Q1578.46 1560.66 1579.64 1561.9 Q1580.85 1563.14 1584.51 1563.14 L1590.52 1563.14 L1590.52 1568.04 L1584.51 1568.04 Q1577.73 1568.04 1575.15 1565.53 Q1572.57 1562.98 1572.57 1556.3 L1572.57 1536.95 L1568.27 1536.95 L1568.27 1532.4 L1572.57 1532.4 L1572.57 1522.27 L1578.46 1522.27 Z" fill="#000000" fill-rule="evenodd" fill-opacity="1" /><path clip-path="url(#clip190)" d="M1628.72 1548.76 L1628.72 1551.62 L1601.79 1551.62 Q1602.17 1557.67 1605.42 1560.85 Q1608.7 1564 1614.52 1564 Q1617.89 1564 1621.05 1563.17 Q1624.23 1562.35 1627.35 1560.69 L1627.35 1566.23 Q1624.2 1567.57 1620.89 1568.27 Q1617.58 1568.97 1614.17 1568.97 Q1605.64 1568.97 1600.64 1564 Q1595.68 1559.04 1595.68 1550.57 Q1595.68 1541.82 1600.39 1536.69 Q1605.13 1531.54 1613.15 1531.54 Q1620.35 1531.54 1624.52 1536.18 Q1628.72 1540.8 1628.72 1548.76 M1622.86 1547.04 Q1622.8 1542.23 1620.15 1539.37 Q1617.54 1536.5 1613.22 1536.5 Q1608.31 1536.5 1605.35 1539.27 Q1602.43 1542.04 1601.98 1547.07 L1622.86 1547.04 Z" fill="#000000" fill-rule="evenodd" fill-opacity="1" /><path clip-path="url(#clip190)" d="M1658.99 1537.87 Q1658 1537.3 1656.82 1537.04 Q1655.68 1536.76 1654.27 1536.76 Q1649.31 1536.76 1646.64 1540 Q1643.99 1543.22 1643.99 1549.27 L1643.99 1568.04 L1638.11 1568.04 L1638.11 1532.4 L1643.99 1532.4 L1643.99 1537.93 Q1645.84 1534.69 1648.8 1533.13 Q1651.76 1531.54 1655.99 1531.54 Q1656.6 1531.54 1657.33 1531.63 Q1658.06 1531.7 1658.95 1531.85 L1658.99 1537.87 Z" fill="#000000" fill-rule="evenodd" fill-opacity="1" /><path clip-path="url(#clip190)" d="M1708.57 1533.45 L1708.57 1538.98 Q1706.09 1537.71 1703.42 1537.07 Q1700.74 1536.44 1697.88 1536.44 Q1693.52 1536.44 1691.32 1537.77 Q1689.16 1539.11 1689.16 1541.79 Q1689.16 1543.82 1690.72 1545 Q1692.28 1546.15 1696.99 1547.2 L1698.99 1547.64 Q1705.23 1548.98 1707.84 1551.43 Q1710.48 1553.85 1710.48 1558.21 Q1710.48 1563.17 1706.54 1566.07 Q1702.62 1568.97 1695.75 1568.97 Q1692.88 1568.97 1689.76 1568.39 Q1686.68 1567.85 1683.24 1566.74 L1683.24 1560.69 Q1686.49 1562.38 1689.64 1563.24 Q1692.79 1564.07 1695.87 1564.07 Q1700.01 1564.07 1702.24 1562.66 Q1704.47 1561.23 1704.47 1558.65 Q1704.47 1556.27 1702.85 1554.99 Q1701.25 1553.72 1695.81 1552.54 L1693.77 1552.07 Q1688.33 1550.92 1685.91 1548.56 Q1683.49 1546.18 1683.49 1542.04 Q1683.49 1537.01 1687.06 1534.27 Q1690.62 1531.54 1697.18 1531.54 Q1700.43 1531.54 1703.29 1532.01 Q1706.16 1532.49 1708.57 1533.45 Z" fill="#000000" fill-rule="evenodd" fill-opacity="1" /><path clip-path="url(#clip190)" d="M1725.6 1522.27 L1725.6 1532.4 L1737.67 1532.4 L1737.67 1536.95 L1725.6 1536.95 L1725.6 1556.3 Q1725.6 1560.66 1726.78 1561.9 Q1727.99 1563.14 1731.65 1563.14 L1737.67 1563.14 L1737.67 1568.04 L1731.65 1568.04 Q1724.87 1568.04 1722.29 1565.53 Q1719.71 1562.98 1719.71 1556.3 L1719.71 1536.95 L1715.42 1536.95 L1715.42 1532.4 L1719.71 1532.4 L1719.71 1522.27 L1725.6 1522.27 Z" fill="#000000" fill-rule="evenodd" fill-opacity="1" /><path clip-path="url(#clip190)" d="M1761.57 1550.12 Q1754.47 1550.12 1751.73 1551.75 Q1749 1553.37 1749 1557.29 Q1749 1560.4 1751.03 1562.25 Q1753.1 1564.07 1756.64 1564.07 Q1761.51 1564.07 1764.43 1560.63 Q1767.39 1557.16 1767.39 1551.43 L1767.39 1550.12 L1761.57 1550.12 M1773.25 1547.71 L1773.25 1568.04 L1767.39 1568.04 L1767.39 1562.63 Q1765.39 1565.88 1762.4 1567.44 Q1759.4 1568.97 1755.08 1568.97 Q1749.6 1568.97 1746.35 1565.91 Q1743.14 1562.82 1743.14 1557.67 Q1743.14 1551.65 1747.15 1548.6 Q1751.19 1545.54 1759.18 1545.54 L1767.39 1545.54 L1767.39 1544.97 Q1767.39 1540.93 1764.72 1538.73 Q1762.08 1536.5 1757.27 1536.5 Q1754.22 1536.5 1751.32 1537.23 Q1748.42 1537.97 1745.75 1539.43 L1745.75 1534.02 Q1748.96 1532.78 1751.99 1532.17 Q1755.01 1531.54 1757.88 1531.54 Q1765.61 1531.54 1769.43 1535.55 Q1773.25 1539.56 1773.25 1547.71 Z" fill="#000000" fill-rule="evenodd" fill-opacity="1" /><path clip-path="url(#clip190)" d="M1805.97 1537.87 Q1804.98 1537.3 1803.81 1537.04 Q1802.66 1536.76 1801.26 1536.76 Q1796.29 1536.76 1793.62 1540 Q1790.98 1543.22 1790.98 1549.27 L1790.98 1568.04 L1785.09 1568.04 L1785.09 1532.4 L1790.98 1532.4 L1790.98 1537.93 Q1792.82 1534.69 1795.78 1533.13 Q1798.74 1531.54 1802.98 1531.54 Q1803.58 1531.54 1804.31 1531.63 Q1805.05 1531.7 1805.94 1531.85 L1805.97 1537.87 Z" fill="#000000" fill-rule="evenodd" fill-opacity="1" /><polyline clip-path="url(#clip192)" style="stroke:#000000; stroke-linecap:butt; stroke-linejoin:round; stroke-width:2; stroke-opacity:0.1; fill:none" points="
  211.325,1423.18 2352.76,1423.18 
  "/>
<polyline clip-path="url(#clip192)" style="stroke:#000000; stroke-linecap:butt; stroke-linejoin:round; stroke-width:2; stroke-opacity:0.1; fill:none" points="
  211.325,1206.56 2352.76,1206.56 
  "/>
<polyline clip-path="url(#clip192)" style="stroke:#000000; stroke-linecap:butt; stroke-linejoin:round; stroke-width:2; stroke-opacity:0.1; fill:none" points="
  211.325,989.944 2352.76,989.944 
  "/>
<polyline clip-path="url(#clip192)" style="stroke:#000000; stroke-linecap:butt; stroke-linejoin:round; stroke-width:2; stroke-opacity:0.1; fill:none" points="
  211.325,773.326 2352.76,773.326 
  "/>
<polyline clip-path="url(#clip192)" style="stroke:#000000; stroke-linecap:butt; stroke-linejoin:round; stroke-width:2; stroke-opacity:0.1; fill:none" points="
  211.325,556.708 2352.76,556.708 
  "/>
<polyline clip-path="url(#clip192)" style="stroke:#000000; stroke-linecap:butt; stroke-linejoin:round; stroke-width:2; stroke-opacity:0.1; fill:none" points="
  211.325,340.09 2352.76,340.09 
  "/>
<polyline clip-path="url(#clip192)" style="stroke:#000000; stroke-linecap:butt; stroke-linejoin:round; stroke-width:2; stroke-opacity:0.1; fill:none" points="
  211.325,123.472 2352.76,123.472 
  "/>
<polyline clip-path="url(#clip190)" style="stroke:#000000; stroke-linecap:butt; stroke-linejoin:round; stroke-width:4; stroke-opacity:1; fill:none" points="
  211.325,1423.18 211.325,123.472 
  "/>
<polyline clip-path="url(#clip190)" style="stroke:#000000; stroke-linecap:butt; stroke-linejoin:round; stroke-width:4; stroke-opacity:1; fill:none" points="
  211.325,1423.18 230.222,1423.18 
  "/>
<polyline clip-path="url(#clip190)" style="stroke:#000000; stroke-linecap:butt; stroke-linejoin:round; stroke-width:4; stroke-opacity:1; fill:none" points="
  211.325,1206.56 230.222,1206.56 
  "/>
<polyline clip-path="url(#clip190)" style="stroke:#000000; stroke-linecap:butt; stroke-linejoin:round; stroke-width:4; stroke-opacity:1; fill:none" points="
  211.325,989.944 230.222,989.944 
  "/>
<polyline clip-path="url(#clip190)" style="stroke:#000000; stroke-linecap:butt; stroke-linejoin:round; stroke-width:4; stroke-opacity:1; fill:none" points="
  211.325,773.326 230.222,773.326 
  "/>
<polyline clip-path="url(#clip190)" style="stroke:#000000; stroke-linecap:butt; stroke-linejoin:round; stroke-width:4; stroke-opacity:1; fill:none" points="
  211.325,556.708 230.222,556.708 
  "/>
<polyline clip-path="url(#clip190)" style="stroke:#000000; stroke-linecap:butt; stroke-linejoin:round; stroke-width:4; stroke-opacity:1; fill:none" points="
  211.325,340.09 230.222,340.09 
  "/>
<polyline clip-path="url(#clip190)" style="stroke:#000000; stroke-linecap:butt; stroke-linejoin:round; stroke-width:4; stroke-opacity:1; fill:none" points="
  211.325,123.472 230.222,123.472 
  "/>
<path clip-path="url(#clip190)" d="M114.26 1423.63 L143.936 1423.63 L143.936 1427.57 L114.26 1427.57 L114.26 1423.63 Z" fill="#000000" fill-rule="evenodd" fill-opacity="1" /><path clip-path="url(#clip190)" d="M168.195 1421.83 Q171.552 1422.54 173.427 1424.81 Q175.325 1427.08 175.325 1430.41 Q175.325 1435.53 171.806 1438.33 Q168.288 1441.13 161.806 1441.13 Q159.63 1441.13 157.315 1440.69 Q155.024 1440.27 152.57 1439.42 L152.57 1434.9 Q154.515 1436.04 156.829 1436.62 Q159.144 1437.2 161.667 1437.2 Q166.065 1437.2 168.357 1435.46 Q170.672 1433.72 170.672 1430.41 Q170.672 1427.36 168.519 1425.65 Q166.39 1423.91 162.57 1423.91 L158.542 1423.91 L158.542 1420.07 L162.755 1420.07 Q166.204 1420.07 168.033 1418.7 Q169.862 1417.31 169.862 1414.72 Q169.862 1412.06 167.964 1410.65 Q166.089 1409.21 162.57 1409.21 Q160.649 1409.21 158.45 1409.63 Q156.251 1410.04 153.612 1410.92 L153.612 1406.76 Q156.274 1406.02 158.589 1405.65 Q160.927 1405.27 162.987 1405.27 Q168.311 1405.27 171.413 1407.71 Q174.514 1410.11 174.514 1414.23 Q174.514 1417.1 172.871 1419.09 Q171.227 1421.06 168.195 1421.83 Z" fill="#000000" fill-rule="evenodd" fill-opacity="1" /><path clip-path="url(#clip190)" d="M115.209 1207.01 L144.885 1207.01 L144.885 1210.95 L115.209 1210.95 L115.209 1207.01 Z" fill="#000000" fill-rule="evenodd" fill-opacity="1" /><path clip-path="url(#clip190)" d="M159.005 1219.91 L175.325 1219.91 L175.325 1223.84 L153.38 1223.84 L153.38 1219.91 Q156.042 1217.15 160.626 1212.52 Q165.232 1207.87 166.413 1206.53 Q168.658 1204 169.538 1202.27 Q170.44 1200.51 170.44 1198.82 Q170.44 1196.06 168.496 1194.33 Q166.575 1192.59 163.473 1192.59 Q161.274 1192.59 158.82 1193.36 Q156.39 1194.12 153.612 1195.67 L153.612 1190.95 Q156.436 1189.81 158.89 1189.24 Q161.343 1188.66 163.38 1188.66 Q168.751 1188.66 171.945 1191.34 Q175.139 1194.03 175.139 1198.52 Q175.139 1200.65 174.329 1202.57 Q173.542 1204.47 171.436 1207.06 Q170.857 1207.73 167.755 1210.95 Q164.653 1214.14 159.005 1219.91 Z" fill="#000000" fill-rule="evenodd" fill-opacity="1" /><path clip-path="url(#clip190)" d="M114.839 990.395 L144.515 990.395 L144.515 994.33 L114.839 994.33 L114.839 990.395 Z" fill="#000000" fill-rule="evenodd" fill-opacity="1" /><path clip-path="url(#clip190)" d="M155.417 1003.29 L163.056 1003.29 L163.056 976.923 L154.746 978.59 L154.746 974.331 L163.01 972.664 L167.686 972.664 L167.686 1003.29 L175.325 1003.29 L175.325 1007.22 L155.417 1007.22 L155.417 1003.29 Z" fill="#000000" fill-rule="evenodd" fill-opacity="1" /><path clip-path="url(#clip190)" d="M163.38 759.125 Q159.769 759.125 157.94 762.689 Q156.135 766.231 156.135 773.361 Q156.135 780.467 157.94 784.032 Q159.769 787.574 163.38 787.574 Q167.015 787.574 168.82 784.032 Q170.649 780.467 170.649 773.361 Q170.649 766.231 168.82 762.689 Q167.015 759.125 163.38 759.125 M163.38 755.421 Q169.19 755.421 172.246 760.027 Q175.325 764.611 175.325 773.361 Q175.325 782.088 172.246 786.694 Q169.19 791.277 163.38 791.277 Q157.57 791.277 154.491 786.694 Q151.436 782.088 151.436 773.361 Q151.436 764.611 154.491 760.027 Q157.57 755.421 163.38 755.421 Z" fill="#000000" fill-rule="evenodd" fill-opacity="1" /><path clip-path="url(#clip190)" d="M155.417 570.053 L163.056 570.053 L163.056 543.687 L154.746 545.354 L154.746 541.095 L163.01 539.428 L167.686 539.428 L167.686 570.053 L175.325 570.053 L175.325 573.988 L155.417 573.988 L155.417 570.053 Z" fill="#000000" fill-rule="evenodd" fill-opacity="1" /><path clip-path="url(#clip190)" d="M159.005 353.435 L175.325 353.435 L175.325 357.37 L153.38 357.37 L153.38 353.435 Q156.042 350.68 160.626 346.051 Q165.232 341.398 166.413 340.055 Q168.658 337.532 169.538 335.796 Q170.44 334.037 170.44 332.347 Q170.44 329.592 168.496 327.856 Q166.575 326.12 163.473 326.12 Q161.274 326.12 158.82 326.884 Q156.39 327.648 153.612 329.199 L153.612 324.477 Q156.436 323.342 158.89 322.764 Q161.343 322.185 163.38 322.185 Q168.751 322.185 171.945 324.87 Q175.139 327.555 175.139 332.046 Q175.139 334.176 174.329 336.097 Q173.542 337.995 171.436 340.588 Q170.857 341.259 167.755 344.477 Q164.653 347.671 159.005 353.435 Z" fill="#000000" fill-rule="evenodd" fill-opacity="1" /><path clip-path="url(#clip190)" d="M168.195 122.118 Q171.552 122.836 173.427 125.104 Q175.325 127.373 175.325 130.706 Q175.325 135.822 171.806 138.623 Q168.288 141.423 161.806 141.423 Q159.63 141.423 157.315 140.984 Q155.024 140.567 152.57 139.71 L152.57 135.197 Q154.515 136.331 156.829 136.91 Q159.144 137.488 161.667 137.488 Q166.065 137.488 168.357 135.752 Q170.672 134.016 170.672 130.706 Q170.672 127.65 168.519 125.937 Q166.39 124.201 162.57 124.201 L158.542 124.201 L158.542 120.359 L162.755 120.359 Q166.204 120.359 168.033 118.993 Q169.862 117.604 169.862 115.012 Q169.862 112.35 167.964 110.937 Q166.089 109.502 162.57 109.502 Q160.649 109.502 158.45 109.919 Q156.251 110.336 153.612 111.215 L153.612 107.049 Q156.274 106.308 158.589 105.937 Q160.927 105.567 162.987 105.567 Q168.311 105.567 171.413 107.998 Q174.514 110.405 174.514 114.525 Q174.514 117.396 172.871 119.386 Q171.227 121.354 168.195 122.118 Z" fill="#000000" fill-rule="evenodd" fill-opacity="1" /><path clip-path="url(#clip190)" d="M33.8307 1276.38 Q33.2578 1277.36 33.0032 1278.54 Q32.7167 1279.69 32.7167 1281.09 Q32.7167 1286.05 35.9632 1288.73 Q39.1779 1291.37 45.2253 1291.37 L64.0042 1291.37 L64.0042 1297.26 L28.3562 1297.26 L28.3562 1291.37 L33.8944 1291.37 Q30.6479 1289.52 29.0883 1286.56 Q27.4968 1283.6 27.4968 1279.37 Q27.4968 1278.76 27.5923 1278.03 Q27.656 1277.3 27.8151 1276.41 L33.8307 1276.38 Z" fill="#000000" fill-rule="evenodd" fill-opacity="1" /><path clip-path="url(#clip190)" d="M44.7161 1241.17 L47.5806 1241.17 L47.5806 1268.1 Q53.6281 1267.72 56.8109 1264.47 Q59.9619 1261.19 59.9619 1255.37 Q59.9619 1252 59.1344 1248.84 Q58.3069 1245.66 56.6518 1242.54 L62.1899 1242.54 Q63.5267 1245.69 64.227 1249 Q64.9272 1252.31 64.9272 1255.72 Q64.9272 1264.25 59.9619 1269.25 Q54.9967 1274.21 46.5303 1274.21 Q37.7774 1274.21 32.6531 1269.5 Q27.4968 1264.76 27.4968 1256.74 Q27.4968 1249.54 32.1438 1245.37 Q36.7589 1241.17 44.7161 1241.17 M42.9973 1247.03 Q38.1912 1247.09 35.3266 1249.74 Q32.4621 1252.35 32.4621 1256.67 Q32.4621 1261.58 35.2312 1264.54 Q38.0002 1267.46 43.0292 1267.91 L42.9973 1247.03 Z" fill="#000000" fill-rule="evenodd" fill-opacity="1" /><path clip-path="url(#clip190)" d="M14.479 1231.56 L14.479 1225.7 L64.0042 1225.7 L64.0042 1231.56 L14.479 1231.56 Z" fill="#000000" fill-rule="evenodd" fill-opacity="1" /><path clip-path="url(#clip190)" d="M46.0847 1197.25 Q46.0847 1204.35 47.7079 1207.09 Q49.3312 1209.82 53.2461 1209.82 Q56.3653 1209.82 58.2114 1207.79 Q60.0256 1205.72 60.0256 1202.18 Q60.0256 1197.31 56.5881 1194.39 Q53.1188 1191.43 47.3897 1191.43 L46.0847 1191.43 L46.0847 1197.25 M43.6657 1185.57 L64.0042 1185.57 L64.0042 1191.43 L58.5933 1191.43 Q61.8398 1193.43 63.3994 1196.42 Q64.9272 1199.41 64.9272 1203.74 Q64.9272 1209.22 61.8716 1212.46 Q58.7843 1215.68 53.6281 1215.68 Q47.6125 1215.68 44.5569 1211.67 Q41.5014 1207.63 41.5014 1199.64 L41.5014 1191.43 L40.9285 1191.43 Q36.8862 1191.43 34.6901 1194.1 Q32.4621 1196.74 32.4621 1201.55 Q32.4621 1204.6 33.1941 1207.5 Q33.9262 1210.4 35.3903 1213.07 L29.9795 1213.07 Q28.7381 1209.85 28.1334 1206.83 Q27.4968 1203.81 27.4968 1200.94 Q27.4968 1193.21 31.5072 1189.39 Q35.5176 1185.57 43.6657 1185.57 Z" fill="#000000" fill-rule="evenodd" fill-opacity="1" /><path clip-path="url(#clip190)" d="M18.2347 1167.71 L28.3562 1167.71 L28.3562 1155.65 L32.9077 1155.65 L32.9077 1167.71 L52.2594 1167.71 Q56.6199 1167.71 57.8613 1166.54 Q59.1026 1165.33 59.1026 1161.67 L59.1026 1155.65 L64.0042 1155.65 L64.0042 1161.67 Q64.0042 1168.45 61.4897 1171.02 Q58.9434 1173.6 52.2594 1173.6 L32.9077 1173.6 L32.9077 1177.9 L28.3562 1177.9 L28.3562 1173.6 L18.2347 1173.6 L18.2347 1167.71 Z" fill="#000000" fill-rule="evenodd" fill-opacity="1" /><path clip-path="url(#clip190)" d="M28.3562 1147.95 L28.3562 1142.09 L64.0042 1142.09 L64.0042 1147.95 L28.3562 1147.95 M14.479 1147.95 L14.479 1142.09 L21.895 1142.09 L21.895 1147.95 L14.479 1147.95 Z" fill="#000000" fill-rule="evenodd" fill-opacity="1" /><path clip-path="url(#clip190)" d="M28.3562 1134.04 L28.3562 1127.83 L58.275 1116.69 L28.3562 1105.55 L28.3562 1099.35 L64.0042 1112.71 L64.0042 1120.67 L28.3562 1134.04 Z" fill="#000000" fill-rule="evenodd" fill-opacity="1" /><path clip-path="url(#clip190)" d="M44.7161 1060.77 L47.5806 1060.77 L47.5806 1087.7 Q53.6281 1087.31 56.8109 1084.07 Q59.9619 1080.79 59.9619 1074.96 Q59.9619 1071.59 59.1344 1068.44 Q58.3069 1065.26 56.6518 1062.14 L62.1899 1062.14 Q63.5267 1065.29 64.227 1068.6 Q64.9272 1071.91 64.9272 1075.32 Q64.9272 1083.85 59.9619 1088.84 Q54.9967 1093.81 46.5303 1093.81 Q37.7774 1093.81 32.6531 1089.1 Q27.4968 1084.35 27.4968 1076.33 Q27.4968 1069.14 32.1438 1064.97 Q36.7589 1060.77 44.7161 1060.77 M42.9973 1066.63 Q38.1912 1066.69 35.3266 1069.33 Q32.4621 1071.94 32.4621 1076.27 Q32.4621 1081.17 35.2312 1084.13 Q38.0002 1087.06 43.0292 1087.51 L42.9973 1066.63 Z" fill="#000000" fill-rule="evenodd" fill-opacity="1" /><path clip-path="url(#clip190)" d="M67.3143 1015.6 Q73.68 1018.09 75.6216 1020.44 Q77.5631 1022.8 77.5631 1026.74 L77.5631 1031.42 L72.6615 1031.42 L72.6615 1027.99 Q72.6615 1025.57 71.5157 1024.23 Q70.3699 1022.89 66.1048 1021.27 L63.4312 1020.22 L28.3562 1034.64 L28.3562 1028.43 L56.238 1017.29 L28.3562 1006.15 L28.3562 999.945 L67.3143 1015.6 Z" fill="#000000" fill-rule="evenodd" fill-opacity="1" /><path clip-path="url(#clip190)" d="M28.3562 975.342 L28.3562 969.135 L58.275 957.995 L28.3562 946.855 L28.3562 940.649 L64.0042 954.017 L64.0042 961.974 L28.3562 975.342 Z" fill="#000000" fill-rule="evenodd" fill-opacity="1" /><path clip-path="url(#clip190)" d="M46.0847 916.363 Q46.0847 923.461 47.7079 926.198 Q49.3312 928.936 53.2461 928.936 Q56.3653 928.936 58.2114 926.899 Q60.0256 924.83 60.0256 921.297 Q60.0256 916.427 56.5881 913.499 Q53.1188 910.539 47.3897 910.539 L46.0847 910.539 L46.0847 916.363 M43.6657 904.682 L64.0042 904.682 L64.0042 910.539 L58.5933 910.539 Q61.8398 912.544 63.3994 915.536 Q64.9272 918.528 64.9272 922.856 Q64.9272 928.331 61.8716 931.577 Q58.7843 934.792 53.6281 934.792 Q47.6125 934.792 44.5569 930.782 Q41.5014 926.74 41.5014 918.751 L41.5014 910.539 L40.9285 910.539 Q36.8862 910.539 34.6901 913.212 Q32.4621 915.854 32.4621 920.66 Q32.4621 923.716 33.1941 926.612 Q33.9262 929.509 35.3903 932.182 L29.9795 932.182 Q28.7381 928.968 28.1334 925.944 Q27.4968 922.92 27.4968 920.056 Q27.4968 912.321 31.5072 908.502 Q35.5176 904.682 43.6657 904.682 Z" fill="#000000" fill-rule="evenodd" fill-opacity="1" /><path clip-path="url(#clip190)" d="M14.479 892.619 L14.479 886.763 L64.0042 886.763 L64.0042 892.619 L14.479 892.619 Z" fill="#000000" fill-rule="evenodd" fill-opacity="1" /><path clip-path="url(#clip190)" d="M49.9359 875.114 L28.3562 875.114 L28.3562 869.257 L49.7131 869.257 Q54.7739 869.257 57.3202 867.284 Q59.8346 865.31 59.8346 861.364 Q59.8346 856.621 56.8109 853.884 Q53.7872 851.115 48.5673 851.115 L28.3562 851.115 L28.3562 845.258 L64.0042 845.258 L64.0042 851.115 L58.5296 851.115 Q61.7762 853.247 63.3676 856.08 Q64.9272 858.881 64.9272 862.605 Q64.9272 868.748 61.1078 871.931 Q57.2883 875.114 49.9359 875.114 M27.4968 860.377 L27.4968 860.377 Z" fill="#000000" fill-rule="evenodd" fill-opacity="1" /><path clip-path="url(#clip190)" d="M44.7161 802.704 L47.5806 802.704 L47.5806 829.631 Q53.6281 829.249 56.8109 826.002 Q59.9619 822.724 59.9619 816.899 Q59.9619 813.525 59.1344 810.374 Q58.3069 807.192 56.6518 804.072 L62.1899 804.072 Q63.5267 807.223 64.227 810.534 Q64.9272 813.844 64.9272 817.249 Q64.9272 825.779 59.9619 830.776 Q54.9967 835.742 46.5303 835.742 Q37.7774 835.742 32.6531 831.031 Q27.4968 826.289 27.4968 818.268 Q27.4968 811.075 32.1438 806.905 Q36.7589 802.704 44.7161 802.704 M42.9973 808.56 Q38.1912 808.624 35.3266 811.266 Q32.4621 813.876 32.4621 818.204 Q32.4621 823.106 35.2312 826.066 Q38.0002 828.994 43.0292 829.44 L42.9973 808.56 Z" fill="#000000" fill-rule="evenodd" fill-opacity="1" /><path clip-path="url(#clip190)" d="M14.479 754.324 L19.3487 754.324 L19.3487 759.926 Q19.3487 763.077 20.6219 764.319 Q21.895 765.528 25.2052 765.528 L28.3562 765.528 L28.3562 755.884 L32.9077 755.884 L32.9077 765.528 L64.0042 765.528 L64.0042 771.416 L32.9077 771.416 L32.9077 777.018 L28.3562 777.018 L28.3562 771.416 L25.8736 771.416 Q19.9216 771.416 17.2162 768.647 Q14.479 765.878 14.479 759.863 L14.479 754.324 Z" fill="#000000" fill-rule="evenodd" fill-opacity="1" /><path clip-path="url(#clip190)" d="M33.8307 728.766 Q33.2578 729.753 33.0032 730.93 Q32.7167 732.076 32.7167 733.477 Q32.7167 738.442 35.9632 741.116 Q39.1779 743.757 45.2253 743.757 L64.0042 743.757 L64.0042 749.646 L28.3562 749.646 L28.3562 743.757 L33.8944 743.757 Q30.6479 741.911 29.0883 738.951 Q27.4968 735.991 27.4968 731.758 Q27.4968 731.153 27.5923 730.421 Q27.656 729.689 27.8151 728.798 L33.8307 728.766 Z" fill="#000000" fill-rule="evenodd" fill-opacity="1" /><path clip-path="url(#clip190)" d="M32.4621 710.242 Q32.4621 714.952 36.1542 717.69 Q39.8145 720.427 46.212 720.427 Q52.6095 720.427 56.3017 717.722 Q59.9619 714.984 59.9619 710.242 Q59.9619 705.563 56.2698 702.826 Q52.5777 700.089 46.212 700.089 Q39.8781 700.089 36.186 702.826 Q32.4621 705.563 32.4621 710.242 M27.4968 710.242 Q27.4968 702.603 32.4621 698.242 Q37.4273 693.882 46.212 693.882 Q54.9649 693.882 59.9619 698.242 Q64.9272 702.603 64.9272 710.242 Q64.9272 717.913 59.9619 722.273 Q54.9649 726.602 46.212 726.602 Q37.4273 726.602 32.4621 722.273 Q27.4968 717.913 27.4968 710.242 Z" fill="#000000" fill-rule="evenodd" fill-opacity="1" /><path clip-path="url(#clip190)" d="M35.1993 656.42 Q31.2526 654.224 29.3747 651.168 Q27.4968 648.113 27.4968 643.975 Q27.4968 638.405 31.4117 635.381 Q35.2948 632.357 42.4881 632.357 L64.0042 632.357 L64.0042 638.246 L42.679 638.246 Q37.5546 638.246 35.072 640.06 Q32.5894 641.874 32.5894 645.598 Q32.5894 650.15 35.6131 652.791 Q38.6368 655.433 43.8567 655.433 L64.0042 655.433 L64.0042 661.321 L42.679 661.321 Q37.5228 661.321 35.072 663.136 Q32.5894 664.95 32.5894 668.737 Q32.5894 673.225 35.6449 675.867 Q38.6686 678.509 43.8567 678.509 L64.0042 678.509 L64.0042 684.397 L28.3562 684.397 L28.3562 678.509 L33.8944 678.509 Q30.616 676.504 29.0564 673.703 Q27.4968 670.902 27.4968 667.051 Q27.4968 663.167 29.4702 660.462 Q31.4436 657.725 35.1993 656.42 Z" fill="#000000" fill-rule="evenodd" fill-opacity="1" /><path clip-path="url(#clip190)" d="M29.7248 574.302 L35.1993 574.302 Q33.8307 576.785 33.1623 579.299 Q32.4621 581.782 32.4621 584.328 Q32.4621 590.025 36.0905 593.176 Q39.6872 596.328 46.212 596.328 Q52.7369 596.328 56.3653 593.176 Q59.9619 590.025 59.9619 584.328 Q59.9619 581.782 59.2935 579.299 Q58.5933 576.785 57.2247 574.302 L62.6355 574.302 Q63.7814 576.753 64.3543 579.395 Q64.9272 582.005 64.9272 584.965 Q64.9272 593.017 59.8664 597.76 Q54.8057 602.502 46.212 602.502 Q37.491 602.502 32.4939 597.728 Q27.4968 592.922 27.4968 584.583 Q27.4968 581.877 28.0697 579.299 Q28.6108 576.721 29.7248 574.302 Z" fill="#000000" fill-rule="evenodd" fill-opacity="1" /><path clip-path="url(#clip190)" d="M44.7161 533.625 L47.5806 533.625 L47.5806 560.552 Q53.6281 560.17 56.8109 556.924 Q59.9619 553.645 59.9619 547.821 Q59.9619 544.447 59.1344 541.296 Q58.3069 538.113 56.6518 534.994 L62.1899 534.994 Q63.5267 538.145 64.227 541.455 Q64.9272 544.765 64.9272 548.171 Q64.9272 556.701 59.9619 561.698 Q54.9967 566.663 46.5303 566.663 Q37.7774 566.663 32.6531 561.953 Q27.4968 557.21 27.4968 549.189 Q27.4968 541.996 32.1438 537.827 Q36.7589 533.625 44.7161 533.625 M42.9973 539.482 Q38.1912 539.545 35.3266 542.187 Q32.4621 544.797 32.4621 549.126 Q32.4621 554.027 35.2312 556.987 Q38.0002 559.916 43.0292 560.361 L42.9973 539.482 Z" fill="#000000" fill-rule="evenodd" fill-opacity="1" /><path clip-path="url(#clip190)" d="M42.4881 494.381 L64.0042 494.381 L64.0042 500.237 L42.679 500.237 Q37.6183 500.237 35.1038 502.211 Q32.5894 504.184 32.5894 508.131 Q32.5894 512.873 35.6131 515.61 Q38.6368 518.348 43.8567 518.348 L64.0042 518.348 L64.0042 524.236 L28.3562 524.236 L28.3562 518.348 L33.8944 518.348 Q30.6797 516.247 29.0883 513.414 Q27.4968 510.55 27.4968 506.826 Q27.4968 500.683 31.3163 497.532 Q35.1038 494.381 42.4881 494.381 Z" fill="#000000" fill-rule="evenodd" fill-opacity="1" /><path clip-path="url(#clip190)" d="M18.2347 476.907 L28.3562 476.907 L28.3562 464.844 L32.9077 464.844 L32.9077 476.907 L52.2594 476.907 Q56.6199 476.907 57.8613 475.729 Q59.1026 474.52 59.1026 470.859 L59.1026 464.844 L64.0042 464.844 L64.0042 470.859 Q64.0042 477.639 61.4897 480.217 Q58.9434 482.795 52.2594 482.795 L32.9077 482.795 L32.9077 487.092 L28.3562 487.092 L28.3562 482.795 L18.2347 482.795 L18.2347 476.907 Z" fill="#000000" fill-rule="evenodd" fill-opacity="1" /><path clip-path="url(#clip190)" d="M44.7161 426.65 L47.5806 426.65 L47.5806 453.577 Q53.6281 453.195 56.8109 449.948 Q59.9619 446.67 59.9619 440.845 Q59.9619 437.471 59.1344 434.32 Q58.3069 431.137 56.6518 428.018 L62.1899 428.018 Q63.5267 431.169 64.227 434.479 Q64.9272 437.79 64.9272 441.195 Q64.9272 449.725 59.9619 454.722 Q54.9967 459.688 46.5303 459.688 Q37.7774 459.688 32.6531 454.977 Q27.4968 450.235 27.4968 442.214 Q27.4968 435.021 32.1438 430.851 Q36.7589 426.65 44.7161 426.65 M42.9973 432.506 Q38.1912 432.57 35.3266 435.211 Q32.4621 437.821 32.4621 442.15 Q32.4621 447.052 35.2312 450.012 Q38.0002 452.94 43.0292 453.386 L42.9973 432.506 Z" fill="#000000" fill-rule="evenodd" fill-opacity="1" /><path clip-path="url(#clip190)" d="M33.8307 396.381 Q33.2578 397.367 33.0032 398.545 Q32.7167 399.691 32.7167 401.091 Q32.7167 406.057 35.9632 408.73 Q39.1779 411.372 45.2253 411.372 L64.0042 411.372 L64.0042 417.26 L28.3562 417.26 L28.3562 411.372 L33.8944 411.372 Q30.6479 409.526 29.0883 406.566 Q27.4968 403.606 27.4968 399.373 Q27.4968 398.768 27.5923 398.036 Q27.656 397.304 27.8151 396.412 L33.8307 396.381 Z" fill="#000000" fill-rule="evenodd" fill-opacity="1" /><path clip-path="url(#clip190)" d="M29.4065 346.792 L34.9447 346.792 Q33.6716 349.274 33.035 351.948 Q32.3984 354.622 32.3984 357.486 Q32.3984 361.847 33.7352 364.043 Q35.072 366.207 37.7456 366.207 Q39.7826 366.207 40.9603 364.648 Q42.1061 363.088 43.1565 358.377 L43.6021 356.372 Q44.9389 350.134 47.3897 347.524 Q49.8086 344.882 54.1691 344.882 Q59.1344 344.882 62.0308 348.829 Q64.9272 352.744 64.9272 359.619 Q64.9272 362.483 64.3543 365.602 Q63.8132 368.69 62.6992 372.127 L56.6518 372.127 Q58.3387 368.881 59.198 365.73 Q60.0256 362.579 60.0256 359.491 Q60.0256 355.354 58.6251 353.126 Q57.1929 350.898 54.6147 350.898 Q52.2276 350.898 50.9545 352.521 Q49.6813 354.112 48.5037 359.555 L48.0262 361.592 Q46.8804 367.035 44.5251 369.454 Q42.138 371.873 38.0002 371.873 Q32.9713 371.873 30.2341 368.308 Q27.4968 364.743 27.4968 358.186 Q27.4968 354.94 27.9743 352.075 Q28.4517 349.211 29.4065 346.792 Z" fill="#000000" fill-rule="evenodd" fill-opacity="1" /><path clip-path="url(#clip190)" d="M18.2347 329.764 L28.3562 329.764 L28.3562 317.701 L32.9077 317.701 L32.9077 329.764 L52.2594 329.764 Q56.6199 329.764 57.8613 328.586 Q59.1026 327.376 59.1026 323.716 L59.1026 317.701 L64.0042 317.701 L64.0042 323.716 Q64.0042 330.496 61.4897 333.074 Q58.9434 335.652 52.2594 335.652 L32.9077 335.652 L32.9077 339.949 L28.3562 339.949 L28.3562 335.652 L18.2347 335.652 L18.2347 329.764 Z" fill="#000000" fill-rule="evenodd" fill-opacity="1" /><path clip-path="url(#clip190)" d="M46.0847 293.797 Q46.0847 300.895 47.7079 303.632 Q49.3312 306.37 53.2461 306.37 Q56.3653 306.37 58.2114 304.333 Q60.0256 302.264 60.0256 298.731 Q60.0256 293.861 56.5881 290.933 Q53.1188 287.973 47.3897 287.973 L46.0847 287.973 L46.0847 293.797 M43.6657 282.116 L64.0042 282.116 L64.0042 287.973 L58.5933 287.973 Q61.8398 289.978 63.3994 292.97 Q64.9272 295.962 64.9272 300.29 Q64.9272 305.765 61.8716 309.011 Q58.7843 312.226 53.6281 312.226 Q47.6125 312.226 44.5569 308.216 Q41.5014 304.173 41.5014 296.184 L41.5014 287.973 L40.9285 287.973 Q36.8862 287.973 34.6901 290.646 Q32.4621 293.288 32.4621 298.094 Q32.4621 301.15 33.1941 304.046 Q33.9262 306.942 35.3903 309.616 L29.9795 309.616 Q28.7381 306.401 28.1334 303.378 Q27.4968 300.354 27.4968 297.489 Q27.4968 289.755 31.5072 285.936 Q35.5176 282.116 43.6657 282.116 Z" fill="#000000" fill-rule="evenodd" fill-opacity="1" /><path clip-path="url(#clip190)" d="M33.8307 249.396 Q33.2578 250.383 33.0032 251.561 Q32.7167 252.707 32.7167 254.107 Q32.7167 259.072 35.9632 261.746 Q39.1779 264.388 45.2253 264.388 L64.0042 264.388 L64.0042 270.276 L28.3562 270.276 L28.3562 264.388 L33.8944 264.388 Q30.6479 262.542 29.0883 259.582 Q27.4968 256.622 27.4968 252.388 Q27.4968 251.784 27.5923 251.052 Q27.656 250.32 27.8151 249.428 L33.8307 249.396 Z" fill="#000000" fill-rule="evenodd" fill-opacity="1" /><path clip-path="url(#clip190)" d="M444.03 14.0809 L444.03 22.0612 Q439.371 19.8332 435.239 18.7395 Q431.107 17.6457 427.259 17.6457 Q420.575 17.6457 416.929 20.2383 Q413.324 22.8309 413.324 27.611 Q413.324 31.6214 415.714 33.6873 Q418.144 35.7128 424.869 36.9686 L429.811 37.9813 Q438.966 39.7232 443.301 44.1387 Q447.676 48.5136 447.676 55.8863 Q447.676 64.6767 441.761 69.2137 Q435.887 73.7508 424.504 73.7508 Q420.21 73.7508 415.349 72.7785 Q410.529 71.8063 405.344 69.9024 L405.344 61.4765 Q410.326 64.2716 415.106 65.6895 Q419.886 67.1073 424.504 67.1073 Q431.512 67.1073 435.32 64.3527 Q439.128 61.598 439.128 56.4939 Q439.128 52.0379 436.374 49.5264 Q433.659 47.0148 427.421 45.759 L422.438 44.7868 Q413.283 42.9639 409.192 39.075 Q405.101 35.1862 405.101 28.2591 Q405.101 20.2383 410.731 15.6203 Q416.403 11.0023 426.327 11.0023 Q430.581 11.0023 434.996 11.7719 Q439.412 12.5416 444.03 14.0809 Z" fill="#000000" fill-rule="evenodd" fill-opacity="1" /><path clip-path="url(#clip190)" d="M459.828 9.54393 L467.322 9.54393 L467.322 46.7717 L489.562 27.2059 L499.082 27.2059 L475.019 48.4326 L500.094 72.576 L490.372 72.576 L467.322 50.4176 L467.322 72.576 L459.828 72.576 L459.828 9.54393 Z" fill="#000000" fill-rule="evenodd" fill-opacity="1" /><path clip-path="url(#clip190)" d="M544.006 48.0275 L544.006 51.6733 L509.735 51.6733 Q510.221 59.3701 514.353 63.421 Q518.526 67.4314 525.939 67.4314 Q530.233 67.4314 534.243 66.3781 Q538.294 65.3249 542.264 63.2184 L542.264 70.267 Q538.254 71.9684 534.041 72.8596 Q529.828 73.7508 525.493 73.7508 Q514.637 73.7508 508.277 67.4314 Q501.958 61.1119 501.958 50.3365 Q501.958 39.1965 507.953 32.6746 Q513.989 26.1121 524.197 26.1121 Q533.352 26.1121 538.659 32.0264 Q544.006 37.9003 544.006 48.0275 M536.552 45.84 Q536.471 39.7232 533.109 36.0774 Q529.787 32.4315 524.278 32.4315 Q518.04 32.4315 514.272 35.9558 Q510.546 39.4801 509.978 45.8805 L536.552 45.84 Z" fill="#000000" fill-rule="evenodd" fill-opacity="1" /><path clip-path="url(#clip190)" d="M563.612 14.324 L563.612 27.2059 L578.965 27.2059 L578.965 32.9987 L563.612 32.9987 L563.612 57.6282 Q563.612 63.1779 565.111 64.7578 Q566.651 66.3376 571.309 66.3376 L578.965 66.3376 L578.965 72.576 L571.309 72.576 Q562.681 72.576 559.399 69.3758 Q556.118 66.1351 556.118 57.6282 L556.118 32.9987 L550.65 32.9987 L550.65 27.2059 L556.118 27.2059 L556.118 14.324 L563.612 14.324 Z" fill="#000000" fill-rule="evenodd" fill-opacity="1" /><path clip-path="url(#clip190)" d="M621.419 28.9478 L621.419 35.9153 Q618.259 34.1734 615.059 33.3227 Q611.899 32.4315 608.658 32.4315 Q601.407 32.4315 597.397 37.0496 Q593.387 41.6271 593.387 49.9314 Q593.387 58.2358 597.397 62.8538 Q601.407 67.4314 608.658 67.4314 Q611.899 67.4314 615.059 66.5807 Q618.259 65.6895 621.419 63.9476 L621.419 70.8341 Q618.3 72.2924 614.937 73.0216 Q611.616 73.7508 607.848 73.7508 Q597.599 73.7508 591.564 67.3098 Q585.528 60.8689 585.528 49.9314 Q585.528 38.832 591.604 32.472 Q597.721 26.1121 608.334 26.1121 Q611.778 26.1121 615.059 26.8413 Q618.34 27.5299 621.419 28.9478 Z" fill="#000000" fill-rule="evenodd" fill-opacity="1" /><path clip-path="url(#clip190)" d="M672.096 45.1919 L672.096 72.576 L664.642 72.576 L664.642 45.4349 Q664.642 38.994 662.13 35.7938 Q659.619 32.5936 654.596 32.5936 Q648.56 32.5936 645.076 36.4419 Q641.592 40.2903 641.592 46.9338 L641.592 72.576 L634.098 72.576 L634.098 9.54393 L641.592 9.54393 L641.592 34.2544 Q644.266 30.163 647.871 28.1376 Q651.517 26.1121 656.257 26.1121 Q664.075 26.1121 668.085 30.9732 Q672.096 35.7938 672.096 45.1919 Z" fill="#000000" fill-rule="evenodd" fill-opacity="1" /><path clip-path="url(#clip190)" d="M730.915 32.4315 Q724.919 32.4315 721.436 37.1306 Q717.952 41.7891 717.952 49.9314 Q717.952 58.0738 721.395 62.7728 Q724.879 67.4314 730.915 67.4314 Q736.87 67.4314 740.353 62.7323 Q743.837 58.0333 743.837 49.9314 Q743.837 41.8701 740.353 37.1711 Q736.87 32.4315 730.915 32.4315 M730.915 26.1121 Q740.637 26.1121 746.187 32.4315 Q751.736 38.7509 751.736 49.9314 Q751.736 61.0714 746.187 67.4314 Q740.637 73.7508 730.915 73.7508 Q721.152 73.7508 715.602 67.4314 Q710.093 61.0714 710.093 49.9314 Q710.093 38.7509 715.602 32.4315 Q721.152 26.1121 730.915 26.1121 Z" fill="#000000" fill-rule="evenodd" fill-opacity="1" /><path clip-path="url(#clip190)" d="M787.06 9.54393 L787.06 15.7418 L779.931 15.7418 Q775.92 15.7418 774.34 17.3622 Q772.801 18.9825 772.801 23.1955 L772.801 27.2059 L785.075 27.2059 L785.075 32.9987 L772.801 32.9987 L772.801 72.576 L765.307 72.576 L765.307 32.9987 L758.177 32.9987 L758.177 27.2059 L765.307 27.2059 L765.307 24.0462 Q765.307 16.471 768.831 13.0277 Q772.356 9.54393 780.012 9.54393 L787.06 9.54393 Z" fill="#000000" fill-rule="evenodd" fill-opacity="1" /><path clip-path="url(#clip190)" d="M827.043 14.324 L827.043 27.2059 L842.396 27.2059 L842.396 32.9987 L827.043 32.9987 L827.043 57.6282 Q827.043 63.1779 828.542 64.7578 Q830.081 66.3376 834.739 66.3376 L842.396 66.3376 L842.396 72.576 L834.739 72.576 Q826.111 72.576 822.83 69.3758 Q819.549 66.1351 819.549 57.6282 L819.549 32.9987 L814.08 32.9987 L814.08 27.2059 L819.549 27.2059 L819.549 14.324 L827.043 14.324 Z" fill="#000000" fill-rule="evenodd" fill-opacity="1" /><path clip-path="url(#clip190)" d="M889.913 45.1919 L889.913 72.576 L882.459 72.576 L882.459 45.4349 Q882.459 38.994 879.948 35.7938 Q877.436 32.5936 872.413 32.5936 Q866.377 32.5936 862.893 36.4419 Q859.409 40.2903 859.409 46.9338 L859.409 72.576 L851.915 72.576 L851.915 9.54393 L859.409 9.54393 L859.409 34.2544 Q862.083 30.163 865.688 28.1376 Q869.334 26.1121 874.074 26.1121 Q881.892 26.1121 885.902 30.9732 Q889.913 35.7938 889.913 45.1919 Z" fill="#000000" fill-rule="evenodd" fill-opacity="1" /><path clip-path="url(#clip190)" d="M943.587 48.0275 L943.587 51.6733 L909.317 51.6733 Q909.803 59.3701 913.935 63.421 Q918.107 67.4314 925.52 67.4314 Q929.814 67.4314 933.825 66.3781 Q937.875 65.3249 941.845 63.2184 L941.845 70.267 Q937.835 71.9684 933.622 72.8596 Q929.409 73.7508 925.075 73.7508 Q914.218 73.7508 907.858 67.4314 Q901.539 61.1119 901.539 50.3365 Q901.539 39.1965 907.534 32.6746 Q913.57 26.1121 923.778 26.1121 Q932.933 26.1121 938.24 32.0264 Q943.587 37.9003 943.587 48.0275 M936.134 45.84 Q936.053 39.7232 932.69 36.0774 Q929.369 32.4315 923.859 32.4315 Q917.621 32.4315 913.854 35.9558 Q910.127 39.4801 909.56 45.8805 L936.134 45.84 Z" fill="#000000" fill-rule="evenodd" fill-opacity="1" /><path clip-path="url(#clip190)" d="M1027.81 16.7545 L1027.81 25.383 Q1023.67 21.5346 1018.97 19.6307 Q1014.32 17.7268 1009.05 17.7268 Q998.68 17.7268 993.17 24.0867 Q987.661 30.4061 987.661 42.3968 Q987.661 54.3469 993.17 60.7069 Q998.68 67.0263 1009.05 67.0263 Q1014.32 67.0263 1018.97 65.1223 Q1023.67 63.2184 1027.81 59.3701 L1027.81 67.9175 Q1023.51 70.8341 1018.69 72.2924 Q1013.91 73.7508 1008.56 73.7508 Q994.831 73.7508 986.932 65.3654 Q979.033 56.9395 979.033 42.3968 Q979.033 27.8135 986.932 19.4281 Q994.831 11.0023 1008.56 11.0023 Q1013.99 11.0023 1018.77 12.4606 Q1023.59 13.8784 1027.81 16.7545 Z" fill="#000000" fill-rule="evenodd" fill-opacity="1" /><path clip-path="url(#clip190)" d="M1060.74 49.7694 Q1051.71 49.7694 1048.22 51.8354 Q1044.74 53.9013 1044.74 58.8839 Q1044.74 62.8538 1047.33 65.2034 Q1049.96 67.5124 1054.46 67.5124 Q1060.66 67.5124 1064.39 63.1374 Q1068.15 58.7219 1068.15 51.4303 L1068.15 49.7694 L1060.74 49.7694 M1075.61 46.6907 L1075.61 72.576 L1068.15 72.576 L1068.15 65.6895 Q1065.6 69.8214 1061.79 71.8063 Q1057.98 73.7508 1052.48 73.7508 Q1045.51 73.7508 1041.38 69.8619 Q1037.28 65.9325 1037.28 59.3701 Q1037.28 51.7138 1042.39 47.825 Q1047.53 43.9361 1057.7 43.9361 L1068.15 43.9361 L1068.15 43.2069 Q1068.15 38.0623 1064.75 35.2672 Q1061.39 32.4315 1055.27 32.4315 Q1051.38 32.4315 1047.7 33.3632 Q1044.01 34.295 1040.61 36.1584 L1040.61 29.2718 Q1044.7 27.692 1048.55 26.9223 Q1052.39 26.1121 1056.04 26.1121 Q1065.88 26.1121 1070.75 31.2163 Q1075.61 36.3204 1075.61 46.6907 Z" fill="#000000" fill-rule="evenodd" fill-opacity="1" /><path clip-path="url(#clip190)" d="M1119.88 28.5427 L1119.88 35.5912 Q1116.72 33.9709 1113.32 33.1607 Q1109.92 32.3505 1106.27 32.3505 Q1100.72 32.3505 1097.93 34.0519 Q1095.17 35.7533 1095.17 39.156 Q1095.17 41.7486 1097.16 43.2475 Q1099.14 44.7058 1105.14 46.0426 L1107.69 46.6097 Q1115.63 48.3111 1118.95 51.4303 Q1122.31 54.509 1122.31 60.0587 Q1122.31 66.3781 1117.29 70.0644 Q1112.31 73.7508 1103.56 73.7508 Q1099.91 73.7508 1095.94 73.0216 Q1092.01 72.3329 1087.64 70.9151 L1087.64 63.2184 Q1091.77 65.3654 1095.78 66.4591 Q1099.79 67.5124 1103.72 67.5124 Q1108.99 67.5124 1111.82 65.73 Q1114.66 63.9071 1114.66 60.6258 Q1114.66 57.5877 1112.59 55.9673 Q1110.57 54.3469 1103.64 52.8481 L1101.05 52.2405 Q1094.12 50.7821 1091.04 47.7845 Q1087.96 44.7463 1087.96 39.4801 Q1087.96 33.0797 1092.5 29.5959 Q1097.04 26.1121 1105.38 26.1121 Q1109.51 26.1121 1113.16 26.7198 Q1116.8 27.3274 1119.88 28.5427 Z" fill="#000000" fill-rule="evenodd" fill-opacity="1" /><path clip-path="url(#clip190)" d="M1163.11 28.5427 L1163.11 35.5912 Q1159.95 33.9709 1156.54 33.1607 Q1153.14 32.3505 1149.49 32.3505 Q1143.94 32.3505 1141.15 34.0519 Q1138.4 35.7533 1138.4 39.156 Q1138.4 41.7486 1140.38 43.2475 Q1142.37 44.7058 1148.36 46.0426 L1150.91 46.6097 Q1158.85 48.3111 1162.17 51.4303 Q1165.54 54.509 1165.54 60.0587 Q1165.54 66.3781 1160.51 70.0644 Q1155.53 73.7508 1146.78 73.7508 Q1143.13 73.7508 1139.16 73.0216 Q1135.24 72.3329 1130.86 70.9151 L1130.86 63.2184 Q1134.99 65.3654 1139 66.4591 Q1143.01 67.5124 1146.94 67.5124 Q1152.21 67.5124 1155.04 65.73 Q1157.88 63.9071 1157.88 60.6258 Q1157.88 57.5877 1155.81 55.9673 Q1153.79 54.3469 1146.86 52.8481 L1144.27 52.2405 Q1137.34 50.7821 1134.26 47.7845 Q1131.18 44.7463 1131.18 39.4801 Q1131.18 33.0797 1135.72 29.5959 Q1140.26 26.1121 1148.6 26.1121 Q1152.74 26.1121 1156.38 26.7198 Q1160.03 27.3274 1163.11 28.5427 Z" fill="#000000" fill-rule="evenodd" fill-opacity="1" /><path clip-path="url(#clip190)" d="M1177.41 27.2059 L1184.86 27.2059 L1184.86 72.576 L1177.41 72.576 L1177.41 27.2059 M1177.41 9.54393 L1184.86 9.54393 L1184.86 18.9825 L1177.41 18.9825 L1177.41 9.54393 Z" fill="#000000" fill-rule="evenodd" fill-opacity="1" /><path clip-path="url(#clip190)" d="M1218.04 32.4315 Q1212.04 32.4315 1208.56 37.1306 Q1205.07 41.7891 1205.07 49.9314 Q1205.07 58.0738 1208.52 62.7728 Q1212 67.4314 1218.04 67.4314 Q1223.99 67.4314 1227.47 62.7323 Q1230.96 58.0333 1230.96 49.9314 Q1230.96 41.8701 1227.47 37.1711 Q1223.99 32.4315 1218.04 32.4315 M1218.04 26.1121 Q1227.76 26.1121 1233.31 32.4315 Q1238.86 38.7509 1238.86 49.9314 Q1238.86 61.0714 1233.31 67.4314 Q1227.76 73.7508 1218.04 73.7508 Q1208.27 73.7508 1202.72 67.4314 Q1197.21 61.0714 1197.21 49.9314 Q1197.21 38.7509 1202.72 32.4315 Q1208.27 26.1121 1218.04 26.1121 Z" fill="#000000" fill-rule="evenodd" fill-opacity="1" /><path clip-path="url(#clip190)" d="M1258.42 65.7705 L1258.42 89.8329 L1250.93 89.8329 L1250.93 27.2059 L1258.42 27.2059 L1258.42 34.0924 Q1260.77 30.0415 1264.34 28.0971 Q1267.94 26.1121 1272.93 26.1121 Q1281.19 26.1121 1286.33 32.6746 Q1291.52 39.2371 1291.52 49.9314 Q1291.52 60.6258 1286.33 67.1883 Q1281.19 73.7508 1272.93 73.7508 Q1267.94 73.7508 1264.34 71.8063 Q1260.77 69.8214 1258.42 65.7705 M1283.78 49.9314 Q1283.78 41.7081 1280.38 37.0496 Q1277.02 32.3505 1271.1 32.3505 Q1265.19 32.3505 1261.79 37.0496 Q1258.42 41.7081 1258.42 49.9314 Q1258.42 58.1548 1261.79 62.8538 Q1265.19 67.5124 1271.1 67.5124 Q1277.02 67.5124 1280.38 62.8538 Q1283.78 58.1548 1283.78 49.9314 Z" fill="#000000" fill-rule="evenodd" fill-opacity="1" /><path clip-path="url(#clip190)" d="M1342.68 48.0275 L1342.68 51.6733 L1308.41 51.6733 Q1308.9 59.3701 1313.03 63.421 Q1317.2 67.4314 1324.62 67.4314 Q1328.91 67.4314 1332.92 66.3781 Q1336.97 65.3249 1340.94 63.2184 L1340.94 70.267 Q1336.93 71.9684 1332.72 72.8596 Q1328.5 73.7508 1324.17 73.7508 Q1313.31 73.7508 1306.95 67.4314 Q1300.63 61.1119 1300.63 50.3365 Q1300.63 39.1965 1306.63 32.6746 Q1312.67 26.1121 1322.87 26.1121 Q1332.03 26.1121 1337.34 32.0264 Q1342.68 37.9003 1342.68 48.0275 M1335.23 45.84 Q1335.15 39.7232 1331.79 36.0774 Q1328.46 32.4315 1322.95 32.4315 Q1316.72 32.4315 1312.95 35.9558 Q1309.22 39.4801 1308.65 45.8805 L1335.23 45.84 Z" fill="#000000" fill-rule="evenodd" fill-opacity="1" /><path clip-path="url(#clip190)" d="M1354.92 27.2059 L1362.37 27.2059 L1362.37 72.576 L1354.92 72.576 L1354.92 27.2059 M1354.92 9.54393 L1362.37 9.54393 L1362.37 18.9825 L1354.92 18.9825 L1354.92 9.54393 Z" fill="#000000" fill-rule="evenodd" fill-opacity="1" /><path clip-path="url(#clip190)" d="M1398.58 49.7694 Q1389.55 49.7694 1386.07 51.8354 Q1382.58 53.9013 1382.58 58.8839 Q1382.58 62.8538 1385.18 65.2034 Q1387.81 67.5124 1392.31 67.5124 Q1398.5 67.5124 1402.23 63.1374 Q1406 58.7219 1406 51.4303 L1406 49.7694 L1398.58 49.7694 M1413.45 46.6907 L1413.45 72.576 L1406 72.576 L1406 65.6895 Q1403.45 69.8214 1399.64 71.8063 Q1395.83 73.7508 1390.32 73.7508 Q1383.35 73.7508 1379.22 69.8619 Q1375.13 65.9325 1375.13 59.3701 Q1375.13 51.7138 1380.23 47.825 Q1385.38 43.9361 1395.55 43.9361 L1406 43.9361 L1406 43.2069 Q1406 38.0623 1402.6 35.2672 Q1399.23 32.4315 1393.12 32.4315 Q1389.23 32.4315 1385.54 33.3632 Q1381.85 34.295 1378.45 36.1584 L1378.45 29.2718 Q1382.54 27.692 1386.39 26.9223 Q1390.24 26.1121 1393.89 26.1121 Q1403.73 26.1121 1408.59 31.2163 Q1413.45 36.3204 1413.45 46.6907 Z" fill="#000000" fill-rule="evenodd" fill-opacity="1" /><path clip-path="url(#clip190)" d="M1484.1 28.5427 L1484.1 35.5912 Q1480.94 33.9709 1477.54 33.1607 Q1474.13 32.3505 1470.49 32.3505 Q1464.94 32.3505 1462.14 34.0519 Q1459.39 35.7533 1459.39 39.156 Q1459.39 41.7486 1461.37 43.2475 Q1463.36 44.7058 1469.35 46.0426 L1471.91 46.6097 Q1479.85 48.3111 1483.17 51.4303 Q1486.53 54.509 1486.53 60.0587 Q1486.53 66.3781 1481.51 70.0644 Q1476.52 73.7508 1467.77 73.7508 Q1464.13 73.7508 1460.16 73.0216 Q1456.23 72.3329 1451.85 70.9151 L1451.85 63.2184 Q1455.99 65.3654 1460 66.4591 Q1464.01 67.5124 1467.94 67.5124 Q1473.2 67.5124 1476.04 65.73 Q1478.87 63.9071 1478.87 60.6258 Q1478.87 57.5877 1476.81 55.9673 Q1474.78 54.3469 1467.86 52.8481 L1465.26 52.2405 Q1458.34 50.7821 1455.26 47.7845 Q1452.18 44.7463 1452.18 39.4801 Q1452.18 33.0797 1456.72 29.5959 Q1461.25 26.1121 1469.6 26.1121 Q1473.73 26.1121 1477.37 26.7198 Q1481.02 27.3274 1484.1 28.5427 Z" fill="#000000" fill-rule="evenodd" fill-opacity="1" /><path clip-path="url(#clip190)" d="M1505.77 14.324 L1505.77 27.2059 L1521.12 27.2059 L1521.12 32.9987 L1505.77 32.9987 L1505.77 57.6282 Q1505.77 63.1779 1507.27 64.7578 Q1508.81 66.3376 1513.47 66.3376 L1521.12 66.3376 L1521.12 72.576 L1513.47 72.576 Q1504.84 72.576 1501.56 69.3758 Q1498.28 66.1351 1498.28 57.6282 L1498.28 32.9987 L1492.81 32.9987 L1492.81 27.2059 L1498.28 27.2059 L1498.28 14.324 L1505.77 14.324 Z" fill="#000000" fill-rule="evenodd" fill-opacity="1" /><path clip-path="url(#clip190)" d="M1551.55 49.7694 Q1542.51 49.7694 1539.03 51.8354 Q1535.55 53.9013 1535.55 58.8839 Q1535.55 62.8538 1538.14 65.2034 Q1540.77 67.5124 1545.27 67.5124 Q1551.47 67.5124 1555.19 63.1374 Q1558.96 58.7219 1558.96 51.4303 L1558.96 49.7694 L1551.55 49.7694 M1566.41 46.6907 L1566.41 72.576 L1558.96 72.576 L1558.96 65.6895 Q1556.41 69.8214 1552.6 71.8063 Q1548.79 73.7508 1543.28 73.7508 Q1536.32 73.7508 1532.18 69.8619 Q1528.09 65.9325 1528.09 59.3701 Q1528.09 51.7138 1533.2 47.825 Q1538.34 43.9361 1548.51 43.9361 L1558.96 43.9361 L1558.96 43.2069 Q1558.96 38.0623 1555.56 35.2672 Q1552.2 32.4315 1546.08 32.4315 Q1542.19 32.4315 1538.5 33.3632 Q1534.82 34.295 1531.41 36.1584 L1531.41 29.2718 Q1535.51 27.692 1539.35 26.9223 Q1543.2 26.1121 1546.85 26.1121 Q1556.69 26.1121 1561.55 31.2163 Q1566.41 36.3204 1566.41 46.6907 Z" fill="#000000" fill-rule="evenodd" fill-opacity="1" /><path clip-path="url(#clip190)" d="M1608.06 34.1734 Q1606.8 33.4443 1605.3 33.1202 Q1603.84 32.7556 1602.06 32.7556 Q1595.74 32.7556 1592.34 36.8875 Q1588.98 40.9789 1588.98 48.6757 L1588.98 72.576 L1581.48 72.576 L1581.48 27.2059 L1588.98 27.2059 L1588.98 34.2544 Q1591.33 30.1225 1595.09 28.1376 Q1598.86 26.1121 1604.25 26.1121 Q1605.02 26.1121 1605.95 26.2337 Q1606.88 26.3147 1608.02 26.5172 L1608.06 34.1734 Z" fill="#000000" fill-rule="evenodd" fill-opacity="1" /><path clip-path="url(#clip190)" d="M1674.9 28.9478 L1674.9 35.9153 Q1671.74 34.1734 1668.54 33.3227 Q1665.38 32.4315 1662.14 32.4315 Q1654.89 32.4315 1650.88 37.0496 Q1646.86 41.6271 1646.86 49.9314 Q1646.86 58.2358 1650.88 62.8538 Q1654.89 67.4314 1662.14 67.4314 Q1665.38 67.4314 1668.54 66.5807 Q1671.74 65.6895 1674.9 63.9476 L1674.9 70.8341 Q1671.78 72.2924 1668.42 73.0216 Q1665.09 73.7508 1661.33 73.7508 Q1651.08 73.7508 1645.04 67.3098 Q1639.01 60.8689 1639.01 49.9314 Q1639.01 38.832 1645.08 32.472 Q1651.2 26.1121 1661.81 26.1121 Q1665.26 26.1121 1668.54 26.8413 Q1671.82 27.5299 1674.9 28.9478 Z" fill="#000000" fill-rule="evenodd" fill-opacity="1" /><path clip-path="url(#clip190)" d="M1705.44 32.4315 Q1699.45 32.4315 1695.96 37.1306 Q1692.48 41.7891 1692.48 49.9314 Q1692.48 58.0738 1695.92 62.7728 Q1699.4 67.4314 1705.44 67.4314 Q1711.4 67.4314 1714.88 62.7323 Q1718.36 58.0333 1718.36 49.9314 Q1718.36 41.8701 1714.88 37.1711 Q1711.4 32.4315 1705.44 32.4315 M1705.44 26.1121 Q1715.16 26.1121 1720.71 32.4315 Q1726.26 38.7509 1726.26 49.9314 Q1726.26 61.0714 1720.71 67.4314 Q1715.16 73.7508 1705.44 73.7508 Q1695.68 73.7508 1690.13 67.4314 Q1684.62 61.0714 1684.62 49.9314 Q1684.62 38.7509 1690.13 32.4315 Q1695.68 26.1121 1705.44 26.1121 Z" fill="#000000" fill-rule="evenodd" fill-opacity="1" /><path clip-path="url(#clip190)" d="M1776.33 45.1919 L1776.33 72.576 L1768.88 72.576 L1768.88 45.4349 Q1768.88 38.994 1766.37 35.7938 Q1763.85 32.5936 1758.83 32.5936 Q1752.8 32.5936 1749.31 36.4419 Q1745.83 40.2903 1745.83 46.9338 L1745.83 72.576 L1738.33 72.576 L1738.33 27.2059 L1745.83 27.2059 L1745.83 34.2544 Q1748.5 30.163 1752.11 28.1376 Q1755.75 26.1121 1760.49 26.1121 Q1768.31 26.1121 1772.32 30.9732 Q1776.33 35.7938 1776.33 45.1919 Z" fill="#000000" fill-rule="evenodd" fill-opacity="1" /><path clip-path="url(#clip190)" d="M1820.12 28.5427 L1820.12 35.5912 Q1816.96 33.9709 1813.56 33.1607 Q1810.16 32.3505 1806.51 32.3505 Q1800.96 32.3505 1798.17 34.0519 Q1795.41 35.7533 1795.41 39.156 Q1795.41 41.7486 1797.4 43.2475 Q1799.38 44.7058 1805.38 46.0426 L1807.93 46.6097 Q1815.87 48.3111 1819.19 51.4303 Q1822.55 54.509 1822.55 60.0587 Q1822.55 66.3781 1817.53 70.0644 Q1812.55 73.7508 1803.8 73.7508 Q1800.15 73.7508 1796.18 73.0216 Q1792.25 72.3329 1787.88 70.9151 L1787.88 63.2184 Q1792.01 65.3654 1796.02 66.4591 Q1800.03 67.5124 1803.96 67.5124 Q1809.22 67.5124 1812.06 65.73 Q1814.9 63.9071 1814.9 60.6258 Q1814.9 57.5877 1812.83 55.9673 Q1810.8 54.3469 1803.88 52.8481 L1801.29 52.2405 Q1794.36 50.7821 1791.28 47.7845 Q1788.2 44.7463 1788.2 39.4801 Q1788.2 33.0797 1792.74 29.5959 Q1797.27 26.1121 1805.62 26.1121 Q1809.75 26.1121 1813.4 26.7198 Q1817.04 27.3274 1820.12 28.5427 Z" fill="#000000" fill-rule="evenodd" fill-opacity="1" /><path clip-path="url(#clip190)" d="M1841.79 14.324 L1841.79 27.2059 L1857.15 27.2059 L1857.15 32.9987 L1841.79 32.9987 L1841.79 57.6282 Q1841.79 63.1779 1843.29 64.7578 Q1844.83 66.3376 1849.49 66.3376 L1857.15 66.3376 L1857.15 72.576 L1849.49 72.576 Q1840.86 72.576 1837.58 69.3758 Q1834.3 66.1351 1834.3 57.6282 L1834.3 32.9987 L1828.83 32.9987 L1828.83 27.2059 L1834.3 27.2059 L1834.3 14.324 L1841.79 14.324 Z" fill="#000000" fill-rule="evenodd" fill-opacity="1" /><path clip-path="url(#clip190)" d="M1905.76 48.0275 L1905.76 51.6733 L1871.49 51.6733 Q1871.97 59.3701 1876.11 63.421 Q1880.28 67.4314 1887.69 67.4314 Q1891.98 67.4314 1896 66.3781 Q1900.05 65.3249 1904.02 63.2184 L1904.02 70.267 Q1900.01 71.9684 1895.79 72.8596 Q1891.58 73.7508 1887.25 73.7508 Q1876.39 73.7508 1870.03 67.4314 Q1863.71 61.1119 1863.71 50.3365 Q1863.71 39.1965 1869.7 32.6746 Q1875.74 26.1121 1885.95 26.1121 Q1895.1 26.1121 1900.41 32.0264 Q1905.76 37.9003 1905.76 48.0275 M1898.3 45.84 Q1898.22 39.7232 1894.86 36.0774 Q1891.54 32.4315 1886.03 32.4315 Q1879.79 32.4315 1876.02 35.9558 Q1872.3 39.4801 1871.73 45.8805 L1898.3 45.84 Z" fill="#000000" fill-rule="evenodd" fill-opacity="1" /><path clip-path="url(#clip190)" d="M1917.99 9.54393 L1925.45 9.54393 L1925.45 72.576 L1917.99 72.576 L1917.99 9.54393 Z" fill="#000000" fill-rule="evenodd" fill-opacity="1" /><path clip-path="url(#clip190)" d="M1941.04 9.54393 L1948.5 9.54393 L1948.5 72.576 L1941.04 72.576 L1941.04 9.54393 Z" fill="#000000" fill-rule="evenodd" fill-opacity="1" /><path clip-path="url(#clip190)" d="M1984.71 49.7694 Q1975.68 49.7694 1972.19 51.8354 Q1968.71 53.9013 1968.71 58.8839 Q1968.71 62.8538 1971.3 65.2034 Q1973.93 67.5124 1978.43 67.5124 Q1984.63 67.5124 1988.36 63.1374 Q1992.12 58.7219 1992.12 51.4303 L1992.12 49.7694 L1984.71 49.7694 M1999.58 46.6907 L1999.58 72.576 L1992.12 72.576 L1992.12 65.6895 Q1989.57 69.8214 1985.76 71.8063 Q1981.96 73.7508 1976.45 73.7508 Q1969.48 73.7508 1965.35 69.8619 Q1961.26 65.9325 1961.26 59.3701 Q1961.26 51.7138 1966.36 47.825 Q1971.5 43.9361 1981.67 43.9361 L1992.12 43.9361 L1992.12 43.2069 Q1992.12 38.0623 1988.72 35.2672 Q1985.36 32.4315 1979.24 32.4315 Q1975.35 32.4315 1971.67 33.3632 Q1967.98 34.295 1964.58 36.1584 L1964.58 29.2718 Q1968.67 27.692 1972.52 26.9223 Q1976.37 26.1121 1980.01 26.1121 Q1989.85 26.1121 1994.72 31.2163 Q1999.58 36.3204 1999.58 46.6907 Z" fill="#000000" fill-rule="evenodd" fill-opacity="1" /><path clip-path="url(#clip190)" d="M2022.3 14.324 L2022.3 27.2059 L2037.66 27.2059 L2037.66 32.9987 L2022.3 32.9987 L2022.3 57.6282 Q2022.3 63.1779 2023.8 64.7578 Q2025.34 66.3376 2030 66.3376 L2037.66 66.3376 L2037.66 72.576 L2030 72.576 Q2021.37 72.576 2018.09 69.3758 Q2014.81 66.1351 2014.81 57.6282 L2014.81 32.9987 L2009.34 32.9987 L2009.34 27.2059 L2014.81 27.2059 L2014.81 14.324 L2022.3 14.324 Z" fill="#000000" fill-rule="evenodd" fill-opacity="1" /><path clip-path="url(#clip190)" d="M2047.46 27.2059 L2054.91 27.2059 L2054.91 72.576 L2047.46 72.576 L2047.46 27.2059 M2047.46 9.54393 L2054.91 9.54393 L2054.91 18.9825 L2047.46 18.9825 L2047.46 9.54393 Z" fill="#000000" fill-rule="evenodd" fill-opacity="1" /><path clip-path="url(#clip190)" d="M2088.09 32.4315 Q2082.09 32.4315 2078.61 37.1306 Q2075.13 41.7891 2075.13 49.9314 Q2075.13 58.0738 2078.57 62.7728 Q2082.05 67.4314 2088.09 67.4314 Q2094.04 67.4314 2097.53 62.7323 Q2101.01 58.0333 2101.01 49.9314 Q2101.01 41.8701 2097.53 37.1711 Q2094.04 32.4315 2088.09 32.4315 M2088.09 26.1121 Q2097.81 26.1121 2103.36 32.4315 Q2108.91 38.7509 2108.91 49.9314 Q2108.91 61.0714 2103.36 67.4314 Q2097.81 73.7508 2088.09 73.7508 Q2078.33 73.7508 2072.78 67.4314 Q2067.27 61.0714 2067.27 49.9314 Q2067.27 38.7509 2072.78 32.4315 Q2078.33 26.1121 2088.09 26.1121 Z" fill="#000000" fill-rule="evenodd" fill-opacity="1" /><path clip-path="url(#clip190)" d="M2158.98 45.1919 L2158.98 72.576 L2151.53 72.576 L2151.53 45.4349 Q2151.53 38.994 2149.01 35.7938 Q2146.5 32.5936 2141.48 32.5936 Q2135.44 32.5936 2131.96 36.4419 Q2128.48 40.2903 2128.48 46.9338 L2128.48 72.576 L2120.98 72.576 L2120.98 27.2059 L2128.48 27.2059 L2128.48 34.2544 Q2131.15 30.163 2134.76 28.1376 Q2138.4 26.1121 2143.14 26.1121 Q2150.96 26.1121 2154.97 30.9732 Q2158.98 35.7938 2158.98 45.1919 Z" fill="#000000" fill-rule="evenodd" fill-opacity="1" /><path clip-path="url(#clip192)" d="M479.004 757.326 L475.244 768.142 L463.788 768.382 L472.924 775.31 L469.596 786.27 L479.004 779.726 L488.412 786.27 L485.084 775.31 L494.22 768.382 L482.764 768.142 L479.004 757.326 Z" fill="#0000ff" fill-rule="evenodd" fill-opacity="1" stroke="#000000" stroke-opacity="1" stroke-width="3.2"/>
<path clip-path="url(#clip192)" d="M1014.36 1190.56 L1010.6 1201.38 L999.145 1201.62 L1008.28 1208.55 L1004.95 1219.51 L1014.36 1212.96 L1023.77 1219.51 L1020.44 1208.55 L1029.58 1201.62 L1018.12 1201.38 L1014.36 1190.56 Z" fill="#0000ff" fill-rule="evenodd" fill-opacity="1" stroke="#000000" stroke-opacity="1" stroke-width="3.2"/>
<path clip-path="url(#clip192)" d="M1282.04 757.326 L1278.28 768.142 L1266.82 768.382 L1275.96 775.31 L1272.63 786.27 L1282.04 779.726 L1291.45 786.27 L1288.12 775.31 L1297.26 768.382 L1285.8 768.142 L1282.04 757.326 Z" fill="#0000ff" fill-rule="evenodd" fill-opacity="1" stroke="#000000" stroke-opacity="1" stroke-width="3.2"/>
<path clip-path="url(#clip192)" d="M2085.08 973.944 L2081.32 984.76 L2069.86 985 L2079 991.928 L2075.67 1002.89 L2085.08 996.344 L2094.48 1002.89 L2091.16 991.928 L2100.29 985 L2088.84 984.76 L2085.08 973.944 Z" fill="#0000ff" fill-rule="evenodd" fill-opacity="1" stroke="#000000" stroke-opacity="1" stroke-width="3.2"/>
<path clip-path="url(#clip192)" d="M2085.08 324.09 L2081.32 334.906 L2069.86 335.146 L2079 342.074 L2075.67 353.034 L2085.08 346.49 L2094.48 353.034 L2091.16 342.074 L2100.29 335.146 L2088.84 334.906 L2085.08 324.09 Z" fill="#0000ff" fill-rule="evenodd" fill-opacity="1" stroke="#000000" stroke-opacity="1" stroke-width="3.2"/>
<polyline clip-path="url(#clip192)" style="stroke:#ff0000; stroke-linecap:butt; stroke-linejoin:round; stroke-width:4; stroke-opacity:1; fill:none" points="
  479.004,773.326 1014.36,1206.56 1282.04,773.326 2085.08,989.944 2085.08,340.09 
  "/>
<path clip-path="url(#clip190)" d="
M1991.01 322.316 L2281.37 322.316 L2281.37 166.796 L1991.01 166.796  Z
  " fill="#ffffff" fill-rule="evenodd" fill-opacity="1"/>
<polyline clip-path="url(#clip190)" style="stroke:#000000; stroke-linecap:butt; stroke-linejoin:round; stroke-width:4; stroke-opacity:1; fill:none" points="
  1991.01,322.316 2281.37,322.316 2281.37,166.796 1991.01,166.796 1991.01,322.316 
  "/>
<path clip-path="url(#clip190)" d="M2086.18 193.036 L2080.17 210.341 L2061.84 210.725 L2076.45 221.81 L2071.13 239.346 L2086.18 228.876 L2101.24 239.346 L2095.91 221.81 L2110.53 210.725 L2092.2 210.341 L2086.18 193.036 Z" fill="#0000ff" fill-rule="evenodd" fill-opacity="1" stroke="#000000" stroke-opacity="1" stroke-width="5.12"/>
<path clip-path="url(#clip190)" d="M2195.2 238.323 Q2193.39 242.953 2191.68 244.365 Q2189.97 245.777 2187.1 245.777 L2183.7 245.777 L2183.7 242.212 L2186.2 242.212 Q2187.95 242.212 2188.93 241.379 Q2189.9 240.545 2191.08 237.443 L2191.84 235.499 L2181.36 209.99 L2185.87 209.99 L2193.97 230.268 L2202.07 209.99 L2206.59 209.99 L2195.2 238.323 Z" fill="#000000" fill-rule="evenodd" fill-opacity="1" /><path clip-path="url(#clip190)" d="M2213.88 231.981 L2221.52 231.981 L2221.52 205.615 L2213.21 207.282 L2213.21 203.022 L2221.47 201.356 L2226.15 201.356 L2226.15 231.981 L2233.79 231.981 L2233.79 235.916 L2213.88 235.916 L2213.88 231.981 Z" fill="#000000" fill-rule="evenodd" fill-opacity="1" /><polyline clip-path="url(#clip190)" style="stroke:#ff0000; stroke-linecap:butt; stroke-linejoin:round; stroke-width:4; stroke-opacity:1; fill:none" points="
  2014.8,270.476 2157.56,270.476 
  "/>
<path clip-path="url(#clip190)" d="M2195.2 290.163 Q2193.39 294.793 2191.68 296.205 Q2189.97 297.617 2187.1 297.617 L2183.7 297.617 L2183.7 294.052 L2186.2 294.052 Q2187.95 294.052 2188.93 293.219 Q2189.9 292.385 2191.08 289.283 L2191.84 287.339 L2181.36 261.83 L2185.87 261.83 L2193.97 282.108 L2202.07 261.83 L2206.59 261.83 L2195.2 290.163 Z" fill="#000000" fill-rule="evenodd" fill-opacity="1" /><path clip-path="url(#clip190)" d="M2217.1 283.821 L2233.42 283.821 L2233.42 287.756 L2211.47 287.756 L2211.47 283.821 Q2214.13 281.066 2218.72 276.436 Q2223.32 271.784 2224.51 270.441 Q2226.75 267.918 2227.63 266.182 Q2228.53 264.423 2228.53 262.733 Q2228.53 259.978 2226.59 258.242 Q2224.67 256.506 2221.57 256.506 Q2219.37 256.506 2216.91 257.27 Q2214.48 258.034 2211.7 259.585 L2211.7 254.862 Q2214.53 253.728 2216.98 253.149 Q2219.44 252.571 2221.47 252.571 Q2226.84 252.571 2230.04 255.256 Q2233.23 257.941 2233.23 262.432 Q2233.23 264.561 2232.42 266.483 Q2231.63 268.381 2229.53 270.973 Q2228.95 271.645 2225.85 274.862 Q2222.75 278.057 2217.1 283.821 Z" fill="#000000" fill-rule="evenodd" fill-opacity="1" /></svg>
