<?xml version="1.0" encoding="utf-8"?>
<svg xmlns="http://www.w3.org/2000/svg" xmlns:xlink="http://www.w3.org/1999/xlink" width="600" height="400" viewBox="0 0 2400 1600">
<defs>
  <clipPath id="clip600">
    <rect x="0" y="0" width="2400" height="1600"/>
  </clipPath>
</defs>
<path clip-path="url(#clip600)" d="
M0 1600 L2400 1600 L2400 0 L0 0  Z
  " fill="#ffffff" fill-rule="evenodd" fill-opacity="1"/>
<defs>
  <clipPath id="clip601">
    <rect x="480" y="0" width="1681" height="1600"/>
  </clipPath>
</defs>
<path clip-path="url(#clip600)" d="
M219.38 1423.18 L2352.76 1423.18 L2352.76 123.472 L219.38 123.472  Z
  " fill="#ffffff" fill-rule="evenodd" fill-opacity="1"/>
<defs>
  <clipPath id="clip602">
    <rect x="219" y="123" width="2134" height="1301"/>
  </clipPath>
</defs>
<polyline clip-path="url(#clip602)" style="stroke:#000000; stroke-linecap:butt; stroke-linejoin:round; stroke-width:2; stroke-opacity:0.1; fill:none" points="
  2143.91,1423.18 2143.91,123.472 
  "/>
<polyline clip-path="url(#clip602)" style="stroke:#000000; stroke-linecap:butt; stroke-linejoin:round; stroke-width:2; stroke-opacity:0.1; fill:none" points="
  1915.15,1423.18 1915.15,123.472 
  "/>
<polyline clip-path="url(#clip602)" style="stroke:#000000; stroke-linecap:butt; stroke-linejoin:round; stroke-width:2; stroke-opacity:0.1; fill:none" points="
  1572.02,1423.18 1572.02,123.472 
  "/>
<polyline clip-path="url(#clip602)" style="stroke:#000000; stroke-linecap:butt; stroke-linejoin:round; stroke-width:2; stroke-opacity:0.1; fill:none" points="
  1228.88,1423.18 1228.88,123.472 
  "/>
<polyline clip-path="url(#clip602)" style="stroke:#000000; stroke-linecap:butt; stroke-linejoin:round; stroke-width:2; stroke-opacity:0.1; fill:none" points="
  1000.12,1423.18 1000.12,123.472 
  "/>
<polyline clip-path="url(#clip602)" style="stroke:#000000; stroke-linecap:butt; stroke-linejoin:round; stroke-width:2; stroke-opacity:0.1; fill:none" points="
  771.361,1423.18 771.361,123.472 
  "/>
<polyline clip-path="url(#clip602)" style="stroke:#000000; stroke-linecap:butt; stroke-linejoin:round; stroke-width:2; stroke-opacity:0.1; fill:none" points="
  428.223,1423.18 428.223,123.472 
  "/>
<polyline clip-path="url(#clip600)" style="stroke:#000000; stroke-linecap:butt; stroke-linejoin:round; stroke-width:4; stroke-opacity:1; fill:none" points="
  219.38,1423.18 2352.76,1423.18 
  "/>
<polyline clip-path="url(#clip600)" style="stroke:#000000; stroke-linecap:butt; stroke-linejoin:round; stroke-width:4; stroke-opacity:1; fill:none" points="
  2143.91,1423.18 2143.91,1404.28 
  "/>
<polyline clip-path="url(#clip600)" style="stroke:#000000; stroke-linecap:butt; stroke-linejoin:round; stroke-width:4; stroke-opacity:1; fill:none" points="
  1915.15,1423.18 1915.15,1404.28 
  "/>
<polyline clip-path="url(#clip600)" style="stroke:#000000; stroke-linecap:butt; stroke-linejoin:round; stroke-width:4; stroke-opacity:1; fill:none" points="
  1572.02,1423.18 1572.02,1404.28 
  "/>
<polyline clip-path="url(#clip600)" style="stroke:#000000; stroke-linecap:butt; stroke-linejoin:round; stroke-width:4; stroke-opacity:1; fill:none" points="
  1228.88,1423.18 1228.88,1404.28 
  "/>
<polyline clip-path="url(#clip600)" style="stroke:#000000; stroke-linecap:butt; stroke-linejoin:round; stroke-width:4; stroke-opacity:1; fill:none" points="
  1000.12,1423.18 1000.12,1404.28 
  "/>
<polyline clip-path="url(#clip600)" style="stroke:#000000; stroke-linecap:butt; stroke-linejoin:round; stroke-width:4; stroke-opacity:1; fill:none" points="
  771.361,1423.18 771.361,1404.28 
  "/>
<polyline clip-path="url(#clip600)" style="stroke:#000000; stroke-linecap:butt; stroke-linejoin:round; stroke-width:4; stroke-opacity:1; fill:none" points="
  428.223,1423.18 428.223,1404.28 
  "/>
<path clip-path="url(#clip600)" d="M2119.4 1479.92 L2127.04 1479.92 L2127.04 1453.55 L2118.73 1455.22 L2118.73 1450.96 L2126.99 1449.29 L2131.67 1449.29 L2131.67 1479.92 L2139.31 1479.92 L2139.31 1483.85 L2119.4 1483.85 L2119.4 1479.92 Z" fill="#000000" fill-rule="evenodd" fill-opacity="1" /><path clip-path="url(#clip600)" d="M2152.78 1479.92 L2169.1 1479.92 L2169.1 1483.85 L2147.15 1483.85 L2147.15 1479.92 Q2149.82 1477.16 2154.4 1472.53 Q2159.01 1467.88 2160.19 1466.54 Q2162.43 1464.01 2163.31 1462.28 Q2164.21 1460.52 2164.21 1458.83 Q2164.21 1456.07 2162.27 1454.34 Q2160.35 1452.6 2157.25 1452.6 Q2155.05 1452.6 2152.59 1453.37 Q2150.16 1454.13 2147.39 1455.68 L2147.39 1450.96 Q2150.21 1449.82 2152.66 1449.25 Q2155.12 1448.67 2157.15 1448.67 Q2162.52 1448.67 2165.72 1451.35 Q2168.91 1454.04 2168.91 1458.53 Q2168.91 1460.66 2168.1 1462.58 Q2167.32 1464.48 2165.21 1467.07 Q2164.63 1467.74 2161.53 1470.96 Q2158.43 1474.15 2152.78 1479.92 Z" fill="#000000" fill-rule="evenodd" fill-opacity="1" /><path clip-path="url(#clip600)" d="M1889.84 1479.92 L1897.48 1479.92 L1897.48 1453.55 L1889.17 1455.22 L1889.17 1450.96 L1897.43 1449.29 L1902.11 1449.29 L1902.11 1479.92 L1909.75 1479.92 L1909.75 1483.85 L1889.84 1483.85 L1889.84 1479.92 Z" fill="#000000" fill-rule="evenodd" fill-opacity="1" /><path clip-path="url(#clip600)" d="M1929.19 1452.37 Q1925.58 1452.37 1923.75 1455.94 Q1921.95 1459.48 1921.95 1466.61 Q1921.95 1473.71 1923.75 1477.28 Q1925.58 1480.82 1929.19 1480.82 Q1932.83 1480.82 1934.63 1477.28 Q1936.46 1473.71 1936.46 1466.61 Q1936.46 1459.48 1934.63 1455.94 Q1932.83 1452.37 1929.19 1452.37 M1929.19 1448.67 Q1935 1448.67 1938.06 1453.27 Q1941.14 1457.86 1941.14 1466.61 Q1941.14 1475.33 1938.06 1479.94 Q1935 1484.52 1929.19 1484.52 Q1923.38 1484.52 1920.3 1479.94 Q1917.25 1475.33 1917.25 1466.61 Q1917.25 1457.86 1920.3 1453.27 Q1923.38 1448.67 1929.19 1448.67 Z" fill="#000000" fill-rule="evenodd" fill-opacity="1" /><path clip-path="url(#clip600)" d="M1560.91 1449.29 L1583.13 1449.29 L1583.13 1451.28 L1570.58 1483.85 L1565.7 1483.85 L1577.5 1453.23 L1560.91 1453.23 L1560.91 1449.29 Z" fill="#000000" fill-rule="evenodd" fill-opacity="1" /><path clip-path="url(#clip600)" d="M1231.89 1453.37 L1220.08 1471.81 L1231.89 1471.81 L1231.89 1453.37 M1230.66 1449.29 L1236.54 1449.29 L1236.54 1471.81 L1241.47 1471.81 L1241.47 1475.7 L1236.54 1475.7 L1236.54 1483.85 L1231.89 1483.85 L1231.89 1475.7 L1216.29 1475.7 L1216.29 1471.19 L1230.66 1449.29 Z" fill="#000000" fill-rule="evenodd" fill-opacity="1" /><path clip-path="url(#clip600)" d="M994.773 1479.92 L1011.09 1479.92 L1011.09 1483.85 L989.148 1483.85 L989.148 1479.92 Q991.81 1477.16 996.393 1472.53 Q1001 1467.88 1002.18 1466.54 Q1004.43 1464.01 1005.3 1462.28 Q1006.21 1460.52 1006.21 1458.83 Q1006.21 1456.07 1004.26 1454.34 Q1002.34 1452.6 999.24 1452.6 Q997.041 1452.6 994.587 1453.37 Q992.157 1454.13 989.379 1455.68 L989.379 1450.96 Q992.203 1449.82 994.657 1449.25 Q997.11 1448.67 999.147 1448.67 Q1004.52 1448.67 1007.71 1451.35 Q1010.91 1454.04 1010.91 1458.53 Q1010.91 1460.66 1010.1 1462.58 Q1009.31 1464.48 1007.2 1467.07 Q1006.62 1467.74 1003.52 1470.96 Q1000.42 1474.15 994.773 1479.92 Z" fill="#000000" fill-rule="evenodd" fill-opacity="1" /><path clip-path="url(#clip600)" d="M771.361 1452.37 Q767.75 1452.37 765.921 1455.94 Q764.116 1459.48 764.116 1466.61 Q764.116 1473.71 765.921 1477.28 Q767.75 1480.82 771.361 1480.82 Q774.995 1480.82 776.801 1477.28 Q778.63 1473.71 778.63 1466.61 Q778.63 1459.48 776.801 1455.94 Q774.995 1452.37 771.361 1452.37 M771.361 1448.67 Q777.171 1448.67 780.227 1453.27 Q783.305 1457.86 783.305 1466.61 Q783.305 1475.33 780.227 1479.94 Q777.171 1484.52 771.361 1484.52 Q765.551 1484.52 762.472 1479.94 Q759.417 1475.33 759.417 1466.61 Q759.417 1457.86 762.472 1453.27 Q765.551 1448.67 771.361 1448.67 Z" fill="#000000" fill-rule="evenodd" fill-opacity="1" /><path clip-path="url(#clip600)" d="M397.691 1467.02 L427.367 1467.02 L427.367 1470.96 L397.691 1470.96 L397.691 1467.02 Z" fill="#000000" fill-rule="evenodd" fill-opacity="1" /><path clip-path="url(#clip600)" d="M451.626 1465.22 Q454.982 1465.94 456.857 1468.2 Q458.755 1470.47 458.755 1473.81 Q458.755 1478.92 455.237 1481.72 Q451.718 1484.52 445.237 1484.52 Q443.061 1484.52 440.746 1484.08 Q438.455 1483.67 436.001 1482.81 L436.001 1478.3 Q437.945 1479.43 440.26 1480.01 Q442.575 1480.59 445.098 1480.59 Q449.496 1480.59 451.788 1478.85 Q454.103 1477.12 454.103 1473.81 Q454.103 1470.75 451.95 1469.04 Q449.82 1467.3 446.001 1467.3 L441.973 1467.3 L441.973 1463.46 L446.186 1463.46 Q449.635 1463.46 451.464 1462.09 Q453.292 1460.7 453.292 1458.11 Q453.292 1455.45 451.394 1454.04 Q449.519 1452.6 446.001 1452.6 Q444.079 1452.6 441.88 1453.02 Q439.681 1453.44 437.042 1454.31 L437.042 1450.15 Q439.705 1449.41 442.019 1449.04 Q444.357 1448.67 446.417 1448.67 Q451.741 1448.67 454.843 1451.1 Q457.945 1453.5 457.945 1457.63 Q457.945 1460.5 456.302 1462.49 Q454.658 1464.45 451.626 1465.22 Z" fill="#000000" fill-rule="evenodd" fill-opacity="1" /><path clip-path="url(#clip600)" d="M1016.31 1561.26 L1016.31 1548.5 L1005.8 1548.5 L1005.8 1543.22 L1022.67 1543.22 L1022.67 1563.62 Q1018.95 1566.26 1014.46 1567.63 Q1009.97 1568.97 1004.88 1568.97 Q993.739 1568.97 987.437 1562.47 Q981.167 1555.95 981.167 1544.33 Q981.167 1532.68 987.437 1526.19 Q993.739 1519.66 1004.88 1519.66 Q1009.53 1519.66 1013.7 1520.81 Q1017.9 1521.96 1021.43 1524.18 L1021.43 1531.03 Q1017.86 1528 1013.85 1526.48 Q1009.84 1524.95 1005.42 1524.95 Q996.699 1524.95 992.307 1529.82 Q987.946 1534.69 987.946 1544.33 Q987.946 1553.94 992.307 1558.81 Q996.699 1563.68 1005.42 1563.68 Q1008.83 1563.68 1011.5 1563.11 Q1014.17 1562.51 1016.31 1561.26 Z" fill="#000000" fill-rule="evenodd" fill-opacity="1" /><path clip-path="url(#clip600)" d="M1054.82 1537.87 Q1053.83 1537.3 1052.65 1537.04 Q1051.51 1536.76 1050.11 1536.76 Q1045.14 1536.76 1042.47 1540 Q1039.83 1543.22 1039.83 1549.27 L1039.83 1568.04 L1033.94 1568.04 L1033.94 1532.4 L1039.83 1532.4 L1039.83 1537.93 Q1041.67 1534.69 1044.63 1533.13 Q1047.59 1531.54 1051.83 1531.54 Q1052.43 1531.54 1053.16 1531.63 Q1053.89 1531.7 1054.79 1531.85 L1054.82 1537.87 Z" fill="#000000" fill-rule="evenodd" fill-opacity="1" /><path clip-path="url(#clip600)" d="M1077.16 1550.12 Q1070.06 1550.12 1067.33 1551.75 Q1064.59 1553.37 1064.59 1557.29 Q1064.59 1560.4 1066.63 1562.25 Q1068.7 1564.07 1072.23 1564.07 Q1077.1 1564.07 1080.03 1560.63 Q1082.99 1557.16 1082.99 1551.43 L1082.99 1550.12 L1077.16 1550.12 M1088.84 1547.71 L1088.84 1568.04 L1082.99 1568.04 L1082.99 1562.63 Q1080.98 1565.88 1077.99 1567.44 Q1075 1568.97 1070.67 1568.97 Q1065.19 1568.97 1061.95 1565.91 Q1058.73 1562.82 1058.73 1557.67 Q1058.73 1551.65 1062.74 1548.6 Q1066.79 1545.54 1074.77 1545.54 L1082.99 1545.54 L1082.99 1544.97 Q1082.99 1540.93 1080.31 1538.73 Q1077.67 1536.5 1072.86 1536.5 Q1069.81 1536.5 1066.91 1537.23 Q1064.02 1537.97 1061.34 1539.43 L1061.34 1534.02 Q1064.56 1532.78 1067.58 1532.17 Q1070.6 1531.54 1073.47 1531.54 Q1081.2 1531.54 1085.02 1535.55 Q1088.84 1539.56 1088.84 1547.71 Z" fill="#000000" fill-rule="evenodd" fill-opacity="1" /><path clip-path="url(#clip600)" d="M1124.36 1537.81 L1124.36 1518.52 L1130.22 1518.52 L1130.22 1568.04 L1124.36 1568.04 L1124.36 1562.7 Q1122.52 1565.88 1119.68 1567.44 Q1116.88 1568.97 1112.94 1568.97 Q1106.48 1568.97 1102.4 1563.81 Q1098.36 1558.65 1098.36 1550.25 Q1098.36 1541.85 1102.4 1536.69 Q1106.48 1531.54 1112.94 1531.54 Q1116.88 1531.54 1119.68 1533.1 Q1122.52 1534.62 1124.36 1537.81 M1104.41 1550.25 Q1104.41 1556.71 1107.05 1560.4 Q1109.72 1564.07 1114.37 1564.07 Q1119.02 1564.07 1121.69 1560.4 Q1124.36 1556.71 1124.36 1550.25 Q1124.36 1543.79 1121.69 1540.13 Q1119.02 1536.44 1114.37 1536.44 Q1109.72 1536.44 1107.05 1540.13 Q1104.41 1543.79 1104.41 1550.25 Z" fill="#000000" fill-rule="evenodd" fill-opacity="1" /><path clip-path="url(#clip600)" d="M1172.77 1548.76 L1172.77 1551.62 L1145.85 1551.62 Q1146.23 1557.67 1149.48 1560.85 Q1152.75 1564 1158.58 1564 Q1161.95 1564 1165.1 1563.17 Q1168.29 1562.35 1171.41 1560.69 L1171.41 1566.23 Q1168.25 1567.57 1164.94 1568.27 Q1161.63 1568.97 1158.23 1568.97 Q1149.7 1568.97 1144.7 1564 Q1139.74 1559.04 1139.74 1550.57 Q1139.74 1541.82 1144.45 1536.69 Q1149.19 1531.54 1157.21 1531.54 Q1164.4 1531.54 1168.57 1536.18 Q1172.77 1540.8 1172.77 1548.76 M1166.92 1547.04 Q1166.85 1542.23 1164.21 1539.37 Q1161.6 1536.5 1157.27 1536.5 Q1152.37 1536.5 1149.41 1539.27 Q1146.48 1542.04 1146.04 1547.07 L1166.92 1547.04 Z" fill="#000000" fill-rule="evenodd" fill-opacity="1" /><path clip-path="url(#clip600)" d="M1202.31 1520.52 L1232.87 1520.52 L1232.87 1523.26 L1215.62 1568.04 L1208.9 1568.04 L1225.13 1525.93 L1202.31 1525.93 L1202.31 1520.52 Z" fill="#000000" fill-rule="evenodd" fill-opacity="1" /><path clip-path="url(#clip600)" d="M1241.62 1547.58 L1258.78 1547.58 L1258.78 1552.8 L1241.62 1552.8 L1241.62 1547.58 Z" fill="#000000" fill-rule="evenodd" fill-opacity="1" /><path clip-path="url(#clip600)" d="M1290.83 1533.45 L1290.83 1538.98 Q1288.34 1537.71 1285.67 1537.07 Q1283 1536.44 1280.13 1536.44 Q1275.77 1536.44 1273.58 1537.77 Q1271.41 1539.11 1271.41 1541.79 Q1271.41 1543.82 1272.97 1545 Q1274.53 1546.15 1279.24 1547.2 L1281.25 1547.64 Q1287.48 1548.98 1290.09 1551.43 Q1292.74 1553.85 1292.74 1558.21 Q1292.74 1563.17 1288.79 1566.07 Q1284.87 1568.97 1278 1568.97 Q1275.13 1568.97 1272.02 1568.39 Q1268.93 1567.85 1265.49 1566.74 L1265.49 1560.69 Q1268.74 1562.38 1271.89 1563.24 Q1275.04 1564.07 1278.13 1564.07 Q1282.26 1564.07 1284.49 1562.66 Q1286.72 1561.23 1286.72 1558.65 Q1286.72 1556.27 1285.1 1554.99 Q1283.51 1553.72 1278.06 1552.54 L1276.03 1552.07 Q1270.58 1550.92 1268.16 1548.56 Q1265.75 1546.18 1265.75 1542.04 Q1265.75 1537.01 1269.31 1534.27 Q1272.88 1531.54 1279.43 1531.54 Q1282.68 1531.54 1285.54 1532.01 Q1288.41 1532.49 1290.83 1533.45 Z" fill="#000000" fill-rule="evenodd" fill-opacity="1" /><path clip-path="url(#clip600)" d="M1307.85 1522.27 L1307.85 1532.4 L1319.92 1532.4 L1319.92 1536.95 L1307.85 1536.95 L1307.85 1556.3 Q1307.85 1560.66 1309.03 1561.9 Q1310.24 1563.14 1313.9 1563.14 L1319.92 1563.14 L1319.92 1568.04 L1313.9 1568.04 Q1307.12 1568.04 1304.54 1565.53 Q1301.97 1562.98 1301.97 1556.3 L1301.97 1536.95 L1297.67 1536.95 L1297.67 1532.4 L1301.97 1532.4 L1301.97 1522.27 L1307.85 1522.27 Z" fill="#000000" fill-rule="evenodd" fill-opacity="1" /><path clip-path="url(#clip600)" d="M1358.11 1548.76 L1358.11 1551.62 L1331.18 1551.62 Q1331.57 1557.67 1334.81 1560.85 Q1338.09 1564 1343.92 1564 Q1347.29 1564 1350.44 1563.17 Q1353.62 1562.35 1356.74 1560.69 L1356.74 1566.23 Q1353.59 1567.57 1350.28 1568.27 Q1346.97 1568.97 1343.57 1568.97 Q1335.04 1568.97 1330.04 1564 Q1325.07 1559.04 1325.07 1550.57 Q1325.07 1541.82 1329.78 1536.69 Q1334.53 1531.54 1342.55 1531.54 Q1349.74 1531.54 1353.91 1536.18 Q1358.11 1540.8 1358.11 1548.76 M1352.26 1547.04 Q1352.19 1542.23 1349.55 1539.37 Q1346.94 1536.5 1342.61 1536.5 Q1337.71 1536.5 1334.75 1539.27 Q1331.82 1542.04 1331.38 1547.07 L1352.26 1547.04 Z" fill="#000000" fill-rule="evenodd" fill-opacity="1" /><path clip-path="url(#clip600)" d="M1373.39 1562.7 L1373.39 1581.6 L1367.5 1581.6 L1367.5 1532.4 L1373.39 1532.4 L1373.39 1537.81 Q1375.24 1534.62 1378.04 1533.1 Q1380.87 1531.54 1384.78 1531.54 Q1391.28 1531.54 1395.32 1536.69 Q1399.39 1541.85 1399.39 1550.25 Q1399.39 1558.65 1395.32 1563.81 Q1391.28 1568.97 1384.78 1568.97 Q1380.87 1568.97 1378.04 1567.44 Q1375.24 1565.88 1373.39 1562.7 M1393.31 1550.25 Q1393.31 1543.79 1390.64 1540.13 Q1388 1536.44 1383.35 1536.44 Q1378.7 1536.44 1376.03 1540.13 Q1373.39 1543.79 1373.39 1550.25 Q1373.39 1556.71 1376.03 1560.4 Q1378.7 1564.07 1383.35 1564.07 Q1388 1564.07 1390.64 1560.4 Q1393.31 1556.71 1393.31 1550.25 Z" fill="#000000" fill-rule="evenodd" fill-opacity="1" /><path clip-path="url(#clip600)" d="M1406.14 1547.58 L1423.3 1547.58 L1423.3 1552.8 L1406.14 1552.8 L1406.14 1547.58 Z" fill="#000000" fill-rule="evenodd" fill-opacity="1" /><path clip-path="url(#clip600)" d="M1455.35 1533.45 L1455.35 1538.98 Q1452.87 1537.71 1450.19 1537.07 Q1447.52 1536.44 1444.65 1536.44 Q1440.29 1536.44 1438.1 1537.77 Q1435.93 1539.11 1435.93 1541.79 Q1435.93 1543.82 1437.49 1545 Q1439.05 1546.15 1443.76 1547.2 L1445.77 1547.64 Q1452.01 1548.98 1454.62 1551.43 Q1457.26 1553.85 1457.26 1558.21 Q1457.26 1563.17 1453.31 1566.07 Q1449.4 1568.97 1442.52 1568.97 Q1439.66 1568.97 1436.54 1568.39 Q1433.45 1567.85 1430.01 1566.74 L1430.01 1560.69 Q1433.26 1562.38 1436.41 1563.24 Q1439.56 1564.07 1442.65 1564.07 Q1446.79 1564.07 1449.01 1562.66 Q1451.24 1561.23 1451.24 1558.65 Q1451.24 1556.27 1449.62 1554.99 Q1448.03 1553.72 1442.58 1552.54 L1440.55 1552.07 Q1435.11 1550.92 1432.69 1548.56 Q1430.27 1546.18 1430.27 1542.04 Q1430.27 1537.01 1433.83 1534.27 Q1437.4 1531.54 1443.95 1531.54 Q1447.2 1531.54 1450.06 1532.01 Q1452.93 1532.49 1455.35 1533.45 Z" fill="#000000" fill-rule="evenodd" fill-opacity="1" /><path clip-path="url(#clip600)" d="M1492.24 1533.76 L1492.24 1539.24 Q1489.75 1537.87 1487.24 1537.2 Q1484.76 1536.5 1482.21 1536.5 Q1476.51 1536.5 1473.36 1540.13 Q1470.21 1543.73 1470.21 1550.25 Q1470.21 1556.78 1473.36 1560.4 Q1476.51 1564 1482.21 1564 Q1484.76 1564 1487.24 1563.33 Q1489.75 1562.63 1492.24 1561.26 L1492.24 1566.68 Q1489.79 1567.82 1487.14 1568.39 Q1484.53 1568.97 1481.57 1568.97 Q1473.52 1568.97 1468.78 1563.91 Q1464.04 1558.85 1464.04 1550.25 Q1464.04 1541.53 1468.81 1536.53 Q1473.62 1531.54 1481.96 1531.54 Q1484.66 1531.54 1487.24 1532.11 Q1489.82 1532.65 1492.24 1533.76 Z" fill="#000000" fill-rule="evenodd" fill-opacity="1" /><path clip-path="url(#clip600)" d="M1518.62 1550.12 Q1511.53 1550.12 1508.79 1551.75 Q1506.05 1553.37 1506.05 1557.29 Q1506.05 1560.4 1508.09 1562.25 Q1510.16 1564.07 1513.69 1564.07 Q1518.56 1564.07 1521.49 1560.63 Q1524.45 1557.16 1524.45 1551.43 L1524.45 1550.12 L1518.62 1550.12 M1530.3 1547.71 L1530.3 1568.04 L1524.45 1568.04 L1524.45 1562.63 Q1522.44 1565.88 1519.45 1567.44 Q1516.46 1568.97 1512.13 1568.97 Q1506.66 1568.97 1503.41 1565.91 Q1500.19 1562.82 1500.19 1557.67 Q1500.19 1551.65 1504.2 1548.6 Q1508.25 1545.54 1516.24 1545.54 L1524.45 1545.54 L1524.45 1544.97 Q1524.45 1540.93 1521.77 1538.73 Q1519.13 1536.5 1514.33 1536.5 Q1511.27 1536.5 1508.37 1537.23 Q1505.48 1537.97 1502.8 1539.43 L1502.8 1534.02 Q1506.02 1532.78 1509.04 1532.17 Q1512.07 1531.54 1514.93 1531.54 Q1522.67 1531.54 1526.48 1535.55 Q1530.3 1539.56 1530.3 1547.71 Z" fill="#000000" fill-rule="evenodd" fill-opacity="1" /><path clip-path="url(#clip600)" d="M1542.37 1518.52 L1548.22 1518.52 L1548.22 1568.04 L1542.37 1568.04 L1542.37 1518.52 Z" fill="#000000" fill-rule="evenodd" fill-opacity="1" /><path clip-path="url(#clip600)" d="M1590.97 1548.76 L1590.97 1551.62 L1564.04 1551.62 Q1564.42 1557.67 1567.67 1560.85 Q1570.95 1564 1576.77 1564 Q1580.15 1564 1583.3 1563.17 Q1586.48 1562.35 1589.6 1560.69 L1589.6 1566.23 Q1586.45 1567.57 1583.14 1568.27 Q1579.83 1568.97 1576.42 1568.97 Q1567.89 1568.97 1562.9 1564 Q1557.93 1559.04 1557.93 1550.57 Q1557.93 1541.82 1562.64 1536.69 Q1567.38 1531.54 1575.41 1531.54 Q1582.6 1531.54 1586.77 1536.18 Q1590.97 1540.8 1590.97 1548.76 M1585.11 1547.04 Q1585.05 1542.23 1582.41 1539.37 Q1579.8 1536.5 1575.47 1536.5 Q1570.57 1536.5 1567.61 1539.27 Q1564.68 1542.04 1564.23 1547.07 L1585.11 1547.04 Z" fill="#000000" fill-rule="evenodd" fill-opacity="1" /><polyline clip-path="url(#clip602)" style="stroke:#000000; stroke-linecap:butt; stroke-linejoin:round; stroke-width:2; stroke-opacity:0.1; fill:none" points="
  219.38,1386.4 2352.76,1386.4 
  "/>
<polyline clip-path="url(#clip602)" style="stroke:#000000; stroke-linecap:butt; stroke-linejoin:round; stroke-width:2; stroke-opacity:0.1; fill:none" points="
  219.38,1079.86 2352.76,1079.86 
  "/>
<polyline clip-path="url(#clip602)" style="stroke:#000000; stroke-linecap:butt; stroke-linejoin:round; stroke-width:2; stroke-opacity:0.1; fill:none" points="
  219.38,773.326 2352.76,773.326 
  "/>
<polyline clip-path="url(#clip602)" style="stroke:#000000; stroke-linecap:butt; stroke-linejoin:round; stroke-width:2; stroke-opacity:0.1; fill:none" points="
  219.38,466.791 2352.76,466.791 
  "/>
<polyline clip-path="url(#clip602)" style="stroke:#000000; stroke-linecap:butt; stroke-linejoin:round; stroke-width:2; stroke-opacity:0.1; fill:none" points="
  219.38,160.256 2352.76,160.256 
  "/>
<polyline clip-path="url(#clip600)" style="stroke:#000000; stroke-linecap:butt; stroke-linejoin:round; stroke-width:4; stroke-opacity:1; fill:none" points="
  219.38,1423.18 219.38,123.472 
  "/>
<polyline clip-path="url(#clip600)" style="stroke:#000000; stroke-linecap:butt; stroke-linejoin:round; stroke-width:4; stroke-opacity:1; fill:none" points="
  219.38,1386.4 238.278,1386.4 
  "/>
<polyline clip-path="url(#clip600)" style="stroke:#000000; stroke-linecap:butt; stroke-linejoin:round; stroke-width:4; stroke-opacity:1; fill:none" points="
  219.38,1079.86 238.278,1079.86 
  "/>
<polyline clip-path="url(#clip600)" style="stroke:#000000; stroke-linecap:butt; stroke-linejoin:round; stroke-width:4; stroke-opacity:1; fill:none" points="
  219.38,773.326 238.278,773.326 
  "/>
<polyline clip-path="url(#clip600)" style="stroke:#000000; stroke-linecap:butt; stroke-linejoin:round; stroke-width:4; stroke-opacity:1; fill:none" points="
  219.38,466.791 238.278,466.791 
  "/>
<polyline clip-path="url(#clip600)" style="stroke:#000000; stroke-linecap:butt; stroke-linejoin:round; stroke-width:4; stroke-opacity:1; fill:none" points="
  219.38,160.256 238.278,160.256 
  "/>
<path clip-path="url(#clip600)" d="M126.205 1372.19 Q122.593 1372.19 120.765 1375.76 Q118.959 1379.3 118.959 1386.43 Q118.959 1393.54 120.765 1397.1 Q122.593 1400.64 126.205 1400.64 Q129.839 1400.64 131.644 1397.1 Q133.473 1393.54 133.473 1386.43 Q133.473 1379.3 131.644 1375.76 Q129.839 1372.19 126.205 1372.19 M126.205 1368.49 Q132.015 1368.49 135.07 1373.1 Q138.149 1377.68 138.149 1386.43 Q138.149 1395.16 135.07 1399.76 Q132.015 1404.35 126.205 1404.35 Q120.394 1404.35 117.316 1399.76 Q114.26 1395.16 114.26 1386.43 Q114.26 1377.68 117.316 1373.1 Q120.394 1368.49 126.205 1368.49 Z" fill="#000000" fill-rule="evenodd" fill-opacity="1" /><path clip-path="url(#clip600)" d="M146.366 1397.8 L151.251 1397.8 L151.251 1403.68 L146.366 1403.68 L146.366 1397.8 Z" fill="#000000" fill-rule="evenodd" fill-opacity="1" /><path clip-path="url(#clip600)" d="M171.436 1372.19 Q167.825 1372.19 165.996 1375.76 Q164.19 1379.3 164.19 1386.43 Q164.19 1393.54 165.996 1397.1 Q167.825 1400.64 171.436 1400.64 Q175.07 1400.64 176.876 1397.1 Q178.704 1393.54 178.704 1386.43 Q178.704 1379.3 176.876 1375.76 Q175.07 1372.19 171.436 1372.19 M171.436 1368.49 Q177.246 1368.49 180.301 1373.1 Q183.38 1377.68 183.38 1386.43 Q183.38 1395.16 180.301 1399.76 Q177.246 1404.35 171.436 1404.35 Q165.626 1404.35 162.547 1399.76 Q159.491 1395.16 159.491 1386.43 Q159.491 1377.68 162.547 1373.1 Q165.626 1368.49 171.436 1368.49 Z" fill="#000000" fill-rule="evenodd" fill-opacity="1" /><path clip-path="url(#clip600)" d="M127.2 1065.66 Q123.589 1065.66 121.76 1069.22 Q119.955 1072.77 119.955 1079.9 Q119.955 1087 121.76 1090.57 Q123.589 1094.11 127.2 1094.11 Q130.834 1094.11 132.64 1090.57 Q134.468 1087 134.468 1079.9 Q134.468 1072.77 132.64 1069.22 Q130.834 1065.66 127.2 1065.66 M127.2 1061.96 Q133.01 1061.96 136.066 1066.56 Q139.144 1071.15 139.144 1079.9 Q139.144 1088.62 136.066 1093.23 Q133.01 1097.81 127.2 1097.81 Q121.39 1097.81 118.311 1093.23 Q115.256 1088.62 115.256 1079.9 Q115.256 1071.15 118.311 1066.56 Q121.39 1061.96 127.2 1061.96 Z" fill="#000000" fill-rule="evenodd" fill-opacity="1" /><path clip-path="url(#clip600)" d="M147.362 1091.26 L152.246 1091.26 L152.246 1097.14 L147.362 1097.14 L147.362 1091.26 Z" fill="#000000" fill-rule="evenodd" fill-opacity="1" /><path clip-path="url(#clip600)" d="M162.477 1062.58 L180.834 1062.58 L180.834 1066.52 L166.76 1066.52 L166.76 1074.99 Q167.778 1074.64 168.797 1074.48 Q169.815 1074.29 170.834 1074.29 Q176.621 1074.29 180.001 1077.47 Q183.38 1080.64 183.38 1086.05 Q183.38 1091.63 179.908 1094.73 Q176.436 1097.81 170.116 1097.81 Q167.94 1097.81 165.672 1097.44 Q163.427 1097.07 161.019 1096.33 L161.019 1091.63 Q163.102 1092.77 165.325 1093.32 Q167.547 1093.88 170.024 1093.88 Q174.028 1093.88 176.366 1091.77 Q178.704 1089.66 178.704 1086.05 Q178.704 1082.44 176.366 1080.34 Q174.028 1078.23 170.024 1078.23 Q168.149 1078.23 166.274 1078.65 Q164.422 1079.06 162.477 1079.94 L162.477 1062.58 Z" fill="#000000" fill-rule="evenodd" fill-opacity="1" /><path clip-path="url(#clip600)" d="M117.015 786.671 L124.654 786.671 L124.654 760.305 L116.343 761.972 L116.343 757.713 L124.607 756.046 L129.283 756.046 L129.283 786.671 L136.922 786.671 L136.922 790.606 L117.015 790.606 L117.015 786.671 Z" fill="#000000" fill-rule="evenodd" fill-opacity="1" /><path clip-path="url(#clip600)" d="M146.366 784.726 L151.251 784.726 L151.251 790.606 L146.366 790.606 L146.366 784.726 Z" fill="#000000" fill-rule="evenodd" fill-opacity="1" /><path clip-path="url(#clip600)" d="M171.436 759.125 Q167.825 759.125 165.996 762.689 Q164.19 766.231 164.19 773.361 Q164.19 780.467 165.996 784.032 Q167.825 787.574 171.436 787.574 Q175.07 787.574 176.876 784.032 Q178.704 780.467 178.704 773.361 Q178.704 766.231 176.876 762.689 Q175.07 759.125 171.436 759.125 M171.436 755.421 Q177.246 755.421 180.301 760.027 Q183.38 764.611 183.38 773.361 Q183.38 782.088 180.301 786.694 Q177.246 791.277 171.436 791.277 Q165.626 791.277 162.547 786.694 Q159.491 782.088 159.491 773.361 Q159.491 764.611 162.547 760.027 Q165.626 755.421 171.436 755.421 Z" fill="#000000" fill-rule="evenodd" fill-opacity="1" /><path clip-path="url(#clip600)" d="M118.01 480.136 L125.649 480.136 L125.649 453.77 L117.339 455.437 L117.339 451.178 L125.603 449.511 L130.279 449.511 L130.279 480.136 L137.917 480.136 L137.917 484.071 L118.01 484.071 L118.01 480.136 Z" fill="#000000" fill-rule="evenodd" fill-opacity="1" /><path clip-path="url(#clip600)" d="M147.362 478.192 L152.246 478.192 L152.246 484.071 L147.362 484.071 L147.362 478.192 Z" fill="#000000" fill-rule="evenodd" fill-opacity="1" /><path clip-path="url(#clip600)" d="M162.477 449.511 L180.834 449.511 L180.834 453.446 L166.76 453.446 L166.76 461.918 Q167.778 461.571 168.797 461.409 Q169.815 461.224 170.834 461.224 Q176.621 461.224 180.001 464.395 Q183.38 467.567 183.38 472.983 Q183.38 478.562 179.908 481.664 Q176.436 484.742 170.116 484.742 Q167.94 484.742 165.672 484.372 Q163.427 484.002 161.019 483.261 L161.019 478.562 Q163.102 479.696 165.325 480.252 Q167.547 480.807 170.024 480.807 Q174.028 480.807 176.366 478.701 Q178.704 476.594 178.704 472.983 Q178.704 469.372 176.366 467.266 Q174.028 465.159 170.024 465.159 Q168.149 465.159 166.274 465.576 Q164.422 465.993 162.477 466.872 L162.477 449.511 Z" fill="#000000" fill-rule="evenodd" fill-opacity="1" /><path clip-path="url(#clip600)" d="M120.232 173.601 L136.552 173.601 L136.552 177.536 L114.607 177.536 L114.607 173.601 Q117.269 170.847 121.853 166.217 Q126.459 161.564 127.64 160.222 Q129.885 157.698 130.765 155.962 Q131.667 154.203 131.667 152.513 Q131.667 149.759 129.723 148.023 Q127.802 146.286 124.7 146.286 Q122.501 146.286 120.047 147.05 Q117.617 147.814 114.839 149.365 L114.839 144.643 Q117.663 143.509 120.117 142.93 Q122.57 142.351 124.607 142.351 Q129.978 142.351 133.172 145.036 Q136.367 147.722 136.367 152.212 Q136.367 154.342 135.556 156.263 Q134.769 158.161 132.663 160.754 Q132.084 161.425 128.982 164.643 Q125.88 167.837 120.232 173.601 Z" fill="#000000" fill-rule="evenodd" fill-opacity="1" /><path clip-path="url(#clip600)" d="M146.366 171.657 L151.251 171.657 L151.251 177.536 L146.366 177.536 L146.366 171.657 Z" fill="#000000" fill-rule="evenodd" fill-opacity="1" /><path clip-path="url(#clip600)" d="M171.436 146.055 Q167.825 146.055 165.996 149.62 Q164.19 153.161 164.19 160.291 Q164.19 167.397 165.996 170.962 Q167.825 174.504 171.436 174.504 Q175.07 174.504 176.876 170.962 Q178.704 167.397 178.704 160.291 Q178.704 153.161 176.876 149.62 Q175.07 146.055 171.436 146.055 M171.436 142.351 Q177.246 142.351 180.301 146.958 Q183.38 151.541 183.38 160.291 Q183.38 169.018 180.301 173.624 Q177.246 178.208 171.436 178.208 Q165.626 178.208 162.547 173.624 Q159.491 169.018 159.491 160.291 Q159.491 151.541 162.547 146.958 Q165.626 142.351 171.436 142.351 Z" fill="#000000" fill-rule="evenodd" fill-opacity="1" /><path clip-path="url(#clip600)" d="M16.4842 1093.17 L16.4842 1084.51 L56.238 1063.44 L16.4842 1063.44 L16.4842 1057.2 L64.0042 1057.2 L64.0042 1065.86 L24.2503 1086.93 L64.0042 1086.93 L64.0042 1093.17 L16.4842 1093.17 Z" fill="#000000" fill-rule="evenodd" fill-opacity="1" /><path clip-path="url(#clip600)" d="M49.9359 1045.27 L28.3562 1045.27 L28.3562 1039.41 L49.7131 1039.41 Q54.7739 1039.41 57.3202 1037.44 Q59.8346 1035.47 59.8346 1031.52 Q59.8346 1026.78 56.8109 1024.04 Q53.7872 1021.27 48.5673 1021.27 L28.3562 1021.27 L28.3562 1015.41 L64.0042 1015.41 L64.0042 1021.27 L58.5296 1021.27 Q61.7762 1023.4 63.3676 1026.24 Q64.9272 1029.04 64.9272 1032.76 Q64.9272 1038.9 61.1078 1042.09 Q57.2883 1045.27 49.9359 1045.27 M27.4968 1030.53 L27.4968 1030.53 Z" fill="#000000" fill-rule="evenodd" fill-opacity="1" /><path clip-path="url(#clip600)" d="M35.1993 975.596 Q31.2526 973.4 29.3747 970.345 Q27.4968 967.289 27.4968 963.151 Q27.4968 957.581 31.4117 954.558 Q35.2948 951.534 42.4881 951.534 L64.0042 951.534 L64.0042 957.422 L42.679 957.422 Q37.5546 957.422 35.072 959.236 Q32.5894 961.051 32.5894 964.775 Q32.5894 969.326 35.6131 971.968 Q38.6368 974.61 43.8567 974.61 L64.0042 974.61 L64.0042 980.498 L42.679 980.498 Q37.5228 980.498 35.072 982.312 Q32.5894 984.126 32.5894 987.914 Q32.5894 992.402 35.6449 995.044 Q38.6686 997.685 43.8567 997.685 L64.0042 997.685 L64.0042 1003.57 L28.3562 1003.57 L28.3562 997.685 L33.8944 997.685 Q30.616 995.68 29.0564 992.879 Q27.4968 990.078 27.4968 986.227 Q27.4968 982.344 29.4702 979.639 Q31.4436 976.901 35.1993 975.596 Z" fill="#000000" fill-rule="evenodd" fill-opacity="1" /><path clip-path="url(#clip600)" d="M46.212 914.263 Q39.7508 914.263 36.0905 916.936 Q32.3984 919.578 32.3984 924.225 Q32.3984 928.872 36.0905 931.546 Q39.7508 934.187 46.212 934.187 Q52.6732 934.187 56.3653 931.546 Q60.0256 928.872 60.0256 924.225 Q60.0256 919.578 56.3653 916.936 Q52.6732 914.263 46.212 914.263 M33.7671 934.187 Q30.5842 932.341 29.0564 929.54 Q27.4968 926.708 27.4968 922.793 Q27.4968 916.3 32.6531 912.258 Q37.8093 908.183 46.212 908.183 Q54.6147 908.183 59.771 912.258 Q64.9272 916.3 64.9272 922.793 Q64.9272 926.708 63.3994 929.54 Q61.8398 932.341 58.657 934.187 L64.0042 934.187 L64.0042 940.076 L14.479 940.076 L14.479 934.187 L33.7671 934.187 Z" fill="#000000" fill-rule="evenodd" fill-opacity="1" /><path clip-path="url(#clip600)" d="M44.7161 867.984 L47.5806 867.984 L47.5806 894.911 Q53.6281 894.529 56.8109 891.283 Q59.9619 888.004 59.9619 882.18 Q59.9619 878.806 59.1344 875.655 Q58.3069 872.472 56.6518 869.353 L62.1899 869.353 Q63.5267 872.504 64.227 875.814 Q64.9272 879.124 64.9272 882.53 Q64.9272 891.06 59.9619 896.057 Q54.9967 901.022 46.5303 901.022 Q37.7774 901.022 32.6531 896.311 Q27.4968 891.569 27.4968 883.548 Q27.4968 876.355 32.1438 872.185 Q36.7589 867.984 44.7161 867.984 M42.9973 873.84 Q38.1912 873.904 35.3266 876.546 Q32.4621 879.156 32.4621 883.485 Q32.4621 888.386 35.2312 891.346 Q38.0002 894.274 43.0292 894.72 L42.9973 873.84 Z" fill="#000000" fill-rule="evenodd" fill-opacity="1" /><path clip-path="url(#clip600)" d="M33.8307 837.715 Q33.2578 838.702 33.0032 839.879 Q32.7167 841.025 32.7167 842.426 Q32.7167 847.391 35.9632 850.065 Q39.1779 852.706 45.2253 852.706 L64.0042 852.706 L64.0042 858.595 L28.3562 858.595 L28.3562 852.706 L33.8944 852.706 Q30.6479 850.86 29.0883 847.9 Q27.4968 844.94 27.4968 840.707 Q27.4968 840.102 27.5923 839.37 Q27.656 838.638 27.8151 837.747 L33.8307 837.715 Z" fill="#000000" fill-rule="evenodd" fill-opacity="1" /><path clip-path="url(#clip600)" d="M32.4621 797.038 Q32.4621 801.749 36.1542 804.486 Q39.8145 807.223 46.212 807.223 Q52.6095 807.223 56.3017 804.518 Q59.9619 801.781 59.9619 797.038 Q59.9619 792.359 56.2698 789.622 Q52.5777 786.885 46.212 786.885 Q39.8781 786.885 36.186 789.622 Q32.4621 792.359 32.4621 797.038 M27.4968 797.038 Q27.4968 789.399 32.4621 785.039 Q37.4273 780.678 46.212 780.678 Q54.9649 780.678 59.9619 785.039 Q64.9272 789.399 64.9272 797.038 Q64.9272 804.709 59.9619 809.069 Q54.9649 813.398 46.212 813.398 Q37.4273 813.398 32.4621 809.069 Q27.4968 804.709 27.4968 797.038 Z" fill="#000000" fill-rule="evenodd" fill-opacity="1" /><path clip-path="url(#clip600)" d="M14.479 752.924 L19.3487 752.924 L19.3487 758.526 Q19.3487 761.677 20.6219 762.918 Q21.895 764.128 25.2052 764.128 L28.3562 764.128 L28.3562 754.483 L32.9077 754.483 L32.9077 764.128 L64.0042 764.128 L64.0042 770.016 L32.9077 770.016 L32.9077 775.618 L28.3562 775.618 L28.3562 770.016 L25.8736 770.016 Q19.9216 770.016 17.2162 767.247 Q14.479 764.478 14.479 758.462 L14.479 752.924 Z" fill="#000000" fill-rule="evenodd" fill-opacity="1" /><path clip-path="url(#clip600)" d="M29.4065 704.576 L34.9447 704.576 Q33.6716 707.059 33.035 709.733 Q32.3984 712.406 32.3984 715.271 Q32.3984 719.631 33.7352 721.827 Q35.072 723.992 37.7456 723.992 Q39.7826 723.992 40.9603 722.432 Q42.1061 720.873 43.1565 716.162 L43.6021 714.157 Q44.9389 707.918 47.3897 705.308 Q49.8086 702.667 54.1691 702.667 Q59.1344 702.667 62.0308 706.613 Q64.9272 710.528 64.9272 717.403 Q64.9272 720.268 64.3543 723.387 Q63.8132 726.474 62.6992 729.912 L56.6518 729.912 Q58.3387 726.665 59.198 723.514 Q60.0256 720.363 60.0256 717.276 Q60.0256 713.138 58.6251 710.91 Q57.1929 708.682 54.6147 708.682 Q52.2276 708.682 50.9545 710.305 Q49.6813 711.897 48.5037 717.34 L48.0262 719.377 Q46.8804 724.819 44.5251 727.238 Q42.138 729.657 38.0002 729.657 Q32.9713 729.657 30.2341 726.092 Q27.4968 722.528 27.4968 715.971 Q27.4968 712.724 27.9743 709.86 Q28.4517 706.995 29.4065 704.576 Z" fill="#000000" fill-rule="evenodd" fill-opacity="1" /><path clip-path="url(#clip600)" d="M18.2347 687.548 L28.3562 687.548 L28.3562 675.485 L32.9077 675.485 L32.9077 687.548 L52.2594 687.548 Q56.6199 687.548 57.8613 686.37 Q59.1026 685.161 59.1026 681.501 L59.1026 675.485 L64.0042 675.485 L64.0042 681.501 Q64.0042 688.28 61.4897 690.858 Q58.9434 693.436 52.2594 693.436 L32.9077 693.436 L32.9077 697.733 L28.3562 697.733 L28.3562 693.436 L18.2347 693.436 L18.2347 687.548 Z" fill="#000000" fill-rule="evenodd" fill-opacity="1" /><path clip-path="url(#clip600)" d="M49.9359 668.387 L28.3562 668.387 L28.3562 662.531 L49.7131 662.531 Q54.7739 662.531 57.3202 660.557 Q59.8346 658.584 59.8346 654.637 Q59.8346 649.895 56.8109 647.158 Q53.7872 644.389 48.5673 644.389 L28.3562 644.389 L28.3562 638.532 L64.0042 638.532 L64.0042 644.389 L58.5296 644.389 Q61.7762 646.521 63.3676 649.354 Q64.9272 652.155 64.9272 655.879 Q64.9272 662.022 61.1078 665.204 Q57.2883 668.387 49.9359 668.387 M27.4968 653.651 L27.4968 653.651 Z" fill="#000000" fill-rule="evenodd" fill-opacity="1" /><path clip-path="url(#clip600)" d="M33.7671 603.012 L14.479 603.012 L14.479 597.155 L64.0042 597.155 L64.0042 603.012 L58.657 603.012 Q61.8398 604.858 63.3994 607.69 Q64.9272 610.491 64.9272 614.438 Q64.9272 620.899 59.771 624.973 Q54.6147 629.015 46.212 629.015 Q37.8093 629.015 32.6531 624.973 Q27.4968 620.899 27.4968 614.438 Q27.4968 610.491 29.0564 607.69 Q30.5842 604.858 33.7671 603.012 M46.212 622.968 Q52.6732 622.968 56.3653 620.326 Q60.0256 617.653 60.0256 613.006 Q60.0256 608.359 56.3653 605.685 Q52.6732 603.012 46.212 603.012 Q39.7508 603.012 36.0905 605.685 Q32.3984 608.359 32.3984 613.006 Q32.3984 617.653 36.0905 620.326 Q39.7508 622.968 46.212 622.968 Z" fill="#000000" fill-rule="evenodd" fill-opacity="1" /><path clip-path="url(#clip600)" d="M44.7161 554.6 L47.5806 554.6 L47.5806 581.527 Q53.6281 581.145 56.8109 577.899 Q59.9619 574.62 59.9619 568.796 Q59.9619 565.422 59.1344 562.271 Q58.3069 559.088 56.6518 555.969 L62.1899 555.969 Q63.5267 559.12 64.227 562.43 Q64.9272 565.74 64.9272 569.146 Q64.9272 577.676 59.9619 582.673 Q54.9967 587.638 46.5303 587.638 Q37.7774 587.638 32.6531 582.928 Q27.4968 578.185 27.4968 570.164 Q27.4968 562.971 32.1438 558.802 Q36.7589 554.6 44.7161 554.6 M42.9973 560.457 Q38.1912 560.52 35.3266 563.162 Q32.4621 565.772 32.4621 570.101 Q32.4621 575.002 35.2312 577.962 Q38.0002 580.891 43.0292 581.336 L42.9973 560.457 Z" fill="#000000" fill-rule="evenodd" fill-opacity="1" /><path clip-path="url(#clip600)" d="M42.4881 515.356 L64.0042 515.356 L64.0042 521.212 L42.679 521.212 Q37.6183 521.212 35.1038 523.186 Q32.5894 525.159 32.5894 529.106 Q32.5894 533.848 35.6131 536.585 Q38.6368 539.323 43.8567 539.323 L64.0042 539.323 L64.0042 545.211 L28.3562 545.211 L28.3562 539.323 L33.8944 539.323 Q30.6797 537.222 29.0883 534.389 Q27.4968 531.525 27.4968 527.801 Q27.4968 521.658 31.3163 518.507 Q35.1038 515.356 42.4881 515.356 Z" fill="#000000" fill-rule="evenodd" fill-opacity="1" /><path clip-path="url(#clip600)" d="M18.2347 497.882 L28.3562 497.882 L28.3562 485.819 L32.9077 485.819 L32.9077 497.882 L52.2594 497.882 Q56.6199 497.882 57.8613 496.704 Q59.1026 495.495 59.1026 491.834 L59.1026 485.819 L64.0042 485.819 L64.0042 491.834 Q64.0042 498.614 61.4897 501.192 Q58.9434 503.77 52.2594 503.77 L32.9077 503.77 L32.9077 508.067 L28.3562 508.067 L28.3562 503.77 L18.2347 503.77 L18.2347 497.882 Z" fill="#000000" fill-rule="evenodd" fill-opacity="1" /><path clip-path="url(#clip600)" d="M29.4065 455.391 L34.9447 455.391 Q33.6716 457.873 33.035 460.547 Q32.3984 463.221 32.3984 466.085 Q32.3984 470.446 33.7352 472.642 Q35.072 474.806 37.7456 474.806 Q39.7826 474.806 40.9603 473.247 Q42.1061 471.687 43.1565 466.976 L43.6021 464.971 Q44.9389 458.733 47.3897 456.123 Q49.8086 453.481 54.1691 453.481 Q59.1344 453.481 62.0308 457.428 Q64.9272 461.343 64.9272 468.218 Q64.9272 471.082 64.3543 474.201 Q63.8132 477.289 62.6992 480.726 L56.6518 480.726 Q58.3387 477.48 59.198 474.329 Q60.0256 471.178 60.0256 468.09 Q60.0256 463.953 58.6251 461.725 Q57.1929 459.497 54.6147 459.497 Q52.2276 459.497 50.9545 461.12 Q49.6813 462.711 48.5037 468.154 L48.0262 470.191 Q46.8804 475.634 44.5251 478.053 Q42.138 480.472 38.0002 480.472 Q32.9713 480.472 30.2341 476.907 Q27.4968 473.342 27.4968 466.785 Q27.4968 463.539 27.9743 460.674 Q28.4517 457.81 29.4065 455.391 Z" fill="#000000" fill-rule="evenodd" fill-opacity="1" /><path clip-path="url(#clip600)" d="M340.141 12.096 L378.382 12.096 L378.382 18.9825 L348.324 18.9825 L348.324 36.8875 L377.126 36.8875 L377.126 43.7741 L348.324 43.7741 L348.324 65.6895 L379.111 65.6895 L379.111 72.576 L340.141 72.576 L340.141 12.096 Z" fill="#000000" fill-rule="evenodd" fill-opacity="1" /><path clip-path="url(#clip600)" d="M412.855 49.7694 Q403.822 49.7694 400.338 51.8354 Q396.854 53.9013 396.854 58.8839 Q396.854 62.8538 399.447 65.2034 Q402.08 67.5124 406.576 67.5124 Q412.774 67.5124 416.501 63.1374 Q420.268 58.7219 420.268 51.4303 L420.268 49.7694 L412.855 49.7694 M427.722 46.6907 L427.722 72.576 L420.268 72.576 L420.268 65.6895 Q417.716 69.8214 413.908 71.8063 Q410.101 73.7508 404.591 73.7508 Q397.624 73.7508 393.492 69.8619 Q389.4 65.9325 389.4 59.3701 Q389.4 51.7138 394.505 47.825 Q399.649 43.9361 409.817 43.9361 L420.268 43.9361 L420.268 43.2069 Q420.268 38.0623 416.866 35.2672 Q413.503 32.4315 407.386 32.4315 Q403.498 32.4315 399.811 33.3632 Q396.125 34.295 392.722 36.1584 L392.722 29.2718 Q396.814 27.692 400.662 26.9223 Q404.51 26.1121 408.156 26.1121 Q418 26.1121 422.861 31.2163 Q427.722 36.3204 427.722 46.6907 Z" fill="#000000" fill-rule="evenodd" fill-opacity="1" /><path clip-path="url(#clip600)" d="M475.725 28.9478 L475.725 35.9153 Q472.565 34.1734 469.365 33.3227 Q466.206 32.4315 462.965 32.4315 Q455.714 32.4315 451.703 37.0496 Q447.693 41.6271 447.693 49.9314 Q447.693 58.2358 451.703 62.8538 Q455.714 67.4314 462.965 67.4314 Q466.206 67.4314 469.365 66.5807 Q472.565 65.6895 475.725 63.9476 L475.725 70.8341 Q472.606 72.2924 469.244 73.0216 Q465.922 73.7508 462.155 73.7508 Q451.906 73.7508 445.87 67.3098 Q439.834 60.8689 439.834 49.9314 Q439.834 38.832 445.91 32.472 Q452.027 26.1121 462.641 26.1121 Q466.084 26.1121 469.365 26.8413 Q472.646 27.5299 475.725 28.9478 Z" fill="#000000" fill-rule="evenodd" fill-opacity="1" /><path clip-path="url(#clip600)" d="M526.402 45.1919 L526.402 72.576 L518.948 72.576 L518.948 45.4349 Q518.948 38.994 516.437 35.7938 Q513.925 32.5936 508.902 32.5936 Q502.866 32.5936 499.382 36.4419 Q495.899 40.2903 495.899 46.9338 L495.899 72.576 L488.404 72.576 L488.404 9.54393 L495.899 9.54393 L495.899 34.2544 Q498.572 30.163 502.178 28.1376 Q505.823 26.1121 510.563 26.1121 Q518.381 26.1121 522.392 30.9732 Q526.402 35.7938 526.402 45.1919 Z" fill="#000000" fill-rule="evenodd" fill-opacity="1" /><path clip-path="url(#clip600)" d="M574.851 65.7705 L574.851 89.8329 L567.357 89.8329 L567.357 27.2059 L574.851 27.2059 L574.851 34.0924 Q577.2 30.0415 580.765 28.0971 Q584.37 26.1121 589.353 26.1121 Q597.617 26.1121 602.762 32.6746 Q607.947 39.2371 607.947 49.9314 Q607.947 60.6258 602.762 67.1883 Q597.617 73.7508 589.353 73.7508 Q584.37 73.7508 580.765 71.8063 Q577.2 69.8214 574.851 65.7705 M600.209 49.9314 Q600.209 41.7081 596.807 37.0496 Q593.444 32.3505 587.53 32.3505 Q581.616 32.3505 578.213 37.0496 Q574.851 41.7081 574.851 49.9314 Q574.851 58.1548 578.213 62.8538 Q581.616 67.5124 587.53 67.5124 Q593.444 67.5124 596.807 62.8538 Q600.209 58.1548 600.209 49.9314 Z" fill="#000000" fill-rule="evenodd" fill-opacity="1" /><path clip-path="url(#clip600)" d="M637.883 32.4315 Q631.888 32.4315 628.404 37.1306 Q624.92 41.7891 624.92 49.9314 Q624.92 58.0738 628.363 62.7728 Q631.847 67.4314 637.883 67.4314 Q643.838 67.4314 647.321 62.7323 Q650.805 58.0333 650.805 49.9314 Q650.805 41.8701 647.321 37.1711 Q643.838 32.4315 637.883 32.4315 M637.883 26.1121 Q647.605 26.1121 653.155 32.4315 Q658.704 38.7509 658.704 49.9314 Q658.704 61.0714 653.155 67.4314 Q647.605 73.7508 637.883 73.7508 Q628.12 73.7508 622.57 67.4314 Q617.061 61.0714 617.061 49.9314 Q617.061 38.7509 622.57 32.4315 Q628.12 26.1121 637.883 26.1121 Z" fill="#000000" fill-rule="evenodd" fill-opacity="1" /><path clip-path="url(#clip600)" d="M699.983 28.5427 L699.983 35.5912 Q696.824 33.9709 693.421 33.1607 Q690.018 32.3505 686.372 32.3505 Q680.822 32.3505 678.027 34.0519 Q675.273 35.7533 675.273 39.156 Q675.273 41.7486 677.258 43.2475 Q679.243 44.7058 685.238 46.0426 L687.79 46.6097 Q695.73 48.3111 699.052 51.4303 Q702.414 54.509 702.414 60.0587 Q702.414 66.3781 697.391 70.0644 Q692.408 73.7508 683.658 73.7508 Q680.012 73.7508 676.042 73.0216 Q672.113 72.3329 667.738 70.9151 L667.738 63.2184 Q671.87 65.3654 675.88 66.4591 Q679.891 67.5124 683.82 67.5124 Q689.086 67.5124 691.922 65.73 Q694.758 63.9071 694.758 60.6258 Q694.758 57.5877 692.692 55.9673 Q690.666 54.3469 683.739 52.8481 L681.147 52.2405 Q674.219 50.7821 671.141 47.7845 Q668.062 44.7463 668.062 39.4801 Q668.062 33.0797 672.599 29.5959 Q677.136 26.1121 685.481 26.1121 Q689.613 26.1121 693.259 26.7198 Q696.905 27.3274 699.983 28.5427 Z" fill="#000000" fill-rule="evenodd" fill-opacity="1" /><path clip-path="url(#clip600)" d="M743.206 28.5427 L743.206 35.5912 Q740.047 33.9709 736.644 33.1607 Q733.241 32.3505 729.595 32.3505 Q724.046 32.3505 721.25 34.0519 Q718.496 35.7533 718.496 39.156 Q718.496 41.7486 720.481 43.2475 Q722.466 44.7058 728.461 46.0426 L731.013 46.6097 Q738.953 48.3111 742.275 51.4303 Q745.637 54.509 745.637 60.0587 Q745.637 66.3781 740.614 70.0644 Q735.631 73.7508 726.881 73.7508 Q723.235 73.7508 719.266 73.0216 Q715.336 72.3329 710.961 70.9151 L710.961 63.2184 Q715.093 65.3654 719.103 66.4591 Q723.114 67.5124 727.043 67.5124 Q732.309 67.5124 735.145 65.73 Q737.981 63.9071 737.981 60.6258 Q737.981 57.5877 735.915 55.9673 Q733.889 54.3469 726.962 52.8481 L724.37 52.2405 Q717.443 50.7821 714.364 47.7845 Q711.285 44.7463 711.285 39.4801 Q711.285 33.0797 715.822 29.5959 Q720.359 26.1121 728.704 26.1121 Q732.836 26.1121 736.482 26.7198 Q740.128 27.3274 743.206 28.5427 Z" fill="#000000" fill-rule="evenodd" fill-opacity="1" /><path clip-path="url(#clip600)" d="M757.506 27.2059 L764.96 27.2059 L764.96 72.576 L757.506 72.576 L757.506 27.2059 M757.506 9.54393 L764.96 9.54393 L764.96 18.9825 L757.506 18.9825 L757.506 9.54393 Z" fill="#000000" fill-rule="evenodd" fill-opacity="1" /><path clip-path="url(#clip600)" d="M813.125 49.9314 Q813.125 41.7081 809.722 37.0496 Q806.36 32.3505 800.446 32.3505 Q794.531 32.3505 791.129 37.0496 Q787.766 41.7081 787.766 49.9314 Q787.766 58.1548 791.129 62.8538 Q794.531 67.5124 800.446 67.5124 Q806.36 67.5124 809.722 62.8538 Q813.125 58.1548 813.125 49.9314 M787.766 34.0924 Q790.116 30.0415 793.681 28.0971 Q797.286 26.1121 802.269 26.1121 Q810.532 26.1121 815.677 32.6746 Q820.862 39.2371 820.862 49.9314 Q820.862 60.6258 815.677 67.1883 Q810.532 73.7508 802.269 73.7508 Q797.286 73.7508 793.681 71.8063 Q790.116 69.8214 787.766 65.7705 L787.766 72.576 L780.272 72.576 L780.272 9.54393 L787.766 9.54393 L787.766 34.0924 Z" fill="#000000" fill-rule="evenodd" fill-opacity="1" /><path clip-path="url(#clip600)" d="M833.217 9.54393 L840.671 9.54393 L840.671 72.576 L833.217 72.576 L833.217 9.54393 Z" fill="#000000" fill-rule="evenodd" fill-opacity="1" /><path clip-path="url(#clip600)" d="M895.075 48.0275 L895.075 51.6733 L860.804 51.6733 Q861.29 59.3701 865.422 63.421 Q869.595 67.4314 877.008 67.4314 Q881.302 67.4314 885.312 66.3781 Q889.363 65.3249 893.333 63.2184 L893.333 70.267 Q889.322 71.9684 885.11 72.8596 Q880.897 73.7508 876.562 73.7508 Q865.706 73.7508 859.346 67.4314 Q853.026 61.1119 853.026 50.3365 Q853.026 39.1965 859.022 32.6746 Q865.058 26.1121 875.266 26.1121 Q884.421 26.1121 889.728 32.0264 Q895.075 37.9003 895.075 48.0275 M887.621 45.84 Q887.54 39.7232 884.178 36.0774 Q880.856 32.4315 875.347 32.4315 Q869.108 32.4315 865.341 35.9558 Q861.614 39.4801 861.047 45.8805 L887.621 45.84 Z" fill="#000000" fill-rule="evenodd" fill-opacity="1" /><path clip-path="url(#clip600)" d="M956.649 9.54393 L956.649 15.7418 L949.519 15.7418 Q945.509 15.7418 943.929 17.3622 Q942.389 18.9825 942.389 23.1955 L942.389 27.2059 L954.664 27.2059 L954.664 32.9987 L942.389 32.9987 L942.389 72.576 L934.895 72.576 L934.895 32.9987 L927.766 32.9987 L927.766 27.2059 L934.895 27.2059 L934.895 24.0462 Q934.895 16.471 938.419 13.0277 Q941.944 9.54393 949.6 9.54393 L956.649 9.54393 Z" fill="#000000" fill-rule="evenodd" fill-opacity="1" /><path clip-path="url(#clip600)" d="M962.887 27.2059 L970.341 27.2059 L970.341 72.576 L962.887 72.576 L962.887 27.2059 M962.887 9.54393 L970.341 9.54393 L970.341 18.9825 L962.887 18.9825 L962.887 9.54393 Z" fill="#000000" fill-rule="evenodd" fill-opacity="1" /><path clip-path="url(#clip600)" d="M1023.65 45.1919 L1023.65 72.576 L1016.2 72.576 L1016.2 45.4349 Q1016.2 38.994 1013.69 35.7938 Q1011.17 32.5936 1006.15 32.5936 Q1000.11 32.5936 996.631 36.4419 Q993.147 40.2903 993.147 46.9338 L993.147 72.576 L985.653 72.576 L985.653 27.2059 L993.147 27.2059 L993.147 34.2544 Q995.821 30.163 999.426 28.1376 Q1003.07 26.1121 1007.81 26.1121 Q1015.63 26.1121 1019.64 30.9732 Q1023.65 35.7938 1023.65 45.1919 Z" fill="#000000" fill-rule="evenodd" fill-opacity="1" /><path clip-path="url(#clip600)" d="M1059.14 49.7694 Q1050.1 49.7694 1046.62 51.8354 Q1043.14 53.9013 1043.14 58.8839 Q1043.14 62.8538 1045.73 65.2034 Q1048.36 67.5124 1052.86 67.5124 Q1059.06 67.5124 1062.78 63.1374 Q1066.55 58.7219 1066.55 51.4303 L1066.55 49.7694 L1059.14 49.7694 M1074 46.6907 L1074 72.576 L1066.55 72.576 L1066.55 65.6895 Q1064 69.8214 1060.19 71.8063 Q1056.38 73.7508 1050.87 73.7508 Q1043.9 73.7508 1039.77 69.8619 Q1035.68 65.9325 1035.68 59.3701 Q1035.68 51.7138 1040.79 47.825 Q1045.93 43.9361 1056.1 43.9361 L1066.55 43.9361 L1066.55 43.2069 Q1066.55 38.0623 1063.15 35.2672 Q1059.78 32.4315 1053.67 32.4315 Q1049.78 32.4315 1046.09 33.3632 Q1042.41 34.295 1039 36.1584 L1039 29.2718 Q1043.09 27.692 1046.94 26.9223 Q1050.79 26.1121 1054.44 26.1121 Q1064.28 26.1121 1069.14 31.2163 Q1074 36.3204 1074 46.6907 Z" fill="#000000" fill-rule="evenodd" fill-opacity="1" /><path clip-path="url(#clip600)" d="M1089.36 9.54393 L1096.81 9.54393 L1096.81 72.576 L1089.36 72.576 L1089.36 9.54393 Z" fill="#000000" fill-rule="evenodd" fill-opacity="1" /><path clip-path="url(#clip600)" d="M1168.63 49.3643 Q1168.63 41.2625 1165.27 36.8065 Q1161.95 32.3505 1155.91 32.3505 Q1149.92 32.3505 1146.55 36.8065 Q1143.23 41.2625 1143.23 49.3643 Q1143.23 57.4256 1146.55 61.8816 Q1149.92 66.3376 1155.91 66.3376 Q1161.95 66.3376 1165.27 61.8816 Q1168.63 57.4256 1168.63 49.3643 M1176.09 66.9452 Q1176.09 78.5308 1170.94 84.1616 Q1165.8 89.8329 1155.18 89.8329 Q1151.25 89.8329 1147.77 89.2252 Q1144.29 88.6581 1141.01 87.4428 L1141.01 80.1917 Q1144.29 81.9741 1147.49 82.8248 Q1150.69 83.6755 1154.01 83.6755 Q1161.34 83.6755 1164.99 79.8271 Q1168.63 76.0193 1168.63 68.282 L1168.63 64.5957 Q1166.32 68.6061 1162.72 70.5911 Q1159.11 72.576 1154.09 72.576 Q1145.74 72.576 1140.64 66.2161 Q1135.54 59.8562 1135.54 49.3643 Q1135.54 38.832 1140.64 32.472 Q1145.74 26.1121 1154.09 26.1121 Q1159.11 26.1121 1162.72 28.0971 Q1166.32 30.082 1168.63 34.0924 L1168.63 27.2059 L1176.09 27.2059 L1176.09 66.9452 Z" fill="#000000" fill-rule="evenodd" fill-opacity="1" /><path clip-path="url(#clip600)" d="M1217.73 34.1734 Q1216.47 33.4443 1214.97 33.1202 Q1213.52 32.7556 1211.73 32.7556 Q1205.41 32.7556 1202.01 36.8875 Q1198.65 40.9789 1198.65 48.6757 L1198.65 72.576 L1191.16 72.576 L1191.16 27.2059 L1198.65 27.2059 L1198.65 34.2544 Q1201 30.1225 1204.77 28.1376 Q1208.53 26.1121 1213.92 26.1121 Q1214.69 26.1121 1215.62 26.2337 Q1216.55 26.3147 1217.69 26.5172 L1217.73 34.1734 Z" fill="#000000" fill-rule="evenodd" fill-opacity="1" /><path clip-path="url(#clip600)" d="M1246.17 49.7694 Q1237.13 49.7694 1233.65 51.8354 Q1230.17 53.9013 1230.17 58.8839 Q1230.17 62.8538 1232.76 65.2034 Q1235.39 67.5124 1239.89 67.5124 Q1246.09 67.5124 1249.81 63.1374 Q1253.58 58.7219 1253.58 51.4303 L1253.58 49.7694 L1246.17 49.7694 M1261.03 46.6907 L1261.03 72.576 L1253.58 72.576 L1253.58 65.6895 Q1251.03 69.8214 1247.22 71.8063 Q1243.41 73.7508 1237.9 73.7508 Q1230.94 73.7508 1226.8 69.8619 Q1222.71 65.9325 1222.71 59.3701 Q1222.71 51.7138 1227.82 47.825 Q1232.96 43.9361 1243.13 43.9361 L1253.58 43.9361 L1253.58 43.2069 Q1253.58 38.0623 1250.18 35.2672 Q1246.81 32.4315 1240.7 32.4315 Q1236.81 32.4315 1233.12 33.3632 Q1229.44 34.295 1226.03 36.1584 L1226.03 29.2718 Q1230.13 27.692 1233.97 26.9223 Q1237.82 26.1121 1241.47 26.1121 Q1251.31 26.1121 1256.17 31.2163 Q1261.03 36.3204 1261.03 46.6907 Z" fill="#000000" fill-rule="evenodd" fill-opacity="1" /><path clip-path="url(#clip600)" d="M1306.24 34.0924 L1306.24 9.54393 L1313.7 9.54393 L1313.7 72.576 L1306.24 72.576 L1306.24 65.7705 Q1303.89 69.8214 1300.29 71.8063 Q1296.72 73.7508 1291.7 73.7508 Q1283.48 73.7508 1278.29 67.1883 Q1273.15 60.6258 1273.15 49.9314 Q1273.15 39.2371 1278.29 32.6746 Q1283.48 26.1121 1291.7 26.1121 Q1296.72 26.1121 1300.29 28.0971 Q1303.89 30.0415 1306.24 34.0924 M1280.84 49.9314 Q1280.84 58.1548 1284.2 62.8538 Q1287.61 67.5124 1293.52 67.5124 Q1299.44 67.5124 1302.84 62.8538 Q1306.24 58.1548 1306.24 49.9314 Q1306.24 41.7081 1302.84 37.0496 Q1299.44 32.3505 1293.52 32.3505 Q1287.61 32.3505 1284.2 37.0496 Q1280.84 41.7081 1280.84 49.9314 Z" fill="#000000" fill-rule="evenodd" fill-opacity="1" /><path clip-path="url(#clip600)" d="M1367.86 48.0275 L1367.86 51.6733 L1333.59 51.6733 Q1334.07 59.3701 1338.2 63.421 Q1342.38 67.4314 1349.79 67.4314 Q1354.08 67.4314 1358.09 66.3781 Q1362.14 65.3249 1366.11 63.2184 L1366.11 70.267 Q1362.1 71.9684 1357.89 72.8596 Q1353.68 73.7508 1349.34 73.7508 Q1338.49 73.7508 1332.13 67.4314 Q1325.81 61.1119 1325.81 50.3365 Q1325.81 39.1965 1331.8 32.6746 Q1337.84 26.1121 1348.05 26.1121 Q1357.2 26.1121 1362.51 32.0264 Q1367.86 37.9003 1367.86 48.0275 M1360.4 45.84 Q1360.32 39.7232 1356.96 36.0774 Q1353.64 32.4315 1348.13 32.4315 Q1341.89 32.4315 1338.12 35.9558 Q1334.4 39.4801 1333.83 45.8805 L1360.4 45.84 Z" fill="#000000" fill-rule="evenodd" fill-opacity="1" /><path clip-path="url(#clip600)" d="M1409.01 28.5427 L1409.01 35.5912 Q1405.85 33.9709 1402.45 33.1607 Q1399.05 32.3505 1395.4 32.3505 Q1389.85 32.3505 1387.06 34.0519 Q1384.3 35.7533 1384.3 39.156 Q1384.3 41.7486 1386.29 43.2475 Q1388.27 44.7058 1394.27 46.0426 L1396.82 46.6097 Q1404.76 48.3111 1408.08 51.4303 Q1411.44 54.509 1411.44 60.0587 Q1411.44 66.3781 1406.42 70.0644 Q1401.44 73.7508 1392.69 73.7508 Q1389.04 73.7508 1385.07 73.0216 Q1381.14 72.3329 1376.77 70.9151 L1376.77 63.2184 Q1380.9 65.3654 1384.91 66.4591 Q1388.92 67.5124 1392.85 67.5124 Q1398.12 67.5124 1400.95 65.73 Q1403.79 63.9071 1403.79 60.6258 Q1403.79 57.5877 1401.72 55.9673 Q1399.7 54.3469 1392.77 52.8481 L1390.18 52.2405 Q1383.25 50.7821 1380.17 47.7845 Q1377.09 44.7463 1377.09 39.4801 Q1377.09 33.0797 1381.63 29.5959 Q1386.17 26.1121 1394.51 26.1121 Q1398.64 26.1121 1402.29 26.7198 Q1405.93 27.3274 1409.01 28.5427 Z" fill="#000000" fill-rule="evenodd" fill-opacity="1" /><path clip-path="url(#clip600)" d="M1467.26 32.4315 Q1461.27 32.4315 1457.79 37.1306 Q1454.3 41.7891 1454.3 49.9314 Q1454.3 58.0738 1457.75 62.7728 Q1461.23 67.4314 1467.26 67.4314 Q1473.22 67.4314 1476.7 62.7323 Q1480.19 58.0333 1480.19 49.9314 Q1480.19 41.8701 1476.7 37.1711 Q1473.22 32.4315 1467.26 32.4315 M1467.26 26.1121 Q1476.99 26.1121 1482.54 32.4315 Q1488.09 38.7509 1488.09 49.9314 Q1488.09 61.0714 1482.54 67.4314 Q1476.99 73.7508 1467.26 73.7508 Q1457.5 73.7508 1451.95 67.4314 Q1446.44 61.0714 1446.44 49.9314 Q1446.44 38.7509 1451.95 32.4315 Q1457.5 26.1121 1467.26 26.1121 Z" fill="#000000" fill-rule="evenodd" fill-opacity="1" /><path clip-path="url(#clip600)" d="M1538.16 45.1919 L1538.16 72.576 L1530.7 72.576 L1530.7 45.4349 Q1530.7 38.994 1528.19 35.7938 Q1525.68 32.5936 1520.66 32.5936 Q1514.62 32.5936 1511.14 36.4419 Q1507.65 40.2903 1507.65 46.9338 L1507.65 72.576 L1500.16 72.576 L1500.16 27.2059 L1507.65 27.2059 L1507.65 34.2544 Q1510.33 30.163 1513.93 28.1376 Q1517.58 26.1121 1522.32 26.1121 Q1530.14 26.1121 1534.15 30.9732 Q1538.16 35.7938 1538.16 45.1919 Z" fill="#000000" fill-rule="evenodd" fill-opacity="1" /><path clip-path="url(#clip600)" d="M1586.77 14.324 L1586.77 27.2059 L1602.12 27.2059 L1602.12 32.9987 L1586.77 32.9987 L1586.77 57.6282 Q1586.77 63.1779 1588.27 64.7578 Q1589.8 66.3376 1594.46 66.3376 L1602.12 66.3376 L1602.12 72.576 L1594.46 72.576 Q1585.83 72.576 1582.55 69.3758 Q1579.27 66.1351 1579.27 57.6282 L1579.27 32.9987 L1573.8 32.9987 L1573.8 27.2059 L1579.27 27.2059 L1579.27 14.324 L1586.77 14.324 Z" fill="#000000" fill-rule="evenodd" fill-opacity="1" /><path clip-path="url(#clip600)" d="M1649.64 45.1919 L1649.64 72.576 L1642.18 72.576 L1642.18 45.4349 Q1642.18 38.994 1639.67 35.7938 Q1637.16 32.5936 1632.14 32.5936 Q1626.1 32.5936 1622.62 36.4419 Q1619.13 40.2903 1619.13 46.9338 L1619.13 72.576 L1611.64 72.576 L1611.64 9.54393 L1619.13 9.54393 L1619.13 34.2544 Q1621.81 30.163 1625.41 28.1376 Q1629.06 26.1121 1633.8 26.1121 Q1641.62 26.1121 1645.63 30.9732 Q1649.64 35.7938 1649.64 45.1919 Z" fill="#000000" fill-rule="evenodd" fill-opacity="1" /><path clip-path="url(#clip600)" d="M1703.31 48.0275 L1703.31 51.6733 L1669.04 51.6733 Q1669.53 59.3701 1673.66 63.421 Q1677.83 67.4314 1685.24 67.4314 Q1689.54 67.4314 1693.55 66.3781 Q1697.6 65.3249 1701.57 63.2184 L1701.57 70.267 Q1697.56 71.9684 1693.35 72.8596 Q1689.13 73.7508 1684.8 73.7508 Q1673.94 73.7508 1667.58 67.4314 Q1661.26 61.1119 1661.26 50.3365 Q1661.26 39.1965 1667.26 32.6746 Q1673.29 26.1121 1683.5 26.1121 Q1692.66 26.1121 1697.96 32.0264 Q1703.31 37.9003 1703.31 48.0275 M1695.86 45.84 Q1695.78 39.7232 1692.41 36.0774 Q1689.09 32.4315 1683.58 32.4315 Q1677.34 32.4315 1673.58 35.9558 Q1669.85 39.4801 1669.28 45.8805 L1695.86 45.84 Z" fill="#000000" fill-rule="evenodd" fill-opacity="1" /><path clip-path="url(#clip600)" d="M1740.9 12.096 L1779.79 12.096 L1779.79 15.5798 L1757.84 72.576 L1749.29 72.576 L1769.95 18.9825 L1740.9 18.9825 L1740.9 12.096 Z" fill="#000000" fill-rule="evenodd" fill-opacity="1" /><path clip-path="url(#clip600)" d="M1790.93 46.5287 L1812.77 46.5287 L1812.77 53.1722 L1790.93 53.1722 L1790.93 46.5287 Z" fill="#000000" fill-rule="evenodd" fill-opacity="1" /><path clip-path="url(#clip600)" d="M1853.56 28.5427 L1853.56 35.5912 Q1850.4 33.9709 1847 33.1607 Q1843.59 32.3505 1839.95 32.3505 Q1834.4 32.3505 1831.6 34.0519 Q1828.85 35.7533 1828.85 39.156 Q1828.85 41.7486 1830.83 43.2475 Q1832.82 44.7058 1838.81 46.0426 L1841.37 46.6097 Q1849.31 48.3111 1852.63 51.4303 Q1855.99 54.509 1855.99 60.0587 Q1855.99 66.3781 1850.97 70.0644 Q1845.98 73.7508 1837.23 73.7508 Q1833.59 73.7508 1829.62 73.0216 Q1825.69 72.3329 1821.31 70.9151 L1821.31 63.2184 Q1825.45 65.3654 1829.46 66.4591 Q1833.47 67.5124 1837.4 67.5124 Q1842.66 67.5124 1845.5 65.73 Q1848.33 63.9071 1848.33 60.6258 Q1848.33 57.5877 1846.27 55.9673 Q1844.24 54.3469 1837.32 52.8481 L1834.72 52.2405 Q1827.8 50.7821 1824.72 47.7845 Q1821.64 44.7463 1821.64 39.4801 Q1821.64 33.0797 1826.18 29.5959 Q1830.71 26.1121 1839.06 26.1121 Q1843.19 26.1121 1846.83 26.7198 Q1850.48 27.3274 1853.56 28.5427 Z" fill="#000000" fill-rule="evenodd" fill-opacity="1" /><path clip-path="url(#clip600)" d="M1875.23 14.324 L1875.23 27.2059 L1890.58 27.2059 L1890.58 32.9987 L1875.23 32.9987 L1875.23 57.6282 Q1875.23 63.1779 1876.73 64.7578 Q1878.27 66.3376 1882.93 66.3376 L1890.58 66.3376 L1890.58 72.576 L1882.93 72.576 Q1874.3 72.576 1871.02 69.3758 Q1867.74 66.1351 1867.74 57.6282 L1867.74 32.9987 L1862.27 32.9987 L1862.27 27.2059 L1867.74 27.2059 L1867.74 14.324 L1875.23 14.324 Z" fill="#000000" fill-rule="evenodd" fill-opacity="1" /><path clip-path="url(#clip600)" d="M1939.2 48.0275 L1939.2 51.6733 L1904.92 51.6733 Q1905.41 59.3701 1909.54 63.421 Q1913.72 67.4314 1921.13 67.4314 Q1925.42 67.4314 1929.43 66.3781 Q1933.48 65.3249 1937.45 63.2184 L1937.45 70.267 Q1933.44 71.9684 1929.23 72.8596 Q1925.02 73.7508 1920.68 73.7508 Q1909.83 73.7508 1903.47 67.4314 Q1897.15 61.1119 1897.15 50.3365 Q1897.15 39.1965 1903.14 32.6746 Q1909.18 26.1121 1919.39 26.1121 Q1928.54 26.1121 1933.85 32.0264 Q1939.2 37.9003 1939.2 48.0275 M1931.74 45.84 Q1931.66 39.7232 1928.3 36.0774 Q1924.98 32.4315 1919.47 32.4315 Q1913.23 32.4315 1909.46 35.9558 Q1905.73 39.4801 1905.17 45.8805 L1931.74 45.84 Z" fill="#000000" fill-rule="evenodd" fill-opacity="1" /><path clip-path="url(#clip600)" d="M1958.64 65.7705 L1958.64 89.8329 L1951.15 89.8329 L1951.15 27.2059 L1958.64 27.2059 L1958.64 34.0924 Q1960.99 30.0415 1964.55 28.0971 Q1968.16 26.1121 1973.14 26.1121 Q1981.41 26.1121 1986.55 32.6746 Q1991.74 39.2371 1991.74 49.9314 Q1991.74 60.6258 1986.55 67.1883 Q1981.41 73.7508 1973.14 73.7508 Q1968.16 73.7508 1964.55 71.8063 Q1960.99 69.8214 1958.64 65.7705 M1984 49.9314 Q1984 41.7081 1980.6 37.0496 Q1977.23 32.3505 1971.32 32.3505 Q1965.4 32.3505 1962 37.0496 Q1958.64 41.7081 1958.64 49.9314 Q1958.64 58.1548 1962 62.8538 Q1965.4 67.5124 1971.32 67.5124 Q1977.23 67.5124 1980.6 62.8538 Q1984 58.1548 1984 49.9314 Z" fill="#000000" fill-rule="evenodd" fill-opacity="1" /><path clip-path="url(#clip600)" d="M2059.39 28.5427 L2059.39 35.5912 Q2056.23 33.9709 2052.82 33.1607 Q2049.42 32.3505 2045.77 32.3505 Q2040.22 32.3505 2037.43 34.0519 Q2034.68 35.7533 2034.68 39.156 Q2034.68 41.7486 2036.66 43.2475 Q2038.65 44.7058 2044.64 46.0426 L2047.19 46.6097 Q2055.13 48.3111 2058.45 51.4303 Q2061.82 54.509 2061.82 60.0587 Q2061.82 66.3781 2056.79 70.0644 Q2051.81 73.7508 2043.06 73.7508 Q2039.41 73.7508 2035.44 73.0216 Q2031.52 72.3329 2027.14 70.9151 L2027.14 63.2184 Q2031.27 65.3654 2035.28 66.4591 Q2039.29 67.5124 2043.22 67.5124 Q2048.49 67.5124 2051.32 65.73 Q2054.16 63.9071 2054.16 60.6258 Q2054.16 57.5877 2052.09 55.9673 Q2050.07 54.3469 2043.14 52.8481 L2040.55 52.2405 Q2033.62 50.7821 2030.54 47.7845 Q2027.46 44.7463 2027.46 39.4801 Q2027.46 33.0797 2032 29.5959 Q2036.54 26.1121 2044.88 26.1121 Q2049.02 26.1121 2052.66 26.7198 Q2056.31 27.3274 2059.39 28.5427 Z" fill="#000000" fill-rule="evenodd" fill-opacity="1" /><path clip-path="url(#clip600)" d="M2106.34 28.9478 L2106.34 35.9153 Q2103.18 34.1734 2099.98 33.3227 Q2096.82 32.4315 2093.58 32.4315 Q2086.32 32.4315 2082.31 37.0496 Q2078.3 41.6271 2078.3 49.9314 Q2078.3 58.2358 2082.31 62.8538 Q2086.32 67.4314 2093.58 67.4314 Q2096.82 67.4314 2099.98 66.5807 Q2103.18 65.6895 2106.34 63.9476 L2106.34 70.8341 Q2103.22 72.2924 2099.85 73.0216 Q2096.53 73.7508 2092.77 73.7508 Q2082.52 73.7508 2076.48 67.3098 Q2070.44 60.8689 2070.44 49.9314 Q2070.44 38.832 2076.52 32.472 Q2082.64 26.1121 2093.25 26.1121 Q2096.69 26.1121 2099.98 26.8413 Q2103.26 27.5299 2106.34 28.9478 Z" fill="#000000" fill-rule="evenodd" fill-opacity="1" /><path clip-path="url(#clip600)" d="M2139.92 49.7694 Q2130.88 49.7694 2127.4 51.8354 Q2123.92 53.9013 2123.92 58.8839 Q2123.92 62.8538 2126.51 65.2034 Q2129.14 67.5124 2133.64 67.5124 Q2139.84 67.5124 2143.56 63.1374 Q2147.33 58.7219 2147.33 51.4303 L2147.33 49.7694 L2139.92 49.7694 M2154.78 46.6907 L2154.78 72.576 L2147.33 72.576 L2147.33 65.6895 Q2144.78 69.8214 2140.97 71.8063 Q2137.16 73.7508 2131.65 73.7508 Q2124.69 73.7508 2120.55 69.8619 Q2116.46 65.9325 2116.46 59.3701 Q2116.46 51.7138 2121.57 47.825 Q2126.71 43.9361 2136.88 43.9361 L2147.33 43.9361 L2147.33 43.2069 Q2147.33 38.0623 2143.93 35.2672 Q2140.57 32.4315 2134.45 32.4315 Q2130.56 32.4315 2126.87 33.3632 Q2123.19 34.295 2119.78 36.1584 L2119.78 29.2718 Q2123.88 27.692 2127.72 26.9223 Q2131.57 26.1121 2135.22 26.1121 Q2145.06 26.1121 2149.92 31.2163 Q2154.78 36.3204 2154.78 46.6907 Z" fill="#000000" fill-rule="evenodd" fill-opacity="1" /><path clip-path="url(#clip600)" d="M2170.14 9.54393 L2177.59 9.54393 L2177.59 72.576 L2170.14 72.576 L2170.14 9.54393 Z" fill="#000000" fill-rule="evenodd" fill-opacity="1" /><path clip-path="url(#clip600)" d="M2231.99 48.0275 L2231.99 51.6733 L2197.72 51.6733 Q2198.21 59.3701 2202.34 63.421 Q2206.51 67.4314 2213.93 67.4314 Q2218.22 67.4314 2222.23 66.3781 Q2226.28 65.3249 2230.25 63.2184 L2230.25 70.267 Q2226.24 71.9684 2222.03 72.8596 Q2217.82 73.7508 2213.48 73.7508 Q2202.63 73.7508 2196.27 67.4314 Q2189.95 61.1119 2189.95 50.3365 Q2189.95 39.1965 2195.94 32.6746 Q2201.98 26.1121 2212.19 26.1121 Q2221.34 26.1121 2226.65 32.0264 Q2231.99 37.9003 2231.99 48.0275 M2224.54 45.84 Q2224.46 39.7232 2221.1 36.0774 Q2217.78 32.4315 2212.27 32.4315 Q2206.03 32.4315 2202.26 35.9558 Q2198.53 39.4801 2197.97 45.8805 L2224.54 45.84 Z" fill="#000000" fill-rule="evenodd" fill-opacity="1" /><path clip-path="url(#clip602)" d="
M679.858 1386.4 L679.858 1386.4 L862.865 1386.4 L862.865 1386.4 L679.858 1386.4 L679.858 1386.4  Z
  " fill="#009af9" fill-rule="evenodd" fill-opacity="1"/>
<polyline clip-path="url(#clip602)" style="stroke:#000000; stroke-linecap:butt; stroke-linejoin:round; stroke-width:4; stroke-opacity:1; fill:none" points="
  679.858,1386.4 679.858,1386.4 862.865,1386.4 679.858,1386.4 
  "/>
<path clip-path="url(#clip602)" d="
M1137.37 1386.4 L1137.37 1386.4 L1320.38 1386.4 L1320.38 1386.4 L1137.37 1386.4 L1137.37 1386.4  Z
  " fill="#009af9" fill-rule="evenodd" fill-opacity="1"/>
<polyline clip-path="url(#clip602)" style="stroke:#000000; stroke-linecap:butt; stroke-linejoin:round; stroke-width:4; stroke-opacity:1; fill:none" points="
  1137.37,1386.4 1137.37,1386.4 1320.38,1386.4 1137.37,1386.4 
  "/>
<path clip-path="url(#clip602)" d="
M1480.51 160.256 L1480.51 1386.4 L1663.52 1386.4 L1663.52 160.256 L1480.51 160.256 L1480.51 160.256  Z
  " fill="#009af9" fill-rule="evenodd" fill-opacity="1"/>
<polyline clip-path="url(#clip602)" style="stroke:#000000; stroke-linecap:butt; stroke-linejoin:round; stroke-width:4; stroke-opacity:1; fill:none" points="
  1480.51,160.256 1480.51,1386.4 1663.52,1386.4 1663.52,160.256 1480.51,160.256 
  "/>
<path clip-path="url(#clip602)" d="
M908.616 1386.4 L908.616 1386.4 L1091.62 1386.4 L1091.62 1386.4 L908.616 1386.4 L908.616 1386.4  Z
  " fill="#009af9" fill-rule="evenodd" fill-opacity="1"/>
<polyline clip-path="url(#clip602)" style="stroke:#000000; stroke-linecap:butt; stroke-linejoin:round; stroke-width:4; stroke-opacity:1; fill:none" points="
  908.616,1386.4 908.616,1386.4 1091.62,1386.4 908.616,1386.4 
  "/>
<path clip-path="url(#clip602)" d="
M1823.65 1386.4 L1823.65 1386.4 L2006.66 1386.4 L2006.66 1386.4 L1823.65 1386.4 L1823.65 1386.4  Z
  " fill="#009af9" fill-rule="evenodd" fill-opacity="1"/>
<polyline clip-path="url(#clip602)" style="stroke:#000000; stroke-linecap:butt; stroke-linejoin:round; stroke-width:4; stroke-opacity:1; fill:none" points="
  1823.65,1386.4 1823.65,1386.4 2006.66,1386.4 1823.65,1386.4 
  "/>
<path clip-path="url(#clip602)" d="
M2052.41 160.256 L2052.41 1386.4 L2235.42 1386.4 L2235.42 160.256 L2052.41 160.256 L2052.41 160.256  Z
  " fill="#009af9" fill-rule="evenodd" fill-opacity="1"/>
<polyline clip-path="url(#clip602)" style="stroke:#000000; stroke-linecap:butt; stroke-linejoin:round; stroke-width:4; stroke-opacity:1; fill:none" points="
  2052.41,160.256 2052.41,1386.4 2235.42,1386.4 2235.42,160.256 2052.41,160.256 
  "/>
<path clip-path="url(#clip602)" d="
M336.72 773.326 L336.72 1386.4 L519.727 1386.4 L519.727 773.326 L336.72 773.326 L336.72 773.326  Z
  " fill="#009af9" fill-rule="evenodd" fill-opacity="1"/>
<polyline clip-path="url(#clip602)" style="stroke:#000000; stroke-linecap:butt; stroke-linejoin:round; stroke-width:4; stroke-opacity:1; fill:none" points="
  336.72,773.326 336.72,1386.4 519.727,1386.4 519.727,773.326 336.72,773.326 
  "/>
<circle clip-path="url(#clip602)" style="fill:#009af9; stroke:none; fill-opacity:0" cx="771.361" cy="1386.4" r="2"/>
<circle clip-path="url(#clip602)" style="fill:#009af9; stroke:none; fill-opacity:0" cx="1228.88" cy="1386.4" r="2"/>
<circle clip-path="url(#clip602)" style="fill:#009af9; stroke:none; fill-opacity:0" cx="1572.02" cy="160.256" r="2"/>
<circle clip-path="url(#clip602)" style="fill:#009af9; stroke:none; fill-opacity:0" cx="1000.12" cy="1386.4" r="2"/>
<circle clip-path="url(#clip602)" style="fill:#009af9; stroke:none; fill-opacity:0" cx="1915.15" cy="1386.4" r="2"/>
<circle clip-path="url(#clip602)" style="fill:#009af9; stroke:none; fill-opacity:0" cx="2143.91" cy="160.256" r="2"/>
<circle clip-path="url(#clip602)" style="fill:#009af9; stroke:none; fill-opacity:0" cx="428.223" cy="773.326" r="2"/>
</svg>
