<?xml version="1.0" encoding="utf-8"?>
<svg xmlns="http://www.w3.org/2000/svg" xmlns:xlink="http://www.w3.org/1999/xlink" width="600" height="400" viewBox="0 0 2400 1600">
<defs>
  <clipPath id="clip630">
    <rect x="0" y="0" width="2400" height="1600"/>
  </clipPath>
</defs>
<path clip-path="url(#clip630)" d="
M0 1600 L2400 1600 L2400 0 L0 0  Z
  " fill="#ffffff" fill-rule="evenodd" fill-opacity="1"/>
<defs>
  <clipPath id="clip631">
    <rect x="480" y="0" width="1681" height="1600"/>
  </clipPath>
</defs>
<path clip-path="url(#clip630)" d="
M211.325 1423.18 L2352.76 1423.18 L2352.76 123.472 L211.325 123.472  Z
  " fill="#ffffff" fill-rule="evenodd" fill-opacity="1"/>
<defs>
  <clipPath id="clip632">
    <rect x="211" y="123" width="2142" height="1301"/>
  </clipPath>
</defs>
<polyline clip-path="url(#clip632)" style="stroke:#000000; stroke-linecap:butt; stroke-linejoin:round; stroke-width:2; stroke-opacity:0.1; fill:none" points="
  287.261,1423.18 287.261,123.472 
  "/>
<polyline clip-path="url(#clip632)" style="stroke:#000000; stroke-linecap:butt; stroke-linejoin:round; stroke-width:2; stroke-opacity:0.1; fill:none" points="
  936.152,1423.18 936.152,123.472 
  "/>
<polyline clip-path="url(#clip632)" style="stroke:#000000; stroke-linecap:butt; stroke-linejoin:round; stroke-width:2; stroke-opacity:0.1; fill:none" points="
  1585.04,1423.18 1585.04,123.472 
  "/>
<polyline clip-path="url(#clip632)" style="stroke:#000000; stroke-linecap:butt; stroke-linejoin:round; stroke-width:2; stroke-opacity:0.1; fill:none" points="
  2233.93,1423.18 2233.93,123.472 
  "/>
<polyline clip-path="url(#clip630)" style="stroke:#000000; stroke-linecap:butt; stroke-linejoin:round; stroke-width:4; stroke-opacity:1; fill:none" points="
  211.325,1423.18 2352.76,1423.18 
  "/>
<polyline clip-path="url(#clip630)" style="stroke:#000000; stroke-linecap:butt; stroke-linejoin:round; stroke-width:4; stroke-opacity:1; fill:none" points="
  287.261,1423.18 287.261,1404.28 
  "/>
<polyline clip-path="url(#clip630)" style="stroke:#000000; stroke-linecap:butt; stroke-linejoin:round; stroke-width:4; stroke-opacity:1; fill:none" points="
  936.152,1423.18 936.152,1404.28 
  "/>
<polyline clip-path="url(#clip630)" style="stroke:#000000; stroke-linecap:butt; stroke-linejoin:round; stroke-width:4; stroke-opacity:1; fill:none" points="
  1585.04,1423.18 1585.04,1404.28 
  "/>
<polyline clip-path="url(#clip630)" style="stroke:#000000; stroke-linecap:butt; stroke-linejoin:round; stroke-width:4; stroke-opacity:1; fill:none" points="
  2233.93,1423.18 2233.93,1404.28 
  "/>
<path clip-path="url(#clip630)" d="M277.643 1479.92 L285.282 1479.92 L285.282 1453.55 L276.971 1455.22 L276.971 1450.96 L285.235 1449.29 L289.911 1449.29 L289.911 1479.92 L297.55 1479.92 L297.55 1483.85 L277.643 1483.85 L277.643 1479.92 Z" fill="#000000" fill-rule="evenodd" fill-opacity="1" /><path clip-path="url(#clip630)" d="M930.805 1479.92 L947.124 1479.92 L947.124 1483.85 L925.18 1483.85 L925.18 1479.92 Q927.842 1477.16 932.425 1472.53 Q937.032 1467.88 938.212 1466.54 Q940.458 1464.01 941.337 1462.28 Q942.24 1460.52 942.24 1458.83 Q942.24 1456.07 940.296 1454.34 Q938.374 1452.6 935.273 1452.6 Q933.073 1452.6 930.62 1453.37 Q928.189 1454.13 925.411 1455.68 L925.411 1450.96 Q928.236 1449.82 930.689 1449.25 Q933.143 1448.67 935.18 1448.67 Q940.55 1448.67 943.745 1451.35 Q946.939 1454.04 946.939 1458.53 Q946.939 1460.66 946.129 1462.58 Q945.342 1464.48 943.235 1467.07 Q942.657 1467.74 939.555 1470.96 Q936.453 1474.15 930.805 1479.92 Z" fill="#000000" fill-rule="evenodd" fill-opacity="1" /><path clip-path="url(#clip630)" d="M1589.29 1465.22 Q1592.65 1465.94 1594.52 1468.2 Q1596.42 1470.47 1596.42 1473.81 Q1596.42 1478.92 1592.9 1481.72 Q1589.38 1484.52 1582.9 1484.52 Q1580.73 1484.52 1578.41 1484.08 Q1576.12 1483.67 1573.67 1482.81 L1573.67 1478.3 Q1575.61 1479.43 1577.93 1480.01 Q1580.24 1480.59 1582.76 1480.59 Q1587.16 1480.59 1589.45 1478.85 Q1591.77 1477.12 1591.77 1473.81 Q1591.77 1470.75 1589.62 1469.04 Q1587.49 1467.3 1583.67 1467.3 L1579.64 1467.3 L1579.64 1463.46 L1583.85 1463.46 Q1587.3 1463.46 1589.13 1462.09 Q1590.96 1460.7 1590.96 1458.11 Q1590.96 1455.45 1589.06 1454.04 Q1587.18 1452.6 1583.67 1452.6 Q1581.74 1452.6 1579.55 1453.02 Q1577.35 1453.44 1574.71 1454.31 L1574.71 1450.15 Q1577.37 1449.41 1579.68 1449.04 Q1582.02 1448.67 1584.08 1448.67 Q1589.41 1448.67 1592.51 1451.1 Q1595.61 1453.5 1595.61 1457.63 Q1595.61 1460.5 1593.97 1462.49 Q1592.32 1464.45 1589.29 1465.22 Z" fill="#000000" fill-rule="evenodd" fill-opacity="1" /><path clip-path="url(#clip630)" d="M2236.94 1453.37 L2225.14 1471.81 L2236.94 1471.81 L2236.94 1453.37 M2235.72 1449.29 L2241.6 1449.29 L2241.6 1471.81 L2246.53 1471.81 L2246.53 1475.7 L2241.6 1475.7 L2241.6 1483.85 L2236.94 1483.85 L2236.94 1475.7 L2221.34 1475.7 L2221.34 1471.19 L2235.72 1449.29 Z" fill="#000000" fill-rule="evenodd" fill-opacity="1" /><path clip-path="url(#clip630)" d="M897.217 1520.52 L905.875 1520.52 L926.945 1560.28 L926.945 1520.52 L933.184 1520.52 L933.184 1568.04 L924.526 1568.04 L903.456 1528.29 L903.456 1568.04 L897.217 1568.04 L897.217 1520.52 Z" fill="#000000" fill-rule="evenodd" fill-opacity="1" /><path clip-path="url(#clip630)" d="M945.119 1553.98 L945.119 1532.4 L950.976 1532.4 L950.976 1553.75 Q950.976 1558.81 952.949 1561.36 Q954.923 1563.87 958.869 1563.87 Q963.612 1563.87 966.349 1560.85 Q969.118 1557.83 969.118 1552.61 L969.118 1532.4 L974.975 1532.4 L974.975 1568.04 L969.118 1568.04 L969.118 1562.57 Q966.986 1565.82 964.153 1567.41 Q961.352 1568.97 957.628 1568.97 Q951.485 1568.97 948.302 1565.15 Q945.119 1561.33 945.119 1553.98 M959.856 1531.54 L959.856 1531.54 Z" fill="#000000" fill-rule="evenodd" fill-opacity="1" /><path clip-path="url(#clip630)" d="M1014.79 1539.24 Q1016.99 1535.29 1020.04 1533.41 Q1023.1 1531.54 1027.24 1531.54 Q1032.81 1531.54 1035.83 1535.45 Q1038.85 1539.33 1038.85 1546.53 L1038.85 1568.04 L1032.97 1568.04 L1032.97 1546.72 Q1032.97 1541.59 1031.15 1539.11 Q1029.34 1536.63 1025.61 1536.63 Q1021.06 1536.63 1018.42 1539.65 Q1015.78 1542.68 1015.78 1547.9 L1015.78 1568.04 L1009.89 1568.04 L1009.89 1546.72 Q1009.89 1541.56 1008.08 1539.11 Q1006.26 1536.63 1002.47 1536.63 Q997.987 1536.63 995.345 1539.68 Q992.703 1542.71 992.703 1547.9 L992.703 1568.04 L986.815 1568.04 L986.815 1532.4 L992.703 1532.4 L992.703 1537.93 Q994.708 1534.66 997.509 1533.1 Q1000.31 1531.54 1004.16 1531.54 Q1008.04 1531.54 1010.75 1533.51 Q1013.49 1535.48 1014.79 1539.24 Z" fill="#000000" fill-rule="evenodd" fill-opacity="1" /><path clip-path="url(#clip630)" d="M1076.13 1550.25 Q1076.13 1543.79 1073.45 1540.13 Q1070.81 1536.44 1066.16 1536.44 Q1061.52 1536.44 1058.84 1540.13 Q1056.2 1543.79 1056.2 1550.25 Q1056.2 1556.71 1058.84 1560.4 Q1061.52 1564.07 1066.16 1564.07 Q1070.81 1564.07 1073.45 1560.4 Q1076.13 1556.71 1076.13 1550.25 M1056.2 1537.81 Q1058.05 1534.62 1060.85 1533.1 Q1063.68 1531.54 1067.6 1531.54 Q1074.09 1531.54 1078.13 1536.69 Q1082.2 1541.85 1082.2 1550.25 Q1082.2 1558.65 1078.13 1563.81 Q1074.09 1568.97 1067.6 1568.97 Q1063.68 1568.97 1060.85 1567.44 Q1058.05 1565.88 1056.2 1562.7 L1056.2 1568.04 L1050.31 1568.04 L1050.31 1518.52 L1056.2 1518.52 L1056.2 1537.81 Z" fill="#000000" fill-rule="evenodd" fill-opacity="1" /><path clip-path="url(#clip630)" d="M1122.4 1548.76 L1122.4 1551.62 L1095.48 1551.62 Q1095.86 1557.67 1099.11 1560.85 Q1102.38 1564 1108.21 1564 Q1111.58 1564 1114.73 1563.17 Q1117.92 1562.35 1121.04 1560.69 L1121.04 1566.23 Q1117.88 1567.57 1114.57 1568.27 Q1111.26 1568.97 1107.86 1568.97 Q1099.33 1568.97 1094.33 1564 Q1089.37 1559.04 1089.37 1550.57 Q1089.37 1541.82 1094.08 1536.69 Q1098.82 1531.54 1106.84 1531.54 Q1114.03 1531.54 1118.2 1536.18 Q1122.4 1540.8 1122.4 1548.76 M1116.55 1547.04 Q1116.48 1542.23 1113.84 1539.37 Q1111.23 1536.5 1106.9 1536.5 Q1102 1536.5 1099.04 1539.27 Q1096.11 1542.04 1095.67 1547.07 L1116.55 1547.04 Z" fill="#000000" fill-rule="evenodd" fill-opacity="1" /><path clip-path="url(#clip630)" d="M1152.67 1537.87 Q1151.69 1537.3 1150.51 1537.04 Q1149.36 1536.76 1147.96 1536.76 Q1143 1536.76 1140.32 1540 Q1137.68 1543.22 1137.68 1549.27 L1137.68 1568.04 L1131.79 1568.04 L1131.79 1532.4 L1137.68 1532.4 L1137.68 1537.93 Q1139.53 1534.69 1142.49 1533.13 Q1145.45 1531.54 1149.68 1531.54 Q1150.29 1531.54 1151.02 1531.63 Q1151.75 1531.7 1152.64 1531.85 L1152.67 1537.87 Z" fill="#000000" fill-rule="evenodd" fill-opacity="1" /><path clip-path="url(#clip630)" d="M1193.35 1536.5 Q1188.64 1536.5 1185.9 1540.19 Q1183.16 1543.85 1183.16 1550.25 Q1183.16 1556.65 1185.87 1560.34 Q1188.61 1564 1193.35 1564 Q1198.03 1564 1200.77 1560.31 Q1203.5 1556.62 1203.5 1550.25 Q1203.5 1543.92 1200.77 1540.23 Q1198.03 1536.5 1193.35 1536.5 M1193.35 1531.54 Q1200.99 1531.54 1205.35 1536.5 Q1209.71 1541.47 1209.71 1550.25 Q1209.71 1559 1205.35 1564 Q1200.99 1568.97 1193.35 1568.97 Q1185.68 1568.97 1181.32 1564 Q1176.99 1559 1176.99 1550.25 Q1176.99 1541.47 1181.32 1536.5 Q1185.68 1531.54 1193.35 1531.54 Z" fill="#000000" fill-rule="evenodd" fill-opacity="1" /><path clip-path="url(#clip630)" d="M1237.46 1518.52 L1237.46 1523.39 L1231.86 1523.39 Q1228.71 1523.39 1227.47 1524.66 Q1226.26 1525.93 1226.26 1529.24 L1226.26 1532.4 L1235.9 1532.4 L1235.9 1536.95 L1226.26 1536.95 L1226.26 1568.04 L1220.37 1568.04 L1220.37 1536.95 L1214.77 1536.95 L1214.77 1532.4 L1220.37 1532.4 L1220.37 1529.91 Q1220.37 1523.96 1223.14 1521.26 Q1225.91 1518.52 1231.93 1518.52 L1237.46 1518.52 Z" fill="#000000" fill-rule="evenodd" fill-opacity="1" /><path clip-path="url(#clip630)" d="M1279.29 1550.12 Q1272.19 1550.12 1269.45 1551.75 Q1266.71 1553.37 1266.71 1557.29 Q1266.71 1560.4 1268.75 1562.25 Q1270.82 1564.07 1274.35 1564.07 Q1279.22 1564.07 1282.15 1560.63 Q1285.11 1557.16 1285.11 1551.43 L1285.11 1550.12 L1279.29 1550.12 M1290.97 1547.71 L1290.97 1568.04 L1285.11 1568.04 L1285.11 1562.63 Q1283.11 1565.88 1280.11 1567.44 Q1277.12 1568.97 1272.79 1568.97 Q1267.32 1568.97 1264.07 1565.91 Q1260.86 1562.82 1260.86 1557.67 Q1260.86 1551.65 1264.87 1548.6 Q1268.91 1545.54 1276.9 1545.54 L1285.11 1545.54 L1285.11 1544.97 Q1285.11 1540.93 1282.44 1538.73 Q1279.8 1536.5 1274.99 1536.5 Q1271.93 1536.5 1269.04 1537.23 Q1266.14 1537.97 1263.47 1539.43 L1263.47 1534.02 Q1266.68 1532.78 1269.71 1532.17 Q1272.73 1531.54 1275.59 1531.54 Q1283.33 1531.54 1287.15 1535.55 Q1290.97 1539.56 1290.97 1547.71 Z" fill="#000000" fill-rule="evenodd" fill-opacity="1" /><path clip-path="url(#clip630)" d="M1325.76 1533.45 L1325.76 1538.98 Q1323.27 1537.71 1320.6 1537.07 Q1317.93 1536.44 1315.06 1536.44 Q1310.7 1536.44 1308.51 1537.77 Q1306.34 1539.11 1306.34 1541.79 Q1306.34 1543.82 1307.9 1545 Q1309.46 1546.15 1314.17 1547.2 L1316.18 1547.64 Q1322.41 1548.98 1325.02 1551.43 Q1327.67 1553.85 1327.67 1558.21 Q1327.67 1563.17 1323.72 1566.07 Q1319.8 1568.97 1312.93 1568.97 Q1310.07 1568.97 1306.95 1568.39 Q1303.86 1567.85 1300.42 1566.74 L1300.42 1560.69 Q1303.67 1562.38 1306.82 1563.24 Q1309.97 1564.07 1313.06 1564.07 Q1317.19 1564.07 1319.42 1562.66 Q1321.65 1561.23 1321.65 1558.65 Q1321.65 1556.27 1320.03 1554.99 Q1318.44 1553.72 1312.99 1552.54 L1310.96 1552.07 Q1305.51 1550.92 1303.09 1548.56 Q1300.68 1546.18 1300.68 1542.04 Q1300.68 1537.01 1304.24 1534.27 Q1307.81 1531.54 1314.36 1531.54 Q1317.61 1531.54 1320.47 1532.01 Q1323.34 1532.49 1325.76 1533.45 Z" fill="#000000" fill-rule="evenodd" fill-opacity="1" /><path clip-path="url(#clip630)" d="M1359.72 1533.45 L1359.72 1538.98 Q1357.24 1537.71 1354.56 1537.07 Q1351.89 1536.44 1349.02 1536.44 Q1344.66 1536.44 1342.47 1537.77 Q1340.3 1539.11 1340.3 1541.79 Q1340.3 1543.82 1341.86 1545 Q1343.42 1546.15 1348.13 1547.2 L1350.14 1547.64 Q1356.38 1548.98 1358.99 1551.43 Q1361.63 1553.85 1361.63 1558.21 Q1361.63 1563.17 1357.68 1566.07 Q1353.77 1568.97 1346.89 1568.97 Q1344.03 1568.97 1340.91 1568.39 Q1337.82 1567.85 1334.38 1566.74 L1334.38 1560.69 Q1337.63 1562.38 1340.78 1563.24 Q1343.93 1564.07 1347.02 1564.07 Q1351.16 1564.07 1353.38 1562.66 Q1355.61 1561.23 1355.61 1558.65 Q1355.61 1556.27 1353.99 1554.99 Q1352.4 1553.72 1346.95 1552.54 L1344.92 1552.07 Q1339.47 1550.92 1337.06 1548.56 Q1334.64 1546.18 1334.64 1542.04 Q1334.64 1537.01 1338.2 1534.27 Q1341.77 1531.54 1348.32 1531.54 Q1351.57 1531.54 1354.43 1532.01 Q1357.3 1532.49 1359.72 1533.45 Z" fill="#000000" fill-rule="evenodd" fill-opacity="1" /><path clip-path="url(#clip630)" d="M1370.95 1532.4 L1376.81 1532.4 L1376.81 1568.04 L1370.95 1568.04 L1370.95 1532.4 M1370.95 1518.52 L1376.81 1518.52 L1376.81 1525.93 L1370.95 1525.93 L1370.95 1518.52 Z" fill="#000000" fill-rule="evenodd" fill-opacity="1" /><path clip-path="url(#clip630)" d="M1412.52 1549.81 Q1412.52 1543.44 1409.88 1539.94 Q1407.27 1536.44 1402.53 1536.44 Q1397.82 1536.44 1395.17 1539.94 Q1392.56 1543.44 1392.56 1549.81 Q1392.56 1556.14 1395.17 1559.64 Q1397.82 1563.14 1402.53 1563.14 Q1407.27 1563.14 1409.88 1559.64 Q1412.52 1556.14 1412.52 1549.81 M1418.38 1563.62 Q1418.38 1572.72 1414.34 1577.15 Q1410.29 1581.6 1401.95 1581.6 Q1398.87 1581.6 1396.13 1581.13 Q1393.39 1580.68 1390.81 1579.72 L1390.81 1574.03 Q1393.39 1575.43 1395.91 1576.1 Q1398.42 1576.76 1401.03 1576.76 Q1406.79 1576.76 1409.66 1573.74 Q1412.52 1570.75 1412.52 1564.67 L1412.52 1561.77 Q1410.71 1564.92 1407.87 1566.48 Q1405.04 1568.04 1401.09 1568.04 Q1394.54 1568.04 1390.53 1563.05 Q1386.52 1558.05 1386.52 1549.81 Q1386.52 1541.53 1390.53 1536.53 Q1394.54 1531.54 1401.09 1531.54 Q1405.04 1531.54 1407.87 1533.1 Q1410.71 1534.66 1412.52 1537.81 L1412.52 1532.4 L1418.38 1532.4 L1418.38 1563.62 Z" fill="#000000" fill-rule="evenodd" fill-opacity="1" /><path clip-path="url(#clip630)" d="M1460.07 1546.53 L1460.07 1568.04 L1454.22 1568.04 L1454.22 1546.72 Q1454.22 1541.66 1452.24 1539.14 Q1450.27 1536.63 1446.32 1536.63 Q1441.58 1536.63 1438.84 1539.65 Q1436.11 1542.68 1436.11 1547.9 L1436.11 1568.04 L1430.22 1568.04 L1430.22 1532.4 L1436.11 1532.4 L1436.11 1537.93 Q1438.21 1534.72 1441.04 1533.13 Q1443.9 1531.54 1447.63 1531.54 Q1453.77 1531.54 1456.92 1535.36 Q1460.07 1539.14 1460.07 1546.53 Z" fill="#000000" fill-rule="evenodd" fill-opacity="1" /><path clip-path="url(#clip630)" d="M1499.51 1539.24 Q1501.7 1535.29 1504.76 1533.41 Q1507.82 1531.54 1511.95 1531.54 Q1517.52 1531.54 1520.55 1535.45 Q1523.57 1539.33 1523.57 1546.53 L1523.57 1568.04 L1517.68 1568.04 L1517.68 1546.72 Q1517.68 1541.59 1515.87 1539.11 Q1514.05 1536.63 1510.33 1536.63 Q1505.78 1536.63 1503.14 1539.65 Q1500.5 1542.68 1500.5 1547.9 L1500.5 1568.04 L1494.61 1568.04 L1494.61 1546.72 Q1494.61 1541.56 1492.79 1539.11 Q1490.98 1536.63 1487.19 1536.63 Q1482.7 1536.63 1480.06 1539.68 Q1477.42 1542.71 1477.42 1547.9 L1477.42 1568.04 L1471.53 1568.04 L1471.53 1532.4 L1477.42 1532.4 L1477.42 1537.93 Q1479.42 1534.66 1482.23 1533.1 Q1485.03 1531.54 1488.88 1531.54 Q1492.76 1531.54 1495.47 1533.51 Q1498.2 1535.48 1499.51 1539.24 Z" fill="#000000" fill-rule="evenodd" fill-opacity="1" /><path clip-path="url(#clip630)" d="M1565.74 1548.76 L1565.74 1551.62 L1538.82 1551.62 Q1539.2 1557.67 1542.45 1560.85 Q1545.72 1564 1551.55 1564 Q1554.92 1564 1558.07 1563.17 Q1561.26 1562.35 1564.38 1560.69 L1564.38 1566.23 Q1561.22 1567.57 1557.91 1568.27 Q1554.6 1568.97 1551.2 1568.97 Q1542.67 1568.97 1537.67 1564 Q1532.71 1559.04 1532.71 1550.57 Q1532.71 1541.82 1537.42 1536.69 Q1542.16 1531.54 1550.18 1531.54 Q1557.37 1531.54 1561.54 1536.18 Q1565.74 1540.8 1565.74 1548.76 M1559.89 1547.04 Q1559.82 1542.23 1557.18 1539.37 Q1554.57 1536.5 1550.24 1536.5 Q1545.34 1536.5 1542.38 1539.27 Q1539.45 1542.04 1539.01 1547.07 L1559.89 1547.04 Z" fill="#000000" fill-rule="evenodd" fill-opacity="1" /><path clip-path="url(#clip630)" d="M1604.99 1546.53 L1604.99 1568.04 L1599.13 1568.04 L1599.13 1546.72 Q1599.13 1541.66 1597.16 1539.14 Q1595.19 1536.63 1591.24 1536.63 Q1586.5 1536.63 1583.76 1539.65 Q1581.02 1542.68 1581.02 1547.9 L1581.02 1568.04 L1575.13 1568.04 L1575.13 1532.4 L1581.02 1532.4 L1581.02 1537.93 Q1583.12 1534.72 1585.96 1533.13 Q1588.82 1531.54 1592.54 1531.54 Q1598.69 1531.54 1601.84 1535.36 Q1604.99 1539.14 1604.99 1546.53 Z" fill="#000000" fill-rule="evenodd" fill-opacity="1" /><path clip-path="url(#clip630)" d="M1622.46 1522.27 L1622.46 1532.4 L1634.53 1532.4 L1634.53 1536.95 L1622.46 1536.95 L1622.46 1556.3 Q1622.46 1560.66 1623.64 1561.9 Q1624.85 1563.14 1628.51 1563.14 L1634.53 1563.14 L1634.53 1568.04 L1628.51 1568.04 Q1621.73 1568.04 1619.15 1565.53 Q1616.57 1562.98 1616.57 1556.3 L1616.57 1536.95 L1612.28 1536.95 L1612.28 1532.4 L1616.57 1532.4 L1616.57 1522.27 L1622.46 1522.27 Z" fill="#000000" fill-rule="evenodd" fill-opacity="1" /><path clip-path="url(#clip630)" d="M1664.95 1533.45 L1664.95 1538.98 Q1662.47 1537.71 1659.8 1537.07 Q1657.12 1536.44 1654.26 1536.44 Q1649.9 1536.44 1647.7 1537.77 Q1645.54 1539.11 1645.54 1541.79 Q1645.54 1543.82 1647.1 1545 Q1648.66 1546.15 1653.37 1547.2 L1655.37 1547.64 Q1661.61 1548.98 1664.22 1551.43 Q1666.86 1553.85 1666.86 1558.21 Q1666.86 1563.17 1662.92 1566.07 Q1659 1568.97 1652.13 1568.97 Q1649.26 1568.97 1646.14 1568.39 Q1643.06 1567.85 1639.62 1566.74 L1639.62 1560.69 Q1642.86 1562.38 1646.02 1563.24 Q1649.17 1564.07 1652.25 1564.07 Q1656.39 1564.07 1658.62 1562.66 Q1660.85 1561.23 1660.85 1558.65 Q1660.85 1556.27 1659.22 1554.99 Q1657.63 1553.72 1652.19 1552.54 L1650.15 1552.07 Q1644.71 1550.92 1642.29 1548.56 Q1639.87 1546.18 1639.87 1542.04 Q1639.87 1537.01 1643.44 1534.27 Q1647 1531.54 1653.56 1531.54 Q1656.81 1531.54 1659.67 1532.01 Q1662.53 1532.49 1664.95 1533.45 Z" fill="#000000" fill-rule="evenodd" fill-opacity="1" /><polyline clip-path="url(#clip632)" style="stroke:#000000; stroke-linecap:butt; stroke-linejoin:round; stroke-width:2; stroke-opacity:0.1; fill:none" points="
  211.325,165.041 2352.76,165.041 
  "/>
<polyline clip-path="url(#clip632)" style="stroke:#000000; stroke-linecap:butt; stroke-linejoin:round; stroke-width:2; stroke-opacity:0.1; fill:none" points="
  211.325,327.457 2352.76,327.457 
  "/>
<polyline clip-path="url(#clip632)" style="stroke:#000000; stroke-linecap:butt; stroke-linejoin:round; stroke-width:2; stroke-opacity:0.1; fill:none" points="
  211.325,571.079 2352.76,571.079 
  "/>
<polyline clip-path="url(#clip632)" style="stroke:#000000; stroke-linecap:butt; stroke-linejoin:round; stroke-width:2; stroke-opacity:0.1; fill:none" points="
  211.325,814.702 2352.76,814.702 
  "/>
<polyline clip-path="url(#clip632)" style="stroke:#000000; stroke-linecap:butt; stroke-linejoin:round; stroke-width:2; stroke-opacity:0.1; fill:none" points="
  211.325,977.117 2352.76,977.117 
  "/>
<polyline clip-path="url(#clip632)" style="stroke:#000000; stroke-linecap:butt; stroke-linejoin:round; stroke-width:2; stroke-opacity:0.1; fill:none" points="
  211.325,1139.53 2352.76,1139.53 
  "/>
<polyline clip-path="url(#clip632)" style="stroke:#000000; stroke-linecap:butt; stroke-linejoin:round; stroke-width:2; stroke-opacity:0.1; fill:none" points="
  211.325,1383.16 2352.76,1383.16 
  "/>
<polyline clip-path="url(#clip630)" style="stroke:#000000; stroke-linecap:butt; stroke-linejoin:round; stroke-width:4; stroke-opacity:1; fill:none" points="
  211.325,1423.18 211.325,123.472 
  "/>
<polyline clip-path="url(#clip630)" style="stroke:#000000; stroke-linecap:butt; stroke-linejoin:round; stroke-width:4; stroke-opacity:1; fill:none" points="
  211.325,165.041 230.222,165.041 
  "/>
<polyline clip-path="url(#clip630)" style="stroke:#000000; stroke-linecap:butt; stroke-linejoin:round; stroke-width:4; stroke-opacity:1; fill:none" points="
  211.325,327.457 230.222,327.457 
  "/>
<polyline clip-path="url(#clip630)" style="stroke:#000000; stroke-linecap:butt; stroke-linejoin:round; stroke-width:4; stroke-opacity:1; fill:none" points="
  211.325,571.079 230.222,571.079 
  "/>
<polyline clip-path="url(#clip630)" style="stroke:#000000; stroke-linecap:butt; stroke-linejoin:round; stroke-width:4; stroke-opacity:1; fill:none" points="
  211.325,814.702 230.222,814.702 
  "/>
<polyline clip-path="url(#clip630)" style="stroke:#000000; stroke-linecap:butt; stroke-linejoin:round; stroke-width:4; stroke-opacity:1; fill:none" points="
  211.325,977.117 230.222,977.117 
  "/>
<polyline clip-path="url(#clip630)" style="stroke:#000000; stroke-linecap:butt; stroke-linejoin:round; stroke-width:4; stroke-opacity:1; fill:none" points="
  211.325,1139.53 230.222,1139.53 
  "/>
<polyline clip-path="url(#clip630)" style="stroke:#000000; stroke-linecap:butt; stroke-linejoin:round; stroke-width:4; stroke-opacity:1; fill:none" points="
  211.325,1383.16 230.222,1383.16 
  "/>
<path clip-path="url(#clip630)" d="M125.626 178.386 L133.265 178.386 L133.265 152.021 L124.955 153.687 L124.955 149.428 L133.218 147.761 L137.894 147.761 L137.894 178.386 L145.533 178.386 L145.533 182.321 L125.626 182.321 L125.626 178.386 Z" fill="#000000" fill-rule="evenodd" fill-opacity="1" /><path clip-path="url(#clip630)" d="M159.005 178.386 L175.325 178.386 L175.325 182.321 L153.38 182.321 L153.38 178.386 Q156.042 175.632 160.626 171.002 Q165.232 166.349 166.413 165.007 Q168.658 162.484 169.538 160.747 Q170.44 158.988 170.44 157.298 Q170.44 154.544 168.496 152.808 Q166.575 151.072 163.473 151.072 Q161.274 151.072 158.82 151.835 Q156.39 152.599 153.612 154.15 L153.612 149.428 Q156.436 148.294 158.89 147.715 Q161.343 147.136 163.38 147.136 Q168.751 147.136 171.945 149.822 Q175.139 152.507 175.139 156.997 Q175.139 159.127 174.329 161.048 Q173.542 162.947 171.436 165.539 Q170.857 166.21 167.755 169.428 Q164.653 172.622 159.005 178.386 Z" fill="#000000" fill-rule="evenodd" fill-opacity="1" /><path clip-path="url(#clip630)" d="M124.029 340.801 L131.667 340.801 L131.667 314.436 L123.357 316.102 L123.357 311.843 L131.621 310.177 L136.297 310.177 L136.297 340.801 L143.936 340.801 L143.936 344.737 L124.029 344.737 L124.029 340.801 Z" fill="#000000" fill-rule="evenodd" fill-opacity="1" /><path clip-path="url(#clip630)" d="M163.38 313.255 Q159.769 313.255 157.94 316.82 Q156.135 320.362 156.135 327.491 Q156.135 334.598 157.94 338.163 Q159.769 341.704 163.38 341.704 Q167.015 341.704 168.82 338.163 Q170.649 334.598 170.649 327.491 Q170.649 320.362 168.82 316.82 Q167.015 313.255 163.38 313.255 M163.38 309.552 Q169.19 309.552 172.246 314.158 Q175.325 318.741 175.325 327.491 Q175.325 336.218 172.246 340.825 Q169.19 345.408 163.38 345.408 Q157.57 345.408 154.491 340.825 Q151.436 336.218 151.436 327.491 Q151.436 318.741 154.491 314.158 Q157.57 309.552 163.38 309.552 Z" fill="#000000" fill-rule="evenodd" fill-opacity="1" /><path clip-path="url(#clip630)" d="M153.103 553.799 L175.325 553.799 L175.325 555.79 L162.778 588.359 L157.894 588.359 L169.7 557.734 L153.103 557.734 L153.103 553.799 Z" fill="#000000" fill-rule="evenodd" fill-opacity="1" /><path clip-path="url(#clip630)" d="M165.741 801.496 L153.936 819.945 L165.741 819.945 L165.741 801.496 M164.515 797.422 L170.394 797.422 L170.394 819.945 L175.325 819.945 L175.325 823.834 L170.394 823.834 L170.394 831.982 L165.741 831.982 L165.741 823.834 L150.14 823.834 L150.14 819.32 L164.515 797.422 Z" fill="#000000" fill-rule="evenodd" fill-opacity="1" /><path clip-path="url(#clip630)" d="M159.005 990.462 L175.325 990.462 L175.325 994.397 L153.38 994.397 L153.38 990.462 Q156.042 987.707 160.626 983.078 Q165.232 978.425 166.413 977.082 Q168.658 974.559 169.538 972.823 Q170.44 971.064 170.44 969.374 Q170.44 966.62 168.496 964.883 Q166.575 963.147 163.473 963.147 Q161.274 963.147 158.82 963.911 Q156.39 964.675 153.612 966.226 L153.612 961.504 Q156.436 960.37 158.89 959.791 Q161.343 959.212 163.38 959.212 Q168.751 959.212 171.945 961.897 Q175.139 964.583 175.139 969.073 Q175.139 971.203 174.329 973.124 Q173.542 975.022 171.436 977.615 Q170.857 978.286 167.755 981.504 Q164.653 984.698 159.005 990.462 Z" fill="#000000" fill-rule="evenodd" fill-opacity="1" /><path clip-path="url(#clip630)" d="M163.38 1125.33 Q159.769 1125.33 157.94 1128.9 Q156.135 1132.44 156.135 1139.57 Q156.135 1146.67 157.94 1150.24 Q159.769 1153.78 163.38 1153.78 Q167.015 1153.78 168.82 1150.24 Q170.649 1146.67 170.649 1139.57 Q170.649 1132.44 168.82 1128.9 Q167.015 1125.33 163.38 1125.33 M163.38 1121.63 Q169.19 1121.63 172.246 1126.23 Q175.325 1130.82 175.325 1139.57 Q175.325 1148.29 172.246 1152.9 Q169.19 1157.48 163.38 1157.48 Q157.57 1157.48 154.491 1152.9 Q151.436 1148.29 151.436 1139.57 Q151.436 1130.82 154.491 1126.23 Q157.57 1121.63 163.38 1121.63 Z" fill="#000000" fill-rule="evenodd" fill-opacity="1" /><path clip-path="url(#clip630)" d="M114.26 1383.61 L143.936 1383.61 L143.936 1387.54 L114.26 1387.54 L114.26 1383.61 Z" fill="#000000" fill-rule="evenodd" fill-opacity="1" /><path clip-path="url(#clip630)" d="M168.195 1381.8 Q171.552 1382.52 173.427 1384.79 Q175.325 1387.06 175.325 1390.39 Q175.325 1395.5 171.806 1398.31 Q168.288 1401.11 161.806 1401.11 Q159.63 1401.11 157.315 1400.67 Q155.024 1400.25 152.57 1399.39 L152.57 1394.88 Q154.515 1396.01 156.829 1396.59 Q159.144 1397.17 161.667 1397.17 Q166.065 1397.17 168.357 1395.44 Q170.672 1393.7 170.672 1390.39 Q170.672 1387.33 168.519 1385.62 Q166.39 1383.88 162.57 1383.88 L158.542 1383.88 L158.542 1380.04 L162.755 1380.04 Q166.204 1380.04 168.033 1378.68 Q169.862 1377.29 169.862 1374.69 Q169.862 1372.03 167.964 1370.62 Q166.089 1369.19 162.57 1369.19 Q160.649 1369.19 158.45 1369.6 Q156.251 1370.02 153.612 1370.9 L153.612 1366.73 Q156.274 1365.99 158.589 1365.62 Q160.927 1365.25 162.987 1365.25 Q168.311 1365.25 171.413 1367.68 Q174.514 1370.09 174.514 1374.21 Q174.514 1377.08 172.871 1379.07 Q171.227 1381.04 168.195 1381.8 Z" fill="#000000" fill-rule="evenodd" fill-opacity="1" /><path clip-path="url(#clip630)" d="M57.2247 958.679 L44.4614 958.679 L44.4614 969.183 L39.1779 969.183 L39.1779 952.314 L59.58 952.314 Q62.2218 956.038 63.5904 960.526 Q64.9272 965.013 64.9272 970.106 Q64.9272 981.246 58.4342 987.548 Q51.9093 993.818 40.2919 993.818 Q28.6427 993.818 22.1496 987.548 Q15.6248 981.246 15.6248 970.106 Q15.6248 965.459 16.7706 961.289 Q17.9164 957.088 20.1444 953.555 L26.9876 953.555 Q23.9639 957.12 22.4361 961.13 Q20.9083 965.141 20.9083 969.565 Q20.9083 978.286 25.7781 982.678 Q30.6479 987.039 40.2919 987.039 Q49.9041 987.039 54.7739 982.678 Q59.6436 978.286 59.6436 969.565 Q59.6436 966.159 59.0707 963.486 Q58.466 960.812 57.2247 958.679 Z" fill="#000000" fill-rule="evenodd" fill-opacity="1" /><path clip-path="url(#clip630)" d="M33.8307 920.167 Q33.2578 921.154 33.0032 922.331 Q32.7167 923.477 32.7167 924.878 Q32.7167 929.843 35.9632 932.516 Q39.1779 935.158 45.2253 935.158 L64.0042 935.158 L64.0042 941.046 L28.3562 941.046 L28.3562 935.158 L33.8944 935.158 Q30.6479 933.312 29.0883 930.352 Q27.4968 927.392 27.4968 923.159 Q27.4968 922.554 27.5923 921.822 Q27.656 921.09 27.8151 920.199 L33.8307 920.167 Z" fill="#000000" fill-rule="evenodd" fill-opacity="1" /><path clip-path="url(#clip630)" d="M46.0847 897.823 Q46.0847 904.921 47.7079 907.658 Q49.3312 910.396 53.2461 910.396 Q56.3653 910.396 58.2114 908.359 Q60.0256 906.29 60.0256 902.757 Q60.0256 897.887 56.5881 894.959 Q53.1188 891.999 47.3897 891.999 L46.0847 891.999 L46.0847 897.823 M43.6657 886.142 L64.0042 886.142 L64.0042 891.999 L58.5933 891.999 Q61.8398 894.004 63.3994 896.996 Q64.9272 899.988 64.9272 904.316 Q64.9272 909.791 61.8716 913.037 Q58.7843 916.252 53.6281 916.252 Q47.6125 916.252 44.5569 912.242 Q41.5014 908.199 41.5014 900.21 L41.5014 891.999 L40.9285 891.999 Q36.8862 891.999 34.6901 894.672 Q32.4621 897.314 32.4621 902.12 Q32.4621 905.176 33.1941 908.072 Q33.9262 910.968 35.3903 913.642 L29.9795 913.642 Q28.7381 910.427 28.1334 907.404 Q27.4968 904.38 27.4968 901.515 Q27.4968 893.781 31.5072 889.962 Q35.5176 886.142 43.6657 886.142 Z" fill="#000000" fill-rule="evenodd" fill-opacity="1" /><path clip-path="url(#clip630)" d="M33.7671 850.622 L14.479 850.622 L14.479 844.765 L64.0042 844.765 L64.0042 850.622 L58.657 850.622 Q61.8398 852.468 63.3994 855.3 Q64.9272 858.101 64.9272 862.048 Q64.9272 868.509 59.771 872.583 Q54.6147 876.625 46.212 876.625 Q37.8093 876.625 32.6531 872.583 Q27.4968 868.509 27.4968 862.048 Q27.4968 858.101 29.0564 855.3 Q30.5842 852.468 33.7671 850.622 M46.212 870.578 Q52.6732 870.578 56.3653 867.936 Q60.0256 865.263 60.0256 860.616 Q60.0256 855.969 56.3653 853.295 Q52.6732 850.622 46.212 850.622 Q39.7508 850.622 36.0905 853.295 Q32.3984 855.969 32.3984 860.616 Q32.3984 865.263 36.0905 867.936 Q39.7508 870.578 46.212 870.578 Z" fill="#000000" fill-rule="evenodd" fill-opacity="1" /><path clip-path="url(#clip630)" d="M28.3562 832.702 L28.3562 826.846 L64.0042 826.846 L64.0042 832.702 L28.3562 832.702 M14.479 832.702 L14.479 826.846 L21.895 826.846 L21.895 832.702 L14.479 832.702 Z" fill="#000000" fill-rule="evenodd" fill-opacity="1" /><path clip-path="url(#clip630)" d="M42.4881 784.959 L64.0042 784.959 L64.0042 790.816 L42.679 790.816 Q37.6183 790.816 35.1038 792.789 Q32.5894 794.763 32.5894 798.709 Q32.5894 803.452 35.6131 806.189 Q38.6368 808.926 43.8567 808.926 L64.0042 808.926 L64.0042 814.814 L28.3562 814.814 L28.3562 808.926 L33.8944 808.926 Q30.6797 806.826 29.0883 803.993 Q27.4968 801.128 27.4968 797.404 Q27.4968 791.261 31.3163 788.11 Q35.1038 784.959 42.4881 784.959 Z" fill="#000000" fill-rule="evenodd" fill-opacity="1" /><path clip-path="url(#clip630)" d="M45.7664 749.821 Q39.4007 749.821 35.8996 752.462 Q32.3984 755.072 32.3984 759.815 Q32.3984 764.525 35.8996 767.167 Q39.4007 769.777 45.7664 769.777 Q52.1003 769.777 55.6014 767.167 Q59.1026 764.525 59.1026 759.815 Q59.1026 755.072 55.6014 752.462 Q52.1003 749.821 45.7664 749.821 M59.58 743.964 Q68.683 743.964 73.1071 748.006 Q77.5631 752.049 77.5631 760.388 Q77.5631 763.475 77.0857 766.212 Q76.6401 768.95 75.6852 771.528 L69.9879 771.528 Q71.3884 768.95 72.0568 766.435 Q72.7252 763.921 72.7252 761.311 Q72.7252 755.55 69.7015 752.685 Q66.7096 749.821 60.6303 749.821 L57.7339 749.821 Q60.885 751.635 62.4446 754.468 Q64.0042 757.3 64.0042 761.247 Q64.0042 767.804 59.0071 771.814 Q54.01 775.825 45.7664 775.825 Q37.491 775.825 32.4939 771.814 Q27.4968 767.804 27.4968 761.247 Q27.4968 757.3 29.0564 754.468 Q30.616 751.635 33.7671 749.821 L28.3562 749.821 L28.3562 743.964 L59.58 743.964 Z" fill="#000000" fill-rule="evenodd" fill-opacity="1" /><path clip-path="url(#clip630)" d="M29.4065 688.455 L34.9447 688.455 Q33.6716 690.938 33.035 693.611 Q32.3984 696.285 32.3984 699.15 Q32.3984 703.51 33.7352 705.706 Q35.072 707.871 37.7456 707.871 Q39.7826 707.871 40.9603 706.311 Q42.1061 704.751 43.1565 700.041 L43.6021 698.036 Q44.9389 691.797 47.3897 689.187 Q49.8086 686.545 54.1691 686.545 Q59.1344 686.545 62.0308 690.492 Q64.9272 694.407 64.9272 701.282 Q64.9272 704.147 64.3543 707.266 Q63.8132 710.353 62.6992 713.791 L56.6518 713.791 Q58.3387 710.544 59.198 707.393 Q60.0256 704.242 60.0256 701.155 Q60.0256 697.017 58.6251 694.789 Q57.1929 692.561 54.6147 692.561 Q52.2276 692.561 50.9545 694.184 Q49.6813 695.776 48.5037 701.218 L48.0262 703.255 Q46.8804 708.698 44.5251 711.117 Q42.138 713.536 38.0002 713.536 Q32.9713 713.536 30.2341 709.971 Q27.4968 706.406 27.4968 699.85 Q27.4968 696.603 27.9743 693.739 Q28.4517 690.874 29.4065 688.455 Z" fill="#000000" fill-rule="evenodd" fill-opacity="1" /><path clip-path="url(#clip630)" d="M29.7248 651.566 L35.1993 651.566 Q33.8307 654.049 33.1623 656.563 Q32.4621 659.046 32.4621 661.592 Q32.4621 667.289 36.0905 670.44 Q39.6872 673.591 46.212 673.591 Q52.7369 673.591 56.3653 670.44 Q59.9619 667.289 59.9619 661.592 Q59.9619 659.046 59.2935 656.563 Q58.5933 654.049 57.2247 651.566 L62.6355 651.566 Q63.7814 654.017 64.3543 656.658 Q64.9272 659.268 64.9272 662.228 Q64.9272 670.281 59.8664 675.024 Q54.8057 679.766 46.212 679.766 Q37.491 679.766 32.4939 674.992 Q27.4968 670.186 27.4968 661.847 Q27.4968 659.141 28.0697 656.563 Q28.6108 653.985 29.7248 651.566 Z" fill="#000000" fill-rule="evenodd" fill-opacity="1" /><path clip-path="url(#clip630)" d="M46.0847 625.18 Q46.0847 632.278 47.7079 635.015 Q49.3312 637.752 53.2461 637.752 Q56.3653 637.752 58.2114 635.715 Q60.0256 633.646 60.0256 630.113 Q60.0256 625.244 56.5881 622.316 Q53.1188 619.355 47.3897 619.355 L46.0847 619.355 L46.0847 625.18 M43.6657 613.499 L64.0042 613.499 L64.0042 619.355 L58.5933 619.355 Q61.8398 621.361 63.3994 624.353 Q64.9272 627.344 64.9272 631.673 Q64.9272 637.148 61.8716 640.394 Q58.7843 643.609 53.6281 643.609 Q47.6125 643.609 44.5569 639.598 Q41.5014 635.556 41.5014 627.567 L41.5014 619.355 L40.9285 619.355 Q36.8862 619.355 34.6901 622.029 Q32.4621 624.671 32.4621 629.477 Q32.4621 632.532 33.1941 635.429 Q33.9262 638.325 35.3903 640.999 L29.9795 640.999 Q28.7381 637.784 28.1334 634.76 Q27.4968 631.737 27.4968 628.872 Q27.4968 621.138 31.5072 617.318 Q35.5176 613.499 43.6657 613.499 Z" fill="#000000" fill-rule="evenodd" fill-opacity="1" /><path clip-path="url(#clip630)" d="M14.479 601.436 L14.479 595.58 L64.0042 595.58 L64.0042 601.436 L14.479 601.436 Z" fill="#000000" fill-rule="evenodd" fill-opacity="1" /><path clip-path="url(#clip630)" d="M44.7161 552.834 L47.5806 552.834 L47.5806 579.761 Q53.6281 579.379 56.8109 576.132 Q59.9619 572.854 59.9619 567.029 Q59.9619 563.656 59.1344 560.504 Q58.3069 557.322 56.6518 554.202 L62.1899 554.202 Q63.5267 557.353 64.227 560.664 Q64.9272 563.974 64.9272 567.379 Q64.9272 575.91 59.9619 580.907 Q54.9967 585.872 46.5303 585.872 Q37.7774 585.872 32.6531 581.161 Q27.4968 576.419 27.4968 568.398 Q27.4968 561.205 32.1438 557.035 Q36.7589 552.834 44.7161 552.834 M42.9973 558.69 Q38.1912 558.754 35.3266 561.396 Q32.4621 564.006 32.4621 568.334 Q32.4621 573.236 35.2312 576.196 Q38.0002 579.124 43.0292 579.57 L42.9973 558.69 Z" fill="#000000" fill-rule="evenodd" fill-opacity="1" /><path clip-path="url(#clip630)" d="M845.454 63.9476 L845.454 47.7034 L832.086 47.7034 L832.086 40.9789 L853.556 40.9789 L853.556 66.9452 Q848.816 70.3075 843.105 72.0494 Q837.393 73.7508 830.911 73.7508 Q816.733 73.7508 808.712 65.4869 Q800.732 57.1826 800.732 42.3968 Q800.732 27.5705 808.712 19.3066 Q816.733 11.0023 830.911 11.0023 Q836.826 11.0023 842.132 12.4606 Q847.48 13.9189 851.976 16.7545 L851.976 25.464 Q847.439 21.6156 842.335 19.6712 Q837.231 17.7268 831.6 17.7268 Q820.501 17.7268 814.91 23.9246 Q809.361 30.1225 809.361 42.3968 Q809.361 54.6305 814.91 60.8284 Q820.501 67.0263 831.6 67.0263 Q835.934 67.0263 839.337 66.2971 Q842.74 65.5274 845.454 63.9476 Z" fill="#000000" fill-rule="evenodd" fill-opacity="1" /><path clip-path="url(#clip630)" d="M894.47 34.1734 Q893.214 33.4443 891.715 33.1202 Q890.257 32.7556 888.475 32.7556 Q882.155 32.7556 878.753 36.8875 Q875.39 40.9789 875.39 48.6757 L875.39 72.576 L867.896 72.576 L867.896 27.2059 L875.39 27.2059 L875.39 34.2544 Q877.74 30.1225 881.507 28.1376 Q885.274 26.1121 890.662 26.1121 Q891.432 26.1121 892.364 26.2337 Q893.295 26.3147 894.43 26.5172 L894.47 34.1734 Z" fill="#000000" fill-rule="evenodd" fill-opacity="1" /><path clip-path="url(#clip630)" d="M922.907 49.7694 Q913.874 49.7694 910.39 51.8354 Q906.906 53.9013 906.906 58.8839 Q906.906 62.8538 909.499 65.2034 Q912.132 67.5124 916.628 67.5124 Q922.826 67.5124 926.553 63.1374 Q930.321 58.7219 930.321 51.4303 L930.321 49.7694 L922.907 49.7694 M937.774 46.6907 L937.774 72.576 L930.321 72.576 L930.321 65.6895 Q927.768 69.8214 923.961 71.8063 Q920.153 73.7508 914.644 73.7508 Q907.676 73.7508 903.544 69.8619 Q899.453 65.9325 899.453 59.3701 Q899.453 51.7138 904.557 47.825 Q909.701 43.9361 919.869 43.9361 L930.321 43.9361 L930.321 43.2069 Q930.321 38.0623 926.918 35.2672 Q923.556 32.4315 917.439 32.4315 Q913.55 32.4315 909.863 33.3632 Q906.177 34.295 902.774 36.1584 L902.774 29.2718 Q906.866 27.692 910.714 26.9223 Q914.562 26.1121 918.208 26.1121 Q928.052 26.1121 932.913 31.2163 Q937.774 36.3204 937.774 46.6907 Z" fill="#000000" fill-rule="evenodd" fill-opacity="1" /><path clip-path="url(#clip630)" d="M982.982 34.0924 L982.982 9.54393 L990.436 9.54393 L990.436 72.576 L982.982 72.576 L982.982 65.7705 Q980.633 69.8214 977.027 71.8063 Q973.463 73.7508 968.44 73.7508 Q960.216 73.7508 955.031 67.1883 Q949.886 60.6258 949.886 49.9314 Q949.886 39.2371 955.031 32.6746 Q960.216 26.1121 968.44 26.1121 Q973.463 26.1121 977.027 28.0971 Q980.633 30.0415 982.982 34.0924 M957.583 49.9314 Q957.583 58.1548 960.945 62.8538 Q964.348 67.5124 970.262 67.5124 Q976.177 67.5124 979.58 62.8538 Q982.982 58.1548 982.982 49.9314 Q982.982 41.7081 979.58 37.0496 Q976.177 32.3505 970.262 32.3505 Q964.348 32.3505 960.945 37.0496 Q957.583 41.7081 957.583 49.9314 Z" fill="#000000" fill-rule="evenodd" fill-opacity="1" /><path clip-path="url(#clip630)" d="M1044.6 48.0275 L1044.6 51.6733 L1010.33 51.6733 Q1010.81 59.3701 1014.94 63.421 Q1019.12 67.4314 1026.53 67.4314 Q1030.82 67.4314 1034.83 66.3781 Q1038.88 65.3249 1042.85 63.2184 L1042.85 70.267 Q1038.84 71.9684 1034.63 72.8596 Q1030.42 73.7508 1026.08 73.7508 Q1015.23 73.7508 1008.87 67.4314 Q1002.55 61.1119 1002.55 50.3365 Q1002.55 39.1965 1008.54 32.6746 Q1014.58 26.1121 1024.79 26.1121 Q1033.94 26.1121 1039.25 32.0264 Q1044.6 37.9003 1044.6 48.0275 M1037.14 45.84 Q1037.06 39.7232 1033.7 36.0774 Q1030.38 32.4315 1024.87 32.4315 Q1018.63 32.4315 1014.86 35.9558 Q1011.14 39.4801 1010.57 45.8805 L1037.14 45.84 Z" fill="#000000" fill-rule="evenodd" fill-opacity="1" /><path clip-path="url(#clip630)" d="M1085.75 28.5427 L1085.75 35.5912 Q1082.59 33.9709 1079.19 33.1607 Q1075.79 32.3505 1072.14 32.3505 Q1066.59 32.3505 1063.8 34.0519 Q1061.04 35.7533 1061.04 39.156 Q1061.04 41.7486 1063.03 43.2475 Q1065.01 44.7058 1071.01 46.0426 L1073.56 46.6097 Q1081.5 48.3111 1084.82 51.4303 Q1088.18 54.509 1088.18 60.0587 Q1088.18 66.3781 1083.16 70.0644 Q1078.18 73.7508 1069.43 73.7508 Q1065.78 73.7508 1061.81 73.0216 Q1057.88 72.3329 1053.51 70.9151 L1053.51 63.2184 Q1057.64 65.3654 1061.65 66.4591 Q1065.66 67.5124 1069.59 67.5124 Q1074.86 67.5124 1077.69 65.73 Q1080.53 63.9071 1080.53 60.6258 Q1080.53 57.5877 1078.46 55.9673 Q1076.44 54.3469 1069.51 52.8481 L1066.92 52.2405 Q1059.99 50.7821 1056.91 47.7845 Q1053.83 44.7463 1053.83 39.4801 Q1053.83 33.0797 1058.37 29.5959 Q1062.91 26.1121 1071.25 26.1121 Q1075.38 26.1121 1079.03 26.7198 Q1082.68 27.3274 1085.75 28.5427 Z" fill="#000000" fill-rule="evenodd" fill-opacity="1" /><path clip-path="url(#clip630)" d="M1133.64 65.7705 L1133.64 89.8329 L1126.14 89.8329 L1126.14 27.2059 L1133.64 27.2059 L1133.64 34.0924 Q1135.98 30.0415 1139.55 28.0971 Q1143.16 26.1121 1148.14 26.1121 Q1156.4 26.1121 1161.55 32.6746 Q1166.73 39.2371 1166.73 49.9314 Q1166.73 60.6258 1161.55 67.1883 Q1156.4 73.7508 1148.14 73.7508 Q1143.16 73.7508 1139.55 71.8063 Q1135.98 69.8214 1133.64 65.7705 M1158.99 49.9314 Q1158.99 41.7081 1155.59 37.0496 Q1152.23 32.3505 1146.31 32.3505 Q1140.4 32.3505 1137 37.0496 Q1133.64 41.7081 1133.64 49.9314 Q1133.64 58.1548 1137 62.8538 Q1140.4 67.5124 1146.31 67.5124 Q1152.23 67.5124 1155.59 62.8538 Q1158.99 58.1548 1158.99 49.9314 Z" fill="#000000" fill-rule="evenodd" fill-opacity="1" /><path clip-path="url(#clip630)" d="M1217.89 48.0275 L1217.89 51.6733 L1183.62 51.6733 Q1184.11 59.3701 1188.24 63.421 Q1192.41 67.4314 1199.83 67.4314 Q1204.12 67.4314 1208.13 66.3781 Q1212.18 65.3249 1216.15 63.2184 L1216.15 70.267 Q1212.14 71.9684 1207.93 72.8596 Q1203.72 73.7508 1199.38 73.7508 Q1188.53 73.7508 1182.17 67.4314 Q1175.85 61.1119 1175.85 50.3365 Q1175.85 39.1965 1181.84 32.6746 Q1187.88 26.1121 1198.09 26.1121 Q1207.24 26.1121 1212.55 32.0264 Q1217.89 37.9003 1217.89 48.0275 M1210.44 45.84 Q1210.36 39.7232 1207 36.0774 Q1203.68 32.4315 1198.17 32.4315 Q1191.93 32.4315 1188.16 35.9558 Q1184.43 39.4801 1183.87 45.8805 L1210.44 45.84 Z" fill="#000000" fill-rule="evenodd" fill-opacity="1" /><path clip-path="url(#clip630)" d="M1256.42 34.1734 Q1255.16 33.4443 1253.66 33.1202 Q1252.21 32.7556 1250.42 32.7556 Q1244.1 32.7556 1240.7 36.8875 Q1237.34 40.9789 1237.34 48.6757 L1237.34 72.576 L1229.84 72.576 L1229.84 27.2059 L1237.34 27.2059 L1237.34 34.2544 Q1239.69 30.1225 1243.46 28.1376 Q1247.22 26.1121 1252.61 26.1121 Q1253.38 26.1121 1254.31 26.2337 Q1255.24 26.3147 1256.38 26.5172 L1256.42 34.1734 Z" fill="#000000" fill-rule="evenodd" fill-opacity="1" /><path clip-path="url(#clip630)" d="M1311.23 49.7694 Q1302.19 49.7694 1298.71 51.8354 Q1295.23 53.9013 1295.23 58.8839 Q1295.23 62.8538 1297.82 65.2034 Q1300.45 67.5124 1304.95 67.5124 Q1311.15 67.5124 1314.87 63.1374 Q1318.64 58.7219 1318.64 51.4303 L1318.64 49.7694 L1311.23 49.7694 M1326.09 46.6907 L1326.09 72.576 L1318.64 72.576 L1318.64 65.6895 Q1316.09 69.8214 1312.28 71.8063 Q1308.47 73.7508 1302.96 73.7508 Q1296 73.7508 1291.86 69.8619 Q1287.77 65.9325 1287.77 59.3701 Q1287.77 51.7138 1292.88 47.825 Q1298.02 43.9361 1308.19 43.9361 L1318.64 43.9361 L1318.64 43.2069 Q1318.64 38.0623 1315.24 35.2672 Q1311.88 32.4315 1305.76 32.4315 Q1301.87 32.4315 1298.18 33.3632 Q1294.5 34.295 1291.09 36.1584 L1291.09 29.2718 Q1295.19 27.692 1299.03 26.9223 Q1302.88 26.1121 1306.53 26.1121 Q1316.37 26.1121 1321.23 31.2163 Q1326.09 36.3204 1326.09 46.6907 Z" fill="#000000" fill-rule="evenodd" fill-opacity="1" /><path clip-path="url(#clip630)" d="M1370.37 28.5427 L1370.37 35.5912 Q1367.21 33.9709 1363.81 33.1607 Q1360.41 32.3505 1356.76 32.3505 Q1351.21 32.3505 1348.41 34.0519 Q1345.66 35.7533 1345.66 39.156 Q1345.66 41.7486 1347.64 43.2475 Q1349.63 44.7058 1355.62 46.0426 L1358.18 46.6097 Q1366.12 48.3111 1369.44 51.4303 Q1372.8 54.509 1372.8 60.0587 Q1372.8 66.3781 1367.78 70.0644 Q1362.8 73.7508 1354.05 73.7508 Q1350.4 73.7508 1346.43 73.0216 Q1342.5 72.3329 1338.13 70.9151 L1338.13 63.2184 Q1342.26 65.3654 1346.27 66.4591 Q1350.28 67.5124 1354.21 67.5124 Q1359.47 67.5124 1362.31 65.73 Q1365.14 63.9071 1365.14 60.6258 Q1365.14 57.5877 1363.08 55.9673 Q1361.05 54.3469 1354.13 52.8481 L1351.53 52.2405 Q1344.61 50.7821 1341.53 47.7845 Q1338.45 44.7463 1338.45 39.4801 Q1338.45 33.0797 1342.99 29.5959 Q1347.52 26.1121 1355.87 26.1121 Q1360 26.1121 1363.65 26.7198 Q1367.29 27.3274 1370.37 28.5427 Z" fill="#000000" fill-rule="evenodd" fill-opacity="1" /><path clip-path="url(#clip630)" d="M1413.59 28.5427 L1413.59 35.5912 Q1410.43 33.9709 1407.03 33.1607 Q1403.63 32.3505 1399.98 32.3505 Q1394.43 32.3505 1391.64 34.0519 Q1388.88 35.7533 1388.88 39.156 Q1388.88 41.7486 1390.87 43.2475 Q1392.85 44.7058 1398.85 46.0426 L1401.4 46.6097 Q1409.34 48.3111 1412.66 51.4303 Q1416.02 54.509 1416.02 60.0587 Q1416.02 66.3781 1411 70.0644 Q1406.02 73.7508 1397.27 73.7508 Q1393.62 73.7508 1389.65 73.0216 Q1385.72 72.3329 1381.35 70.9151 L1381.35 63.2184 Q1385.48 65.3654 1389.49 66.4591 Q1393.5 67.5124 1397.43 67.5124 Q1402.7 67.5124 1405.53 65.73 Q1408.37 63.9071 1408.37 60.6258 Q1408.37 57.5877 1406.3 55.9673 Q1404.28 54.3469 1397.35 52.8481 L1394.76 52.2405 Q1387.83 50.7821 1384.75 47.7845 Q1381.67 44.7463 1381.67 39.4801 Q1381.67 33.0797 1386.21 29.5959 Q1390.75 26.1121 1399.09 26.1121 Q1403.22 26.1121 1406.87 26.7198 Q1410.51 27.3274 1413.59 28.5427 Z" fill="#000000" fill-rule="evenodd" fill-opacity="1" /><path clip-path="url(#clip630)" d="M1427.89 27.2059 L1435.35 27.2059 L1435.35 72.576 L1427.89 72.576 L1427.89 27.2059 M1427.89 9.54393 L1435.35 9.54393 L1435.35 18.9825 L1427.89 18.9825 L1427.89 9.54393 Z" fill="#000000" fill-rule="evenodd" fill-opacity="1" /><path clip-path="url(#clip630)" d="M1480.8 49.3643 Q1480.8 41.2625 1477.44 36.8065 Q1474.11 32.3505 1468.08 32.3505 Q1462.08 32.3505 1458.72 36.8065 Q1455.4 41.2625 1455.4 49.3643 Q1455.4 57.4256 1458.72 61.8816 Q1462.08 66.3376 1468.08 66.3376 Q1474.11 66.3376 1477.44 61.8816 Q1480.8 57.4256 1480.8 49.3643 M1488.25 66.9452 Q1488.25 78.5308 1483.11 84.1616 Q1477.96 89.8329 1467.35 89.8329 Q1463.42 89.8329 1459.94 89.2252 Q1456.45 88.6581 1453.17 87.4428 L1453.17 80.1917 Q1456.45 81.9741 1459.65 82.8248 Q1462.85 83.6755 1466.17 83.6755 Q1473.51 83.6755 1477.15 79.8271 Q1480.8 76.0193 1480.8 68.282 L1480.8 64.5957 Q1478.49 68.6061 1474.88 70.5911 Q1471.28 72.576 1466.26 72.576 Q1457.91 72.576 1452.81 66.2161 Q1447.7 59.8562 1447.7 49.3643 Q1447.7 38.832 1452.81 32.472 Q1457.91 26.1121 1466.26 26.1121 Q1471.28 26.1121 1474.88 28.0971 Q1478.49 30.082 1480.8 34.0924 L1480.8 27.2059 L1488.25 27.2059 L1488.25 66.9452 Z" fill="#000000" fill-rule="evenodd" fill-opacity="1" /><path clip-path="url(#clip630)" d="M1541.32 45.1919 L1541.32 72.576 L1533.86 72.576 L1533.86 45.4349 Q1533.86 38.994 1531.35 35.7938 Q1528.84 32.5936 1523.82 32.5936 Q1517.78 32.5936 1514.3 36.4419 Q1510.82 40.2903 1510.82 46.9338 L1510.82 72.576 L1503.32 72.576 L1503.32 27.2059 L1510.82 27.2059 L1510.82 34.2544 Q1513.49 30.163 1517.09 28.1376 Q1520.74 26.1121 1525.48 26.1121 Q1533.3 26.1121 1537.31 30.9732 Q1541.32 35.7938 1541.32 45.1919 Z" fill="#000000" fill-rule="evenodd" fill-opacity="1" /><path clip-path="url(#clip630)" d="M1591.51 35.9153 Q1594.3 30.8922 1598.19 28.5022 Q1602.08 26.1121 1607.35 26.1121 Q1614.44 26.1121 1618.29 31.0947 Q1622.13 36.0368 1622.13 45.1919 L1622.13 72.576 L1614.64 72.576 L1614.64 45.4349 Q1614.64 38.913 1612.33 35.7533 Q1610.02 32.5936 1605.28 32.5936 Q1599.49 32.5936 1596.13 36.4419 Q1592.76 40.2903 1592.76 46.9338 L1592.76 72.576 L1585.27 72.576 L1585.27 45.4349 Q1585.27 38.8725 1582.96 35.7533 Q1580.65 32.5936 1575.83 32.5936 Q1570.12 32.5936 1566.76 36.4824 Q1563.4 40.3308 1563.4 46.9338 L1563.4 72.576 L1555.9 72.576 L1555.9 27.2059 L1563.4 27.2059 L1563.4 34.2544 Q1565.95 30.082 1569.51 28.0971 Q1573.08 26.1121 1577.98 26.1121 Q1582.92 26.1121 1586.36 28.6237 Q1589.85 31.1352 1591.51 35.9153 Z" fill="#000000" fill-rule="evenodd" fill-opacity="1" /><path clip-path="url(#clip630)" d="M1675.81 48.0275 L1675.81 51.6733 L1641.54 51.6733 Q1642.02 59.3701 1646.16 63.421 Q1650.33 67.4314 1657.74 67.4314 Q1662.04 67.4314 1666.05 66.3781 Q1670.1 65.3249 1674.07 63.2184 L1674.07 70.267 Q1670.06 71.9684 1665.84 72.8596 Q1661.63 73.7508 1657.3 73.7508 Q1646.44 73.7508 1640.08 67.4314 Q1633.76 61.1119 1633.76 50.3365 Q1633.76 39.1965 1639.76 32.6746 Q1645.79 26.1121 1656 26.1121 Q1665.15 26.1121 1670.46 32.0264 Q1675.81 37.9003 1675.81 48.0275 M1668.35 45.84 Q1668.27 39.7232 1664.91 36.0774 Q1661.59 32.4315 1656.08 32.4315 Q1649.84 32.4315 1646.07 35.9558 Q1642.35 39.4801 1641.78 45.8805 L1668.35 45.84 Z" fill="#000000" fill-rule="evenodd" fill-opacity="1" /><path clip-path="url(#clip630)" d="M1725.76 45.1919 L1725.76 72.576 L1718.3 72.576 L1718.3 45.4349 Q1718.3 38.994 1715.79 35.7938 Q1713.28 32.5936 1708.26 32.5936 Q1702.22 32.5936 1698.74 36.4419 Q1695.25 40.2903 1695.25 46.9338 L1695.25 72.576 L1687.76 72.576 L1687.76 27.2059 L1695.25 27.2059 L1695.25 34.2544 Q1697.93 30.163 1701.53 28.1376 Q1705.18 26.1121 1709.92 26.1121 Q1717.74 26.1121 1721.75 30.9732 Q1725.76 35.7938 1725.76 45.1919 Z" fill="#000000" fill-rule="evenodd" fill-opacity="1" /><path clip-path="url(#clip630)" d="M1748 14.324 L1748 27.2059 L1763.35 27.2059 L1763.35 32.9987 L1748 32.9987 L1748 57.6282 Q1748 63.1779 1749.49 64.7578 Q1751.03 66.3376 1755.69 66.3376 L1763.35 66.3376 L1763.35 72.576 L1755.69 72.576 Q1747.06 72.576 1743.78 69.3758 Q1740.5 66.1351 1740.5 57.6282 L1740.5 32.9987 L1735.03 32.9987 L1735.03 27.2059 L1740.5 27.2059 L1740.5 14.324 L1748 14.324 Z" fill="#000000" fill-rule="evenodd" fill-opacity="1" /><circle clip-path="url(#clip632)" cx="322.515" cy="166.535" r="14" fill="#0000ff" fill-rule="evenodd" fill-opacity="1" stroke="#000000" stroke-opacity="1" stroke-width="3.2"/>
<circle clip-path="url(#clip632)" cx="290.15" cy="334.303" r="14" fill="#0000ff" fill-rule="evenodd" fill-opacity="1" stroke="#000000" stroke-opacity="1" stroke-width="3.2"/>
<circle clip-path="url(#clip632)" cx="297.905" cy="577.045" r="14" fill="#0000ff" fill-rule="evenodd" fill-opacity="1" stroke="#000000" stroke-opacity="1" stroke-width="3.2"/>
<circle clip-path="url(#clip632)" cx="271.931" cy="567.779" r="14" fill="#0000ff" fill-rule="evenodd" fill-opacity="1" stroke="#000000" stroke-opacity="1" stroke-width="3.2"/>
<circle clip-path="url(#clip632)" cx="291.734" cy="1386.4" r="14" fill="#0000ff" fill-rule="evenodd" fill-opacity="1" stroke="#000000" stroke-opacity="1" stroke-width="3.2"/>
<circle clip-path="url(#clip632)" cx="876.298" cy="319.732" r="14" fill="#0000ff" fill-rule="evenodd" fill-opacity="1" stroke="#000000" stroke-opacity="1" stroke-width="3.2"/>
<circle clip-path="url(#clip632)" cx="898.238" cy="163.788" r="14" fill="#0000ff" fill-rule="evenodd" fill-opacity="1" stroke="#000000" stroke-opacity="1" stroke-width="3.2"/>
<circle clip-path="url(#clip632)" cx="939.886" cy="565.401" r="14" fill="#0000ff" fill-rule="evenodd" fill-opacity="1" stroke="#000000" stroke-opacity="1" stroke-width="3.2"/>
<circle clip-path="url(#clip632)" cx="911.458" cy="563.544" r="14" fill="#0000ff" fill-rule="evenodd" fill-opacity="1" stroke="#000000" stroke-opacity="1" stroke-width="3.2"/>
<circle clip-path="url(#clip632)" cx="963.592" cy="564.395" r="14" fill="#0000ff" fill-rule="evenodd" fill-opacity="1" stroke="#000000" stroke-opacity="1" stroke-width="3.2"/>
<circle clip-path="url(#clip632)" cx="1638.37" cy="325.356" r="14" fill="#0000ff" fill-rule="evenodd" fill-opacity="1" stroke="#000000" stroke-opacity="1" stroke-width="3.2"/>
<circle clip-path="url(#clip632)" cx="1628.05" cy="166.509" r="14" fill="#0000ff" fill-rule="evenodd" fill-opacity="1" stroke="#000000" stroke-opacity="1" stroke-width="3.2"/>
<circle clip-path="url(#clip632)" cx="1551.08" cy="813.36" r="14" fill="#0000ff" fill-rule="evenodd" fill-opacity="1" stroke="#000000" stroke-opacity="1" stroke-width="3.2"/>
<circle clip-path="url(#clip632)" cx="1582.8" cy="818.908" r="14" fill="#0000ff" fill-rule="evenodd" fill-opacity="1" stroke="#000000" stroke-opacity="1" stroke-width="3.2"/>
<circle clip-path="url(#clip632)" cx="1629.32" cy="975.208" r="14" fill="#0000ff" fill-rule="evenodd" fill-opacity="1" stroke="#000000" stroke-opacity="1" stroke-width="3.2"/>
<circle clip-path="url(#clip632)" cx="2292.15" cy="173.049" r="14" fill="#0000ff" fill-rule="evenodd" fill-opacity="1" stroke="#000000" stroke-opacity="1" stroke-width="3.2"/>
<circle clip-path="url(#clip632)" cx="2291.69" cy="160.256" r="14" fill="#0000ff" fill-rule="evenodd" fill-opacity="1" stroke="#000000" stroke-opacity="1" stroke-width="3.2"/>
<circle clip-path="url(#clip632)" cx="2187.26" cy="571.839" r="14" fill="#0000ff" fill-rule="evenodd" fill-opacity="1" stroke="#000000" stroke-opacity="1" stroke-width="3.2"/>
<circle clip-path="url(#clip632)" cx="2210.21" cy="575.37" r="14" fill="#0000ff" fill-rule="evenodd" fill-opacity="1" stroke="#000000" stroke-opacity="1" stroke-width="3.2"/>
<circle clip-path="url(#clip632)" cx="2221.87" cy="1377.39" r="14" fill="#0000ff" fill-rule="evenodd" fill-opacity="1" stroke="#000000" stroke-opacity="1" stroke-width="3.2"/>
<polyline clip-path="url(#clip632)" style="stroke:#008000; stroke-linecap:butt; stroke-linejoin:round; stroke-width:4; stroke-opacity:1; fill:none" points="
  287.261,603.562 936.152,441.147 1585.04,619.804 2233.93,571.079 
  "/>
<path clip-path="url(#clip630)" d="
M1405.59 1379.86 L2281.37 1379.86 L2281.37 1276.18 L1405.59 1276.18  Z
  " fill="#ffffff" fill-rule="evenodd" fill-opacity="1"/>
<polyline clip-path="url(#clip630)" style="stroke:#000000; stroke-linecap:butt; stroke-linejoin:round; stroke-width:4; stroke-opacity:1; fill:none" points="
  1405.59,1379.86 2281.37,1379.86 2281.37,1276.18 1405.59,1276.18 1405.59,1379.86 
  "/>
<polyline clip-path="url(#clip630)" style="stroke:#008000; stroke-linecap:butt; stroke-linejoin:round; stroke-width:4; stroke-opacity:1; fill:none" points="
  1429.39,1328.02 1572.15,1328.02 
  "/>
<path clip-path="url(#clip630)" d="M1611.78 1315.34 L1605.43 1332.54 L1618.14 1332.54 L1611.78 1315.34 M1609.14 1310.74 L1614.44 1310.74 L1627.61 1345.3 L1622.75 1345.3 L1619.6 1336.43 L1604.02 1336.43 L1600.87 1345.3 L1595.94 1345.3 L1609.14 1310.74 Z" fill="#000000" fill-rule="evenodd" fill-opacity="1" /><path clip-path="url(#clip630)" d="M1626.64 1319.37 L1631.15 1319.37 L1639.25 1341.13 L1647.36 1319.37 L1651.87 1319.37 L1642.15 1345.3 L1636.36 1345.3 L1626.64 1319.37 Z" fill="#000000" fill-rule="evenodd" fill-opacity="1" /><path clip-path="url(#clip630)" d="M1679.92 1331.27 L1679.92 1333.35 L1660.34 1333.35 Q1660.62 1337.75 1662.98 1340.06 Q1665.36 1342.36 1669.6 1342.36 Q1672.05 1342.36 1674.35 1341.75 Q1676.66 1341.15 1678.93 1339.95 L1678.93 1343.98 Q1676.64 1344.95 1674.23 1345.46 Q1671.82 1345.97 1669.35 1345.97 Q1663.14 1345.97 1659.51 1342.36 Q1655.9 1338.75 1655.9 1332.59 Q1655.9 1326.22 1659.32 1322.5 Q1662.77 1318.75 1668.61 1318.75 Q1673.84 1318.75 1676.87 1322.13 Q1679.92 1325.48 1679.92 1331.27 M1675.67 1330.02 Q1675.62 1326.52 1673.7 1324.44 Q1671.8 1322.36 1668.65 1322.36 Q1665.09 1322.36 1662.93 1324.37 Q1660.8 1326.38 1660.48 1330.04 L1675.67 1330.02 Z" fill="#000000" fill-rule="evenodd" fill-opacity="1" /><path clip-path="url(#clip630)" d="M1701.94 1323.35 Q1701.22 1322.94 1700.36 1322.75 Q1699.53 1322.54 1698.51 1322.54 Q1694.9 1322.54 1692.96 1324.9 Q1691.04 1327.24 1691.04 1331.64 L1691.04 1345.3 L1686.75 1345.3 L1686.75 1319.37 L1691.04 1319.37 L1691.04 1323.4 Q1692.38 1321.04 1694.53 1319.9 Q1696.68 1318.75 1699.76 1318.75 Q1700.2 1318.75 1700.73 1318.81 Q1701.27 1318.86 1701.92 1318.98 L1701.94 1323.35 Z" fill="#000000" fill-rule="evenodd" fill-opacity="1" /><path clip-path="url(#clip630)" d="M1718.19 1332.26 Q1713.03 1332.26 1711.04 1333.44 Q1709.04 1334.63 1709.04 1337.47 Q1709.04 1339.74 1710.53 1341.08 Q1712.03 1342.4 1714.6 1342.4 Q1718.14 1342.4 1720.27 1339.9 Q1722.42 1337.38 1722.42 1333.21 L1722.42 1332.26 L1718.19 1332.26 M1726.68 1330.5 L1726.68 1345.3 L1722.42 1345.3 L1722.42 1341.36 Q1720.97 1343.72 1718.79 1344.86 Q1716.61 1345.97 1713.47 1345.97 Q1709.48 1345.97 1707.12 1343.75 Q1704.79 1341.5 1704.79 1337.75 Q1704.79 1333.38 1707.7 1331.15 Q1710.64 1328.93 1716.45 1328.93 L1722.42 1328.93 L1722.42 1328.51 Q1722.42 1325.57 1720.48 1323.98 Q1718.56 1322.36 1715.06 1322.36 Q1712.84 1322.36 1710.73 1322.89 Q1708.63 1323.42 1706.68 1324.49 L1706.68 1320.55 Q1709.02 1319.65 1711.22 1319.21 Q1713.42 1318.75 1715.5 1318.75 Q1721.13 1318.75 1723.91 1321.66 Q1726.68 1324.58 1726.68 1330.5 Z" fill="#000000" fill-rule="evenodd" fill-opacity="1" /><path clip-path="url(#clip630)" d="M1752.52 1332.03 Q1752.52 1327.4 1750.6 1324.86 Q1748.7 1322.31 1745.25 1322.31 Q1741.82 1322.31 1739.9 1324.86 Q1738 1327.4 1738 1332.03 Q1738 1336.64 1739.9 1339.19 Q1741.82 1341.73 1745.25 1341.73 Q1748.7 1341.73 1750.6 1339.19 Q1752.52 1336.64 1752.52 1332.03 M1756.78 1342.08 Q1756.78 1348.7 1753.84 1351.92 Q1750.9 1355.16 1744.83 1355.16 Q1742.59 1355.16 1740.6 1354.81 Q1738.6 1354.49 1736.73 1353.79 L1736.73 1349.65 Q1738.6 1350.67 1740.43 1351.15 Q1742.26 1351.64 1744.16 1351.64 Q1748.35 1351.64 1750.43 1349.44 Q1752.52 1347.26 1752.52 1342.84 L1752.52 1340.74 Q1751.2 1343.03 1749.14 1344.16 Q1747.08 1345.3 1744.21 1345.3 Q1739.44 1345.3 1736.52 1341.66 Q1733.6 1338.03 1733.6 1332.03 Q1733.6 1326.01 1736.52 1322.38 Q1739.44 1318.75 1744.21 1318.75 Q1747.08 1318.75 1749.14 1319.88 Q1751.2 1321.01 1752.52 1323.31 L1752.52 1319.37 L1756.78 1319.37 L1756.78 1342.08 Z" fill="#000000" fill-rule="evenodd" fill-opacity="1" /><path clip-path="url(#clip630)" d="M1787.73 1331.27 L1787.73 1333.35 L1768.14 1333.35 Q1768.42 1337.75 1770.78 1340.06 Q1773.16 1342.36 1777.4 1342.36 Q1779.85 1342.36 1782.15 1341.75 Q1784.46 1341.15 1786.73 1339.95 L1786.73 1343.98 Q1784.44 1344.95 1782.03 1345.46 Q1779.62 1345.97 1777.15 1345.97 Q1770.94 1345.97 1767.31 1342.36 Q1763.7 1338.75 1763.7 1332.59 Q1763.7 1326.22 1767.12 1322.5 Q1770.57 1318.75 1776.41 1318.75 Q1781.64 1318.75 1784.67 1322.13 Q1787.73 1325.48 1787.73 1331.27 M1783.47 1330.02 Q1783.42 1326.52 1781.5 1324.44 Q1779.6 1322.36 1776.45 1322.36 Q1772.89 1322.36 1770.73 1324.37 Q1768.6 1326.38 1768.28 1330.04 L1783.47 1330.02 Z" fill="#000000" fill-rule="evenodd" fill-opacity="1" /><path clip-path="url(#clip630)" d="M1826.85 1332.03 Q1826.85 1327.4 1824.92 1324.86 Q1823.03 1322.31 1819.58 1322.31 Q1816.15 1322.31 1814.23 1324.86 Q1812.33 1327.4 1812.33 1332.03 Q1812.33 1336.64 1814.23 1339.19 Q1816.15 1341.73 1819.58 1341.73 Q1823.03 1341.73 1824.92 1339.19 Q1826.85 1336.64 1826.85 1332.03 M1831.1 1342.08 Q1831.1 1348.7 1828.16 1351.92 Q1825.22 1355.16 1819.16 1355.16 Q1816.91 1355.16 1814.92 1354.81 Q1812.93 1354.49 1811.06 1353.79 L1811.06 1349.65 Q1812.93 1350.67 1814.76 1351.15 Q1816.59 1351.64 1818.49 1351.64 Q1822.68 1351.64 1824.76 1349.44 Q1826.85 1347.26 1826.85 1342.84 L1826.85 1340.74 Q1825.53 1343.03 1823.47 1344.16 Q1821.41 1345.3 1818.54 1345.3 Q1813.77 1345.3 1810.85 1341.66 Q1807.93 1338.03 1807.93 1332.03 Q1807.93 1326.01 1810.85 1322.38 Q1813.77 1318.75 1818.54 1318.75 Q1821.41 1318.75 1823.47 1319.88 Q1825.53 1321.01 1826.85 1323.31 L1826.85 1319.37 L1831.1 1319.37 L1831.1 1342.08 Z" fill="#000000" fill-rule="evenodd" fill-opacity="1" /><path clip-path="url(#clip630)" d="M1854.9 1323.35 Q1854.18 1322.94 1853.33 1322.75 Q1852.49 1322.54 1851.47 1322.54 Q1847.86 1322.54 1845.92 1324.9 Q1844 1327.24 1844 1331.64 L1844 1345.3 L1839.72 1345.3 L1839.72 1319.37 L1844 1319.37 L1844 1323.4 Q1845.34 1321.04 1847.49 1319.9 Q1849.65 1318.75 1852.72 1318.75 Q1853.16 1318.75 1853.7 1318.81 Q1854.23 1318.86 1854.88 1318.98 L1854.9 1323.35 Z" fill="#000000" fill-rule="evenodd" fill-opacity="1" /><path clip-path="url(#clip630)" d="M1871.15 1332.26 Q1865.99 1332.26 1864 1333.44 Q1862.01 1334.63 1862.01 1337.47 Q1862.01 1339.74 1863.49 1341.08 Q1864.99 1342.4 1867.56 1342.4 Q1871.1 1342.4 1873.23 1339.9 Q1875.39 1337.38 1875.39 1333.21 L1875.39 1332.26 L1871.15 1332.26 M1879.65 1330.5 L1879.65 1345.3 L1875.39 1345.3 L1875.39 1341.36 Q1873.93 1343.72 1871.75 1344.86 Q1869.58 1345.97 1866.43 1345.97 Q1862.45 1345.97 1860.09 1343.75 Q1857.75 1341.5 1857.75 1337.75 Q1857.75 1333.38 1860.66 1331.15 Q1863.6 1328.93 1869.41 1328.93 L1875.39 1328.93 L1875.39 1328.51 Q1875.39 1325.57 1873.44 1323.98 Q1871.52 1322.36 1868.03 1322.36 Q1865.8 1322.36 1863.7 1322.89 Q1861.59 1323.42 1859.65 1324.49 L1859.65 1320.55 Q1861.98 1319.65 1864.18 1319.21 Q1866.38 1318.75 1868.47 1318.75 Q1874.09 1318.75 1876.87 1321.66 Q1879.65 1324.58 1879.65 1330.5 Z" fill="#000000" fill-rule="evenodd" fill-opacity="1" /><path clip-path="url(#clip630)" d="M1905.48 1323.31 L1905.48 1309.28 L1909.74 1309.28 L1909.74 1345.3 L1905.48 1345.3 L1905.48 1341.41 Q1904.14 1343.72 1902.08 1344.86 Q1900.04 1345.97 1897.17 1345.97 Q1892.47 1345.97 1889.51 1342.22 Q1886.57 1338.47 1886.57 1332.36 Q1886.57 1326.25 1889.51 1322.5 Q1892.47 1318.75 1897.17 1318.75 Q1900.04 1318.75 1902.08 1319.88 Q1904.14 1320.99 1905.48 1323.31 M1890.97 1332.36 Q1890.97 1337.06 1892.89 1339.74 Q1894.83 1342.4 1898.21 1342.4 Q1901.59 1342.4 1903.53 1339.74 Q1905.48 1337.06 1905.48 1332.36 Q1905.48 1327.66 1903.53 1325 Q1901.59 1322.31 1898.21 1322.31 Q1894.83 1322.31 1892.89 1325 Q1890.97 1327.66 1890.97 1332.36 Z" fill="#000000" fill-rule="evenodd" fill-opacity="1" /><path clip-path="url(#clip630)" d="M1940.69 1331.27 L1940.69 1333.35 L1921.1 1333.35 Q1921.38 1337.75 1923.74 1340.06 Q1926.13 1342.36 1930.36 1342.36 Q1932.82 1342.36 1935.11 1341.75 Q1937.42 1341.15 1939.69 1339.95 L1939.69 1343.98 Q1937.4 1344.95 1934.99 1345.46 Q1932.59 1345.97 1930.11 1345.97 Q1923.9 1345.97 1920.27 1342.36 Q1916.66 1338.75 1916.66 1332.59 Q1916.66 1326.22 1920.09 1322.5 Q1923.53 1318.75 1929.37 1318.75 Q1934.6 1318.75 1937.63 1322.13 Q1940.69 1325.48 1940.69 1331.27 M1936.43 1330.02 Q1936.38 1326.52 1934.46 1324.44 Q1932.56 1322.36 1929.41 1322.36 Q1925.85 1322.36 1923.7 1324.37 Q1921.57 1326.38 1921.24 1330.04 L1936.43 1330.02 Z" fill="#000000" fill-rule="evenodd" fill-opacity="1" /><path clip-path="url(#clip630)" d="M1955.25 1310.74 L1959.18 1310.74 L1947.15 1349.69 L1943.21 1349.69 L1955.25 1310.74 Z" fill="#000000" fill-rule="evenodd" fill-opacity="1" /><path clip-path="url(#clip630)" d="M1975.43 1332.26 Q1970.27 1332.26 1968.28 1333.44 Q1966.29 1334.63 1966.29 1337.47 Q1966.29 1339.74 1967.77 1341.08 Q1969.28 1342.4 1971.84 1342.4 Q1975.39 1342.4 1977.52 1339.9 Q1979.67 1337.38 1979.67 1333.21 L1979.67 1332.26 L1975.43 1332.26 M1983.93 1330.5 L1983.93 1345.3 L1979.67 1345.3 L1979.67 1341.36 Q1978.21 1343.72 1976.03 1344.86 Q1973.86 1345.97 1970.71 1345.97 Q1966.73 1345.97 1964.37 1343.75 Q1962.03 1341.5 1962.03 1337.75 Q1962.03 1333.38 1964.95 1331.15 Q1967.89 1328.93 1973.7 1328.93 L1979.67 1328.93 L1979.67 1328.51 Q1979.67 1325.57 1977.72 1323.98 Q1975.8 1322.36 1972.31 1322.36 Q1970.09 1322.36 1967.98 1322.89 Q1965.87 1323.42 1963.93 1324.49 L1963.93 1320.55 Q1966.27 1319.65 1968.46 1319.21 Q1970.66 1318.75 1972.75 1318.75 Q1978.37 1318.75 1981.15 1321.66 Q1983.93 1324.58 1983.93 1330.5 Z" fill="#000000" fill-rule="evenodd" fill-opacity="1" /><path clip-path="url(#clip630)" d="M2009.23 1320.13 L2009.23 1324.16 Q2007.42 1323.24 2005.48 1322.77 Q2003.53 1322.31 2001.45 1322.31 Q1998.28 1322.31 1996.68 1323.28 Q1995.11 1324.25 1995.11 1326.2 Q1995.11 1327.68 1996.24 1328.54 Q1997.38 1329.37 2000.8 1330.13 L2002.26 1330.46 Q2006.8 1331.43 2008.7 1333.21 Q2010.62 1334.97 2010.62 1338.14 Q2010.62 1341.75 2007.75 1343.86 Q2004.9 1345.97 1999.9 1345.97 Q1997.82 1345.97 1995.55 1345.55 Q1993.3 1345.16 1990.8 1344.35 L1990.8 1339.95 Q1993.16 1341.18 1995.46 1341.8 Q1997.75 1342.4 1999.99 1342.4 Q2003 1342.4 2004.62 1341.38 Q2006.24 1340.34 2006.24 1338.47 Q2006.24 1336.73 2005.06 1335.81 Q2003.9 1334.88 1999.95 1334.02 L1998.46 1333.68 Q1994.51 1332.84 1992.75 1331.13 Q1990.99 1329.39 1990.99 1326.38 Q1990.99 1322.73 1993.58 1320.74 Q1996.17 1318.75 2000.94 1318.75 Q2003.3 1318.75 2005.39 1319.09 Q2007.47 1319.44 2009.23 1320.13 Z" fill="#000000" fill-rule="evenodd" fill-opacity="1" /><path clip-path="url(#clip630)" d="M2033.93 1320.13 L2033.93 1324.16 Q2032.12 1323.24 2030.18 1322.77 Q2028.23 1322.31 2026.15 1322.31 Q2022.98 1322.31 2021.38 1323.28 Q2019.81 1324.25 2019.81 1326.2 Q2019.81 1327.68 2020.94 1328.54 Q2022.08 1329.37 2025.5 1330.13 L2026.96 1330.46 Q2031.5 1331.43 2033.4 1333.21 Q2035.32 1334.97 2035.32 1338.14 Q2035.32 1341.75 2032.45 1343.86 Q2029.6 1345.97 2024.6 1345.97 Q2022.52 1345.97 2020.25 1345.55 Q2018 1345.16 2015.5 1344.35 L2015.5 1339.95 Q2017.86 1341.18 2020.15 1341.8 Q2022.45 1342.4 2024.69 1342.4 Q2027.7 1342.4 2029.32 1341.38 Q2030.94 1340.34 2030.94 1338.47 Q2030.94 1336.73 2029.76 1335.81 Q2028.6 1334.88 2024.65 1334.02 L2023.16 1333.68 Q2019.21 1332.84 2017.45 1331.13 Q2015.69 1329.39 2015.69 1326.38 Q2015.69 1322.73 2018.28 1320.74 Q2020.87 1318.75 2025.64 1318.75 Q2028 1318.75 2030.08 1319.09 Q2032.17 1319.44 2033.93 1320.13 Z" fill="#000000" fill-rule="evenodd" fill-opacity="1" /><path clip-path="url(#clip630)" d="M2042.1 1319.37 L2046.36 1319.37 L2046.36 1345.3 L2042.1 1345.3 L2042.1 1319.37 M2042.1 1309.28 L2046.36 1309.28 L2046.36 1314.67 L2042.1 1314.67 L2042.1 1309.28 Z" fill="#000000" fill-rule="evenodd" fill-opacity="1" /><path clip-path="url(#clip630)" d="M2072.33 1332.03 Q2072.33 1327.4 2070.41 1324.86 Q2068.51 1322.31 2065.06 1322.31 Q2061.64 1322.31 2059.71 1324.86 Q2057.82 1327.4 2057.82 1332.03 Q2057.82 1336.64 2059.71 1339.19 Q2061.64 1341.73 2065.06 1341.73 Q2068.51 1341.73 2070.41 1339.19 Q2072.33 1336.64 2072.33 1332.03 M2076.59 1342.08 Q2076.59 1348.7 2073.65 1351.92 Q2070.71 1355.16 2064.64 1355.16 Q2062.4 1355.16 2060.41 1354.81 Q2058.42 1354.49 2056.54 1353.79 L2056.54 1349.65 Q2058.42 1350.67 2060.25 1351.15 Q2062.08 1351.64 2063.97 1351.64 Q2068.16 1351.64 2070.25 1349.44 Q2072.33 1347.26 2072.33 1342.84 L2072.33 1340.74 Q2071.01 1343.03 2068.95 1344.16 Q2066.89 1345.3 2064.02 1345.3 Q2059.25 1345.3 2056.33 1341.66 Q2053.42 1338.03 2053.42 1332.03 Q2053.42 1326.01 2056.33 1322.38 Q2059.25 1318.75 2064.02 1318.75 Q2066.89 1318.75 2068.95 1319.88 Q2071.01 1321.01 2072.33 1323.31 L2072.33 1319.37 L2076.59 1319.37 L2076.59 1342.08 Z" fill="#000000" fill-rule="evenodd" fill-opacity="1" /><path clip-path="url(#clip630)" d="M2106.91 1329.65 L2106.91 1345.3 L2102.65 1345.3 L2102.65 1329.79 Q2102.65 1326.11 2101.22 1324.28 Q2099.78 1322.45 2096.91 1322.45 Q2093.46 1322.45 2091.47 1324.65 Q2089.48 1326.85 2089.48 1330.64 L2089.48 1345.3 L2085.2 1345.3 L2085.2 1319.37 L2089.48 1319.37 L2089.48 1323.4 Q2091.01 1321.06 2093.07 1319.9 Q2095.15 1318.75 2097.86 1318.75 Q2102.33 1318.75 2104.62 1321.52 Q2106.91 1324.28 2106.91 1329.65 Z" fill="#000000" fill-rule="evenodd" fill-opacity="1" /><path clip-path="url(#clip630)" d="M2135.59 1324.35 Q2137.19 1321.48 2139.41 1320.11 Q2141.64 1318.75 2144.64 1318.75 Q2148.7 1318.75 2150.89 1321.59 Q2153.09 1324.42 2153.09 1329.65 L2153.09 1345.3 L2148.81 1345.3 L2148.81 1329.79 Q2148.81 1326.06 2147.49 1324.25 Q2146.17 1322.45 2143.46 1322.45 Q2140.15 1322.45 2138.23 1324.65 Q2136.31 1326.85 2136.31 1330.64 L2136.31 1345.3 L2132.03 1345.3 L2132.03 1329.79 Q2132.03 1326.04 2130.71 1324.25 Q2129.39 1322.45 2126.64 1322.45 Q2123.37 1322.45 2121.45 1324.67 Q2119.53 1326.87 2119.53 1330.64 L2119.53 1345.3 L2115.25 1345.3 L2115.25 1319.37 L2119.53 1319.37 L2119.53 1323.4 Q2120.99 1321.01 2123.02 1319.88 Q2125.06 1318.75 2127.86 1318.75 Q2130.69 1318.75 2132.65 1320.18 Q2134.64 1321.62 2135.59 1324.35 Z" fill="#000000" fill-rule="evenodd" fill-opacity="1" /><path clip-path="url(#clip630)" d="M2183.76 1331.27 L2183.76 1333.35 L2164.18 1333.35 Q2164.46 1337.75 2166.82 1340.06 Q2169.2 1342.36 2173.44 1342.36 Q2175.89 1342.36 2178.19 1341.75 Q2180.5 1341.15 2182.77 1339.95 L2182.77 1343.98 Q2180.48 1344.95 2178.07 1345.46 Q2175.66 1345.97 2173.19 1345.97 Q2166.98 1345.97 2163.35 1342.36 Q2159.74 1338.75 2159.74 1332.59 Q2159.74 1326.22 2163.16 1322.5 Q2166.61 1318.75 2172.45 1318.75 Q2177.68 1318.75 2180.71 1322.13 Q2183.76 1325.48 2183.76 1331.27 M2179.51 1330.02 Q2179.46 1326.52 2177.54 1324.44 Q2175.64 1322.36 2172.49 1322.36 Q2168.93 1322.36 2166.77 1324.37 Q2164.64 1326.38 2164.32 1330.04 L2179.51 1330.02 Z" fill="#000000" fill-rule="evenodd" fill-opacity="1" /><path clip-path="url(#clip630)" d="M2212.31 1329.65 L2212.31 1345.3 L2208.05 1345.3 L2208.05 1329.79 Q2208.05 1326.11 2206.61 1324.28 Q2205.18 1322.45 2202.31 1322.45 Q2198.86 1322.45 2196.87 1324.65 Q2194.88 1326.85 2194.88 1330.64 L2194.88 1345.3 L2190.59 1345.3 L2190.59 1319.37 L2194.88 1319.37 L2194.88 1323.4 Q2196.4 1321.06 2198.46 1319.9 Q2200.55 1318.75 2203.26 1318.75 Q2207.72 1318.75 2210.01 1321.52 Q2212.31 1324.28 2212.31 1329.65 Z" fill="#000000" fill-rule="evenodd" fill-opacity="1" /><path clip-path="url(#clip630)" d="M2225.01 1312.01 L2225.01 1319.37 L2233.79 1319.37 L2233.79 1322.68 L2225.01 1322.68 L2225.01 1336.75 Q2225.01 1339.93 2225.87 1340.83 Q2226.75 1341.73 2229.41 1341.73 L2233.79 1341.73 L2233.79 1345.3 L2229.41 1345.3 Q2224.48 1345.3 2222.61 1343.47 Q2220.73 1341.62 2220.73 1336.75 L2220.73 1322.68 L2217.61 1322.68 L2217.61 1319.37 L2220.73 1319.37 L2220.73 1312.01 L2225.01 1312.01 Z" fill="#000000" fill-rule="evenodd" fill-opacity="1" /></svg>
