<?xml version="1.0" encoding="utf-8"?>
<svg xmlns="http://www.w3.org/2000/svg" xmlns:xlink="http://www.w3.org/1999/xlink" width="600" height="400" viewBox="0 0 2400 1600">
<defs>
  <clipPath id="clip540">
    <rect x="0" y="0" width="2400" height="1600"/>
  </clipPath>
</defs>
<path clip-path="url(#clip540)" d="
M0 1600 L2400 1600 L2400 0 L0 0  Z
  " fill="#ffffff" fill-rule="evenodd" fill-opacity="1"/>
<defs>
  <clipPath id="clip541">
    <rect x="480" y="0" width="1681" height="1600"/>
  </clipPath>
</defs>
<path clip-path="url(#clip540)" d="
M184.191 1474.16 L2352.76 1474.16 L2352.76 47.2441 L184.191 47.2441  Z
  " fill="#ffffff" fill-rule="evenodd" fill-opacity="1"/>
<defs>
  <clipPath id="clip542">
    <rect x="184" y="47" width="2170" height="1428"/>
  </clipPath>
</defs>
<polyline clip-path="url(#clip542)" style="stroke:#000000; stroke-linecap:butt; stroke-linejoin:round; stroke-width:2; stroke-opacity:0.1; fill:none" points="
  245.565,1474.16 245.565,47.2441 
  "/>
<polyline clip-path="url(#clip542)" style="stroke:#000000; stroke-linecap:butt; stroke-linejoin:round; stroke-width:2; stroke-opacity:0.1; fill:none" points="
  757.531,1474.16 757.531,47.2441 
  "/>
<polyline clip-path="url(#clip542)" style="stroke:#000000; stroke-linecap:butt; stroke-linejoin:round; stroke-width:2; stroke-opacity:0.1; fill:none" points="
  1269.5,1474.16 1269.5,47.2441 
  "/>
<polyline clip-path="url(#clip542)" style="stroke:#000000; stroke-linecap:butt; stroke-linejoin:round; stroke-width:2; stroke-opacity:0.1; fill:none" points="
  1781.46,1474.16 1781.46,47.2441 
  "/>
<polyline clip-path="url(#clip542)" style="stroke:#000000; stroke-linecap:butt; stroke-linejoin:round; stroke-width:2; stroke-opacity:0.1; fill:none" points="
  2293.43,1474.16 2293.43,47.2441 
  "/>
<polyline clip-path="url(#clip540)" style="stroke:#000000; stroke-linecap:butt; stroke-linejoin:round; stroke-width:4; stroke-opacity:1; fill:none" points="
  184.191,1474.16 2352.76,1474.16 
  "/>
<polyline clip-path="url(#clip540)" style="stroke:#000000; stroke-linecap:butt; stroke-linejoin:round; stroke-width:4; stroke-opacity:1; fill:none" points="
  245.565,1474.16 245.565,1455.27 
  "/>
<polyline clip-path="url(#clip540)" style="stroke:#000000; stroke-linecap:butt; stroke-linejoin:round; stroke-width:4; stroke-opacity:1; fill:none" points="
  757.531,1474.16 757.531,1455.27 
  "/>
<polyline clip-path="url(#clip540)" style="stroke:#000000; stroke-linecap:butt; stroke-linejoin:round; stroke-width:4; stroke-opacity:1; fill:none" points="
  1269.5,1474.16 1269.5,1455.27 
  "/>
<polyline clip-path="url(#clip540)" style="stroke:#000000; stroke-linecap:butt; stroke-linejoin:round; stroke-width:4; stroke-opacity:1; fill:none" points="
  1781.46,1474.16 1781.46,1455.27 
  "/>
<polyline clip-path="url(#clip540)" style="stroke:#000000; stroke-linecap:butt; stroke-linejoin:round; stroke-width:4; stroke-opacity:1; fill:none" points="
  2293.43,1474.16 2293.43,1455.27 
  "/>
<path clip-path="url(#clip540)" d="M245.565 1503.36 Q241.954 1503.36 240.125 1506.92 Q238.32 1510.46 238.32 1517.59 Q238.32 1524.7 240.125 1528.26 Q241.954 1531.8 245.565 1531.8 Q249.199 1531.8 251.005 1528.26 Q252.833 1524.7 252.833 1517.59 Q252.833 1510.46 251.005 1506.92 Q249.199 1503.36 245.565 1503.36 M245.565 1499.65 Q251.375 1499.65 254.431 1504.26 Q257.509 1508.84 257.509 1517.59 Q257.509 1526.32 254.431 1530.92 Q251.375 1535.51 245.565 1535.51 Q239.755 1535.51 236.676 1530.92 Q233.621 1526.32 233.621 1517.59 Q233.621 1508.84 236.676 1504.26 Q239.755 1499.65 245.565 1499.65 Z" fill="#000000" fill-rule="evenodd" fill-opacity="1" /><path clip-path="url(#clip540)" d="M653.97 1552.44 L670.29 1552.44 L670.29 1556.37 L648.345 1556.37 L648.345 1552.44 Q651.007 1549.68 655.591 1545.05 Q660.197 1540.4 661.378 1539.06 Q663.623 1536.53 664.503 1534.8 Q665.405 1533.04 665.405 1531.35 Q665.405 1528.59 663.461 1526.86 Q661.54 1525.12 658.438 1525.12 Q656.239 1525.12 653.785 1525.89 Q651.355 1526.65 648.577 1528.2 L648.577 1523.48 Q651.401 1522.34 653.855 1521.77 Q656.308 1521.19 658.345 1521.19 Q663.716 1521.19 666.91 1523.87 Q670.105 1526.56 670.105 1531.05 Q670.105 1533.18 669.294 1535.1 Q668.507 1537 666.401 1539.59 Q665.822 1540.26 662.72 1543.48 Q659.618 1546.67 653.97 1552.44 Z" fill="#000000" fill-rule="evenodd" fill-opacity="1" /><path clip-path="url(#clip540)" d="M680.104 1550.49 L684.989 1550.49 L684.989 1556.37 L680.104 1556.37 L680.104 1550.49 Z" fill="#000000" fill-rule="evenodd" fill-opacity="1" /><path clip-path="url(#clip540)" d="M695.22 1521.81 L713.577 1521.81 L713.577 1525.75 L699.503 1525.75 L699.503 1534.22 Q700.521 1533.87 701.54 1533.71 Q702.558 1533.52 703.577 1533.52 Q709.364 1533.52 712.743 1536.7 Q716.123 1539.87 716.123 1545.28 Q716.123 1550.86 712.651 1553.96 Q709.178 1557.04 702.859 1557.04 Q700.683 1557.04 698.415 1556.67 Q696.169 1556.3 693.762 1555.56 L693.762 1550.86 Q695.845 1552 698.067 1552.55 Q700.29 1553.11 702.766 1553.11 Q706.771 1553.11 709.109 1551 Q711.447 1548.9 711.447 1545.28 Q711.447 1541.67 709.109 1539.57 Q706.771 1537.46 702.766 1537.46 Q700.891 1537.46 699.016 1537.88 Q697.165 1538.29 695.22 1539.17 L695.22 1521.81 Z" fill="#000000" fill-rule="evenodd" fill-opacity="1" /><path clip-path="url(#clip540)" d="M735.336 1524.89 Q731.725 1524.89 729.896 1528.46 Q728.09 1532 728.09 1539.13 Q728.09 1546.23 729.896 1549.8 Q731.725 1553.34 735.336 1553.34 Q738.97 1553.34 740.775 1549.8 Q742.604 1546.23 742.604 1539.13 Q742.604 1532 740.775 1528.46 Q738.97 1524.89 735.336 1524.89 M735.336 1521.19 Q741.146 1521.19 744.201 1525.79 Q747.28 1530.38 747.28 1539.13 Q747.28 1547.85 744.201 1552.46 Q741.146 1557.04 735.336 1557.04 Q729.525 1557.04 726.447 1552.46 Q723.391 1547.85 723.391 1539.13 Q723.391 1530.38 726.447 1525.79 Q729.525 1521.19 735.336 1521.19 Z" fill="#000000" fill-rule="evenodd" fill-opacity="1" /><path clip-path="url(#clip540)" d="M783.669 1530.91 L773.09 1541.53 L783.669 1552.11 L780.914 1554.91 L770.289 1544.29 L759.664 1554.91 L756.933 1552.11 L767.488 1541.53 L756.933 1530.91 L759.664 1528.11 L770.289 1538.73 L780.914 1528.11 L783.669 1530.91 Z" fill="#000000" fill-rule="evenodd" fill-opacity="1" /><path clip-path="url(#clip540)" d="M796.03 1552.44 L803.669 1552.44 L803.669 1526.07 L795.358 1527.74 L795.358 1523.48 L803.622 1521.81 L808.298 1521.81 L808.298 1552.44 L815.937 1552.44 L815.937 1556.37 L796.03 1556.37 L796.03 1552.44 Z" fill="#000000" fill-rule="evenodd" fill-opacity="1" /><path clip-path="url(#clip540)" d="M835.381 1524.89 Q831.77 1524.89 829.942 1528.46 Q828.136 1532 828.136 1539.13 Q828.136 1546.23 829.942 1549.8 Q831.77 1553.34 835.381 1553.34 Q839.016 1553.34 840.821 1549.8 Q842.65 1546.23 842.65 1539.13 Q842.65 1532 840.821 1528.46 Q839.016 1524.89 835.381 1524.89 M835.381 1521.19 Q841.192 1521.19 844.247 1525.79 Q847.326 1530.38 847.326 1539.13 Q847.326 1547.85 844.247 1552.46 Q841.192 1557.04 835.381 1557.04 Q829.571 1557.04 826.493 1552.46 Q823.437 1547.85 823.437 1539.13 Q823.437 1530.38 826.493 1525.79 Q829.571 1521.19 835.381 1521.19 Z" fill="#000000" fill-rule="evenodd" fill-opacity="1" /><path clip-path="url(#clip540)" d="M857.35 1513.41 Q854.792 1513.41 853.288 1515.16 Q851.802 1516.91 851.802 1519.95 Q851.802 1522.98 853.288 1524.75 Q854.792 1526.5 857.35 1526.5 Q859.908 1526.5 861.394 1524.75 Q862.899 1522.98 862.899 1519.95 Q862.899 1516.91 861.394 1515.16 Q859.908 1513.41 857.35 1513.41 M864.892 1501.5 L864.892 1504.96 Q863.463 1504.29 861.996 1503.93 Q860.548 1503.57 859.118 1503.57 Q855.357 1503.57 853.363 1506.11 Q851.388 1508.65 851.106 1513.78 Q852.216 1512.15 853.89 1511.28 Q855.564 1510.4 857.576 1510.4 Q861.808 1510.4 864.253 1512.97 Q866.717 1515.53 866.717 1519.95 Q866.717 1524.28 864.159 1526.89 Q861.601 1529.51 857.35 1529.51 Q852.479 1529.51 849.902 1525.78 Q847.326 1522.04 847.326 1514.95 Q847.326 1508.29 850.485 1504.34 Q853.645 1500.37 858.968 1500.37 Q860.397 1500.37 861.845 1500.66 Q863.312 1500.94 864.892 1501.5 Z" fill="#000000" fill-rule="evenodd" fill-opacity="1" /><path clip-path="url(#clip540)" d="M1161.86 1521.81 L1180.22 1521.81 L1180.22 1525.75 L1166.14 1525.75 L1166.14 1534.22 Q1167.16 1533.87 1168.18 1533.71 Q1169.2 1533.52 1170.22 1533.52 Q1176.01 1533.52 1179.39 1536.7 Q1182.76 1539.87 1182.76 1545.28 Q1182.76 1550.86 1179.29 1553.96 Q1175.82 1557.04 1169.5 1557.04 Q1167.33 1557.04 1165.06 1556.67 Q1162.81 1556.3 1160.4 1555.56 L1160.4 1550.86 Q1162.49 1552 1164.71 1552.55 Q1166.93 1553.11 1169.41 1553.11 Q1173.41 1553.11 1175.75 1551 Q1178.09 1548.9 1178.09 1545.28 Q1178.09 1541.67 1175.75 1539.57 Q1173.41 1537.46 1169.41 1537.46 Q1167.53 1537.46 1165.66 1537.88 Q1163.81 1538.29 1161.86 1539.17 L1161.86 1521.81 Z" fill="#000000" fill-rule="evenodd" fill-opacity="1" /><path clip-path="url(#clip540)" d="M1191.98 1550.49 L1196.86 1550.49 L1196.86 1556.37 L1191.98 1556.37 L1191.98 1550.49 Z" fill="#000000" fill-rule="evenodd" fill-opacity="1" /><path clip-path="url(#clip540)" d="M1217.05 1524.89 Q1213.44 1524.89 1211.61 1528.46 Q1209.8 1532 1209.8 1539.13 Q1209.8 1546.23 1211.61 1549.8 Q1213.44 1553.34 1217.05 1553.34 Q1220.68 1553.34 1222.49 1549.8 Q1224.32 1546.23 1224.32 1539.13 Q1224.32 1532 1222.49 1528.46 Q1220.68 1524.89 1217.05 1524.89 M1217.05 1521.19 Q1222.86 1521.19 1225.91 1525.79 Q1228.99 1530.38 1228.99 1539.13 Q1228.99 1547.85 1225.91 1552.46 Q1222.86 1557.04 1217.05 1557.04 Q1211.24 1557.04 1208.16 1552.46 Q1205.1 1547.85 1205.1 1539.13 Q1205.1 1530.38 1208.16 1525.79 Q1211.24 1521.19 1217.05 1521.19 Z" fill="#000000" fill-rule="evenodd" fill-opacity="1" /><path clip-path="url(#clip540)" d="M1247.21 1524.89 Q1243.6 1524.89 1241.77 1528.46 Q1239.96 1532 1239.96 1539.13 Q1239.96 1546.23 1241.77 1549.8 Q1243.6 1553.34 1247.21 1553.34 Q1250.84 1553.34 1252.65 1549.8 Q1254.48 1546.23 1254.48 1539.13 Q1254.48 1532 1252.65 1528.46 Q1250.84 1524.89 1247.21 1524.89 M1247.21 1521.19 Q1253.02 1521.19 1256.07 1525.79 Q1259.15 1530.38 1259.15 1539.13 Q1259.15 1547.85 1256.07 1552.46 Q1253.02 1557.04 1247.21 1557.04 Q1241.4 1557.04 1238.32 1552.46 Q1235.26 1547.85 1235.26 1539.13 Q1235.26 1530.38 1238.32 1525.79 Q1241.4 1521.19 1247.21 1521.19 Z" fill="#000000" fill-rule="evenodd" fill-opacity="1" /><path clip-path="url(#clip540)" d="M1295.54 1530.91 L1284.96 1541.53 L1295.54 1552.11 L1292.79 1554.91 L1282.16 1544.29 L1271.54 1554.91 L1268.81 1552.11 L1279.36 1541.53 L1268.81 1530.91 L1271.54 1528.11 L1282.16 1538.73 L1292.79 1528.11 L1295.54 1530.91 Z" fill="#000000" fill-rule="evenodd" fill-opacity="1" /><path clip-path="url(#clip540)" d="M1307.9 1552.44 L1315.54 1552.44 L1315.54 1526.07 L1307.23 1527.74 L1307.23 1523.48 L1315.5 1521.81 L1320.17 1521.81 L1320.17 1552.44 L1327.81 1552.44 L1327.81 1556.37 L1307.9 1556.37 L1307.9 1552.44 Z" fill="#000000" fill-rule="evenodd" fill-opacity="1" /><path clip-path="url(#clip540)" d="M1347.25 1524.89 Q1343.64 1524.89 1341.82 1528.46 Q1340.01 1532 1340.01 1539.13 Q1340.01 1546.23 1341.82 1549.8 Q1343.64 1553.34 1347.25 1553.34 Q1350.89 1553.34 1352.69 1549.8 Q1354.52 1546.23 1354.52 1539.13 Q1354.52 1532 1352.69 1528.46 Q1350.89 1524.89 1347.25 1524.89 M1347.25 1521.19 Q1353.07 1521.19 1356.12 1525.79 Q1359.2 1530.38 1359.2 1539.13 Q1359.2 1547.85 1356.12 1552.46 Q1353.07 1557.04 1347.25 1557.04 Q1341.44 1557.04 1338.37 1552.46 Q1335.31 1547.85 1335.31 1539.13 Q1335.31 1530.38 1338.37 1525.79 Q1341.44 1521.19 1347.25 1521.19 Z" fill="#000000" fill-rule="evenodd" fill-opacity="1" /><path clip-path="url(#clip540)" d="M1369.22 1513.41 Q1366.67 1513.41 1365.16 1515.16 Q1363.68 1516.91 1363.68 1519.95 Q1363.68 1522.98 1365.16 1524.75 Q1366.67 1526.5 1369.22 1526.5 Q1371.78 1526.5 1373.27 1524.75 Q1374.77 1522.98 1374.77 1519.95 Q1374.77 1516.91 1373.27 1515.16 Q1371.78 1513.41 1369.22 1513.41 M1376.77 1501.5 L1376.77 1504.96 Q1375.34 1504.29 1373.87 1503.93 Q1372.42 1503.57 1370.99 1503.57 Q1367.23 1503.57 1365.24 1506.11 Q1363.26 1508.65 1362.98 1513.78 Q1364.09 1512.15 1365.76 1511.28 Q1367.44 1510.4 1369.45 1510.4 Q1373.68 1510.4 1376.13 1512.97 Q1378.59 1515.53 1378.59 1519.95 Q1378.59 1524.28 1376.03 1526.89 Q1373.47 1529.51 1369.22 1529.51 Q1364.35 1529.51 1361.78 1525.78 Q1359.2 1522.04 1359.2 1514.95 Q1359.2 1508.29 1362.36 1504.34 Q1365.52 1500.37 1370.84 1500.37 Q1372.27 1500.37 1373.72 1500.66 Q1375.19 1500.94 1376.77 1501.5 Z" fill="#000000" fill-rule="evenodd" fill-opacity="1" /><path clip-path="url(#clip540)" d="M1672.49 1521.81 L1694.71 1521.81 L1694.71 1523.8 L1682.16 1556.37 L1677.28 1556.37 L1689.08 1525.75 L1672.49 1525.75 L1672.49 1521.81 Z" fill="#000000" fill-rule="evenodd" fill-opacity="1" /><path clip-path="url(#clip540)" d="M1703.83 1550.49 L1708.71 1550.49 L1708.71 1556.37 L1703.83 1556.37 L1703.83 1550.49 Z" fill="#000000" fill-rule="evenodd" fill-opacity="1" /><path clip-path="url(#clip540)" d="M1718.94 1521.81 L1737.3 1521.81 L1737.3 1525.75 L1723.23 1525.75 L1723.23 1534.22 Q1724.24 1533.87 1725.26 1533.71 Q1726.28 1533.52 1727.3 1533.52 Q1733.09 1533.52 1736.47 1536.7 Q1739.85 1539.87 1739.85 1545.28 Q1739.85 1550.86 1736.37 1553.96 Q1732.9 1557.04 1726.58 1557.04 Q1724.41 1557.04 1722.14 1556.67 Q1719.89 1556.3 1717.49 1555.56 L1717.49 1550.86 Q1719.57 1552 1721.79 1552.55 Q1724.01 1553.11 1726.49 1553.11 Q1730.49 1553.11 1732.83 1551 Q1735.17 1548.9 1735.17 1545.28 Q1735.17 1541.67 1732.83 1539.57 Q1730.49 1537.46 1726.49 1537.46 Q1724.62 1537.46 1722.74 1537.88 Q1720.89 1538.29 1718.94 1539.17 L1718.94 1521.81 Z" fill="#000000" fill-rule="evenodd" fill-opacity="1" /><path clip-path="url(#clip540)" d="M1759.06 1524.89 Q1755.45 1524.89 1753.62 1528.46 Q1751.81 1532 1751.81 1539.13 Q1751.81 1546.23 1753.62 1549.8 Q1755.45 1553.34 1759.06 1553.34 Q1762.69 1553.34 1764.5 1549.8 Q1766.33 1546.23 1766.33 1539.13 Q1766.33 1532 1764.5 1528.46 Q1762.69 1524.89 1759.06 1524.89 M1759.06 1521.19 Q1764.87 1521.19 1767.93 1525.79 Q1771 1530.38 1771 1539.13 Q1771 1547.85 1767.93 1552.46 Q1764.87 1557.04 1759.06 1557.04 Q1753.25 1557.04 1750.17 1552.46 Q1747.11 1547.85 1747.11 1539.13 Q1747.11 1530.38 1750.17 1525.79 Q1753.25 1521.19 1759.06 1521.19 Z" fill="#000000" fill-rule="evenodd" fill-opacity="1" /><path clip-path="url(#clip540)" d="M1807.39 1530.91 L1796.81 1541.53 L1807.39 1552.11 L1804.64 1554.91 L1794.01 1544.29 L1783.39 1554.91 L1780.66 1552.11 L1791.21 1541.53 L1780.66 1530.91 L1783.39 1528.11 L1794.01 1538.73 L1804.64 1528.11 L1807.39 1530.91 Z" fill="#000000" fill-rule="evenodd" fill-opacity="1" /><path clip-path="url(#clip540)" d="M1819.75 1552.44 L1827.39 1552.44 L1827.39 1526.07 L1819.08 1527.74 L1819.08 1523.48 L1827.35 1521.81 L1832.02 1521.81 L1832.02 1552.44 L1839.66 1552.44 L1839.66 1556.37 L1819.75 1556.37 L1819.75 1552.44 Z" fill="#000000" fill-rule="evenodd" fill-opacity="1" /><path clip-path="url(#clip540)" d="M1859.11 1524.89 Q1855.49 1524.89 1853.67 1528.46 Q1851.86 1532 1851.86 1539.13 Q1851.86 1546.23 1853.67 1549.8 Q1855.49 1553.34 1859.11 1553.34 Q1862.74 1553.34 1864.54 1549.8 Q1866.37 1546.23 1866.37 1539.13 Q1866.37 1532 1864.54 1528.46 Q1862.74 1524.89 1859.11 1524.89 M1859.11 1521.19 Q1864.92 1521.19 1867.97 1525.79 Q1871.05 1530.38 1871.05 1539.13 Q1871.05 1547.85 1867.97 1552.46 Q1864.92 1557.04 1859.11 1557.04 Q1853.29 1557.04 1850.22 1552.46 Q1847.16 1547.85 1847.16 1539.13 Q1847.16 1530.38 1850.22 1525.79 Q1853.29 1521.19 1859.11 1521.19 Z" fill="#000000" fill-rule="evenodd" fill-opacity="1" /><path clip-path="url(#clip540)" d="M1881.07 1513.41 Q1878.52 1513.41 1877.01 1515.16 Q1875.53 1516.91 1875.53 1519.95 Q1875.53 1522.98 1877.01 1524.75 Q1878.52 1526.5 1881.07 1526.5 Q1883.63 1526.5 1885.12 1524.75 Q1886.62 1522.98 1886.62 1519.95 Q1886.62 1516.91 1885.12 1515.16 Q1883.63 1513.41 1881.07 1513.41 M1888.62 1501.5 L1888.62 1504.96 Q1887.19 1504.29 1885.72 1503.93 Q1884.27 1503.57 1882.84 1503.57 Q1879.08 1503.57 1877.09 1506.11 Q1875.11 1508.65 1874.83 1513.78 Q1875.94 1512.15 1877.61 1511.28 Q1879.29 1510.4 1881.3 1510.4 Q1885.53 1510.4 1887.98 1512.97 Q1890.44 1515.53 1890.44 1519.95 Q1890.44 1524.28 1887.88 1526.89 Q1885.32 1529.51 1881.07 1529.51 Q1876.2 1529.51 1873.63 1525.78 Q1871.05 1522.04 1871.05 1514.95 Q1871.05 1508.29 1874.21 1504.34 Q1877.37 1500.37 1882.69 1500.37 Q1884.12 1500.37 1885.57 1500.66 Q1887.04 1500.94 1888.62 1501.5 Z" fill="#000000" fill-rule="evenodd" fill-opacity="1" /><path clip-path="url(#clip540)" d="M2186.45 1552.44 L2194.09 1552.44 L2194.09 1526.07 L2185.78 1527.74 L2185.78 1523.48 L2194.04 1521.81 L2198.72 1521.81 L2198.72 1552.44 L2206.36 1552.44 L2206.36 1556.37 L2186.45 1556.37 L2186.45 1552.44 Z" fill="#000000" fill-rule="evenodd" fill-opacity="1" /><path clip-path="url(#clip540)" d="M2215.8 1550.49 L2220.69 1550.49 L2220.69 1556.37 L2215.8 1556.37 L2215.8 1550.49 Z" fill="#000000" fill-rule="evenodd" fill-opacity="1" /><path clip-path="url(#clip540)" d="M2240.87 1524.89 Q2237.26 1524.89 2235.43 1528.46 Q2233.63 1532 2233.63 1539.13 Q2233.63 1546.23 2235.43 1549.8 Q2237.26 1553.34 2240.87 1553.34 Q2244.51 1553.34 2246.31 1549.8 Q2248.14 1546.23 2248.14 1539.13 Q2248.14 1532 2246.31 1528.46 Q2244.51 1524.89 2240.87 1524.89 M2240.87 1521.19 Q2246.68 1521.19 2249.74 1525.79 Q2252.82 1530.38 2252.82 1539.13 Q2252.82 1547.85 2249.74 1552.46 Q2246.68 1557.04 2240.87 1557.04 Q2235.06 1557.04 2231.98 1552.46 Q2228.93 1547.85 2228.93 1539.13 Q2228.93 1530.38 2231.98 1525.79 Q2235.06 1521.19 2240.87 1521.19 Z" fill="#000000" fill-rule="evenodd" fill-opacity="1" /><path clip-path="url(#clip540)" d="M2271.03 1524.89 Q2267.42 1524.89 2265.59 1528.46 Q2263.79 1532 2263.79 1539.13 Q2263.79 1546.23 2265.59 1549.8 Q2267.42 1553.34 2271.03 1553.34 Q2274.67 1553.34 2276.47 1549.8 Q2278.3 1546.23 2278.3 1539.13 Q2278.3 1532 2276.47 1528.46 Q2274.67 1524.89 2271.03 1524.89 M2271.03 1521.19 Q2276.84 1521.19 2279.9 1525.79 Q2282.98 1530.38 2282.98 1539.13 Q2282.98 1547.85 2279.9 1552.46 Q2276.84 1557.04 2271.03 1557.04 Q2265.22 1557.04 2262.14 1552.46 Q2259.09 1547.85 2259.09 1539.13 Q2259.09 1530.38 2262.14 1525.79 Q2265.22 1521.19 2271.03 1521.19 Z" fill="#000000" fill-rule="evenodd" fill-opacity="1" /><path clip-path="url(#clip540)" d="M2319.37 1530.91 L2308.79 1541.53 L2319.37 1552.11 L2316.61 1554.91 L2305.99 1544.29 L2295.36 1554.91 L2292.63 1552.11 L2303.19 1541.53 L2292.63 1530.91 L2295.36 1528.11 L2305.99 1538.73 L2316.61 1528.11 L2319.37 1530.91 Z" fill="#000000" fill-rule="evenodd" fill-opacity="1" /><path clip-path="url(#clip540)" d="M2331.73 1552.44 L2339.37 1552.44 L2339.37 1526.07 L2331.06 1527.74 L2331.06 1523.48 L2339.32 1521.81 L2344 1521.81 L2344 1552.44 L2351.63 1552.44 L2351.63 1556.37 L2331.73 1556.37 L2331.73 1552.44 Z" fill="#000000" fill-rule="evenodd" fill-opacity="1" /><path clip-path="url(#clip540)" d="M2371.08 1524.89 Q2367.47 1524.89 2365.64 1528.46 Q2363.83 1532 2363.83 1539.13 Q2363.83 1546.23 2365.64 1549.8 Q2367.47 1553.34 2371.08 1553.34 Q2374.71 1553.34 2376.52 1549.8 Q2378.35 1546.23 2378.35 1539.13 Q2378.35 1532 2376.52 1528.46 Q2374.71 1524.89 2371.08 1524.89 M2371.08 1521.19 Q2376.89 1521.19 2379.94 1525.79 Q2383.02 1530.38 2383.02 1539.13 Q2383.02 1547.85 2379.94 1552.46 Q2376.89 1557.04 2371.08 1557.04 Q2365.27 1557.04 2362.19 1552.46 Q2359.13 1547.85 2359.13 1539.13 Q2359.13 1530.38 2362.19 1525.79 Q2365.27 1521.19 2371.08 1521.19 Z" fill="#000000" fill-rule="evenodd" fill-opacity="1" /><path clip-path="url(#clip540)" d="M2383.02 1500.88 L2401.08 1500.88 L2401.08 1502.5 L2390.89 1528.96 L2386.92 1528.96 L2396.51 1504.08 L2383.02 1504.08 L2383.02 1500.88 Z" fill="#000000" fill-rule="evenodd" fill-opacity="1" /><polyline clip-path="url(#clip542)" style="stroke:#000000; stroke-linecap:butt; stroke-linejoin:round; stroke-width:2; stroke-opacity:0.1; fill:none" points="
  184.191,1433.78 2352.76,1433.78 
  "/>
<polyline clip-path="url(#clip542)" style="stroke:#000000; stroke-linecap:butt; stroke-linejoin:round; stroke-width:2; stroke-opacity:0.1; fill:none" points="
  184.191,1091.02 2352.76,1091.02 
  "/>
<polyline clip-path="url(#clip542)" style="stroke:#000000; stroke-linecap:butt; stroke-linejoin:round; stroke-width:2; stroke-opacity:0.1; fill:none" points="
  184.191,748.26 2352.76,748.26 
  "/>
<polyline clip-path="url(#clip542)" style="stroke:#000000; stroke-linecap:butt; stroke-linejoin:round; stroke-width:2; stroke-opacity:0.1; fill:none" points="
  184.191,405.499 2352.76,405.499 
  "/>
<polyline clip-path="url(#clip542)" style="stroke:#000000; stroke-linecap:butt; stroke-linejoin:round; stroke-width:2; stroke-opacity:0.1; fill:none" points="
  184.191,62.7388 2352.76,62.7388 
  "/>
<polyline clip-path="url(#clip540)" style="stroke:#000000; stroke-linecap:butt; stroke-linejoin:round; stroke-width:4; stroke-opacity:1; fill:none" points="
  184.191,1474.16 184.191,47.2441 
  "/>
<polyline clip-path="url(#clip540)" style="stroke:#000000; stroke-linecap:butt; stroke-linejoin:round; stroke-width:4; stroke-opacity:1; fill:none" points="
  184.191,1433.78 203.088,1433.78 
  "/>
<polyline clip-path="url(#clip540)" style="stroke:#000000; stroke-linecap:butt; stroke-linejoin:round; stroke-width:4; stroke-opacity:1; fill:none" points="
  184.191,1091.02 203.088,1091.02 
  "/>
<polyline clip-path="url(#clip540)" style="stroke:#000000; stroke-linecap:butt; stroke-linejoin:round; stroke-width:4; stroke-opacity:1; fill:none" points="
  184.191,748.26 203.088,748.26 
  "/>
<polyline clip-path="url(#clip540)" style="stroke:#000000; stroke-linecap:butt; stroke-linejoin:round; stroke-width:4; stroke-opacity:1; fill:none" points="
  184.191,405.499 203.088,405.499 
  "/>
<polyline clip-path="url(#clip540)" style="stroke:#000000; stroke-linecap:butt; stroke-linejoin:round; stroke-width:4; stroke-opacity:1; fill:none" points="
  184.191,62.7388 203.088,62.7388 
  "/>
<path clip-path="url(#clip540)" d="M91.0151 1419.58 Q87.404 1419.58 85.5753 1423.14 Q83.7697 1426.69 83.7697 1433.82 Q83.7697 1440.92 85.5753 1444.49 Q87.404 1448.03 91.0151 1448.03 Q94.6493 1448.03 96.4548 1444.49 Q98.2835 1440.92 98.2835 1433.82 Q98.2835 1426.69 96.4548 1423.14 Q94.6493 1419.58 91.0151 1419.58 M91.0151 1415.88 Q96.8252 1415.88 99.8808 1420.48 Q102.959 1425.07 102.959 1433.82 Q102.959 1442.54 99.8808 1447.15 Q96.8252 1451.73 91.0151 1451.73 Q85.2049 1451.73 82.1262 1447.15 Q79.0707 1442.54 79.0707 1433.82 Q79.0707 1425.07 82.1262 1420.48 Q85.2049 1415.88 91.0151 1415.88 Z" fill="#000000" fill-rule="evenodd" fill-opacity="1" /><path clip-path="url(#clip540)" d="M111.177 1445.18 L116.061 1445.18 L116.061 1451.06 L111.177 1451.06 L111.177 1445.18 Z" fill="#000000" fill-rule="evenodd" fill-opacity="1" /><path clip-path="url(#clip540)" d="M136.246 1419.58 Q132.635 1419.58 130.807 1423.14 Q129.001 1426.69 129.001 1433.82 Q129.001 1440.92 130.807 1444.49 Q132.635 1448.03 136.246 1448.03 Q139.881 1448.03 141.686 1444.49 Q143.515 1440.92 143.515 1433.82 Q143.515 1426.69 141.686 1423.14 Q139.881 1419.58 136.246 1419.58 M136.246 1415.88 Q142.056 1415.88 145.112 1420.48 Q148.191 1425.07 148.191 1433.82 Q148.191 1442.54 145.112 1447.15 Q142.056 1451.73 136.246 1451.73 Q130.436 1451.73 127.357 1447.15 Q124.302 1442.54 124.302 1433.82 Q124.302 1425.07 127.357 1420.48 Q130.436 1415.88 136.246 1415.88 Z" fill="#000000" fill-rule="evenodd" fill-opacity="1" /><path clip-path="url(#clip540)" d="M86.0382 1104.36 L102.358 1104.36 L102.358 1108.3 L80.4133 1108.3 L80.4133 1104.36 Q83.0753 1101.61 87.6586 1096.98 Q92.2651 1092.33 93.4456 1090.99 Q95.691 1088.46 96.5706 1086.73 Q97.4734 1084.97 97.4734 1083.28 Q97.4734 1080.52 95.5289 1078.79 Q93.6076 1077.05 90.5058 1077.05 Q88.3067 1077.05 85.8531 1077.81 Q83.4225 1078.58 80.6447 1080.13 L80.6447 1075.41 Q83.4688 1074.27 85.9225 1073.69 Q88.3762 1073.11 90.4132 1073.11 Q95.7836 1073.11 98.978 1075.8 Q102.172 1078.49 102.172 1082.98 Q102.172 1085.11 101.362 1087.03 Q100.575 1088.93 98.4687 1091.52 Q97.89 1092.19 94.7882 1095.41 Q91.6864 1098.6 86.0382 1104.36 Z" fill="#000000" fill-rule="evenodd" fill-opacity="1" /><path clip-path="url(#clip540)" d="M112.172 1102.42 L117.057 1102.42 L117.057 1108.3 L112.172 1108.3 L112.172 1102.42 Z" fill="#000000" fill-rule="evenodd" fill-opacity="1" /><path clip-path="url(#clip540)" d="M127.288 1073.74 L145.644 1073.74 L145.644 1077.68 L131.57 1077.68 L131.57 1086.15 Q132.589 1085.8 133.607 1085.64 Q134.626 1085.45 135.644 1085.45 Q141.431 1085.45 144.811 1088.62 Q148.191 1091.8 148.191 1097.21 Q148.191 1102.79 144.718 1105.89 Q141.246 1108.97 134.927 1108.97 Q132.751 1108.97 130.482 1108.6 Q128.237 1108.23 125.83 1107.49 L125.83 1102.79 Q127.913 1103.92 130.135 1104.48 Q132.357 1105.04 134.834 1105.04 Q138.839 1105.04 141.177 1102.93 Q143.515 1100.82 143.515 1097.21 Q143.515 1093.6 141.177 1091.49 Q138.839 1089.39 134.834 1089.39 Q132.959 1089.39 131.084 1089.8 Q129.232 1090.22 127.288 1091.1 L127.288 1073.74 Z" fill="#000000" fill-rule="evenodd" fill-opacity="1" /><path clip-path="url(#clip540)" d="M81.0614 730.98 L99.4178 730.98 L99.4178 734.915 L85.3438 734.915 L85.3438 743.387 Q86.3623 743.04 87.3808 742.878 Q88.3993 742.692 89.4178 742.692 Q95.2049 742.692 98.5845 745.864 Q101.964 749.035 101.964 754.452 Q101.964 760.03 98.4919 763.132 Q95.0197 766.211 88.7003 766.211 Q86.5243 766.211 84.2558 765.84 Q82.0105 765.47 79.6031 764.729 L79.6031 760.03 Q81.6864 761.165 83.9086 761.72 Q86.1308 762.276 88.6077 762.276 Q92.6123 762.276 94.9502 760.169 Q97.2882 758.063 97.2882 754.452 Q97.2882 750.841 94.9502 748.734 Q92.6123 746.628 88.6077 746.628 Q86.7327 746.628 84.8577 747.044 Q83.0058 747.461 81.0614 748.341 L81.0614 730.98 Z" fill="#000000" fill-rule="evenodd" fill-opacity="1" /><path clip-path="url(#clip540)" d="M111.177 759.66 L116.061 759.66 L116.061 765.54 L111.177 765.54 L111.177 759.66 Z" fill="#000000" fill-rule="evenodd" fill-opacity="1" /><path clip-path="url(#clip540)" d="M136.246 734.058 Q132.635 734.058 130.807 737.623 Q129.001 741.165 129.001 748.294 Q129.001 755.401 130.807 758.966 Q132.635 762.507 136.246 762.507 Q139.881 762.507 141.686 758.966 Q143.515 755.401 143.515 748.294 Q143.515 741.165 141.686 737.623 Q139.881 734.058 136.246 734.058 M136.246 730.355 Q142.056 730.355 145.112 734.961 Q148.191 739.544 148.191 748.294 Q148.191 757.021 145.112 761.628 Q142.056 766.211 136.246 766.211 Q130.436 766.211 127.357 761.628 Q124.302 757.021 124.302 748.294 Q124.302 739.544 127.357 734.961 Q130.436 730.355 136.246 730.355 Z" fill="#000000" fill-rule="evenodd" fill-opacity="1" /><path clip-path="url(#clip540)" d="M80.8299 388.219 L103.052 388.219 L103.052 390.21 L90.5058 422.779 L85.6216 422.779 L97.4271 392.154 L80.8299 392.154 L80.8299 388.219 Z" fill="#000000" fill-rule="evenodd" fill-opacity="1" /><path clip-path="url(#clip540)" d="M112.172 416.9 L117.057 416.9 L117.057 422.779 L112.172 422.779 L112.172 416.9 Z" fill="#000000" fill-rule="evenodd" fill-opacity="1" /><path clip-path="url(#clip540)" d="M127.288 388.219 L145.644 388.219 L145.644 392.154 L131.57 392.154 L131.57 400.627 Q132.589 400.279 133.607 400.117 Q134.626 399.932 135.644 399.932 Q141.431 399.932 144.811 403.103 Q148.191 406.275 148.191 411.691 Q148.191 417.27 144.718 420.372 Q141.246 423.45 134.927 423.45 Q132.751 423.45 130.482 423.08 Q128.237 422.71 125.83 421.969 L125.83 417.27 Q127.913 418.404 130.135 418.96 Q132.357 419.515 134.834 419.515 Q138.839 419.515 141.177 417.409 Q143.515 415.302 143.515 411.691 Q143.515 408.08 141.177 405.974 Q138.839 403.867 134.834 403.867 Q132.959 403.867 131.084 404.284 Q129.232 404.701 127.288 405.58 L127.288 388.219 Z" fill="#000000" fill-rule="evenodd" fill-opacity="1" /><path clip-path="url(#clip540)" d="M51.6634 76.0836 L59.3023 76.0836 L59.3023 49.718 L50.9921 51.3847 L50.9921 47.1254 L59.256 45.4588 L63.9319 45.4588 L63.9319 76.0836 L71.5707 76.0836 L71.5707 80.0188 L51.6634 80.0188 L51.6634 76.0836 Z" fill="#000000" fill-rule="evenodd" fill-opacity="1" /><path clip-path="url(#clip540)" d="M91.0151 48.5375 Q87.404 48.5375 85.5753 52.1023 Q83.7697 55.6439 83.7697 62.7735 Q83.7697 69.8799 85.5753 73.4447 Q87.404 76.9864 91.0151 76.9864 Q94.6493 76.9864 96.4548 73.4447 Q98.2835 69.8799 98.2835 62.7735 Q98.2835 55.6439 96.4548 52.1023 Q94.6493 48.5375 91.0151 48.5375 M91.0151 44.8338 Q96.8252 44.8338 99.8808 49.4402 Q102.959 54.0235 102.959 62.7735 Q102.959 71.5003 99.8808 76.1068 Q96.8252 80.6901 91.0151 80.6901 Q85.2049 80.6901 82.1262 76.1068 Q79.0707 71.5003 79.0707 62.7735 Q79.0707 54.0235 82.1262 49.4402 Q85.2049 44.8338 91.0151 44.8338 Z" fill="#000000" fill-rule="evenodd" fill-opacity="1" /><path clip-path="url(#clip540)" d="M111.177 74.1392 L116.061 74.1392 L116.061 80.0188 L111.177 80.0188 L111.177 74.1392 Z" fill="#000000" fill-rule="evenodd" fill-opacity="1" /><path clip-path="url(#clip540)" d="M136.246 48.5375 Q132.635 48.5375 130.807 52.1023 Q129.001 55.6439 129.001 62.7735 Q129.001 69.8799 130.807 73.4447 Q132.635 76.9864 136.246 76.9864 Q139.881 76.9864 141.686 73.4447 Q143.515 69.8799 143.515 62.7735 Q143.515 55.6439 141.686 52.1023 Q139.881 48.5375 136.246 48.5375 M136.246 44.8338 Q142.056 44.8338 145.112 49.4402 Q148.191 54.0235 148.191 62.7735 Q148.191 71.5003 145.112 76.1068 Q142.056 80.6901 136.246 80.6901 Q130.436 80.6901 127.357 76.1068 Q124.302 71.5003 124.302 62.7735 Q124.302 54.0235 127.357 49.4402 Q130.436 44.8338 136.246 44.8338 Z" fill="#000000" fill-rule="evenodd" fill-opacity="1" /><polyline clip-path="url(#clip542)" style="stroke:#009af9; stroke-linecap:butt; stroke-linejoin:round; stroke-width:4; stroke-opacity:1; fill:none" points="
  245.565,1433.78 247.613,1431.67 249.661,1429.55 251.709,1427.44 253.757,1425.33 255.804,1423.21 257.852,1421.1 259.9,1418.99 261.948,1416.87 263.996,1414.76 
  266.044,1412.65 268.092,1410.53 270.14,1408.42 272.187,1406.31 274.235,1404.19 276.283,1402.08 278.331,1399.97 280.379,1397.85 282.427,1395.74 284.475,1393.63 
  286.522,1391.51 288.57,1389.4 290.618,1387.29 292.666,1385.17 294.714,1383.06 296.762,1380.95 298.81,1378.84 300.857,1376.72 302.905,1374.61 304.953,1372.5 
  307.001,1370.38 309.049,1368.27 311.097,1366.16 313.145,1364.04 315.193,1361.93 317.24,1359.82 319.288,1357.7 321.336,1355.59 323.384,1353.48 325.432,1351.36 
  327.48,1349.25 329.528,1347.14 331.575,1345.02 333.623,1342.91 335.671,1340.8 337.719,1338.68 339.767,1336.57 341.815,1334.46 343.863,1332.34 345.911,1330.23 
  347.958,1328.12 350.006,1326 352.054,1323.89 354.102,1321.78 356.15,1319.66 358.198,1317.55 360.246,1315.44 362.293,1313.32 364.341,1311.21 366.389,1309.1 
  368.437,1306.98 370.485,1304.87 372.533,1302.76 374.581,1300.64 376.628,1298.53 378.676,1296.42 380.724,1294.3 382.772,1292.19 384.82,1290.08 386.868,1287.96 
  388.916,1285.85 390.964,1283.74 393.011,1281.62 395.059,1279.51 397.107,1277.4 399.155,1275.29 401.203,1273.17 403.251,1271.06 405.299,1268.95 407.346,1266.83 
  409.394,1264.72 411.442,1262.61 413.49,1260.49 415.538,1258.38 417.586,1256.27 419.634,1254.15 421.681,1252.04 423.729,1249.93 425.777,1247.81 427.825,1245.7 
  429.873,1243.59 431.921,1241.47 433.969,1239.36 436.017,1237.25 438.064,1235.13 440.112,1233.02 442.16,1230.91 444.208,1228.79 446.256,1226.68 448.304,1224.57 
  450.352,1222.45 452.399,1220.34 454.447,1218.23 456.495,1216.11 458.543,1214 460.591,1211.89 462.639,1209.77 464.687,1207.66 466.734,1205.55 468.782,1203.43 
  470.83,1201.32 472.878,1199.21 474.926,1197.09 476.974,1194.98 479.022,1192.87 481.07,1190.75 483.117,1188.64 485.165,1186.53 487.213,1184.41 489.261,1182.3 
  491.309,1180.19 493.357,1178.07 495.405,1175.96 497.452,1173.85 499.5,1171.73 501.548,1169.62 503.596,1167.51 505.644,1165.4 507.692,1163.28 509.74,1161.17 
  511.788,1159.06 513.835,1156.94 515.883,1154.83 517.931,1152.72 519.979,1150.6 522.027,1148.49 524.075,1146.38 526.123,1144.26 528.17,1142.15 530.218,1140.04 
  532.266,1137.92 534.314,1135.81 536.362,1133.7 538.41,1131.58 540.458,1129.47 542.505,1127.36 544.553,1125.24 546.601,1123.13 548.649,1121.02 550.697,1118.9 
  552.745,1116.79 554.793,1114.68 556.841,1112.56 558.888,1110.45 560.936,1108.34 562.984,1106.22 565.032,1104.11 567.08,1102 569.128,1099.88 571.176,1097.77 
  573.223,1095.66 575.271,1093.54 577.319,1091.43 579.367,1089.32 581.415,1087.2 583.463,1085.09 585.511,1082.98 587.558,1080.86 589.606,1078.75 591.654,1076.64 
  593.702,1074.52 595.75,1072.41 597.798,1070.3 599.846,1068.18 601.894,1066.07 603.941,1063.96 605.989,1061.85 608.037,1059.73 610.085,1057.62 612.133,1055.51 
  614.181,1053.39 616.229,1051.28 618.276,1049.17 620.324,1047.05 622.372,1044.94 624.42,1042.83 626.468,1040.71 628.516,1038.6 630.564,1036.49 632.611,1034.37 
  634.659,1032.26 636.707,1030.15 638.755,1028.03 640.803,1025.92 642.851,1023.81 644.899,1021.69 646.947,1019.58 648.994,1017.47 651.042,1015.35 653.09,1013.24 
  655.138,1011.13 657.186,1009.01 659.234,1006.9 661.282,1004.79 663.329,1002.67 665.377,1000.56 667.425,998.447 669.473,996.334 671.521,994.22 673.569,992.107 
  675.617,989.994 677.664,987.881 679.712,985.767 681.76,983.654 683.808,981.541 685.856,979.428 687.904,977.314 689.952,975.201 692,973.088 694.047,970.975 
  696.095,968.861 698.143,966.748 700.191,964.635 702.239,962.521 704.287,960.408 706.335,958.295 708.382,956.182 710.43,954.068 712.478,951.955 714.526,949.842 
  716.574,947.729 718.622,945.615 720.67,943.502 722.718,941.389 724.765,939.276 726.813,937.162 728.861,935.049 730.909,932.936 732.957,930.822 735.005,928.709 
  737.053,926.596 739.1,924.483 741.148,922.369 743.196,920.256 745.244,918.143 747.292,916.03 749.34,913.916 751.388,911.803 753.435,909.69 755.483,907.576 
  757.531,905.463 759.579,903.35 761.627,901.237 763.675,899.123 765.723,897.01 767.771,894.897 769.818,892.784 771.866,890.67 773.914,888.557 775.962,886.444 
  778.01,884.331 780.058,882.217 782.106,880.104 784.153,877.991 786.201,875.877 788.249,873.764 790.297,871.651 792.345,869.538 794.393,867.424 796.441,865.311 
  798.488,863.198 800.536,861.085 802.584,858.971 804.632,856.858 806.68,854.745 808.728,852.632 810.776,850.518 812.824,848.405 814.871,846.292 816.919,844.178 
  818.967,842.065 821.015,839.952 823.063,837.839 825.111,835.725 827.159,833.612 829.206,831.499 831.254,829.386 833.302,827.272 835.35,825.159 837.398,823.046 
  839.446,820.933 841.494,818.819 843.541,816.706 845.589,814.593 847.637,812.479 849.685,810.366 851.733,808.253 853.781,806.14 855.829,804.026 857.877,801.913 
  859.924,799.8 861.972,797.687 864.02,795.573 866.068,793.46 868.116,791.347 870.164,789.233 872.212,787.12 874.259,785.007 876.307,782.894 878.355,780.78 
  880.403,778.667 882.451,776.554 884.499,774.441 886.547,772.327 888.594,770.214 890.642,768.101 892.69,765.988 894.738,763.874 896.786,761.761 898.834,759.648 
  900.882,757.534 902.93,755.421 904.977,753.308 907.025,751.195 909.073,749.081 911.121,746.968 913.169,744.855 915.217,742.742 917.265,740.628 919.312,738.515 
  921.36,736.402 923.408,734.289 925.456,732.175 927.504,730.062 929.552,727.949 931.6,725.835 933.648,723.722 935.695,721.609 937.743,719.496 939.791,717.382 
  941.839,715.269 943.887,713.156 945.935,711.043 947.983,708.929 950.03,706.816 952.078,704.703 954.126,702.59 956.174,700.476 958.222,698.363 960.27,696.25 
  962.318,694.136 964.365,692.023 966.413,689.91 968.461,687.797 970.509,685.683 972.557,683.57 974.605,681.457 976.653,679.344 978.701,677.23 980.748,675.117 
  982.796,673.004 984.844,670.891 986.892,668.777 988.94,666.664 990.988,664.551 993.036,662.437 995.083,660.324 997.131,658.211 999.179,656.098 1001.23,653.984 
  1003.27,651.871 1005.32,649.758 1007.37,647.645 1009.42,645.531 1011.47,643.418 1013.51,641.305 1015.56,639.191 1017.61,637.078 1019.66,634.965 1021.71,632.852 
  1023.75,630.738 1025.8,628.625 1027.85,626.512 1029.9,624.399 1031.94,622.285 1033.99,620.172 1036.04,618.059 1038.09,615.946 1040.14,613.832 1042.18,611.719 
  1044.23,609.606 1046.28,607.492 1048.33,605.379 1050.38,603.266 1052.42,601.153 1054.47,599.039 1056.52,596.926 1058.57,594.813 1060.62,592.7 1062.66,590.586 
  1064.71,588.473 1066.76,586.36 1068.81,584.247 1070.85,582.133 1072.9,580.02 1074.95,577.907 1077,575.793 1079.05,573.68 1081.09,571.567 1083.14,569.454 
  1085.19,567.34 1087.24,565.227 1089.29,563.114 1091.33,561.001 1093.38,558.887 1095.43,556.774 1097.48,554.661 1099.52,552.548 1101.57,550.434 1103.62,548.321 
  1105.67,546.208 1107.72,544.094 1109.76,541.981 1111.81,539.868 1113.86,537.755 1115.91,535.641 1117.96,533.528 1120,531.415 1122.05,529.302 1124.1,527.188 
  1126.15,525.075 1128.19,522.962 1130.24,520.849 1132.29,518.735 1134.34,516.622 1136.39,514.509 1138.43,512.395 1140.48,510.282 1142.53,508.169 1144.58,506.056 
  1146.63,503.942 1148.67,501.829 1150.72,499.716 1152.77,497.603 1154.82,495.489 1156.86,493.376 1158.91,491.263 1160.96,489.149 1163.01,487.036 1165.06,484.923 
  1167.1,482.81 1169.15,480.696 1171.2,478.583 1173.25,476.47 1175.3,474.357 1177.34,472.243 1179.39,470.13 1181.44,468.017 1183.49,465.904 1185.53,463.79 
  1187.58,461.677 1189.63,459.564 1191.68,457.45 1193.73,455.337 1195.77,453.224 1197.82,451.111 1199.87,448.997 1201.92,446.884 1203.97,444.771 1206.01,442.658 
  1208.06,440.544 1210.11,438.431 1212.16,436.318 1214.2,434.205 1216.25,432.091 1218.3,429.978 1220.35,427.865 1222.4,425.751 1224.44,423.638 1226.49,421.525 
  1228.54,419.412 1230.59,417.298 1232.64,415.185 1234.68,413.072 1236.73,410.959 1238.78,408.845 1240.83,406.732 1242.87,404.619 1244.92,402.506 1246.97,400.392 
  1249.02,398.279 1251.07,396.166 1253.11,394.052 1255.16,391.939 1257.21,389.826 1259.26,387.713 1261.31,385.599 1263.35,383.486 1265.4,381.373 1267.45,379.26 
  1269.5,377.146 1271.55,375.033 1273.59,372.92 1275.64,370.807 1277.69,368.693 1279.74,366.58 1281.78,364.467 1283.83,362.353 1285.88,360.24 1287.93,358.127 
  1289.98,356.014 1292.02,353.9 1294.07,351.787 1296.12,349.674 1298.17,347.561 1300.22,345.447 1302.26,343.334 1304.31,341.221 1306.36,339.107 1308.41,336.994 
  1310.45,334.881 1312.5,332.768 1314.55,330.654 1316.6,328.541 1318.65,326.428 1320.69,324.315 1322.74,322.201 1324.79,320.088 1326.84,317.975 1328.89,315.862 
  1330.93,313.748 1332.98,311.635 1335.03,309.522 1337.08,307.408 1339.12,305.295 1341.17,303.182 1343.22,301.069 1345.27,298.955 1347.32,296.842 1349.36,294.729 
  1351.41,292.616 1353.46,290.502 1355.51,288.389 1357.56,286.276 1359.6,284.163 1361.65,282.049 1363.7,279.936 1365.75,277.823 1367.79,275.709 1369.84,273.596 
  1371.89,271.483 1373.94,269.37 1375.99,267.256 1378.03,265.143 1380.08,263.03 1382.13,260.917 1384.18,258.803 1386.23,256.69 1388.27,254.577 1390.32,252.464 
  1392.37,250.35 1394.42,248.237 1396.46,246.124 1398.51,244.01 1400.56,241.897 1402.61,239.784 1404.66,237.671 1406.7,235.557 1408.75,233.444 1410.8,231.331 
  1412.85,229.218 1414.9,227.104 1416.94,224.991 1418.99,222.878 1421.04,220.765 1423.09,218.651 1425.13,216.538 1427.18,214.425 1429.23,212.311 1431.28,210.198 
  1433.33,208.085 1435.37,205.972 1437.42,203.858 1439.47,201.745 1441.52,199.632 1443.57,197.519 1445.61,195.405 1447.66,193.292 1449.71,191.179 1451.76,189.065 
  1453.8,186.952 1455.85,184.839 1457.9,182.726 1459.95,180.612 1462,178.499 1464.04,176.386 1466.09,174.273 1468.14,172.159 1470.19,170.046 1472.24,167.933 
  1474.28,165.82 1476.33,163.706 1478.38,161.593 1480.43,159.48 1482.48,157.366 1484.52,155.253 1486.57,153.14 1488.62,151.027 1490.67,148.913 1492.71,146.8 
  1494.76,144.687 1496.81,142.574 1498.86,140.46 1500.91,138.347 1502.95,136.234 1505,134.121 1507.05,132.007 1509.1,129.894 1511.15,127.781 1513.19,125.667 
  1515.24,123.554 1517.29,121.441 1519.34,119.328 1521.38,117.214 1523.43,115.101 1525.48,112.988 1527.53,110.875 1529.58,108.761 1531.62,106.648 1533.67,104.535 
  1535.72,102.422 1537.77,100.308 1539.82,98.195 1541.86,96.0817 1543.91,93.9684 1545.96,91.8552 1548.01,89.7419 1550.05,87.6286 1552.1,91.2138 1554.15,95.4126 
  1556.2,99.5917 1558.25,103.751 1560.29,107.891 1562.34,112.012 1564.39,116.114 1566.44,120.197 1568.49,124.26 1570.53,128.305 1572.58,132.331 1574.63,136.339 
  1576.68,140.328 1578.72,144.299 1580.77,148.251 1582.82,152.185 1584.87,156.102 1586.92,160 1588.96,163.88 1591.01,167.743 1593.06,171.588 1595.11,175.416 
  1597.16,179.226 1599.2,183.02 1601.25,186.795 1603.3,190.554 1605.35,194.296 1607.39,198.021 1609.44,201.729 1611.49,205.421 1613.54,209.096 1615.59,212.754 
  1617.63,216.396 1619.68,220.022 1621.73,223.632 1623.78,227.226 1625.83,230.803 1627.87,234.365 1629.92,237.911 1631.97,241.441 1634.02,244.956 1636.06,248.455 
  1638.11,251.938 1640.16,255.407 1642.21,258.86 1644.26,262.298 1646.3,265.721 1648.35,269.129 1650.4,272.522 1652.45,275.9 1654.5,279.263 1656.54,282.612 
  1658.59,285.947 1660.64,289.266 1662.69,292.572 1664.73,295.863 1666.78,299.14 1668.83,302.403 1670.88,305.651 1672.93,308.886 1674.97,312.107 1677.02,315.314 
  1679.07,318.508 1681.12,321.687 1683.17,324.853 1685.21,328.006 1687.26,331.145 1689.31,334.271 1691.36,337.383 1693.41,340.483 1695.45,343.569 1697.5,346.642 
  1699.55,349.702 1701.6,352.75 1703.64,355.784 1705.69,358.806 1707.74,361.815 1709.79,364.811 1711.84,367.795 1713.88,370.767 1715.93,373.726 1717.98,376.672 
  1720.03,379.607 1722.08,382.529 1724.12,385.439 1726.17,388.337 1728.22,391.223 1730.27,394.097 1732.31,396.959 1734.36,399.809 1736.41,402.648 1738.46,405.475 
  1740.51,408.29 1742.55,411.094 1744.6,413.886 1746.65,416.667 1748.7,419.437 1750.75,422.195 1752.79,424.942 1754.84,427.678 1756.89,430.403 1758.94,433.116 
  1760.98,435.819 1763.03,438.511 1765.08,441.191 1767.13,443.862 1769.18,446.521 1771.22,449.169 1773.27,451.807 1775.32,454.435 1777.37,457.052 1779.42,459.658 
  1781.46,462.254 1783.51,464.839 1785.56,467.415 1787.61,469.98 1789.65,472.534 1791.7,475.079 1793.75,477.614 1795.8,480.138 1797.85,482.653 1799.89,485.157 
  1801.94,487.652 1803.99,490.137 1806.04,492.612 1808.09,495.078 1810.13,497.533 1812.18,499.979 1814.23,502.416 1816.28,504.843 1818.32,507.26 1820.37,509.669 
  1822.42,512.067 1824.47,514.457 1826.52,516.837 1828.56,519.208 1830.61,521.569 1832.66,523.922 1834.71,526.265 1836.76,528.6 1838.8,530.925 1840.85,533.242 
  1842.9,535.549 1844.95,537.848 1846.99,540.138 1849.04,542.419 1851.09,544.692 1853.14,546.955 1855.19,549.211 1857.23,551.457 1859.28,553.695 1861.33,555.925 
  1863.38,558.146 1865.43,560.358 1867.47,562.562 1869.52,564.758 1871.57,566.946 1873.62,569.125 1875.67,571.296 1877.71,573.459 1879.76,575.614 1881.81,577.761 
  1883.86,579.9 1885.9,582.03 1887.95,584.153 1890,586.268 1892.05,588.375 1894.1,590.474 1896.14,592.565 1898.19,594.649 1900.24,596.724 1902.29,598.792 
  1904.34,600.853 1906.38,602.906 1908.43,604.951 1910.48,606.989 1912.53,609.019 1914.57,611.042 1916.62,613.057 1918.67,615.065 1920.72,617.065 1922.77,619.058 
  1924.81,621.044 1926.86,623.023 1928.91,624.994 1930.96,626.959 1933.01,628.916 1935.05,630.866 1937.1,632.809 1939.15,634.745 1941.2,636.673 1943.24,638.595 
  1945.29,640.51 1947.34,642.418 1949.39,644.32 1951.44,646.214 1953.48,648.101 1955.53,649.982 1957.58,651.856 1959.63,653.723 1961.68,655.584 1963.72,657.438 
  1965.77,659.285 1967.82,661.126 1969.87,662.96 1971.91,664.788 1973.96,666.609 1976.01,668.424 1978.06,670.232 1980.11,672.034 1982.15,673.829 1984.2,675.619 
  1986.25,677.402 1988.3,679.178 1990.35,680.948 1992.39,682.713 1994.44,684.47 1996.49,686.222 1998.54,687.968 2000.58,689.707 2002.63,691.441 2004.68,693.168 
  2006.73,694.889 2008.78,696.605 2010.82,698.314 2012.87,700.018 2014.92,701.715 2016.97,703.407 2019.02,705.093 2021.06,706.773 2023.11,708.447 2025.16,710.115 
  2027.21,711.778 2029.25,713.435 2031.3,715.086 2033.35,716.732 2035.4,718.371 2037.45,720.006 2039.49,721.634 2041.54,723.258 2043.59,724.875 2045.64,726.487 
  2047.69,728.094 2049.73,729.695 2051.78,731.29 2053.83,732.881 2055.88,734.466 2057.92,736.045 2059.97,737.619 2062.02,739.188 2064.07,740.752 2066.12,742.31 
  2068.16,743.863 2070.21,745.411 2072.26,746.953 2074.31,748.49 2076.36,750.023 2078.4,751.55 2080.45,753.072 2082.5,754.589 2084.55,756.101 2086.6,757.607 
  2088.64,759.109 2090.69,760.606 2092.74,762.098 2094.79,763.585 2096.83,765.066 2098.88,766.543 2100.93,768.016 2102.98,769.483 2105.03,770.945 2107.07,772.403 
  2109.12,773.856 2111.17,775.304 2113.22,776.747 2115.27,778.185 2117.31,779.619 2119.36,781.048 2121.41,782.473 2123.46,783.892 2125.5,785.307 2127.55,786.718 
  2129.6,788.124 2131.65,789.525 2133.7,790.922 2135.74,792.314 2137.79,793.702 2139.84,795.085 2141.89,796.464 2143.94,797.838 2145.98,799.208 2148.03,800.573 
  2150.08,801.934 2152.13,803.291 2154.17,804.643 2156.22,805.991 2158.27,807.335 2160.32,808.674 2162.37,810.009 2164.41,811.34 2166.46,812.666 2168.51,813.988 
  2170.56,815.306 2172.61,816.62 2174.65,817.93 2176.7,819.235 2178.75,820.536 2180.8,821.834 2182.84,823.127 2184.89,824.416 2186.94,825.701 2188.99,826.981 
  2191.04,828.258 2193.08,829.531 2195.13,830.8 2197.18,832.065 2199.23,833.325 2201.28,834.582 2203.32,835.835 2205.37,837.084 2207.42,838.329 2209.47,839.57 
  2211.51,840.808 2213.56,842.041 2215.61,843.271 2217.66,844.496 2219.71,845.718 2221.75,846.936 2223.8,848.151 2225.85,849.361 2227.9,850.568 2229.95,851.771 
  2231.99,852.971 2234.04,854.166 2236.09,855.358 2238.14,856.547 2240.18,857.731 2242.23,858.913 2244.28,860.09 2246.33,861.264 2248.38,862.434 2250.42,863.601 
  2252.47,864.764 2254.52,865.923 2256.57,867.079 2258.62,868.231 2260.66,869.38 2262.71,870.526 2264.76,871.668 2266.81,872.806 2268.85,873.941 2270.9,875.073 
  2272.95,876.201 2275,877.326 2277.05,878.447 2279.09,879.565 2281.14,880.679 2283.19,881.791 2285.24,882.898 2287.29,884.003 2289.33,885.104 2291.38,886.202 
  
  "/>
<path clip-path="url(#clip540)" d="
M1987.09 198.488 L2280.47 198.488 L2280.47 94.8081 L1987.09 94.8081  Z
  " fill="#ffffff" fill-rule="evenodd" fill-opacity="1"/>
<polyline clip-path="url(#clip540)" style="stroke:#000000; stroke-linecap:butt; stroke-linejoin:round; stroke-width:4; stroke-opacity:1; fill:none" points="
  1987.09,198.488 2280.47,198.488 2280.47,94.8081 1987.09,94.8081 1987.09,198.488 
  "/>
<polyline clip-path="url(#clip540)" style="stroke:#009af9; stroke-linecap:butt; stroke-linejoin:round; stroke-width:4; stroke-opacity:1; fill:none" points="
  2011.18,146.648 2155.75,146.648 
  "/>
<path clip-path="url(#clip540)" d="M2193.69 166.336 Q2191.89 170.965 2190.17 172.377 Q2188.46 173.789 2185.59 173.789 L2182.19 173.789 L2182.19 170.224 L2184.69 170.224 Q2186.45 170.224 2187.42 169.391 Q2188.39 168.558 2189.57 165.456 L2190.34 163.511 L2179.85 138.002 L2184.36 138.002 L2192.47 158.28 L2200.57 138.002 L2205.08 138.002 L2193.69 166.336 Z" fill="#000000" fill-rule="evenodd" fill-opacity="1" /><path clip-path="url(#clip540)" d="M2212.37 159.993 L2220.01 159.993 L2220.01 133.627 L2211.7 135.294 L2211.7 131.035 L2219.97 129.368 L2224.64 129.368 L2224.64 159.993 L2232.28 159.993 L2232.28 163.928 L2212.37 163.928 L2212.37 159.993 Z" fill="#000000" fill-rule="evenodd" fill-opacity="1" /></svg>
