<?xml version="1.0" encoding="utf-8"?>
<svg xmlns="http://www.w3.org/2000/svg" xmlns:xlink="http://www.w3.org/1999/xlink" width="600" height="400" viewBox="0 0 2400 1600">
<defs>
  <clipPath id="clip130">
    <rect x="0" y="0" width="2400" height="1600"/>
  </clipPath>
</defs>
<path clip-path="url(#clip130)" d="
M0 1600 L2400 1600 L2400 0 L0 0  Z
  " fill="#ffffff" fill-rule="evenodd" fill-opacity="1"/>
<defs>
  <clipPath id="clip131">
    <rect x="480" y="0" width="1681" height="1600"/>
  </clipPath>
</defs>
<path clip-path="url(#clip130)" d="
M175.445 1423.18 L2352.76 1423.18 L2352.76 123.472 L175.445 123.472  Z
  " fill="#ffffff" fill-rule="evenodd" fill-opacity="1"/>
<defs>
  <clipPath id="clip132">
    <rect x="175" y="123" width="2178" height="1301"/>
  </clipPath>
</defs>
<polyline clip-path="url(#clip132)" style="stroke:#000000; stroke-linecap:butt; stroke-linejoin:round; stroke-width:2; stroke-opacity:0.1; fill:none" points="
  175.445,1423.18 175.445,123.472 
  "/>
<polyline clip-path="url(#clip132)" style="stroke:#000000; stroke-linecap:butt; stroke-linejoin:round; stroke-width:2; stroke-opacity:0.1; fill:none" points="
  538.33,1423.18 538.33,123.472 
  "/>
<polyline clip-path="url(#clip132)" style="stroke:#000000; stroke-linecap:butt; stroke-linejoin:round; stroke-width:2; stroke-opacity:0.1; fill:none" points="
  901.215,1423.18 901.215,123.472 
  "/>
<polyline clip-path="url(#clip132)" style="stroke:#000000; stroke-linecap:butt; stroke-linejoin:round; stroke-width:2; stroke-opacity:0.1; fill:none" points="
  1264.1,1423.18 1264.1,123.472 
  "/>
<polyline clip-path="url(#clip132)" style="stroke:#000000; stroke-linecap:butt; stroke-linejoin:round; stroke-width:2; stroke-opacity:0.1; fill:none" points="
  1626.99,1423.18 1626.99,123.472 
  "/>
<polyline clip-path="url(#clip132)" style="stroke:#000000; stroke-linecap:butt; stroke-linejoin:round; stroke-width:2; stroke-opacity:0.1; fill:none" points="
  1989.87,1423.18 1989.87,123.472 
  "/>
<polyline clip-path="url(#clip132)" style="stroke:#000000; stroke-linecap:butt; stroke-linejoin:round; stroke-width:2; stroke-opacity:0.1; fill:none" points="
  2352.76,1423.18 2352.76,123.472 
  "/>
<polyline clip-path="url(#clip130)" style="stroke:#000000; stroke-linecap:butt; stroke-linejoin:round; stroke-width:4; stroke-opacity:1; fill:none" points="
  175.445,1423.18 2352.76,1423.18 
  "/>
<polyline clip-path="url(#clip130)" style="stroke:#000000; stroke-linecap:butt; stroke-linejoin:round; stroke-width:4; stroke-opacity:1; fill:none" points="
  175.445,1423.18 175.445,1404.28 
  "/>
<polyline clip-path="url(#clip130)" style="stroke:#000000; stroke-linecap:butt; stroke-linejoin:round; stroke-width:4; stroke-opacity:1; fill:none" points="
  538.33,1423.18 538.33,1404.28 
  "/>
<polyline clip-path="url(#clip130)" style="stroke:#000000; stroke-linecap:butt; stroke-linejoin:round; stroke-width:4; stroke-opacity:1; fill:none" points="
  901.215,1423.18 901.215,1404.28 
  "/>
<polyline clip-path="url(#clip130)" style="stroke:#000000; stroke-linecap:butt; stroke-linejoin:round; stroke-width:4; stroke-opacity:1; fill:none" points="
  1264.1,1423.18 1264.1,1404.28 
  "/>
<polyline clip-path="url(#clip130)" style="stroke:#000000; stroke-linecap:butt; stroke-linejoin:round; stroke-width:4; stroke-opacity:1; fill:none" points="
  1626.99,1423.18 1626.99,1404.28 
  "/>
<polyline clip-path="url(#clip130)" style="stroke:#000000; stroke-linecap:butt; stroke-linejoin:round; stroke-width:4; stroke-opacity:1; fill:none" points="
  1989.87,1423.18 1989.87,1404.28 
  "/>
<polyline clip-path="url(#clip130)" style="stroke:#000000; stroke-linecap:butt; stroke-linejoin:round; stroke-width:4; stroke-opacity:1; fill:none" points="
  2352.76,1423.18 2352.76,1404.28 
  "/>
<path clip-path="url(#clip130)" d="M175.445 1452.37 Q171.834 1452.37 170.005 1455.94 Q168.2 1459.48 168.2 1466.61 Q168.2 1473.71 170.005 1477.28 Q171.834 1480.82 175.445 1480.82 Q179.079 1480.82 180.885 1477.28 Q182.714 1473.71 182.714 1466.61 Q182.714 1459.48 180.885 1455.94 Q179.079 1452.37 175.445 1452.37 M175.445 1448.67 Q181.255 1448.67 184.311 1453.27 Q187.39 1457.86 187.39 1466.61 Q187.39 1475.33 184.311 1479.94 Q181.255 1484.52 175.445 1484.52 Q169.635 1484.52 166.556 1479.94 Q163.501 1475.33 163.501 1466.61 Q163.501 1457.86 166.556 1453.27 Q169.635 1448.67 175.445 1448.67 Z" fill="#000000" fill-rule="evenodd" fill-opacity="1" /><path clip-path="url(#clip130)" d="M528.712 1479.92 L536.351 1479.92 L536.351 1453.55 L528.041 1455.22 L528.041 1450.96 L536.305 1449.29 L540.981 1449.29 L540.981 1479.92 L548.62 1479.92 L548.62 1483.85 L528.712 1483.85 L528.712 1479.92 Z" fill="#000000" fill-rule="evenodd" fill-opacity="1" /><path clip-path="url(#clip130)" d="M895.868 1479.92 L912.188 1479.92 L912.188 1483.85 L890.243 1483.85 L890.243 1479.92 Q892.905 1477.16 897.489 1472.53 Q902.095 1467.88 903.276 1466.54 Q905.521 1464.01 906.401 1462.28 Q907.303 1460.52 907.303 1458.83 Q907.303 1456.07 905.359 1454.34 Q903.438 1452.6 900.336 1452.6 Q898.137 1452.6 895.683 1453.37 Q893.253 1454.13 890.475 1455.68 L890.475 1450.96 Q893.299 1449.82 895.753 1449.25 Q898.206 1448.67 900.243 1448.67 Q905.614 1448.67 908.808 1451.35 Q912.002 1454.04 912.002 1458.53 Q912.002 1460.66 911.192 1462.58 Q910.405 1464.48 908.299 1467.07 Q907.72 1467.74 904.618 1470.96 Q901.516 1474.15 895.868 1479.92 Z" fill="#000000" fill-rule="evenodd" fill-opacity="1" /><path clip-path="url(#clip130)" d="M1268.35 1465.22 Q1271.7 1465.94 1273.58 1468.2 Q1275.48 1470.47 1275.48 1473.81 Q1275.48 1478.92 1271.96 1481.72 Q1268.44 1484.52 1261.96 1484.52 Q1259.78 1484.52 1257.47 1484.08 Q1255.18 1483.67 1252.72 1482.81 L1252.72 1478.3 Q1254.67 1479.43 1256.98 1480.01 Q1259.3 1480.59 1261.82 1480.59 Q1266.22 1480.59 1268.51 1478.85 Q1270.83 1477.12 1270.83 1473.81 Q1270.83 1470.75 1268.67 1469.04 Q1266.54 1467.3 1262.72 1467.3 L1258.7 1467.3 L1258.7 1463.46 L1262.91 1463.46 Q1266.36 1463.46 1268.19 1462.09 Q1270.01 1460.7 1270.01 1458.11 Q1270.01 1455.45 1268.12 1454.04 Q1266.24 1452.6 1262.72 1452.6 Q1260.8 1452.6 1258.6 1453.02 Q1256.4 1453.44 1253.76 1454.31 L1253.76 1450.15 Q1256.43 1449.41 1258.74 1449.04 Q1261.08 1448.67 1263.14 1448.67 Q1268.46 1448.67 1271.57 1451.1 Q1274.67 1453.5 1274.67 1457.63 Q1274.67 1460.5 1273.02 1462.49 Q1271.38 1464.45 1268.35 1465.22 Z" fill="#000000" fill-rule="evenodd" fill-opacity="1" /><path clip-path="url(#clip130)" d="M1629.99 1453.37 L1618.19 1471.81 L1629.99 1471.81 L1629.99 1453.37 M1628.77 1449.29 L1634.65 1449.29 L1634.65 1471.81 L1639.58 1471.81 L1639.58 1475.7 L1634.65 1475.7 L1634.65 1483.85 L1629.99 1483.85 L1629.99 1475.7 L1614.39 1475.7 L1614.39 1471.19 L1628.77 1449.29 Z" fill="#000000" fill-rule="evenodd" fill-opacity="1" /><path clip-path="url(#clip130)" d="M1980.15 1449.29 L1998.51 1449.29 L1998.51 1453.23 L1984.43 1453.23 L1984.43 1461.7 Q1985.45 1461.35 1986.47 1461.19 Q1987.49 1461 1988.51 1461 Q1994.29 1461 1997.67 1464.18 Q2001.05 1467.35 2001.05 1472.76 Q2001.05 1478.34 1997.58 1481.44 Q1994.11 1484.52 1987.79 1484.52 Q1985.61 1484.52 1983.34 1484.15 Q1981.1 1483.78 1978.69 1483.04 L1978.69 1478.34 Q1980.77 1479.48 1983 1480.03 Q1985.22 1480.59 1987.69 1480.59 Q1991.7 1480.59 1994.04 1478.48 Q1996.38 1476.38 1996.38 1472.76 Q1996.38 1469.15 1994.04 1467.05 Q1991.7 1464.94 1987.69 1464.94 Q1985.82 1464.94 1983.94 1465.36 Q1982.09 1465.77 1980.15 1466.65 L1980.15 1449.29 Z" fill="#000000" fill-rule="evenodd" fill-opacity="1" /><path clip-path="url(#clip130)" d="M2353.16 1464.71 Q2350.01 1464.71 2348.16 1466.86 Q2346.33 1469.01 2346.33 1472.76 Q2346.33 1476.49 2348.16 1478.67 Q2350.01 1480.82 2353.16 1480.82 Q2356.31 1480.82 2358.14 1478.67 Q2359.99 1476.49 2359.99 1472.76 Q2359.99 1469.01 2358.14 1466.86 Q2356.31 1464.71 2353.16 1464.71 M2362.44 1450.06 L2362.44 1454.31 Q2360.68 1453.48 2358.88 1453.04 Q2357.1 1452.6 2355.34 1452.6 Q2350.71 1452.6 2348.25 1455.73 Q2345.82 1458.85 2345.48 1465.17 Q2346.84 1463.16 2348.9 1462.09 Q2350.96 1461 2353.44 1461 Q2358.65 1461 2361.66 1464.18 Q2364.69 1467.32 2364.69 1472.76 Q2364.69 1478.09 2361.54 1481.31 Q2358.39 1484.52 2353.16 1484.52 Q2347.17 1484.52 2343.99 1479.94 Q2340.82 1475.33 2340.82 1466.61 Q2340.82 1458.41 2344.71 1453.55 Q2348.6 1448.67 2355.15 1448.67 Q2356.91 1448.67 2358.69 1449.01 Q2360.5 1449.36 2362.44 1450.06 Z" fill="#000000" fill-rule="evenodd" fill-opacity="1" /><path clip-path="url(#clip130)" d="M1164.35 1532.4 L1151.46 1549.74 L1165.02 1568.04 L1158.11 1568.04 L1147.74 1554.04 L1137.36 1568.04 L1130.45 1568.04 L1144.3 1549.39 L1131.63 1532.4 L1138.54 1532.4 L1147.99 1545.1 L1157.44 1532.4 L1164.35 1532.4 Z" fill="#000000" fill-rule="evenodd" fill-opacity="1" /><path clip-path="url(#clip130)" d="M1170.33 1547.58 L1187.49 1547.58 L1187.49 1552.8 L1170.33 1552.8 L1170.33 1547.58 Z" fill="#000000" fill-rule="evenodd" fill-opacity="1" /><path clip-path="url(#clip130)" d="M1190.86 1532.4 L1197.07 1532.4 L1208.21 1562.31 L1219.35 1532.4 L1225.56 1532.4 L1212.19 1568.04 L1204.23 1568.04 L1190.86 1532.4 Z" fill="#000000" fill-rule="evenodd" fill-opacity="1" /><path clip-path="url(#clip130)" d="M1249.84 1550.12 Q1242.74 1550.12 1240.01 1551.75 Q1237.27 1553.37 1237.27 1557.29 Q1237.27 1560.4 1239.31 1562.25 Q1241.37 1564.07 1244.91 1564.07 Q1249.78 1564.07 1252.71 1560.63 Q1255.67 1557.16 1255.67 1551.43 L1255.67 1550.12 L1249.84 1550.12 M1261.52 1547.71 L1261.52 1568.04 L1255.67 1568.04 L1255.67 1562.63 Q1253.66 1565.88 1250.67 1567.44 Q1247.68 1568.97 1243.35 1568.97 Q1237.87 1568.97 1234.63 1565.91 Q1231.41 1562.82 1231.41 1557.67 Q1231.41 1551.65 1235.42 1548.6 Q1239.47 1545.54 1247.45 1545.54 L1255.67 1545.54 L1255.67 1544.97 Q1255.67 1540.93 1252.99 1538.73 Q1250.35 1536.5 1245.54 1536.5 Q1242.49 1536.5 1239.59 1537.23 Q1236.7 1537.97 1234.02 1539.43 L1234.02 1534.02 Q1237.24 1532.78 1240.26 1532.17 Q1243.28 1531.54 1246.15 1531.54 Q1253.88 1531.54 1257.7 1535.55 Q1261.52 1539.56 1261.52 1547.71 Z" fill="#000000" fill-rule="evenodd" fill-opacity="1" /><path clip-path="url(#clip130)" d="M1273.59 1518.52 L1279.44 1518.52 L1279.44 1568.04 L1273.59 1568.04 L1273.59 1518.52 Z" fill="#000000" fill-rule="evenodd" fill-opacity="1" /><path clip-path="url(#clip130)" d="M1291.09 1553.98 L1291.09 1532.4 L1296.95 1532.4 L1296.95 1553.75 Q1296.95 1558.81 1298.92 1561.36 Q1300.89 1563.87 1304.84 1563.87 Q1309.58 1563.87 1312.32 1560.85 Q1315.09 1557.83 1315.09 1552.61 L1315.09 1532.4 L1320.95 1532.4 L1320.95 1568.04 L1315.09 1568.04 L1315.09 1562.57 Q1312.96 1565.82 1310.12 1567.41 Q1307.32 1568.97 1303.6 1568.97 Q1297.46 1568.97 1294.27 1565.15 Q1291.09 1561.33 1291.09 1553.98 M1305.83 1531.54 L1305.83 1531.54 Z" fill="#000000" fill-rule="evenodd" fill-opacity="1" /><path clip-path="url(#clip130)" d="M1363.5 1548.76 L1363.5 1551.62 L1336.57 1551.62 Q1336.96 1557.67 1340.2 1560.85 Q1343.48 1564 1349.31 1564 Q1352.68 1564 1355.83 1563.17 Q1359.01 1562.35 1362.13 1560.69 L1362.13 1566.23 Q1358.98 1567.57 1355.67 1568.27 Q1352.36 1568.97 1348.96 1568.97 Q1340.43 1568.97 1335.43 1564 Q1330.46 1559.04 1330.46 1550.57 Q1330.46 1541.82 1335.17 1536.69 Q1339.92 1531.54 1347.94 1531.54 Q1355.13 1531.54 1359.3 1536.18 Q1363.5 1540.8 1363.5 1548.76 M1357.64 1547.04 Q1357.58 1542.23 1354.94 1539.37 Q1352.33 1536.5 1348 1536.5 Q1343.1 1536.5 1340.14 1539.27 Q1337.21 1542.04 1336.77 1547.07 L1357.64 1547.04 Z" fill="#000000" fill-rule="evenodd" fill-opacity="1" /><path clip-path="url(#clip130)" d="M1395.84 1533.45 L1395.84 1538.98 Q1393.36 1537.71 1390.68 1537.07 Q1388.01 1536.44 1385.14 1536.44 Q1380.78 1536.44 1378.59 1537.77 Q1376.42 1539.11 1376.42 1541.79 Q1376.42 1543.82 1377.98 1545 Q1379.54 1546.15 1384.25 1547.2 L1386.26 1547.64 Q1392.5 1548.98 1395.11 1551.43 Q1397.75 1553.85 1397.75 1558.21 Q1397.75 1563.17 1393.8 1566.07 Q1389.89 1568.97 1383.01 1568.97 Q1380.15 1568.97 1377.03 1568.39 Q1373.94 1567.85 1370.5 1566.74 L1370.5 1560.69 Q1373.75 1562.38 1376.9 1563.24 Q1380.05 1564.07 1383.14 1564.07 Q1387.28 1564.07 1389.5 1562.66 Q1391.73 1561.23 1391.73 1558.65 Q1391.73 1556.27 1390.11 1554.99 Q1388.52 1553.72 1383.08 1552.54 L1381.04 1552.07 Q1375.6 1550.92 1373.18 1548.56 Q1370.76 1546.18 1370.76 1542.04 Q1370.76 1537.01 1374.32 1534.27 Q1377.89 1531.54 1384.44 1531.54 Q1387.69 1531.54 1390.56 1532.01 Q1393.42 1532.49 1395.84 1533.45 Z" fill="#000000" fill-rule="evenodd" fill-opacity="1" /><polyline clip-path="url(#clip132)" style="stroke:#000000; stroke-linecap:butt; stroke-linejoin:round; stroke-width:2; stroke-opacity:0.1; fill:none" points="
  175.445,1423.18 2352.76,1423.18 
  "/>
<polyline clip-path="url(#clip132)" style="stroke:#000000; stroke-linecap:butt; stroke-linejoin:round; stroke-width:2; stroke-opacity:0.1; fill:none" points="
  175.445,1163.24 2352.76,1163.24 
  "/>
<polyline clip-path="url(#clip132)" style="stroke:#000000; stroke-linecap:butt; stroke-linejoin:round; stroke-width:2; stroke-opacity:0.1; fill:none" points="
  175.445,903.297 2352.76,903.297 
  "/>
<polyline clip-path="url(#clip132)" style="stroke:#000000; stroke-linecap:butt; stroke-linejoin:round; stroke-width:2; stroke-opacity:0.1; fill:none" points="
  175.445,643.355 2352.76,643.355 
  "/>
<polyline clip-path="url(#clip132)" style="stroke:#000000; stroke-linecap:butt; stroke-linejoin:round; stroke-width:2; stroke-opacity:0.1; fill:none" points="
  175.445,383.414 2352.76,383.414 
  "/>
<polyline clip-path="url(#clip132)" style="stroke:#000000; stroke-linecap:butt; stroke-linejoin:round; stroke-width:2; stroke-opacity:0.1; fill:none" points="
  175.445,123.472 2352.76,123.472 
  "/>
<polyline clip-path="url(#clip130)" style="stroke:#000000; stroke-linecap:butt; stroke-linejoin:round; stroke-width:4; stroke-opacity:1; fill:none" points="
  175.445,1423.18 175.445,123.472 
  "/>
<polyline clip-path="url(#clip130)" style="stroke:#000000; stroke-linecap:butt; stroke-linejoin:round; stroke-width:4; stroke-opacity:1; fill:none" points="
  175.445,1423.18 194.343,1423.18 
  "/>
<polyline clip-path="url(#clip130)" style="stroke:#000000; stroke-linecap:butt; stroke-linejoin:round; stroke-width:4; stroke-opacity:1; fill:none" points="
  175.445,1163.24 194.343,1163.24 
  "/>
<polyline clip-path="url(#clip130)" style="stroke:#000000; stroke-linecap:butt; stroke-linejoin:round; stroke-width:4; stroke-opacity:1; fill:none" points="
  175.445,903.297 194.343,903.297 
  "/>
<polyline clip-path="url(#clip130)" style="stroke:#000000; stroke-linecap:butt; stroke-linejoin:round; stroke-width:4; stroke-opacity:1; fill:none" points="
  175.445,643.355 194.343,643.355 
  "/>
<polyline clip-path="url(#clip130)" style="stroke:#000000; stroke-linecap:butt; stroke-linejoin:round; stroke-width:4; stroke-opacity:1; fill:none" points="
  175.445,383.414 194.343,383.414 
  "/>
<polyline clip-path="url(#clip130)" style="stroke:#000000; stroke-linecap:butt; stroke-linejoin:round; stroke-width:4; stroke-opacity:1; fill:none" points="
  175.445,123.472 194.343,123.472 
  "/>
<path clip-path="url(#clip130)" d="M127.501 1408.98 Q123.89 1408.98 122.061 1412.54 Q120.255 1416.08 120.255 1423.21 Q120.255 1430.32 122.061 1433.89 Q123.89 1437.43 127.501 1437.43 Q131.135 1437.43 132.941 1433.89 Q134.769 1430.32 134.769 1423.21 Q134.769 1416.08 132.941 1412.54 Q131.135 1408.98 127.501 1408.98 M127.501 1405.27 Q133.311 1405.27 136.367 1409.88 Q139.445 1414.46 139.445 1423.21 Q139.445 1431.94 136.367 1436.55 Q133.311 1441.13 127.501 1441.13 Q121.691 1441.13 118.612 1436.55 Q115.556 1431.94 115.556 1423.21 Q115.556 1414.46 118.612 1409.88 Q121.691 1405.27 127.501 1405.27 Z" fill="#000000" fill-rule="evenodd" fill-opacity="1" /><path clip-path="url(#clip130)" d="M119.538 1176.58 L127.177 1176.58 L127.177 1150.22 L118.867 1151.88 L118.867 1147.62 L127.13 1145.96 L131.806 1145.96 L131.806 1176.58 L139.445 1176.58 L139.445 1180.52 L119.538 1180.52 L119.538 1176.58 Z" fill="#000000" fill-rule="evenodd" fill-opacity="1" /><path clip-path="url(#clip130)" d="M123.126 916.642 L139.445 916.642 L139.445 920.577 L117.501 920.577 L117.501 916.642 Q120.163 913.887 124.746 909.257 Q129.353 904.605 130.533 903.262 Q132.779 900.739 133.658 899.003 Q134.561 897.244 134.561 895.554 Q134.561 892.799 132.617 891.063 Q130.695 889.327 127.593 889.327 Q125.394 889.327 122.941 890.091 Q120.51 890.855 117.732 892.406 L117.732 887.683 Q120.556 886.549 123.01 885.97 Q125.464 885.392 127.501 885.392 Q132.871 885.392 136.066 888.077 Q139.26 890.762 139.26 895.253 Q139.26 897.382 138.45 899.304 Q137.663 901.202 135.556 903.794 Q134.978 904.466 131.876 907.683 Q128.774 910.878 123.126 916.642 Z" fill="#000000" fill-rule="evenodd" fill-opacity="1" /><path clip-path="url(#clip130)" d="M132.316 642.001 Q135.672 642.719 137.547 644.987 Q139.445 647.256 139.445 650.589 Q139.445 655.705 135.927 658.506 Q132.408 661.307 125.927 661.307 Q123.751 661.307 121.436 660.867 Q119.144 660.45 116.691 659.594 L116.691 655.08 Q118.635 656.214 120.95 656.793 Q123.265 657.371 125.788 657.371 Q130.186 657.371 132.478 655.635 Q134.792 653.899 134.792 650.589 Q134.792 647.533 132.64 645.82 Q130.51 644.084 126.691 644.084 L122.663 644.084 L122.663 640.242 L126.876 640.242 Q130.325 640.242 132.154 638.876 Q133.982 637.487 133.982 634.895 Q133.982 632.233 132.084 630.821 Q130.209 629.385 126.691 629.385 Q124.769 629.385 122.57 629.802 Q120.371 630.219 117.732 631.098 L117.732 626.932 Q120.394 626.191 122.709 625.821 Q125.047 625.45 127.107 625.45 Q132.431 625.45 135.533 627.881 Q138.635 630.288 138.635 634.409 Q138.635 637.279 136.992 639.27 Q135.348 641.237 132.316 642.001 Z" fill="#000000" fill-rule="evenodd" fill-opacity="1" /><path clip-path="url(#clip130)" d="M129.862 370.208 L118.056 388.657 L129.862 388.657 L129.862 370.208 M128.635 366.134 L134.515 366.134 L134.515 388.657 L139.445 388.657 L139.445 392.546 L134.515 392.546 L134.515 400.694 L129.862 400.694 L129.862 392.546 L114.26 392.546 L114.26 388.032 L128.635 366.134 Z" fill="#000000" fill-rule="evenodd" fill-opacity="1" /><path clip-path="url(#clip130)" d="M118.543 106.192 L136.899 106.192 L136.899 110.127 L122.825 110.127 L122.825 118.599 Q123.843 118.252 124.862 118.09 Q125.88 117.905 126.899 117.905 Q132.686 117.905 136.066 121.076 Q139.445 124.248 139.445 129.664 Q139.445 135.243 135.973 138.345 Q132.501 141.423 126.181 141.423 Q124.005 141.423 121.737 141.053 Q119.492 140.683 117.084 139.942 L117.084 135.243 Q119.168 136.377 121.39 136.933 Q123.612 137.488 126.089 137.488 Q130.093 137.488 132.431 135.382 Q134.769 133.275 134.769 129.664 Q134.769 126.053 132.431 123.947 Q130.093 121.84 126.089 121.84 Q124.214 121.84 122.339 122.257 Q120.487 122.674 118.543 123.553 L118.543 106.192 Z" fill="#000000" fill-rule="evenodd" fill-opacity="1" /><path clip-path="url(#clip130)" d="M67.3143 887.336 Q73.68 889.818 75.6216 892.174 Q77.5631 894.529 77.5631 898.476 L77.5631 903.155 L72.6615 903.155 L72.6615 899.717 Q72.6615 897.298 71.5157 895.961 Q70.3699 894.625 66.1048 893.001 L63.4312 891.951 L28.3562 906.369 L28.3562 900.163 L56.238 889.023 L28.3562 877.883 L28.3562 871.676 L67.3143 887.336 Z" fill="#000000" fill-rule="evenodd" fill-opacity="1" /><path clip-path="url(#clip130)" d="M43.5384 867.698 L43.5384 850.542 L48.7583 850.542 L48.7583 867.698 L43.5384 867.698 Z" fill="#000000" fill-rule="evenodd" fill-opacity="1" /><path clip-path="url(#clip130)" d="M28.3562 847.168 L28.3562 840.962 L58.275 829.822 L28.3562 818.682 L28.3562 812.475 L64.0042 825.843 L64.0042 833.8 L28.3562 847.168 Z" fill="#000000" fill-rule="evenodd" fill-opacity="1" /><path clip-path="url(#clip130)" d="M46.0847 788.19 Q46.0847 795.288 47.7079 798.025 Q49.3312 800.762 53.2461 800.762 Q56.3653 800.762 58.2114 798.725 Q60.0256 796.656 60.0256 793.123 Q60.0256 788.254 56.5881 785.325 Q53.1188 782.365 47.3897 782.365 L46.0847 782.365 L46.0847 788.19 M43.6657 776.509 L64.0042 776.509 L64.0042 782.365 L58.5933 782.365 Q61.8398 784.37 63.3994 787.362 Q64.9272 790.354 64.9272 794.683 Q64.9272 800.157 61.8716 803.404 Q58.7843 806.619 53.6281 806.619 Q47.6125 806.619 44.5569 802.608 Q41.5014 798.566 41.5014 790.577 L41.5014 782.365 L40.9285 782.365 Q36.8862 782.365 34.6901 785.039 Q32.4621 787.681 32.4621 792.487 Q32.4621 795.542 33.1941 798.439 Q33.9262 801.335 35.3903 804.009 L29.9795 804.009 Q28.7381 800.794 28.1334 797.77 Q27.4968 794.747 27.4968 791.882 Q27.4968 784.148 31.5072 780.328 Q35.5176 776.509 43.6657 776.509 Z" fill="#000000" fill-rule="evenodd" fill-opacity="1" /><path clip-path="url(#clip130)" d="M14.479 764.446 L14.479 758.589 L64.0042 758.589 L64.0042 764.446 L14.479 764.446 Z" fill="#000000" fill-rule="evenodd" fill-opacity="1" /><path clip-path="url(#clip130)" d="M49.9359 746.94 L28.3562 746.94 L28.3562 741.084 L49.7131 741.084 Q54.7739 741.084 57.3202 739.11 Q59.8346 737.137 59.8346 733.19 Q59.8346 728.448 56.8109 725.71 Q53.7872 722.941 48.5673 722.941 L28.3562 722.941 L28.3562 717.085 L64.0042 717.085 L64.0042 722.941 L58.5296 722.941 Q61.7762 725.074 63.3676 727.907 Q64.9272 730.708 64.9272 734.432 Q64.9272 740.574 61.1078 743.757 Q57.2883 746.94 49.9359 746.94 M27.4968 732.204 L27.4968 732.204 Z" fill="#000000" fill-rule="evenodd" fill-opacity="1" /><path clip-path="url(#clip130)" d="M44.7161 674.53 L47.5806 674.53 L47.5806 701.457 Q53.6281 701.075 56.8109 697.829 Q59.9619 694.55 59.9619 688.726 Q59.9619 685.352 59.1344 682.201 Q58.3069 679.018 56.6518 675.899 L62.1899 675.899 Q63.5267 679.05 64.227 682.36 Q64.9272 685.67 64.9272 689.076 Q64.9272 697.606 59.9619 702.603 Q54.9967 707.568 46.5303 707.568 Q37.7774 707.568 32.6531 702.858 Q27.4968 698.115 27.4968 690.094 Q27.4968 682.901 32.1438 678.732 Q36.7589 674.53 44.7161 674.53 M42.9973 680.387 Q38.1912 680.45 35.3266 683.092 Q32.4621 685.702 32.4621 690.031 Q32.4621 694.932 35.2312 697.892 Q38.0002 700.821 43.0292 701.266 L42.9973 680.387 Z" fill="#000000" fill-rule="evenodd" fill-opacity="1" /><path clip-path="url(#clip130)" d="M29.4065 642.192 L34.9447 642.192 Q33.6716 644.675 33.035 647.349 Q32.3984 650.022 32.3984 652.887 Q32.3984 657.247 33.7352 659.443 Q35.072 661.608 37.7456 661.608 Q39.7826 661.608 40.9603 660.048 Q42.1061 658.489 43.1565 653.778 L43.6021 651.773 Q44.9389 645.534 47.3897 642.924 Q49.8086 640.283 54.1691 640.283 Q59.1344 640.283 62.0308 644.229 Q64.9272 648.144 64.9272 655.019 Q64.9272 657.884 64.3543 661.003 Q63.8132 664.09 62.6992 667.528 L56.6518 667.528 Q58.3387 664.281 59.198 661.13 Q60.0256 657.979 60.0256 654.892 Q60.0256 650.754 58.6251 648.526 Q57.1929 646.298 54.6147 646.298 Q52.2276 646.298 50.9545 647.922 Q49.6813 649.513 48.5037 654.956 L48.0262 656.993 Q46.8804 662.435 44.5251 664.854 Q42.138 667.273 38.0002 667.273 Q32.9713 667.273 30.2341 663.709 Q27.4968 660.144 27.4968 653.587 Q27.4968 650.341 27.9743 647.476 Q28.4517 644.611 29.4065 642.192 Z" fill="#000000" fill-rule="evenodd" fill-opacity="1" /><path clip-path="url(#clip130)" d="M944.991 14.0809 L944.991 22.0612 Q940.332 19.8332 936.2 18.7395 Q932.068 17.6457 928.22 17.6457 Q921.536 17.6457 917.89 20.2383 Q914.285 22.8309 914.285 27.611 Q914.285 31.6214 916.675 33.6873 Q919.105 35.7128 925.83 36.9686 L930.772 37.9813 Q939.927 39.7232 944.261 44.1387 Q948.636 48.5136 948.636 55.8863 Q948.636 64.6767 942.722 69.2137 Q936.848 73.7508 925.465 73.7508 Q921.171 73.7508 916.31 72.7785 Q911.49 71.8063 906.304 69.9024 L906.304 61.4765 Q911.287 64.2716 916.067 65.6895 Q920.847 67.1073 925.465 67.1073 Q932.473 67.1073 936.281 64.3527 Q940.089 61.598 940.089 56.4939 Q940.089 52.0379 937.334 49.5264 Q934.62 47.0148 928.382 45.759 L923.399 44.7868 Q914.244 42.9639 910.153 39.075 Q906.061 35.1862 906.061 28.2591 Q906.061 20.2383 911.692 15.6203 Q917.363 11.0023 927.288 11.0023 Q931.542 11.0023 935.957 11.7719 Q940.373 12.5416 944.991 14.0809 Z" fill="#000000" fill-rule="evenodd" fill-opacity="1" /><path clip-path="url(#clip130)" d="M961.073 27.2059 L968.526 27.2059 L968.526 72.576 L961.073 72.576 L961.073 27.2059 M961.073 9.54393 L968.526 9.54393 L968.526 18.9825 L961.073 18.9825 L961.073 9.54393 Z" fill="#000000" fill-rule="evenodd" fill-opacity="1" /><path clip-path="url(#clip130)" d="M1019.45 35.9153 Q1022.24 30.8922 1026.13 28.5022 Q1030.02 26.1121 1035.29 26.1121 Q1042.37 26.1121 1046.22 31.0947 Q1050.07 36.0368 1050.07 45.1919 L1050.07 72.576 L1042.58 72.576 L1042.58 45.4349 Q1042.58 38.913 1040.27 35.7533 Q1037.96 32.5936 1033.22 32.5936 Q1027.43 32.5936 1024.06 36.4419 Q1020.7 40.2903 1020.7 46.9338 L1020.7 72.576 L1013.21 72.576 L1013.21 45.4349 Q1013.21 38.8725 1010.9 35.7533 Q1008.59 32.5936 1003.77 32.5936 Q998.057 32.5936 994.695 36.4824 Q991.333 40.3308 991.333 46.9338 L991.333 72.576 L983.839 72.576 L983.839 27.2059 L991.333 27.2059 L991.333 34.2544 Q993.885 30.082 997.45 28.0971 Q1001.01 26.1121 1005.92 26.1121 Q1010.86 26.1121 1014.3 28.6237 Q1017.79 31.1352 1019.45 35.9153 Z" fill="#000000" fill-rule="evenodd" fill-opacity="1" /><path clip-path="url(#clip130)" d="M1072.15 65.7705 L1072.15 89.8329 L1064.65 89.8329 L1064.65 27.2059 L1072.15 27.2059 L1072.15 34.0924 Q1074.5 30.0415 1078.06 28.0971 Q1081.67 26.1121 1086.65 26.1121 Q1094.91 26.1121 1100.06 32.6746 Q1105.24 39.2371 1105.24 49.9314 Q1105.24 60.6258 1100.06 67.1883 Q1094.91 73.7508 1086.65 73.7508 Q1081.67 73.7508 1078.06 71.8063 Q1074.5 69.8214 1072.15 65.7705 M1097.51 49.9314 Q1097.51 41.7081 1094.1 37.0496 Q1090.74 32.3505 1084.83 32.3505 Q1078.91 32.3505 1075.51 37.0496 Q1072.15 41.7081 1072.15 49.9314 Q1072.15 58.1548 1075.51 62.8538 Q1078.91 67.5124 1084.83 67.5124 Q1090.74 67.5124 1094.1 62.8538 Q1097.51 58.1548 1097.51 49.9314 Z" fill="#000000" fill-rule="evenodd" fill-opacity="1" /><path clip-path="url(#clip130)" d="M1117.6 9.54393 L1125.05 9.54393 L1125.05 72.576 L1117.6 72.576 L1117.6 9.54393 Z" fill="#000000" fill-rule="evenodd" fill-opacity="1" /><path clip-path="url(#clip130)" d="M1179.46 48.0275 L1179.46 51.6733 L1145.19 51.6733 Q1145.67 59.3701 1149.8 63.421 Q1153.98 67.4314 1161.39 67.4314 Q1165.68 67.4314 1169.69 66.3781 Q1173.75 65.3249 1177.72 63.2184 L1177.72 70.267 Q1173.7 71.9684 1169.49 72.8596 Q1165.28 73.7508 1160.94 73.7508 Q1150.09 73.7508 1143.73 67.4314 Q1137.41 61.1119 1137.41 50.3365 Q1137.41 39.1965 1143.4 32.6746 Q1149.44 26.1121 1159.65 26.1121 Q1168.8 26.1121 1174.11 32.0264 Q1179.46 37.9003 1179.46 48.0275 M1172 45.84 Q1171.92 39.7232 1168.56 36.0774 Q1165.24 32.4315 1159.73 32.4315 Q1153.49 32.4315 1149.72 35.9558 Q1146 39.4801 1145.43 45.8805 L1172 45.84 Z" fill="#000000" fill-rule="evenodd" fill-opacity="1" /><path clip-path="url(#clip130)" d="M1218.06 9.54393 L1225.52 9.54393 L1225.52 72.576 L1218.06 72.576 L1218.06 9.54393 Z" fill="#000000" fill-rule="evenodd" fill-opacity="1" /><path clip-path="url(#clip130)" d="M1241.11 27.2059 L1248.57 27.2059 L1248.57 72.576 L1241.11 72.576 L1241.11 27.2059 M1241.11 9.54393 L1248.57 9.54393 L1248.57 18.9825 L1241.11 18.9825 L1241.11 9.54393 Z" fill="#000000" fill-rule="evenodd" fill-opacity="1" /><path clip-path="url(#clip130)" d="M1301.88 45.1919 L1301.88 72.576 L1294.42 72.576 L1294.42 45.4349 Q1294.42 38.994 1291.91 35.7938 Q1289.4 32.5936 1284.38 32.5936 Q1278.34 32.5936 1274.86 36.4419 Q1271.37 40.2903 1271.37 46.9338 L1271.37 72.576 L1263.88 72.576 L1263.88 27.2059 L1271.37 27.2059 L1271.37 34.2544 Q1274.05 30.163 1277.65 28.1376 Q1281.3 26.1121 1286.04 26.1121 Q1293.85 26.1121 1297.86 30.9732 Q1301.88 35.7938 1301.88 45.1919 Z" fill="#000000" fill-rule="evenodd" fill-opacity="1" /><path clip-path="url(#clip130)" d="M1355.55 48.0275 L1355.55 51.6733 L1321.28 51.6733 Q1321.77 59.3701 1325.9 63.421 Q1330.07 67.4314 1337.48 67.4314 Q1341.78 67.4314 1345.79 66.3781 Q1349.84 65.3249 1353.81 63.2184 L1353.81 70.267 Q1349.8 71.9684 1345.58 72.8596 Q1341.37 73.7508 1337.04 73.7508 Q1326.18 73.7508 1319.82 67.4314 Q1313.5 61.1119 1313.5 50.3365 Q1313.5 39.1965 1319.5 32.6746 Q1325.53 26.1121 1335.74 26.1121 Q1344.9 26.1121 1350.2 32.0264 Q1355.55 37.9003 1355.55 48.0275 M1348.1 45.84 Q1348.02 39.7232 1344.65 36.0774 Q1341.33 32.4315 1335.82 32.4315 Q1329.58 32.4315 1325.82 35.9558 Q1322.09 39.4801 1321.52 45.8805 L1348.1 45.84 Z" fill="#000000" fill-rule="evenodd" fill-opacity="1" /><path clip-path="url(#clip130)" d="M1424.01 49.3643 Q1424.01 41.2625 1420.65 36.8065 Q1417.33 32.3505 1411.29 32.3505 Q1405.29 32.3505 1401.93 36.8065 Q1398.61 41.2625 1398.61 49.3643 Q1398.61 57.4256 1401.93 61.8816 Q1405.29 66.3376 1411.29 66.3376 Q1417.33 66.3376 1420.65 61.8816 Q1424.01 57.4256 1424.01 49.3643 M1431.46 66.9452 Q1431.46 78.5308 1426.32 84.1616 Q1421.17 89.8329 1410.56 89.8329 Q1406.63 89.8329 1403.15 89.2252 Q1399.66 88.6581 1396.38 87.4428 L1396.38 80.1917 Q1399.66 81.9741 1402.86 82.8248 Q1406.06 83.6755 1409.39 83.6755 Q1416.72 83.6755 1420.36 79.8271 Q1424.01 76.0193 1424.01 68.282 L1424.01 64.5957 Q1421.7 68.6061 1418.1 70.5911 Q1414.49 72.576 1409.47 72.576 Q1401.12 72.576 1396.02 66.2161 Q1390.91 59.8562 1390.91 49.3643 Q1390.91 38.832 1396.02 32.472 Q1401.12 26.1121 1409.47 26.1121 Q1414.49 26.1121 1418.1 28.0971 Q1421.7 30.082 1424.01 34.0924 L1424.01 27.2059 L1431.46 27.2059 L1431.46 66.9452 Z" fill="#000000" fill-rule="evenodd" fill-opacity="1" /><path clip-path="url(#clip130)" d="M1473.11 34.1734 Q1471.85 33.4443 1470.35 33.1202 Q1468.89 32.7556 1467.11 32.7556 Q1460.79 32.7556 1457.39 36.8875 Q1454.03 40.9789 1454.03 48.6757 L1454.03 72.576 L1446.53 72.576 L1446.53 27.2059 L1454.03 27.2059 L1454.03 34.2544 Q1456.38 30.1225 1460.14 28.1376 Q1463.91 26.1121 1469.3 26.1121 Q1470.07 26.1121 1471 26.2337 Q1471.93 26.3147 1473.07 26.5172 L1473.11 34.1734 Z" fill="#000000" fill-rule="evenodd" fill-opacity="1" /><path clip-path="url(#clip130)" d="M1501.54 49.7694 Q1492.51 49.7694 1489.03 51.8354 Q1485.54 53.9013 1485.54 58.8839 Q1485.54 62.8538 1488.14 65.2034 Q1490.77 67.5124 1495.27 67.5124 Q1501.46 67.5124 1505.19 63.1374 Q1508.96 58.7219 1508.96 51.4303 L1508.96 49.7694 L1501.54 49.7694 M1516.41 46.6907 L1516.41 72.576 L1508.96 72.576 L1508.96 65.6895 Q1506.41 69.8214 1502.6 71.8063 Q1498.79 73.7508 1493.28 73.7508 Q1486.31 73.7508 1482.18 69.8619 Q1478.09 65.9325 1478.09 59.3701 Q1478.09 51.7138 1483.19 47.825 Q1488.34 43.9361 1498.51 43.9361 L1508.96 43.9361 L1508.96 43.2069 Q1508.96 38.0623 1505.55 35.2672 Q1502.19 32.4315 1496.08 32.4315 Q1492.19 32.4315 1488.5 33.3632 Q1484.81 34.295 1481.41 36.1584 L1481.41 29.2718 Q1485.5 27.692 1489.35 26.9223 Q1493.2 26.1121 1496.85 26.1121 Q1506.69 26.1121 1511.55 31.2163 Q1516.41 36.3204 1516.41 46.6907 Z" fill="#000000" fill-rule="evenodd" fill-opacity="1" /><path clip-path="url(#clip130)" d="M1538.97 65.7705 L1538.97 89.8329 L1531.48 89.8329 L1531.48 27.2059 L1538.97 27.2059 L1538.97 34.0924 Q1541.32 30.0415 1544.89 28.0971 Q1548.49 26.1121 1553.48 26.1121 Q1561.74 26.1121 1566.89 32.6746 Q1572.07 39.2371 1572.07 49.9314 Q1572.07 60.6258 1566.89 67.1883 Q1561.74 73.7508 1553.48 73.7508 Q1548.49 73.7508 1544.89 71.8063 Q1541.32 69.8214 1538.97 65.7705 M1564.33 49.9314 Q1564.33 41.7081 1560.93 37.0496 Q1557.57 32.3505 1551.65 32.3505 Q1545.74 32.3505 1542.34 37.0496 Q1538.97 41.7081 1538.97 49.9314 Q1538.97 58.1548 1542.34 62.8538 Q1545.74 67.5124 1551.65 67.5124 Q1557.57 67.5124 1560.93 62.8538 Q1564.33 58.1548 1564.33 49.9314 Z" fill="#000000" fill-rule="evenodd" fill-opacity="1" /><path clip-path="url(#clip130)" d="M1622.14 45.1919 L1622.14 72.576 L1614.69 72.576 L1614.69 45.4349 Q1614.69 38.994 1612.17 35.7938 Q1609.66 32.5936 1604.64 32.5936 Q1598.6 32.5936 1595.12 36.4419 Q1591.64 40.2903 1591.64 46.9338 L1591.64 72.576 L1584.14 72.576 L1584.14 9.54393 L1591.64 9.54393 L1591.64 34.2544 Q1594.31 30.163 1597.92 28.1376 Q1601.56 26.1121 1606.3 26.1121 Q1614.12 26.1121 1618.13 30.9732 Q1622.14 35.7938 1622.14 45.1919 Z" fill="#000000" fill-rule="evenodd" fill-opacity="1" /><polyline clip-path="url(#clip132)" style="stroke:#009af9; stroke-linecap:butt; stroke-linejoin:round; stroke-width:4; stroke-opacity:1; fill:none" points="
  538.33,903.297 1264.1,643.355 1626.99,643.355 1989.87,383.414 
  "/>
<path clip-path="url(#clip130)" d="
M1985.83 270.476 L2280.18 270.476 L2280.18 166.796 L1985.83 166.796  Z
  " fill="#ffffff" fill-rule="evenodd" fill-opacity="1"/>
<polyline clip-path="url(#clip130)" style="stroke:#000000; stroke-linecap:butt; stroke-linejoin:round; stroke-width:4; stroke-opacity:1; fill:none" points="
  1985.83,270.476 2280.18,270.476 2280.18,166.796 1985.83,166.796 1985.83,270.476 
  "/>
<polyline clip-path="url(#clip130)" style="stroke:#009af9; stroke-linecap:butt; stroke-linejoin:round; stroke-width:4; stroke-opacity:1; fill:none" points="
  2010.02,218.636 2155.17,218.636 
  "/>
<path clip-path="url(#clip130)" d="M2193.21 238.323 Q2191.4 242.953 2189.69 244.365 Q2187.97 245.777 2185.1 245.777 L2181.7 245.777 L2181.7 242.212 L2184.2 242.212 Q2185.96 242.212 2186.93 241.379 Q2187.91 240.545 2189.09 237.443 L2189.85 235.499 L2179.36 209.99 L2183.88 209.99 L2191.98 230.268 L2200.08 209.99 L2204.6 209.99 L2193.21 238.323 Z" fill="#000000" fill-rule="evenodd" fill-opacity="1" /><path clip-path="url(#clip130)" d="M2211.89 231.981 L2219.53 231.981 L2219.53 205.615 L2211.22 207.282 L2211.22 203.022 L2219.48 201.356 L2224.16 201.356 L2224.16 231.981 L2231.79 231.981 L2231.79 235.916 L2211.89 235.916 L2211.89 231.981 Z" fill="#000000" fill-rule="evenodd" fill-opacity="1" /></svg>
