<?xml version="1.0" encoding="utf-8"?>
<svg xmlns="http://www.w3.org/2000/svg" xmlns:xlink="http://www.w3.org/1999/xlink" width="600" height="400" viewBox="0 0 2400 1600">
<defs>
  <clipPath id="clip100">
    <rect x="0" y="0" width="2400" height="1600"/>
  </clipPath>
</defs>
<path clip-path="url(#clip100)" d="
M0 1600 L2400 1600 L2400 0 L0 0  Z
  " fill="#ffffff" fill-rule="evenodd" fill-opacity="1"/>
<defs>
  <clipPath id="clip101">
    <rect x="480" y="0" width="1681" height="1600"/>
  </clipPath>
</defs>
<path clip-path="url(#clip100)" d="
M186.274 1486.45 L2352.76 1486.45 L2352.76 47.2441 L186.274 47.2441  Z
  " fill="#ffffff" fill-rule="evenodd" fill-opacity="1"/>
<defs>
  <clipPath id="clip102">
    <rect x="186" y="47" width="2167" height="1440"/>
  </clipPath>
</defs>
<polyline clip-path="url(#clip102)" style="stroke:#000000; stroke-linecap:butt; stroke-linejoin:round; stroke-width:2; stroke-opacity:0.1; fill:none" points="
  247.59,1486.45 247.59,47.2441 
  "/>
<polyline clip-path="url(#clip102)" style="stroke:#000000; stroke-linecap:butt; stroke-linejoin:round; stroke-width:2; stroke-opacity:0.1; fill:none" points="
  898.167,1486.45 898.167,47.2441 
  "/>
<polyline clip-path="url(#clip102)" style="stroke:#000000; stroke-linecap:butt; stroke-linejoin:round; stroke-width:2; stroke-opacity:0.1; fill:none" points="
  1548.75,1486.45 1548.75,47.2441 
  "/>
<polyline clip-path="url(#clip102)" style="stroke:#000000; stroke-linecap:butt; stroke-linejoin:round; stroke-width:2; stroke-opacity:0.1; fill:none" points="
  2199.32,1486.45 2199.32,47.2441 
  "/>
<polyline clip-path="url(#clip100)" style="stroke:#000000; stroke-linecap:butt; stroke-linejoin:round; stroke-width:4; stroke-opacity:1; fill:none" points="
  186.274,1486.45 2352.76,1486.45 
  "/>
<polyline clip-path="url(#clip100)" style="stroke:#000000; stroke-linecap:butt; stroke-linejoin:round; stroke-width:4; stroke-opacity:1; fill:none" points="
  247.59,1486.45 247.59,1467.55 
  "/>
<polyline clip-path="url(#clip100)" style="stroke:#000000; stroke-linecap:butt; stroke-linejoin:round; stroke-width:4; stroke-opacity:1; fill:none" points="
  898.167,1486.45 898.167,1467.55 
  "/>
<polyline clip-path="url(#clip100)" style="stroke:#000000; stroke-linecap:butt; stroke-linejoin:round; stroke-width:4; stroke-opacity:1; fill:none" points="
  1548.75,1486.45 1548.75,1467.55 
  "/>
<polyline clip-path="url(#clip100)" style="stroke:#000000; stroke-linecap:butt; stroke-linejoin:round; stroke-width:4; stroke-opacity:1; fill:none" points="
  2199.32,1486.45 2199.32,1467.55 
  "/>
<path clip-path="url(#clip100)" d="M247.59 1515.64 Q243.978 1515.64 242.15 1519.2 Q240.344 1522.75 240.344 1529.87 Q240.344 1536.98 242.15 1540.55 Q243.978 1544.09 247.59 1544.09 Q251.224 1544.09 253.029 1540.55 Q254.858 1536.98 254.858 1529.87 Q254.858 1522.75 253.029 1519.2 Q251.224 1515.64 247.59 1515.64 M247.59 1511.93 Q253.4 1511.93 256.455 1516.54 Q259.534 1521.12 259.534 1529.87 Q259.534 1538.6 256.455 1543.21 Q253.4 1547.79 247.59 1547.79 Q241.779 1547.79 238.701 1543.21 Q235.645 1538.6 235.645 1529.87 Q235.645 1521.12 238.701 1516.54 Q241.779 1511.93 247.59 1511.93 Z" fill="#000000" fill-rule="evenodd" fill-opacity="1" /><path clip-path="url(#clip100)" d="M888.549 1543.18 L896.188 1543.18 L896.188 1516.82 L887.878 1518.49 L887.878 1514.23 L896.142 1512.56 L900.818 1512.56 L900.818 1543.18 L908.457 1543.18 L908.457 1547.12 L888.549 1547.12 L888.549 1543.18 Z" fill="#000000" fill-rule="evenodd" fill-opacity="1" /><path clip-path="url(#clip100)" d="M1543.4 1543.18 L1559.72 1543.18 L1559.72 1547.12 L1537.77 1547.12 L1537.77 1543.18 Q1540.44 1540.43 1545.02 1535.8 Q1549.62 1531.15 1550.81 1529.81 Q1553.05 1527.28 1553.93 1525.55 Q1554.83 1523.79 1554.83 1522.1 Q1554.83 1519.34 1552.89 1517.61 Q1550.97 1515.87 1547.87 1515.87 Q1545.67 1515.87 1543.21 1516.63 Q1540.78 1517.4 1538 1518.95 L1538 1514.23 Q1540.83 1513.09 1543.28 1512.51 Q1545.74 1511.93 1547.77 1511.93 Q1553.14 1511.93 1556.34 1514.62 Q1559.53 1517.31 1559.53 1521.8 Q1559.53 1523.93 1558.72 1525.85 Q1557.94 1527.74 1555.83 1530.34 Q1555.25 1531.01 1552.15 1534.23 Q1549.05 1537.42 1543.4 1543.18 Z" fill="#000000" fill-rule="evenodd" fill-opacity="1" /><path clip-path="url(#clip100)" d="M2203.57 1528.49 Q2206.93 1529.2 2208.8 1531.47 Q2210.7 1533.74 2210.7 1537.07 Q2210.7 1542.19 2207.18 1544.99 Q2203.66 1547.79 2197.18 1547.79 Q2195.01 1547.79 2192.69 1547.35 Q2190.4 1546.93 2187.95 1546.08 L2187.95 1541.56 Q2189.89 1542.7 2192.21 1543.28 Q2194.52 1543.86 2197.04 1543.86 Q2201.44 1543.86 2203.73 1542.12 Q2206.05 1540.38 2206.05 1537.07 Q2206.05 1534.02 2203.89 1532.31 Q2201.77 1530.57 2197.95 1530.57 L2193.92 1530.57 L2193.92 1526.73 L2198.13 1526.73 Q2201.58 1526.73 2203.41 1525.36 Q2205.24 1523.97 2205.24 1521.38 Q2205.24 1518.72 2203.34 1517.31 Q2201.46 1515.87 2197.95 1515.87 Q2196.02 1515.87 2193.83 1516.29 Q2191.63 1516.7 2188.99 1517.58 L2188.99 1513.42 Q2191.65 1512.68 2193.96 1512.31 Q2196.3 1511.93 2198.36 1511.93 Q2203.69 1511.93 2206.79 1514.37 Q2209.89 1516.77 2209.89 1520.89 Q2209.89 1523.76 2208.25 1525.75 Q2206.6 1527.72 2203.57 1528.49 Z" fill="#000000" fill-rule="evenodd" fill-opacity="1" /><polyline clip-path="url(#clip102)" style="stroke:#000000; stroke-linecap:butt; stroke-linejoin:round; stroke-width:2; stroke-opacity:0.1; fill:none" points="
  186.274,1288.17 2352.76,1288.17 
  "/>
<polyline clip-path="url(#clip102)" style="stroke:#000000; stroke-linecap:butt; stroke-linejoin:round; stroke-width:2; stroke-opacity:0.1; fill:none" points="
  186.274,1024.59 2352.76,1024.59 
  "/>
<polyline clip-path="url(#clip102)" style="stroke:#000000; stroke-linecap:butt; stroke-linejoin:round; stroke-width:2; stroke-opacity:0.1; fill:none" points="
  186.274,761.019 2352.76,761.019 
  "/>
<polyline clip-path="url(#clip102)" style="stroke:#000000; stroke-linecap:butt; stroke-linejoin:round; stroke-width:2; stroke-opacity:0.1; fill:none" points="
  186.274,497.446 2352.76,497.446 
  "/>
<polyline clip-path="url(#clip102)" style="stroke:#000000; stroke-linecap:butt; stroke-linejoin:round; stroke-width:2; stroke-opacity:0.1; fill:none" points="
  186.274,233.873 2352.76,233.873 
  "/>
<polyline clip-path="url(#clip100)" style="stroke:#000000; stroke-linecap:butt; stroke-linejoin:round; stroke-width:4; stroke-opacity:1; fill:none" points="
  186.274,1486.45 186.274,47.2441 
  "/>
<polyline clip-path="url(#clip100)" style="stroke:#000000; stroke-linecap:butt; stroke-linejoin:round; stroke-width:4; stroke-opacity:1; fill:none" points="
  186.274,1288.17 205.172,1288.17 
  "/>
<polyline clip-path="url(#clip100)" style="stroke:#000000; stroke-linecap:butt; stroke-linejoin:round; stroke-width:4; stroke-opacity:1; fill:none" points="
  186.274,1024.59 205.172,1024.59 
  "/>
<polyline clip-path="url(#clip100)" style="stroke:#000000; stroke-linecap:butt; stroke-linejoin:round; stroke-width:4; stroke-opacity:1; fill:none" points="
  186.274,761.019 205.172,761.019 
  "/>
<polyline clip-path="url(#clip100)" style="stroke:#000000; stroke-linecap:butt; stroke-linejoin:round; stroke-width:4; stroke-opacity:1; fill:none" points="
  186.274,497.446 205.172,497.446 
  "/>
<polyline clip-path="url(#clip100)" style="stroke:#000000; stroke-linecap:butt; stroke-linejoin:round; stroke-width:4; stroke-opacity:1; fill:none" points="
  186.274,233.873 205.172,233.873 
  "/>
<path clip-path="url(#clip100)" d="M62.9365 1273.96 Q59.3254 1273.96 57.4967 1277.53 Q55.6912 1281.07 55.6912 1288.2 Q55.6912 1295.31 57.4967 1298.87 Q59.3254 1302.41 62.9365 1302.41 Q66.5707 1302.41 68.3763 1298.87 Q70.205 1295.31 70.205 1288.2 Q70.205 1281.07 68.3763 1277.53 Q66.5707 1273.96 62.9365 1273.96 M62.9365 1270.26 Q68.7467 1270.26 71.8022 1274.87 Q74.8809 1279.45 74.8809 1288.2 Q74.8809 1296.93 71.8022 1301.53 Q68.7467 1306.12 62.9365 1306.12 Q57.1264 1306.12 54.0477 1301.53 Q50.9921 1296.93 50.9921 1288.2 Q50.9921 1279.45 54.0477 1274.87 Q57.1264 1270.26 62.9365 1270.26 Z" fill="#000000" fill-rule="evenodd" fill-opacity="1" /><path clip-path="url(#clip100)" d="M83.0984 1299.57 L87.9827 1299.57 L87.9827 1305.45 L83.0984 1305.45 L83.0984 1299.57 Z" fill="#000000" fill-rule="evenodd" fill-opacity="1" /><path clip-path="url(#clip100)" d="M108.168 1273.96 Q104.557 1273.96 102.728 1277.53 Q100.922 1281.07 100.922 1288.2 Q100.922 1295.31 102.728 1298.87 Q104.557 1302.41 108.168 1302.41 Q111.802 1302.41 113.608 1298.87 Q115.436 1295.31 115.436 1288.2 Q115.436 1281.07 113.608 1277.53 Q111.802 1273.96 108.168 1273.96 M108.168 1270.26 Q113.978 1270.26 117.033 1274.87 Q120.112 1279.45 120.112 1288.2 Q120.112 1296.93 117.033 1301.53 Q113.978 1306.12 108.168 1306.12 Q102.358 1306.12 99.2789 1301.53 Q96.2234 1296.93 96.2234 1288.2 Q96.2234 1279.45 99.2789 1274.87 Q102.358 1270.26 108.168 1270.26 Z" fill="#000000" fill-rule="evenodd" fill-opacity="1" /><path clip-path="url(#clip100)" d="M138.33 1273.96 Q134.719 1273.96 132.89 1277.53 Q131.084 1281.07 131.084 1288.2 Q131.084 1295.31 132.89 1298.87 Q134.719 1302.41 138.33 1302.41 Q141.964 1302.41 143.769 1298.87 Q145.598 1295.31 145.598 1288.2 Q145.598 1281.07 143.769 1277.53 Q141.964 1273.96 138.33 1273.96 M138.33 1270.26 Q144.14 1270.26 147.195 1274.87 Q150.274 1279.45 150.274 1288.2 Q150.274 1296.93 147.195 1301.53 Q144.14 1306.12 138.33 1306.12 Q132.519 1306.12 129.441 1301.53 Q126.385 1296.93 126.385 1288.2 Q126.385 1279.45 129.441 1274.87 Q132.519 1270.26 138.33 1270.26 Z" fill="#000000" fill-rule="evenodd" fill-opacity="1" /><path clip-path="url(#clip100)" d="M63.9319 1010.39 Q60.3208 1010.39 58.4921 1013.96 Q56.6865 1017.5 56.6865 1024.63 Q56.6865 1031.73 58.4921 1035.3 Q60.3208 1038.84 63.9319 1038.84 Q67.5661 1038.84 69.3717 1035.3 Q71.2004 1031.73 71.2004 1024.63 Q71.2004 1017.5 69.3717 1013.96 Q67.5661 1010.39 63.9319 1010.39 M63.9319 1006.69 Q69.742 1006.69 72.7976 1011.29 Q75.8763 1015.88 75.8763 1024.63 Q75.8763 1033.35 72.7976 1037.96 Q69.742 1042.54 63.9319 1042.54 Q58.1217 1042.54 55.043 1037.96 Q51.9875 1033.35 51.9875 1024.63 Q51.9875 1015.88 55.043 1011.29 Q58.1217 1006.69 63.9319 1006.69 Z" fill="#000000" fill-rule="evenodd" fill-opacity="1" /><path clip-path="url(#clip100)" d="M84.0938 1035.99 L88.978 1035.99 L88.978 1041.87 L84.0938 1041.87 L84.0938 1035.99 Z" fill="#000000" fill-rule="evenodd" fill-opacity="1" /><path clip-path="url(#clip100)" d="M103.191 1037.94 L119.51 1037.94 L119.51 1041.87 L97.566 1041.87 L97.566 1037.94 Q100.228 1035.18 104.811 1030.55 Q109.418 1025.9 110.598 1024.56 Q112.844 1022.03 113.723 1020.3 Q114.626 1018.54 114.626 1016.85 Q114.626 1014.1 112.682 1012.36 Q110.76 1010.62 107.658 1010.62 Q105.459 1010.62 103.006 1011.39 Q100.575 1012.15 97.7974 1013.7 L97.7974 1008.98 Q100.621 1007.85 103.075 1007.27 Q105.529 1006.69 107.566 1006.69 Q112.936 1006.69 116.131 1009.37 Q119.325 1012.06 119.325 1016.55 Q119.325 1018.68 118.515 1020.6 Q117.728 1022.5 115.621 1025.09 Q115.043 1025.76 111.941 1028.98 Q108.839 1032.17 103.191 1037.94 Z" fill="#000000" fill-rule="evenodd" fill-opacity="1" /><path clip-path="url(#clip100)" d="M129.371 1007.31 L147.728 1007.31 L147.728 1011.25 L133.654 1011.25 L133.654 1019.72 Q134.672 1019.37 135.691 1019.21 Q136.709 1019.03 137.728 1019.03 Q143.515 1019.03 146.894 1022.2 Q150.274 1025.37 150.274 1030.78 Q150.274 1036.36 146.802 1039.47 Q143.33 1042.54 137.01 1042.54 Q134.834 1042.54 132.566 1042.17 Q130.32 1041.8 127.913 1041.06 L127.913 1036.36 Q129.996 1037.5 132.219 1038.05 Q134.441 1038.61 136.918 1038.61 Q140.922 1038.61 143.26 1036.5 Q145.598 1034.4 145.598 1030.78 Q145.598 1027.17 143.26 1025.07 Q140.922 1022.96 136.918 1022.96 Q135.043 1022.96 133.168 1023.38 Q131.316 1023.79 129.371 1024.67 L129.371 1007.31 Z" fill="#000000" fill-rule="evenodd" fill-opacity="1" /><path clip-path="url(#clip100)" d="M62.9365 746.818 Q59.3254 746.818 57.4967 750.383 Q55.6912 753.925 55.6912 761.054 Q55.6912 768.161 57.4967 771.725 Q59.3254 775.267 62.9365 775.267 Q66.5707 775.267 68.3763 771.725 Q70.205 768.161 70.205 761.054 Q70.205 753.925 68.3763 750.383 Q66.5707 746.818 62.9365 746.818 M62.9365 743.114 Q68.7467 743.114 71.8022 747.721 Q74.8809 752.304 74.8809 761.054 Q74.8809 769.781 71.8022 774.387 Q68.7467 778.971 62.9365 778.971 Q57.1264 778.971 54.0477 774.387 Q50.9921 769.781 50.9921 761.054 Q50.9921 752.304 54.0477 747.721 Q57.1264 743.114 62.9365 743.114 Z" fill="#000000" fill-rule="evenodd" fill-opacity="1" /><path clip-path="url(#clip100)" d="M83.0984 772.42 L87.9827 772.42 L87.9827 778.299 L83.0984 778.299 L83.0984 772.42 Z" fill="#000000" fill-rule="evenodd" fill-opacity="1" /><path clip-path="url(#clip100)" d="M98.2141 743.739 L116.57 743.739 L116.57 747.675 L102.496 747.675 L102.496 756.147 Q103.515 755.8 104.534 755.638 Q105.552 755.452 106.571 755.452 Q112.358 755.452 115.737 758.624 Q119.117 761.795 119.117 767.212 Q119.117 772.79 115.645 775.892 Q112.172 778.971 105.853 778.971 Q103.677 778.971 101.409 778.6 Q99.1632 778.23 96.7558 777.489 L96.7558 772.79 Q98.8391 773.924 101.061 774.48 Q103.284 775.036 105.76 775.036 Q109.765 775.036 112.103 772.929 Q114.441 770.823 114.441 767.212 Q114.441 763.6 112.103 761.494 Q109.765 759.387 105.76 759.387 Q103.885 759.387 102.01 759.804 Q100.159 760.221 98.2141 761.1 L98.2141 743.739 Z" fill="#000000" fill-rule="evenodd" fill-opacity="1" /><path clip-path="url(#clip100)" d="M138.33 746.818 Q134.719 746.818 132.89 750.383 Q131.084 753.925 131.084 761.054 Q131.084 768.161 132.89 771.725 Q134.719 775.267 138.33 775.267 Q141.964 775.267 143.769 771.725 Q145.598 768.161 145.598 761.054 Q145.598 753.925 143.769 750.383 Q141.964 746.818 138.33 746.818 M138.33 743.114 Q144.14 743.114 147.195 747.721 Q150.274 752.304 150.274 761.054 Q150.274 769.781 147.195 774.387 Q144.14 778.971 138.33 778.971 Q132.519 778.971 129.441 774.387 Q126.385 769.781 126.385 761.054 Q126.385 752.304 129.441 747.721 Q132.519 743.114 138.33 743.114 Z" fill="#000000" fill-rule="evenodd" fill-opacity="1" /><path clip-path="url(#clip100)" d="M63.9319 483.245 Q60.3208 483.245 58.4921 486.809 Q56.6865 490.351 56.6865 497.481 Q56.6865 504.587 58.4921 508.152 Q60.3208 511.694 63.9319 511.694 Q67.5661 511.694 69.3717 508.152 Q71.2004 504.587 71.2004 497.481 Q71.2004 490.351 69.3717 486.809 Q67.5661 483.245 63.9319 483.245 M63.9319 479.541 Q69.742 479.541 72.7976 484.147 Q75.8763 488.731 75.8763 497.481 Q75.8763 506.208 72.7976 510.814 Q69.742 515.397 63.9319 515.397 Q58.1217 515.397 55.043 510.814 Q51.9875 506.208 51.9875 497.481 Q51.9875 488.731 55.043 484.147 Q58.1217 479.541 63.9319 479.541 Z" fill="#000000" fill-rule="evenodd" fill-opacity="1" /><path clip-path="url(#clip100)" d="M84.0938 508.846 L88.978 508.846 L88.978 514.726 L84.0938 514.726 L84.0938 508.846 Z" fill="#000000" fill-rule="evenodd" fill-opacity="1" /><path clip-path="url(#clip100)" d="M97.9826 480.166 L120.205 480.166 L120.205 482.157 L107.658 514.726 L102.774 514.726 L114.58 484.101 L97.9826 484.101 L97.9826 480.166 Z" fill="#000000" fill-rule="evenodd" fill-opacity="1" /><path clip-path="url(#clip100)" d="M129.371 480.166 L147.728 480.166 L147.728 484.101 L133.654 484.101 L133.654 492.573 Q134.672 492.226 135.691 492.064 Q136.709 491.879 137.728 491.879 Q143.515 491.879 146.894 495.05 Q150.274 498.221 150.274 503.638 Q150.274 509.217 146.802 512.319 Q143.33 515.397 137.01 515.397 Q134.834 515.397 132.566 515.027 Q130.32 514.657 127.913 513.916 L127.913 509.217 Q129.996 510.351 132.219 510.907 Q134.441 511.462 136.918 511.462 Q140.922 511.462 143.26 509.356 Q145.598 507.249 145.598 503.638 Q145.598 500.027 143.26 497.921 Q140.922 495.814 136.918 495.814 Q135.043 495.814 133.168 496.231 Q131.316 496.647 129.371 497.527 L129.371 480.166 Z" fill="#000000" fill-rule="evenodd" fill-opacity="1" /><path clip-path="url(#clip100)" d="M53.7467 247.217 L61.3856 247.217 L61.3856 220.852 L53.0754 222.518 L53.0754 218.259 L61.3393 216.593 L66.0152 216.593 L66.0152 247.217 L73.654 247.217 L73.654 251.153 L53.7467 251.153 L53.7467 247.217 Z" fill="#000000" fill-rule="evenodd" fill-opacity="1" /><path clip-path="url(#clip100)" d="M83.0984 245.273 L87.9827 245.273 L87.9827 251.153 L83.0984 251.153 L83.0984 245.273 Z" fill="#000000" fill-rule="evenodd" fill-opacity="1" /><path clip-path="url(#clip100)" d="M108.168 219.671 Q104.557 219.671 102.728 223.236 Q100.922 226.778 100.922 233.907 Q100.922 241.014 102.728 244.579 Q104.557 248.12 108.168 248.12 Q111.802 248.12 113.608 244.579 Q115.436 241.014 115.436 233.907 Q115.436 226.778 113.608 223.236 Q111.802 219.671 108.168 219.671 M108.168 215.968 Q113.978 215.968 117.033 220.574 Q120.112 225.157 120.112 233.907 Q120.112 242.634 117.033 247.241 Q113.978 251.824 108.168 251.824 Q102.358 251.824 99.2789 247.241 Q96.2234 242.634 96.2234 233.907 Q96.2234 225.157 99.2789 220.574 Q102.358 215.968 108.168 215.968 Z" fill="#000000" fill-rule="evenodd" fill-opacity="1" /><path clip-path="url(#clip100)" d="M138.33 219.671 Q134.719 219.671 132.89 223.236 Q131.084 226.778 131.084 233.907 Q131.084 241.014 132.89 244.579 Q134.719 248.12 138.33 248.12 Q141.964 248.12 143.769 244.579 Q145.598 241.014 145.598 233.907 Q145.598 226.778 143.769 223.236 Q141.964 219.671 138.33 219.671 M138.33 215.968 Q144.14 215.968 147.195 220.574 Q150.274 225.157 150.274 233.907 Q150.274 242.634 147.195 247.241 Q144.14 251.824 138.33 251.824 Q132.519 251.824 129.441 247.241 Q126.385 242.634 126.385 233.907 Q126.385 225.157 129.441 220.574 Q132.519 215.968 138.33 215.968 Z" fill="#000000" fill-rule="evenodd" fill-opacity="1" /><polyline clip-path="url(#clip102)" style="stroke:#000000; stroke-linecap:butt; stroke-linejoin:round; stroke-width:4; stroke-opacity:1; fill:none" points="
  247.59,1288.17 332.75,1150.55 417.91,1015.3 503.071,884.706 588.231,761.019 673.391,646.353 758.552,542.668 843.713,451.739 928.873,375.121 1014.03,314.126 
  1099.19,269.797 1184.35,242.892 1269.51,233.873 1354.68,242.892 1439.84,269.797 1525,314.126 1610.16,375.121 1695.32,451.739 1780.48,542.668 1865.64,646.353 
  1950.8,761.02 2035.96,884.706 2121.12,1015.29 2206.28,1150.55 2291.44,1288.17 
  "/>
<circle clip-path="url(#clip102)" cx="247.59" cy="1445.72" r="14" fill="#0000ff" fill-rule="evenodd" fill-opacity="1" stroke="#000000" stroke-opacity="1" stroke-width="3.2"/>
<circle clip-path="url(#clip102)" cx="332.75" cy="1140.88" r="14" fill="#0000ff" fill-rule="evenodd" fill-opacity="1" stroke="#000000" stroke-opacity="1" stroke-width="3.2"/>
<circle clip-path="url(#clip102)" cx="417.91" cy="829.099" r="14" fill="#0000ff" fill-rule="evenodd" fill-opacity="1" stroke="#000000" stroke-opacity="1" stroke-width="3.2"/>
<circle clip-path="url(#clip102)" cx="503.071" cy="791.951" r="14" fill="#0000ff" fill-rule="evenodd" fill-opacity="1" stroke="#000000" stroke-opacity="1" stroke-width="3.2"/>
<circle clip-path="url(#clip102)" cx="588.231" cy="638.718" r="14" fill="#0000ff" fill-rule="evenodd" fill-opacity="1" stroke="#000000" stroke-opacity="1" stroke-width="3.2"/>
<circle clip-path="url(#clip102)" cx="673.391" cy="784.621" r="14" fill="#0000ff" fill-rule="evenodd" fill-opacity="1" stroke="#000000" stroke-opacity="1" stroke-width="3.2"/>
<circle clip-path="url(#clip102)" cx="758.552" cy="740.486" r="14" fill="#0000ff" fill-rule="evenodd" fill-opacity="1" stroke="#000000" stroke-opacity="1" stroke-width="3.2"/>
<circle clip-path="url(#clip102)" cx="843.713" cy="455.272" r="14" fill="#0000ff" fill-rule="evenodd" fill-opacity="1" stroke="#000000" stroke-opacity="1" stroke-width="3.2"/>
<circle clip-path="url(#clip102)" cx="928.873" cy="199.742" r="14" fill="#0000ff" fill-rule="evenodd" fill-opacity="1" stroke="#000000" stroke-opacity="1" stroke-width="3.2"/>
<circle clip-path="url(#clip102)" cx="1014.03" cy="487.479" r="14" fill="#0000ff" fill-rule="evenodd" fill-opacity="1" stroke="#000000" stroke-opacity="1" stroke-width="3.2"/>
<circle clip-path="url(#clip102)" cx="1099.19" cy="510.743" r="14" fill="#0000ff" fill-rule="evenodd" fill-opacity="1" stroke="#000000" stroke-opacity="1" stroke-width="3.2"/>
<circle clip-path="url(#clip102)" cx="1184.35" cy="226.073" r="14" fill="#0000ff" fill-rule="evenodd" fill-opacity="1" stroke="#000000" stroke-opacity="1" stroke-width="3.2"/>
<circle clip-path="url(#clip102)" cx="1269.51" cy="260.09" r="14" fill="#0000ff" fill-rule="evenodd" fill-opacity="1" stroke="#000000" stroke-opacity="1" stroke-width="3.2"/>
<circle clip-path="url(#clip102)" cx="1354.68" cy="87.9763" r="14" fill="#0000ff" fill-rule="evenodd" fill-opacity="1" stroke="#000000" stroke-opacity="1" stroke-width="3.2"/>
<circle clip-path="url(#clip102)" cx="1439.84" cy="507.045" r="14" fill="#0000ff" fill-rule="evenodd" fill-opacity="1" stroke="#000000" stroke-opacity="1" stroke-width="3.2"/>
<circle clip-path="url(#clip102)" cx="1525" cy="474.185" r="14" fill="#0000ff" fill-rule="evenodd" fill-opacity="1" stroke="#000000" stroke-opacity="1" stroke-width="3.2"/>
<circle clip-path="url(#clip102)" cx="1610.16" cy="187.514" r="14" fill="#0000ff" fill-rule="evenodd" fill-opacity="1" stroke="#000000" stroke-opacity="1" stroke-width="3.2"/>
<circle clip-path="url(#clip102)" cx="1695.32" cy="359.397" r="14" fill="#0000ff" fill-rule="evenodd" fill-opacity="1" stroke="#000000" stroke-opacity="1" stroke-width="3.2"/>
<circle clip-path="url(#clip102)" cx="1780.48" cy="475.449" r="14" fill="#0000ff" fill-rule="evenodd" fill-opacity="1" stroke="#000000" stroke-opacity="1" stroke-width="3.2"/>
<circle clip-path="url(#clip102)" cx="1865.64" cy="658.306" r="14" fill="#0000ff" fill-rule="evenodd" fill-opacity="1" stroke="#000000" stroke-opacity="1" stroke-width="3.2"/>
<circle clip-path="url(#clip102)" cx="1950.8" cy="671.067" r="14" fill="#0000ff" fill-rule="evenodd" fill-opacity="1" stroke="#000000" stroke-opacity="1" stroke-width="3.2"/>
<circle clip-path="url(#clip102)" cx="2035.96" cy="856.673" r="14" fill="#0000ff" fill-rule="evenodd" fill-opacity="1" stroke="#000000" stroke-opacity="1" stroke-width="3.2"/>
<circle clip-path="url(#clip102)" cx="2121.12" cy="697.144" r="14" fill="#0000ff" fill-rule="evenodd" fill-opacity="1" stroke="#000000" stroke-opacity="1" stroke-width="3.2"/>
<circle clip-path="url(#clip102)" cx="2206.28" cy="1445.54" r="14" fill="#0000ff" fill-rule="evenodd" fill-opacity="1" stroke="#000000" stroke-opacity="1" stroke-width="3.2"/>
<circle clip-path="url(#clip102)" cx="2291.44" cy="984.46" r="14" fill="#0000ff" fill-rule="evenodd" fill-opacity="1" stroke="#000000" stroke-opacity="1" stroke-width="3.2"/>
<circle clip-path="url(#clip102)" cx="247.59" cy="1256.94" r="14" fill="#ff0000" fill-rule="evenodd" fill-opacity="1" stroke="#000000" stroke-opacity="1" stroke-width="3.2"/>
<circle clip-path="url(#clip102)" cx="332.75" cy="1116.93" r="14" fill="#ff0000" fill-rule="evenodd" fill-opacity="1" stroke="#000000" stroke-opacity="1" stroke-width="3.2"/>
<circle clip-path="url(#clip102)" cx="417.91" cy="937.488" r="14" fill="#ff0000" fill-rule="evenodd" fill-opacity="1" stroke="#000000" stroke-opacity="1" stroke-width="3.2"/>
<circle clip-path="url(#clip102)" cx="503.071" cy="804.11" r="14" fill="#ff0000" fill-rule="evenodd" fill-opacity="1" stroke="#000000" stroke-opacity="1" stroke-width="3.2"/>
<circle clip-path="url(#clip102)" cx="588.231" cy="737.654" r="14" fill="#ff0000" fill-rule="evenodd" fill-opacity="1" stroke="#000000" stroke-opacity="1" stroke-width="3.2"/>
<circle clip-path="url(#clip102)" cx="673.391" cy="706.61" r="14" fill="#ff0000" fill-rule="evenodd" fill-opacity="1" stroke="#000000" stroke-opacity="1" stroke-width="3.2"/>
<circle clip-path="url(#clip102)" cx="758.552" cy="615.523" r="14" fill="#ff0000" fill-rule="evenodd" fill-opacity="1" stroke="#000000" stroke-opacity="1" stroke-width="3.2"/>
<circle clip-path="url(#clip102)" cx="843.713" cy="502.041" r="14" fill="#ff0000" fill-rule="evenodd" fill-opacity="1" stroke="#000000" stroke-opacity="1" stroke-width="3.2"/>
<circle clip-path="url(#clip102)" cx="928.873" cy="415.106" r="14" fill="#ff0000" fill-rule="evenodd" fill-opacity="1" stroke="#000000" stroke-opacity="1" stroke-width="3.2"/>
<circle clip-path="url(#clip102)" cx="1014.03" cy="396.083" r="14" fill="#ff0000" fill-rule="evenodd" fill-opacity="1" stroke="#000000" stroke-opacity="1" stroke-width="3.2"/>
<circle clip-path="url(#clip102)" cx="1099.19" cy="379.907" r="14" fill="#ff0000" fill-rule="evenodd" fill-opacity="1" stroke="#000000" stroke-opacity="1" stroke-width="3.2"/>
<circle clip-path="url(#clip102)" cx="1184.35" cy="310.593" r="14" fill="#ff0000" fill-rule="evenodd" fill-opacity="1" stroke="#000000" stroke-opacity="1" stroke-width="3.2"/>
<circle clip-path="url(#clip102)" cx="1269.51" cy="269.573" r="14" fill="#ff0000" fill-rule="evenodd" fill-opacity="1" stroke="#000000" stroke-opacity="1" stroke-width="3.2"/>
<circle clip-path="url(#clip102)" cx="1354.68" cy="277.606" r="14" fill="#ff0000" fill-rule="evenodd" fill-opacity="1" stroke="#000000" stroke-opacity="1" stroke-width="3.2"/>
<circle clip-path="url(#clip102)" cx="1439.84" cy="343.674" r="14" fill="#ff0000" fill-rule="evenodd" fill-opacity="1" stroke="#000000" stroke-opacity="1" stroke-width="3.2"/>
<circle clip-path="url(#clip102)" cx="1525" cy="362.116" r="14" fill="#ff0000" fill-rule="evenodd" fill-opacity="1" stroke="#000000" stroke-opacity="1" stroke-width="3.2"/>
<circle clip-path="url(#clip102)" cx="1610.16" cy="356.911" r="14" fill="#ff0000" fill-rule="evenodd" fill-opacity="1" stroke="#000000" stroke-opacity="1" stroke-width="3.2"/>
<circle clip-path="url(#clip102)" cx="1695.32" cy="392.956" r="14" fill="#ff0000" fill-rule="evenodd" fill-opacity="1" stroke="#000000" stroke-opacity="1" stroke-width="3.2"/>
<circle clip-path="url(#clip102)" cx="1780.48" cy="480.037" r="14" fill="#ff0000" fill-rule="evenodd" fill-opacity="1" stroke="#000000" stroke-opacity="1" stroke-width="3.2"/>
<circle clip-path="url(#clip102)" cx="1865.64" cy="609.336" r="14" fill="#ff0000" fill-rule="evenodd" fill-opacity="1" stroke="#000000" stroke-opacity="1" stroke-width="3.2"/>
<circle clip-path="url(#clip102)" cx="1950.8" cy="690.639" r="14" fill="#ff0000" fill-rule="evenodd" fill-opacity="1" stroke="#000000" stroke-opacity="1" stroke-width="3.2"/>
<circle clip-path="url(#clip102)" cx="2035.96" cy="823.365" r="14" fill="#ff0000" fill-rule="evenodd" fill-opacity="1" stroke="#000000" stroke-opacity="1" stroke-width="3.2"/>
<circle clip-path="url(#clip102)" cx="2121.12" cy="927.931" r="14" fill="#ff0000" fill-rule="evenodd" fill-opacity="1" stroke="#000000" stroke-opacity="1" stroke-width="3.2"/>
<circle clip-path="url(#clip102)" cx="2206.28" cy="1093.85" r="14" fill="#ff0000" fill-rule="evenodd" fill-opacity="1" stroke="#000000" stroke-opacity="1" stroke-width="3.2"/>
<circle clip-path="url(#clip102)" cx="2291.44" cy="1156.23" r="14" fill="#ff0000" fill-rule="evenodd" fill-opacity="1" stroke="#000000" stroke-opacity="1" stroke-width="3.2"/>
<polyline clip-path="url(#clip102)" style="stroke:#ff0000; stroke-linecap:butt; stroke-linejoin:round; stroke-width:4; stroke-opacity:1; fill:none" points="
  247.59,1256.94 332.75,1116.93 417.91,937.488 503.071,804.11 588.231,737.654 673.391,706.61 758.552,615.523 843.713,502.041 928.873,415.106 1014.03,396.083 
  1099.19,379.907 1184.35,310.593 1269.51,269.573 1354.68,277.606 1439.84,343.674 1525,362.116 1610.16,356.911 1695.32,392.956 1780.48,480.037 1865.64,609.336 
  1950.8,690.639 2035.96,823.365 2121.12,927.931 2206.28,1093.85 2291.44,1156.23 
  "/>
<path clip-path="url(#clip100)" d="
M1985.68 354.418 L2280.54 354.418 L2280.54 95.2176 L1985.68 95.2176  Z
  " fill="#ffffff" fill-rule="evenodd" fill-opacity="1"/>
<polyline clip-path="url(#clip100)" style="stroke:#000000; stroke-linecap:butt; stroke-linejoin:round; stroke-width:4; stroke-opacity:1; fill:none" points="
  1985.68,354.418 2280.54,354.418 2280.54,95.2176 1985.68,95.2176 1985.68,354.418 
  "/>
<polyline clip-path="url(#clip100)" style="stroke:#000000; stroke-linecap:butt; stroke-linejoin:round; stroke-width:4; stroke-opacity:1; fill:none" points="
  2009.75,147.058 2154.18,147.058 
  "/>
<path clip-path="url(#clip100)" d="M2192.1 166.745 Q2190.29 171.375 2188.58 172.787 Q2186.86 174.199 2183.99 174.199 L2180.59 174.199 L2180.59 170.634 L2183.09 170.634 Q2184.85 170.634 2185.82 169.8 Q2186.79 168.967 2187.97 165.865 L2188.74 163.921 L2178.25 138.412 L2182.77 138.412 L2190.87 158.689 L2198.97 138.412 L2203.48 138.412 L2192.1 166.745 Z" fill="#000000" fill-rule="evenodd" fill-opacity="1" /><path clip-path="url(#clip100)" d="M2210.78 160.402 L2218.41 160.402 L2218.41 134.037 L2210.1 135.703 L2210.1 131.444 L2218.37 129.778 L2223.04 129.778 L2223.04 160.402 L2230.68 160.402 L2230.68 164.338 L2210.78 164.338 L2210.78 160.402 Z" fill="#000000" fill-rule="evenodd" fill-opacity="1" /><circle clip-path="url(#clip100)" cx="2081.96" cy="198.898" r="23" fill="#0000ff" fill-rule="evenodd" fill-opacity="1" stroke="#000000" stroke-opacity="1" stroke-width="5.12"/>
<path clip-path="url(#clip100)" d="M2192.1 218.585 Q2190.29 223.215 2188.58 224.627 Q2186.86 226.039 2183.99 226.039 L2180.59 226.039 L2180.59 222.474 L2183.09 222.474 Q2184.85 222.474 2185.82 221.64 Q2186.79 220.807 2187.97 217.705 L2188.74 215.761 L2178.25 190.252 L2182.77 190.252 L2190.87 210.529 L2198.97 190.252 L2203.48 190.252 L2192.1 218.585 Z" fill="#000000" fill-rule="evenodd" fill-opacity="1" /><path clip-path="url(#clip100)" d="M2213.99 212.242 L2230.31 212.242 L2230.31 216.178 L2208.37 216.178 L2208.37 212.242 Q2211.03 209.488 2215.61 204.858 Q2220.22 200.205 2221.4 198.863 Q2223.65 196.34 2224.53 194.604 Q2225.43 192.844 2225.43 191.155 Q2225.43 188.4 2223.48 186.664 Q2221.56 184.928 2218.46 184.928 Q2216.26 184.928 2213.81 185.692 Q2211.38 186.455 2208.6 188.006 L2208.6 183.284 Q2211.42 182.15 2213.88 181.571 Q2216.33 180.993 2218.37 180.993 Q2223.74 180.993 2226.93 183.678 Q2230.13 186.363 2230.13 190.854 Q2230.13 192.983 2229.32 194.905 Q2228.53 196.803 2226.42 199.395 Q2225.84 200.067 2222.74 203.284 Q2219.64 206.479 2213.99 212.242 Z" fill="#000000" fill-rule="evenodd" fill-opacity="1" /><circle clip-path="url(#clip100)" cx="2081.96" cy="250.738" r="23" fill="#ff0000" fill-rule="evenodd" fill-opacity="1" stroke="#000000" stroke-opacity="1" stroke-width="5.12"/>
<path clip-path="url(#clip100)" d="M2192.1 270.425 Q2190.29 275.055 2188.58 276.467 Q2186.86 277.879 2183.99 277.879 L2180.59 277.879 L2180.59 274.314 L2183.09 274.314 Q2184.85 274.314 2185.82 273.48 Q2186.79 272.647 2187.97 269.545 L2188.74 267.601 L2178.25 242.092 L2182.77 242.092 L2190.87 262.369 L2198.97 242.092 L2203.48 242.092 L2192.1 270.425 Z" fill="#000000" fill-rule="evenodd" fill-opacity="1" /><path clip-path="url(#clip100)" d="M2224.13 249.383 Q2227.49 250.101 2229.36 252.369 Q2231.26 254.638 2231.26 257.971 Q2231.26 263.087 2227.74 265.888 Q2224.22 268.689 2217.74 268.689 Q2215.57 268.689 2213.25 268.249 Q2210.96 267.832 2208.51 266.976 L2208.51 262.462 Q2210.45 263.596 2212.77 264.175 Q2215.08 264.754 2217.6 264.754 Q2222 264.754 2224.29 263.018 Q2226.61 261.281 2226.61 257.971 Q2226.61 254.916 2224.46 253.203 Q2222.33 251.467 2218.51 251.467 L2214.48 251.467 L2214.48 247.624 L2218.69 247.624 Q2222.14 247.624 2223.97 246.258 Q2225.8 244.87 2225.8 242.277 Q2225.8 239.615 2223.9 238.203 Q2222.03 236.768 2218.51 236.768 Q2216.59 236.768 2214.39 237.184 Q2212.19 237.601 2209.55 238.481 L2209.55 234.314 Q2212.21 233.573 2214.53 233.203 Q2216.86 232.833 2218.92 232.833 Q2224.25 232.833 2227.35 235.263 Q2230.45 237.67 2230.45 241.791 Q2230.45 244.661 2228.81 246.652 Q2227.16 248.62 2224.13 249.383 Z" fill="#000000" fill-rule="evenodd" fill-opacity="1" /><polyline clip-path="url(#clip100)" style="stroke:#ff0000; stroke-linecap:butt; stroke-linejoin:round; stroke-width:4; stroke-opacity:1; fill:none" points="
  2009.75,302.578 2154.18,302.578 
  "/>
<path clip-path="url(#clip100)" d="M2192.1 322.265 Q2190.29 326.895 2188.58 328.307 Q2186.86 329.719 2183.99 329.719 L2180.59 329.719 L2180.59 326.154 L2183.09 326.154 Q2184.85 326.154 2185.82 325.32 Q2186.79 324.487 2187.97 321.385 L2188.74 319.441 L2178.25 293.932 L2182.77 293.932 L2190.87 314.209 L2198.97 293.932 L2203.48 293.932 L2192.1 322.265 Z" fill="#000000" fill-rule="evenodd" fill-opacity="1" /><path clip-path="url(#clip100)" d="M2222.81 289.372 L2211.01 307.821 L2222.81 307.821 L2222.81 289.372 M2221.59 285.298 L2227.47 285.298 L2227.47 307.821 L2232.4 307.821 L2232.4 311.709 L2227.47 311.709 L2227.47 319.858 L2222.81 319.858 L2222.81 311.709 L2207.21 311.709 L2207.21 307.196 L2221.59 285.298 Z" fill="#000000" fill-rule="evenodd" fill-opacity="1" /></svg>
