<?xml version="1.0" encoding="utf-8"?>
<svg xmlns="http://www.w3.org/2000/svg" xmlns:xlink="http://www.w3.org/1999/xlink" width="600" height="400" viewBox="0 0 2400 1600">
<defs>
  <clipPath id="clip250">
    <rect x="0" y="0" width="2400" height="1600"/>
  </clipPath>
</defs>
<path clip-path="url(#clip250)" d="
M0 1600 L2400 1600 L2400 0 L0 0  Z
  " fill="#ffffff" fill-rule="evenodd" fill-opacity="1"/>
<defs>
  <clipPath id="clip251">
    <rect x="480" y="0" width="1681" height="1600"/>
  </clipPath>
</defs>
<path clip-path="url(#clip250)" d="
M340.699 1423.18 L2352.76 1423.18 L2352.76 123.472 L340.699 123.472  Z
  " fill="#ffffff" fill-rule="evenodd" fill-opacity="1"/>
<defs>
  <clipPath id="clip252">
    <rect x="340" y="123" width="2013" height="1301"/>
  </clipPath>
</defs>
<polyline clip-path="url(#clip252)" style="stroke:#000000; stroke-linecap:butt; stroke-linejoin:round; stroke-width:2; stroke-opacity:0.1; fill:none" points="
  340.699,1423.18 340.699,123.472 
  "/>
<polyline clip-path="url(#clip252)" style="stroke:#000000; stroke-linecap:butt; stroke-linejoin:round; stroke-width:2; stroke-opacity:0.1; fill:none" points="
  743.11,1423.18 743.11,123.472 
  "/>
<polyline clip-path="url(#clip252)" style="stroke:#000000; stroke-linecap:butt; stroke-linejoin:round; stroke-width:2; stroke-opacity:0.1; fill:none" points="
  1145.52,1423.18 1145.52,123.472 
  "/>
<polyline clip-path="url(#clip252)" style="stroke:#000000; stroke-linecap:butt; stroke-linejoin:round; stroke-width:2; stroke-opacity:0.1; fill:none" points="
  1547.93,1423.18 1547.93,123.472 
  "/>
<polyline clip-path="url(#clip252)" style="stroke:#000000; stroke-linecap:butt; stroke-linejoin:round; stroke-width:2; stroke-opacity:0.1; fill:none" points="
  1950.34,1423.18 1950.34,123.472 
  "/>
<polyline clip-path="url(#clip252)" style="stroke:#000000; stroke-linecap:butt; stroke-linejoin:round; stroke-width:2; stroke-opacity:0.1; fill:none" points="
  2352.76,1423.18 2352.76,123.472 
  "/>
<polyline clip-path="url(#clip250)" style="stroke:#000000; stroke-linecap:butt; stroke-linejoin:round; stroke-width:4; stroke-opacity:1; fill:none" points="
  340.699,1423.18 2352.76,1423.18 
  "/>
<polyline clip-path="url(#clip250)" style="stroke:#000000; stroke-linecap:butt; stroke-linejoin:round; stroke-width:4; stroke-opacity:1; fill:none" points="
  340.699,1423.18 340.699,1404.28 
  "/>
<polyline clip-path="url(#clip250)" style="stroke:#000000; stroke-linecap:butt; stroke-linejoin:round; stroke-width:4; stroke-opacity:1; fill:none" points="
  743.11,1423.18 743.11,1404.28 
  "/>
<polyline clip-path="url(#clip250)" style="stroke:#000000; stroke-linecap:butt; stroke-linejoin:round; stroke-width:4; stroke-opacity:1; fill:none" points="
  1145.52,1423.18 1145.52,1404.28 
  "/>
<polyline clip-path="url(#clip250)" style="stroke:#000000; stroke-linecap:butt; stroke-linejoin:round; stroke-width:4; stroke-opacity:1; fill:none" points="
  1547.93,1423.18 1547.93,1404.28 
  "/>
<polyline clip-path="url(#clip250)" style="stroke:#000000; stroke-linecap:butt; stroke-linejoin:round; stroke-width:4; stroke-opacity:1; fill:none" points="
  1950.34,1423.18 1950.34,1404.28 
  "/>
<polyline clip-path="url(#clip250)" style="stroke:#000000; stroke-linecap:butt; stroke-linejoin:round; stroke-width:4; stroke-opacity:1; fill:none" points="
  2352.76,1423.18 2352.76,1404.28 
  "/>
<path clip-path="url(#clip250)" d="M340.699 1452.37 Q337.088 1452.37 335.259 1455.94 Q333.454 1459.48 333.454 1466.61 Q333.454 1473.71 335.259 1477.28 Q337.088 1480.82 340.699 1480.82 Q344.333 1480.82 346.139 1477.28 Q347.967 1473.71 347.967 1466.61 Q347.967 1459.48 346.139 1455.94 Q344.333 1452.37 340.699 1452.37 M340.699 1448.67 Q346.509 1448.67 349.565 1453.27 Q352.643 1457.86 352.643 1466.61 Q352.643 1475.33 349.565 1479.94 Q346.509 1484.52 340.699 1484.52 Q334.889 1484.52 331.81 1479.94 Q328.755 1475.33 328.755 1466.61 Q328.755 1457.86 331.81 1453.27 Q334.889 1448.67 340.699 1448.67 Z" fill="#000000" fill-rule="evenodd" fill-opacity="1" /><path clip-path="url(#clip250)" d="M721.884 1479.92 L738.203 1479.92 L738.203 1483.85 L716.259 1483.85 L716.259 1479.92 Q718.921 1477.16 723.504 1472.53 Q728.11 1467.88 729.291 1466.54 Q731.536 1464.01 732.416 1462.28 Q733.319 1460.52 733.319 1458.83 Q733.319 1456.07 731.374 1454.34 Q729.453 1452.6 726.351 1452.6 Q724.152 1452.6 721.698 1453.37 Q719.268 1454.13 716.49 1455.68 L716.49 1450.96 Q719.314 1449.82 721.768 1449.25 Q724.222 1448.67 726.259 1448.67 Q731.629 1448.67 734.823 1451.35 Q738.018 1454.04 738.018 1458.53 Q738.018 1460.66 737.208 1462.58 Q736.421 1464.48 734.314 1467.07 Q733.735 1467.74 730.634 1470.96 Q727.532 1474.15 721.884 1479.92 Z" fill="#000000" fill-rule="evenodd" fill-opacity="1" /><path clip-path="url(#clip250)" d="M758.018 1452.37 Q754.407 1452.37 752.578 1455.94 Q750.772 1459.48 750.772 1466.61 Q750.772 1473.71 752.578 1477.28 Q754.407 1480.82 758.018 1480.82 Q761.652 1480.82 763.457 1477.28 Q765.286 1473.71 765.286 1466.61 Q765.286 1459.48 763.457 1455.94 Q761.652 1452.37 758.018 1452.37 M758.018 1448.67 Q763.828 1448.67 766.883 1453.27 Q769.962 1457.86 769.962 1466.61 Q769.962 1475.33 766.883 1479.94 Q763.828 1484.52 758.018 1484.52 Q752.208 1484.52 749.129 1479.94 Q746.073 1475.33 746.073 1466.61 Q746.073 1457.86 749.129 1453.27 Q752.208 1448.67 758.018 1448.67 Z" fill="#000000" fill-rule="evenodd" fill-opacity="1" /><path clip-path="url(#clip250)" d="M1133.69 1453.37 L1121.89 1471.81 L1133.69 1471.81 L1133.69 1453.37 M1132.47 1449.29 L1138.35 1449.29 L1138.35 1471.81 L1143.28 1471.81 L1143.28 1475.7 L1138.35 1475.7 L1138.35 1483.85 L1133.69 1483.85 L1133.69 1475.7 L1118.09 1475.7 L1118.09 1471.19 L1132.47 1449.29 Z" fill="#000000" fill-rule="evenodd" fill-opacity="1" /><path clip-path="url(#clip250)" d="M1161.01 1452.37 Q1157.4 1452.37 1155.57 1455.94 Q1153.76 1459.48 1153.76 1466.61 Q1153.76 1473.71 1155.57 1477.28 Q1157.4 1480.82 1161.01 1480.82 Q1164.64 1480.82 1166.45 1477.28 Q1168.28 1473.71 1168.28 1466.61 Q1168.28 1459.48 1166.45 1455.94 Q1164.64 1452.37 1161.01 1452.37 M1161.01 1448.67 Q1166.82 1448.67 1169.87 1453.27 Q1172.95 1457.86 1172.95 1466.61 Q1172.95 1475.33 1169.87 1479.94 Q1166.82 1484.52 1161.01 1484.52 Q1155.2 1484.52 1152.12 1479.94 Q1149.06 1475.33 1149.06 1466.61 Q1149.06 1457.86 1152.12 1453.27 Q1155.2 1448.67 1161.01 1448.67 Z" fill="#000000" fill-rule="evenodd" fill-opacity="1" /><path clip-path="url(#clip250)" d="M1533.34 1464.71 Q1530.19 1464.71 1528.34 1466.86 Q1526.51 1469.01 1526.51 1472.76 Q1526.51 1476.49 1528.34 1478.67 Q1530.19 1480.82 1533.34 1480.82 Q1536.49 1480.82 1538.32 1478.67 Q1540.17 1476.49 1540.17 1472.76 Q1540.17 1469.01 1538.32 1466.86 Q1536.49 1464.71 1533.34 1464.71 M1542.62 1450.06 L1542.62 1454.31 Q1540.86 1453.48 1539.06 1453.04 Q1537.27 1452.6 1535.51 1452.6 Q1530.88 1452.6 1528.43 1455.73 Q1526 1458.85 1525.65 1465.17 Q1527.02 1463.16 1529.08 1462.09 Q1531.14 1461 1533.62 1461 Q1538.82 1461 1541.83 1464.18 Q1544.87 1467.32 1544.87 1472.76 Q1544.87 1478.09 1541.72 1481.31 Q1538.57 1484.52 1533.34 1484.52 Q1527.34 1484.52 1524.17 1479.94 Q1521 1475.33 1521 1466.61 Q1521 1458.41 1524.89 1453.55 Q1528.78 1448.67 1535.33 1448.67 Q1537.09 1448.67 1538.87 1449.01 Q1540.68 1449.36 1542.62 1450.06 Z" fill="#000000" fill-rule="evenodd" fill-opacity="1" /><path clip-path="url(#clip250)" d="M1562.92 1452.37 Q1559.31 1452.37 1557.48 1455.94 Q1555.68 1459.48 1555.68 1466.61 Q1555.68 1473.71 1557.48 1477.28 Q1559.31 1480.82 1562.92 1480.82 Q1566.56 1480.82 1568.36 1477.28 Q1570.19 1473.71 1570.19 1466.61 Q1570.19 1459.48 1568.36 1455.94 Q1566.56 1452.37 1562.92 1452.37 M1562.92 1448.67 Q1568.73 1448.67 1571.79 1453.27 Q1574.87 1457.86 1574.87 1466.61 Q1574.87 1475.33 1571.79 1479.94 Q1568.73 1484.52 1562.92 1484.52 Q1557.11 1484.52 1554.03 1479.94 Q1550.98 1475.33 1550.98 1466.61 Q1550.98 1457.86 1554.03 1453.27 Q1557.11 1448.67 1562.92 1448.67 Z" fill="#000000" fill-rule="evenodd" fill-opacity="1" /><path clip-path="url(#clip250)" d="M1935.22 1467.44 Q1931.88 1467.44 1929.96 1469.22 Q1928.06 1471 1928.06 1474.13 Q1928.06 1477.25 1929.96 1479.04 Q1931.88 1480.82 1935.22 1480.82 Q1938.55 1480.82 1940.47 1479.04 Q1942.39 1477.23 1942.39 1474.13 Q1942.39 1471 1940.47 1469.22 Q1938.57 1467.44 1935.22 1467.44 M1930.54 1465.45 Q1927.53 1464.71 1925.84 1462.65 Q1924.18 1460.59 1924.18 1457.63 Q1924.18 1453.48 1927.12 1451.07 Q1930.08 1448.67 1935.22 1448.67 Q1940.38 1448.67 1943.32 1451.07 Q1946.26 1453.48 1946.26 1457.63 Q1946.26 1460.59 1944.57 1462.65 Q1942.9 1464.71 1939.92 1465.45 Q1943.3 1466.24 1945.17 1468.53 Q1947.07 1470.82 1947.07 1474.13 Q1947.07 1479.15 1943.99 1481.84 Q1940.93 1484.52 1935.22 1484.52 Q1929.5 1484.52 1926.42 1481.84 Q1923.37 1479.15 1923.37 1474.13 Q1923.37 1470.82 1925.26 1468.53 Q1927.16 1466.24 1930.54 1465.45 M1928.83 1458.06 Q1928.83 1460.75 1930.5 1462.25 Q1932.18 1463.76 1935.22 1463.76 Q1938.23 1463.76 1939.92 1462.25 Q1941.63 1460.75 1941.63 1458.06 Q1941.63 1455.38 1939.92 1453.88 Q1938.23 1452.37 1935.22 1452.37 Q1932.18 1452.37 1930.5 1453.88 Q1928.83 1455.38 1928.83 1458.06 Z" fill="#000000" fill-rule="evenodd" fill-opacity="1" /><path clip-path="url(#clip250)" d="M1965.38 1452.37 Q1961.77 1452.37 1959.94 1455.94 Q1958.13 1459.48 1958.13 1466.61 Q1958.13 1473.71 1959.94 1477.28 Q1961.77 1480.82 1965.38 1480.82 Q1969.01 1480.82 1970.82 1477.28 Q1972.65 1473.71 1972.65 1466.61 Q1972.65 1459.48 1970.82 1455.94 Q1969.01 1452.37 1965.38 1452.37 M1965.38 1448.67 Q1971.19 1448.67 1974.24 1453.27 Q1977.32 1457.86 1977.32 1466.61 Q1977.32 1475.33 1974.24 1479.94 Q1971.19 1484.52 1965.38 1484.52 Q1959.57 1484.52 1956.49 1479.94 Q1953.43 1475.33 1953.43 1466.61 Q1953.43 1457.86 1956.49 1453.27 Q1959.57 1448.67 1965.38 1448.67 Z" fill="#000000" fill-rule="evenodd" fill-opacity="1" /><path clip-path="url(#clip250)" d="M2312.36 1479.92 L2320 1479.92 L2320 1453.55 L2311.69 1455.22 L2311.69 1450.96 L2319.96 1449.29 L2324.63 1449.29 L2324.63 1479.92 L2332.27 1479.92 L2332.27 1483.85 L2312.36 1483.85 L2312.36 1479.92 Z" fill="#000000" fill-rule="evenodd" fill-opacity="1" /><path clip-path="url(#clip250)" d="M2351.71 1452.37 Q2348.1 1452.37 2346.27 1455.94 Q2344.47 1459.48 2344.47 1466.61 Q2344.47 1473.71 2346.27 1477.28 Q2348.1 1480.82 2351.71 1480.82 Q2355.35 1480.82 2357.15 1477.28 Q2358.98 1473.71 2358.98 1466.61 Q2358.98 1459.48 2357.15 1455.94 Q2355.35 1452.37 2351.71 1452.37 M2351.71 1448.67 Q2357.52 1448.67 2360.58 1453.27 Q2363.66 1457.86 2363.66 1466.61 Q2363.66 1475.33 2360.58 1479.94 Q2357.52 1484.52 2351.71 1484.52 Q2345.9 1484.52 2342.83 1479.94 Q2339.77 1475.33 2339.77 1466.61 Q2339.77 1457.86 2342.83 1453.27 Q2345.9 1448.67 2351.71 1448.67 Z" fill="#000000" fill-rule="evenodd" fill-opacity="1" /><path clip-path="url(#clip250)" d="M2381.88 1452.37 Q2378.27 1452.37 2376.44 1455.94 Q2374.63 1459.48 2374.63 1466.61 Q2374.63 1473.71 2376.44 1477.28 Q2378.27 1480.82 2381.88 1480.82 Q2385.51 1480.82 2387.32 1477.28 Q2389.14 1473.71 2389.14 1466.61 Q2389.14 1459.48 2387.32 1455.94 Q2385.51 1452.37 2381.88 1452.37 M2381.88 1448.67 Q2387.69 1448.67 2390.74 1453.27 Q2393.82 1457.86 2393.82 1466.61 Q2393.82 1475.33 2390.74 1479.94 Q2387.69 1484.52 2381.88 1484.52 Q2376.07 1484.52 2372.99 1479.94 Q2369.93 1475.33 2369.93 1466.61 Q2369.93 1457.86 2372.99 1453.27 Q2376.07 1448.67 2381.88 1448.67 Z" fill="#000000" fill-rule="evenodd" fill-opacity="1" /><path clip-path="url(#clip250)" d="M778.254 1525.81 L778.254 1543.66 L786.338 1543.66 Q790.826 1543.66 793.277 1541.34 Q795.728 1539.02 795.728 1534.72 Q795.728 1530.45 793.277 1528.13 Q790.826 1525.81 786.338 1525.81 L778.254 1525.81 M771.825 1520.52 L786.338 1520.52 Q794.327 1520.52 798.401 1524.15 Q802.507 1527.75 802.507 1534.72 Q802.507 1541.75 798.401 1545.35 Q794.327 1548.95 786.338 1548.95 L778.254 1548.95 L778.254 1568.04 L771.825 1568.04 L771.825 1520.52 Z" fill="#000000" fill-rule="evenodd" fill-opacity="1" /><path clip-path="url(#clip250)" d="M839.046 1548.76 L839.046 1551.62 L812.119 1551.62 Q812.501 1557.67 815.748 1560.85 Q819.026 1564 824.851 1564 Q828.225 1564 831.376 1563.17 Q834.559 1562.35 837.678 1560.69 L837.678 1566.23 Q834.527 1567.57 831.217 1568.27 Q827.906 1568.97 824.501 1568.97 Q815.971 1568.97 810.974 1564 Q806.008 1559.04 806.008 1550.57 Q806.008 1541.82 810.719 1536.69 Q815.461 1531.54 823.482 1531.54 Q830.676 1531.54 834.845 1536.18 Q839.046 1540.8 839.046 1548.76 M833.19 1547.04 Q833.126 1542.23 830.485 1539.37 Q827.875 1536.5 823.546 1536.5 Q818.644 1536.5 815.684 1539.27 Q812.756 1542.04 812.31 1547.07 L833.19 1547.04 Z" fill="#000000" fill-rule="evenodd" fill-opacity="1" /><path clip-path="url(#clip250)" d="M869.315 1537.87 Q868.329 1537.3 867.151 1537.04 Q866.005 1536.76 864.605 1536.76 Q859.639 1536.76 856.966 1540 Q854.324 1543.22 854.324 1549.27 L854.324 1568.04 L848.436 1568.04 L848.436 1532.4 L854.324 1532.4 L854.324 1537.93 Q856.17 1534.69 859.13 1533.13 Q862.09 1531.54 866.323 1531.54 Q866.928 1531.54 867.66 1531.63 Q868.392 1531.7 869.284 1531.85 L869.315 1537.87 Z" fill="#000000" fill-rule="evenodd" fill-opacity="1" /><path clip-path="url(#clip250)" d="M899.68 1533.76 L899.68 1539.24 Q897.197 1537.87 894.683 1537.2 Q892.2 1536.5 889.654 1536.5 Q883.956 1536.5 880.805 1540.13 Q877.654 1543.73 877.654 1550.25 Q877.654 1556.78 880.805 1560.4 Q883.956 1564 889.654 1564 Q892.2 1564 894.683 1563.33 Q897.197 1562.63 899.68 1561.26 L899.68 1566.68 Q897.229 1567.82 894.587 1568.39 Q891.977 1568.97 889.017 1568.97 Q880.965 1568.97 876.222 1563.91 Q871.48 1558.85 871.48 1550.25 Q871.48 1541.53 876.254 1536.53 Q881.06 1531.54 889.399 1531.54 Q892.105 1531.54 894.683 1532.11 Q897.261 1532.65 899.68 1533.76 Z" fill="#000000" fill-rule="evenodd" fill-opacity="1" /><path clip-path="url(#clip250)" d="M940.357 1548.76 L940.357 1551.62 L913.43 1551.62 Q913.812 1557.67 917.058 1560.85 Q920.336 1564 926.161 1564 Q929.535 1564 932.686 1563.17 Q935.869 1562.35 938.988 1560.69 L938.988 1566.23 Q935.837 1567.57 932.527 1568.27 Q929.217 1568.97 925.811 1568.97 Q917.281 1568.97 912.284 1564 Q907.319 1559.04 907.319 1550.57 Q907.319 1541.82 912.029 1536.69 Q916.772 1531.54 924.792 1531.54 Q931.986 1531.54 936.155 1536.18 Q940.357 1540.8 940.357 1548.76 M934.5 1547.04 Q934.437 1542.23 931.795 1539.37 Q929.185 1536.5 924.856 1536.5 Q919.955 1536.5 916.994 1539.27 Q914.066 1542.04 913.621 1547.07 L934.5 1547.04 Z" fill="#000000" fill-rule="evenodd" fill-opacity="1" /><path clip-path="url(#clip250)" d="M979.601 1546.53 L979.601 1568.04 L973.745 1568.04 L973.745 1546.72 Q973.745 1541.66 971.771 1539.14 Q969.798 1536.63 965.851 1536.63 Q961.109 1536.63 958.372 1539.65 Q955.634 1542.68 955.634 1547.9 L955.634 1568.04 L949.746 1568.04 L949.746 1532.4 L955.634 1532.4 L955.634 1537.93 Q957.735 1534.72 960.568 1533.13 Q963.432 1531.54 967.156 1531.54 Q973.299 1531.54 976.45 1535.36 Q979.601 1539.14 979.601 1546.53 Z" fill="#000000" fill-rule="evenodd" fill-opacity="1" /><path clip-path="url(#clip250)" d="M997.075 1522.27 L997.075 1532.4 L1009.14 1532.4 L1009.14 1536.95 L997.075 1536.95 L997.075 1556.3 Q997.075 1560.66 998.253 1561.9 Q999.462 1563.14 1003.12 1563.14 L1009.14 1563.14 L1009.14 1568.04 L1003.12 1568.04 Q996.343 1568.04 993.765 1565.53 Q991.187 1562.98 991.187 1556.3 L991.187 1536.95 L986.89 1536.95 L986.89 1532.4 L991.187 1532.4 L991.187 1522.27 L997.075 1522.27 Z" fill="#000000" fill-rule="evenodd" fill-opacity="1" /><path clip-path="url(#clip250)" d="M1033.04 1550.12 Q1025.94 1550.12 1023.21 1551.75 Q1020.47 1553.37 1020.47 1557.29 Q1020.47 1560.4 1022.51 1562.25 Q1024.57 1564.07 1028.11 1564.07 Q1032.98 1564.07 1035.91 1560.63 Q1038.87 1557.16 1038.87 1551.43 L1038.87 1550.12 L1033.04 1550.12 M1044.72 1547.71 L1044.72 1568.04 L1038.87 1568.04 L1038.87 1562.63 Q1036.86 1565.88 1033.87 1567.44 Q1030.88 1568.97 1026.55 1568.97 Q1021.07 1568.97 1017.83 1565.91 Q1014.61 1562.82 1014.61 1557.67 Q1014.61 1551.65 1018.62 1548.6 Q1022.67 1545.54 1030.65 1545.54 L1038.87 1545.54 L1038.87 1544.97 Q1038.87 1540.93 1036.19 1538.73 Q1033.55 1536.5 1028.74 1536.5 Q1025.69 1536.5 1022.79 1537.23 Q1019.9 1537.97 1017.22 1539.43 L1017.22 1534.02 Q1020.44 1532.78 1023.46 1532.17 Q1026.48 1531.54 1029.35 1531.54 Q1037.08 1531.54 1040.9 1535.55 Q1044.72 1539.56 1044.72 1547.71 Z" fill="#000000" fill-rule="evenodd" fill-opacity="1" /><path clip-path="url(#clip250)" d="M1080.24 1549.81 Q1080.24 1543.44 1077.6 1539.94 Q1074.99 1536.44 1070.25 1536.44 Q1065.54 1536.44 1062.9 1539.94 Q1060.29 1543.44 1060.29 1549.81 Q1060.29 1556.14 1062.9 1559.64 Q1065.54 1563.14 1070.25 1563.14 Q1074.99 1563.14 1077.6 1559.64 Q1080.24 1556.14 1080.24 1549.81 M1086.1 1563.62 Q1086.1 1572.72 1082.06 1577.15 Q1078.02 1581.6 1069.68 1581.6 Q1066.59 1581.6 1063.85 1581.13 Q1061.11 1580.68 1058.54 1579.72 L1058.54 1574.03 Q1061.11 1575.43 1063.63 1576.1 Q1066.14 1576.76 1068.75 1576.76 Q1074.51 1576.76 1077.38 1573.74 Q1080.24 1570.75 1080.24 1564.67 L1080.24 1561.77 Q1078.43 1564.92 1075.6 1566.48 Q1072.76 1568.04 1068.82 1568.04 Q1062.26 1568.04 1058.25 1563.05 Q1054.24 1558.05 1054.24 1549.81 Q1054.24 1541.53 1058.25 1536.53 Q1062.26 1531.54 1068.82 1531.54 Q1072.76 1531.54 1075.6 1533.1 Q1078.43 1534.66 1080.24 1537.81 L1080.24 1532.4 L1086.1 1532.4 L1086.1 1563.62 Z" fill="#000000" fill-rule="evenodd" fill-opacity="1" /><path clip-path="url(#clip250)" d="M1128.65 1548.76 L1128.65 1551.62 L1101.73 1551.62 Q1102.11 1557.67 1105.36 1560.85 Q1108.63 1564 1114.46 1564 Q1117.83 1564 1120.98 1563.17 Q1124.17 1562.35 1127.29 1560.69 L1127.29 1566.23 Q1124.13 1567.57 1120.82 1568.27 Q1117.51 1568.97 1114.11 1568.97 Q1105.58 1568.97 1100.58 1564 Q1095.62 1559.04 1095.62 1550.57 Q1095.62 1541.82 1100.33 1536.69 Q1105.07 1531.54 1113.09 1531.54 Q1120.28 1531.54 1124.45 1536.18 Q1128.65 1540.8 1128.65 1548.76 M1122.8 1547.04 Q1122.73 1542.23 1120.09 1539.37 Q1117.48 1536.5 1113.15 1536.5 Q1108.25 1536.5 1105.29 1539.27 Q1102.36 1542.04 1101.92 1547.07 L1122.8 1547.04 Z" fill="#000000" fill-rule="evenodd" fill-opacity="1" /><path clip-path="url(#clip250)" d="M1172.8 1536.5 Q1168.09 1536.5 1165.35 1540.19 Q1162.62 1543.85 1162.62 1550.25 Q1162.62 1556.65 1165.32 1560.34 Q1168.06 1564 1172.8 1564 Q1177.48 1564 1180.22 1560.31 Q1182.95 1556.62 1182.95 1550.25 Q1182.95 1543.92 1180.22 1540.23 Q1177.48 1536.5 1172.8 1536.5 M1172.8 1531.54 Q1180.44 1531.54 1184.8 1536.5 Q1189.16 1541.47 1189.16 1550.25 Q1189.16 1559 1184.8 1564 Q1180.44 1568.97 1172.8 1568.97 Q1165.13 1568.97 1160.77 1564 Q1156.44 1559 1156.44 1550.25 Q1156.44 1541.47 1160.77 1536.5 Q1165.13 1531.54 1172.8 1531.54 Z" fill="#000000" fill-rule="evenodd" fill-opacity="1" /><path clip-path="url(#clip250)" d="M1216.91 1518.52 L1216.91 1523.39 L1211.31 1523.39 Q1208.16 1523.39 1206.92 1524.66 Q1205.71 1525.93 1205.71 1529.24 L1205.71 1532.4 L1215.36 1532.4 L1215.36 1536.95 L1205.71 1536.95 L1205.71 1568.04 L1199.82 1568.04 L1199.82 1536.95 L1194.22 1536.95 L1194.22 1532.4 L1199.82 1532.4 L1199.82 1529.91 Q1199.82 1523.96 1202.59 1521.26 Q1205.36 1518.52 1211.38 1518.52 L1216.91 1518.52 Z" fill="#000000" fill-rule="evenodd" fill-opacity="1" /><path clip-path="url(#clip250)" d="M1278.38 1524.18 L1278.38 1530.96 Q1275.13 1527.94 1271.44 1526.44 Q1267.78 1524.95 1263.64 1524.95 Q1255.49 1524.95 1251.16 1529.95 Q1246.83 1534.91 1246.83 1544.33 Q1246.83 1553.72 1251.16 1558.72 Q1255.49 1563.68 1263.64 1563.68 Q1267.78 1563.68 1271.44 1562.19 Q1275.13 1560.69 1278.38 1557.67 L1278.38 1564.38 Q1275 1566.68 1271.21 1567.82 Q1267.46 1568.97 1263.26 1568.97 Q1252.47 1568.97 1246.26 1562.38 Q1240.05 1555.76 1240.05 1544.33 Q1240.05 1532.87 1246.26 1526.28 Q1252.47 1519.66 1263.26 1519.66 Q1267.52 1519.66 1271.28 1520.81 Q1275.07 1521.92 1278.38 1524.18 Z" fill="#000000" fill-rule="evenodd" fill-opacity="1" /><path clip-path="url(#clip250)" d="M1304.25 1550.12 Q1297.15 1550.12 1294.42 1551.75 Q1291.68 1553.37 1291.68 1557.29 Q1291.68 1560.4 1293.72 1562.25 Q1295.79 1564.07 1299.32 1564.07 Q1304.19 1564.07 1307.12 1560.63 Q1310.08 1557.16 1310.08 1551.43 L1310.08 1550.12 L1304.25 1550.12 M1315.93 1547.71 L1315.93 1568.04 L1310.08 1568.04 L1310.08 1562.63 Q1308.07 1565.88 1305.08 1567.44 Q1302.09 1568.97 1297.76 1568.97 Q1292.28 1568.97 1289.04 1565.91 Q1285.82 1562.82 1285.82 1557.67 Q1285.82 1551.65 1289.83 1548.6 Q1293.88 1545.54 1301.87 1545.54 L1310.08 1545.54 L1310.08 1544.97 Q1310.08 1540.93 1307.4 1538.73 Q1304.76 1536.5 1299.96 1536.5 Q1296.9 1536.5 1294 1537.23 Q1291.11 1537.97 1288.43 1539.43 L1288.43 1534.02 Q1291.65 1532.78 1294.67 1532.17 Q1297.7 1531.54 1300.56 1531.54 Q1308.29 1531.54 1312.11 1535.55 Q1315.93 1539.56 1315.93 1547.71 Z" fill="#000000" fill-rule="evenodd" fill-opacity="1" /><path clip-path="url(#clip250)" d="M1348.65 1537.87 Q1347.67 1537.3 1346.49 1537.04 Q1345.34 1536.76 1343.94 1536.76 Q1338.98 1536.76 1336.3 1540 Q1333.66 1543.22 1333.66 1549.27 L1333.66 1568.04 L1327.77 1568.04 L1327.77 1532.4 L1333.66 1532.4 L1333.66 1537.93 Q1335.51 1534.69 1338.47 1533.13 Q1341.43 1531.54 1345.66 1531.54 Q1346.27 1531.54 1347 1531.63 Q1347.73 1531.7 1348.62 1531.85 L1348.65 1537.87 Z" fill="#000000" fill-rule="evenodd" fill-opacity="1" /><path clip-path="url(#clip250)" d="M1380.39 1550.25 Q1380.39 1543.79 1377.71 1540.13 Q1375.07 1536.44 1370.42 1536.44 Q1365.78 1536.44 1363.1 1540.13 Q1360.46 1543.79 1360.46 1550.25 Q1360.46 1556.71 1363.1 1560.4 Q1365.78 1564.07 1370.42 1564.07 Q1375.07 1564.07 1377.71 1560.4 Q1380.39 1556.71 1380.39 1550.25 M1360.46 1537.81 Q1362.31 1534.62 1365.11 1533.1 Q1367.94 1531.54 1371.86 1531.54 Q1378.35 1531.54 1382.39 1536.69 Q1386.47 1541.85 1386.47 1550.25 Q1386.47 1558.65 1382.39 1563.81 Q1378.35 1568.97 1371.86 1568.97 Q1367.94 1568.97 1365.11 1567.44 Q1362.31 1565.88 1360.46 1562.7 L1360.46 1568.04 L1354.57 1568.04 L1354.57 1518.52 L1360.46 1518.52 L1360.46 1537.81 Z" fill="#000000" fill-rule="evenodd" fill-opacity="1" /><path clip-path="url(#clip250)" d="M1409.99 1536.5 Q1405.28 1536.5 1402.54 1540.19 Q1399.8 1543.85 1399.8 1550.25 Q1399.8 1556.65 1402.51 1560.34 Q1405.24 1564 1409.99 1564 Q1414.67 1564 1417.4 1560.31 Q1420.14 1556.62 1420.14 1550.25 Q1420.14 1543.92 1417.4 1540.23 Q1414.67 1536.5 1409.99 1536.5 M1409.99 1531.54 Q1417.63 1531.54 1421.99 1536.5 Q1426.35 1541.47 1426.35 1550.25 Q1426.35 1559 1421.99 1564 Q1417.63 1568.97 1409.99 1568.97 Q1402.32 1568.97 1397.96 1564 Q1393.63 1559 1393.63 1550.25 Q1393.63 1541.47 1397.96 1536.5 Q1402.32 1531.54 1409.99 1531.54 Z" fill="#000000" fill-rule="evenodd" fill-opacity="1" /><path clip-path="url(#clip250)" d="M1465.69 1546.53 L1465.69 1568.04 L1459.83 1568.04 L1459.83 1546.72 Q1459.83 1541.66 1457.86 1539.14 Q1455.88 1536.63 1451.94 1536.63 Q1447.19 1536.63 1444.46 1539.65 Q1441.72 1542.68 1441.72 1547.9 L1441.72 1568.04 L1435.83 1568.04 L1435.83 1532.4 L1441.72 1532.4 L1441.72 1537.93 Q1443.82 1534.72 1446.65 1533.13 Q1449.52 1531.54 1453.24 1531.54 Q1459.38 1531.54 1462.54 1535.36 Q1465.69 1539.14 1465.69 1546.53 Z" fill="#000000" fill-rule="evenodd" fill-opacity="1" /><path clip-path="url(#clip250)" d="M1474.41 1547.58 L1491.56 1547.58 L1491.56 1552.8 L1474.41 1552.8 L1474.41 1547.58 Z" fill="#000000" fill-rule="evenodd" fill-opacity="1" /><path clip-path="url(#clip250)" d="M1502.83 1562.63 L1513.33 1562.63 L1513.33 1526.38 L1501.91 1528.67 L1501.91 1522.82 L1513.27 1520.52 L1519.7 1520.52 L1519.7 1562.63 L1530.2 1562.63 L1530.2 1568.04 L1502.83 1568.04 L1502.83 1562.63 Z" fill="#000000" fill-rule="evenodd" fill-opacity="1" /><path clip-path="url(#clip250)" d="M1560.85 1526.13 L1544.62 1551.49 L1560.85 1551.49 L1560.85 1526.13 M1559.17 1520.52 L1567.25 1520.52 L1567.25 1551.49 L1574.03 1551.49 L1574.03 1556.84 L1567.25 1556.84 L1567.25 1568.04 L1560.85 1568.04 L1560.85 1556.84 L1539.4 1556.84 L1539.4 1550.63 L1559.17 1520.52 Z" fill="#000000" fill-rule="evenodd" fill-opacity="1" /><path clip-path="url(#clip250)" d="M1625.21 1537.87 Q1624.22 1537.3 1623.05 1537.04 Q1621.9 1536.76 1620.5 1536.76 Q1615.54 1536.76 1612.86 1540 Q1610.22 1543.22 1610.22 1549.27 L1610.22 1568.04 L1604.33 1568.04 L1604.33 1532.4 L1610.22 1532.4 L1610.22 1537.93 Q1612.07 1534.69 1615.03 1533.13 Q1617.99 1531.54 1622.22 1531.54 Q1622.82 1531.54 1623.56 1531.63 Q1624.29 1531.7 1625.18 1531.85 L1625.21 1537.87 Z" fill="#000000" fill-rule="evenodd" fill-opacity="1" /><path clip-path="url(#clip250)" d="M1660.41 1548.76 L1660.41 1551.62 L1633.49 1551.62 Q1633.87 1557.67 1637.12 1560.85 Q1640.39 1564 1646.22 1564 Q1649.59 1564 1652.74 1563.17 Q1655.93 1562.35 1659.04 1560.69 L1659.04 1566.23 Q1655.89 1567.57 1652.58 1568.27 Q1649.27 1568.97 1645.87 1568.97 Q1637.34 1568.97 1632.34 1564 Q1627.38 1559.04 1627.38 1550.57 Q1627.38 1541.82 1632.09 1536.69 Q1636.83 1531.54 1644.85 1531.54 Q1652.04 1531.54 1656.21 1536.18 Q1660.41 1540.8 1660.41 1548.76 M1654.56 1547.04 Q1654.49 1542.23 1651.85 1539.37 Q1649.24 1536.5 1644.91 1536.5 Q1640.01 1536.5 1637.05 1539.27 Q1634.12 1542.04 1633.68 1547.07 L1654.56 1547.04 Z" fill="#000000" fill-rule="evenodd" fill-opacity="1" /><path clip-path="url(#clip250)" d="M1697.78 1539.24 Q1699.98 1535.29 1703.03 1533.41 Q1706.09 1531.54 1710.23 1531.54 Q1715.8 1531.54 1718.82 1535.45 Q1721.84 1539.33 1721.84 1546.53 L1721.84 1568.04 L1715.95 1568.04 L1715.95 1546.72 Q1715.95 1541.59 1714.14 1539.11 Q1712.33 1536.63 1708.6 1536.63 Q1704.05 1536.63 1701.41 1539.65 Q1698.77 1542.68 1698.77 1547.9 L1698.77 1568.04 L1692.88 1568.04 L1692.88 1546.72 Q1692.88 1541.56 1691.06 1539.11 Q1689.25 1536.63 1685.46 1536.63 Q1680.97 1536.63 1678.33 1539.68 Q1675.69 1542.71 1675.69 1547.9 L1675.69 1568.04 L1669.8 1568.04 L1669.8 1532.4 L1675.69 1532.4 L1675.69 1537.93 Q1677.7 1534.66 1680.5 1533.1 Q1683.3 1531.54 1687.15 1531.54 Q1691.03 1531.54 1693.74 1533.51 Q1696.48 1535.48 1697.78 1539.24 Z" fill="#000000" fill-rule="evenodd" fill-opacity="1" /><path clip-path="url(#clip250)" d="M1749.72 1550.12 Q1742.63 1550.12 1739.89 1551.75 Q1737.15 1553.37 1737.15 1557.29 Q1737.15 1560.4 1739.19 1562.25 Q1741.26 1564.07 1744.79 1564.07 Q1749.66 1564.07 1752.59 1560.63 Q1755.55 1557.16 1755.55 1551.43 L1755.55 1550.12 L1749.72 1550.12 M1761.41 1547.71 L1761.41 1568.04 L1755.55 1568.04 L1755.55 1562.63 Q1753.54 1565.88 1750.55 1567.44 Q1747.56 1568.97 1743.23 1568.97 Q1737.76 1568.97 1734.51 1565.91 Q1731.3 1562.82 1731.3 1557.67 Q1731.3 1551.65 1735.31 1548.6 Q1739.35 1545.54 1747.34 1545.54 L1755.55 1545.54 L1755.55 1544.97 Q1755.55 1540.93 1752.88 1538.73 Q1750.23 1536.5 1745.43 1536.5 Q1742.37 1536.5 1739.48 1537.23 Q1736.58 1537.97 1733.91 1539.43 L1733.91 1534.02 Q1737.12 1532.78 1740.14 1532.17 Q1743.17 1531.54 1746.03 1531.54 Q1753.77 1531.54 1757.59 1535.55 Q1761.41 1539.56 1761.41 1547.71 Z" fill="#000000" fill-rule="evenodd" fill-opacity="1" /><path clip-path="url(#clip250)" d="M1773.47 1532.4 L1779.32 1532.4 L1779.32 1568.04 L1773.47 1568.04 L1773.47 1532.4 M1773.47 1518.52 L1779.32 1518.52 L1779.32 1525.93 L1773.47 1525.93 L1773.47 1518.52 Z" fill="#000000" fill-rule="evenodd" fill-opacity="1" /><path clip-path="url(#clip250)" d="M1821.21 1546.53 L1821.21 1568.04 L1815.35 1568.04 L1815.35 1546.72 Q1815.35 1541.66 1813.38 1539.14 Q1811.41 1536.63 1807.46 1536.63 Q1802.72 1536.63 1799.98 1539.65 Q1797.24 1542.68 1797.24 1547.9 L1797.24 1568.04 L1791.36 1568.04 L1791.36 1532.4 L1797.24 1532.4 L1797.24 1537.93 Q1799.35 1534.72 1802.18 1533.13 Q1805.04 1531.54 1808.77 1531.54 Q1814.91 1531.54 1818.06 1535.36 Q1821.21 1539.14 1821.21 1546.53 Z" fill="#000000" fill-rule="evenodd" fill-opacity="1" /><path clip-path="url(#clip250)" d="M1832.89 1532.4 L1838.75 1532.4 L1838.75 1568.04 L1832.89 1568.04 L1832.89 1532.4 M1832.89 1518.52 L1838.75 1518.52 L1838.75 1525.93 L1832.89 1525.93 L1832.89 1518.52 Z" fill="#000000" fill-rule="evenodd" fill-opacity="1" /><path clip-path="url(#clip250)" d="M1880.64 1546.53 L1880.64 1568.04 L1874.78 1568.04 L1874.78 1546.72 Q1874.78 1541.66 1872.81 1539.14 Q1870.83 1536.63 1866.89 1536.63 Q1862.14 1536.63 1859.41 1539.65 Q1856.67 1542.68 1856.67 1547.9 L1856.67 1568.04 L1850.78 1568.04 L1850.78 1532.4 L1856.67 1532.4 L1856.67 1537.93 Q1858.77 1534.72 1861.6 1533.13 Q1864.47 1531.54 1868.19 1531.54 Q1874.33 1531.54 1877.48 1535.36 Q1880.64 1539.14 1880.64 1546.53 Z" fill="#000000" fill-rule="evenodd" fill-opacity="1" /><path clip-path="url(#clip250)" d="M1915.77 1549.81 Q1915.77 1543.44 1913.13 1539.94 Q1910.52 1536.44 1905.78 1536.44 Q1901.07 1536.44 1898.43 1539.94 Q1895.82 1543.44 1895.82 1549.81 Q1895.82 1556.14 1898.43 1559.64 Q1901.07 1563.14 1905.78 1563.14 Q1910.52 1563.14 1913.13 1559.64 Q1915.77 1556.14 1915.77 1549.81 M1921.63 1563.62 Q1921.63 1572.72 1917.59 1577.15 Q1913.55 1581.6 1905.21 1581.6 Q1902.12 1581.6 1899.38 1581.13 Q1896.64 1580.68 1894.07 1579.72 L1894.07 1574.03 Q1896.64 1575.43 1899.16 1576.1 Q1901.67 1576.76 1904.28 1576.76 Q1910.04 1576.76 1912.91 1573.74 Q1915.77 1570.75 1915.77 1564.67 L1915.77 1561.77 Q1913.96 1564.92 1911.13 1566.48 Q1908.29 1568.04 1904.35 1568.04 Q1897.79 1568.04 1893.78 1563.05 Q1889.77 1558.05 1889.77 1549.81 Q1889.77 1541.53 1893.78 1536.53 Q1897.79 1531.54 1904.35 1531.54 Q1908.29 1531.54 1911.13 1533.1 Q1913.96 1534.66 1915.77 1537.81 L1915.77 1532.4 L1921.63 1532.4 L1921.63 1563.62 Z" fill="#000000" fill-rule="evenodd" fill-opacity="1" /><polyline clip-path="url(#clip252)" style="stroke:#000000; stroke-linecap:butt; stroke-linejoin:round; stroke-width:2; stroke-opacity:0.1; fill:none" points="
  340.699,1423.18 2352.76,1423.18 
  "/>
<polyline clip-path="url(#clip252)" style="stroke:#000000; stroke-linecap:butt; stroke-linejoin:round; stroke-width:2; stroke-opacity:0.1; fill:none" points="
  340.699,1206.56 2352.76,1206.56 
  "/>
<polyline clip-path="url(#clip252)" style="stroke:#000000; stroke-linecap:butt; stroke-linejoin:round; stroke-width:2; stroke-opacity:0.1; fill:none" points="
  340.699,989.944 2352.76,989.944 
  "/>
<polyline clip-path="url(#clip252)" style="stroke:#000000; stroke-linecap:butt; stroke-linejoin:round; stroke-width:2; stroke-opacity:0.1; fill:none" points="
  340.699,773.326 2352.76,773.326 
  "/>
<polyline clip-path="url(#clip252)" style="stroke:#000000; stroke-linecap:butt; stroke-linejoin:round; stroke-width:2; stroke-opacity:0.1; fill:none" points="
  340.699,556.708 2352.76,556.708 
  "/>
<polyline clip-path="url(#clip252)" style="stroke:#000000; stroke-linecap:butt; stroke-linejoin:round; stroke-width:2; stroke-opacity:0.1; fill:none" points="
  340.699,340.09 2352.76,340.09 
  "/>
<polyline clip-path="url(#clip252)" style="stroke:#000000; stroke-linecap:butt; stroke-linejoin:round; stroke-width:2; stroke-opacity:0.1; fill:none" points="
  340.699,123.472 2352.76,123.472 
  "/>
<polyline clip-path="url(#clip250)" style="stroke:#000000; stroke-linecap:butt; stroke-linejoin:round; stroke-width:4; stroke-opacity:1; fill:none" points="
  340.699,1423.18 340.699,123.472 
  "/>
<polyline clip-path="url(#clip250)" style="stroke:#000000; stroke-linecap:butt; stroke-linejoin:round; stroke-width:4; stroke-opacity:1; fill:none" points="
  340.699,1423.18 359.597,1423.18 
  "/>
<polyline clip-path="url(#clip250)" style="stroke:#000000; stroke-linecap:butt; stroke-linejoin:round; stroke-width:4; stroke-opacity:1; fill:none" points="
  340.699,1206.56 359.597,1206.56 
  "/>
<polyline clip-path="url(#clip250)" style="stroke:#000000; stroke-linecap:butt; stroke-linejoin:round; stroke-width:4; stroke-opacity:1; fill:none" points="
  340.699,989.944 359.597,989.944 
  "/>
<polyline clip-path="url(#clip250)" style="stroke:#000000; stroke-linecap:butt; stroke-linejoin:round; stroke-width:4; stroke-opacity:1; fill:none" points="
  340.699,773.326 359.597,773.326 
  "/>
<polyline clip-path="url(#clip250)" style="stroke:#000000; stroke-linecap:butt; stroke-linejoin:round; stroke-width:4; stroke-opacity:1; fill:none" points="
  340.699,556.708 359.597,556.708 
  "/>
<polyline clip-path="url(#clip250)" style="stroke:#000000; stroke-linecap:butt; stroke-linejoin:round; stroke-width:4; stroke-opacity:1; fill:none" points="
  340.699,340.09 359.597,340.09 
  "/>
<polyline clip-path="url(#clip250)" style="stroke:#000000; stroke-linecap:butt; stroke-linejoin:round; stroke-width:4; stroke-opacity:1; fill:none" points="
  340.699,123.472 359.597,123.472 
  "/>
<path clip-path="url(#clip250)" d="M292.755 1408.98 Q289.143 1408.98 287.315 1412.54 Q285.509 1416.08 285.509 1423.21 Q285.509 1430.32 287.315 1433.89 Q289.143 1437.43 292.755 1437.43 Q296.389 1437.43 298.194 1433.89 Q300.023 1430.32 300.023 1423.21 Q300.023 1416.08 298.194 1412.54 Q296.389 1408.98 292.755 1408.98 M292.755 1405.27 Q298.565 1405.27 301.62 1409.88 Q304.699 1414.46 304.699 1423.21 Q304.699 1431.94 301.62 1436.55 Q298.565 1441.13 292.755 1441.13 Q286.944 1441.13 283.866 1436.55 Q280.81 1431.94 280.81 1423.21 Q280.81 1414.46 283.866 1409.88 Q286.944 1405.27 292.755 1405.27 Z" fill="#000000" fill-rule="evenodd" fill-opacity="1" /><path clip-path="url(#clip250)" d="M117.825 1226.35 L125.464 1226.35 L125.464 1199.99 L117.154 1201.66 L117.154 1197.4 L125.418 1195.73 L130.093 1195.73 L130.093 1226.35 L137.732 1226.35 L137.732 1230.29 L117.825 1230.29 L117.825 1226.35 Z" fill="#000000" fill-rule="evenodd" fill-opacity="1" /><path clip-path="url(#clip250)" d="M147.177 1224.41 L152.061 1224.41 L152.061 1230.29 L147.177 1230.29 L147.177 1224.41 Z" fill="#000000" fill-rule="evenodd" fill-opacity="1" /><path clip-path="url(#clip250)" d="M172.246 1198.81 Q168.635 1198.81 166.806 1202.37 Q165.001 1205.91 165.001 1213.04 Q165.001 1220.15 166.806 1223.72 Q168.635 1227.26 172.246 1227.26 Q175.88 1227.26 177.686 1223.72 Q179.514 1220.15 179.514 1213.04 Q179.514 1205.91 177.686 1202.37 Q175.88 1198.81 172.246 1198.81 M172.246 1195.1 Q178.056 1195.1 181.112 1199.71 Q184.19 1204.29 184.19 1213.04 Q184.19 1221.77 181.112 1226.38 Q178.056 1230.96 172.246 1230.96 Q166.436 1230.96 163.357 1226.38 Q160.302 1221.77 160.302 1213.04 Q160.302 1204.29 163.357 1199.71 Q166.436 1195.1 172.246 1195.1 Z" fill="#000000" fill-rule="evenodd" fill-opacity="1" /><path clip-path="url(#clip250)" d="M220.579 1204.83 L210 1215.45 L220.579 1226.03 L217.824 1228.83 L207.199 1218.21 L196.575 1228.83 L193.843 1226.03 L204.399 1215.45 L193.843 1204.83 L196.575 1202.03 L207.199 1212.65 L217.824 1202.03 L220.579 1204.83 Z" fill="#000000" fill-rule="evenodd" fill-opacity="1" /><path clip-path="url(#clip250)" d="M232.94 1226.35 L240.579 1226.35 L240.579 1199.99 L232.269 1201.66 L232.269 1197.4 L240.533 1195.73 L245.209 1195.73 L245.209 1226.35 L252.847 1226.35 L252.847 1230.29 L232.94 1230.29 L232.94 1226.35 Z" fill="#000000" fill-rule="evenodd" fill-opacity="1" /><path clip-path="url(#clip250)" d="M272.292 1198.81 Q268.681 1198.81 266.852 1202.37 Q265.046 1205.91 265.046 1213.04 Q265.046 1220.15 266.852 1223.72 Q268.681 1227.26 272.292 1227.26 Q275.926 1227.26 277.732 1223.72 Q279.56 1220.15 279.56 1213.04 Q279.56 1205.91 277.732 1202.37 Q275.926 1198.81 272.292 1198.81 M272.292 1195.1 Q278.102 1195.1 281.157 1199.71 Q284.236 1204.29 284.236 1213.04 Q284.236 1221.77 281.157 1226.38 Q278.102 1230.96 272.292 1230.96 Q266.482 1230.96 263.403 1226.38 Q260.347 1221.77 260.347 1213.04 Q260.347 1204.29 263.403 1199.71 Q266.482 1195.1 272.292 1195.1 Z" fill="#000000" fill-rule="evenodd" fill-opacity="1" /><path clip-path="url(#clip250)" d="M296.913 1178.11 L287.321 1193.1 L296.913 1193.1 L296.913 1178.11 M295.916 1174.8 L300.693 1174.8 L300.693 1193.1 L304.699 1193.1 L304.699 1196.26 L300.693 1196.26 L300.693 1202.88 L296.913 1202.88 L296.913 1196.26 L284.236 1196.26 L284.236 1192.59 L295.916 1174.8 Z" fill="#000000" fill-rule="evenodd" fill-opacity="1" /><path clip-path="url(#clip250)" d="M121.043 1009.74 L137.362 1009.74 L137.362 1013.67 L115.418 1013.67 L115.418 1009.74 Q118.08 1006.98 122.663 1002.35 Q127.269 997.699 128.45 996.357 Q130.695 993.834 131.575 992.098 Q132.478 990.338 132.478 988.649 Q132.478 985.894 130.533 984.158 Q128.612 982.422 125.51 982.422 Q123.311 982.422 120.857 983.186 Q118.427 983.949 115.649 985.5 L115.649 980.778 Q118.473 979.644 120.927 979.065 Q123.38 978.487 125.418 978.487 Q130.788 978.487 133.982 981.172 Q137.177 983.857 137.177 988.348 Q137.177 990.477 136.367 992.399 Q135.579 994.297 133.473 996.889 Q132.894 997.561 129.792 1000.78 Q126.691 1003.97 121.043 1009.74 Z" fill="#000000" fill-rule="evenodd" fill-opacity="1" /><path clip-path="url(#clip250)" d="M147.177 1007.79 L152.061 1007.79 L152.061 1013.67 L147.177 1013.67 L147.177 1007.79 Z" fill="#000000" fill-rule="evenodd" fill-opacity="1" /><path clip-path="url(#clip250)" d="M172.246 982.19 Q168.635 982.19 166.806 985.755 Q165.001 989.297 165.001 996.426 Q165.001 1003.53 166.806 1007.1 Q168.635 1010.64 172.246 1010.64 Q175.88 1010.64 177.686 1007.1 Q179.514 1003.53 179.514 996.426 Q179.514 989.297 177.686 985.755 Q175.88 982.19 172.246 982.19 M172.246 978.487 Q178.056 978.487 181.112 983.093 Q184.19 987.676 184.19 996.426 Q184.19 1005.15 181.112 1009.76 Q178.056 1014.34 172.246 1014.34 Q166.436 1014.34 163.357 1009.76 Q160.302 1005.15 160.302 996.426 Q160.302 987.676 163.357 983.093 Q166.436 978.487 172.246 978.487 Z" fill="#000000" fill-rule="evenodd" fill-opacity="1" /><path clip-path="url(#clip250)" d="M220.579 988.209 L210 998.834 L220.579 1009.41 L217.824 1012.21 L207.199 1001.59 L196.575 1012.21 L193.843 1009.41 L204.399 998.834 L193.843 988.209 L196.575 985.408 L207.199 996.033 L217.824 985.408 L220.579 988.209 Z" fill="#000000" fill-rule="evenodd" fill-opacity="1" /><path clip-path="url(#clip250)" d="M232.94 1009.74 L240.579 1009.74 L240.579 983.371 L232.269 985.037 L232.269 980.778 L240.533 979.112 L245.209 979.112 L245.209 1009.74 L252.847 1009.74 L252.847 1013.67 L232.94 1013.67 L232.94 1009.74 Z" fill="#000000" fill-rule="evenodd" fill-opacity="1" /><path clip-path="url(#clip250)" d="M272.292 982.19 Q268.681 982.19 266.852 985.755 Q265.046 989.297 265.046 996.426 Q265.046 1003.53 266.852 1007.1 Q268.681 1010.64 272.292 1010.64 Q275.926 1010.64 277.732 1007.1 Q279.56 1003.53 279.56 996.426 Q279.56 989.297 277.732 985.755 Q275.926 982.19 272.292 982.19 M272.292 978.487 Q278.102 978.487 281.157 983.093 Q284.236 987.676 284.236 996.426 Q284.236 1005.15 281.157 1009.76 Q278.102 1014.34 272.292 1014.34 Q266.482 1014.34 263.403 1009.76 Q260.347 1005.15 260.347 996.426 Q260.347 987.676 263.403 983.093 Q266.482 978.487 272.292 978.487 Z" fill="#000000" fill-rule="evenodd" fill-opacity="1" /><path clip-path="url(#clip250)" d="M296.913 961.491 L287.321 976.481 L296.913 976.481 L296.913 961.491 M295.916 958.181 L300.693 958.181 L300.693 976.481 L304.699 976.481 L304.699 979.641 L300.693 979.641 L300.693 986.261 L296.913 986.261 L296.913 979.641 L284.236 979.641 L284.236 975.973 L295.916 958.181 Z" fill="#000000" fill-rule="evenodd" fill-opacity="1" /><path clip-path="url(#clip250)" d="M131.181 778.419 Q134.538 779.137 136.413 781.406 Q138.311 783.674 138.311 787.007 Q138.311 792.123 134.792 794.924 Q131.274 797.725 124.793 797.725 Q122.617 797.725 120.302 797.285 Q118.01 796.868 115.556 796.012 L115.556 791.498 Q117.501 792.632 119.816 793.211 Q122.13 793.79 124.654 793.79 Q129.052 793.79 131.343 792.054 Q133.658 790.318 133.658 787.007 Q133.658 783.952 131.505 782.239 Q129.376 780.503 125.556 780.503 L121.529 780.503 L121.529 776.66 L125.742 776.66 Q129.191 776.66 131.019 775.294 Q132.848 773.906 132.848 771.313 Q132.848 768.651 130.95 767.239 Q129.075 765.804 125.556 765.804 Q123.635 765.804 121.436 766.22 Q119.237 766.637 116.598 767.517 L116.598 763.35 Q119.26 762.609 121.575 762.239 Q123.913 761.869 125.973 761.869 Q131.297 761.869 134.399 764.299 Q137.501 766.707 137.501 770.827 Q137.501 773.697 135.857 775.688 Q134.214 777.656 131.181 778.419 Z" fill="#000000" fill-rule="evenodd" fill-opacity="1" /><path clip-path="url(#clip250)" d="M147.177 791.174 L152.061 791.174 L152.061 797.054 L147.177 797.054 L147.177 791.174 Z" fill="#000000" fill-rule="evenodd" fill-opacity="1" /><path clip-path="url(#clip250)" d="M172.246 765.572 Q168.635 765.572 166.806 769.137 Q165.001 772.679 165.001 779.808 Q165.001 786.915 166.806 790.48 Q168.635 794.021 172.246 794.021 Q175.88 794.021 177.686 790.48 Q179.514 786.915 179.514 779.808 Q179.514 772.679 177.686 769.137 Q175.88 765.572 172.246 765.572 M172.246 761.869 Q178.056 761.869 181.112 766.475 Q184.19 771.058 184.19 779.808 Q184.19 788.535 181.112 793.142 Q178.056 797.725 172.246 797.725 Q166.436 797.725 163.357 793.142 Q160.302 788.535 160.302 779.808 Q160.302 771.058 163.357 766.475 Q166.436 761.869 172.246 761.869 Z" fill="#000000" fill-rule="evenodd" fill-opacity="1" /><path clip-path="url(#clip250)" d="M220.579 771.591 L210 782.216 L220.579 792.794 L217.824 795.595 L207.199 784.97 L196.575 795.595 L193.843 792.794 L204.399 782.216 L193.843 771.591 L196.575 768.79 L207.199 779.415 L217.824 768.79 L220.579 771.591 Z" fill="#000000" fill-rule="evenodd" fill-opacity="1" /><path clip-path="url(#clip250)" d="M232.94 793.118 L240.579 793.118 L240.579 766.753 L232.269 768.419 L232.269 764.16 L240.533 762.494 L245.209 762.494 L245.209 793.118 L252.847 793.118 L252.847 797.054 L232.94 797.054 L232.94 793.118 Z" fill="#000000" fill-rule="evenodd" fill-opacity="1" /><path clip-path="url(#clip250)" d="M272.292 765.572 Q268.681 765.572 266.852 769.137 Q265.046 772.679 265.046 779.808 Q265.046 786.915 266.852 790.48 Q268.681 794.021 272.292 794.021 Q275.926 794.021 277.732 790.48 Q279.56 786.915 279.56 779.808 Q279.56 772.679 277.732 769.137 Q275.926 765.572 272.292 765.572 M272.292 761.869 Q278.102 761.869 281.157 766.475 Q284.236 771.058 284.236 779.808 Q284.236 788.535 281.157 793.142 Q278.102 797.725 272.292 797.725 Q266.482 797.725 263.403 793.142 Q260.347 788.535 260.347 779.808 Q260.347 771.058 263.403 766.475 Q266.482 761.869 272.292 761.869 Z" fill="#000000" fill-rule="evenodd" fill-opacity="1" /><path clip-path="url(#clip250)" d="M296.913 744.873 L287.321 759.863 L296.913 759.863 L296.913 744.873 M295.916 741.563 L300.693 741.563 L300.693 759.863 L304.699 759.863 L304.699 763.023 L300.693 763.023 L300.693 769.643 L296.913 769.643 L296.913 763.023 L284.236 763.023 L284.236 759.355 L295.916 741.563 Z" fill="#000000" fill-rule="evenodd" fill-opacity="1" /><path clip-path="url(#clip250)" d="M129.862 549.95 L118.056 568.399 L129.862 568.399 L129.862 549.95 M128.635 545.876 L134.515 545.876 L134.515 568.399 L139.445 568.399 L139.445 572.288 L134.515 572.288 L134.515 580.436 L129.862 580.436 L129.862 572.288 L114.26 572.288 L114.26 567.774 L128.635 545.876 Z" fill="#000000" fill-rule="evenodd" fill-opacity="1" /><path clip-path="url(#clip250)" d="M147.177 574.556 L152.061 574.556 L152.061 580.436 L147.177 580.436 L147.177 574.556 Z" fill="#000000" fill-rule="evenodd" fill-opacity="1" /><path clip-path="url(#clip250)" d="M172.246 548.954 Q168.635 548.954 166.806 552.519 Q165.001 556.061 165.001 563.19 Q165.001 570.297 166.806 573.862 Q168.635 577.403 172.246 577.403 Q175.88 577.403 177.686 573.862 Q179.514 570.297 179.514 563.19 Q179.514 556.061 177.686 552.519 Q175.88 548.954 172.246 548.954 M172.246 545.251 Q178.056 545.251 181.112 549.857 Q184.19 554.44 184.19 563.19 Q184.19 571.917 181.112 576.524 Q178.056 581.107 172.246 581.107 Q166.436 581.107 163.357 576.524 Q160.302 571.917 160.302 563.19 Q160.302 554.44 163.357 549.857 Q166.436 545.251 172.246 545.251 Z" fill="#000000" fill-rule="evenodd" fill-opacity="1" /><path clip-path="url(#clip250)" d="M220.579 554.973 L210 565.598 L220.579 576.176 L217.824 578.977 L207.199 568.352 L196.575 578.977 L193.843 576.176 L204.399 565.598 L193.843 554.973 L196.575 552.172 L207.199 562.797 L217.824 552.172 L220.579 554.973 Z" fill="#000000" fill-rule="evenodd" fill-opacity="1" /><path clip-path="url(#clip250)" d="M232.94 576.5 L240.579 576.5 L240.579 550.135 L232.269 551.802 L232.269 547.542 L240.533 545.876 L245.209 545.876 L245.209 576.5 L252.847 576.5 L252.847 580.436 L232.94 580.436 L232.94 576.5 Z" fill="#000000" fill-rule="evenodd" fill-opacity="1" /><path clip-path="url(#clip250)" d="M272.292 548.954 Q268.681 548.954 266.852 552.519 Q265.046 556.061 265.046 563.19 Q265.046 570.297 266.852 573.862 Q268.681 577.403 272.292 577.403 Q275.926 577.403 277.732 573.862 Q279.56 570.297 279.56 563.19 Q279.56 556.061 277.732 552.519 Q275.926 548.954 272.292 548.954 M272.292 545.251 Q278.102 545.251 281.157 549.857 Q284.236 554.44 284.236 563.19 Q284.236 571.917 281.157 576.524 Q278.102 581.107 272.292 581.107 Q266.482 581.107 263.403 576.524 Q260.347 571.917 260.347 563.19 Q260.347 554.44 263.403 549.857 Q266.482 545.251 272.292 545.251 Z" fill="#000000" fill-rule="evenodd" fill-opacity="1" /><path clip-path="url(#clip250)" d="M296.913 528.255 L287.321 543.245 L296.913 543.245 L296.913 528.255 M295.916 524.945 L300.693 524.945 L300.693 543.245 L304.699 543.245 L304.699 546.405 L300.693 546.405 L300.693 553.025 L296.913 553.025 L296.913 546.405 L284.236 546.405 L284.236 542.737 L295.916 524.945 Z" fill="#000000" fill-rule="evenodd" fill-opacity="1" /><path clip-path="url(#clip250)" d="M117.061 329.258 L135.417 329.258 L135.417 333.193 L121.343 333.193 L121.343 341.665 Q122.362 341.318 123.38 341.156 Q124.399 340.971 125.418 340.971 Q131.205 340.971 134.584 344.142 Q137.964 347.313 137.964 352.73 Q137.964 358.308 134.492 361.41 Q131.019 364.489 124.7 364.489 Q122.524 364.489 120.255 364.119 Q118.01 363.748 115.603 363.007 L115.603 358.308 Q117.686 359.443 119.908 359.998 Q122.13 360.554 124.607 360.554 Q128.612 360.554 130.95 358.447 Q133.288 356.341 133.288 352.73 Q133.288 349.119 130.95 347.012 Q128.612 344.906 124.607 344.906 Q122.732 344.906 120.857 345.322 Q119.006 345.739 117.061 346.619 L117.061 329.258 Z" fill="#000000" fill-rule="evenodd" fill-opacity="1" /><path clip-path="url(#clip250)" d="M147.177 357.938 L152.061 357.938 L152.061 363.818 L147.177 363.818 L147.177 357.938 Z" fill="#000000" fill-rule="evenodd" fill-opacity="1" /><path clip-path="url(#clip250)" d="M172.246 332.336 Q168.635 332.336 166.806 335.901 Q165.001 339.443 165.001 346.572 Q165.001 353.679 166.806 357.244 Q168.635 360.785 172.246 360.785 Q175.88 360.785 177.686 357.244 Q179.514 353.679 179.514 346.572 Q179.514 339.443 177.686 335.901 Q175.88 332.336 172.246 332.336 M172.246 328.633 Q178.056 328.633 181.112 333.239 Q184.19 337.822 184.19 346.572 Q184.19 355.299 181.112 359.906 Q178.056 364.489 172.246 364.489 Q166.436 364.489 163.357 359.906 Q160.302 355.299 160.302 346.572 Q160.302 337.822 163.357 333.239 Q166.436 328.633 172.246 328.633 Z" fill="#000000" fill-rule="evenodd" fill-opacity="1" /><path clip-path="url(#clip250)" d="M220.579 338.355 L210 348.98 L220.579 359.558 L217.824 362.359 L207.199 351.734 L196.575 362.359 L193.843 359.558 L204.399 348.98 L193.843 338.355 L196.575 335.554 L207.199 346.179 L217.824 335.554 L220.579 338.355 Z" fill="#000000" fill-rule="evenodd" fill-opacity="1" /><path clip-path="url(#clip250)" d="M232.94 359.883 L240.579 359.883 L240.579 333.517 L232.269 335.184 L232.269 330.924 L240.533 329.258 L245.209 329.258 L245.209 359.883 L252.847 359.883 L252.847 363.818 L232.94 363.818 L232.94 359.883 Z" fill="#000000" fill-rule="evenodd" fill-opacity="1" /><path clip-path="url(#clip250)" d="M272.292 332.336 Q268.681 332.336 266.852 335.901 Q265.046 339.443 265.046 346.572 Q265.046 353.679 266.852 357.244 Q268.681 360.785 272.292 360.785 Q275.926 360.785 277.732 357.244 Q279.56 353.679 279.56 346.572 Q279.56 339.443 277.732 335.901 Q275.926 332.336 272.292 332.336 M272.292 328.633 Q278.102 328.633 281.157 333.239 Q284.236 337.822 284.236 346.572 Q284.236 355.299 281.157 359.906 Q278.102 364.489 272.292 364.489 Q266.482 364.489 263.403 359.906 Q260.347 355.299 260.347 346.572 Q260.347 337.822 263.403 333.239 Q266.482 328.633 272.292 328.633 Z" fill="#000000" fill-rule="evenodd" fill-opacity="1" /><path clip-path="url(#clip250)" d="M296.913 311.637 L287.321 326.627 L296.913 326.627 L296.913 311.637 M295.916 308.327 L300.693 308.327 L300.693 326.627 L304.699 326.627 L304.699 329.787 L300.693 329.787 L300.693 336.407 L296.913 336.407 L296.913 329.787 L284.236 329.787 L284.236 326.119 L295.916 308.327 Z" fill="#000000" fill-rule="evenodd" fill-opacity="1" /><path clip-path="url(#clip250)" d="M127.593 128.056 Q124.445 128.056 122.593 130.209 Q120.765 132.362 120.765 136.112 Q120.765 139.839 122.593 142.015 Q124.445 144.167 127.593 144.167 Q130.742 144.167 132.57 142.015 Q134.422 139.839 134.422 136.112 Q134.422 132.362 132.57 130.209 Q130.742 128.056 127.593 128.056 M136.876 113.404 L136.876 117.663 Q135.117 116.83 133.311 116.39 Q131.529 115.95 129.769 115.95 Q125.14 115.95 122.686 119.075 Q120.255 122.2 119.908 128.519 Q121.274 126.505 123.334 125.441 Q125.394 124.353 127.871 124.353 Q133.08 124.353 136.089 127.524 Q139.121 130.672 139.121 136.112 Q139.121 141.436 135.973 144.653 Q132.825 147.871 127.593 147.871 Q121.598 147.871 118.427 143.288 Q115.256 138.681 115.256 129.954 Q115.256 121.76 119.144 116.899 Q123.033 112.015 129.584 112.015 Q131.343 112.015 133.126 112.362 Q134.931 112.709 136.876 113.404 Z" fill="#000000" fill-rule="evenodd" fill-opacity="1" /><path clip-path="url(#clip250)" d="M147.177 141.32 L152.061 141.32 L152.061 147.2 L147.177 147.2 L147.177 141.32 Z" fill="#000000" fill-rule="evenodd" fill-opacity="1" /><path clip-path="url(#clip250)" d="M172.246 115.718 Q168.635 115.718 166.806 119.283 Q165.001 122.825 165.001 129.954 Q165.001 137.061 166.806 140.626 Q168.635 144.167 172.246 144.167 Q175.88 144.167 177.686 140.626 Q179.514 137.061 179.514 129.954 Q179.514 122.825 177.686 119.283 Q175.88 115.718 172.246 115.718 M172.246 112.015 Q178.056 112.015 181.112 116.621 Q184.19 121.204 184.19 129.954 Q184.19 138.681 181.112 143.288 Q178.056 147.871 172.246 147.871 Q166.436 147.871 163.357 143.288 Q160.302 138.681 160.302 129.954 Q160.302 121.204 163.357 116.621 Q166.436 112.015 172.246 112.015 Z" fill="#000000" fill-rule="evenodd" fill-opacity="1" /><path clip-path="url(#clip250)" d="M220.579 121.737 L210 132.362 L220.579 142.94 L217.824 145.741 L207.199 135.116 L196.575 145.741 L193.843 142.94 L204.399 132.362 L193.843 121.737 L196.575 118.936 L207.199 129.561 L217.824 118.936 L220.579 121.737 Z" fill="#000000" fill-rule="evenodd" fill-opacity="1" /><path clip-path="url(#clip250)" d="M232.94 143.265 L240.579 143.265 L240.579 116.899 L232.269 118.566 L232.269 114.306 L240.533 112.64 L245.209 112.64 L245.209 143.265 L252.847 143.265 L252.847 147.2 L232.94 147.2 L232.94 143.265 Z" fill="#000000" fill-rule="evenodd" fill-opacity="1" /><path clip-path="url(#clip250)" d="M272.292 115.718 Q268.681 115.718 266.852 119.283 Q265.046 122.825 265.046 129.954 Q265.046 137.061 266.852 140.626 Q268.681 144.167 272.292 144.167 Q275.926 144.167 277.732 140.626 Q279.56 137.061 279.56 129.954 Q279.56 122.825 277.732 119.283 Q275.926 115.718 272.292 115.718 M272.292 112.015 Q278.102 112.015 281.157 116.621 Q284.236 121.204 284.236 129.954 Q284.236 138.681 281.157 143.288 Q278.102 147.871 272.292 147.871 Q266.482 147.871 263.403 143.288 Q260.347 138.681 260.347 129.954 Q260.347 121.204 263.403 116.621 Q266.482 112.015 272.292 112.015 Z" fill="#000000" fill-rule="evenodd" fill-opacity="1" /><path clip-path="url(#clip250)" d="M296.913 95.0195 L287.321 110.009 L296.913 110.009 L296.913 95.0195 M295.916 91.7093 L300.693 91.7093 L300.693 110.009 L304.699 110.009 L304.699 113.169 L300.693 113.169 L300.693 119.789 L296.913 119.789 L296.913 113.169 L284.236 113.169 L284.236 109.501 L295.916 91.7093 Z" fill="#000000" fill-rule="evenodd" fill-opacity="1" /><path clip-path="url(#clip250)" d="M22.818 999.452 L46.4666 1008.17 L46.4666 990.699 L22.818 999.452 M16.4842 1003.08 L16.4842 995.792 L64.0042 977.681 L64.0042 984.365 L51.8138 988.694 L51.8138 1010.11 L64.0042 1014.44 L64.0042 1021.22 L16.4842 1003.08 Z" fill="#000000" fill-rule="evenodd" fill-opacity="1" /><path clip-path="url(#clip250)" d="M45.7664 947.539 Q39.4007 947.539 35.8996 950.181 Q32.3984 952.791 32.3984 957.534 Q32.3984 962.244 35.8996 964.886 Q39.4007 967.496 45.7664 967.496 Q52.1003 967.496 55.6014 964.886 Q59.1026 962.244 59.1026 957.534 Q59.1026 952.791 55.6014 950.181 Q52.1003 947.539 45.7664 947.539 M59.58 941.683 Q68.683 941.683 73.1071 945.725 Q77.5631 949.767 77.5631 958.107 Q77.5631 961.194 77.0857 963.931 Q76.6401 966.668 75.6852 969.247 L69.9879 969.247 Q71.3884 966.668 72.0568 964.154 Q72.7252 961.64 72.7252 959.03 Q72.7252 953.269 69.7015 950.404 Q66.7096 947.539 60.6303 947.539 L57.7339 947.539 Q60.885 949.354 62.4446 952.186 Q64.0042 955.019 64.0042 958.966 Q64.0042 965.523 59.0071 969.533 Q54.01 973.543 45.7664 973.543 Q37.491 973.543 32.4939 969.533 Q27.4968 965.523 27.4968 958.966 Q27.4968 955.019 29.0564 952.186 Q30.616 949.354 33.7671 947.539 L28.3562 947.539 L28.3562 941.683 L59.58 941.683 Z" fill="#000000" fill-rule="evenodd" fill-opacity="1" /><path clip-path="url(#clip250)" d="M44.7161 899.128 L47.5806 899.128 L47.5806 926.055 Q53.6281 925.673 56.8109 922.427 Q59.9619 919.148 59.9619 913.324 Q59.9619 909.95 59.1344 906.799 Q58.3069 903.616 56.6518 900.497 L62.1899 900.497 Q63.5267 903.648 64.227 906.958 Q64.9272 910.268 64.9272 913.674 Q64.9272 922.204 59.9619 927.201 Q54.9967 932.166 46.5303 932.166 Q37.7774 932.166 32.6531 927.456 Q27.4968 922.713 27.4968 914.692 Q27.4968 907.499 32.1438 903.33 Q36.7589 899.128 44.7161 899.128 M42.9973 904.985 Q38.1912 905.048 35.3266 907.69 Q32.4621 910.3 32.4621 914.629 Q32.4621 919.53 35.2312 922.49 Q38.0002 925.419 43.0292 925.864 L42.9973 904.985 Z" fill="#000000" fill-rule="evenodd" fill-opacity="1" /><path clip-path="url(#clip250)" d="M32.4621 854.982 Q32.4621 859.693 36.1542 862.43 Q39.8145 865.167 46.212 865.167 Q52.6095 865.167 56.3017 862.462 Q59.9619 859.725 59.9619 854.982 Q59.9619 850.303 56.2698 847.566 Q52.5777 844.829 46.212 844.829 Q39.8781 844.829 36.186 847.566 Q32.4621 850.303 32.4621 854.982 M27.4968 854.982 Q27.4968 847.343 32.4621 842.983 Q37.4273 838.622 46.212 838.622 Q54.9649 838.622 59.9619 842.983 Q64.9272 847.343 64.9272 854.982 Q64.9272 862.653 59.9619 867.013 Q54.9649 871.342 46.212 871.342 Q37.4273 871.342 32.4621 867.013 Q27.4968 862.653 27.4968 854.982 Z" fill="#000000" fill-rule="evenodd" fill-opacity="1" /><path clip-path="url(#clip250)" d="M14.479 810.868 L19.3487 810.868 L19.3487 816.47 Q19.3487 819.621 20.6219 820.862 Q21.895 822.071 25.2052 822.071 L28.3562 822.071 L28.3562 812.427 L32.9077 812.427 L32.9077 822.071 L64.0042 822.071 L64.0042 827.96 L32.9077 827.96 L32.9077 833.561 L28.3562 833.561 L28.3562 827.96 L25.8736 827.96 Q19.9216 827.96 17.2162 825.191 Q14.479 822.421 14.479 816.406 L14.479 810.868 Z" fill="#000000" fill-rule="evenodd" fill-opacity="1" /><path clip-path="url(#clip250)" d="M35.1993 757.491 Q31.2526 755.295 29.3747 752.24 Q27.4968 749.184 27.4968 745.046 Q27.4968 739.476 31.4117 736.453 Q35.2948 733.429 42.4881 733.429 L64.0042 733.429 L64.0042 739.317 L42.679 739.317 Q37.5546 739.317 35.072 741.131 Q32.5894 742.946 32.5894 746.67 Q32.5894 751.221 35.6131 753.863 Q38.6368 756.505 43.8567 756.505 L64.0042 756.505 L64.0042 762.393 L42.679 762.393 Q37.5228 762.393 35.072 764.207 Q32.5894 766.021 32.5894 769.809 Q32.5894 774.297 35.6449 776.939 Q38.6686 779.58 43.8567 779.58 L64.0042 779.58 L64.0042 785.469 L28.3562 785.469 L28.3562 779.58 L33.8944 779.58 Q30.616 777.575 29.0564 774.774 Q27.4968 771.973 27.4968 768.122 Q27.4968 764.239 29.4702 761.534 Q31.4436 758.796 35.1993 757.491 Z" fill="#000000" fill-rule="evenodd" fill-opacity="1" /><path clip-path="url(#clip250)" d="M46.0847 705.547 Q46.0847 712.645 47.7079 715.382 Q49.3312 718.119 53.2461 718.119 Q56.3653 718.119 58.2114 716.082 Q60.0256 714.014 60.0256 710.481 Q60.0256 705.611 56.5881 702.683 Q53.1188 699.723 47.3897 699.723 L46.0847 699.723 L46.0847 705.547 M43.6657 693.866 L64.0042 693.866 L64.0042 699.723 L58.5933 699.723 Q61.8398 701.728 63.3994 704.72 Q64.9272 707.711 64.9272 712.04 Q64.9272 717.515 61.8716 720.761 Q58.7843 723.976 53.6281 723.976 Q47.6125 723.976 44.5569 719.965 Q41.5014 715.923 41.5014 707.934 L41.5014 699.723 L40.9285 699.723 Q36.8862 699.723 34.6901 702.396 Q32.4621 705.038 32.4621 709.844 Q32.4621 712.9 33.1941 715.796 Q33.9262 718.692 35.3903 721.366 L29.9795 721.366 Q28.7381 718.151 28.1334 715.128 Q27.4968 712.104 27.4968 709.239 Q27.4968 701.505 31.5072 697.685 Q35.5176 693.866 43.6657 693.866 Z" fill="#000000" fill-rule="evenodd" fill-opacity="1" /><path clip-path="url(#clip250)" d="M18.2347 676.01 L28.3562 676.01 L28.3562 663.947 L32.9077 663.947 L32.9077 676.01 L52.2594 676.01 Q56.6199 676.01 57.8613 674.833 Q59.1026 673.623 59.1026 669.963 L59.1026 663.947 L64.0042 663.947 L64.0042 669.963 Q64.0042 676.742 61.4897 679.32 Q58.9434 681.899 52.2594 681.899 L32.9077 681.899 L32.9077 686.195 L28.3562 686.195 L28.3562 681.899 L18.2347 681.899 L18.2347 676.01 Z" fill="#000000" fill-rule="evenodd" fill-opacity="1" /><path clip-path="url(#clip250)" d="M44.7161 625.753 L47.5806 625.753 L47.5806 652.68 Q53.6281 652.298 56.8109 649.051 Q59.9619 645.773 59.9619 639.949 Q59.9619 636.575 59.1344 633.424 Q58.3069 630.241 56.6518 627.122 L62.1899 627.122 Q63.5267 630.273 64.227 633.583 Q64.9272 636.893 64.9272 640.299 Q64.9272 648.829 59.9619 653.826 Q54.9967 658.791 46.5303 658.791 Q37.7774 658.791 32.6531 654.08 Q27.4968 649.338 27.4968 641.317 Q27.4968 634.124 32.1438 629.954 Q36.7589 625.753 44.7161 625.753 M42.9973 631.609 Q38.1912 631.673 35.3266 634.315 Q32.4621 636.925 32.4621 641.253 Q32.4621 646.155 35.2312 649.115 Q38.0002 652.043 43.0292 652.489 L42.9973 631.609 Z" fill="#000000" fill-rule="evenodd" fill-opacity="1" /><path clip-path="url(#clip250)" d="M33.8307 595.484 Q33.2578 596.471 33.0032 597.648 Q32.7167 598.794 32.7167 600.195 Q32.7167 605.16 35.9632 607.834 Q39.1779 610.475 45.2253 610.475 L64.0042 610.475 L64.0042 616.364 L28.3562 616.364 L28.3562 610.475 L33.8944 610.475 Q30.6479 608.629 29.0883 605.669 Q27.4968 602.709 27.4968 598.476 Q27.4968 597.871 27.5923 597.139 Q27.656 596.407 27.8151 595.516 L33.8307 595.484 Z" fill="#000000" fill-rule="evenodd" fill-opacity="1" /><path clip-path="url(#clip250)" d="M28.3562 589.341 L28.3562 583.485 L64.0042 583.485 L64.0042 589.341 L28.3562 589.341 M14.479 589.341 L14.479 583.485 L21.895 583.485 L21.895 589.341 L14.479 589.341 Z" fill="#000000" fill-rule="evenodd" fill-opacity="1" /><path clip-path="url(#clip250)" d="M46.0847 555.03 Q46.0847 562.128 47.7079 564.865 Q49.3312 567.602 53.2461 567.602 Q56.3653 567.602 58.2114 565.565 Q60.0256 563.496 60.0256 559.963 Q60.0256 555.094 56.5881 552.165 Q53.1188 549.205 47.3897 549.205 L46.0847 549.205 L46.0847 555.03 M43.6657 543.349 L64.0042 543.349 L64.0042 549.205 L58.5933 549.205 Q61.8398 551.211 63.3994 554.202 Q64.9272 557.194 64.9272 561.523 Q64.9272 566.998 61.8716 570.244 Q58.7843 573.459 53.6281 573.459 Q47.6125 573.459 44.5569 569.448 Q41.5014 565.406 41.5014 557.417 L41.5014 549.205 L40.9285 549.205 Q36.8862 549.205 34.6901 551.879 Q32.4621 554.521 32.4621 559.327 Q32.4621 562.382 33.1941 565.279 Q33.9262 568.175 35.3903 570.849 L29.9795 570.849 Q28.7381 567.634 28.1334 564.61 Q27.4968 561.587 27.4968 558.722 Q27.4968 550.988 31.5072 547.168 Q35.5176 543.349 43.6657 543.349 Z" fill="#000000" fill-rule="evenodd" fill-opacity="1" /><path clip-path="url(#clip250)" d="M14.479 531.286 L14.479 525.429 L64.0042 525.429 L64.0042 531.286 L14.479 531.286 Z" fill="#000000" fill-rule="evenodd" fill-opacity="1" /><path clip-path="url(#clip250)" d="M1044.06 16.7545 L1044.06 25.383 Q1039.93 21.5346 1035.23 19.6307 Q1030.57 17.7268 1025.31 17.7268 Q1014.94 17.7268 1009.43 24.0867 Q1003.92 30.4061 1003.92 42.3968 Q1003.92 54.3469 1009.43 60.7069 Q1014.94 67.0263 1025.31 67.0263 Q1030.57 67.0263 1035.23 65.1223 Q1039.93 63.2184 1044.06 59.3701 L1044.06 67.9175 Q1039.77 70.8341 1034.95 72.2924 Q1030.17 73.7508 1024.82 73.7508 Q1011.09 73.7508 1003.19 65.3654 Q995.291 56.9395 995.291 42.3968 Q995.291 27.8135 1003.19 19.4281 Q1011.09 11.0023 1024.82 11.0023 Q1030.25 11.0023 1035.03 12.4606 Q1039.85 13.8784 1044.06 16.7545 Z" fill="#000000" fill-rule="evenodd" fill-opacity="1" /><path clip-path="url(#clip250)" d="M1077 49.7694 Q1067.96 49.7694 1064.48 51.8354 Q1061 53.9013 1061 58.8839 Q1061 62.8538 1063.59 65.2034 Q1066.22 67.5124 1070.72 67.5124 Q1076.92 67.5124 1080.64 63.1374 Q1084.41 58.7219 1084.41 51.4303 L1084.41 49.7694 L1077 49.7694 M1091.86 46.6907 L1091.86 72.576 L1084.41 72.576 L1084.41 65.6895 Q1081.86 69.8214 1078.05 71.8063 Q1074.24 73.7508 1068.73 73.7508 Q1061.77 73.7508 1057.63 69.8619 Q1053.54 65.9325 1053.54 59.3701 Q1053.54 51.7138 1058.65 47.825 Q1063.79 43.9361 1073.96 43.9361 L1084.41 43.9361 L1084.41 43.2069 Q1084.41 38.0623 1081.01 35.2672 Q1077.65 32.4315 1071.53 32.4315 Q1067.64 32.4315 1063.95 33.3632 Q1060.27 34.295 1056.86 36.1584 L1056.86 29.2718 Q1060.96 27.692 1064.8 26.9223 Q1068.65 26.1121 1072.3 26.1121 Q1082.14 26.1121 1087 31.2163 Q1091.86 36.3204 1091.86 46.6907 Z" fill="#000000" fill-rule="evenodd" fill-opacity="1" /><path clip-path="url(#clip250)" d="M1133.51 34.1734 Q1132.25 33.4443 1130.75 33.1202 Q1129.3 32.7556 1127.51 32.7556 Q1121.19 32.7556 1117.79 36.8875 Q1114.43 40.9789 1114.43 48.6757 L1114.43 72.576 L1106.93 72.576 L1106.93 27.2059 L1114.43 27.2059 L1114.43 34.2544 Q1116.78 30.1225 1120.55 28.1376 Q1124.31 26.1121 1129.7 26.1121 Q1130.47 26.1121 1131.4 26.2337 Q1132.33 26.3147 1133.47 26.5172 L1133.51 34.1734 Z" fill="#000000" fill-rule="evenodd" fill-opacity="1" /><path clip-path="url(#clip250)" d="M1173.9 49.9314 Q1173.9 41.7081 1170.49 37.0496 Q1167.13 32.3505 1161.22 32.3505 Q1155.3 32.3505 1151.9 37.0496 Q1148.54 41.7081 1148.54 49.9314 Q1148.54 58.1548 1151.9 62.8538 Q1155.3 67.5124 1161.22 67.5124 Q1167.13 67.5124 1170.49 62.8538 Q1173.9 58.1548 1173.9 49.9314 M1148.54 34.0924 Q1150.89 30.0415 1154.45 28.0971 Q1158.06 26.1121 1163.04 26.1121 Q1171.3 26.1121 1176.45 32.6746 Q1181.63 39.2371 1181.63 49.9314 Q1181.63 60.6258 1176.45 67.1883 Q1171.3 73.7508 1163.04 73.7508 Q1158.06 73.7508 1154.45 71.8063 Q1150.89 69.8214 1148.54 65.7705 L1148.54 72.576 L1141.04 72.576 L1141.04 9.54393 L1148.54 9.54393 L1148.54 34.0924 Z" fill="#000000" fill-rule="evenodd" fill-opacity="1" /><path clip-path="url(#clip250)" d="M1211.57 32.4315 Q1205.57 32.4315 1202.09 37.1306 Q1198.61 41.7891 1198.61 49.9314 Q1198.61 58.0738 1202.05 62.7728 Q1205.53 67.4314 1211.57 67.4314 Q1217.52 67.4314 1221.01 62.7323 Q1224.49 58.0333 1224.49 49.9314 Q1224.49 41.8701 1221.01 37.1711 Q1217.52 32.4315 1211.57 32.4315 M1211.57 26.1121 Q1221.29 26.1121 1226.84 32.4315 Q1232.39 38.7509 1232.39 49.9314 Q1232.39 61.0714 1226.84 67.4314 Q1221.29 73.7508 1211.57 73.7508 Q1201.81 73.7508 1196.26 67.4314 Q1190.75 61.0714 1190.75 49.9314 Q1190.75 38.7509 1196.26 32.4315 Q1201.81 26.1121 1211.57 26.1121 Z" fill="#000000" fill-rule="evenodd" fill-opacity="1" /><path clip-path="url(#clip250)" d="M1282.46 45.1919 L1282.46 72.576 L1275.01 72.576 L1275.01 45.4349 Q1275.01 38.994 1272.49 35.7938 Q1269.98 32.5936 1264.96 32.5936 Q1258.92 32.5936 1255.44 36.4419 Q1251.96 40.2903 1251.96 46.9338 L1251.96 72.576 L1244.46 72.576 L1244.46 27.2059 L1251.96 27.2059 L1251.96 34.2544 Q1254.63 30.163 1258.24 28.1376 Q1261.88 26.1121 1266.62 26.1121 Q1274.44 26.1121 1278.45 30.9732 Q1282.46 35.7938 1282.46 45.1919 Z" fill="#000000" fill-rule="evenodd" fill-opacity="1" /><path clip-path="url(#clip250)" d="M1293.56 46.5287 L1315.39 46.5287 L1315.39 53.1722 L1293.56 53.1722 L1293.56 46.5287 Z" fill="#000000" fill-rule="evenodd" fill-opacity="1" /><path clip-path="url(#clip250)" d="M1329.73 65.6895 L1343.1 65.6895 L1343.1 19.5497 L1328.56 22.4663 L1328.56 15.0127 L1343.02 12.096 L1351.2 12.096 L1351.2 65.6895 L1364.57 65.6895 L1364.57 72.576 L1329.73 72.576 L1329.73 65.6895 Z" fill="#000000" fill-rule="evenodd" fill-opacity="1" /><path clip-path="url(#clip250)" d="M1403.58 19.2256 L1382.92 51.5113 L1403.58 51.5113 L1403.58 19.2256 M1401.43 12.096 L1411.72 12.096 L1411.72 51.5113 L1420.35 51.5113 L1420.35 58.3168 L1411.72 58.3168 L1411.72 72.576 L1403.58 72.576 L1403.58 58.3168 L1376.28 58.3168 L1376.28 50.4176 L1401.43 12.096 Z" fill="#000000" fill-rule="evenodd" fill-opacity="1" /><path clip-path="url(#clip250)" d="M1489.06 34.0924 L1489.06 9.54393 L1496.51 9.54393 L1496.51 72.576 L1489.06 72.576 L1489.06 65.7705 Q1486.71 69.8214 1483.1 71.8063 Q1479.54 73.7508 1474.51 73.7508 Q1466.29 73.7508 1461.1 67.1883 Q1455.96 60.6258 1455.96 49.9314 Q1455.96 39.2371 1461.1 32.6746 Q1466.29 26.1121 1474.51 26.1121 Q1479.54 26.1121 1483.1 28.0971 Q1486.71 30.0415 1489.06 34.0924 M1463.66 49.9314 Q1463.66 58.1548 1467.02 62.8538 Q1470.42 67.5124 1476.34 67.5124 Q1482.25 67.5124 1485.65 62.8538 Q1489.06 58.1548 1489.06 49.9314 Q1489.06 41.7081 1485.65 37.0496 Q1482.25 32.3505 1476.34 32.3505 Q1470.42 32.3505 1467.02 37.0496 Q1463.66 41.7081 1463.66 49.9314 Z" fill="#000000" fill-rule="evenodd" fill-opacity="1" /><path clip-path="url(#clip250)" d="M1550.67 48.0275 L1550.67 51.6733 L1516.4 51.6733 Q1516.89 59.3701 1521.02 63.421 Q1525.19 67.4314 1532.6 67.4314 Q1536.9 67.4314 1540.91 66.3781 Q1544.96 65.3249 1548.93 63.2184 L1548.93 70.267 Q1544.92 71.9684 1540.7 72.8596 Q1536.49 73.7508 1532.16 73.7508 Q1521.3 73.7508 1514.94 67.4314 Q1508.62 61.1119 1508.62 50.3365 Q1508.62 39.1965 1514.62 32.6746 Q1520.65 26.1121 1530.86 26.1121 Q1540.02 26.1121 1545.32 32.0264 Q1550.67 37.9003 1550.67 48.0275 M1543.22 45.84 Q1543.14 39.7232 1539.77 36.0774 Q1536.45 32.4315 1530.94 32.4315 Q1524.7 32.4315 1520.94 35.9558 Q1517.21 39.4801 1516.64 45.8805 L1543.22 45.84 Z" fill="#000000" fill-rule="evenodd" fill-opacity="1" /><path clip-path="url(#clip250)" d="M1595.55 28.9478 L1595.55 35.9153 Q1592.39 34.1734 1589.19 33.3227 Q1586.03 32.4315 1582.79 32.4315 Q1575.54 32.4315 1571.53 37.0496 Q1567.52 41.6271 1567.52 49.9314 Q1567.52 58.2358 1571.53 62.8538 Q1575.54 67.4314 1582.79 67.4314 Q1586.03 67.4314 1589.19 66.5807 Q1592.39 65.6895 1595.55 63.9476 L1595.55 70.8341 Q1592.44 72.2924 1589.07 73.0216 Q1585.75 73.7508 1581.98 73.7508 Q1571.73 73.7508 1565.7 67.3098 Q1559.66 60.8689 1559.66 49.9314 Q1559.66 38.832 1565.74 32.472 Q1571.86 26.1121 1582.47 26.1121 Q1585.91 26.1121 1589.19 26.8413 Q1592.48 27.5299 1595.55 28.9478 Z" fill="#000000" fill-rule="evenodd" fill-opacity="1" /><path clip-path="url(#clip250)" d="M1629.14 49.7694 Q1620.1 49.7694 1616.62 51.8354 Q1613.14 53.9013 1613.14 58.8839 Q1613.14 62.8538 1615.73 65.2034 Q1618.36 67.5124 1622.86 67.5124 Q1629.06 67.5124 1632.78 63.1374 Q1636.55 58.7219 1636.55 51.4303 L1636.55 49.7694 L1629.14 49.7694 M1644 46.6907 L1644 72.576 L1636.55 72.576 L1636.55 65.6895 Q1634 69.8214 1630.19 71.8063 Q1626.38 73.7508 1620.87 73.7508 Q1613.9 73.7508 1609.77 69.8619 Q1605.68 65.9325 1605.68 59.3701 Q1605.68 51.7138 1610.79 47.825 Q1615.93 43.9361 1626.1 43.9361 L1636.55 43.9361 L1636.55 43.2069 Q1636.55 38.0623 1633.15 35.2672 Q1629.78 32.4315 1623.67 32.4315 Q1619.78 32.4315 1616.09 33.3632 Q1612.41 34.295 1609 36.1584 L1609 29.2718 Q1613.09 27.692 1616.94 26.9223 Q1620.79 26.1121 1624.44 26.1121 Q1634.28 26.1121 1639.14 31.2163 Q1644 36.3204 1644 46.6907 Z" fill="#000000" fill-rule="evenodd" fill-opacity="1" /><path clip-path="url(#clip250)" d="M1678.23 76.7889 Q1675.07 84.8907 1672.08 87.3618 Q1669.08 89.8329 1664.06 89.8329 L1658.1 89.8329 L1658.1 83.5945 L1662.48 83.5945 Q1665.55 83.5945 1667.26 82.1361 Q1668.96 80.6778 1671.02 75.2496 L1672.36 71.8468 L1654.01 27.2059 L1661.91 27.2059 L1676.09 62.6918 L1690.26 27.2059 L1698.16 27.2059 L1678.23 76.7889 Z" fill="#000000" fill-rule="evenodd" fill-opacity="1" /><polyline clip-path="url(#clip252)" style="stroke:#009af9; stroke-linecap:butt; stroke-linejoin:round; stroke-width:4; stroke-opacity:1; fill:none" points="
  342.711,192.682 344.723,316.154 346.735,388.381 348.747,439.627 350.759,479.376 352.771,511.853 354.783,539.313 356.795,563.099 358.807,584.08 360.82,602.848 
  362.832,619.826 364.844,635.326 366.856,649.584 368.868,662.785 370.88,675.075 372.892,686.571 374.904,697.37 376.916,707.552 378.928,717.183 380.94,726.32 
  382.952,735.011 384.964,743.298 386.976,751.216 388.988,758.798 391,766.069 393.012,773.056 395.024,779.779 397.037,786.257 399.049,792.508 401.061,798.547 
  403.073,804.388 405.085,810.043 407.097,815.525 409.109,820.843 411.121,826.006 413.133,831.024 415.145,835.905 417.157,840.656 419.169,845.283 421.181,849.793 
  423.193,854.191 425.205,858.484 427.217,862.675 429.229,866.77 431.242,870.774 433.254,874.689 435.266,878.52 437.278,882.27 439.29,885.943 441.302,889.542 
  443.314,893.069 445.326,896.528 447.338,899.921 449.35,903.251 451.362,906.52 453.374,909.729 455.386,912.882 457.398,915.98 459.41,919.025 461.422,922.019 
  463.434,924.964 465.446,927.86 467.459,930.71 469.471,933.516 471.483,936.277 473.495,938.997 475.507,941.676 477.519,944.315 479.531,946.915 481.543,949.478 
  483.555,952.005 485.567,954.497 487.579,956.954 489.591,959.377 491.603,961.768 493.615,964.128 495.627,966.456 497.639,968.755 499.651,971.024 501.664,973.265 
  503.676,975.478 505.688,977.663 507.7,979.823 509.712,981.956 511.724,984.064 513.736,986.147 515.748,988.207 517.76,990.243 519.772,992.255 521.784,994.246 
  523.796,996.214 525.808,998.161 527.82,1000.09 529.832,1001.99 531.844,1003.88 533.856,1005.74 535.868,1007.59 537.881,1009.42 539.893,1011.22 541.905,1013.01 
  543.917,1014.79 545.929,1016.54 547.941,1018.28 549.953,1020 551.965,1021.71 553.977,1023.39 555.989,1025.07 558.001,1026.72 560.013,1028.37 562.025,1029.99 
  564.037,1031.6 566.049,1033.2 568.061,1034.78 570.073,1036.35 572.086,1037.91 574.098,1039.45 576.11,1040.98 578.122,1042.5 580.134,1044 582.146,1045.49 
  584.158,1046.97 586.17,1048.44 588.182,1049.89 590.194,1051.33 592.206,1052.76 594.218,1054.18 596.23,1055.59 598.242,1056.99 600.254,1058.37 602.266,1059.75 
  604.278,1061.11 606.29,1062.47 608.303,1063.81 610.315,1065.15 612.327,1066.47 614.339,1067.79 616.351,1069.09 618.363,1070.39 620.375,1071.67 622.387,1072.95 
  624.399,1074.22 626.411,1075.48 628.423,1076.73 630.435,1077.97 632.447,1079.2 634.459,1080.43 636.471,1081.64 638.483,1082.85 640.495,1084.05 642.507,1085.24 
  644.52,1086.42 646.532,1087.6 648.544,1088.77 650.556,1089.93 652.568,1091.08 654.58,1092.23 656.592,1093.37 658.604,1094.5 660.616,1095.62 662.628,1096.74 
  664.64,1097.85 666.652,1098.95 668.664,1100.05 670.676,1101.14 672.688,1102.22 674.7,1103.29 676.712,1104.36 678.725,1105.43 680.737,1106.49 682.749,1107.54 
  684.761,1108.58 686.773,1109.62 688.785,1110.65 690.797,1111.68 692.809,1112.7 694.821,1113.71 696.833,1114.72 698.845,1115.73 700.857,1116.73 702.869,1117.72 
  704.881,1118.7 706.893,1119.69 708.905,1120.66 710.917,1121.63 712.929,1122.6 714.942,1123.56 716.954,1124.51 718.966,1125.46 720.978,1126.41 722.99,1127.35 
  725.002,1128.28 727.014,1129.21 729.026,1130.14 731.038,1131.06 733.05,1131.98 735.062,1132.89 737.074,1133.79 739.086,1134.7 741.098,1135.59 743.11,1136.49 
  745.122,1137.37 747.134,1138.26 749.147,1139.14 751.159,1140.01 753.171,1140.88 755.183,1141.75 757.195,1142.61 759.207,1143.47 761.219,1144.33 763.231,1145.18 
  765.243,1146.02 767.255,1146.87 769.267,1147.7 771.279,1148.54 773.291,1149.37 775.303,1150.2 777.315,1151.02 779.327,1151.84 781.339,1152.65 783.351,1153.46 
  785.364,1154.27 787.376,1155.08 789.388,1155.88 791.4,1156.67 793.412,1157.47 795.424,1158.26 797.436,1159.04 799.448,1159.83 801.46,1160.61 803.472,1161.38 
  805.484,1162.16 807.496,1162.92 809.508,1163.69 811.52,1164.45 813.532,1165.21 815.544,1165.97 817.556,1166.72 819.569,1167.47 821.581,1168.22 823.593,1168.96 
  825.605,1169.7 827.617,1170.44 829.629,1171.18 831.641,1171.91 833.653,1172.64 835.665,1173.36 837.677,1174.08 839.689,1174.8 841.701,1175.52 843.713,1176.24 
  845.725,1176.95 847.737,1177.65 849.749,1178.36 851.761,1179.06 853.773,1179.76 855.786,1180.46 857.798,1181.15 859.81,1181.85 861.822,1182.54 863.834,1183.22 
  865.846,1183.91 867.858,1184.59 869.87,1185.27 871.882,1185.94 873.894,1186.61 875.906,1187.29 877.918,1187.95 879.93,1188.62 881.942,1189.28 883.954,1189.94 
  885.966,1190.6 887.978,1191.26 889.991,1191.91 892.003,1192.56 894.015,1193.21 896.027,1193.86 898.039,1194.5 900.051,1195.15 902.063,1195.79 904.075,1196.42 
  906.087,1197.06 908.099,1197.69 910.111,1198.32 912.123,1198.95 914.135,1199.58 916.147,1200.2 918.159,1200.82 920.171,1201.44 922.183,1202.06 924.195,1202.67 
  926.208,1203.29 928.22,1203.9 930.232,1204.51 932.244,1205.11 934.256,1205.72 936.268,1206.32 938.28,1206.92 940.292,1207.52 942.304,1208.12 944.316,1208.71 
  946.328,1209.31 948.34,1209.9 950.352,1210.49 952.364,1211.07 954.376,1211.66 956.388,1212.24 958.4,1212.82 960.412,1213.4 962.425,1213.98 964.437,1214.55 
  966.449,1215.13 968.461,1215.7 970.473,1216.27 972.485,1216.84 974.497,1217.4 976.509,1217.97 978.521,1218.53 980.533,1219.09 982.545,1219.65 984.557,1220.21 
  986.569,1220.77 988.581,1221.32 990.593,1221.87 992.605,1222.42 994.617,1222.97 996.63,1223.52 998.642,1224.06 1000.65,1224.61 1002.67,1225.15 1004.68,1225.69 
  1006.69,1226.23 1008.7,1226.77 1010.71,1227.3 1012.73,1227.84 1014.74,1228.37 1016.75,1228.9 1018.76,1229.43 1020.77,1229.96 1022.79,1230.48 1024.8,1231.01 
  1026.81,1231.53 1028.82,1232.05 1030.83,1232.57 1032.85,1233.09 1034.86,1233.61 1036.87,1234.12 1038.88,1234.64 1040.89,1235.15 1042.91,1235.66 1044.92,1236.17 
  1046.93,1236.68 1048.94,1237.19 1050.96,1237.69 1052.97,1238.2 1054.98,1238.7 1056.99,1239.2 1059,1239.7 1061.02,1240.2 1063.03,1240.69 1065.04,1241.19 
  1067.05,1241.68 1069.06,1242.18 1071.08,1242.67 1073.09,1243.16 1075.1,1243.65 1077.11,1244.13 1079.12,1244.62 1081.14,1245.11 1083.15,1245.59 1085.16,1246.07 
  1087.17,1246.55 1089.18,1247.03 1091.2,1247.51 1093.21,1247.99 1095.22,1248.46 1097.23,1248.94 1099.24,1249.41 1101.26,1249.88 1103.27,1250.35 1105.28,1250.82 
  1107.29,1251.29 1109.3,1251.76 1111.32,1252.22 1113.33,1252.69 1115.34,1253.15 1117.35,1253.61 1119.36,1254.07 1121.38,1254.53 1123.39,1254.99 1125.4,1255.45 
  1127.41,1255.9 1129.43,1256.36 1131.44,1256.81 1133.45,1257.27 1135.46,1257.72 1137.47,1258.17 1139.49,1258.62 1141.5,1259.07 1143.51,1259.51 1145.52,1259.96 
  1147.53,1260.4 1149.55,1260.85 1151.56,1261.29 1153.57,1261.73 1155.58,1262.17 1157.59,1262.61 1159.61,1263.05 1161.62,1263.49 1163.63,1263.92 1165.64,1264.36 
  1167.65,1264.79 1169.67,1265.22 1171.68,1265.66 1173.69,1266.09 1175.7,1266.52 1177.71,1266.94 1179.73,1267.37 1181.74,1267.8 1183.75,1268.22 1185.76,1268.65 
  1187.77,1269.07 1189.79,1269.5 1191.8,1269.92 1193.81,1270.34 1195.82,1270.76 1197.84,1271.18 1199.85,1271.59 1201.86,1272.01 1203.87,1272.43 1205.88,1272.84 
  1207.9,1273.25 1209.91,1273.67 1211.92,1274.08 1213.93,1274.49 1215.94,1274.9 1217.96,1275.31 1219.97,1275.72 1221.98,1276.12 1223.99,1276.53 1226,1276.94 
  1228.02,1277.34 1230.03,1277.74 1232.04,1278.15 1234.05,1278.55 1236.06,1278.95 1238.08,1279.35 1240.09,1279.75 1242.1,1280.15 1244.11,1280.54 1246.12,1280.94 
  1248.14,1281.33 1250.15,1281.73 1252.16,1282.12 1254.17,1282.52 1256.18,1282.91 1258.2,1283.3 1260.21,1283.69 1262.22,1284.08 1264.23,1284.47 1266.25,1284.85 
  1268.26,1285.24 1270.27,1285.63 1272.28,1286.01 1274.29,1286.4 1276.31,1286.78 1278.32,1287.16 1280.33,1287.54 1282.34,1287.93 1284.35,1288.31 1286.37,1288.69 
  1288.38,1289.06 1290.39,1289.44 1292.4,1289.82 1294.41,1290.2 1296.43,1290.57 1298.44,1290.95 1300.45,1291.32 1302.46,1291.69 1304.47,1292.06 1306.49,1292.44 
  1308.5,1292.81 1310.51,1293.18 1312.52,1293.55 1314.53,1293.91 1316.55,1294.28 1318.56,1294.65 1320.57,1295.01 1322.58,1295.38 1324.59,1295.74 1326.61,1296.11 
  1328.62,1296.47 1330.63,1296.83 1332.64,1297.2 1334.66,1297.56 1336.67,1297.92 1338.68,1298.28 1340.69,1298.64 1342.7,1298.99 1344.72,1299.35 1346.73,1299.71 
  1348.74,1300.06 1350.75,1300.42 1352.76,1300.77 1354.78,1301.13 1356.79,1301.48 1358.8,1301.83 1360.81,1302.18 1362.82,1302.54 1364.84,1302.89 1366.85,1303.24 
  1368.86,1303.58 1370.87,1303.93 1372.88,1304.28 1374.9,1304.63 1376.91,1304.97 1378.92,1305.32 1380.93,1305.66 1382.94,1306.01 1384.96,1306.35 1386.97,1306.69 
  1388.98,1307.04 1390.99,1307.38 1393,1307.72 1395.02,1308.06 1397.03,1308.4 1399.04,1308.74 1401.05,1309.08 1403.07,1309.41 1405.08,1309.75 1407.09,1310.09 
  1409.1,1310.42 1411.11,1310.76 1413.13,1311.09 1415.14,1311.43 1417.15,1311.76 1419.16,1312.09 1421.17,1312.42 1423.19,1312.76 1425.2,1313.09 1427.21,1313.42 
  1429.22,1313.75 1431.23,1314.08 1433.25,1314.4 1435.26,1314.73 1437.27,1315.06 1439.28,1315.39 1441.29,1315.71 1443.31,1316.04 1445.32,1316.36 1447.33,1316.69 
  1449.34,1317.01 1451.35,1317.33 1453.37,1317.65 1455.38,1317.98 1457.39,1318.3 1459.4,1318.62 1461.41,1318.94 1463.43,1319.26 1465.44,1319.58 1467.45,1319.9 
  1469.46,1320.21 1471.47,1320.53 1473.49,1320.85 1475.5,1321.16 1477.51,1321.48 1479.52,1321.79 1481.54,1322.11 1483.55,1322.42 1485.56,1322.74 1487.57,1323.05 
  1489.58,1323.36 1491.6,1323.67 1493.61,1323.98 1495.62,1324.29 1497.63,1324.6 1499.64,1324.91 1501.66,1325.22 1503.67,1325.53 1505.68,1325.84 1507.69,1326.15 
  1509.7,1326.45 1511.72,1326.76 1513.73,1327.07 1515.74,1327.37 1517.75,1327.68 1519.76,1327.98 1521.78,1328.28 1523.79,1328.59 1525.8,1328.89 1527.81,1329.19 
  1529.82,1329.49 1531.84,1329.79 1533.85,1330.09 1535.86,1330.39 1537.87,1330.69 1539.88,1330.99 1541.9,1331.29 1543.91,1331.59 1545.92,1331.89 1547.93,1332.19 
  1549.95,1332.48 1551.96,1332.78 1553.97,1333.07 1555.98,1333.37 1557.99,1333.66 1560.01,1333.96 1562.02,1334.25 1564.03,1334.54 1566.04,1334.84 1568.05,1335.13 
  1570.07,1335.42 1572.08,1335.71 1574.09,1336 1576.1,1336.29 1578.11,1336.58 1580.13,1336.87 1582.14,1337.16 1584.15,1337.45 1586.16,1337.74 1588.17,1338.03 
  1590.19,1338.31 1592.2,1338.6 1594.21,1338.89 1596.22,1339.17 1598.23,1339.46 1600.25,1339.74 1602.26,1340.03 1604.27,1340.31 1606.28,1340.59 1608.29,1340.88 
  1610.31,1341.16 1612.32,1341.44 1614.33,1341.72 1616.34,1342 1618.36,1342.28 1620.37,1342.56 1622.38,1342.84 1624.39,1343.12 1626.4,1343.4 1628.42,1343.68 
  1630.43,1343.96 1632.44,1344.24 1634.45,1344.51 1636.46,1344.79 1638.48,1345.07 1640.49,1345.34 1642.5,1345.62 1644.51,1345.89 1646.52,1346.17 1648.54,1346.44 
  1650.55,1346.72 1652.56,1346.99 1654.57,1347.26 1656.58,1347.54 1658.6,1347.81 1660.61,1348.08 1662.62,1348.35 1664.63,1348.62 1666.64,1348.89 1668.66,1349.16 
  1670.67,1349.43 1672.68,1349.7 1674.69,1349.97 1676.7,1350.24 1678.72,1350.51 1680.73,1350.77 1682.74,1351.04 1684.75,1351.31 1686.77,1351.58 1688.78,1351.84 
  1690.79,1352.11 1692.8,1352.37 1694.81,1352.64 1696.83,1352.9 1698.84,1353.17 1700.85,1353.43 1702.86,1353.69 1704.87,1353.96 1706.89,1354.22 1708.9,1354.48 
  1710.91,1354.74 1712.92,1355 1714.93,1355.26 1716.95,1355.53 1718.96,1355.79 1720.97,1356.05 1722.98,1356.31 1724.99,1356.56 1727.01,1356.82 1729.02,1357.08 
  1731.03,1357.34 1733.04,1357.6 1735.05,1357.85 1737.07,1358.11 1739.08,1358.37 1741.09,1358.62 1743.1,1358.88 1745.11,1359.13 1747.13,1359.39 1749.14,1359.64 
  1751.15,1359.9 1753.16,1360.15 1755.17,1360.41 1757.19,1360.66 1759.2,1360.91 1761.21,1361.16 1763.22,1361.42 1765.24,1361.67 1767.25,1361.92 1769.26,1362.17 
  1771.27,1362.42 1773.28,1362.67 1775.3,1362.92 1777.31,1363.17 1779.32,1363.42 1781.33,1363.67 1783.34,1363.92 1785.36,1364.17 1787.37,1364.41 1789.38,1364.66 
  1791.39,1364.91 1793.4,1365.16 1795.42,1365.4 1797.43,1365.65 1799.44,1365.9 1801.45,1366.14 1803.46,1366.39 1805.48,1366.63 1807.49,1366.88 1809.5,1367.12 
  1811.51,1367.36 1813.52,1367.61 1815.54,1367.85 1817.55,1368.09 1819.56,1368.34 1821.57,1368.58 1823.58,1368.82 1825.6,1369.06 1827.61,1369.3 1829.62,1369.54 
  1831.63,1369.78 1833.65,1370.02 1835.66,1370.26 1837.67,1370.5 1839.68,1370.74 1841.69,1370.98 1843.71,1371.22 1845.72,1371.46 1847.73,1371.7 1849.74,1371.93 
  1851.75,1372.17 1853.77,1372.41 1855.78,1372.65 1857.79,1372.88 1859.8,1373.12 1861.81,1373.35 1863.83,1373.59 1865.84,1373.82 1867.85,1374.06 1869.86,1374.29 
  1871.87,1374.53 1873.89,1374.76 1875.9,1375 1877.91,1375.23 1879.92,1375.46 1881.93,1375.69 1883.95,1375.93 1885.96,1376.16 1887.97,1376.39 1889.98,1376.62 
  1891.99,1376.85 1894.01,1377.08 1896.02,1377.31 1898.03,1377.55 1900.04,1377.78 1902.06,1378 1904.07,1378.23 1906.08,1378.46 1908.09,1378.69 1910.1,1378.92 
  1912.12,1379.15 1914.13,1379.38 1916.14,1379.6 1918.15,1379.83 1920.16,1380.06 1922.18,1380.29 1924.19,1380.51 1926.2,1380.74 1928.21,1380.96 1930.22,1381.19 
  1932.24,1381.42 1934.25,1381.64 1936.26,1381.87 1938.27,1382.09 1940.28,1382.31 1942.3,1382.54 1944.31,1382.76 1946.32,1382.98 1948.33,1383.21 1950.34,1383.43 
  1952.36,1383.65 1954.37,1383.88 1956.38,1384.1 1958.39,1384.32 1960.4,1384.54 1962.42,1384.76 1964.43,1384.98 1966.44,1385.2 1968.45,1385.42 1970.47,1385.64 
  1972.48,1385.86 1974.49,1386.08 1976.5,1386.3 1978.51,1386.52 1980.53,1386.74 1982.54,1386.96 1984.55,1387.18 1986.56,1387.39 1988.57,1387.61 1990.59,1387.83 
  1992.6,1388.05 1994.61,1388.26 1996.62,1388.48 1998.63,1388.7 2000.65,1388.91 2002.66,1389.13 2004.67,1389.34 2006.68,1389.56 2008.69,1389.77 2010.71,1389.99 
  2012.72,1390.2 2014.73,1390.42 2016.74,1390.63 2018.75,1390.84 2020.77,1391.06 2022.78,1391.27 2024.79,1391.48 2026.8,1391.7 2028.81,1391.91 2030.83,1392.12 
  2032.84,1392.33 2034.85,1392.55 2036.86,1392.76 2038.88,1392.97 2040.89,1393.18 2042.9,1393.39 2044.91,1393.6 2046.92,1393.81 2048.94,1394.02 2050.95,1394.23 
  2052.96,1394.44 2054.97,1394.65 2056.98,1394.86 2059,1395.07 2061.01,1395.27 2063.02,1395.48 2065.03,1395.69 2067.04,1395.9 2069.06,1396.11 2071.07,1396.31 
  2073.08,1396.52 2075.09,1396.73 2077.1,1396.93 2079.12,1397.14 2081.13,1397.35 2083.14,1397.55 2085.15,1397.76 2087.16,1397.96 2089.18,1398.17 2091.19,1398.37 
  2093.2,1398.58 2095.21,1398.78 2097.22,1398.99 2099.24,1399.19 2101.25,1399.39 2103.26,1399.6 2105.27,1399.8 2107.28,1400 2109.3,1400.21 2111.31,1400.41 
  2113.32,1400.61 2115.33,1400.81 2117.35,1401.01 2119.36,1401.22 2121.37,1401.42 2123.38,1401.62 2125.39,1401.82 2127.41,1402.02 2129.42,1402.22 2131.43,1402.42 
  2133.44,1402.62 2135.45,1402.82 2137.47,1403.02 2139.48,1403.22 2141.49,1403.42 2143.5,1403.62 2145.51,1403.82 2147.53,1404.02 2149.54,1404.21 2151.55,1404.41 
  2153.56,1404.61 2155.57,1404.81 2157.59,1405 2159.6,1405.2 2161.61,1405.4 2163.62,1405.6 2165.63,1405.79 2167.65,1405.99 2169.66,1406.18 2171.67,1406.38 
  2173.68,1406.58 2175.69,1406.77 2177.71,1406.97 2179.72,1407.16 2181.73,1407.36 2183.74,1407.55 2185.76,1407.75 2187.77,1407.94 2189.78,1408.13 2191.79,1408.33 
  2193.8,1408.52 2195.82,1408.71 2197.83,1408.91 2199.84,1409.1 2201.85,1409.29 2203.86,1409.48 2205.88,1409.68 2207.89,1409.87 2209.9,1410.06 2211.91,1410.25 
  2213.92,1410.44 2215.94,1410.64 2217.95,1410.83 2219.96,1411.02 2221.97,1411.21 2223.98,1411.4 2226,1411.59 2228.01,1411.78 2230.02,1411.97 2232.03,1412.16 
  2234.04,1412.35 2236.06,1412.54 2238.07,1412.73 2240.08,1412.91 2242.09,1413.1 2244.1,1413.29 2246.12,1413.48 2248.13,1413.67 2250.14,1413.86 2252.15,1414.04 
  2254.17,1414.23 2256.18,1414.42 2258.19,1414.6 2260.2,1414.79 2262.21,1414.98 2264.23,1415.16 2266.24,1415.35 2268.25,1415.54 2270.26,1415.72 2272.27,1415.91 
  2274.29,1416.09 2276.3,1416.28 2278.31,1416.46 2280.32,1416.65 2282.33,1416.83 2284.35,1417.02 2286.36,1417.2 2288.37,1417.39 2290.38,1417.57 2292.39,1417.75 
  2294.41,1417.94 2296.42,1418.12 2298.43,1418.3 2300.44,1418.49 2302.45,1418.67 2304.47,1418.85 2306.48,1419.03 2308.49,1419.22 2310.5,1419.4 2312.51,1419.58 
  2314.53,1419.76 2316.54,1419.94 2318.55,1420.13 2320.56,1420.31 2322.58,1420.49 2324.59,1420.67 2326.6,1420.85 2328.61,1421.03 2330.62,1421.21 2332.64,1421.39 
  2334.65,1421.57 2336.66,1421.75 2338.67,1421.93 2340.68,1422.11 2342.7,1422.29 2344.71,1422.47 2346.72,1422.64 2348.73,1422.82 2350.74,1423 2352.76,1423.18 
  
  "/>
</svg>
