<?xml version="1.0" encoding="utf-8"?>
<svg xmlns="http://www.w3.org/2000/svg" xmlns:xlink="http://www.w3.org/1999/xlink" width="600" height="400" viewBox="0 0 2400 1600">
<defs>
  <clipPath id="clip280">
    <rect x="0" y="0" width="2400" height="1600"/>
  </clipPath>
</defs>
<path clip-path="url(#clip280)" d="
M0 1600 L2400 1600 L2400 0 L0 0  Z
  " fill="#ffffff" fill-rule="evenodd" fill-opacity="1"/>
<defs>
  <clipPath id="clip281">
    <rect x="480" y="0" width="1681" height="1600"/>
  </clipPath>
</defs>
<path clip-path="url(#clip280)" d="
M247.459 1423.18 L2352.76 1423.18 L2352.76 123.472 L247.459 123.472  Z
  " fill="#ffffff" fill-rule="evenodd" fill-opacity="1"/>
<defs>
  <clipPath id="clip282">
    <rect x="247" y="123" width="2106" height="1301"/>
  </clipPath>
</defs>
<polyline clip-path="url(#clip282)" style="stroke:#000000; stroke-linecap:butt; stroke-linejoin:round; stroke-width:2; stroke-opacity:0.1; fill:none" points="
  247.459,1423.18 247.459,123.472 
  "/>
<polyline clip-path="url(#clip282)" style="stroke:#000000; stroke-linecap:butt; stroke-linejoin:round; stroke-width:2; stroke-opacity:0.1; fill:none" points="
  481.381,1423.18 481.381,123.472 
  "/>
<polyline clip-path="url(#clip282)" style="stroke:#000000; stroke-linecap:butt; stroke-linejoin:round; stroke-width:2; stroke-opacity:0.1; fill:none" points="
  715.303,1423.18 715.303,123.472 
  "/>
<polyline clip-path="url(#clip282)" style="stroke:#000000; stroke-linecap:butt; stroke-linejoin:round; stroke-width:2; stroke-opacity:0.1; fill:none" points="
  949.224,1423.18 949.224,123.472 
  "/>
<polyline clip-path="url(#clip282)" style="stroke:#000000; stroke-linecap:butt; stroke-linejoin:round; stroke-width:2; stroke-opacity:0.1; fill:none" points="
  1183.15,1423.18 1183.15,123.472 
  "/>
<polyline clip-path="url(#clip282)" style="stroke:#000000; stroke-linecap:butt; stroke-linejoin:round; stroke-width:2; stroke-opacity:0.1; fill:none" points="
  1417.07,1423.18 1417.07,123.472 
  "/>
<polyline clip-path="url(#clip282)" style="stroke:#000000; stroke-linecap:butt; stroke-linejoin:round; stroke-width:2; stroke-opacity:0.1; fill:none" points="
  1650.99,1423.18 1650.99,123.472 
  "/>
<polyline clip-path="url(#clip282)" style="stroke:#000000; stroke-linecap:butt; stroke-linejoin:round; stroke-width:2; stroke-opacity:0.1; fill:none" points="
  1884.91,1423.18 1884.91,123.472 
  "/>
<polyline clip-path="url(#clip282)" style="stroke:#000000; stroke-linecap:butt; stroke-linejoin:round; stroke-width:2; stroke-opacity:0.1; fill:none" points="
  2118.83,1423.18 2118.83,123.472 
  "/>
<polyline clip-path="url(#clip282)" style="stroke:#000000; stroke-linecap:butt; stroke-linejoin:round; stroke-width:2; stroke-opacity:0.1; fill:none" points="
  2352.76,1423.18 2352.76,123.472 
  "/>
<polyline clip-path="url(#clip280)" style="stroke:#000000; stroke-linecap:butt; stroke-linejoin:round; stroke-width:4; stroke-opacity:1; fill:none" points="
  247.459,1423.18 2352.76,1423.18 
  "/>
<polyline clip-path="url(#clip280)" style="stroke:#000000; stroke-linecap:butt; stroke-linejoin:round; stroke-width:4; stroke-opacity:1; fill:none" points="
  247.459,1423.18 247.459,1404.28 
  "/>
<polyline clip-path="url(#clip280)" style="stroke:#000000; stroke-linecap:butt; stroke-linejoin:round; stroke-width:4; stroke-opacity:1; fill:none" points="
  481.381,1423.18 481.381,1404.28 
  "/>
<polyline clip-path="url(#clip280)" style="stroke:#000000; stroke-linecap:butt; stroke-linejoin:round; stroke-width:4; stroke-opacity:1; fill:none" points="
  715.303,1423.18 715.303,1404.28 
  "/>
<polyline clip-path="url(#clip280)" style="stroke:#000000; stroke-linecap:butt; stroke-linejoin:round; stroke-width:4; stroke-opacity:1; fill:none" points="
  949.224,1423.18 949.224,1404.28 
  "/>
<polyline clip-path="url(#clip280)" style="stroke:#000000; stroke-linecap:butt; stroke-linejoin:round; stroke-width:4; stroke-opacity:1; fill:none" points="
  1183.15,1423.18 1183.15,1404.28 
  "/>
<polyline clip-path="url(#clip280)" style="stroke:#000000; stroke-linecap:butt; stroke-linejoin:round; stroke-width:4; stroke-opacity:1; fill:none" points="
  1417.07,1423.18 1417.07,1404.28 
  "/>
<polyline clip-path="url(#clip280)" style="stroke:#000000; stroke-linecap:butt; stroke-linejoin:round; stroke-width:4; stroke-opacity:1; fill:none" points="
  1650.99,1423.18 1650.99,1404.28 
  "/>
<polyline clip-path="url(#clip280)" style="stroke:#000000; stroke-linecap:butt; stroke-linejoin:round; stroke-width:4; stroke-opacity:1; fill:none" points="
  1884.91,1423.18 1884.91,1404.28 
  "/>
<polyline clip-path="url(#clip280)" style="stroke:#000000; stroke-linecap:butt; stroke-linejoin:round; stroke-width:4; stroke-opacity:1; fill:none" points="
  2118.83,1423.18 2118.83,1404.28 
  "/>
<polyline clip-path="url(#clip280)" style="stroke:#000000; stroke-linecap:butt; stroke-linejoin:round; stroke-width:4; stroke-opacity:1; fill:none" points="
  2352.76,1423.18 2352.76,1404.28 
  "/>
<path clip-path="url(#clip280)" d="M191.984 1479.92 L199.623 1479.92 L199.623 1453.55 L191.313 1455.22 L191.313 1450.96 L199.577 1449.29 L204.253 1449.29 L204.253 1479.92 L211.892 1479.92 L211.892 1483.85 L191.984 1483.85 L191.984 1479.92 Z" fill="#000000" fill-rule="evenodd" fill-opacity="1" /><path clip-path="url(#clip280)" d="M221.475 1483.13 L221.475 1478.88 Q223.234 1479.71 225.04 1480.15 Q226.845 1480.59 228.581 1480.59 Q233.211 1480.59 235.642 1477.49 Q238.095 1474.36 238.443 1468.02 Q237.1 1470.01 235.04 1471.07 Q232.98 1472.14 230.48 1472.14 Q225.294 1472.14 222.262 1469.01 Q219.253 1465.87 219.253 1460.43 Q219.253 1455.1 222.401 1451.88 Q225.549 1448.67 230.781 1448.67 Q236.776 1448.67 239.924 1453.27 Q243.095 1457.86 243.095 1466.61 Q243.095 1474.78 239.206 1479.66 Q235.341 1484.52 228.79 1484.52 Q227.031 1484.52 225.225 1484.18 Q223.419 1483.83 221.475 1483.13 M230.781 1468.48 Q233.929 1468.48 235.757 1466.33 Q237.609 1464.18 237.609 1460.43 Q237.609 1456.7 235.757 1454.55 Q233.929 1452.37 230.781 1452.37 Q227.632 1452.37 225.781 1454.55 Q223.952 1456.7 223.952 1460.43 Q223.952 1464.18 225.781 1466.33 Q227.632 1468.48 230.781 1468.48 Z" fill="#000000" fill-rule="evenodd" fill-opacity="1" /><path clip-path="url(#clip280)" d="M255.526 1479.92 L271.845 1479.92 L271.845 1483.85 L249.901 1483.85 L249.901 1479.92 Q252.563 1477.16 257.146 1472.53 Q261.753 1467.88 262.933 1466.54 Q265.179 1464.01 266.058 1462.28 Q266.961 1460.52 266.961 1458.83 Q266.961 1456.07 265.016 1454.34 Q263.095 1452.6 259.993 1452.6 Q257.794 1452.6 255.341 1453.37 Q252.91 1454.13 250.132 1455.68 L250.132 1450.96 Q252.956 1449.82 255.41 1449.25 Q257.864 1448.67 259.901 1448.67 Q265.271 1448.67 268.466 1451.35 Q271.66 1454.04 271.66 1458.53 Q271.66 1460.66 270.85 1462.58 Q270.063 1464.48 267.956 1467.07 Q267.378 1467.74 264.276 1470.96 Q261.174 1474.15 255.526 1479.92 Z" fill="#000000" fill-rule="evenodd" fill-opacity="1" /><path clip-path="url(#clip280)" d="M291.66 1452.37 Q288.049 1452.37 286.22 1455.94 Q284.415 1459.48 284.415 1466.61 Q284.415 1473.71 286.22 1477.28 Q288.049 1480.82 291.66 1480.82 Q295.294 1480.82 297.1 1477.28 Q298.928 1473.71 298.928 1466.61 Q298.928 1459.48 297.1 1455.94 Q295.294 1452.37 291.66 1452.37 M291.66 1448.67 Q297.47 1448.67 300.526 1453.27 Q303.604 1457.86 303.604 1466.61 Q303.604 1475.33 300.526 1479.94 Q297.47 1484.52 291.66 1484.52 Q285.85 1484.52 282.771 1479.94 Q279.715 1475.33 279.715 1466.61 Q279.715 1457.86 282.771 1453.27 Q285.85 1448.67 291.66 1448.67 Z" fill="#000000" fill-rule="evenodd" fill-opacity="1" /><path clip-path="url(#clip280)" d="M425.906 1479.92 L433.545 1479.92 L433.545 1453.55 L425.235 1455.22 L425.235 1450.96 L433.499 1449.29 L438.175 1449.29 L438.175 1479.92 L445.814 1479.92 L445.814 1483.85 L425.906 1483.85 L425.906 1479.92 Z" fill="#000000" fill-rule="evenodd" fill-opacity="1" /><path clip-path="url(#clip280)" d="M455.397 1483.13 L455.397 1478.88 Q457.156 1479.71 458.962 1480.15 Q460.767 1480.59 462.503 1480.59 Q467.133 1480.59 469.564 1477.49 Q472.017 1474.36 472.364 1468.02 Q471.022 1470.01 468.962 1471.07 Q466.902 1472.14 464.402 1472.14 Q459.216 1472.14 456.184 1469.01 Q453.175 1465.87 453.175 1460.43 Q453.175 1455.1 456.323 1451.88 Q459.471 1448.67 464.702 1448.67 Q470.698 1448.67 473.846 1453.27 Q477.017 1457.86 477.017 1466.61 Q477.017 1474.78 473.128 1479.66 Q469.263 1484.52 462.712 1484.52 Q460.952 1484.52 459.147 1484.18 Q457.341 1483.83 455.397 1483.13 M464.702 1468.48 Q467.851 1468.48 469.679 1466.33 Q471.531 1464.18 471.531 1460.43 Q471.531 1456.7 469.679 1454.55 Q467.851 1452.37 464.702 1452.37 Q461.554 1452.37 459.702 1454.55 Q457.874 1456.7 457.874 1460.43 Q457.874 1464.18 459.702 1466.33 Q461.554 1468.48 464.702 1468.48 Z" fill="#000000" fill-rule="evenodd" fill-opacity="1" /><path clip-path="url(#clip280)" d="M499.587 1465.22 Q502.943 1465.94 504.818 1468.2 Q506.716 1470.47 506.716 1473.81 Q506.716 1478.92 503.198 1481.72 Q499.679 1484.52 493.198 1484.52 Q491.022 1484.52 488.707 1484.08 Q486.415 1483.67 483.962 1482.81 L483.962 1478.3 Q485.906 1479.43 488.221 1480.01 Q490.536 1480.59 493.059 1480.59 Q497.457 1480.59 499.749 1478.85 Q502.063 1477.12 502.063 1473.81 Q502.063 1470.75 499.911 1469.04 Q497.781 1467.3 493.962 1467.3 L489.934 1467.3 L489.934 1463.46 L494.147 1463.46 Q497.596 1463.46 499.425 1462.09 Q501.253 1460.7 501.253 1458.11 Q501.253 1455.45 499.355 1454.04 Q497.48 1452.6 493.962 1452.6 Q492.04 1452.6 489.841 1453.02 Q487.642 1453.44 485.003 1454.31 L485.003 1450.15 Q487.665 1449.41 489.98 1449.04 Q492.318 1448.67 494.378 1448.67 Q499.702 1448.67 502.804 1451.1 Q505.906 1453.5 505.906 1457.63 Q505.906 1460.5 504.262 1462.49 Q502.619 1464.45 499.587 1465.22 Z" fill="#000000" fill-rule="evenodd" fill-opacity="1" /><path clip-path="url(#clip280)" d="M525.582 1452.37 Q521.971 1452.37 520.142 1455.94 Q518.336 1459.48 518.336 1466.61 Q518.336 1473.71 520.142 1477.28 Q521.971 1480.82 525.582 1480.82 Q529.216 1480.82 531.022 1477.28 Q532.85 1473.71 532.85 1466.61 Q532.85 1459.48 531.022 1455.94 Q529.216 1452.37 525.582 1452.37 M525.582 1448.67 Q531.392 1448.67 534.447 1453.27 Q537.526 1457.86 537.526 1466.61 Q537.526 1475.33 534.447 1479.94 Q531.392 1484.52 525.582 1484.52 Q519.772 1484.52 516.693 1479.94 Q513.637 1475.33 513.637 1466.61 Q513.637 1457.86 516.693 1453.27 Q519.772 1448.67 525.582 1448.67 Z" fill="#000000" fill-rule="evenodd" fill-opacity="1" /><path clip-path="url(#clip280)" d="M659.828 1479.92 L667.467 1479.92 L667.467 1453.55 L659.157 1455.22 L659.157 1450.96 L667.421 1449.29 L672.097 1449.29 L672.097 1479.92 L679.736 1479.92 L679.736 1483.85 L659.828 1483.85 L659.828 1479.92 Z" fill="#000000" fill-rule="evenodd" fill-opacity="1" /><path clip-path="url(#clip280)" d="M689.319 1483.13 L689.319 1478.88 Q691.078 1479.71 692.884 1480.15 Q694.689 1480.59 696.425 1480.59 Q701.055 1480.59 703.485 1477.49 Q705.939 1474.36 706.286 1468.02 Q704.944 1470.01 702.884 1471.07 Q700.823 1472.14 698.323 1472.14 Q693.138 1472.14 690.106 1469.01 Q687.097 1465.87 687.097 1460.43 Q687.097 1455.1 690.245 1451.88 Q693.393 1448.67 698.624 1448.67 Q704.62 1448.67 707.768 1453.27 Q710.939 1457.86 710.939 1466.61 Q710.939 1474.78 707.05 1479.66 Q703.185 1484.52 696.634 1484.52 Q694.874 1484.52 693.069 1484.18 Q691.263 1483.83 689.319 1483.13 M698.624 1468.48 Q701.773 1468.48 703.601 1466.33 Q705.453 1464.18 705.453 1460.43 Q705.453 1456.7 703.601 1454.55 Q701.773 1452.37 698.624 1452.37 Q695.476 1452.37 693.624 1454.55 Q691.796 1456.7 691.796 1460.43 Q691.796 1464.18 693.624 1466.33 Q695.476 1468.48 698.624 1468.48 Z" fill="#000000" fill-rule="evenodd" fill-opacity="1" /><path clip-path="url(#clip280)" d="M732.189 1453.37 L720.384 1471.81 L732.189 1471.81 L732.189 1453.37 M730.962 1449.29 L736.842 1449.29 L736.842 1471.81 L741.772 1471.81 L741.772 1475.7 L736.842 1475.7 L736.842 1483.85 L732.189 1483.85 L732.189 1475.7 L716.587 1475.7 L716.587 1471.19 L730.962 1449.29 Z" fill="#000000" fill-rule="evenodd" fill-opacity="1" /><path clip-path="url(#clip280)" d="M759.504 1452.37 Q755.893 1452.37 754.064 1455.94 Q752.258 1459.48 752.258 1466.61 Q752.258 1473.71 754.064 1477.28 Q755.893 1480.82 759.504 1480.82 Q763.138 1480.82 764.943 1477.28 Q766.772 1473.71 766.772 1466.61 Q766.772 1459.48 764.943 1455.94 Q763.138 1452.37 759.504 1452.37 M759.504 1448.67 Q765.314 1448.67 768.369 1453.27 Q771.448 1457.86 771.448 1466.61 Q771.448 1475.33 768.369 1479.94 Q765.314 1484.52 759.504 1484.52 Q753.694 1484.52 750.615 1479.94 Q747.559 1475.33 747.559 1466.61 Q747.559 1457.86 750.615 1453.27 Q753.694 1448.67 759.504 1448.67 Z" fill="#000000" fill-rule="evenodd" fill-opacity="1" /><path clip-path="url(#clip280)" d="M893.75 1479.92 L901.389 1479.92 L901.389 1453.55 L893.079 1455.22 L893.079 1450.96 L901.343 1449.29 L906.019 1449.29 L906.019 1479.92 L913.658 1479.92 L913.658 1483.85 L893.75 1483.85 L893.75 1479.92 Z" fill="#000000" fill-rule="evenodd" fill-opacity="1" /><path clip-path="url(#clip280)" d="M923.241 1483.13 L923.241 1478.88 Q925 1479.71 926.806 1480.15 Q928.611 1480.59 930.347 1480.59 Q934.977 1480.59 937.407 1477.49 Q939.861 1474.36 940.208 1468.02 Q938.866 1470.01 936.806 1471.07 Q934.745 1472.14 932.245 1472.14 Q927.06 1472.14 924.028 1469.01 Q921.019 1465.87 921.019 1460.43 Q921.019 1455.1 924.167 1451.88 Q927.315 1448.67 932.546 1448.67 Q938.542 1448.67 941.69 1453.27 Q944.861 1457.86 944.861 1466.61 Q944.861 1474.78 940.972 1479.66 Q937.106 1484.52 930.556 1484.52 Q928.796 1484.52 926.991 1484.18 Q925.185 1483.83 923.241 1483.13 M932.546 1468.48 Q935.694 1468.48 937.523 1466.33 Q939.375 1464.18 939.375 1460.43 Q939.375 1456.7 937.523 1454.55 Q935.694 1452.37 932.546 1452.37 Q929.398 1452.37 927.546 1454.55 Q925.718 1456.7 925.718 1460.43 Q925.718 1464.18 927.546 1466.33 Q929.398 1468.48 932.546 1468.48 Z" fill="#000000" fill-rule="evenodd" fill-opacity="1" /><path clip-path="url(#clip280)" d="M953.31 1449.29 L971.666 1449.29 L971.666 1453.23 L957.592 1453.23 L957.592 1461.7 Q958.611 1461.35 959.629 1461.19 Q960.648 1461 961.667 1461 Q967.454 1461 970.833 1464.18 Q974.213 1467.35 974.213 1472.76 Q974.213 1478.34 970.741 1481.44 Q967.268 1484.52 960.949 1484.52 Q958.773 1484.52 956.504 1484.15 Q954.259 1483.78 951.852 1483.04 L951.852 1478.34 Q953.935 1479.48 956.157 1480.03 Q958.379 1480.59 960.856 1480.59 Q964.861 1480.59 967.199 1478.48 Q969.537 1476.38 969.537 1472.76 Q969.537 1469.15 967.199 1467.05 Q964.861 1464.94 960.856 1464.94 Q958.981 1464.94 957.106 1465.36 Q955.255 1465.77 953.31 1466.65 L953.31 1449.29 Z" fill="#000000" fill-rule="evenodd" fill-opacity="1" /><path clip-path="url(#clip280)" d="M993.426 1452.37 Q989.815 1452.37 987.986 1455.94 Q986.18 1459.48 986.18 1466.61 Q986.18 1473.71 987.986 1477.28 Q989.815 1480.82 993.426 1480.82 Q997.06 1480.82 998.865 1477.28 Q1000.69 1473.71 1000.69 1466.61 Q1000.69 1459.48 998.865 1455.94 Q997.06 1452.37 993.426 1452.37 M993.426 1448.67 Q999.236 1448.67 1002.29 1453.27 Q1005.37 1457.86 1005.37 1466.61 Q1005.37 1475.33 1002.29 1479.94 Q999.236 1484.52 993.426 1484.52 Q987.615 1484.52 984.537 1479.94 Q981.481 1475.33 981.481 1466.61 Q981.481 1457.86 984.537 1453.27 Q987.615 1448.67 993.426 1448.67 Z" fill="#000000" fill-rule="evenodd" fill-opacity="1" /><path clip-path="url(#clip280)" d="M1127.67 1479.92 L1135.31 1479.92 L1135.31 1453.55 L1127 1455.22 L1127 1450.96 L1135.26 1449.29 L1139.94 1449.29 L1139.94 1479.92 L1147.58 1479.92 L1147.58 1483.85 L1127.67 1483.85 L1127.67 1479.92 Z" fill="#000000" fill-rule="evenodd" fill-opacity="1" /><path clip-path="url(#clip280)" d="M1157.16 1483.13 L1157.16 1478.88 Q1158.92 1479.71 1160.73 1480.15 Q1162.53 1480.59 1164.27 1480.59 Q1168.9 1480.59 1171.33 1477.49 Q1173.78 1474.36 1174.13 1468.02 Q1172.79 1470.01 1170.73 1471.07 Q1168.67 1472.14 1166.17 1472.14 Q1160.98 1472.14 1157.95 1469.01 Q1154.94 1465.87 1154.94 1460.43 Q1154.94 1455.1 1158.09 1451.88 Q1161.24 1448.67 1166.47 1448.67 Q1172.46 1448.67 1175.61 1453.27 Q1178.78 1457.86 1178.78 1466.61 Q1178.78 1474.78 1174.89 1479.66 Q1171.03 1484.52 1164.48 1484.52 Q1162.72 1484.52 1160.91 1484.18 Q1159.11 1483.83 1157.16 1483.13 M1166.47 1468.48 Q1169.62 1468.48 1171.45 1466.33 Q1173.3 1464.18 1173.3 1460.43 Q1173.3 1456.7 1171.45 1454.55 Q1169.62 1452.37 1166.47 1452.37 Q1163.32 1452.37 1161.47 1454.55 Q1159.64 1456.7 1159.64 1460.43 Q1159.64 1464.18 1161.47 1466.33 Q1163.32 1468.48 1166.47 1468.48 Z" fill="#000000" fill-rule="evenodd" fill-opacity="1" /><path clip-path="url(#clip280)" d="M1197.76 1464.71 Q1194.62 1464.71 1192.76 1466.86 Q1190.94 1469.01 1190.94 1472.76 Q1190.94 1476.49 1192.76 1478.67 Q1194.62 1480.82 1197.76 1480.82 Q1200.91 1480.82 1202.74 1478.67 Q1204.59 1476.49 1204.59 1472.76 Q1204.59 1469.01 1202.74 1466.86 Q1200.91 1464.71 1197.76 1464.71 M1207.05 1450.06 L1207.05 1454.31 Q1205.29 1453.48 1203.48 1453.04 Q1201.7 1452.6 1199.94 1452.6 Q1195.31 1452.6 1192.86 1455.73 Q1190.43 1458.85 1190.08 1465.17 Q1191.44 1463.16 1193.51 1462.09 Q1195.57 1461 1198.04 1461 Q1203.25 1461 1206.26 1464.18 Q1209.29 1467.32 1209.29 1472.76 Q1209.29 1478.09 1206.14 1481.31 Q1203 1484.52 1197.76 1484.52 Q1191.77 1484.52 1188.6 1479.94 Q1185.43 1475.33 1185.43 1466.61 Q1185.43 1458.41 1189.32 1453.55 Q1193.2 1448.67 1199.76 1448.67 Q1201.51 1448.67 1203.3 1449.01 Q1205.1 1449.36 1207.05 1450.06 Z" fill="#000000" fill-rule="evenodd" fill-opacity="1" /><path clip-path="url(#clip280)" d="M1227.35 1452.37 Q1223.74 1452.37 1221.91 1455.94 Q1220.1 1459.48 1220.1 1466.61 Q1220.1 1473.71 1221.91 1477.28 Q1223.74 1480.82 1227.35 1480.82 Q1230.98 1480.82 1232.79 1477.28 Q1234.62 1473.71 1234.62 1466.61 Q1234.62 1459.48 1232.79 1455.94 Q1230.98 1452.37 1227.35 1452.37 M1227.35 1448.67 Q1233.16 1448.67 1236.21 1453.27 Q1239.29 1457.86 1239.29 1466.61 Q1239.29 1475.33 1236.21 1479.94 Q1233.16 1484.52 1227.35 1484.52 Q1221.54 1484.52 1218.46 1479.94 Q1215.4 1475.33 1215.4 1466.61 Q1215.4 1457.86 1218.46 1453.27 Q1221.54 1448.67 1227.35 1448.67 Z" fill="#000000" fill-rule="evenodd" fill-opacity="1" /><path clip-path="url(#clip280)" d="M1361.59 1479.92 L1369.23 1479.92 L1369.23 1453.55 L1360.92 1455.22 L1360.92 1450.96 L1369.19 1449.29 L1373.86 1449.29 L1373.86 1479.92 L1381.5 1479.92 L1381.5 1483.85 L1361.59 1483.85 L1361.59 1479.92 Z" fill="#000000" fill-rule="evenodd" fill-opacity="1" /><path clip-path="url(#clip280)" d="M1391.08 1483.13 L1391.08 1478.88 Q1392.84 1479.71 1394.65 1480.15 Q1396.45 1480.59 1398.19 1480.59 Q1402.82 1480.59 1405.25 1477.49 Q1407.7 1474.36 1408.05 1468.02 Q1406.71 1470.01 1404.65 1471.07 Q1402.59 1472.14 1400.09 1472.14 Q1394.9 1472.14 1391.87 1469.01 Q1388.86 1465.87 1388.86 1460.43 Q1388.86 1455.1 1392.01 1451.88 Q1395.16 1448.67 1400.39 1448.67 Q1406.39 1448.67 1409.53 1453.27 Q1412.7 1457.86 1412.7 1466.61 Q1412.7 1474.78 1408.82 1479.66 Q1404.95 1484.52 1398.4 1484.52 Q1396.64 1484.52 1394.83 1484.18 Q1393.03 1483.83 1391.08 1483.13 M1400.39 1468.48 Q1403.54 1468.48 1405.37 1466.33 Q1407.22 1464.18 1407.22 1460.43 Q1407.22 1456.7 1405.37 1454.55 Q1403.54 1452.37 1400.39 1452.37 Q1397.24 1452.37 1395.39 1454.55 Q1393.56 1456.7 1393.56 1460.43 Q1393.56 1464.18 1395.39 1466.33 Q1397.24 1468.48 1400.39 1468.48 Z" fill="#000000" fill-rule="evenodd" fill-opacity="1" /><path clip-path="url(#clip280)" d="M1419.93 1449.29 L1442.15 1449.29 L1442.15 1451.28 L1429.6 1483.85 L1424.72 1483.85 L1436.52 1453.23 L1419.93 1453.23 L1419.93 1449.29 Z" fill="#000000" fill-rule="evenodd" fill-opacity="1" /><path clip-path="url(#clip280)" d="M1461.27 1452.37 Q1457.66 1452.37 1455.83 1455.94 Q1454.02 1459.48 1454.02 1466.61 Q1454.02 1473.71 1455.83 1477.28 Q1457.66 1480.82 1461.27 1480.82 Q1464.9 1480.82 1466.71 1477.28 Q1468.54 1473.71 1468.54 1466.61 Q1468.54 1459.48 1466.71 1455.94 Q1464.9 1452.37 1461.27 1452.37 M1461.27 1448.67 Q1467.08 1448.67 1470.14 1453.27 Q1473.21 1457.86 1473.21 1466.61 Q1473.21 1475.33 1470.14 1479.94 Q1467.08 1484.52 1461.27 1484.52 Q1455.46 1484.52 1452.38 1479.94 Q1449.33 1475.33 1449.33 1466.61 Q1449.33 1457.86 1452.38 1453.27 Q1455.46 1448.67 1461.27 1448.67 Z" fill="#000000" fill-rule="evenodd" fill-opacity="1" /><path clip-path="url(#clip280)" d="M1595.52 1479.92 L1603.15 1479.92 L1603.15 1453.55 L1594.84 1455.22 L1594.84 1450.96 L1603.11 1449.29 L1607.78 1449.29 L1607.78 1479.92 L1615.42 1479.92 L1615.42 1483.85 L1595.52 1483.85 L1595.52 1479.92 Z" fill="#000000" fill-rule="evenodd" fill-opacity="1" /><path clip-path="url(#clip280)" d="M1625.01 1483.13 L1625.01 1478.88 Q1626.77 1479.71 1628.57 1480.15 Q1630.38 1480.59 1632.11 1480.59 Q1636.74 1480.59 1639.17 1477.49 Q1641.63 1474.36 1641.97 1468.02 Q1640.63 1470.01 1638.57 1471.07 Q1636.51 1472.14 1634.01 1472.14 Q1628.83 1472.14 1625.79 1469.01 Q1622.78 1465.87 1622.78 1460.43 Q1622.78 1455.1 1625.93 1451.88 Q1629.08 1448.67 1634.31 1448.67 Q1640.31 1448.67 1643.46 1453.27 Q1646.63 1457.86 1646.63 1466.61 Q1646.63 1474.78 1642.74 1479.66 Q1638.87 1484.52 1632.32 1484.52 Q1630.56 1484.52 1628.76 1484.18 Q1626.95 1483.83 1625.01 1483.13 M1634.31 1468.48 Q1637.46 1468.48 1639.29 1466.33 Q1641.14 1464.18 1641.14 1460.43 Q1641.14 1456.7 1639.29 1454.55 Q1637.46 1452.37 1634.31 1452.37 Q1631.16 1452.37 1629.31 1454.55 Q1627.48 1456.7 1627.48 1460.43 Q1627.48 1464.18 1629.31 1466.33 Q1631.16 1468.48 1634.31 1468.48 Z" fill="#000000" fill-rule="evenodd" fill-opacity="1" /><path clip-path="url(#clip280)" d="M1665.03 1467.44 Q1661.7 1467.44 1659.77 1469.22 Q1657.88 1471 1657.88 1474.13 Q1657.88 1477.25 1659.77 1479.04 Q1661.7 1480.82 1665.03 1480.82 Q1668.36 1480.82 1670.28 1479.04 Q1672.21 1477.23 1672.21 1474.13 Q1672.21 1471 1670.28 1469.22 Q1668.39 1467.44 1665.03 1467.44 M1660.35 1465.45 Q1657.34 1464.71 1655.65 1462.65 Q1653.99 1460.59 1653.99 1457.63 Q1653.99 1453.48 1656.93 1451.07 Q1659.89 1448.67 1665.03 1448.67 Q1670.19 1448.67 1673.13 1451.07 Q1676.07 1453.48 1676.07 1457.63 Q1676.07 1460.59 1674.38 1462.65 Q1672.71 1464.71 1669.73 1465.45 Q1673.11 1466.24 1674.98 1468.53 Q1676.88 1470.82 1676.88 1474.13 Q1676.88 1479.15 1673.8 1481.84 Q1670.75 1484.52 1665.03 1484.52 Q1659.31 1484.52 1656.23 1481.84 Q1653.18 1479.15 1653.18 1474.13 Q1653.18 1470.82 1655.08 1468.53 Q1656.97 1466.24 1660.35 1465.45 M1658.64 1458.06 Q1658.64 1460.75 1660.31 1462.25 Q1662 1463.76 1665.03 1463.76 Q1668.04 1463.76 1669.73 1462.25 Q1671.44 1460.75 1671.44 1458.06 Q1671.44 1455.38 1669.73 1453.88 Q1668.04 1452.37 1665.03 1452.37 Q1662 1452.37 1660.31 1453.88 Q1658.64 1455.38 1658.64 1458.06 Z" fill="#000000" fill-rule="evenodd" fill-opacity="1" /><path clip-path="url(#clip280)" d="M1695.19 1452.37 Q1691.58 1452.37 1689.75 1455.94 Q1687.95 1459.48 1687.95 1466.61 Q1687.95 1473.71 1689.75 1477.28 Q1691.58 1480.82 1695.19 1480.82 Q1698.83 1480.82 1700.63 1477.28 Q1702.46 1473.71 1702.46 1466.61 Q1702.46 1459.48 1700.63 1455.94 Q1698.83 1452.37 1695.19 1452.37 M1695.19 1448.67 Q1701 1448.67 1704.06 1453.27 Q1707.14 1457.86 1707.14 1466.61 Q1707.14 1475.33 1704.06 1479.94 Q1701 1484.52 1695.19 1484.52 Q1689.38 1484.52 1686.3 1479.94 Q1683.25 1475.33 1683.25 1466.61 Q1683.25 1457.86 1686.3 1453.27 Q1689.38 1448.67 1695.19 1448.67 Z" fill="#000000" fill-rule="evenodd" fill-opacity="1" /><path clip-path="url(#clip280)" d="M1829.44 1479.92 L1837.08 1479.92 L1837.08 1453.55 L1828.77 1455.22 L1828.77 1450.96 L1837.03 1449.29 L1841.71 1449.29 L1841.71 1479.92 L1849.35 1479.92 L1849.35 1483.85 L1829.44 1483.85 L1829.44 1479.92 Z" fill="#000000" fill-rule="evenodd" fill-opacity="1" /><path clip-path="url(#clip280)" d="M1858.93 1483.13 L1858.93 1478.88 Q1860.69 1479.71 1862.49 1480.15 Q1864.3 1480.59 1866.03 1480.59 Q1870.66 1480.59 1873.1 1477.49 Q1875.55 1474.36 1875.9 1468.02 Q1874.55 1470.01 1872.49 1471.07 Q1870.43 1472.14 1867.93 1472.14 Q1862.75 1472.14 1859.72 1469.01 Q1856.71 1465.87 1856.71 1460.43 Q1856.71 1455.1 1859.85 1451.88 Q1863 1448.67 1868.23 1448.67 Q1874.23 1448.67 1877.38 1453.27 Q1880.55 1457.86 1880.55 1466.61 Q1880.55 1474.78 1876.66 1479.66 Q1872.79 1484.52 1866.24 1484.52 Q1864.48 1484.52 1862.68 1484.18 Q1860.87 1483.83 1858.93 1483.13 M1868.23 1468.48 Q1871.38 1468.48 1873.21 1466.33 Q1875.06 1464.18 1875.06 1460.43 Q1875.06 1456.7 1873.21 1454.55 Q1871.38 1452.37 1868.23 1452.37 Q1865.09 1452.37 1863.23 1454.55 Q1861.41 1456.7 1861.41 1460.43 Q1861.41 1464.18 1863.23 1466.33 Q1865.09 1468.48 1868.23 1468.48 Z" fill="#000000" fill-rule="evenodd" fill-opacity="1" /><path clip-path="url(#clip280)" d="M1889.09 1483.13 L1889.09 1478.88 Q1890.85 1479.71 1892.66 1480.15 Q1894.46 1480.59 1896.2 1480.59 Q1900.83 1480.59 1903.26 1477.49 Q1905.71 1474.36 1906.06 1468.02 Q1904.72 1470.01 1902.66 1471.07 Q1900.59 1472.14 1898.09 1472.14 Q1892.91 1472.14 1889.88 1469.01 Q1886.87 1465.87 1886.87 1460.43 Q1886.87 1455.1 1890.02 1451.88 Q1893.16 1448.67 1898.4 1448.67 Q1904.39 1448.67 1907.54 1453.27 Q1910.71 1457.86 1910.71 1466.61 Q1910.71 1474.78 1906.82 1479.66 Q1902.96 1484.52 1896.41 1484.52 Q1894.65 1484.52 1892.84 1484.18 Q1891.03 1483.83 1889.09 1483.13 M1898.4 1468.48 Q1901.54 1468.48 1903.37 1466.33 Q1905.22 1464.18 1905.22 1460.43 Q1905.22 1456.7 1903.37 1454.55 Q1901.54 1452.37 1898.4 1452.37 Q1895.25 1452.37 1893.4 1454.55 Q1891.57 1456.7 1891.57 1460.43 Q1891.57 1464.18 1893.4 1466.33 Q1895.25 1468.48 1898.4 1468.48 Z" fill="#000000" fill-rule="evenodd" fill-opacity="1" /><path clip-path="url(#clip280)" d="M1929.11 1452.37 Q1925.5 1452.37 1923.67 1455.94 Q1921.87 1459.48 1921.87 1466.61 Q1921.87 1473.71 1923.67 1477.28 Q1925.5 1480.82 1929.11 1480.82 Q1932.75 1480.82 1934.55 1477.28 Q1936.38 1473.71 1936.38 1466.61 Q1936.38 1459.48 1934.55 1455.94 Q1932.75 1452.37 1929.11 1452.37 M1929.11 1448.67 Q1934.92 1448.67 1937.98 1453.27 Q1941.06 1457.86 1941.06 1466.61 Q1941.06 1475.33 1937.98 1479.94 Q1934.92 1484.52 1929.11 1484.52 Q1923.3 1484.52 1920.22 1479.94 Q1917.17 1475.33 1917.17 1466.61 Q1917.17 1457.86 1920.22 1453.27 Q1923.3 1448.67 1929.11 1448.67 Z" fill="#000000" fill-rule="evenodd" fill-opacity="1" /><path clip-path="url(#clip280)" d="M2067.45 1479.92 L2083.76 1479.92 L2083.76 1483.85 L2061.82 1483.85 L2061.82 1479.92 Q2064.48 1477.16 2069.07 1472.53 Q2073.67 1467.88 2074.85 1466.54 Q2077.1 1464.01 2077.98 1462.28 Q2078.88 1460.52 2078.88 1458.83 Q2078.88 1456.07 2076.94 1454.34 Q2075.01 1452.6 2071.91 1452.6 Q2069.71 1452.6 2067.26 1453.37 Q2064.83 1454.13 2062.05 1455.68 L2062.05 1450.96 Q2064.88 1449.82 2067.33 1449.25 Q2069.78 1448.67 2071.82 1448.67 Q2077.19 1448.67 2080.39 1451.35 Q2083.58 1454.04 2083.58 1458.53 Q2083.58 1460.66 2082.77 1462.58 Q2081.98 1464.48 2079.88 1467.07 Q2079.3 1467.74 2076.2 1470.96 Q2073.09 1474.15 2067.45 1479.92 Z" fill="#000000" fill-rule="evenodd" fill-opacity="1" /><path clip-path="url(#clip280)" d="M2103.58 1452.37 Q2099.97 1452.37 2098.14 1455.94 Q2096.33 1459.48 2096.33 1466.61 Q2096.33 1473.71 2098.14 1477.28 Q2099.97 1480.82 2103.58 1480.82 Q2107.21 1480.82 2109.02 1477.28 Q2110.85 1473.71 2110.85 1466.61 Q2110.85 1459.48 2109.02 1455.94 Q2107.21 1452.37 2103.58 1452.37 M2103.58 1448.67 Q2109.39 1448.67 2112.45 1453.27 Q2115.52 1457.86 2115.52 1466.61 Q2115.52 1475.33 2112.45 1479.94 Q2109.39 1484.52 2103.58 1484.52 Q2097.77 1484.52 2094.69 1479.94 Q2091.64 1475.33 2091.64 1466.61 Q2091.64 1457.86 2094.69 1453.27 Q2097.77 1448.67 2103.58 1448.67 Z" fill="#000000" fill-rule="evenodd" fill-opacity="1" /><path clip-path="url(#clip280)" d="M2133.74 1452.37 Q2130.13 1452.37 2128.3 1455.94 Q2126.5 1459.48 2126.5 1466.61 Q2126.5 1473.71 2128.3 1477.28 Q2130.13 1480.82 2133.74 1480.82 Q2137.38 1480.82 2139.18 1477.28 Q2141.01 1473.71 2141.01 1466.61 Q2141.01 1459.48 2139.18 1455.94 Q2137.38 1452.37 2133.74 1452.37 M2133.74 1448.67 Q2139.55 1448.67 2142.61 1453.27 Q2145.69 1457.86 2145.69 1466.61 Q2145.69 1475.33 2142.61 1479.94 Q2139.55 1484.52 2133.74 1484.52 Q2127.93 1484.52 2124.85 1479.94 Q2121.8 1475.33 2121.8 1466.61 Q2121.8 1457.86 2124.85 1453.27 Q2127.93 1448.67 2133.74 1448.67 Z" fill="#000000" fill-rule="evenodd" fill-opacity="1" /><path clip-path="url(#clip280)" d="M2163.9 1452.37 Q2160.29 1452.37 2158.46 1455.94 Q2156.66 1459.48 2156.66 1466.61 Q2156.66 1473.71 2158.46 1477.28 Q2160.29 1480.82 2163.9 1480.82 Q2167.54 1480.82 2169.34 1477.28 Q2171.17 1473.71 2171.17 1466.61 Q2171.17 1459.48 2169.34 1455.94 Q2167.54 1452.37 2163.9 1452.37 M2163.9 1448.67 Q2169.71 1448.67 2172.77 1453.27 Q2175.85 1457.86 2175.85 1466.61 Q2175.85 1475.33 2172.77 1479.94 Q2169.71 1484.52 2163.9 1484.52 Q2158.09 1484.52 2155.01 1479.94 Q2151.96 1475.33 2151.96 1466.61 Q2151.96 1457.86 2155.01 1453.27 Q2158.09 1448.67 2163.9 1448.67 Z" fill="#000000" fill-rule="evenodd" fill-opacity="1" /><path clip-path="url(#clip280)" d="M2301.37 1479.92 L2317.69 1479.92 L2317.69 1483.85 L2295.74 1483.85 L2295.74 1479.92 Q2298.4 1477.16 2302.99 1472.53 Q2307.59 1467.88 2308.77 1466.54 Q2311.02 1464.01 2311.9 1462.28 Q2312.8 1460.52 2312.8 1458.83 Q2312.8 1456.07 2310.86 1454.34 Q2308.94 1452.6 2305.83 1452.6 Q2303.64 1452.6 2301.18 1453.37 Q2298.75 1454.13 2295.97 1455.68 L2295.97 1450.96 Q2298.8 1449.82 2301.25 1449.25 Q2303.71 1448.67 2305.74 1448.67 Q2311.11 1448.67 2314.31 1451.35 Q2317.5 1454.04 2317.5 1458.53 Q2317.5 1460.66 2316.69 1462.58 Q2315.9 1464.48 2313.8 1467.07 Q2313.22 1467.74 2310.12 1470.96 Q2307.02 1474.15 2301.37 1479.92 Z" fill="#000000" fill-rule="evenodd" fill-opacity="1" /><path clip-path="url(#clip280)" d="M2337.5 1452.37 Q2333.89 1452.37 2332.06 1455.94 Q2330.26 1459.48 2330.26 1466.61 Q2330.26 1473.71 2332.06 1477.28 Q2333.89 1480.82 2337.5 1480.82 Q2341.14 1480.82 2342.94 1477.28 Q2344.77 1473.71 2344.77 1466.61 Q2344.77 1459.48 2342.94 1455.94 Q2341.14 1452.37 2337.5 1452.37 M2337.5 1448.67 Q2343.31 1448.67 2346.37 1453.27 Q2349.45 1457.86 2349.45 1466.61 Q2349.45 1475.33 2346.37 1479.94 Q2343.31 1484.52 2337.5 1484.52 Q2331.69 1484.52 2328.61 1479.94 Q2325.56 1475.33 2325.56 1466.61 Q2325.56 1457.86 2328.61 1453.27 Q2331.69 1448.67 2337.5 1448.67 Z" fill="#000000" fill-rule="evenodd" fill-opacity="1" /><path clip-path="url(#clip280)" d="M2358.47 1479.92 L2366.11 1479.92 L2366.11 1453.55 L2357.8 1455.22 L2357.8 1450.96 L2366.07 1449.29 L2370.74 1449.29 L2370.74 1479.92 L2378.38 1479.92 L2378.38 1483.85 L2358.47 1483.85 L2358.47 1479.92 Z" fill="#000000" fill-rule="evenodd" fill-opacity="1" /><path clip-path="url(#clip280)" d="M2397.83 1452.37 Q2394.21 1452.37 2392.39 1455.94 Q2390.58 1459.48 2390.58 1466.61 Q2390.58 1473.71 2392.39 1477.28 Q2394.21 1480.82 2397.83 1480.82 Q2401.46 1480.82 2403.26 1477.28 Q2405.09 1473.71 2405.09 1466.61 Q2405.09 1459.48 2403.26 1455.94 Q2401.46 1452.37 2397.83 1452.37 M2397.83 1448.67 Q2403.64 1448.67 2406.69 1453.27 Q2409.77 1457.86 2409.77 1466.61 Q2409.77 1475.33 2406.69 1479.94 Q2403.64 1484.52 2397.83 1484.52 Q2392.01 1484.52 2388.94 1479.94 Q2385.88 1475.33 2385.88 1466.61 Q2385.88 1457.86 2388.94 1453.27 Q2392.01 1448.67 2397.83 1448.67 Z" fill="#000000" fill-rule="evenodd" fill-opacity="1" /><path clip-path="url(#clip280)" d="M1231.04 1520.52 L1237.95 1520.52 L1251.12 1540.07 L1264.2 1520.52 L1271.11 1520.52 L1254.31 1545.41 L1254.31 1568.04 L1247.84 1568.04 L1247.84 1545.41 L1231.04 1520.52 Z" fill="#000000" fill-rule="evenodd" fill-opacity="1" /><path clip-path="url(#clip280)" d="M1298.96 1548.76 L1298.96 1551.62 L1272.03 1551.62 Q1272.42 1557.67 1275.66 1560.85 Q1278.94 1564 1284.77 1564 Q1288.14 1564 1291.29 1563.17 Q1294.47 1562.35 1297.59 1560.69 L1297.59 1566.23 Q1294.44 1567.57 1291.13 1568.27 Q1287.82 1568.97 1284.42 1568.97 Q1275.89 1568.97 1270.89 1564 Q1265.92 1559.04 1265.92 1550.57 Q1265.92 1541.82 1270.63 1536.69 Q1275.38 1531.54 1283.4 1531.54 Q1290.59 1531.54 1294.76 1536.18 Q1298.96 1540.8 1298.96 1548.76 M1293.11 1547.04 Q1293.04 1542.23 1290.4 1539.37 Q1287.79 1536.5 1283.46 1536.5 Q1278.56 1536.5 1275.6 1539.27 Q1272.67 1542.04 1272.23 1547.07 L1293.11 1547.04 Z" fill="#000000" fill-rule="evenodd" fill-opacity="1" /><path clip-path="url(#clip280)" d="M1324.77 1550.12 Q1317.68 1550.12 1314.94 1551.75 Q1312.2 1553.37 1312.2 1557.29 Q1312.2 1560.4 1314.24 1562.25 Q1316.31 1564.07 1319.84 1564.07 Q1324.71 1564.07 1327.64 1560.63 Q1330.6 1557.16 1330.6 1551.43 L1330.6 1550.12 L1324.77 1550.12 M1336.46 1547.71 L1336.46 1568.04 L1330.6 1568.04 L1330.6 1562.63 Q1328.59 1565.88 1325.6 1567.44 Q1322.61 1568.97 1318.28 1568.97 Q1312.81 1568.97 1309.56 1565.91 Q1306.35 1562.82 1306.35 1557.67 Q1306.35 1551.65 1310.36 1548.6 Q1314.4 1545.54 1322.39 1545.54 L1330.6 1545.54 L1330.6 1544.97 Q1330.6 1540.93 1327.93 1538.73 Q1325.28 1536.5 1320.48 1536.5 Q1317.42 1536.5 1314.53 1537.23 Q1311.63 1537.97 1308.96 1539.43 L1308.96 1534.02 Q1312.17 1532.78 1315.19 1532.17 Q1318.22 1531.54 1321.08 1531.54 Q1328.82 1531.54 1332.64 1535.55 Q1336.46 1539.56 1336.46 1547.71 Z" fill="#000000" fill-rule="evenodd" fill-opacity="1" /><path clip-path="url(#clip280)" d="M1369.18 1537.87 Q1368.19 1537.3 1367.01 1537.04 Q1365.87 1536.76 1364.46 1536.76 Q1359.5 1536.76 1356.83 1540 Q1354.18 1543.22 1354.18 1549.27 L1354.18 1568.04 L1348.3 1568.04 L1348.3 1532.4 L1354.18 1532.4 L1354.18 1537.93 Q1356.03 1534.69 1358.99 1533.13 Q1361.95 1531.54 1366.18 1531.54 Q1366.79 1531.54 1367.52 1531.63 Q1368.25 1531.7 1369.14 1531.85 L1369.18 1537.87 Z" fill="#000000" fill-rule="evenodd" fill-opacity="1" /><polyline clip-path="url(#clip282)" style="stroke:#000000; stroke-linecap:butt; stroke-linejoin:round; stroke-width:2; stroke-opacity:0.1; fill:none" points="
  247.459,1423.18 2352.76,1423.18 
  "/>
<polyline clip-path="url(#clip282)" style="stroke:#000000; stroke-linecap:butt; stroke-linejoin:round; stroke-width:2; stroke-opacity:0.1; fill:none" points="
  247.459,1206.56 2352.76,1206.56 
  "/>
<polyline clip-path="url(#clip282)" style="stroke:#000000; stroke-linecap:butt; stroke-linejoin:round; stroke-width:2; stroke-opacity:0.1; fill:none" points="
  247.459,989.944 2352.76,989.944 
  "/>
<polyline clip-path="url(#clip282)" style="stroke:#000000; stroke-linecap:butt; stroke-linejoin:round; stroke-width:2; stroke-opacity:0.1; fill:none" points="
  247.459,773.326 2352.76,773.326 
  "/>
<polyline clip-path="url(#clip282)" style="stroke:#000000; stroke-linecap:butt; stroke-linejoin:round; stroke-width:2; stroke-opacity:0.1; fill:none" points="
  247.459,556.708 2352.76,556.708 
  "/>
<polyline clip-path="url(#clip282)" style="stroke:#000000; stroke-linecap:butt; stroke-linejoin:round; stroke-width:2; stroke-opacity:0.1; fill:none" points="
  247.459,340.09 2352.76,340.09 
  "/>
<polyline clip-path="url(#clip282)" style="stroke:#000000; stroke-linecap:butt; stroke-linejoin:round; stroke-width:2; stroke-opacity:0.1; fill:none" points="
  247.459,123.472 2352.76,123.472 
  "/>
<polyline clip-path="url(#clip280)" style="stroke:#000000; stroke-linecap:butt; stroke-linejoin:round; stroke-width:4; stroke-opacity:1; fill:none" points="
  247.459,1423.18 247.459,123.472 
  "/>
<polyline clip-path="url(#clip280)" style="stroke:#000000; stroke-linecap:butt; stroke-linejoin:round; stroke-width:4; stroke-opacity:1; fill:none" points="
  247.459,1423.18 266.356,1423.18 
  "/>
<polyline clip-path="url(#clip280)" style="stroke:#000000; stroke-linecap:butt; stroke-linejoin:round; stroke-width:4; stroke-opacity:1; fill:none" points="
  247.459,1206.56 266.356,1206.56 
  "/>
<polyline clip-path="url(#clip280)" style="stroke:#000000; stroke-linecap:butt; stroke-linejoin:round; stroke-width:4; stroke-opacity:1; fill:none" points="
  247.459,989.944 266.356,989.944 
  "/>
<polyline clip-path="url(#clip280)" style="stroke:#000000; stroke-linecap:butt; stroke-linejoin:round; stroke-width:4; stroke-opacity:1; fill:none" points="
  247.459,773.326 266.356,773.326 
  "/>
<polyline clip-path="url(#clip280)" style="stroke:#000000; stroke-linecap:butt; stroke-linejoin:round; stroke-width:4; stroke-opacity:1; fill:none" points="
  247.459,556.708 266.356,556.708 
  "/>
<polyline clip-path="url(#clip280)" style="stroke:#000000; stroke-linecap:butt; stroke-linejoin:round; stroke-width:4; stroke-opacity:1; fill:none" points="
  247.459,340.09 266.356,340.09 
  "/>
<polyline clip-path="url(#clip280)" style="stroke:#000000; stroke-linecap:butt; stroke-linejoin:round; stroke-width:4; stroke-opacity:1; fill:none" points="
  247.459,123.472 266.356,123.472 
  "/>
<path clip-path="url(#clip280)" d="M143.103 1405.9 L165.325 1405.9 L165.325 1407.89 L152.778 1440.46 L147.894 1440.46 L159.7 1409.84 L143.103 1409.84 L143.103 1405.9 Z" fill="#000000" fill-rule="evenodd" fill-opacity="1" /><path clip-path="url(#clip280)" d="M174.445 1434.58 L179.329 1434.58 L179.329 1440.46 L174.445 1440.46 L174.445 1434.58 Z" fill="#000000" fill-rule="evenodd" fill-opacity="1" /><path clip-path="url(#clip280)" d="M199.514 1408.98 Q195.903 1408.98 194.075 1412.54 Q192.269 1416.08 192.269 1423.21 Q192.269 1430.32 194.075 1433.89 Q195.903 1437.43 199.514 1437.43 Q203.149 1437.43 204.954 1433.89 Q206.783 1430.32 206.783 1423.21 Q206.783 1416.08 204.954 1412.54 Q203.149 1408.98 199.514 1408.98 M199.514 1405.27 Q205.324 1405.27 208.38 1409.88 Q211.459 1414.46 211.459 1423.21 Q211.459 1431.94 208.38 1436.55 Q205.324 1441.13 199.514 1441.13 Q193.704 1441.13 190.625 1436.55 Q187.57 1431.94 187.57 1423.21 Q187.57 1414.46 190.625 1409.88 Q193.704 1405.27 199.514 1405.27 Z" fill="#000000" fill-rule="evenodd" fill-opacity="1" /><path clip-path="url(#clip280)" d="M144.098 1189.28 L166.32 1189.28 L166.32 1191.27 L153.774 1223.84 L148.89 1223.84 L160.695 1193.22 L144.098 1193.22 L144.098 1189.28 Z" fill="#000000" fill-rule="evenodd" fill-opacity="1" /><path clip-path="url(#clip280)" d="M175.44 1217.96 L180.325 1217.96 L180.325 1223.84 L175.44 1223.84 L175.44 1217.96 Z" fill="#000000" fill-rule="evenodd" fill-opacity="1" /><path clip-path="url(#clip280)" d="M190.556 1189.28 L208.912 1189.28 L208.912 1193.22 L194.838 1193.22 L194.838 1201.69 Q195.857 1201.34 196.875 1201.18 Q197.894 1200.99 198.912 1200.99 Q204.699 1200.99 208.079 1204.17 Q211.459 1207.34 211.459 1212.75 Q211.459 1218.33 207.987 1221.43 Q204.514 1224.51 198.195 1224.51 Q196.019 1224.51 193.75 1224.14 Q191.505 1223.77 189.098 1223.03 L189.098 1218.33 Q191.181 1219.47 193.403 1220.02 Q195.625 1220.58 198.102 1220.58 Q202.107 1220.58 204.445 1218.47 Q206.783 1216.37 206.783 1212.75 Q206.783 1209.14 204.445 1207.04 Q202.107 1204.93 198.102 1204.93 Q196.227 1204.93 194.352 1205.35 Q192.5 1205.76 190.556 1206.64 L190.556 1189.28 Z" fill="#000000" fill-rule="evenodd" fill-opacity="1" /><path clip-path="url(#clip280)" d="M154.283 990.812 Q150.95 990.812 149.028 992.594 Q147.13 994.377 147.13 997.502 Q147.13 1000.63 149.028 1002.41 Q150.95 1004.19 154.283 1004.19 Q157.616 1004.19 159.538 1002.41 Q161.459 1000.6 161.459 997.502 Q161.459 994.377 159.538 992.594 Q157.64 990.812 154.283 990.812 M149.607 988.821 Q146.598 988.081 144.908 986.02 Q143.241 983.96 143.241 980.997 Q143.241 976.854 146.181 974.446 Q149.144 972.039 154.283 972.039 Q159.445 972.039 162.385 974.446 Q165.325 976.854 165.325 980.997 Q165.325 983.96 163.635 986.02 Q161.968 988.081 158.982 988.821 Q162.362 989.608 164.237 991.9 Q166.135 994.192 166.135 997.502 Q166.135 1002.52 163.056 1005.21 Q160.001 1007.9 154.283 1007.9 Q148.566 1007.9 145.487 1005.21 Q142.431 1002.52 142.431 997.502 Q142.431 994.192 144.329 991.9 Q146.228 989.608 149.607 988.821 M147.894 981.437 Q147.894 984.122 149.561 985.627 Q151.251 987.131 154.283 987.131 Q157.292 987.131 158.982 985.627 Q160.695 984.122 160.695 981.437 Q160.695 978.752 158.982 977.247 Q157.292 975.743 154.283 975.743 Q151.251 975.743 149.561 977.247 Q147.894 978.752 147.894 981.437 Z" fill="#000000" fill-rule="evenodd" fill-opacity="1" /><path clip-path="url(#clip280)" d="M174.445 1001.34 L179.329 1001.34 L179.329 1007.22 L174.445 1007.22 L174.445 1001.34 Z" fill="#000000" fill-rule="evenodd" fill-opacity="1" /><path clip-path="url(#clip280)" d="M199.514 975.743 Q195.903 975.743 194.075 979.307 Q192.269 982.849 192.269 989.979 Q192.269 997.085 194.075 1000.65 Q195.903 1004.19 199.514 1004.19 Q203.149 1004.19 204.954 1000.65 Q206.783 997.085 206.783 989.979 Q206.783 982.849 204.954 979.307 Q203.149 975.743 199.514 975.743 M199.514 972.039 Q205.324 972.039 208.38 976.645 Q211.459 981.229 211.459 989.979 Q211.459 998.705 208.38 1003.31 Q205.324 1007.9 199.514 1007.9 Q193.704 1007.9 190.625 1003.31 Q187.57 998.705 187.57 989.979 Q187.57 981.229 190.625 976.645 Q193.704 972.039 199.514 972.039 Z" fill="#000000" fill-rule="evenodd" fill-opacity="1" /><path clip-path="url(#clip280)" d="M155.278 774.194 Q151.945 774.194 150.024 775.976 Q148.126 777.759 148.126 780.884 Q148.126 784.009 150.024 785.791 Q151.945 787.574 155.278 787.574 Q158.612 787.574 160.533 785.791 Q162.454 783.986 162.454 780.884 Q162.454 777.759 160.533 775.976 Q158.635 774.194 155.278 774.194 M150.603 772.203 Q147.593 771.463 145.904 769.402 Q144.237 767.342 144.237 764.379 Q144.237 760.236 147.177 757.828 Q150.14 755.421 155.278 755.421 Q160.44 755.421 163.38 757.828 Q166.32 760.236 166.32 764.379 Q166.32 767.342 164.63 769.402 Q162.964 771.463 159.978 772.203 Q163.357 772.99 165.232 775.282 Q167.13 777.574 167.13 780.884 Q167.13 785.907 164.052 788.592 Q160.996 791.277 155.278 791.277 Q149.561 791.277 146.482 788.592 Q143.427 785.907 143.427 780.884 Q143.427 777.574 145.325 775.282 Q147.223 772.99 150.603 772.203 M148.89 764.819 Q148.89 767.504 150.556 769.009 Q152.246 770.513 155.278 770.513 Q158.288 770.513 159.978 769.009 Q161.69 767.504 161.69 764.819 Q161.69 762.134 159.978 760.629 Q158.288 759.125 155.278 759.125 Q152.246 759.125 150.556 760.629 Q148.89 762.134 148.89 764.819 Z" fill="#000000" fill-rule="evenodd" fill-opacity="1" /><path clip-path="url(#clip280)" d="M175.44 784.726 L180.325 784.726 L180.325 790.606 L175.44 790.606 L175.44 784.726 Z" fill="#000000" fill-rule="evenodd" fill-opacity="1" /><path clip-path="url(#clip280)" d="M190.556 756.046 L208.912 756.046 L208.912 759.981 L194.838 759.981 L194.838 768.453 Q195.857 768.106 196.875 767.944 Q197.894 767.759 198.912 767.759 Q204.699 767.759 208.079 770.93 Q211.459 774.101 211.459 779.518 Q211.459 785.097 207.987 788.199 Q204.514 791.277 198.195 791.277 Q196.019 791.277 193.75 790.907 Q191.505 790.537 189.098 789.796 L189.098 785.097 Q191.181 786.231 193.403 786.787 Q195.625 787.342 198.102 787.342 Q202.107 787.342 204.445 785.236 Q206.783 783.129 206.783 779.518 Q206.783 775.907 204.445 773.801 Q202.107 771.694 198.102 771.694 Q196.227 771.694 194.352 772.111 Q192.5 772.527 190.556 773.407 L190.556 756.046 Z" fill="#000000" fill-rule="evenodd" fill-opacity="1" /><path clip-path="url(#clip280)" d="M144.422 573.27 L144.422 569.011 Q146.181 569.845 147.987 570.284 Q149.792 570.724 151.528 570.724 Q156.158 570.724 158.589 567.622 Q161.042 564.497 161.39 558.155 Q160.047 560.146 157.987 561.21 Q155.927 562.275 153.427 562.275 Q148.241 562.275 145.209 559.15 Q142.2 556.002 142.2 550.562 Q142.2 545.238 145.348 542.021 Q148.496 538.803 153.728 538.803 Q159.723 538.803 162.871 543.409 Q166.042 547.993 166.042 556.743 Q166.042 564.914 162.153 569.798 Q158.288 574.659 151.737 574.659 Q149.978 574.659 148.172 574.312 Q146.366 573.965 144.422 573.27 M153.728 558.618 Q156.876 558.618 158.704 556.465 Q160.556 554.312 160.556 550.562 Q160.556 546.835 158.704 544.683 Q156.876 542.507 153.728 542.507 Q150.579 542.507 148.728 544.683 Q146.899 546.835 146.899 550.562 Q146.899 554.312 148.728 556.465 Q150.579 558.618 153.728 558.618 Z" fill="#000000" fill-rule="evenodd" fill-opacity="1" /><path clip-path="url(#clip280)" d="M174.445 568.108 L179.329 568.108 L179.329 573.988 L174.445 573.988 L174.445 568.108 Z" fill="#000000" fill-rule="evenodd" fill-opacity="1" /><path clip-path="url(#clip280)" d="M199.514 542.507 Q195.903 542.507 194.075 546.072 Q192.269 549.613 192.269 556.743 Q192.269 563.849 194.075 567.414 Q195.903 570.956 199.514 570.956 Q203.149 570.956 204.954 567.414 Q206.783 563.849 206.783 556.743 Q206.783 549.613 204.954 546.072 Q203.149 542.507 199.514 542.507 M199.514 538.803 Q205.324 538.803 208.38 543.409 Q211.459 547.993 211.459 556.743 Q211.459 565.47 208.38 570.076 Q205.324 574.659 199.514 574.659 Q193.704 574.659 190.625 570.076 Q187.57 565.47 187.57 556.743 Q187.57 547.993 190.625 543.409 Q193.704 538.803 199.514 538.803 Z" fill="#000000" fill-rule="evenodd" fill-opacity="1" /><path clip-path="url(#clip280)" d="M145.417 356.652 L145.417 352.393 Q147.177 353.227 148.982 353.666 Q150.788 354.106 152.524 354.106 Q157.153 354.106 159.584 351.004 Q162.038 347.879 162.385 341.537 Q161.042 343.528 158.982 344.592 Q156.922 345.657 154.422 345.657 Q149.237 345.657 146.204 342.532 Q143.195 339.384 143.195 333.944 Q143.195 328.62 146.343 325.403 Q149.491 322.185 154.723 322.185 Q160.718 322.185 163.866 326.792 Q167.038 331.375 167.038 340.125 Q167.038 348.296 163.149 353.18 Q159.283 358.041 152.732 358.041 Q150.973 358.041 149.167 357.694 Q147.362 357.347 145.417 356.652 M154.723 342 Q157.871 342 159.7 339.847 Q161.552 337.694 161.552 333.944 Q161.552 330.217 159.7 328.065 Q157.871 325.889 154.723 325.889 Q151.575 325.889 149.723 328.065 Q147.894 330.217 147.894 333.944 Q147.894 337.694 149.723 339.847 Q151.575 342 154.723 342 Z" fill="#000000" fill-rule="evenodd" fill-opacity="1" /><path clip-path="url(#clip280)" d="M175.44 351.49 L180.325 351.49 L180.325 357.37 L175.44 357.37 L175.44 351.49 Z" fill="#000000" fill-rule="evenodd" fill-opacity="1" /><path clip-path="url(#clip280)" d="M190.556 322.81 L208.912 322.81 L208.912 326.745 L194.838 326.745 L194.838 335.217 Q195.857 334.87 196.875 334.708 Q197.894 334.523 198.912 334.523 Q204.699 334.523 208.079 337.694 Q211.459 340.866 211.459 346.282 Q211.459 351.861 207.987 354.963 Q204.514 358.041 198.195 358.041 Q196.019 358.041 193.75 357.671 Q191.505 357.301 189.098 356.56 L189.098 351.861 Q191.181 352.995 193.403 353.551 Q195.625 354.106 198.102 354.106 Q202.107 354.106 204.445 352 Q206.783 349.893 206.783 346.282 Q206.783 342.671 204.445 340.565 Q202.107 338.458 198.102 338.458 Q196.227 338.458 194.352 338.875 Q192.5 339.291 190.556 340.171 L190.556 322.81 Z" fill="#000000" fill-rule="evenodd" fill-opacity="1" /><path clip-path="url(#clip280)" d="M114.931 136.817 L122.57 136.817 L122.57 110.451 L114.26 112.118 L114.26 107.859 L122.524 106.192 L127.2 106.192 L127.2 136.817 L134.839 136.817 L134.839 140.752 L114.931 140.752 L114.931 136.817 Z" fill="#000000" fill-rule="evenodd" fill-opacity="1" /><path clip-path="url(#clip280)" d="M154.283 109.271 Q150.672 109.271 148.843 112.836 Q147.038 116.377 147.038 123.507 Q147.038 130.613 148.843 134.178 Q150.672 137.72 154.283 137.72 Q157.917 137.72 159.723 134.178 Q161.552 130.613 161.552 123.507 Q161.552 116.377 159.723 112.836 Q157.917 109.271 154.283 109.271 M154.283 105.567 Q160.093 105.567 163.149 110.174 Q166.227 114.757 166.227 123.507 Q166.227 132.234 163.149 136.84 Q160.093 141.423 154.283 141.423 Q148.473 141.423 145.394 136.84 Q142.339 132.234 142.339 123.507 Q142.339 114.757 145.394 110.174 Q148.473 105.567 154.283 105.567 Z" fill="#000000" fill-rule="evenodd" fill-opacity="1" /><path clip-path="url(#clip280)" d="M174.445 134.873 L179.329 134.873 L179.329 140.752 L174.445 140.752 L174.445 134.873 Z" fill="#000000" fill-rule="evenodd" fill-opacity="1" /><path clip-path="url(#clip280)" d="M199.514 109.271 Q195.903 109.271 194.075 112.836 Q192.269 116.377 192.269 123.507 Q192.269 130.613 194.075 134.178 Q195.903 137.72 199.514 137.72 Q203.149 137.72 204.954 134.178 Q206.783 130.613 206.783 123.507 Q206.783 116.377 204.954 112.836 Q203.149 109.271 199.514 109.271 M199.514 105.567 Q205.324 105.567 208.38 110.174 Q211.459 114.757 211.459 123.507 Q211.459 132.234 208.38 136.84 Q205.324 141.423 199.514 141.423 Q193.704 141.423 190.625 136.84 Q187.57 132.234 187.57 123.507 Q187.57 114.757 190.625 110.174 Q193.704 105.567 199.514 105.567 Z" fill="#000000" fill-rule="evenodd" fill-opacity="1" /><path clip-path="url(#clip280)" d="M16.4842 1348.2 L16.4842 1338.62 L48.8219 1326.49 L16.4842 1314.3 L16.4842 1304.72 L64.0042 1304.72 L64.0042 1310.99 L22.277 1310.99 L54.8694 1323.24 L54.8694 1329.7 L22.277 1341.96 L64.0042 1341.96 L64.0042 1348.2 L16.4842 1348.2 Z" fill="#000000" fill-rule="evenodd" fill-opacity="1" /><path clip-path="url(#clip280)" d="M44.7161 1261.72 L47.5806 1261.72 L47.5806 1288.65 Q53.6281 1288.26 56.8109 1285.02 Q59.9619 1281.74 59.9619 1275.91 Q59.9619 1272.54 59.1344 1269.39 Q58.3069 1266.21 56.6518 1263.09 L62.1899 1263.09 Q63.5267 1266.24 64.227 1269.55 Q64.9272 1272.86 64.9272 1276.26 Q64.9272 1284.79 59.9619 1289.79 Q54.9967 1294.76 46.5303 1294.76 Q37.7774 1294.76 32.6531 1290.05 Q27.4968 1285.3 27.4968 1277.28 Q27.4968 1270.09 32.1438 1265.92 Q36.7589 1261.72 44.7161 1261.72 M42.9973 1267.58 Q38.1912 1267.64 35.3266 1270.28 Q32.4621 1272.89 32.4621 1277.22 Q32.4621 1282.12 35.2312 1285.08 Q38.0002 1288.01 43.0292 1288.45 L42.9973 1267.58 Z" fill="#000000" fill-rule="evenodd" fill-opacity="1" /><path clip-path="url(#clip280)" d="M46.0847 1235.91 Q46.0847 1243 47.7079 1245.74 Q49.3312 1248.48 53.2461 1248.48 Q56.3653 1248.48 58.2114 1246.44 Q60.0256 1244.37 60.0256 1240.84 Q60.0256 1235.97 56.5881 1233.04 Q53.1188 1230.08 47.3897 1230.08 L46.0847 1230.08 L46.0847 1235.91 M43.6657 1224.22 L64.0042 1224.22 L64.0042 1230.08 L58.5933 1230.08 Q61.8398 1232.09 63.3994 1235.08 Q64.9272 1238.07 64.9272 1242.4 Q64.9272 1247.87 61.8716 1251.12 Q58.7843 1254.33 53.6281 1254.33 Q47.6125 1254.33 44.5569 1250.32 Q41.5014 1246.28 41.5014 1238.29 L41.5014 1230.08 L40.9285 1230.08 Q36.8862 1230.08 34.6901 1232.75 Q32.4621 1235.4 32.4621 1240.2 Q32.4621 1243.26 33.1941 1246.15 Q33.9262 1249.05 35.3903 1251.72 L29.9795 1251.72 Q28.7381 1248.51 28.1334 1245.49 Q27.4968 1242.46 27.4968 1239.6 Q27.4968 1231.86 31.5072 1228.04 Q35.5176 1224.22 43.6657 1224.22 Z" fill="#000000" fill-rule="evenodd" fill-opacity="1" /><path clip-path="url(#clip280)" d="M42.4881 1182.53 L64.0042 1182.53 L64.0042 1188.39 L42.679 1188.39 Q37.6183 1188.39 35.1038 1190.36 Q32.5894 1192.33 32.5894 1196.28 Q32.5894 1201.02 35.6131 1203.76 Q38.6368 1206.5 43.8567 1206.5 L64.0042 1206.5 L64.0042 1212.38 L28.3562 1212.38 L28.3562 1206.5 L33.8944 1206.5 Q30.6797 1204.4 29.0883 1201.56 Q27.4968 1198.7 27.4968 1194.97 Q27.4968 1188.83 31.3163 1185.68 Q35.1038 1182.53 42.4881 1182.53 Z" fill="#000000" fill-rule="evenodd" fill-opacity="1" /><path clip-path="url(#clip280)" d="M18.2347 1144.34 L28.3562 1144.34 L28.3562 1132.27 L32.9077 1132.27 L32.9077 1144.34 L52.2594 1144.34 Q56.6199 1144.34 57.8613 1143.16 Q59.1026 1141.95 59.1026 1138.29 L59.1026 1132.27 L64.0042 1132.27 L64.0042 1138.29 Q64.0042 1145.07 61.4897 1147.65 Q58.9434 1150.22 52.2594 1150.22 L32.9077 1150.22 L32.9077 1154.52 L28.3562 1154.52 L28.3562 1150.22 L18.2347 1150.22 L18.2347 1144.34 Z" fill="#000000" fill-rule="evenodd" fill-opacity="1" /><path clip-path="url(#clip280)" d="M44.7161 1094.08 L47.5806 1094.08 L47.5806 1121 Q53.6281 1120.62 56.8109 1117.38 Q59.9619 1114.1 59.9619 1108.27 Q59.9619 1104.9 59.1344 1101.75 Q58.3069 1098.57 56.6518 1095.45 L62.1899 1095.45 Q63.5267 1098.6 64.227 1101.91 Q64.9272 1105.22 64.9272 1108.62 Q64.9272 1117.15 59.9619 1122.15 Q54.9967 1127.12 46.5303 1127.12 Q37.7774 1127.12 32.6531 1122.41 Q27.4968 1117.66 27.4968 1109.64 Q27.4968 1102.45 32.1438 1098.28 Q36.7589 1094.08 44.7161 1094.08 M42.9973 1099.93 Q38.1912 1100 35.3266 1102.64 Q32.4621 1105.25 32.4621 1109.58 Q32.4621 1114.48 35.2312 1117.44 Q38.0002 1120.37 43.0292 1120.81 L42.9973 1099.93 Z" fill="#000000" fill-rule="evenodd" fill-opacity="1" /><path clip-path="url(#clip280)" d="M35.1993 1056.71 Q31.2526 1054.52 29.3747 1051.46 Q27.4968 1048.4 27.4968 1044.27 Q27.4968 1038.7 31.4117 1035.67 Q35.2948 1032.65 42.4881 1032.65 L64.0042 1032.65 L64.0042 1038.54 L42.679 1038.54 Q37.5546 1038.54 35.072 1040.35 Q32.5894 1042.17 32.5894 1045.89 Q32.5894 1050.44 35.6131 1053.08 Q38.6368 1055.72 43.8567 1055.72 L64.0042 1055.72 L64.0042 1061.61 L42.679 1061.61 Q37.5228 1061.61 35.072 1063.43 Q32.5894 1065.24 32.5894 1069.03 Q32.5894 1073.52 35.6449 1076.16 Q38.6686 1078.8 43.8567 1078.8 L64.0042 1078.8 L64.0042 1084.69 L28.3562 1084.69 L28.3562 1078.8 L33.8944 1078.8 Q30.616 1076.8 29.0564 1073.99 Q27.4968 1071.19 27.4968 1067.34 Q27.4968 1063.46 29.4702 1060.75 Q31.4436 1058.02 35.1993 1056.71 Z" fill="#000000" fill-rule="evenodd" fill-opacity="1" /><path clip-path="url(#clip280)" d="M58.657 1015.3 L77.5631 1015.3 L77.5631 1021.19 L28.3562 1021.19 L28.3562 1015.3 L33.7671 1015.3 Q30.5842 1013.46 29.0564 1010.66 Q27.4968 1007.82 27.4968 1003.91 Q27.4968 997.415 32.6531 993.373 Q37.8093 989.298 46.212 989.298 Q54.6147 989.298 59.771 993.373 Q64.9272 997.415 64.9272 1003.91 Q64.9272 1007.82 63.3994 1010.66 Q61.8398 1013.46 58.657 1015.3 M46.212 995.378 Q39.7508 995.378 36.0905 998.051 Q32.3984 1000.69 32.3984 1005.34 Q32.3984 1009.99 36.0905 1012.66 Q39.7508 1015.3 46.212 1015.3 Q52.6732 1015.3 56.3653 1012.66 Q60.0256 1009.99 60.0256 1005.34 Q60.0256 1000.69 56.3653 998.051 Q52.6732 995.378 46.212 995.378 Z" fill="#000000" fill-rule="evenodd" fill-opacity="1" /><path clip-path="url(#clip280)" d="M44.7161 949.099 L47.5806 949.099 L47.5806 976.026 Q53.6281 975.644 56.8109 972.398 Q59.9619 969.119 59.9619 963.295 Q59.9619 959.921 59.1344 956.77 Q58.3069 953.587 56.6518 950.468 L62.1899 950.468 Q63.5267 953.619 64.227 956.929 Q64.9272 960.239 64.9272 963.645 Q64.9272 972.175 59.9619 977.172 Q54.9967 982.137 46.5303 982.137 Q37.7774 982.137 32.6531 977.426 Q27.4968 972.684 27.4968 964.663 Q27.4968 957.47 32.1438 953.3 Q36.7589 949.099 44.7161 949.099 M42.9973 954.956 Q38.1912 955.019 35.3266 957.661 Q32.4621 960.271 32.4621 964.6 Q32.4621 969.501 35.2312 972.461 Q38.0002 975.389 43.0292 975.835 L42.9973 954.956 Z" fill="#000000" fill-rule="evenodd" fill-opacity="1" /><path clip-path="url(#clip280)" d="M33.8307 918.83 Q33.2578 919.817 33.0032 920.994 Q32.7167 922.14 32.7167 923.541 Q32.7167 928.506 35.9632 931.18 Q39.1779 933.821 45.2253 933.821 L64.0042 933.821 L64.0042 939.71 L28.3562 939.71 L28.3562 933.821 L33.8944 933.821 Q30.6479 931.975 29.0883 929.015 Q27.4968 926.055 27.4968 921.822 Q27.4968 921.217 27.5923 920.485 Q27.656 919.753 27.8151 918.862 L33.8307 918.83 Z" fill="#000000" fill-rule="evenodd" fill-opacity="1" /><path clip-path="url(#clip280)" d="M46.0847 896.486 Q46.0847 903.584 47.7079 906.322 Q49.3312 909.059 53.2461 909.059 Q56.3653 909.059 58.2114 907.022 Q60.0256 904.953 60.0256 901.42 Q60.0256 896.55 56.5881 893.622 Q53.1188 890.662 47.3897 890.662 L46.0847 890.662 L46.0847 896.486 M43.6657 884.805 L64.0042 884.805 L64.0042 890.662 L58.5933 890.662 Q61.8398 892.667 63.3994 895.659 Q64.9272 898.651 64.9272 902.98 Q64.9272 908.454 61.8716 911.701 Q58.7843 914.915 53.6281 914.915 Q47.6125 914.915 44.5569 910.905 Q41.5014 906.863 41.5014 898.874 L41.5014 890.662 L40.9285 890.662 Q36.8862 890.662 34.6901 893.335 Q32.4621 895.977 32.4621 900.783 Q32.4621 903.839 33.1941 906.735 Q33.9262 909.632 35.3903 912.305 L29.9795 912.305 Q28.7381 909.091 28.1334 906.067 Q27.4968 903.043 27.4968 900.179 Q27.4968 892.444 31.5072 888.625 Q35.5176 884.805 43.6657 884.805 Z" fill="#000000" fill-rule="evenodd" fill-opacity="1" /><path clip-path="url(#clip280)" d="M18.2347 866.95 L28.3562 866.95 L28.3562 854.887 L32.9077 854.887 L32.9077 866.95 L52.2594 866.95 Q56.6199 866.95 57.8613 865.772 Q59.1026 864.562 59.1026 860.902 L59.1026 854.887 L64.0042 854.887 L64.0042 860.902 Q64.0042 867.682 61.4897 870.26 Q58.9434 872.838 52.2594 872.838 L32.9077 872.838 L32.9077 877.135 L28.3562 877.135 L28.3562 872.838 L18.2347 872.838 L18.2347 866.95 Z" fill="#000000" fill-rule="evenodd" fill-opacity="1" /><path clip-path="url(#clip280)" d="M49.9359 847.789 L28.3562 847.789 L28.3562 841.932 L49.7131 841.932 Q54.7739 841.932 57.3202 839.959 Q59.8346 837.986 59.8346 834.039 Q59.8346 829.296 56.8109 826.559 Q53.7872 823.79 48.5673 823.79 L28.3562 823.79 L28.3562 817.934 L64.0042 817.934 L64.0042 823.79 L58.5296 823.79 Q61.7762 825.923 63.3676 828.755 Q64.9272 831.556 64.9272 835.28 Q64.9272 841.423 61.1078 844.606 Q57.2883 847.789 49.9359 847.789 M27.4968 833.052 L27.4968 833.052 Z" fill="#000000" fill-rule="evenodd" fill-opacity="1" /><path clip-path="url(#clip280)" d="M33.8307 785.214 Q33.2578 786.201 33.0032 787.378 Q32.7167 788.524 32.7167 789.925 Q32.7167 794.89 35.9632 797.563 Q39.1779 800.205 45.2253 800.205 L64.0042 800.205 L64.0042 806.093 L28.3562 806.093 L28.3562 800.205 L33.8944 800.205 Q30.6479 798.359 29.0883 795.399 Q27.4968 792.439 27.4968 788.206 Q27.4968 787.601 27.5923 786.869 Q27.656 786.137 27.8151 785.246 L33.8307 785.214 Z" fill="#000000" fill-rule="evenodd" fill-opacity="1" /><path clip-path="url(#clip280)" d="M44.7161 750.012 L47.5806 750.012 L47.5806 776.939 Q53.6281 776.557 56.8109 773.31 Q59.9619 770.032 59.9619 764.207 Q59.9619 760.833 59.1344 757.682 Q58.3069 754.499 56.6518 751.38 L62.1899 751.38 Q63.5267 754.531 64.227 757.841 Q64.9272 761.152 64.9272 764.557 Q64.9272 773.087 59.9619 778.084 Q54.9967 783.05 46.5303 783.05 Q37.7774 783.05 32.6531 778.339 Q27.4968 773.597 27.4968 765.576 Q27.4968 758.382 32.1438 754.213 Q36.7589 750.012 44.7161 750.012 M42.9973 755.868 Q38.1912 755.932 35.3266 758.573 Q32.4621 761.183 32.4621 765.512 Q32.4621 770.414 35.2312 773.374 Q38.0002 776.302 43.0292 776.748 L42.9973 755.868 Z" fill="#000000" fill-rule="evenodd" fill-opacity="1" /><path clip-path="url(#clip280)" d="M14.5426 705.611 Q21.8632 709.876 29.0246 711.945 Q36.186 714.014 43.5384 714.014 Q50.8908 714.014 58.1159 711.945 Q65.3091 709.844 72.5979 705.611 L72.5979 710.703 Q65.1182 715.478 57.8931 717.865 Q50.668 720.22 43.5384 720.22 Q36.4406 720.22 29.2474 717.865 Q22.0542 715.509 14.5426 710.703 L14.5426 705.611 Z" fill="#000000" fill-rule="evenodd" fill-opacity="1" /><path clip-path="url(#clip280)" d="M33.7671 670.79 L14.479 670.79 L14.479 664.934 L64.0042 664.934 L64.0042 670.79 L58.657 670.79 Q61.8398 672.636 63.3994 675.469 Q64.9272 678.27 64.9272 682.217 Q64.9272 688.678 59.771 692.752 Q54.6147 696.794 46.212 696.794 Q37.8093 696.794 32.6531 692.752 Q27.4968 688.678 27.4968 682.217 Q27.4968 678.27 29.0564 675.469 Q30.5842 672.636 33.7671 670.79 M46.212 690.747 Q52.6732 690.747 56.3653 688.105 Q60.0256 685.431 60.0256 680.785 Q60.0256 676.138 56.3653 673.464 Q52.6732 670.79 46.212 670.79 Q39.7508 670.79 36.0905 673.464 Q32.3984 676.138 32.3984 680.785 Q32.3984 685.431 36.0905 688.105 Q39.7508 690.747 46.212 690.747 Z" fill="#000000" fill-rule="evenodd" fill-opacity="1" /><path clip-path="url(#clip280)" d="M44.7161 622.379 L47.5806 622.379 L47.5806 649.306 Q53.6281 648.924 56.8109 645.678 Q59.9619 642.399 59.9619 636.575 Q59.9619 633.201 59.1344 630.05 Q58.3069 626.867 56.6518 623.748 L62.1899 623.748 Q63.5267 626.899 64.227 630.209 Q64.9272 633.519 64.9272 636.925 Q64.9272 645.455 59.9619 650.452 Q54.9967 655.417 46.5303 655.417 Q37.7774 655.417 32.6531 650.707 Q27.4968 645.964 27.4968 637.943 Q27.4968 630.75 32.1438 626.581 Q36.7589 622.379 44.7161 622.379 M42.9973 628.236 Q38.1912 628.299 35.3266 630.941 Q32.4621 633.551 32.4621 637.88 Q32.4621 642.781 35.2312 645.741 Q38.0002 648.67 43.0292 649.115 L42.9973 628.236 Z" fill="#000000" fill-rule="evenodd" fill-opacity="1" /><path clip-path="url(#clip280)" d="M45.7664 589.309 Q39.4007 589.309 35.8996 591.951 Q32.3984 594.561 32.3984 599.303 Q32.3984 604.014 35.8996 606.656 Q39.4007 609.266 45.7664 609.266 Q52.1003 609.266 55.6014 606.656 Q59.1026 604.014 59.1026 599.303 Q59.1026 594.561 55.6014 591.951 Q52.1003 589.309 45.7664 589.309 M59.58 583.453 Q68.683 583.453 73.1071 587.495 Q77.5631 591.537 77.5631 599.876 Q77.5631 602.964 77.0857 605.701 Q76.6401 608.438 75.6852 611.016 L69.9879 611.016 Q71.3884 608.438 72.0568 605.924 Q72.7252 603.409 72.7252 600.799 Q72.7252 595.038 69.7015 592.174 Q66.7096 589.309 60.6303 589.309 L57.7339 589.309 Q60.885 591.124 62.4446 593.956 Q64.0042 596.789 64.0042 600.736 Q64.0042 607.292 59.0071 611.303 Q54.01 615.313 45.7664 615.313 Q37.491 615.313 32.4939 611.303 Q27.4968 607.292 27.4968 600.736 Q27.4968 596.789 29.0564 593.956 Q30.616 591.124 33.7671 589.309 L28.3562 589.309 L28.3562 583.453 L59.58 583.453 Z" fill="#000000" fill-rule="evenodd" fill-opacity="1" /><path clip-path="url(#clip280)" d="M33.8307 550.733 Q33.2578 551.72 33.0032 552.897 Q32.7167 554.043 32.7167 555.444 Q32.7167 560.409 35.9632 563.083 Q39.1779 565.724 45.2253 565.724 L64.0042 565.724 L64.0042 571.613 L28.3562 571.613 L28.3562 565.724 L33.8944 565.724 Q30.6479 563.878 29.0883 560.918 Q27.4968 557.958 27.4968 553.725 Q27.4968 553.12 27.5923 552.388 Q27.656 551.656 27.8151 550.765 L33.8307 550.733 Z" fill="#000000" fill-rule="evenodd" fill-opacity="1" /><path clip-path="url(#clip280)" d="M44.7161 515.531 L47.5806 515.531 L47.5806 542.458 Q53.6281 542.076 56.8109 538.829 Q59.9619 535.551 59.9619 529.726 Q59.9619 526.352 59.1344 523.201 Q58.3069 520.019 56.6518 516.899 L62.1899 516.899 Q63.5267 520.05 64.227 523.361 Q64.9272 526.671 64.9272 530.076 Q64.9272 538.606 59.9619 543.604 Q54.9967 548.569 46.5303 548.569 Q37.7774 548.569 32.6531 543.858 Q27.4968 539.116 27.4968 531.095 Q27.4968 523.902 32.1438 519.732 Q36.7589 515.531 44.7161 515.531 M42.9973 521.387 Q38.1912 521.451 35.3266 524.093 Q32.4621 526.703 32.4621 531.031 Q32.4621 535.933 35.2312 538.893 Q38.0002 541.821 43.0292 542.267 L42.9973 521.387 Z" fill="#000000" fill-rule="evenodd" fill-opacity="1" /><path clip-path="url(#clip280)" d="M44.7161 475.427 L47.5806 475.427 L47.5806 502.354 Q53.6281 501.972 56.8109 498.725 Q59.9619 495.447 59.9619 489.622 Q59.9619 486.249 59.1344 483.098 Q58.3069 479.915 56.6518 476.795 L62.1899 476.795 Q63.5267 479.946 64.227 483.257 Q64.9272 486.567 64.9272 489.972 Q64.9272 498.503 59.9619 503.5 Q54.9967 508.465 46.5303 508.465 Q37.7774 508.465 32.6531 503.754 Q27.4968 499.012 27.4968 490.991 Q27.4968 483.798 32.1438 479.628 Q36.7589 475.427 44.7161 475.427 M42.9973 481.283 Q38.1912 481.347 35.3266 483.989 Q32.4621 486.599 32.4621 490.927 Q32.4621 495.829 35.2312 498.789 Q38.0002 501.717 43.0292 502.163 L42.9973 481.283 Z" fill="#000000" fill-rule="evenodd" fill-opacity="1" /><path clip-path="url(#clip280)" d="M20.1444 409.255 L26.9239 409.255 Q23.9002 412.502 22.4043 416.194 Q20.9083 419.854 20.9083 423.992 Q20.9083 432.14 25.9054 436.469 Q30.8707 440.797 40.2919 440.797 Q49.6813 440.797 54.6784 436.469 Q59.6436 432.14 59.6436 423.992 Q59.6436 419.854 58.1477 416.194 Q56.6518 412.502 53.6281 409.255 L60.3439 409.255 Q62.6355 412.629 63.7814 416.417 Q64.9272 420.172 64.9272 424.374 Q64.9272 435.164 58.3387 441.37 Q51.7183 447.577 40.2919 447.577 Q28.8336 447.577 22.2451 441.37 Q15.6248 435.164 15.6248 424.374 Q15.6248 420.109 16.7706 416.353 Q17.8846 412.565 20.1444 409.255 Z" fill="#000000" fill-rule="evenodd" fill-opacity="1" /><path clip-path="url(#clip280)" d="M44.7161 369.088 L47.5806 369.088 L47.5806 396.015 Q53.6281 395.633 56.8109 392.386 Q59.9619 389.108 59.9619 383.283 Q59.9619 379.909 59.1344 376.758 Q58.3069 373.576 56.6518 370.456 L62.1899 370.456 Q63.5267 373.607 64.227 376.918 Q64.9272 380.228 64.9272 383.633 Q64.9272 392.163 59.9619 397.16 Q54.9967 402.126 46.5303 402.126 Q37.7774 402.126 32.6531 397.415 Q27.4968 392.673 27.4968 384.652 Q27.4968 377.459 32.1438 373.289 Q36.7589 369.088 44.7161 369.088 M42.9973 374.944 Q38.1912 375.008 35.3266 377.65 Q32.4621 380.26 32.4621 384.588 Q32.4621 389.49 35.2312 392.45 Q38.0002 395.378 43.0292 395.824 L42.9973 374.944 Z" fill="#000000" fill-rule="evenodd" fill-opacity="1" /><path clip-path="url(#clip280)" d="M14.479 359.475 L14.479 353.619 L64.0042 353.619 L64.0042 359.475 L14.479 359.475 Z" fill="#000000" fill-rule="evenodd" fill-opacity="1" /><path clip-path="url(#clip280)" d="M29.7248 315.711 L35.1993 315.711 Q33.8307 318.194 33.1623 320.708 Q32.4621 323.191 32.4621 325.737 Q32.4621 331.435 36.0905 334.586 Q39.6872 337.737 46.212 337.737 Q52.7369 337.737 56.3653 334.586 Q59.9619 331.435 59.9619 325.737 Q59.9619 323.191 59.2935 320.708 Q58.5933 318.194 57.2247 315.711 L62.6355 315.711 Q63.7814 318.162 64.3543 320.804 Q64.9272 323.414 64.9272 326.374 Q64.9272 334.426 59.8664 339.169 Q54.8057 343.911 46.212 343.911 Q37.491 343.911 32.4939 339.137 Q27.4968 334.331 27.4968 325.992 Q27.4968 323.286 28.0697 320.708 Q28.6108 318.13 29.7248 315.711 Z" fill="#000000" fill-rule="evenodd" fill-opacity="1" /><path clip-path="url(#clip280)" d="M28.3562 305.526 L28.3562 299.67 L64.0042 299.67 L64.0042 305.526 L28.3562 305.526 M14.479 305.526 L14.479 299.67 L21.895 299.67 L21.895 305.526 L14.479 305.526 Z" fill="#000000" fill-rule="evenodd" fill-opacity="1" /><path clip-path="url(#clip280)" d="M49.9359 288.02 L28.3562 288.02 L28.3562 282.164 L49.7131 282.164 Q54.7739 282.164 57.3202 280.191 Q59.8346 278.217 59.8346 274.27 Q59.8346 269.528 56.8109 266.791 Q53.7872 264.022 48.5673 264.022 L28.3562 264.022 L28.3562 258.165 L64.0042 258.165 L64.0042 264.022 L58.5296 264.022 Q61.7762 266.154 63.3676 268.987 Q64.9272 271.788 64.9272 275.512 Q64.9272 281.655 61.1078 284.838 Q57.2883 288.02 49.9359 288.02 M27.4968 273.284 L27.4968 273.284 Z" fill="#000000" fill-rule="evenodd" fill-opacity="1" /><path clip-path="url(#clip280)" d="M29.4065 223.377 L34.9447 223.377 Q33.6716 225.859 33.035 228.533 Q32.3984 231.206 32.3984 234.071 Q32.3984 238.432 33.7352 240.628 Q35.072 242.792 37.7456 242.792 Q39.7826 242.792 40.9603 241.232 Q42.1061 239.673 43.1565 234.962 L43.6021 232.957 Q44.9389 226.719 47.3897 224.109 Q49.8086 221.467 54.1691 221.467 Q59.1344 221.467 62.0308 225.414 Q64.9272 229.329 64.9272 236.204 Q64.9272 239.068 64.3543 242.187 Q63.8132 245.275 62.6992 248.712 L56.6518 248.712 Q58.3387 245.466 59.198 242.315 Q60.0256 239.164 60.0256 236.076 Q60.0256 231.939 58.6251 229.711 Q57.1929 227.483 54.6147 227.483 Q52.2276 227.483 50.9545 229.106 Q49.6813 230.697 48.5037 236.14 L48.0262 238.177 Q46.8804 243.62 44.5251 246.039 Q42.138 248.458 38.0002 248.458 Q32.9713 248.458 30.2341 244.893 Q27.4968 241.328 27.4968 234.771 Q27.4968 231.525 27.9743 228.66 Q28.4517 225.796 29.4065 223.377 Z" fill="#000000" fill-rule="evenodd" fill-opacity="1" /><path clip-path="url(#clip280)" d="M14.5426 213.064 L14.5426 207.972 Q22.0542 203.197 29.2474 200.842 Q36.4406 198.455 43.5384 198.455 Q50.668 198.455 57.8931 200.842 Q65.1182 203.197 72.5979 207.972 L72.5979 213.064 Q65.3091 208.831 58.1159 206.762 Q50.8908 204.661 43.5384 204.661 Q36.186 204.661 29.0246 206.762 Q21.8632 208.831 14.5426 213.064 Z" fill="#000000" fill-rule="evenodd" fill-opacity="1" /><path clip-path="url(#clip280)" d="M713.354 12.096 L725.547 12.096 L740.981 53.2532 L756.496 12.096 L768.689 12.096 L768.689 72.576 L760.709 72.576 L760.709 19.4686 L745.113 60.9499 L736.89 60.9499 L721.294 19.4686 L721.294 72.576 L713.354 72.576 L713.354 12.096 Z" fill="#000000" fill-rule="evenodd" fill-opacity="1" /><path clip-path="url(#clip280)" d="M823.417 48.0275 L823.417 51.6733 L789.147 51.6733 Q789.633 59.3701 793.765 63.421 Q797.937 67.4314 805.35 67.4314 Q809.644 67.4314 813.654 66.3781 Q817.705 65.3249 821.675 63.2184 L821.675 70.267 Q817.665 71.9684 813.452 72.8596 Q809.239 73.7508 804.905 73.7508 Q794.048 73.7508 787.688 67.4314 Q781.369 61.1119 781.369 50.3365 Q781.369 39.1965 787.364 32.6746 Q793.4 26.1121 803.608 26.1121 Q812.763 26.1121 818.07 32.0264 Q823.417 37.9003 823.417 48.0275 M815.963 45.84 Q815.882 39.7232 812.52 36.0774 Q809.198 32.4315 803.689 32.4315 Q797.451 32.4315 793.684 35.9558 Q789.957 39.4801 789.39 45.8805 L815.963 45.84 Z" fill="#000000" fill-rule="evenodd" fill-opacity="1" /><path clip-path="url(#clip280)" d="M856.27 49.7694 Q847.236 49.7694 843.753 51.8354 Q840.269 53.9013 840.269 58.8839 Q840.269 62.8538 842.861 65.2034 Q845.495 67.5124 849.991 67.5124 Q856.189 67.5124 859.916 63.1374 Q863.683 58.7219 863.683 51.4303 L863.683 49.7694 L856.27 49.7694 M871.137 46.6907 L871.137 72.576 L863.683 72.576 L863.683 65.6895 Q861.131 69.8214 857.323 71.8063 Q853.515 73.7508 848.006 73.7508 Q841.039 73.7508 836.907 69.8619 Q832.815 65.9325 832.815 59.3701 Q832.815 51.7138 837.919 47.825 Q843.064 43.9361 853.232 43.9361 L863.683 43.9361 L863.683 43.2069 Q863.683 38.0623 860.28 35.2672 Q856.918 32.4315 850.801 32.4315 Q846.912 32.4315 843.226 33.3632 Q839.54 34.295 836.137 36.1584 L836.137 29.2718 Q840.228 27.692 844.077 26.9223 Q847.925 26.1121 851.571 26.1121 Q861.415 26.1121 866.276 31.2163 Q871.137 36.3204 871.137 46.6907 Z" fill="#000000" fill-rule="evenodd" fill-opacity="1" /><path clip-path="url(#clip280)" d="M924.204 45.1919 L924.204 72.576 L916.75 72.576 L916.75 45.4349 Q916.75 38.994 914.238 35.7938 Q911.727 32.5936 906.704 32.5936 Q900.668 32.5936 897.184 36.4419 Q893.7 40.2903 893.7 46.9338 L893.7 72.576 L886.206 72.576 L886.206 27.2059 L893.7 27.2059 L893.7 34.2544 Q896.374 30.163 899.979 28.1376 Q903.625 26.1121 908.365 26.1121 Q916.183 26.1121 920.193 30.9732 Q924.204 35.7938 924.204 45.1919 Z" fill="#000000" fill-rule="evenodd" fill-opacity="1" /><path clip-path="url(#clip280)" d="M972.815 14.324 L972.815 27.2059 L988.167 27.2059 L988.167 32.9987 L972.815 32.9987 L972.815 57.6282 Q972.815 63.1779 974.313 64.7578 Q975.853 66.3376 980.511 66.3376 L988.167 66.3376 L988.167 72.576 L980.511 72.576 Q971.883 72.576 968.602 69.3758 Q965.32 66.1351 965.32 57.6282 L965.32 32.9987 L959.852 32.9987 L959.852 27.2059 L965.32 27.2059 L965.32 14.324 L972.815 14.324 Z" fill="#000000" fill-rule="evenodd" fill-opacity="1" /><path clip-path="url(#clip280)" d="M1036.78 48.0275 L1036.78 51.6733 L1002.51 51.6733 Q1002.99 59.3701 1007.13 63.421 Q1011.3 67.4314 1018.71 67.4314 Q1023.01 67.4314 1027.02 66.3781 Q1031.07 65.3249 1035.04 63.2184 L1035.04 70.267 Q1031.03 71.9684 1026.81 72.8596 Q1022.6 73.7508 1018.27 73.7508 Q1007.41 73.7508 1001.05 67.4314 Q994.73 61.1119 994.73 50.3365 Q994.73 39.1965 1000.73 32.6746 Q1006.76 26.1121 1016.97 26.1121 Q1026.12 26.1121 1031.43 32.0264 Q1036.78 37.9003 1036.78 48.0275 M1029.32 45.84 Q1029.24 39.7232 1025.88 36.0774 Q1022.56 32.4315 1017.05 32.4315 Q1010.81 32.4315 1007.04 35.9558 Q1003.32 39.4801 1002.75 45.8805 L1029.32 45.84 Z" fill="#000000" fill-rule="evenodd" fill-opacity="1" /><path clip-path="url(#clip280)" d="M1084.34 35.9153 Q1087.13 30.8922 1091.02 28.5022 Q1094.91 26.1121 1100.17 26.1121 Q1107.26 26.1121 1111.11 31.0947 Q1114.96 36.0368 1114.96 45.1919 L1114.96 72.576 L1107.47 72.576 L1107.47 45.4349 Q1107.47 38.913 1105.16 35.7533 Q1102.85 32.5936 1098.11 32.5936 Q1092.32 32.5936 1088.95 36.4419 Q1085.59 40.2903 1085.59 46.9338 L1085.59 72.576 L1078.1 72.576 L1078.1 45.4349 Q1078.1 38.8725 1075.79 35.7533 Q1073.48 32.5936 1068.66 32.5936 Q1062.95 32.5936 1059.58 36.4824 Q1056.22 40.3308 1056.22 46.9338 L1056.22 72.576 L1048.73 72.576 L1048.73 27.2059 L1056.22 27.2059 L1056.22 34.2544 Q1058.77 30.082 1062.34 28.0971 Q1065.9 26.1121 1070.81 26.1121 Q1075.75 26.1121 1079.19 28.6237 Q1082.68 31.1352 1084.34 35.9153 Z" fill="#000000" fill-rule="evenodd" fill-opacity="1" /><path clip-path="url(#clip280)" d="M1137.04 65.7705 L1137.04 89.8329 L1129.54 89.8329 L1129.54 27.2059 L1137.04 27.2059 L1137.04 34.0924 Q1139.39 30.0415 1142.95 28.0971 Q1146.56 26.1121 1151.54 26.1121 Q1159.8 26.1121 1164.95 32.6746 Q1170.13 39.2371 1170.13 49.9314 Q1170.13 60.6258 1164.95 67.1883 Q1159.8 73.7508 1151.54 73.7508 Q1146.56 73.7508 1142.95 71.8063 Q1139.39 69.8214 1137.04 65.7705 M1162.4 49.9314 Q1162.4 41.7081 1158.99 37.0496 Q1155.63 32.3505 1149.72 32.3505 Q1143.8 32.3505 1140.4 37.0496 Q1137.04 41.7081 1137.04 49.9314 Q1137.04 58.1548 1140.4 62.8538 Q1143.8 67.5124 1149.72 67.5124 Q1155.63 67.5124 1158.99 62.8538 Q1162.4 58.1548 1162.4 49.9314 Z" fill="#000000" fill-rule="evenodd" fill-opacity="1" /><path clip-path="url(#clip280)" d="M1221.3 48.0275 L1221.3 51.6733 L1187.03 51.6733 Q1187.51 59.3701 1191.64 63.421 Q1195.82 67.4314 1203.23 67.4314 Q1207.52 67.4314 1211.53 66.3781 Q1215.59 65.3249 1219.56 63.2184 L1219.56 70.267 Q1215.54 71.9684 1211.33 72.8596 Q1207.12 73.7508 1202.78 73.7508 Q1191.93 73.7508 1185.57 67.4314 Q1179.25 61.1119 1179.25 50.3365 Q1179.25 39.1965 1185.24 32.6746 Q1191.28 26.1121 1201.49 26.1121 Q1210.64 26.1121 1215.95 32.0264 Q1221.3 37.9003 1221.3 48.0275 M1213.84 45.84 Q1213.76 39.7232 1210.4 36.0774 Q1207.08 32.4315 1201.57 32.4315 Q1195.33 32.4315 1191.56 35.9558 Q1187.84 39.4801 1187.27 45.8805 L1213.84 45.84 Z" fill="#000000" fill-rule="evenodd" fill-opacity="1" /><path clip-path="url(#clip280)" d="M1259.82 34.1734 Q1258.57 33.4443 1257.07 33.1202 Q1255.61 32.7556 1253.83 32.7556 Q1247.51 32.7556 1244.1 36.8875 Q1240.74 40.9789 1240.74 48.6757 L1240.74 72.576 L1233.25 72.576 L1233.25 27.2059 L1240.74 27.2059 L1240.74 34.2544 Q1243.09 30.1225 1246.86 28.1376 Q1250.63 26.1121 1256.01 26.1121 Q1256.78 26.1121 1257.71 26.2337 Q1258.65 26.3147 1259.78 26.5172 L1259.82 34.1734 Z" fill="#000000" fill-rule="evenodd" fill-opacity="1" /><path clip-path="url(#clip280)" d="M1288.26 49.7694 Q1279.22 49.7694 1275.74 51.8354 Q1272.26 53.9013 1272.26 58.8839 Q1272.26 62.8538 1274.85 65.2034 Q1277.48 67.5124 1281.98 67.5124 Q1288.18 67.5124 1291.9 63.1374 Q1295.67 58.7219 1295.67 51.4303 L1295.67 49.7694 L1288.26 49.7694 M1303.13 46.6907 L1303.13 72.576 L1295.67 72.576 L1295.67 65.6895 Q1293.12 69.8214 1289.31 71.8063 Q1285.5 73.7508 1279.99 73.7508 Q1273.03 73.7508 1268.9 69.8619 Q1264.8 65.9325 1264.8 59.3701 Q1264.8 51.7138 1269.91 47.825 Q1275.05 43.9361 1285.22 43.9361 L1295.67 43.9361 L1295.67 43.2069 Q1295.67 38.0623 1292.27 35.2672 Q1288.91 32.4315 1282.79 32.4315 Q1278.9 32.4315 1275.21 33.3632 Q1271.53 34.295 1268.13 36.1584 L1268.13 29.2718 Q1272.22 27.692 1276.07 26.9223 Q1279.91 26.1121 1283.56 26.1121 Q1293.4 26.1121 1298.26 31.2163 Q1303.13 36.3204 1303.13 46.6907 Z" fill="#000000" fill-rule="evenodd" fill-opacity="1" /><path clip-path="url(#clip280)" d="M1325.85 14.324 L1325.85 27.2059 L1341.2 27.2059 L1341.2 32.9987 L1325.85 32.9987 L1325.85 57.6282 Q1325.85 63.1779 1327.35 64.7578 Q1328.89 66.3376 1333.55 66.3376 L1341.2 66.3376 L1341.2 72.576 L1333.55 72.576 Q1324.92 72.576 1321.64 69.3758 Q1318.36 66.1351 1318.36 57.6282 L1318.36 32.9987 L1312.89 32.9987 L1312.89 27.2059 L1318.36 27.2059 L1318.36 14.324 L1325.85 14.324 Z" fill="#000000" fill-rule="evenodd" fill-opacity="1" /><path clip-path="url(#clip280)" d="M1350.24 54.671 L1350.24 27.2059 L1357.69 27.2059 L1357.69 54.3874 Q1357.69 60.8284 1360.2 64.0691 Q1362.71 67.2693 1367.74 67.2693 Q1373.77 67.2693 1377.26 63.421 Q1380.78 59.5726 1380.78 52.9291 L1380.78 27.2059 L1388.23 27.2059 L1388.23 72.576 L1380.78 72.576 L1380.78 65.6084 Q1378.07 69.7404 1374.46 71.7658 Q1370.9 73.7508 1366.16 73.7508 Q1358.34 73.7508 1354.29 68.8897 Q1350.24 64.0286 1350.24 54.671 M1368.99 26.1121 L1368.99 26.1121 Z" fill="#000000" fill-rule="evenodd" fill-opacity="1" /><path clip-path="url(#clip280)" d="M1429.88 34.1734 Q1428.62 33.4443 1427.12 33.1202 Q1425.67 32.7556 1423.88 32.7556 Q1417.56 32.7556 1414.16 36.8875 Q1410.8 40.9789 1410.8 48.6757 L1410.8 72.576 L1403.3 72.576 L1403.3 27.2059 L1410.8 27.2059 L1410.8 34.2544 Q1413.15 30.1225 1416.92 28.1376 Q1420.68 26.1121 1426.07 26.1121 Q1426.84 26.1121 1427.77 26.2337 Q1428.7 26.3147 1429.84 26.5172 L1429.88 34.1734 Z" fill="#000000" fill-rule="evenodd" fill-opacity="1" /><path clip-path="url(#clip280)" d="M1474.68 48.0275 L1474.68 51.6733 L1440.41 51.6733 Q1440.9 59.3701 1445.03 63.421 Q1449.2 67.4314 1456.61 67.4314 Q1460.91 67.4314 1464.92 66.3781 Q1468.97 65.3249 1472.94 63.2184 L1472.94 70.267 Q1468.93 71.9684 1464.72 72.8596 Q1460.5 73.7508 1456.17 73.7508 Q1445.31 73.7508 1438.95 67.4314 Q1432.63 61.1119 1432.63 50.3365 Q1432.63 39.1965 1438.63 32.6746 Q1444.66 26.1121 1454.87 26.1121 Q1464.03 26.1121 1469.33 32.0264 Q1474.68 37.9003 1474.68 48.0275 M1467.23 45.84 Q1467.15 39.7232 1463.78 36.0774 Q1460.46 32.4315 1454.95 32.4315 Q1448.71 32.4315 1444.95 35.9558 Q1441.22 39.4801 1440.65 45.8805 L1467.23 45.84 Z" fill="#000000" fill-rule="evenodd" fill-opacity="1" /><path clip-path="url(#clip280)" d="M1513.29 27.2059 L1520.74 27.2059 L1520.74 72.576 L1513.29 72.576 L1513.29 27.2059 M1513.29 9.54393 L1520.74 9.54393 L1520.74 18.9825 L1513.29 18.9825 L1513.29 9.54393 Z" fill="#000000" fill-rule="evenodd" fill-opacity="1" /><path clip-path="url(#clip280)" d="M1574.05 45.1919 L1574.05 72.576 L1566.6 72.576 L1566.6 45.4349 Q1566.6 38.994 1564.08 35.7938 Q1561.57 32.5936 1556.55 32.5936 Q1550.51 32.5936 1547.03 36.4419 Q1543.55 40.2903 1543.55 46.9338 L1543.55 72.576 L1536.05 72.576 L1536.05 27.2059 L1543.55 27.2059 L1543.55 34.2544 Q1546.22 30.163 1549.83 28.1376 Q1553.47 26.1121 1558.21 26.1121 Q1566.03 26.1121 1570.04 30.9732 Q1574.05 35.7938 1574.05 45.1919 Z" fill="#000000" fill-rule="evenodd" fill-opacity="1" /><path clip-path="url(#clip280)" d="M1622.66 14.324 L1622.66 27.2059 L1638.01 27.2059 L1638.01 32.9987 L1622.66 32.9987 L1622.66 57.6282 Q1622.66 63.1779 1624.16 64.7578 Q1625.7 66.3376 1630.36 66.3376 L1638.01 66.3376 L1638.01 72.576 L1630.36 72.576 Q1621.73 72.576 1618.45 69.3758 Q1615.17 66.1351 1615.17 57.6282 L1615.17 32.9987 L1609.7 32.9987 L1609.7 27.2059 L1615.17 27.2059 L1615.17 14.324 L1622.66 14.324 Z" fill="#000000" fill-rule="evenodd" fill-opacity="1" /><path clip-path="url(#clip280)" d="M1685.53 45.1919 L1685.53 72.576 L1678.08 72.576 L1678.08 45.4349 Q1678.08 38.994 1675.57 35.7938 Q1673.05 32.5936 1668.03 32.5936 Q1661.99 32.5936 1658.51 36.4419 Q1655.03 40.2903 1655.03 46.9338 L1655.03 72.576 L1647.53 72.576 L1647.53 9.54393 L1655.03 9.54393 L1655.03 34.2544 Q1657.7 30.163 1661.31 28.1376 Q1664.95 26.1121 1669.69 26.1121 Q1677.51 26.1121 1681.52 30.9732 Q1685.53 35.7938 1685.53 45.1919 Z" fill="#000000" fill-rule="evenodd" fill-opacity="1" /><path clip-path="url(#clip280)" d="M1739.21 48.0275 L1739.21 51.6733 L1704.93 51.6733 Q1705.42 59.3701 1709.55 63.421 Q1713.72 67.4314 1721.14 67.4314 Q1725.43 67.4314 1729.44 66.3781 Q1733.49 65.3249 1737.46 63.2184 L1737.46 70.267 Q1733.45 71.9684 1729.24 72.8596 Q1725.03 73.7508 1720.69 73.7508 Q1709.84 73.7508 1703.48 67.4314 Q1697.16 61.1119 1697.16 50.3365 Q1697.16 39.1965 1703.15 32.6746 Q1709.19 26.1121 1719.4 26.1121 Q1728.55 26.1121 1733.86 32.0264 Q1739.21 37.9003 1739.21 48.0275 M1731.75 45.84 Q1731.67 39.7232 1728.31 36.0774 Q1724.99 32.4315 1719.48 32.4315 Q1713.24 32.4315 1709.47 35.9558 Q1705.74 39.4801 1705.18 45.8805 L1731.75 45.84 Z" fill="#000000" fill-rule="evenodd" fill-opacity="1" /><path clip-path="url(#clip280)" d="M1777.2 12.096 L1785.43 12.096 L1785.43 48.8377 Q1785.43 58.5599 1788.95 62.8538 Q1792.47 67.1073 1800.37 67.1073 Q1808.23 67.1073 1811.76 62.8538 Q1815.28 58.5599 1815.28 48.8377 L1815.28 12.096 L1823.5 12.096 L1823.5 49.8504 Q1823.5 61.6791 1817.63 67.7149 Q1811.8 73.7508 1800.37 73.7508 Q1788.91 73.7508 1783.04 67.7149 Q1777.2 61.6791 1777.2 49.8504 L1777.2 12.096 Z" fill="#000000" fill-rule="evenodd" fill-opacity="1" /><path clip-path="url(#clip280)" d="M1838.86 12.096 L1847.04 12.096 L1847.04 37.6572 L1874.18 12.096 L1884.71 12.096 L1854.7 40.2903 L1886.86 72.576 L1876.09 72.576 L1847.04 43.45 L1847.04 72.576 L1838.86 72.576 L1838.86 12.096 Z" fill="#000000" fill-rule="evenodd" fill-opacity="1" /><polyline clip-path="url(#clip282)" style="stroke:#009af9; stroke-linecap:butt; stroke-linejoin:round; stroke-width:4; stroke-opacity:1; fill:none" points="
  60.3212,864.306 83.7134,682.346 107.106,682.346 130.498,1063.59 153.89,933.623 177.282,1180.57 200.674,833.979 224.067,1228.22 247.459,781.991 270.851,439.734 
  294.243,1137.24 317.635,994.276 341.027,894.632 364.42,924.959 387.812,721.338 411.204,946.62 434.596,825.314 457.988,985.612 481.381,851.308 504.773,985.612 
  528.165,820.982 551.557,617.361 574.949,604.364 598.342,751.664 621.734,864.306 645.126,829.647 668.518,574.037 691.91,730.002 715.303,972.615 738.695,989.944 
  762.087,959.617 785.479,587.035 808.871,777.658 832.263,478.726 855.656,820.982 879.048,807.985 902.44,626.026 925.832,392.078 949.224,846.976 972.617,924.959 
  996.009,976.947 1019.4,578.37 1042.79,920.626 1066.19,872.97 1089.58,1015.94 1112.97,613.029 1136.36,864.306 1159.75,439.734 1183.15,742.999 1206.54,669.349 
  1229.93,1154.57 1253.32,1228.22 1276.72,829.647 1300.11,1080.92 1323.5,898.964 1346.89,777.658 1370.28,911.961 1393.68,929.291 1417.07,842.644 1440.46,652.02 
  1463.85,924.959 1487.24,773.326 1510.64,820.982 1534.03,634.69 1557.42,656.352 1580.81,868.638 1604.21,881.635 1627.6,1154.57 1650.99,864.306 1674.38,924.959 
  1697.77,673.682 1721.17,600.032 1744.56,717.005 1767.95,1063.59 1791.34,1124.25 1814.74,968.282 1838.13,660.685 1861.52,435.402 1884.91,379.081 1908.3,738.667 
  1931.7,673.682 1955.09,838.311 1978.48,608.696 2001.87,483.058 2025.27,920.626 2048.66,383.414 2072.05,496.055 2095.44,400.743 2118.83,517.717 2142.23,626.026 
  2165.62,353.087 2189.01,340.09 2212.4,353.087 2235.79,361.752 2259.19,240.446 2282.58,301.099 2305.97,535.046 2329.36,483.058 2352.76,1002.94 2376.15,279.437 
  2399.54,656.352 
  "/>
</svg>
